<?xml version="1.0" encoding="utf-8"?>
<!-- Generator: Adobe Illustrator 18.1.0, SVG Export Plug-In . SVG Version: 6.00 Build 0)  -->
<svg version="1.1" id="图层_1" xmlns="http://www.w3.org/2000/svg" xmlns:xlink="http://www.w3.org/1999/xlink" x="0px" y="0px"
	 width="60px" height="60px" viewBox="10 -10 60 60" style="enable-background:new 10 -10 60 60;" xml:space="preserve">
<style type="text/css">
	.st0{fill:url(#SVGID_1_);}
	.st1{fill:url(#SVGID_2_);}
	.st2{fill:url(#SVGID_3_);}
	.st3{fill:url(#SVGID_4_);}
	.st4{fill:url(#SVGID_5_);}
	.st5{fill:url(#SVGID_6_);}
	.st6{fill:url(#SVGID_7_);}
	.st7{fill:url(#SVGID_8_);}
	.st8{fill:url(#SVGID_9_);}
	.st9{fill:url(#SVGID_10_);}
	.st10{fill:url(#SVGID_11_);}
	.st11{fill:url(#SVGID_12_);}
	.st12{fill:url(#SVGID_13_);}
	.st13{fill:url(#SVGID_14_);}
	.st14{fill:url(#SVGID_15_);}
	.st15{fill:url(#SVGID_16_);}
	.st16{fill:url(#SVGID_17_);}
	.st17{fill:url(#SVGID_18_);}
	.st18{fill:url(#SVGID_19_);}
	.st19{fill:url(#SVGID_20_);}
	.st20{fill:url(#SVGID_21_);}
	.st21{fill:url(#SVGID_22_);}
	.st22{fill:url(#SVGID_23_);}
	.st23{fill:url(#SVGID_24_);}
	.st24{opacity:0.22;fill:#FFFFFF;enable-background:new    ;}
</style>
<g>
	<g>
		
			<radialGradient id="SVGID_1_" cx="-282.1912" cy="-904.9841" r="161.3632" gradientTransform="matrix(0.4712 0 0 -0.4712 211.9285 -362.3603)" gradientUnits="userSpaceOnUse">
			<stop  offset="0" style="stop-color:#FFFFFF"/>
			<stop  offset="1" style="stop-color:#000000"/>
		</radialGradient>
		<path class="st0" d="M40.5,13.4c-16.1,0.1-27,6.5-26.6,17.3C14.2,40.3,25.4,48,40,48s26.2-7.6,26.2-17.2
			C66.3,18.6,52.9,13.3,40.5,13.4z M40,43.9c-14,0-25.7-7-25.5-15.4c0.1-7.1,11.4-14.9,25.5-14.9c14,0,25.8,6.8,25.8,15.2
			C65.7,37.2,54,43.9,40,43.9z"/>
		
			<radialGradient id="SVGID_2_" cx="-369.0694" cy="-929.2714" r="161.6056" gradientTransform="matrix(0.4712 0 0 -0.4712 211.9285 -362.3603)" gradientUnits="userSpaceOnUse">
			<stop  offset="0" style="stop-color:#FFFFFF"/>
			<stop  offset="1" style="stop-color:#000000"/>
		</radialGradient>
		<path class="st1" d="M65.7,28.5c0,0.1,0,0.3,0,0.4c0,8.3-11.7,15-25.8,15c-13.7,0-25.2-6.7-25.7-14.9c0,0.2,0,0.4,0,0.7
			c0,10.1,11.2,17.6,25.8,17.6s25.6-7.5,25.8-16.7C65.8,29.9,65.8,29.1,65.7,28.5z"/>
		
			<linearGradient id="SVGID_3_" gradientUnits="userSpaceOnUse" x1="37.5946" y1="-8.0453" x2="42.73" y2="33.3319" gradientTransform="matrix(1 0 0 -1 0 40)">
			<stop  offset="0" style="stop-color:#FFFFFF"/>
			<stop  offset="1" style="stop-color:#000000"/>
		</linearGradient>
		<path class="st2" d="M65.7,28.5c-0.2-1.5-0.6-3-1.2-4.3c-2.3-4.2-7.8-7.7-14.7-9.4c9.2,2.3,15.5,7.7,15.5,13.9
			c0,8.3-11.2,14.8-25.3,14.8c-14,0-25.6-6.4-25.6-14.8c0-8.1,10.6-14.7,24.1-15.1c-0.5,0-0.8,0-1.3,0.1c-0.2,0-0.5,0-0.7,0.1
			c-0.2,0-0.4,0-0.6,0c-0.4,0-0.7,0.1-1,0.1c-0.1,0-0.2,0-0.3,0c-0.4,0-0.7,0.1-0.9,0.1c-0.1,0-0.2,0-0.3,0c-0.3,0-0.5,0.1-0.7,0.1
			c-0.2,0-0.4,0.1-0.6,0.1c-0.1,0-0.3,0.1-0.4,0.1c-10.1,2-17.3,7.5-17.7,14.7c0.6,8.3,12.1,15,25.9,15c14,0,25.8-6.7,25.8-15
			C65.7,28.8,65.7,28.6,65.7,28.5z"/>
		
			<radialGradient id="SVGID_4_" cx="-342.9166" cy="-782.6083" r="188.8681" gradientTransform="matrix(0.4712 0 0 -0.4712 211.9285 -362.3603)" gradientUnits="userSpaceOnUse">
			<stop  offset="0" style="stop-color:#FFFFFF"/>
			<stop  offset="1" style="stop-color:#000000"/>
		</radialGradient>
		<path class="st3" d="M38.6,13.7c0.5,0,0.8,0,1.3,0c0.4,0,0.7,0,1.2,0c0.2,0,0.3,0,0.5,0c0.3,0,0.5,0,0.7,0c0.2,0,0.4,0,0.6,0
			s0.4,0,0.7,0.1c0.2,0,0.4,0,0.6,0.1c0.2,0,0.4,0,0.6,0.1c0.4,0,0.7,0.1,1.1,0.1c0.2,0,0.3,0,0.5,0.1c0.2,0,0.4,0.1,0.6,0.1
			c0.2,0,0.4,0.1,0.6,0.1c0.2,0,0.4,0.1,0.6,0.1s0.4,0.1,0.7,0.1c0.2,0,0.3,0.1,0.5,0.1c0.3,0.1,0.7,0.2,0.9,0.2h0.1
			c8.8,2.2,15,7.3,15.5,13.2c0-0.3,0-0.5,0-0.7c0-7.6-11.4-13.6-25.4-13.6s-25.4,6.1-25.4,13.6c0,0.3,0,0.5,0,0.7
			C15.2,20.3,25.6,14.1,38.6,13.7z"/>
		
			<linearGradient id="SVGID_5_" gradientUnits="userSpaceOnUse" x1="47.8844" y1="27.9306" x2="12.964" y2="-41.9104" gradientTransform="matrix(1 0 0 -1 0 40)">
			<stop  offset="0" style="stop-color:#FFFFFF"/>
			<stop  offset="1" style="stop-color:#000000"/>
		</linearGradient>
		<path class="st4" d="M40,41c13.6,0,24.7-5.7,25.4-13c-0.5-6-6.7-11-15.5-13.2h-0.1c-0.3-0.1-0.7-0.2-0.9-0.2
			c-0.2,0-0.3-0.1-0.5-0.1s-0.4-0.1-0.7-0.1c-0.2,0-0.4-0.1-0.6-0.1c-0.2,0-0.4-0.1-0.6-0.1c-0.2,0-0.4-0.1-0.6-0.1
			c-0.2,0-0.3,0-0.5-0.1C45.2,14,44.9,14,44.5,14c-0.2,0-0.4,0-0.6-0.1c-0.2,0-0.4,0-0.6-0.1c-0.2,0-0.4,0-0.7-0.1
			c-0.2,0-0.4,0-0.6,0c-0.3,0-0.5,0-0.7,0c-0.2,0-0.3,0-0.5,0c-0.4,0-0.7,0-1.2,0s-0.9,0-1.3,0C25.6,14.1,15.2,20.3,14.6,28
			C15.2,35.2,26.4,41,40,41z"/>
		
			<radialGradient id="SVGID_6_" cx="-369.6961" cy="-865.7495" r="137.5219" gradientTransform="matrix(0.4712 0 0 -0.4712 211.9285 -362.3603)" gradientUnits="userSpaceOnUse">
			<stop  offset="0" style="stop-color:#FFFFFF"/>
			<stop  offset="1" style="stop-color:#020202"/>
		</radialGradient>
		<path class="st5" d="M40,41c-13.6,0-24.8-5.7-25.4-13c0,0.3,0,0.5,0,0.7c0,8.3,11.5,14.8,25.6,14.8c14,0,25.3-6.4,25.3-14.8
			c0-0.3,0-0.5,0-0.7C64.7,35.2,53.5,41,40,41z"/>
	</g>
	<g>
		
			<radialGradient id="SVGID_7_" cx="-342.2907" cy="-741.8173" r="222.9572" gradientTransform="matrix(0.4712 0 0 -0.4712 211.9285 -362.3603)" gradientUnits="userSpaceOnUse">
			<stop  offset="0" style="stop-color:#FFFFFF"/>
			<stop  offset="1" style="stop-color:#000000"/>
		</radialGradient>
		<path class="st6" d="M40.5,6.3c-16.1,0.1-27,6.5-26.6,17.3c0.4,9.7,11.7,17.3,26.2,17.3c14.6,0,26.2-7.6,26.2-17.2
			C66.3,11.6,52.9,6.3,40.5,6.3z M40,36.9c-14,0-25.7-7-25.5-15.4C14.6,14.3,25.9,6.6,40,6.6c14,0,25.8,6.8,25.8,15.2
			C65.7,30.2,54,36.9,40,36.9z"/>
		
			<radialGradient id="SVGID_8_" cx="-369.0694" cy="-914.3248" r="161.6056" gradientTransform="matrix(0.4712 0 0 -0.4712 211.9285 -362.3603)" gradientUnits="userSpaceOnUse">
			<stop  offset="0" style="stop-color:#FFFFFF"/>
			<stop  offset="1" style="stop-color:#000000"/>
		</radialGradient>
		<path class="st7" d="M65.7,21.5c0,0.1,0,0.3,0,0.4c0,8.3-11.7,15-25.8,15c-13.7,0-25.2-6.7-25.7-14.9c0,0.2,0,0.4,0,0.7
			c0,10.1,11.2,17.6,25.8,17.6s25.6-7.5,25.8-16.7C65.8,22.8,65.8,22.1,65.7,21.5z"/>
		
			<linearGradient id="SVGID_9_" gradientUnits="userSpaceOnUse" x1="37.5993" y1="-1.0013" x2="42.7346" y2="40.3747" gradientTransform="matrix(1 0 0 -1 0 40)">
			<stop  offset="0" style="stop-color:#FFFFFF"/>
			<stop  offset="1" style="stop-color:#000000"/>
		</linearGradient>
		<path class="st8" d="M65.7,21.5c-0.2-1.5-0.6-3-1.2-4.3c-2.3-4.2-7.8-7.7-14.7-9.4c9.2,2.3,15.5,7.7,15.5,13.9
			c0,8.3-11.2,14.8-25.3,14.8c-14,0-25.6-6.4-25.6-14.8c0-8.1,10.6-14.7,24.1-15.1c-0.5,0-0.8,0-1.3,0.1c-0.2,0-0.5,0-0.7,0.1
			c-0.2,0-0.4,0-0.6,0c-0.4,0-0.7,0.1-1,0.1c-0.1,0-0.2,0-0.3,0c-0.4,0-0.7,0.1-0.9,0.1c-0.1,0-0.2,0-0.3,0C33.2,6.9,33,7,32.7,7
			c-0.2,0-0.4,0.1-0.6,0.1c-0.1,0-0.3,0.1-0.4,0.1c-10.1,2-17.3,7.5-17.7,14.7c0.6,8.3,12.1,15,25.9,15c14,0,25.8-6.7,25.8-15
			C65.7,21.7,65.7,21.6,65.7,21.5z"/>
		
			<radialGradient id="SVGID_10_" cx="-342.9166" cy="-767.6627" r="188.8681" gradientTransform="matrix(0.4712 0 0 -0.4712 211.9285 -362.3603)" gradientUnits="userSpaceOnUse">
			<stop  offset="0" style="stop-color:#FFFFFF"/>
			<stop  offset="1" style="stop-color:#000000"/>
		</radialGradient>
		<path class="st9" d="M38.6,6.6c0.5,0,0.8,0,1.3,0c0.4,0,0.7,0,1.2,0c0.2,0,0.3,0,0.5,0c0.3,0,0.5,0,0.7,0c0.2,0,0.4,0,0.6,0
			s0.4,0,0.7,0c0.2,0,0.4,0,0.6,0.1c0.2,0,0.4,0,0.6,0.1c0.4,0,0.7,0.1,1.1,0.1c0.2,0,0.3,0,0.5,0.1c0.2,0,0.4,0.1,0.6,0.1
			c0.2,0,0.4,0.1,0.6,0.1c0.2,0,0.4,0.1,0.6,0.1s0.4,0.1,0.7,0.1c0.2,0,0.3,0.1,0.5,0.1c0.3,0.1,0.7,0.2,0.9,0.2h0.1
			c8.8,2.2,15,7.3,15.5,13.2c0-0.3,0-0.5,0-0.7c0-7.6-11.4-13.6-25.4-13.6s-25.4,6.1-25.4,13.6c0,0.3,0,0.5,0,0.7
			C15.2,13.2,25.6,7,38.6,6.6z"/>
		
			<linearGradient id="SVGID_11_" gradientUnits="userSpaceOnUse" x1="47.8791" y1="34.9759" x2="12.9587" y2="-34.865" gradientTransform="matrix(1 0 0 -1 0 40)">
			<stop  offset="0" style="stop-color:#FFFFFF"/>
			<stop  offset="1" style="stop-color:#000000"/>
		</linearGradient>
		<path class="st10" d="M40,33.9c13.6,0,24.7-5.7,25.4-13c-0.5-6-6.7-11-15.5-13.2h-0.1c-0.3-0.1-0.7-0.2-0.9-0.2
			c-0.2,0-0.3-0.1-0.5-0.1S48,7.4,47.8,7.4c-0.2,0-0.4-0.1-0.6-0.1c-0.2,0-0.4-0.1-0.6-0.1c-0.2,0-0.4-0.1-0.6-0.1
			c-0.2,0-0.3,0-0.5-0.1c-0.4-0.1-0.7-0.1-1.1-0.1c-0.2,0-0.4,0-0.6-0.1c-0.2,0-0.4,0-0.6-0.1c-0.2,0-0.4,0-0.7,0
			c-0.2,0-0.4,0-0.6,0c-0.3,0-0.5,0-0.7,0c-0.2,0-0.3,0-0.5,0c-0.4,0-0.7,0-1.2,0s-0.9,0-1.3,0C25.6,7,15.2,13.2,14.6,21
			C15.2,28.2,26.4,33.9,40,33.9z"/>
		
			<radialGradient id="SVGID_12_" cx="-369.6961" cy="-850.8029" r="137.5219" gradientTransform="matrix(0.4712 0 0 -0.4712 211.9285 -362.3603)" gradientUnits="userSpaceOnUse">
			<stop  offset="0" style="stop-color:#FFFFFF"/>
			<stop  offset="1" style="stop-color:#020202"/>
		</radialGradient>
		<path class="st11" d="M40,33.9c-13.6,0-24.8-5.7-25.4-13c0,0.3,0,0.5,0,0.7c0,8.3,11.5,14.8,25.6,14.8c14,0,25.3-6.4,25.3-14.8
			c0-0.3,0-0.5,0-0.7C64.7,28.2,53.5,33.9,40,33.9z"/>
	</g>
	<g>
		
			<radialGradient id="SVGID_13_" cx="-342.2907" cy="-726.8707" r="222.9588" gradientTransform="matrix(0.4712 0 0 -0.4712 211.9285 -362.3603)" gradientUnits="userSpaceOnUse">
			<stop  offset="0" style="stop-color:#FFFFFF"/>
			<stop  offset="1" style="stop-color:#000000"/>
		</radialGradient>
		<path class="st12" d="M40.5-0.7c-16.1,0.1-27,6.5-26.6,17.3c0.4,9.7,11.7,17.3,26.2,17.3c14.6,0,26.2-7.6,26.2-17.2
			C66.3,4.5,52.9-0.8,40.5-0.7z M40,29.8c-14,0-25.7-7-25.5-15.4C14.6,7.3,25.9-0.4,40-0.4c14,0,25.8,6.8,25.8,15.2
			C65.7,23.2,54,29.8,40,29.8z"/>
		
			<radialGradient id="SVGID_14_" cx="-369.0694" cy="-899.3802" r="161.6081" gradientTransform="matrix(0.4712 0 0 -0.4712 211.9285 -362.3603)" gradientUnits="userSpaceOnUse">
			<stop  offset="0" style="stop-color:#FFFFFF"/>
			<stop  offset="1" style="stop-color:#000000"/>
		</radialGradient>
		<path class="st13" d="M65.7,14.4c0,0.1,0,0.3,0,0.4c0,8.3-11.7,15-25.8,15c-13.7,0-25.2-6.7-25.7-14.9c0,0.2,0,0.4,0,0.7
			c0,10.1,11.2,17.6,25.8,17.6s25.6-7.5,25.8-16.7C65.8,15.8,65.8,15.1,65.7,14.4z"/>
		
			<linearGradient id="SVGID_15_" gradientUnits="userSpaceOnUse" x1="37.6554" y1="6.0343" x2="42.7908" y2="47.4108" gradientTransform="matrix(1 0 0 -1 0 40)">
			<stop  offset="0" style="stop-color:#FFFFFF"/>
			<stop  offset="1" style="stop-color:#000000"/>
		</linearGradient>
		<path class="st14" d="M65.7,14.4c-0.2-1.5-0.6-3-1.2-4.3c-2.3-4.2-7.8-7.7-14.7-9.4C59,3,65.3,8.3,65.3,14.6
			c0,8.3-11.2,14.8-25.3,14.8c-14,0-25.6-6.4-25.6-14.8c0-8.1,10.6-14.7,24.1-15.1c-0.5,0-0.8,0-1.3,0.1c-0.2,0-0.5,0-0.7,0.1
			c-0.2,0-0.4,0-0.6,0c-0.4,0-0.7,0.1-1,0.1c-0.1,0-0.2,0-0.3,0c-0.4,0-0.7,0.1-0.9,0.1c-0.1,0-0.2,0-0.3,0c-0.3,0-0.5,0.1-0.7,0.1
			c-0.2,0-0.4,0.1-0.6,0.1c-0.1,0-0.3,0.1-0.4,0.1C21.8,2.2,14.6,7.8,14.2,15c0.5,8.1,12,14.8,25.8,14.8c14,0,25.8-6.7,25.8-15
			C65.7,14.7,65.7,14.6,65.7,14.4z"/>
		
			<radialGradient id="SVGID_16_" cx="-342.9166" cy="-752.7161" r="188.8681" gradientTransform="matrix(0.4712 0 0 -0.4712 211.9285 -362.3603)" gradientUnits="userSpaceOnUse">
			<stop  offset="0" style="stop-color:#FFFFFF"/>
			<stop  offset="1" style="stop-color:#000000"/>
		</radialGradient>
		<path class="st15" d="M38.6-0.4c0.5,0,0.8,0,1.3,0c0.4,0,0.7,0,1.2,0c0.2,0,0.3,0,0.5,0c0.3,0,0.5,0,0.7,0c0.2,0,0.4,0,0.6,0
			s0.4,0,0.7,0.1c0.2,0,0.4,0,0.6,0.1c0.2,0,0.4,0,0.6,0.1C45-0.1,45.4,0,45.8,0c0.2,0,0.3,0,0.5,0.1c0.2,0,0.4,0.1,0.6,0.1
			c0.2,0,0.4,0.1,0.6,0.1c0.2,0,0.4,0.1,0.6,0.1c0.1,0,0.3,0,0.5,0.1c0.2,0,0.3,0.1,0.5,0.1c0.3,0.1,0.7,0.2,0.9,0.2h0.1
			C58.7,3,64.9,8,65.4,13.9c0-0.3,0-0.5,0-0.7C65.4,5.7,54-0.4,40-0.4S14.6,5.7,14.6,13.2c0,0.3,0,0.5,0,0.7
			C15.2,6.1,25.6,0,38.6-0.4z"/>
		
			<linearGradient id="SVGID_17_" gradientUnits="userSpaceOnUse" x1="47.8764" y1="42.0204" x2="12.956" y2="-27.8205" gradientTransform="matrix(1 0 0 -1 0 40)">
			<stop  offset="0" style="stop-color:#FFFFFF"/>
			<stop  offset="1" style="stop-color:#000000"/>
		</linearGradient>
		<path class="st16" d="M40,26.9c13.6,0,24.7-5.7,25.4-13c-0.5-6-6.7-11-15.5-13.2h-0.1c-0.3-0.1-0.7-0.2-0.9-0.2
			c-0.2,0-0.3-0.1-0.5-0.1S48,0.4,47.8,0.4c-0.2,0-0.4-0.1-0.6-0.1c-0.2,0-0.4-0.1-0.6-0.1c-0.2,0-0.4-0.1-0.6-0.1
			c-0.2,0-0.3,0-0.5-0.1c-0.4-0.1-0.7-0.1-1.1-0.1c-0.2,0-0.4,0-0.6-0.1c-0.2,0-0.4,0-0.6-0.1c-0.2,0-0.4,0-0.7-0.1
			c-0.2,0-0.4,0-0.6,0c-0.3,0-0.5,0-0.7,0c-0.2,0-0.3,0-0.5,0c-0.4,0-0.7,0-1.2,0s-0.9,0-1.3,0C25.6,0,15.2,6.1,14.6,13.9
			C15.2,21.1,26.4,26.9,40,26.9z"/>
		
			<radialGradient id="SVGID_18_" cx="-369.6961" cy="-835.8563" r="137.5219" gradientTransform="matrix(0.4712 0 0 -0.4712 211.9285 -362.3603)" gradientUnits="userSpaceOnUse">
			<stop  offset="0" style="stop-color:#FFFFFF"/>
			<stop  offset="1" style="stop-color:#020202"/>
		</radialGradient>
		<path class="st17" d="M40,26.9c-13.6,0-24.8-5.7-25.4-13c0,0.3,0,0.5,0,0.7c0,8.3,11.5,14.8,25.6,14.8c14,0,25.3-6.4,25.3-14.8
			c0-0.3,0-0.5,0-0.7C64.7,21.2,53.5,26.9,40,26.9z"/>
	</g>
	<g>
		
			<radialGradient id="SVGID_19_" cx="-342.2907" cy="-711.9223" r="222.9621" gradientTransform="matrix(0.4712 0 0 -0.4712 211.9285 -362.3603)" gradientUnits="userSpaceOnUse">
			<stop  offset="0" style="stop-color:#FFFFFF"/>
			<stop  offset="1" style="stop-color:#000000"/>
		</radialGradient>
		<path class="st18" d="M40.5-7.8c-16.1,0.1-27,6.6-26.6,17.4c0.4,9.7,11.7,17.3,26.2,17.3c14.6,0,26.2-7.6,26.2-17.2
			C66.3-2.5,52.9-7.8,40.5-7.8z M40,22.8c-14,0-25.7-7-25.5-15.4C14.6,0.3,25.9-7.5,40-7.5c14,0,25.8,6.8,25.8,15.2
			C65.7,16.1,54,22.8,40,22.8z"/>
		
			<radialGradient id="SVGID_20_" cx="-369.0694" cy="-884.4326" r="161.6068" gradientTransform="matrix(0.4712 0 0 -0.4712 211.9285 -362.3603)" gradientUnits="userSpaceOnUse">
			<stop  offset="0" style="stop-color:#FFFFFF"/>
			<stop  offset="1" style="stop-color:#000000"/>
		</radialGradient>
		<path class="st19" d="M65.7,7.4c0,0.1,0,0.3,0,0.4c0,8.3-11.7,15-25.7,15c-13.7,0-25.2-6.7-25.7-14.9c0,0.2,0,0.4,0,0.7
			c0,10.1,11.2,17.6,25.8,17.6s25.6-7.5,25.8-16.7C65.8,8.7,65.8,8,65.7,7.4z"/>
		
			<linearGradient id="SVGID_21_" gradientUnits="userSpaceOnUse" x1="37.6548" y1="13.0771" x2="42.7901" y2="54.4537" gradientTransform="matrix(1 0 0 -1 0 40)">
			<stop  offset="0" style="stop-color:#FFFFFF"/>
			<stop  offset="1" style="stop-color:#000000"/>
		</linearGradient>
		<path class="st20" d="M65.7,7.4c-0.2-1.5-0.6-3-1.2-4.3c-2.3-4.2-7.8-7.7-14.7-9.4C59-4,65.3,1.3,65.3,7.6
			c0,8.3-11.2,14.8-25.3,14.8c-14,0-25.6-6.4-25.6-14.8c0-8.1,10.6-14.7,24.1-15.1c-0.5,0-0.8,0-1.3,0.1c-0.2,0-0.5,0-0.7,0.1
			c-0.2,0-0.4,0-0.6,0c-0.4,0-0.7,0.1-1,0.1c-0.1,0-0.2,0-0.3,0c-0.4,0-0.7,0.1-0.9,0.1c-0.1,0-0.2,0-0.3,0c-0.3,0-0.5,0.1-0.7,0.1
			c-0.2,0-0.4,0.1-0.6,0.1c-0.1,0-0.3,0.1-0.4,0.1c-10,2.1-17.2,7.8-17.6,14.9c0.5,8.1,12,14.9,25.8,14.9c14,0,25.8-6.7,25.8-15
			C65.7,7.6,65.7,7.5,65.7,7.4z"/>
		
			<radialGradient id="SVGID_22_" cx="-342.9166" cy="-737.7687" r="188.8681" gradientTransform="matrix(0.4712 0 0 -0.4712 211.9285 -362.3603)" gradientUnits="userSpaceOnUse">
			<stop  offset="0" style="stop-color:#FFFFFF"/>
			<stop  offset="1" style="stop-color:#000000"/>
		</radialGradient>
		<path class="st21" d="M38.6-7.5c0.5,0,0.8,0,1.3,0c0.4,0,0.7,0,1.2,0c0.2,0,0.3,0,0.5,0c0.3,0,0.5,0,0.7,0c0.2,0,0.4,0,0.6,0
			s0.4,0,0.7,0.1c0.2,0,0.4,0,0.6,0.1c0.2,0,0.4,0,0.6,0.1c0.4,0,0.7,0.1,1.1,0.1c0.2,0,0.3,0,0.5,0.1c0.2,0,0.4,0.1,0.6,0.1
			c0.2,0,0.4,0.1,0.6,0.1c0.2,0,0.4,0.1,0.6,0.1s0.4,0.1,0.7,0.1c0.2,0,0.3,0.1,0.5,0.1c0.3,0.1,0.7,0.2,0.9,0.2h0.1
			c8.5,2.2,14.8,7.3,15.2,13.3c0-0.3,0-0.5,0-0.7C65.4-1.3,54-7.5,40-7.5S14.6-1.4,14.6,6.1c0,0.3,0,0.5,0,0.7
			C15.2-0.9,25.6-7,38.6-7.5z"/>
		
			<linearGradient id="SVGID_23_" gradientUnits="userSpaceOnUse" x1="47.8908" y1="49.0555" x2="12.9702" y2="-20.786" gradientTransform="matrix(1 0 0 -1 0 40)">
			<stop  offset="0" style="stop-color:#FFFFFF"/>
			<stop  offset="1" style="stop-color:#000000"/>
		</linearGradient>
		<path class="st22" d="M40,19.9c13.6,0,24.7-5.7,25.4-13c-0.6-6-6.8-11-15.5-13.2h-0.1c-0.3-0.1-0.7-0.2-0.9-0.2
			c-0.2,0-0.3-0.1-0.5-0.1S48-6.6,47.8-6.6c-0.2,0-0.4-0.1-0.6-0.1c-0.2,0-0.4-0.1-0.6-0.1c-0.2,0-0.4-0.1-0.6-0.1
			c-0.2,0-0.3,0-0.5-0.1c-0.4-0.1-0.7-0.1-1.1-0.1c-0.2,0-0.4,0-0.6-0.1c-0.2,0-0.4,0-0.6-0.1c-0.2,0-0.4,0-0.7-0.1
			c-0.2,0-0.4,0-0.6,0c-0.3,0-0.5,0-0.7,0c-0.2,0-0.3,0-0.5,0c-0.4,0-0.7,0-1.2,0s-0.9,0-1.3,0C25.6-7,15.2-0.9,14.6,6.9
			C15.2,14.1,26.4,19.9,40,19.9z"/>
		
			<radialGradient id="SVGID_24_" cx="-369.6961" cy="-820.9108" r="137.5219" gradientTransform="matrix(0.4712 0 0 -0.4712 211.9285 -362.3603)" gradientUnits="userSpaceOnUse">
			<stop  offset="0" style="stop-color:#FFFFFF"/>
			<stop  offset="1" style="stop-color:#020202"/>
		</radialGradient>
		<path class="st23" d="M40,19.9c-13.6,0-24.8-5.8-25.4-13c0,0.3,0,0.5,0,0.7c0,8.3,11.5,14.8,25.6,14.8c14,0,25.3-6.4,25.3-14.8
			c0-0.3,0-0.5,0-0.7C64.7,14.1,53.5,19.9,40,19.9z"/>
	</g>
	<ellipse transform="matrix(0.1294 -0.9916 0.9916 0.1294 36.2377 46.2982)" class="st24" cx="44.5" cy="2.5" rx="10.3" ry="19.9"/>
</g>
</svg>
