<?xml version="1.0" encoding="utf-8"?>
<!-- Generator: Adobe Illustrator 18.1.0, SVG Export Plug-In . SVG Version: 6.00 Build 0)  -->
<svg version="1.1" id="图层_1" xmlns="http://www.w3.org/2000/svg" xmlns:xlink="http://www.w3.org/1999/xlink" x="0px" y="0px"
	 width="60px" height="60px" viewBox="10 -10 60 60" style="enable-background:new 10 -10 60 60;" xml:space="preserve">
<style type="text/css">
	.st0{fill:url(#SVGID_1_);}
	.st1{fill:url(#SVGID_2_);}
	.st2{fill:url(#SVGID_3_);}
	.st3{fill:url(#SVGID_4_);}
	.st4{fill:url(#SVGID_5_);}
	.st5{fill:url(#SVGID_6_);}
	.st6{fill:url(#SVGID_7_);}
	.st7{fill:url(#SVGID_8_);}
	.st8{fill:url(#SVGID_9_);}
	.st9{fill:url(#SVGID_10_);}
	.st10{fill:url(#SVGID_11_);}
	.st11{fill:url(#SVGID_12_);}
	.st12{fill:url(#SVGID_13_);}
	.st13{fill:url(#SVGID_14_);}
	.st14{fill:url(#SVGID_15_);}
	.st15{fill:url(#SVGID_16_);}
	.st16{fill:url(#SVGID_17_);}
	.st17{fill:url(#SVGID_18_);}
	.st18{fill:url(#SVGID_19_);}
	.st19{fill:url(#SVGID_20_);}
	.st20{fill:url(#SVGID_21_);}
	.st21{fill:url(#SVGID_22_);}
	.st22{fill:url(#SVGID_23_);}
	.st23{fill:url(#SVGID_24_);}
	.st24{fill:url(#SVGID_25_);}
	.st25{fill:url(#SVGID_26_);}
	.st26{fill:url(#SVGID_27_);}
	.st27{fill:url(#SVGID_28_);}
	.st28{fill:url(#SVGID_29_);}
	.st29{fill:url(#SVGID_30_);}
	.st30{fill:url(#SVGID_31_);}
	.st31{fill:url(#SVGID_32_);}
	.st32{fill:url(#SVGID_33_);}
	.st33{fill:url(#SVGID_34_);}
	.st34{fill:url(#SVGID_35_);}
	.st35{fill:url(#SVGID_36_);}
	.st36{fill:url(#SVGID_37_);}
	.st37{fill:url(#SVGID_38_);}
	.st38{fill:url(#SVGID_39_);}
	.st39{fill:url(#SVGID_40_);}
	.st40{fill:url(#SVGID_41_);}
	.st41{fill:url(#SVGID_42_);}
	.st42{fill:url(#SVGID_43_);}
	.st43{fill:url(#SVGID_44_);}
	.st44{fill:url(#SVGID_45_);}
	.st45{fill:url(#SVGID_46_);}
	.st46{fill:url(#SVGID_47_);}
	.st47{fill:url(#SVGID_48_);}
	.st48{fill:url(#SVGID_49_);}
	.st49{fill:url(#SVGID_50_);}
	.st50{fill:url(#SVGID_51_);}
	.st51{fill:url(#SVGID_52_);}
	.st52{fill:url(#SVGID_53_);}
	.st53{fill:url(#SVGID_54_);}
	.st54{fill:url(#SVGID_55_);}
	.st55{fill:url(#SVGID_56_);}
	.st56{fill:url(#SVGID_57_);}
	.st57{fill:url(#SVGID_58_);}
	.st58{fill:url(#SVGID_59_);}
	.st59{fill:url(#SVGID_60_);}
	.st60{fill:url(#SVGID_61_);}
	.st61{fill:url(#SVGID_62_);}
	.st62{fill:url(#SVGID_63_);}
	.st63{fill:url(#SVGID_64_);}
	.st64{fill:url(#SVGID_65_);}
	.st65{fill:url(#SVGID_66_);}
	.st66{fill:url(#SVGID_67_);}
	.st67{fill:url(#SVGID_68_);}
	.st68{fill:url(#SVGID_69_);}
</style>
<g>
	<g>
		
			<linearGradient id="SVGID_1_" gradientUnits="userSpaceOnUse" x1="40.0934" y1="47.9535" x2="40.0934" y2="21.9382" gradientTransform="matrix(1 0 0 -1 0 40)">
			<stop  offset="0" style="stop-color:#D7D2D0"/>
			<stop  offset="2.481570e-002" style="stop-color:#FFFFFF"/>
			<stop  offset="0.2645" style="stop-color:#E5E2E0"/>
			<stop  offset="0.4606" style="stop-color:#CDC7C4"/>
			<stop  offset="0.9668" style="stop-color:#FFFFFF"/>
			<stop  offset="1" style="stop-color:#D7D2D0"/>
		</linearGradient>
		<path class="st0" d="M56.8,17.9V-6.6c0-0.7-0.7-1.4-1.5-1.4H24.8c-0.8,0-1.4,0.7-1.4,1.4v24.5H56.8z"/>
		
			<linearGradient id="SVGID_2_" gradientUnits="userSpaceOnUse" x1="40.1401" y1="46.5189" x2="40.1401" y2="25.6598" gradientTransform="matrix(1 0 0 -1 0 40)">
			<stop  offset="0" style="stop-color:#6C6E71"/>
			<stop  offset="1.212120e-002" style="stop-color:#6C6E71"/>
			<stop  offset="5.444521e-002" style="stop-color:#B4B6B8"/>
			<stop  offset="7.984300e-002" style="stop-color:#E2E3E4"/>
			<stop  offset="0.1726" style="stop-color:#B9BCBF"/>
			<stop  offset="0.3324" style="stop-color:#F5F5F5"/>
			<stop  offset="0.3453" style="stop-color:#FAFAFA"/>
			<stop  offset="0.4316" style="stop-color:#FAFAFA"/>
			<stop  offset="0.8133" style="stop-color:#6C6E71"/>
			<stop  offset="0.9084" style="stop-color:#999B9E"/>
			<stop  offset="1" style="stop-color:#C8CBCD"/>
		</linearGradient>
		<rect x="24.9" y="-6.6" class="st1" width="30.5" height="20.7"/>
		
			<linearGradient id="SVGID_3_" gradientUnits="userSpaceOnUse" x1="40.0467" y1="46.1219" x2="40.0467" y2="24.5041" gradientTransform="matrix(1 0 0 -1 0 40)">
			<stop  offset="0" style="stop-color:#AACFEE"/>
			<stop  offset="4.632051e-002" style="stop-color:#98C7EB"/>
			<stop  offset="9.696970e-002" style="stop-color:#80BBE6"/>
			<stop  offset="0.4306" style="stop-color:#1275BD"/>
			<stop  offset="0.4848" style="stop-color:#0069B6"/>
			<stop  offset="0.9007" style="stop-color:#0095DB"/>
			<stop  offset="1" style="stop-color:#AACFEE"/>
		</linearGradient>
		<rect x="25.1" y="-6.3" class="st2" width="30" height="20.3"/>
		
			<linearGradient id="SVGID_4_" gradientUnits="userSpaceOnUse" x1="39.0011" y1="24.2933" x2="41.1664" y2="24.2933" gradientTransform="matrix(1 0 0 -1 0 40)">
			<stop  offset="0" style="stop-color:#6C6E71"/>
			<stop  offset="1.212120e-002" style="stop-color:#6C6E71"/>
			<stop  offset="5.444521e-002" style="stop-color:#B4B6B8"/>
			<stop  offset="7.984300e-002" style="stop-color:#E2E3E4"/>
			<stop  offset="0.1726" style="stop-color:#B9BCBF"/>
			<stop  offset="0.3324" style="stop-color:#F5F5F5"/>
			<stop  offset="0.3453" style="stop-color:#FAFAFA"/>
			<stop  offset="0.4316" style="stop-color:#FAFAFA"/>
			<stop  offset="0.8133" style="stop-color:#6C6E71"/>
			<stop  offset="0.9084" style="stop-color:#999B9E"/>
			<stop  offset="1" style="stop-color:#C8CBCD"/>
		</linearGradient>
		<circle class="st3" cx="40.1" cy="15.7" r="1"/>
		
			<linearGradient id="SVGID_5_" gradientUnits="userSpaceOnUse" x1="39.126" y1="24.2933" x2="41.0451" y2="24.2933" gradientTransform="matrix(1 0 0 -1 0 40)">
			<stop  offset="0" style="stop-color:#C2C3C3"/>
			<stop  offset="0.1818" style="stop-color:#E7E7E8"/>
			<stop  offset="0.4424" style="stop-color:#F4F4F4"/>
			<stop  offset="0.6424" style="stop-color:#FDFDFD"/>
			<stop  offset="0.8291" style="stop-color:#FFFFFF"/>
			<stop  offset="0.9546" style="stop-color:#E2DDD9"/>
			<stop  offset="1" style="stop-color:#D7CFCA"/>
		</linearGradient>
		<circle class="st4" cx="40.1" cy="15.7" r="0.9"/>
		
			<linearGradient id="SVGID_6_" gradientUnits="userSpaceOnUse" x1="39.5019" y1="24.2933" x2="40.6799" y2="24.2933" gradientTransform="matrix(1 0 0 -1 0 40)">
			<stop  offset="0" style="stop-color:#AACFEE"/>
			<stop  offset="4.632051e-002" style="stop-color:#98C7EB"/>
			<stop  offset="9.696970e-002" style="stop-color:#80BBE6"/>
			<stop  offset="0.4306" style="stop-color:#1275BD"/>
			<stop  offset="0.4848" style="stop-color:#0069B6"/>
			<stop  offset="0.9007" style="stop-color:#0095DB"/>
			<stop  offset="1" style="stop-color:#AACFEE"/>
		</linearGradient>
		<circle class="st5" cx="40.1" cy="15.7" r="0.6"/>
		<g>
			
				<linearGradient id="SVGID_7_" gradientUnits="userSpaceOnUse" x1="40.0934" y1="21.3194" x2="40.0934" y2="16.314" gradientTransform="matrix(1 0 0 -1 0 40)">
				<stop  offset="0" style="stop-color:#C9C5C1"/>
				<stop  offset="6.506420e-002" style="stop-color:#DEDBDA"/>
				<stop  offset="0.3455" style="stop-color:#C6C2BF"/>
				<stop  offset="0.5152" style="stop-color:#B7B1AE"/>
				<stop  offset="0.6677" style="stop-color:#C5C0BD"/>
				<stop  offset="0.9333" style="stop-color:#DEDBDA"/>
				<stop  offset="1" style="stop-color:#C9C5C1"/>
			</linearGradient>
			<path class="st6" d="M59.2,23.2c0,0.3-0.3,0.6-0.6,0.6H21.5c-0.3,0-0.6-0.3-0.6-0.6v-4c0-0.3,0.3-0.6,0.6-0.6h37.1
				c0.3,0,0.6,0.3,0.6,0.6V23.2z"/>
			
				<linearGradient id="SVGID_8_" gradientUnits="userSpaceOnUse" x1="50.5934" y1="20.3791" x2="50.5934" y2="17.2094" gradientTransform="matrix(1 0 0 -1 0 40)">
				<stop  offset="0" style="stop-color:#C2C3C3"/>
				<stop  offset="0.1818" style="stop-color:#E7E7E8"/>
				<stop  offset="0.4424" style="stop-color:#F4F4F4"/>
				<stop  offset="0.6424" style="stop-color:#FDFDFD"/>
				<stop  offset="0.8291" style="stop-color:#FFFFFF"/>
				<stop  offset="0.9546" style="stop-color:#E2DDD9"/>
				<stop  offset="1" style="stop-color:#D7CFCA"/>
			</linearGradient>
			<path class="st7" d="M45.2,22.8c-0.4,0-0.7-0.3-0.7-0.7v-1.9c0-0.4,0.3-0.7,0.7-0.7H56c0.4,0,0.7,0.3,0.7,0.7v1.9
				c0,0.4-0.3,0.7-0.7,0.7H45.2z"/>
			
				<linearGradient id="SVGID_9_" gradientUnits="userSpaceOnUse" x1="50.6401" y1="20.2009" x2="50.6401" y2="17.3923" gradientTransform="matrix(1 0 0 -1 0 40)">
				<stop  offset="5.618000e-003" style="stop-color:#615550"/>
				<stop  offset="0.889" style="stop-color:#302623"/>
				<stop  offset="1" style="stop-color:#000000"/>
			</linearGradient>
			<path class="st8" d="M56.5,22.1c0,0.3-0.2,0.5-0.5,0.5H45.2c-0.3,0-0.5-0.2-0.5-0.5v-1.9c0-0.3,0.2-0.5,0.5-0.5H56
				c0.3,0,0.5,0.2,0.5,0.5L56.5,22.1L56.5,22.1z"/>
			
				<linearGradient id="SVGID_10_" gradientUnits="userSpaceOnUse" x1="25.8292" y1="18.3991" x2="22.5215" y2="16.3791" gradientTransform="matrix(1 0 0 -1 0 40)">
				<stop  offset="0" style="stop-color:#C2C3C3"/>
				<stop  offset="0.1818" style="stop-color:#E7E7E8"/>
				<stop  offset="0.4424" style="stop-color:#F4F4F4"/>
				<stop  offset="0.6424" style="stop-color:#FDFDFD"/>
				<stop  offset="0.8291" style="stop-color:#FFFFFF"/>
				<stop  offset="0.9546" style="stop-color:#E2DDD9"/>
				<stop  offset="1" style="stop-color:#D7CFCA"/>
			</linearGradient>
			<path class="st9" d="M23.1,22.8c-0.1,0-0.2-0.1-0.2-0.2v-0.5c0-0.1,0.1-0.2,0.2-0.2H26c0.1,0,0.2,0.1,0.2,0.2v0.5
				c0,0.1-0.1,0.2-0.2,0.2H23.1z"/>
			
				<linearGradient id="SVGID_11_" gradientUnits="userSpaceOnUse" x1="24.5534" y1="18.014" x2="24.5534" y2="17.2605" gradientTransform="matrix(1 0 0 -1 0 40)">
				<stop  offset="5.618000e-003" style="stop-color:#615550"/>
				<stop  offset="0.889" style="stop-color:#302623"/>
				<stop  offset="1" style="stop-color:#000000"/>
			</linearGradient>
			<path class="st10" d="M26.1,22.6C26.1,22.7,26,22.7,26.1,22.6l-3,0.1c-0.1,0-0.1-0.1-0.1-0.1v-0.5c0-0.1,0.1-0.1,0.1-0.1H26
				c0.1,0,0.1,0.1,0.1,0.1V22.6z"/>
			
				<linearGradient id="SVGID_12_" gradientUnits="userSpaceOnUse" x1="29.6369" y1="18.3876" x2="26.3298" y2="16.3679" gradientTransform="matrix(1 0 0 -1 0 40)">
				<stop  offset="0" style="stop-color:#C2C3C3"/>
				<stop  offset="0.1818" style="stop-color:#E7E7E8"/>
				<stop  offset="0.4424" style="stop-color:#F4F4F4"/>
				<stop  offset="0.6424" style="stop-color:#FDFDFD"/>
				<stop  offset="0.8291" style="stop-color:#FFFFFF"/>
				<stop  offset="0.9546" style="stop-color:#E2DDD9"/>
				<stop  offset="1" style="stop-color:#D7CFCA"/>
			</linearGradient>
			<path class="st11" d="M26.9,22.8c-0.1,0-0.2-0.1-0.2-0.2v-0.5c0-0.1,0.1-0.2,0.2-0.2h2.9c0.1,0,0.2,0.1,0.2,0.2v0.5
				c0,0.1-0.1,0.2-0.2,0.2H26.9z"/>
			
				<linearGradient id="SVGID_13_" gradientUnits="userSpaceOnUse" x1="28.3801" y1="18.014" x2="28.3801" y2="17.2605" gradientTransform="matrix(1 0 0 -1 0 40)">
				<stop  offset="5.618000e-003" style="stop-color:#615550"/>
				<stop  offset="0.889" style="stop-color:#302623"/>
				<stop  offset="1" style="stop-color:#000000"/>
			</linearGradient>
			<path class="st12" d="M29.9,22.6C29.9,22.7,29.8,22.7,29.9,22.6l-3,0.1c-0.1,0-0.1-0.1-0.1-0.1v-0.5c0-0.1,0.1-0.1,0.1-0.1h2.9
				c0.1,0,0.1,0.1,0.1,0.1V22.6z"/>
		</g>
		
			<linearGradient id="SVGID_14_" gradientUnits="userSpaceOnUse" x1="34.2301" y1="21.7733" x2="46.9781" y2="21.7733" gradientTransform="matrix(1 0 0 -1 0 40)">
			<stop  offset="0" style="stop-color:#C2C3C3"/>
			<stop  offset="0.1818" style="stop-color:#E7E7E8"/>
			<stop  offset="0.4424" style="stop-color:#F4F4F4"/>
			<stop  offset="0.6424" style="stop-color:#FDFDFD"/>
			<stop  offset="0.8291" style="stop-color:#FFFFFF"/>
			<stop  offset="0.9546" style="stop-color:#E2DDD9"/>
			<stop  offset="1" style="stop-color:#D7CFCA"/>
		</linearGradient>
		<rect x="34.2" y="17.9" class="st13" width="12.9" height="0.7"/>
	</g>
	<g>
		
			<linearGradient id="SVGID_15_" gradientUnits="userSpaceOnUse" x1="86.1997" y1="319.8867" x2="86.1997" y2="317.1135" gradientTransform="matrix(0 1 -1 0 377.5444 -53.1797)">
			<stop  offset="0" style="stop-color:#D7D2D0"/>
			<stop  offset="2.481570e-002" style="stop-color:#FFFFFF"/>
			<stop  offset="0.2645" style="stop-color:#E5E2E0"/>
			<stop  offset="0.4606" style="stop-color:#CDC7C4"/>
			<stop  offset="0.9668" style="stop-color:#FFFFFF"/>
			<stop  offset="1" style="stop-color:#D7D2D0"/>
		</linearGradient>
		<rect x="57.6" y="28.8" class="st14" width="2.8" height="8.5"/>
		
			<linearGradient id="SVGID_16_" gradientUnits="userSpaceOnUse" x1="83.7264" y1="388.8667" x2="83.7264" y2="386.0935" gradientTransform="matrix(0 1 1 0 -348.3066 -53.1797)">
			<stop  offset="0" style="stop-color:#D7D2D0"/>
			<stop  offset="2.481570e-002" style="stop-color:#FFFFFF"/>
			<stop  offset="0.2645" style="stop-color:#E5E2E0"/>
			<stop  offset="0.4606" style="stop-color:#CDC7C4"/>
			<stop  offset="0.9668" style="stop-color:#FFFFFF"/>
			<stop  offset="1" style="stop-color:#D7D2D0"/>
		</linearGradient>
		<rect x="37.8" y="23.8" class="st15" width="2.8" height="13.4"/>
		
			<linearGradient id="SVGID_17_" gradientUnits="userSpaceOnUse" x1="86.1997" y1="370.8477" x2="86.1997" y2="368.075" gradientTransform="matrix(0 1 1 0 -348.3066 -53.1797)">
			<stop  offset="0" style="stop-color:#D7D2D0"/>
			<stop  offset="2.481570e-002" style="stop-color:#FFFFFF"/>
			<stop  offset="0.2645" style="stop-color:#E5E2E0"/>
			<stop  offset="0.4606" style="stop-color:#CDC7C4"/>
			<stop  offset="0.9668" style="stop-color:#FFFFFF"/>
			<stop  offset="1" style="stop-color:#D7D2D0"/>
		</linearGradient>
		<rect x="19.7" y="28.8" class="st16" width="2.8" height="8.5"/>
		
			<linearGradient id="SVGID_18_" gradientUnits="userSpaceOnUse" x1="40.0934" y1="11.1588" x2="40.0934" y2="8.3868" gradientTransform="matrix(1 0 0 -1 0 40)">
			<stop  offset="0" style="stop-color:#D7D2D0"/>
			<stop  offset="2.481570e-002" style="stop-color:#FFFFFF"/>
			<stop  offset="0.2645" style="stop-color:#E5E2E0"/>
			<stop  offset="0.4606" style="stop-color:#CDC7C4"/>
			<stop  offset="0.9668" style="stop-color:#FFFFFF"/>
			<stop  offset="1" style="stop-color:#D7D2D0"/>
		</linearGradient>
		<polygon class="st17" points="41,28.8 39.2,28.8 19.7,28.8 19.7,31.7 39.2,31.7 41,31.7 60.4,31.7 60.4,28.8 		"/>
		<g>
			
				<linearGradient id="SVGID_19_" gradientUnits="userSpaceOnUse" x1="39.2067" y1="13.494" x2="39.2067" y2="6.7824" gradientTransform="matrix(1 0 0 -1 0 40)">
				<stop  offset="0" style="stop-color:#D7D2D0"/>
				<stop  offset="2.481570e-002" style="stop-color:#FFFFFF"/>
				<stop  offset="0.2645" style="stop-color:#E5E2E0"/>
				<stop  offset="0.4606" style="stop-color:#CDC7C4"/>
				<stop  offset="0.9668" style="stop-color:#FFFFFF"/>
				<stop  offset="1" style="stop-color:#D7D2D0"/>
			</linearGradient>
			<path class="st18" d="M44.1,31.6c0,0.9-0.7,1.8-1.8,1.8h-6.3c-0.9,0-1.8-0.7-1.8-1.8v-3.4c0-0.9,0.7-1.8,1.8-1.8h6.3
				c0.9,0,1.8,0.7,1.8,1.8V31.6z"/>
			
				<linearGradient id="SVGID_20_" gradientUnits="userSpaceOnUse" x1="39.2067" y1="11.94" x2="39.2067" y2="8.3318" gradientTransform="matrix(1 0 0 -1 0 40)">
				<stop  offset="0" style="stop-color:#6C6E71"/>
				<stop  offset="1.212120e-002" style="stop-color:#6C6E71"/>
				<stop  offset="5.444521e-002" style="stop-color:#B4B6B8"/>
				<stop  offset="7.984300e-002" style="stop-color:#E2E3E4"/>
				<stop  offset="0.1726" style="stop-color:#B9BCBF"/>
				<stop  offset="0.3324" style="stop-color:#F5F5F5"/>
				<stop  offset="0.3453" style="stop-color:#FAFAFA"/>
				<stop  offset="0.4316" style="stop-color:#FAFAFA"/>
				<stop  offset="0.8133" style="stop-color:#6C6E71"/>
				<stop  offset="0.9084" style="stop-color:#999B9E"/>
				<stop  offset="1" style="stop-color:#C8CBCD"/>
			</linearGradient>
			<path class="st19" d="M36.1,31.7c-0.1,0-0.2-0.1-0.2-0.2v-3.4c0-0.1,0.1-0.2,0.2-0.2h6.3c0.1,0,0.2,0.1,0.2,0.2v3.4
				c0,0.1-0.1,0.2-0.2,0.2H36.1z"/>
			
				<linearGradient id="SVGID_21_" gradientUnits="userSpaceOnUse" x1="39.3001" y1="11.0203" x2="39.3001" y2="9.2493" gradientTransform="matrix(1 0 0 -1 0 40)">
				<stop  offset="5.618000e-003" style="stop-color:#615550"/>
				<stop  offset="0.889" style="stop-color:#302623"/>
				<stop  offset="1" style="stop-color:#000000"/>
			</linearGradient>
			<rect x="36.9" y="29" class="st20" width="4.8" height="1.8"/>
		</g>
		<g>
			
				<linearGradient id="SVGID_22_" gradientUnits="userSpaceOnUse" x1="21.1467" y1="12.3009" x2="21.1467" y2="7.9725" gradientTransform="matrix(1 0 0 -1 0 40)">
				<stop  offset="0" style="stop-color:#D7D2D0"/>
				<stop  offset="2.481570e-002" style="stop-color:#FFFFFF"/>
				<stop  offset="0.2645" style="stop-color:#E5E2E0"/>
				<stop  offset="0.4606" style="stop-color:#CDC7C4"/>
				<stop  offset="0.9668" style="stop-color:#FFFFFF"/>
				<stop  offset="1" style="stop-color:#D7D2D0"/>
			</linearGradient>
			<path class="st21" d="M24.3,30.9c0,0.7-0.5,1.1-1.1,1.1h-4.1c-0.7,0-1.1-0.5-1.1-1.1v-2.1c0-0.7,0.5-1.1,1.1-1.1h4.1
				c0.7,0,1.1,0.5,1.1,1.1V30.9z"/>
			
				<linearGradient id="SVGID_23_" gradientUnits="userSpaceOnUse" x1="21.1467" y1="11.2983" x2="21.1467" y2="8.9721" gradientTransform="matrix(1 0 0 -1 0 40)">
				<stop  offset="0" style="stop-color:#6C6E71"/>
				<stop  offset="1.212120e-002" style="stop-color:#6C6E71"/>
				<stop  offset="5.444521e-002" style="stop-color:#B4B6B8"/>
				<stop  offset="7.984300e-002" style="stop-color:#E2E3E4"/>
				<stop  offset="0.1726" style="stop-color:#B9BCBF"/>
				<stop  offset="0.3324" style="stop-color:#F5F5F5"/>
				<stop  offset="0.3453" style="stop-color:#FAFAFA"/>
				<stop  offset="0.4316" style="stop-color:#FAFAFA"/>
				<stop  offset="0.8133" style="stop-color:#6C6E71"/>
				<stop  offset="0.9084" style="stop-color:#999B9E"/>
				<stop  offset="1" style="stop-color:#C8CBCD"/>
			</linearGradient>
			<path class="st22" d="M19.1,31C19,31,19,31,19.1,31L19,28.8c0-0.1,0-0.1,0.1-0.1h4.1c0.1,0,0.1,0,0.1,0.1v2.1
				c0,0.1,0,0.1-0.1,0.1H19.1z"/>
			
				<linearGradient id="SVGID_24_" gradientUnits="userSpaceOnUse" x1="21.1934" y1="10.7059" x2="21.1934" y2="9.5634" gradientTransform="matrix(1 0 0 -1 0 40)">
				<stop  offset="5.618000e-003" style="stop-color:#615550"/>
				<stop  offset="0.889" style="stop-color:#302623"/>
				<stop  offset="1" style="stop-color:#000000"/>
			</linearGradient>
			<rect x="19.7" y="29.2" class="st23" width="3.1" height="1.1"/>
		</g>
		<g>
			
				<linearGradient id="SVGID_25_" gradientUnits="userSpaceOnUse" x1="59.0867" y1="12.3009" x2="59.0867" y2="7.9725" gradientTransform="matrix(1 0 0 -1 0 40)">
				<stop  offset="0" style="stop-color:#D7D2D0"/>
				<stop  offset="2.481570e-002" style="stop-color:#FFFFFF"/>
				<stop  offset="0.2645" style="stop-color:#E5E2E0"/>
				<stop  offset="0.4606" style="stop-color:#CDC7C4"/>
				<stop  offset="0.9668" style="stop-color:#FFFFFF"/>
				<stop  offset="1" style="stop-color:#D7D2D0"/>
			</linearGradient>
			<path class="st24" d="M62.2,30.9c0,0.7-0.5,1.1-1.1,1.1h-4c-0.7,0-1.1-0.5-1.1-1.1v-2.1c0-0.7,0.5-1.1,1.1-1.1h4
				c0.7,0,1.1,0.5,1.1,1.1V30.9z"/>
			
				<linearGradient id="SVGID_26_" gradientUnits="userSpaceOnUse" x1="58.9934" y1="11.2983" x2="58.9934" y2="8.9721" gradientTransform="matrix(1 0 0 -1 0 40)">
				<stop  offset="0" style="stop-color:#6C6E71"/>
				<stop  offset="1.212120e-002" style="stop-color:#6C6E71"/>
				<stop  offset="5.444521e-002" style="stop-color:#B4B6B8"/>
				<stop  offset="7.984300e-002" style="stop-color:#E2E3E4"/>
				<stop  offset="0.1726" style="stop-color:#B9BCBF"/>
				<stop  offset="0.3324" style="stop-color:#F5F5F5"/>
				<stop  offset="0.3453" style="stop-color:#FAFAFA"/>
				<stop  offset="0.4316" style="stop-color:#FAFAFA"/>
				<stop  offset="0.8133" style="stop-color:#6C6E71"/>
				<stop  offset="0.9084" style="stop-color:#999B9E"/>
				<stop  offset="1" style="stop-color:#C8CBCD"/>
			</linearGradient>
			<path class="st25" d="M57,31C56.9,31,56.9,31,57,31l-0.1-2.2c0-0.1,0-0.1,0.1-0.1h4c0.1,0,0.1,0,0.1,0.1v2.1c0,0.1,0,0.1-0.1,0.1
				H57z"/>
			
				<linearGradient id="SVGID_27_" gradientUnits="userSpaceOnUse" x1="59.0867" y1="10.7059" x2="59.0867" y2="9.5634" gradientTransform="matrix(1 0 0 -1 0 40)">
				<stop  offset="5.618000e-003" style="stop-color:#615550"/>
				<stop  offset="0.889" style="stop-color:#302623"/>
				<stop  offset="1" style="stop-color:#000000"/>
			</linearGradient>
			<rect x="57.5" y="29.2" class="st26" width="3.1" height="1.1"/>
		</g>
	</g>
	<g>
		
			<linearGradient id="SVGID_28_" gradientUnits="userSpaceOnUse" x1="20.9601" y1="2.64" x2="20.9601" y2="-6.0997" gradientTransform="matrix(1 0 0 -1 0 40)">
			<stop  offset="0" style="stop-color:#D7D2D0"/>
			<stop  offset="2.481570e-002" style="stop-color:#FFFFFF"/>
			<stop  offset="0.2645" style="stop-color:#E5E2E0"/>
			<stop  offset="0.4606" style="stop-color:#CDC7C4"/>
			<stop  offset="0.9668" style="stop-color:#FFFFFF"/>
			<stop  offset="1" style="stop-color:#D7D2D0"/>
		</linearGradient>
		<path class="st27" d="M26.6,46v-8.2c0-0.3-0.2-0.5-0.5-0.5H15.8c-0.3,0-0.5,0.2-0.5,0.5V46H26.6z"/>
		
			<linearGradient id="SVGID_29_" gradientUnits="userSpaceOnUse" x1="20.9601" y1="2.1733" x2="20.9601" y2="-4.8363" gradientTransform="matrix(1 0 0 -1 0 40)">
			<stop  offset="0" style="stop-color:#6C6E71"/>
			<stop  offset="1.212120e-002" style="stop-color:#6C6E71"/>
			<stop  offset="5.444521e-002" style="stop-color:#B4B6B8"/>
			<stop  offset="7.984300e-002" style="stop-color:#E2E3E4"/>
			<stop  offset="0.1726" style="stop-color:#B9BCBF"/>
			<stop  offset="0.3324" style="stop-color:#F5F5F5"/>
			<stop  offset="0.3453" style="stop-color:#FAFAFA"/>
			<stop  offset="0.4316" style="stop-color:#FAFAFA"/>
			<stop  offset="0.8133" style="stop-color:#6C6E71"/>
			<stop  offset="0.9084" style="stop-color:#999B9E"/>
			<stop  offset="1" style="stop-color:#C8CBCD"/>
		</linearGradient>
		<rect x="15.8" y="37.8" class="st28" width="10.3" height="7"/>
		
			<linearGradient id="SVGID_30_" gradientUnits="userSpaceOnUse" x1="20.9601" y1="2.0333" x2="20.9601" y2="-5.2306" gradientTransform="matrix(1 0 0 -1 0 40)">
			<stop  offset="0" style="stop-color:#AACFEE"/>
			<stop  offset="4.632051e-002" style="stop-color:#98C7EB"/>
			<stop  offset="9.696970e-002" style="stop-color:#80BBE6"/>
			<stop  offset="0.4306" style="stop-color:#1275BD"/>
			<stop  offset="0.4848" style="stop-color:#0069B6"/>
			<stop  offset="0.9007" style="stop-color:#0095DB"/>
			<stop  offset="1" style="stop-color:#AACFEE"/>
		</linearGradient>
		<rect x="15.9" y="37.9" class="st29" width="10.1" height="6.8"/>
		
			<linearGradient id="SVGID_31_" gradientUnits="userSpaceOnUse" x1="20.585" y1="-5.2933" x2="21.3125" y2="-5.2933" gradientTransform="matrix(1 0 0 -1 0 40)">
			<stop  offset="0" style="stop-color:#6C6E71"/>
			<stop  offset="1.212120e-002" style="stop-color:#6C6E71"/>
			<stop  offset="5.444521e-002" style="stop-color:#B4B6B8"/>
			<stop  offset="7.984300e-002" style="stop-color:#E2E3E4"/>
			<stop  offset="0.1726" style="stop-color:#B9BCBF"/>
			<stop  offset="0.3324" style="stop-color:#F5F5F5"/>
			<stop  offset="0.3453" style="stop-color:#FAFAFA"/>
			<stop  offset="0.4316" style="stop-color:#FAFAFA"/>
			<stop  offset="0.8133" style="stop-color:#6C6E71"/>
			<stop  offset="0.9084" style="stop-color:#999B9E"/>
			<stop  offset="1" style="stop-color:#C8CBCD"/>
		</linearGradient>
		<circle class="st30" cx="21" cy="45.3" r="0.4"/>
		
			<linearGradient id="SVGID_32_" gradientUnits="userSpaceOnUse" x1="20.6266" y1="-5.2933" x2="21.2722" y2="-5.2933" gradientTransform="matrix(1 0 0 -1 0 40)">
			<stop  offset="0" style="stop-color:#C2C3C3"/>
			<stop  offset="0.1818" style="stop-color:#E7E7E8"/>
			<stop  offset="0.4424" style="stop-color:#F4F4F4"/>
			<stop  offset="0.6424" style="stop-color:#FDFDFD"/>
			<stop  offset="0.8291" style="stop-color:#FFFFFF"/>
			<stop  offset="0.9546" style="stop-color:#E2DDD9"/>
			<stop  offset="1" style="stop-color:#D7CFCA"/>
		</linearGradient>
		<circle class="st31" cx="21" cy="45.3" r="0.3"/>
		
			<linearGradient id="SVGID_33_" gradientUnits="userSpaceOnUse" x1="20.7532" y1="-5.2933" x2="21.1491" y2="-5.2933" gradientTransform="matrix(1 0 0 -1 0 40)">
			<stop  offset="0" style="stop-color:#AACFEE"/>
			<stop  offset="4.632051e-002" style="stop-color:#98C7EB"/>
			<stop  offset="9.696970e-002" style="stop-color:#80BBE6"/>
			<stop  offset="0.4306" style="stop-color:#1275BD"/>
			<stop  offset="0.4848" style="stop-color:#0069B6"/>
			<stop  offset="0.9007" style="stop-color:#0095DB"/>
			<stop  offset="1" style="stop-color:#AACFEE"/>
		</linearGradient>
		<circle class="st32" cx="21" cy="45.3" r="0.2"/>
		<g>
			
				<linearGradient id="SVGID_34_" gradientUnits="userSpaceOnUse" x1="20.9601" y1="-6.3011" x2="20.9601" y2="-7.9811" gradientTransform="matrix(1 0 0 -1 0 40)">
				<stop  offset="0" style="stop-color:#C9C5C1"/>
				<stop  offset="6.506420e-002" style="stop-color:#DEDBDA"/>
				<stop  offset="0.3455" style="stop-color:#C6C2BF"/>
				<stop  offset="0.5152" style="stop-color:#B7B1AE"/>
				<stop  offset="0.6677" style="stop-color:#C5C0BD"/>
				<stop  offset="0.9333" style="stop-color:#DEDBDA"/>
				<stop  offset="1" style="stop-color:#C9C5C1"/>
			</linearGradient>
			<path class="st33" d="M27.4,47.8c0,0.1-0.1,0.2-0.2,0.2H14.7c-0.1,0-0.2-0.1-0.2-0.2v-1.3c0-0.1,0.1-0.2,0.2-0.2h12.5
				c0.1,0,0.2,0.1,0.2,0.2V47.8z"/>
			
				<linearGradient id="SVGID_35_" gradientUnits="userSpaceOnUse" x1="24.5534" y1="-6.6174" x2="24.5534" y2="-7.6815" gradientTransform="matrix(1 0 0 -1 0 40)">
				<stop  offset="0" style="stop-color:#C2C3C3"/>
				<stop  offset="0.1818" style="stop-color:#E7E7E8"/>
				<stop  offset="0.4424" style="stop-color:#F4F4F4"/>
				<stop  offset="0.6424" style="stop-color:#FDFDFD"/>
				<stop  offset="0.8291" style="stop-color:#FFFFFF"/>
				<stop  offset="0.9546" style="stop-color:#E2DDD9"/>
				<stop  offset="1" style="stop-color:#D7CFCA"/>
			</linearGradient>
			<path class="st34" d="M22.7,47.7c-0.1,0-0.2-0.1-0.2-0.2v-0.7c0-0.1,0.1-0.2,0.2-0.2h3.6c0.1,0,0.2,0.1,0.2,0.2v0.7
				c0,0.1-0.1,0.2-0.2,0.2H22.7z"/>
			
				<linearGradient id="SVGID_36_" gradientUnits="userSpaceOnUse" x1="24.4601" y1="-6.6775" x2="24.4601" y2="-7.6201" gradientTransform="matrix(1 0 0 -1 0 40)">
				<stop  offset="5.618000e-003" style="stop-color:#615550"/>
				<stop  offset="0.889" style="stop-color:#302623"/>
				<stop  offset="1" style="stop-color:#000000"/>
			</linearGradient>
			<path class="st35" d="M26.5,47.4c0,0.1-0.1,0.2-0.2,0.2h-3.6c-0.1,0-0.2-0.1-0.2-0.2v-0.7c0-0.1,0.1-0.2,0.2-0.2h3.6
				c0.1,0,0.2,0.1,0.2,0.2L26.5,47.4z"/>
			
				<linearGradient id="SVGID_37_" gradientUnits="userSpaceOnUse" x1="16.1962" y1="-7.344" x2="15.085" y2="-8.0227" gradientTransform="matrix(1 0 0 -1 0 40)">
				<stop  offset="0" style="stop-color:#C2C3C3"/>
				<stop  offset="0.1818" style="stop-color:#E7E7E8"/>
				<stop  offset="0.4424" style="stop-color:#F4F4F4"/>
				<stop  offset="0.6424" style="stop-color:#FDFDFD"/>
				<stop  offset="0.8291" style="stop-color:#FFFFFF"/>
				<stop  offset="0.9546" style="stop-color:#E2DDD9"/>
				<stop  offset="1" style="stop-color:#D7CFCA"/>
			</linearGradient>
			<path class="st36" d="M15.3,47.7C15.2,47.7,15.2,47.6,15.3,47.7l-0.1-0.2c0,0,0-0.1,0.1-0.1h0.9c0,0,0.1,0,0.1,0.1v0.2
				c0,0,0,0.1-0.1,0.1L15.3,47.7L15.3,47.7z"/>
			
				<linearGradient id="SVGID_38_" gradientUnits="userSpaceOnUse" x1="15.7801" y1="-7.4121" x2="15.7801" y2="-7.6647" gradientTransform="matrix(1 0 0 -1 0 40)">
				<stop  offset="5.618000e-003" style="stop-color:#615550"/>
				<stop  offset="0.889" style="stop-color:#302623"/>
				<stop  offset="1" style="stop-color:#000000"/>
			</linearGradient>
			<path class="st37" d="M16.3,47.6C16.3,47.6,16.2,47.6,16.3,47.6h-1l0,0v-0.2l0,0h0.9l0,0L16.3,47.6L16.3,47.6z"/>
			
				<linearGradient id="SVGID_39_" gradientUnits="userSpaceOnUse" x1="17.4814" y1="-7.3571" x2="16.37" y2="-8.0359" gradientTransform="matrix(1 0 0 -1 0 40)">
				<stop  offset="0" style="stop-color:#C2C3C3"/>
				<stop  offset="0.1818" style="stop-color:#E7E7E8"/>
				<stop  offset="0.4424" style="stop-color:#F4F4F4"/>
				<stop  offset="0.6424" style="stop-color:#FDFDFD"/>
				<stop  offset="0.8291" style="stop-color:#FFFFFF"/>
				<stop  offset="0.9546" style="stop-color:#E2DDD9"/>
				<stop  offset="1" style="stop-color:#D7CFCA"/>
			</linearGradient>
			<path class="st38" d="M16.6,47.7C16.5,47.7,16.5,47.6,16.6,47.7l-0.1-0.2c0,0,0-0.1,0.1-0.1h0.9c0,0,0.1,0,0.1,0.1v0.2
				c0,0,0,0.1-0.1,0.1L16.6,47.7L16.6,47.7z"/>
			
				<linearGradient id="SVGID_40_" gradientUnits="userSpaceOnUse" x1="16.9934" y1="-7.4121" x2="16.9934" y2="-7.6647" gradientTransform="matrix(1 0 0 -1 0 40)">
				<stop  offset="5.618000e-003" style="stop-color:#615550"/>
				<stop  offset="0.889" style="stop-color:#302623"/>
				<stop  offset="1" style="stop-color:#000000"/>
			</linearGradient>
			<path class="st39" d="M17.5,47.6L17.5,47.6h-1l0,0v-0.2l0,0h0.9l0,0L17.5,47.6L17.5,47.6z"/>
		</g>
		
			<linearGradient id="SVGID_41_" gradientUnits="userSpaceOnUse" x1="18.9827" y1="-6.18" x2="23.2652" y2="-6.18" gradientTransform="matrix(1 0 0 -1 0 40)">
			<stop  offset="0" style="stop-color:#C2C3C3"/>
			<stop  offset="0.1818" style="stop-color:#E7E7E8"/>
			<stop  offset="0.4424" style="stop-color:#F4F4F4"/>
			<stop  offset="0.6424" style="stop-color:#FDFDFD"/>
			<stop  offset="0.8291" style="stop-color:#FFFFFF"/>
			<stop  offset="0.9546" style="stop-color:#E2DDD9"/>
			<stop  offset="1" style="stop-color:#D7CFCA"/>
		</linearGradient>
		<rect x="19" y="46" class="st40" width="4.3" height="0.3"/>
	</g>
	<g>
		
			<linearGradient id="SVGID_42_" gradientUnits="userSpaceOnUse" x1="39.2534" y1="2.64" x2="39.2534" y2="-6.0997" gradientTransform="matrix(1 0 0 -1 0 40)">
			<stop  offset="0" style="stop-color:#D7D2D0"/>
			<stop  offset="2.481570e-002" style="stop-color:#FFFFFF"/>
			<stop  offset="0.2645" style="stop-color:#E5E2E0"/>
			<stop  offset="0.4606" style="stop-color:#CDC7C4"/>
			<stop  offset="0.9668" style="stop-color:#FFFFFF"/>
			<stop  offset="1" style="stop-color:#D7D2D0"/>
		</linearGradient>
		<path class="st41" d="M44.9,46v-8.2c0-0.3-0.2-0.5-0.5-0.5H34.1c-0.3,0-0.5,0.2-0.5,0.5V46H44.9z"/>
		
			<linearGradient id="SVGID_43_" gradientUnits="userSpaceOnUse" x1="39.2534" y1="2.1733" x2="39.2534" y2="-4.8363" gradientTransform="matrix(1 0 0 -1 0 40)">
			<stop  offset="0" style="stop-color:#6C6E71"/>
			<stop  offset="1.212120e-002" style="stop-color:#6C6E71"/>
			<stop  offset="5.444521e-002" style="stop-color:#B4B6B8"/>
			<stop  offset="7.984300e-002" style="stop-color:#E2E3E4"/>
			<stop  offset="0.1726" style="stop-color:#B9BCBF"/>
			<stop  offset="0.3324" style="stop-color:#F5F5F5"/>
			<stop  offset="0.3453" style="stop-color:#FAFAFA"/>
			<stop  offset="0.4316" style="stop-color:#FAFAFA"/>
			<stop  offset="0.8133" style="stop-color:#6C6E71"/>
			<stop  offset="0.9084" style="stop-color:#999B9E"/>
			<stop  offset="1" style="stop-color:#C8CBCD"/>
		</linearGradient>
		<rect x="34.1" y="37.8" class="st42" width="10.3" height="7"/>
		
			<linearGradient id="SVGID_44_" gradientUnits="userSpaceOnUse" x1="39.2534" y1="2.0333" x2="39.2534" y2="-5.2306" gradientTransform="matrix(1 0 0 -1 0 40)">
			<stop  offset="0" style="stop-color:#AACFEE"/>
			<stop  offset="4.632051e-002" style="stop-color:#98C7EB"/>
			<stop  offset="9.696970e-002" style="stop-color:#80BBE6"/>
			<stop  offset="0.4306" style="stop-color:#1275BD"/>
			<stop  offset="0.4848" style="stop-color:#0069B6"/>
			<stop  offset="0.9007" style="stop-color:#0095DB"/>
			<stop  offset="1" style="stop-color:#AACFEE"/>
		</linearGradient>
		<rect x="34.2" y="37.9" class="st43" width="10.1" height="6.8"/>
		
			<linearGradient id="SVGID_45_" gradientUnits="userSpaceOnUse" x1="38.8421" y1="-5.2933" x2="39.5694" y2="-5.2933" gradientTransform="matrix(1 0 0 -1 0 40)">
			<stop  offset="0" style="stop-color:#6C6E71"/>
			<stop  offset="1.212120e-002" style="stop-color:#6C6E71"/>
			<stop  offset="5.444521e-002" style="stop-color:#B4B6B8"/>
			<stop  offset="7.984300e-002" style="stop-color:#E2E3E4"/>
			<stop  offset="0.1726" style="stop-color:#B9BCBF"/>
			<stop  offset="0.3324" style="stop-color:#F5F5F5"/>
			<stop  offset="0.3453" style="stop-color:#FAFAFA"/>
			<stop  offset="0.4316" style="stop-color:#FAFAFA"/>
			<stop  offset="0.8133" style="stop-color:#6C6E71"/>
			<stop  offset="0.9084" style="stop-color:#999B9E"/>
			<stop  offset="1" style="stop-color:#C8CBCD"/>
		</linearGradient>
		<circle class="st44" cx="39.3" cy="45.3" r="0.4"/>
		
			<linearGradient id="SVGID_46_" gradientUnits="userSpaceOnUse" x1="38.8835" y1="-5.2933" x2="39.5286" y2="-5.2933" gradientTransform="matrix(1 0 0 -1 0 40)">
			<stop  offset="0" style="stop-color:#C2C3C3"/>
			<stop  offset="0.1818" style="stop-color:#E7E7E8"/>
			<stop  offset="0.4424" style="stop-color:#F4F4F4"/>
			<stop  offset="0.6424" style="stop-color:#FDFDFD"/>
			<stop  offset="0.8291" style="stop-color:#FFFFFF"/>
			<stop  offset="0.9546" style="stop-color:#E2DDD9"/>
			<stop  offset="1" style="stop-color:#D7CFCA"/>
		</linearGradient>
		<circle class="st45" cx="39.3" cy="45.3" r="0.3"/>
		
			<linearGradient id="SVGID_47_" gradientUnits="userSpaceOnUse" x1="39.0103" y1="-5.2933" x2="39.4056" y2="-5.2933" gradientTransform="matrix(1 0 0 -1 0 40)">
			<stop  offset="0" style="stop-color:#AACFEE"/>
			<stop  offset="4.632051e-002" style="stop-color:#98C7EB"/>
			<stop  offset="9.696970e-002" style="stop-color:#80BBE6"/>
			<stop  offset="0.4306" style="stop-color:#1275BD"/>
			<stop  offset="0.4848" style="stop-color:#0069B6"/>
			<stop  offset="0.9007" style="stop-color:#0095DB"/>
			<stop  offset="1" style="stop-color:#AACFEE"/>
		</linearGradient>
		<circle class="st46" cx="39.3" cy="45.3" r="0.2"/>
		<g>
			
				<linearGradient id="SVGID_48_" gradientUnits="userSpaceOnUse" x1="39.2534" y1="-6.3011" x2="39.2534" y2="-7.9811" gradientTransform="matrix(1 0 0 -1 0 40)">
				<stop  offset="0" style="stop-color:#C9C5C1"/>
				<stop  offset="6.506420e-002" style="stop-color:#DEDBDA"/>
				<stop  offset="0.3455" style="stop-color:#C6C2BF"/>
				<stop  offset="0.5152" style="stop-color:#B7B1AE"/>
				<stop  offset="0.6677" style="stop-color:#C5C0BD"/>
				<stop  offset="0.9333" style="stop-color:#DEDBDA"/>
				<stop  offset="1" style="stop-color:#C9C5C1"/>
			</linearGradient>
			<path class="st47" d="M45.6,47.8c0,0.1-0.1,0.2-0.2,0.2H33c-0.1,0-0.2-0.1-0.2-0.2v-1.3c0-0.1,0.1-0.2,0.2-0.2h12.5
				c0.1,0,0.2,0.1,0.2,0.2L45.6,47.8L45.6,47.8z"/>
			
				<linearGradient id="SVGID_49_" gradientUnits="userSpaceOnUse" x1="42.7534" y1="-6.6174" x2="42.7534" y2="-7.6815" gradientTransform="matrix(1 0 0 -1 0 40)">
				<stop  offset="0" style="stop-color:#C2C3C3"/>
				<stop  offset="0.1818" style="stop-color:#E7E7E8"/>
				<stop  offset="0.4424" style="stop-color:#F4F4F4"/>
				<stop  offset="0.6424" style="stop-color:#FDFDFD"/>
				<stop  offset="0.8291" style="stop-color:#FFFFFF"/>
				<stop  offset="0.9546" style="stop-color:#E2DDD9"/>
				<stop  offset="1" style="stop-color:#D7CFCA"/>
			</linearGradient>
			<path class="st48" d="M40.9,47.7c-0.1,0-0.2-0.1-0.2-0.2v-0.7c0-0.1,0.1-0.2,0.2-0.2h3.6c0.1,0,0.2,0.1,0.2,0.2v0.7
				c0,0.1-0.1,0.2-0.2,0.2H40.9z"/>
			
				<linearGradient id="SVGID_50_" gradientUnits="userSpaceOnUse" x1="42.7534" y1="-6.6775" x2="42.7534" y2="-7.6201" gradientTransform="matrix(1 0 0 -1 0 40)">
				<stop  offset="5.618000e-003" style="stop-color:#615550"/>
				<stop  offset="0.889" style="stop-color:#302623"/>
				<stop  offset="1" style="stop-color:#000000"/>
			</linearGradient>
			<path class="st49" d="M44.8,47.4c0,0.1-0.1,0.2-0.2,0.2h-3.6c-0.1,0-0.2-0.1-0.2-0.2v-0.7c0-0.1,0.1-0.2,0.2-0.2h3.6
				c0.1,0,0.2,0.1,0.2,0.2L44.8,47.4z"/>
			
				<linearGradient id="SVGID_51_" gradientUnits="userSpaceOnUse" x1="34.4217" y1="-7.2921" x2="33.3107" y2="-7.9706" gradientTransform="matrix(1 0 0 -1 0 40)">
				<stop  offset="0" style="stop-color:#C2C3C3"/>
				<stop  offset="0.1818" style="stop-color:#E7E7E8"/>
				<stop  offset="0.4424" style="stop-color:#F4F4F4"/>
				<stop  offset="0.6424" style="stop-color:#FDFDFD"/>
				<stop  offset="0.8291" style="stop-color:#FFFFFF"/>
				<stop  offset="0.9546" style="stop-color:#E2DDD9"/>
				<stop  offset="1" style="stop-color:#D7CFCA"/>
			</linearGradient>
			<path class="st50" d="M33.5,47.7C33.5,47.7,33.5,47.6,33.5,47.7v-0.3c0,0,0-0.1,0.1-0.1h0.9c0,0,0.1,0,0.1,0.1v0.2
				c0,0,0,0.1-0.1,0.1H33.5z"/>
			
				<linearGradient id="SVGID_52_" gradientUnits="userSpaceOnUse" x1="33.9801" y1="-7.4121" x2="33.9801" y2="-7.6647" gradientTransform="matrix(1 0 0 -1 0 40)">
				<stop  offset="5.618000e-003" style="stop-color:#615550"/>
				<stop  offset="0.889" style="stop-color:#302623"/>
				<stop  offset="1" style="stop-color:#000000"/>
			</linearGradient>
			<path class="st51" d="M34.5,47.6L34.5,47.6h-1l0,0v-0.2l0,0h0.9l0,0L34.5,47.6L34.5,47.6z"/>
			
				<linearGradient id="SVGID_53_" gradientUnits="userSpaceOnUse" x1="35.7229" y1="-7.3318" x2="34.6121" y2="-8.0101" gradientTransform="matrix(1 0 0 -1 0 40)">
				<stop  offset="0" style="stop-color:#C2C3C3"/>
				<stop  offset="0.1818" style="stop-color:#E7E7E8"/>
				<stop  offset="0.4424" style="stop-color:#F4F4F4"/>
				<stop  offset="0.6424" style="stop-color:#FDFDFD"/>
				<stop  offset="0.8291" style="stop-color:#FFFFFF"/>
				<stop  offset="0.9546" style="stop-color:#E2DDD9"/>
				<stop  offset="1" style="stop-color:#D7CFCA"/>
			</linearGradient>
			<path class="st52" d="M34.8,47.7C34.8,47.7,34.7,47.6,34.8,47.7l-0.1-0.2c0,0,0-0.1,0.1-0.1h0.9c0,0,0.1,0,0.1,0.1v0.2
				c0,0,0,0.1-0.1,0.1L34.8,47.7L34.8,47.7z"/>
			
				<linearGradient id="SVGID_54_" gradientUnits="userSpaceOnUse" x1="35.2867" y1="-7.4121" x2="35.2867" y2="-7.6647" gradientTransform="matrix(1 0 0 -1 0 40)">
				<stop  offset="5.618000e-003" style="stop-color:#615550"/>
				<stop  offset="0.889" style="stop-color:#302623"/>
				<stop  offset="1" style="stop-color:#000000"/>
			</linearGradient>
			<path class="st53" d="M35.8,47.6L35.8,47.6h-1l0,0v-0.2l0,0h0.9l0,0L35.8,47.6L35.8,47.6z"/>
		</g>
		
			<linearGradient id="SVGID_55_" gradientUnits="userSpaceOnUse" x1="37.2388" y1="-6.18" x2="41.5218" y2="-6.18" gradientTransform="matrix(1 0 0 -1 0 40)">
			<stop  offset="0" style="stop-color:#C2C3C3"/>
			<stop  offset="0.1818" style="stop-color:#E7E7E8"/>
			<stop  offset="0.4424" style="stop-color:#F4F4F4"/>
			<stop  offset="0.6424" style="stop-color:#FDFDFD"/>
			<stop  offset="0.8291" style="stop-color:#FFFFFF"/>
			<stop  offset="0.9546" style="stop-color:#E2DDD9"/>
			<stop  offset="1" style="stop-color:#D7CFCA"/>
		</linearGradient>
		<rect x="37.2" y="46" class="st54" width="4.3" height="0.3"/>
	</g>
	<g>
		
			<linearGradient id="SVGID_56_" gradientUnits="userSpaceOnUse" x1="59.0401" y1="2.64" x2="59.0401" y2="-6.0997" gradientTransform="matrix(1 0 0 -1 0 40)">
			<stop  offset="0" style="stop-color:#D7D2D0"/>
			<stop  offset="2.481570e-002" style="stop-color:#FFFFFF"/>
			<stop  offset="0.2645" style="stop-color:#E5E2E0"/>
			<stop  offset="0.4606" style="stop-color:#CDC7C4"/>
			<stop  offset="0.9668" style="stop-color:#FFFFFF"/>
			<stop  offset="1" style="stop-color:#D7D2D0"/>
		</linearGradient>
		<path class="st55" d="M64.6,46v-8.2c0-0.3-0.2-0.5-0.5-0.5H53.9c-0.3,0-0.5,0.2-0.5,0.5V46H64.6z"/>
		
			<linearGradient id="SVGID_57_" gradientUnits="userSpaceOnUse" x1="59.0401" y1="2.1733" x2="59.0401" y2="-4.8363" gradientTransform="matrix(1 0 0 -1 0 40)">
			<stop  offset="0" style="stop-color:#6C6E71"/>
			<stop  offset="1.212120e-002" style="stop-color:#6C6E71"/>
			<stop  offset="5.444521e-002" style="stop-color:#B4B6B8"/>
			<stop  offset="7.984300e-002" style="stop-color:#E2E3E4"/>
			<stop  offset="0.1726" style="stop-color:#B9BCBF"/>
			<stop  offset="0.3324" style="stop-color:#F5F5F5"/>
			<stop  offset="0.3453" style="stop-color:#FAFAFA"/>
			<stop  offset="0.4316" style="stop-color:#FAFAFA"/>
			<stop  offset="0.8133" style="stop-color:#6C6E71"/>
			<stop  offset="0.9084" style="stop-color:#999B9E"/>
			<stop  offset="1" style="stop-color:#C8CBCD"/>
		</linearGradient>
		<rect x="53.9" y="37.8" class="st56" width="10.3" height="7"/>
		
			<linearGradient id="SVGID_58_" gradientUnits="userSpaceOnUse" x1="59.0401" y1="2.0333" x2="59.0401" y2="-5.2306" gradientTransform="matrix(1 0 0 -1 0 40)">
			<stop  offset="0" style="stop-color:#AACFEE"/>
			<stop  offset="4.632051e-002" style="stop-color:#98C7EB"/>
			<stop  offset="9.696970e-002" style="stop-color:#80BBE6"/>
			<stop  offset="0.4306" style="stop-color:#1275BD"/>
			<stop  offset="0.4848" style="stop-color:#0069B6"/>
			<stop  offset="0.9007" style="stop-color:#0095DB"/>
			<stop  offset="1" style="stop-color:#AACFEE"/>
		</linearGradient>
		<rect x="54" y="37.9" class="st57" width="10.1" height="6.8"/>
		
			<linearGradient id="SVGID_59_" gradientUnits="userSpaceOnUse" x1="58.6767" y1="-5.2933" x2="59.4046" y2="-5.2933" gradientTransform="matrix(1 0 0 -1 0 40)">
			<stop  offset="0" style="stop-color:#6C6E71"/>
			<stop  offset="1.212120e-002" style="stop-color:#6C6E71"/>
			<stop  offset="5.444521e-002" style="stop-color:#B4B6B8"/>
			<stop  offset="7.984300e-002" style="stop-color:#E2E3E4"/>
			<stop  offset="0.1726" style="stop-color:#B9BCBF"/>
			<stop  offset="0.3324" style="stop-color:#F5F5F5"/>
			<stop  offset="0.3453" style="stop-color:#FAFAFA"/>
			<stop  offset="0.4316" style="stop-color:#FAFAFA"/>
			<stop  offset="0.8133" style="stop-color:#6C6E71"/>
			<stop  offset="0.9084" style="stop-color:#999B9E"/>
			<stop  offset="1" style="stop-color:#C8CBCD"/>
		</linearGradient>
		<circle class="st58" cx="59" cy="45.3" r="0.4"/>
		
			<linearGradient id="SVGID_60_" gradientUnits="userSpaceOnUse" x1="58.7187" y1="-5.2933" x2="59.3638" y2="-5.2933" gradientTransform="matrix(1 0 0 -1 0 40)">
			<stop  offset="0" style="stop-color:#C2C3C3"/>
			<stop  offset="0.1818" style="stop-color:#E7E7E8"/>
			<stop  offset="0.4424" style="stop-color:#F4F4F4"/>
			<stop  offset="0.6424" style="stop-color:#FDFDFD"/>
			<stop  offset="0.8291" style="stop-color:#FFFFFF"/>
			<stop  offset="0.9546" style="stop-color:#E2DDD9"/>
			<stop  offset="1" style="stop-color:#D7CFCA"/>
		</linearGradient>
		<circle class="st59" cx="59" cy="45.3" r="0.3"/>
		
			<linearGradient id="SVGID_61_" gradientUnits="userSpaceOnUse" x1="58.8463" y1="-5.2933" x2="59.2413" y2="-5.2933" gradientTransform="matrix(1 0 0 -1 0 40)">
			<stop  offset="0" style="stop-color:#AACFEE"/>
			<stop  offset="4.632051e-002" style="stop-color:#98C7EB"/>
			<stop  offset="9.696970e-002" style="stop-color:#80BBE6"/>
			<stop  offset="0.4306" style="stop-color:#1275BD"/>
			<stop  offset="0.4848" style="stop-color:#0069B6"/>
			<stop  offset="0.9007" style="stop-color:#0095DB"/>
			<stop  offset="1" style="stop-color:#AACFEE"/>
		</linearGradient>
		<circle class="st60" cx="59" cy="45.3" r="0.2"/>
		<g>
			
				<linearGradient id="SVGID_62_" gradientUnits="userSpaceOnUse" x1="59.0401" y1="-6.3011" x2="59.0401" y2="-7.9811" gradientTransform="matrix(1 0 0 -1 0 40)">
				<stop  offset="0" style="stop-color:#C9C5C1"/>
				<stop  offset="6.506420e-002" style="stop-color:#DEDBDA"/>
				<stop  offset="0.3455" style="stop-color:#C6C2BF"/>
				<stop  offset="0.5152" style="stop-color:#B7B1AE"/>
				<stop  offset="0.6677" style="stop-color:#C5C0BD"/>
				<stop  offset="0.9333" style="stop-color:#DEDBDA"/>
				<stop  offset="1" style="stop-color:#C9C5C1"/>
			</linearGradient>
			<path class="st61" d="M65.5,47.8c0,0.1-0.1,0.2-0.2,0.2H52.8c-0.1,0-0.2-0.1-0.2-0.2v-1.3c0-0.1,0.1-0.2,0.2-0.2h12.5
				c0.1,0,0.2,0.1,0.2,0.2V47.8z"/>
			
				<linearGradient id="SVGID_63_" gradientUnits="userSpaceOnUse" x1="62.6334" y1="-6.6174" x2="62.6334" y2="-7.6815" gradientTransform="matrix(1 0 0 -1 0 40)">
				<stop  offset="0" style="stop-color:#C2C3C3"/>
				<stop  offset="0.1818" style="stop-color:#E7E7E8"/>
				<stop  offset="0.4424" style="stop-color:#F4F4F4"/>
				<stop  offset="0.6424" style="stop-color:#FDFDFD"/>
				<stop  offset="0.8291" style="stop-color:#FFFFFF"/>
				<stop  offset="0.9546" style="stop-color:#E2DDD9"/>
				<stop  offset="1" style="stop-color:#D7CFCA"/>
			</linearGradient>
			<path class="st62" d="M60.8,47.7c-0.1,0-0.2-0.1-0.2-0.2v-0.7c0-0.1,0.1-0.2,0.2-0.2h3.6c0.1,0,0.2,0.1,0.2,0.2v0.7
				c0,0.1-0.1,0.2-0.2,0.2H60.8z"/>
			
				<linearGradient id="SVGID_64_" gradientUnits="userSpaceOnUse" x1="62.5401" y1="-6.6775" x2="62.5401" y2="-7.6201" gradientTransform="matrix(1 0 0 -1 0 40)">
				<stop  offset="5.618000e-003" style="stop-color:#615550"/>
				<stop  offset="0.889" style="stop-color:#302623"/>
				<stop  offset="1" style="stop-color:#000000"/>
			</linearGradient>
			<path class="st63" d="M64.5,47.4c0,0.1-0.1,0.2-0.2,0.2h-3.6c-0.1,0-0.2-0.1-0.2-0.2v-0.7c0-0.1,0.1-0.2,0.2-0.2h3.6
				c0.1,0,0.2,0.1,0.2,0.2V47.4z"/>
			
				<linearGradient id="SVGID_65_" gradientUnits="userSpaceOnUse" x1="54.2852" y1="-7.3385" x2="53.1743" y2="-8.017" gradientTransform="matrix(1 0 0 -1 0 40)">
				<stop  offset="0" style="stop-color:#C2C3C3"/>
				<stop  offset="0.1818" style="stop-color:#E7E7E8"/>
				<stop  offset="0.4424" style="stop-color:#F4F4F4"/>
				<stop  offset="0.6424" style="stop-color:#FDFDFD"/>
				<stop  offset="0.8291" style="stop-color:#FFFFFF"/>
				<stop  offset="0.9546" style="stop-color:#E2DDD9"/>
				<stop  offset="1" style="stop-color:#D7CFCA"/>
			</linearGradient>
			<path class="st64" d="M53.3,47.7C53.3,47.7,53.3,47.6,53.3,47.7l-0.1-0.2c0,0,0-0.1,0.1-0.1h0.9c0,0,0.1,0,0.1,0.1v0.2
				c0,0,0,0.1-0.1,0.1L53.3,47.7L53.3,47.7z"/>
			
				<linearGradient id="SVGID_66_" gradientUnits="userSpaceOnUse" x1="53.8601" y1="-7.4121" x2="53.8601" y2="-7.6647" gradientTransform="matrix(1 0 0 -1 0 40)">
				<stop  offset="5.618000e-003" style="stop-color:#615550"/>
				<stop  offset="0.889" style="stop-color:#302623"/>
				<stop  offset="1" style="stop-color:#000000"/>
			</linearGradient>
			<path class="st65" d="M54.4,47.6L54.4,47.6h-1l0,0v-0.2l0,0h0.9l0,0L54.4,47.6L54.4,47.6z"/>
			
				<linearGradient id="SVGID_67_" gradientUnits="userSpaceOnUse" x1="55.5696" y1="-7.3521" x2="54.4591" y2="-8.0304" gradientTransform="matrix(1 0 0 -1 0 40)">
				<stop  offset="0" style="stop-color:#C2C3C3"/>
				<stop  offset="0.1818" style="stop-color:#E7E7E8"/>
				<stop  offset="0.4424" style="stop-color:#F4F4F4"/>
				<stop  offset="0.6424" style="stop-color:#FDFDFD"/>
				<stop  offset="0.8291" style="stop-color:#FFFFFF"/>
				<stop  offset="0.9546" style="stop-color:#E2DDD9"/>
				<stop  offset="1" style="stop-color:#D7CFCA"/>
			</linearGradient>
			<path class="st66" d="M54.7,47.7C54.6,47.7,54.6,47.6,54.7,47.7l-0.1-0.2c0,0,0-0.1,0.1-0.1h0.9c0,0,0.1,0,0.1,0.1v0.2
				c0,0,0,0.1-0.1,0.1L54.7,47.7L54.7,47.7z"/>
			
				<linearGradient id="SVGID_68_" gradientUnits="userSpaceOnUse" x1="55.0734" y1="-7.4121" x2="55.0734" y2="-7.6647" gradientTransform="matrix(1 0 0 -1 0 40)">
				<stop  offset="5.618000e-003" style="stop-color:#615550"/>
				<stop  offset="0.889" style="stop-color:#302623"/>
				<stop  offset="1" style="stop-color:#000000"/>
			</linearGradient>
			<path class="st67" d="M55.6,47.6L55.6,47.6h-1l0,0v-0.2l0,0h0.9l0,0L55.6,47.6L55.6,47.6z"/>
		</g>
		
			<linearGradient id="SVGID_69_" gradientUnits="userSpaceOnUse" x1="57.0735" y1="-6.18" x2="61.3564" y2="-6.18" gradientTransform="matrix(1 0 0 -1 0 40)">
			<stop  offset="0" style="stop-color:#C2C3C3"/>
			<stop  offset="0.1818" style="stop-color:#E7E7E8"/>
			<stop  offset="0.4424" style="stop-color:#F4F4F4"/>
			<stop  offset="0.6424" style="stop-color:#FDFDFD"/>
			<stop  offset="0.8291" style="stop-color:#FFFFFF"/>
			<stop  offset="0.9546" style="stop-color:#E2DDD9"/>
			<stop  offset="1" style="stop-color:#D7CFCA"/>
		</linearGradient>
		<rect x="57.1" y="46" class="st68" width="4.3" height="0.3"/>
	</g>
</g>
</svg>
