<?xml version="1.0" encoding="utf-8"?>
<!-- Generator: Adobe Illustrator 18.1.0, SVG Export Plug-In . SVG Version: 6.00 Build 0)  -->
<svg version="1.1" id="图层_1" xmlns="http://www.w3.org/2000/svg" xmlns:xlink="http://www.w3.org/1999/xlink" x="0px" y="0px"
	 width="60px" height="60px" viewBox="10 -10 60 60" style="enable-background:new 10 -10 60 60;" xml:space="preserve">
<style type="text/css">
	.st0{fill:url(#SVGID_1_);}
	.st1{fill:#34302D;}
	.st2{fill:url(#SVGID_2_);}
	.st3{fill:url(#SVGID_3_);}
	.st4{fill:url(#SVGID_4_);}
	.st5{fill:#010000;}
	.st6{fill:#E0DBD7;}
	.st7{fill:#FFFFFF;}
	.st8{fill:url(#SVGID_5_);}
	.st9{fill:url(#SVGID_6_);}
	.st10{fill:url(#SVGID_7_);}
	.st11{fill:url(#SVGID_8_);}
	.st12{fill:url(#SVGID_9_);}
	.st13{fill:url(#SVGID_10_);}
	.st14{fill:url(#SVGID_11_);}
	.st15{fill:url(#SVGID_12_);}
	.st16{fill:url(#SVGID_13_);}
	.st17{fill:url(#SVGID_14_);}
	.st18{fill:url(#SVGID_15_);}
	.st19{fill:url(#SVGID_16_);}
	.st20{fill:url(#SVGID_17_);}
	.st21{fill:url(#SVGID_18_);}
	.st22{fill:url(#SVGID_19_);}
	.st23{fill:url(#SVGID_20_);}
	.st24{fill:url(#SVGID_21_);}
	.st25{fill:url(#SVGID_22_);}
	.st26{fill:url(#SVGID_23_);}
	.st27{fill:url(#SVGID_24_);}
	.st28{fill:url(#SVGID_25_);}
	.st29{fill:url(#SVGID_26_);}
	.st30{fill:url(#SVGID_27_);}
	.st31{fill:url(#SVGID_28_);}
	.st32{fill:url(#SVGID_29_);}
	.st33{fill:url(#SVGID_30_);}
	.st34{fill:url(#SVGID_31_);}
	.st35{fill:url(#SVGID_32_);}
	.st36{fill:url(#SVGID_33_);}
	.st37{fill:url(#SVGID_34_);}
	.st38{fill:url(#SVGID_35_);}
	.st39{fill:url(#SVGID_36_);}
	.st40{fill:url(#SVGID_37_);}
	.st41{fill:url(#SVGID_38_);}
	.st42{fill:url(#SVGID_39_);}
	.st43{fill:url(#SVGID_40_);}
	.st44{fill:url(#SVGID_41_);}
	.st45{fill:url(#SVGID_42_);}
	.st46{fill:url(#SVGID_43_);}
	.st47{fill:url(#SVGID_44_);}
	.st48{fill:url(#SVGID_45_);}
	.st49{fill:url(#SVGID_46_);}
	.st50{fill:url(#SVGID_47_);}
	.st51{fill:url(#SVGID_48_);}
	.st52{fill:url(#SVGID_49_);}
	.st53{fill:url(#SVGID_50_);}
	.st54{fill:url(#SVGID_51_);}
</style>
<g>
	<g>
		
			<linearGradient id="SVGID_1_" gradientUnits="userSpaceOnUse" x1="40" y1="7.3904" x2="40" y2="12.8058" gradientTransform="matrix(1 0 0 -1 0 40)">
			<stop  offset="0" style="stop-color:#000100"/>
			<stop  offset="1" style="stop-color:#1C1C1C"/>
		</linearGradient>
		<rect x="12.4" y="27.2" class="st0" width="55.2" height="5.4"/>
		<polygon class="st1" points="67.6,27.2 12.4,27.2 18.8,21.2 61.2,21.2 		"/>
		
			<linearGradient id="SVGID_2_" gradientUnits="userSpaceOnUse" x1="10" y1="10.1" x2="12.3935" y2="10.1" gradientTransform="matrix(1 0 0 -1 0 40)">
			<stop  offset="0" style="stop-color:#1C1C1C"/>
			<stop  offset="0.5808" style="stop-color:#1A1A1A"/>
			<stop  offset="0.79" style="stop-color:#131413"/>
			<stop  offset="0.9386" style="stop-color:#080808"/>
			<stop  offset="1" style="stop-color:#000100"/>
		</linearGradient>
		<path class="st2" d="M10,27.2v5.4h2.4v-5.4C12.4,27.2,10,27.2,10,27.2z M11.9,32.1h-1.4v-0.8H12v0.8H11.9z M11.9,30.6h-0.8V29h0.8
			C11.9,29,11.9,30.6,11.9,30.6z M11.9,28.5h-1.4v-0.8H12v0.8H11.9z"/>
		
			<linearGradient id="SVGID_3_" gradientUnits="userSpaceOnUse" x1="80.4" y1="10.1" x2="82.7935" y2="10.1" gradientTransform="matrix(-1 0 0 -1 150.4 40)">
			<stop  offset="0" style="stop-color:#1C1C1C"/>
			<stop  offset="0.5808" style="stop-color:#1A1A1A"/>
			<stop  offset="0.79" style="stop-color:#131413"/>
			<stop  offset="0.9386" style="stop-color:#080808"/>
			<stop  offset="1" style="stop-color:#000100"/>
		</linearGradient>
		<path class="st3" d="M67.6,27.2v5.4H70v-5.4C70,27.2,67.6,27.2,67.6,27.2z M68,32.1v-0.8h1.5v0.8H68L68,32.1z M68.1,29h0.8v1.6
			h-0.8C68.1,30.6,68.1,29,68.1,29z M68,28.5v-0.8h1.5v0.8H68L68,28.5z"/>
		
			<linearGradient id="SVGID_4_" gradientUnits="userSpaceOnUse" x1="57.7" y1="7.3904" x2="57.7" y2="12.8058" gradientTransform="matrix(1 0 0 -1 0 40)">
			<stop  offset="0" style="stop-color:#1D7AB3;stop-opacity:0.55"/>
			<stop  offset="0.1794" style="stop-color:#1E6D9A;stop-opacity:0.7114"/>
			<stop  offset="0.3726" style="stop-color:#1F6285;stop-opacity:0.8853"/>
			<stop  offset="0.5" style="stop-color:#1F5E7D"/>
			<stop  offset="0.6917" style="stop-color:#1F5F7F"/>
			<stop  offset="0.8022" style="stop-color:#216488"/>
			<stop  offset="0.8922" style="stop-color:#236D96"/>
			<stop  offset="0.9706" style="stop-color:#2678A9"/>
			<stop  offset="1" style="stop-color:#277EB3"/>
		</linearGradient>
		<polygon class="st4" points="67.6,27.2 67.6,32.6 47.8,32.6 49.8,27.2 		"/>
		<g>
			<g>
				<g>
					<rect x="22.7" y="28" class="st5" width="1.9" height="1.9"/>
					<rect x="22.8" y="28.1" class="st6" width="1.7" height="1.7"/>
					<g>
						<polygon class="st5" points="24.1,28.6 24.1,28.2 23.3,28.2 23.3,28.6 23,28.6 23,29.7 24.4,29.7 24.4,28.6 						"/>
					</g>
				</g>
				<g>
					<rect x="24.5" y="28" class="st5" width="1.9" height="1.9"/>
					<rect x="24.7" y="28.1" class="st6" width="1.7" height="1.7"/>
					<g>
						<polygon class="st5" points="26,28.6 26,28.2 25.2,28.2 25.2,28.6 24.8,28.6 24.8,29.7 26.3,29.7 26.3,28.6 						"/>
					</g>
				</g>
				<g>
					<rect x="26.4" y="28" class="st5" width="1.9" height="1.9"/>
					<rect x="26.6" y="28.1" class="st6" width="1.7" height="1.7"/>
					<g>
						<polygon class="st5" points="27.8,28.6 27.8,28.2 27.1,28.2 27.1,28.6 26.7,28.6 26.7,29.7 28.2,29.7 28.2,28.6 						"/>
					</g>
				</g>
			</g>
			<g>
				<g>
					<rect x="14.1" y="28.3" class="st5" width="2.3" height="1.2"/>
					<rect x="14.3" y="28.4" class="st6" width="2" height="1"/>
					<g>
						<polygon class="st5" points="14.8,29.2 14.8,29.4 15.7,29.4 15.7,29.2 16.1,29.2 16.1,28.5 14.5,28.5 14.5,29.2 						"/>
					</g>
				</g>
				<g>
					<rect x="16.7" y="28.4" class="st5" width="2.1" height="1.2"/>
					<rect x="16.9" y="28.4" class="st6" width="1.9" height="1.1"/>
					<g>
						<rect x="17" y="28.5" class="st5" width="1.6" height="0.4"/>
						<rect x="17" y="29.1" class="st5" width="1.6" height="0.4"/>
					</g>
				</g>
				<g>
					<rect x="18.8" y="28.4" class="st5" width="2.1" height="1.2"/>
					<rect x="19" y="28.4" class="st6" width="1.9" height="1.1"/>
					<g>
						<rect x="19.2" y="28.5" class="st5" width="1.6" height="0.4"/>
						<rect x="19.2" y="29.1" class="st5" width="1.6" height="0.4"/>
					</g>
				</g>
			</g>
			<rect x="23" y="30" class="st7" width="1.3" height="0.1"/>
			<rect x="24.9" y="30" class="st7" width="1.3" height="0.1"/>
			<rect x="26.8" y="30" class="st7" width="1.3" height="0.1"/>
			<path d="M50.9,28"/>
			<g>
				
					<linearGradient id="SVGID_5_" gradientUnits="userSpaceOnUse" x1="61.15" y1="10.403" x2="61.15" y2="12.1251" gradientTransform="matrix(1 0 0 -1 0 40)">
					<stop  offset="0" style="stop-color:#1C1C1C"/>
					<stop  offset="1" style="stop-color:#000100"/>
				</linearGradient>
				<rect x="56.1" y="27.9" class="st8" width="10.1" height="1.7"/>
				<g>
					<g>
						<g>
							
								<linearGradient id="SVGID_6_" gradientUnits="userSpaceOnUse" x1="57.2" y1="10.9353" x2="57.2" y2="11.6404" gradientTransform="matrix(1 0 0 -1 0 40)">
								<stop  offset="0" style="stop-color:#1B4B62"/>
								<stop  offset="1" style="stop-color:#A6DBE2"/>
							</linearGradient>
							<path class="st9" d="M56.8,28.4h0.8c0.2,0,0.3,0.1,0.3,0.3v0.1c0,0.2-0.1,0.3-0.3,0.3h-0.8c-0.2,0-0.3-0.1-0.3-0.3v-0.1
								C56.5,28.5,56.6,28.4,56.8,28.4z"/>
						</g>
						<g>
							
								<linearGradient id="SVGID_7_" gradientUnits="userSpaceOnUse" x1="57.2" y1="10.9507" x2="57.2" y2="11.6249" gradientTransform="matrix(1 0 0 -1 0 40)">
								<stop  offset="0" style="stop-color:#A6DBE2"/>
								<stop  offset="1" style="stop-color:#1B4B62"/>
							</linearGradient>
							<path class="st10" d="M56.8,28.4h0.8c0.1,0,0.3,0.1,0.3,0.3v0.1c0,0.1-0.1,0.3-0.3,0.3h-0.8c-0.1,0-0.3-0.1-0.3-0.3v-0.1
								C56.5,28.5,56.7,28.4,56.8,28.4z"/>
						</g>
					</g>
					<g>
						<g>
							
								<linearGradient id="SVGID_8_" gradientUnits="userSpaceOnUse" x1="65.1" y1="10.9353" x2="65.1" y2="11.6404" gradientTransform="matrix(1 0 0 -1 0 40)">
								<stop  offset="0" style="stop-color:#1B4B62"/>
								<stop  offset="1" style="stop-color:#A6DBE2"/>
							</linearGradient>
							<path class="st11" d="M64.7,28.4h0.8c0.2,0,0.3,0.1,0.3,0.3v0.1c0,0.2-0.1,0.3-0.3,0.3h-0.8c-0.2,0-0.3-0.1-0.3-0.3v-0.1
								C64.4,28.5,64.5,28.4,64.7,28.4z"/>
						</g>
						<g>
							
								<linearGradient id="SVGID_9_" gradientUnits="userSpaceOnUse" x1="65.1" y1="10.9507" x2="65.1" y2="11.6249" gradientTransform="matrix(1 0 0 -1 0 40)">
								<stop  offset="0" style="stop-color:#A6DBE2"/>
								<stop  offset="1" style="stop-color:#1B4B62"/>
							</linearGradient>
							<path class="st12" d="M64.7,28.4h0.8c0.1,0,0.3,0.1,0.3,0.3v0.1c0,0.1-0.1,0.3-0.3,0.3h-0.8c-0.1,0-0.3-0.1-0.3-0.3v-0.1
								C64.4,28.5,64.5,28.4,64.7,28.4z"/>
						</g>
					</g>
					<g>
						<g>
							<g>
								
									<linearGradient id="SVGID_10_" gradientUnits="userSpaceOnUse" x1="59.1" y1="10.8165" x2="59.1" y2="11.7116" gradientTransform="matrix(1 0 0 -1 0 40)">
									<stop  offset="0" style="stop-color:#1B4B62"/>
									<stop  offset="1" style="stop-color:#A6DBE2"/>
								</linearGradient>
								<path class="st13" d="M58.8,28.3h0.6c0.2,0,0.4,0.2,0.4,0.4l0,0c0,0.2-0.2,0.4-0.4,0.4h-0.6c-0.2,0-0.4-0.2-0.4-0.4l0,0
									C58.4,28.5,58.6,28.3,58.8,28.3z"/>
							</g>
						</g>
						<g>
							<g>
								
									<linearGradient id="SVGID_11_" gradientUnits="userSpaceOnUse" x1="59.1" y1="10.8429" x2="59.1" y2="11.6852" gradientTransform="matrix(1 0 0 -1 0 40)">
									<stop  offset="0" style="stop-color:#A6DBE2"/>
									<stop  offset="1" style="stop-color:#1B4B62"/>
								</linearGradient>
								<path class="st14" d="M58.8,28.3h0.6c0.2,0,0.4,0.2,0.4,0.4l0,0c0,0.2-0.2,0.4-0.4,0.4h-0.6c-0.2,0-0.4-0.2-0.4-0.4l0,0
									C58.4,28.5,58.6,28.3,58.8,28.3z"/>
							</g>
						</g>
					</g>
					<g>
						
							<linearGradient id="SVGID_12_" gradientUnits="userSpaceOnUse" x1="60.7" y1="10.8877" x2="60.7" y2="11.6404" gradientTransform="matrix(1 0 0 -1 0 40)">
							<stop  offset="0" style="stop-color:#8F6E74"/>
							<stop  offset="1" style="stop-color:#BF949B"/>
						</linearGradient>
						<circle class="st15" cx="60.7" cy="28.7" r="0.4"/>
						
							<linearGradient id="SVGID_13_" gradientUnits="userSpaceOnUse" x1="60.7" y1="10.9273" x2="60.7" y2="11.6007" gradientTransform="matrix(1 0 0 -1 0 40)">
							<stop  offset="0" style="stop-color:#BF949B"/>
							<stop  offset="1" style="stop-color:#8F6E74"/>
						</linearGradient>
						<circle class="st16" cx="60.7" cy="28.7" r="0.3"/>
					</g>
					<g>
						
							<linearGradient id="SVGID_14_" gradientUnits="userSpaceOnUse" x1="62.1" y1="10.8877" x2="62.1" y2="11.6404" gradientTransform="matrix(1 0 0 -1 0 40)">
							<stop  offset="0" style="stop-color:#FFFFFF"/>
							<stop  offset="1" style="stop-color:#B6B9BA"/>
						</linearGradient>
						<circle class="st17" cx="62.1" cy="28.7" r="0.4"/>
						
							<linearGradient id="SVGID_15_" gradientUnits="userSpaceOnUse" x1="62.1" y1="10.9273" x2="62.1" y2="11.6007" gradientTransform="matrix(1 0 0 -1 0 40)">
							<stop  offset="0" style="stop-color:#B6B9BA"/>
							<stop  offset="1" style="stop-color:#FFFFFF"/>
						</linearGradient>
						<circle class="st18" cx="62.1" cy="28.7" r="0.3"/>
					</g>
					<g>
						
							<linearGradient id="SVGID_16_" gradientUnits="userSpaceOnUse" x1="63.5" y1="10.8877" x2="63.5" y2="11.6404" gradientTransform="matrix(1 0 0 -1 0 40)">
							<stop  offset="0" style="stop-color:#6FC96F"/>
							<stop  offset="1" style="stop-color:#5AA35A"/>
						</linearGradient>
						<circle class="st19" cx="63.5" cy="28.7" r="0.4"/>
						
							<linearGradient id="SVGID_17_" gradientUnits="userSpaceOnUse" x1="63.5" y1="10.9273" x2="63.5" y2="11.6007" gradientTransform="matrix(1 0 0 -1 0 40)">
							<stop  offset="0" style="stop-color:#5AA35A"/>
							<stop  offset="1" style="stop-color:#6FC96F"/>
						</linearGradient>
						<circle class="st20" cx="63.5" cy="28.7" r="0.3"/>
					</g>
				</g>
			</g>
		</g>
	</g>
	<g>
		
			<linearGradient id="SVGID_18_" gradientUnits="userSpaceOnUse" x1="40" y1="14.2904" x2="40" y2="19.7058" gradientTransform="matrix(1 0 0 -1 0 40)">
			<stop  offset="0" style="stop-color:#000100"/>
			<stop  offset="1" style="stop-color:#1C1C1C"/>
		</linearGradient>
		<rect x="12.4" y="20.3" class="st21" width="55.2" height="5.4"/>
		<polygon class="st1" points="67.6,20.3 12.4,20.3 18.8,14.3 61.2,14.3 		"/>
		
			<linearGradient id="SVGID_19_" gradientUnits="userSpaceOnUse" x1="10" y1="17" x2="12.3935" y2="17" gradientTransform="matrix(1 0 0 -1 0 40)">
			<stop  offset="0" style="stop-color:#1C1C1C"/>
			<stop  offset="0.5808" style="stop-color:#1A1A1A"/>
			<stop  offset="0.79" style="stop-color:#131413"/>
			<stop  offset="0.9386" style="stop-color:#080808"/>
			<stop  offset="1" style="stop-color:#000100"/>
		</linearGradient>
		<path class="st22" d="M10,20.3v5.4h2.4v-5.4C12.4,20.3,10,20.3,10,20.3z M11.9,25.2h-1.4v-0.8H12v0.8H11.9z M11.9,23.7h-0.8v-1.6
			h0.8C11.9,22.1,11.9,23.7,11.9,23.7z M11.9,21.6h-1.4v-0.8H12v0.8H11.9z"/>
		
			<linearGradient id="SVGID_20_" gradientUnits="userSpaceOnUse" x1="80.4" y1="17" x2="82.7935" y2="17" gradientTransform="matrix(-1 0 0 -1 150.4 40)">
			<stop  offset="0" style="stop-color:#1C1C1C"/>
			<stop  offset="0.5808" style="stop-color:#1A1A1A"/>
			<stop  offset="0.79" style="stop-color:#131413"/>
			<stop  offset="0.9386" style="stop-color:#080808"/>
			<stop  offset="1" style="stop-color:#000100"/>
		</linearGradient>
		<path class="st23" d="M67.6,20.3v5.4H70v-5.4C70,20.3,67.6,20.3,67.6,20.3z M68,25.2v-0.8h1.5v0.8H68L68,25.2z M68.1,22.1h0.8v1.6
			h-0.8C68.1,23.7,68.1,22.1,68.1,22.1z M68,21.6v-0.8h1.5v0.8H68L68,21.6z"/>
		
			<linearGradient id="SVGID_21_" gradientUnits="userSpaceOnUse" x1="57.7" y1="14.2904" x2="57.7" y2="19.7058" gradientTransform="matrix(1 0 0 -1 0 40)">
			<stop  offset="0" style="stop-color:#1D7AB3;stop-opacity:0.55"/>
			<stop  offset="0.1794" style="stop-color:#1E6D9A;stop-opacity:0.7114"/>
			<stop  offset="0.3726" style="stop-color:#1F6285;stop-opacity:0.8853"/>
			<stop  offset="0.5" style="stop-color:#1F5E7D"/>
			<stop  offset="0.6917" style="stop-color:#1F5F7F"/>
			<stop  offset="0.8022" style="stop-color:#216488"/>
			<stop  offset="0.8922" style="stop-color:#236D96"/>
			<stop  offset="0.9706" style="stop-color:#2678A9"/>
			<stop  offset="1" style="stop-color:#277EB3"/>
		</linearGradient>
		<polygon class="st24" points="67.6,20.3 67.6,25.7 47.8,25.7 49.8,20.3 		"/>
		<g>
			<g>
				<g>
					<rect x="22.7" y="21.1" class="st5" width="1.9" height="1.9"/>
					<rect x="22.8" y="21.2" class="st6" width="1.7" height="1.7"/>
					<g>
						<polygon class="st5" points="24.1,21.7 24.1,21.3 23.3,21.3 23.3,21.7 23,21.7 23,22.8 24.4,22.8 24.4,21.7 						"/>
					</g>
				</g>
				<g>
					<rect x="24.5" y="21.1" class="st5" width="1.9" height="1.9"/>
					<rect x="24.7" y="21.2" class="st6" width="1.7" height="1.7"/>
					<g>
						<polygon class="st5" points="26,21.7 26,21.3 25.2,21.3 25.2,21.7 24.8,21.7 24.8,22.8 26.3,22.8 26.3,21.7 						"/>
					</g>
				</g>
				<g>
					<rect x="26.4" y="21.1" class="st5" width="1.9" height="1.9"/>
					<rect x="26.6" y="21.2" class="st6" width="1.7" height="1.7"/>
					<g>
						<polygon class="st5" points="27.8,21.7 27.8,21.3 27.1,21.3 27.1,21.7 26.7,21.7 26.7,22.8 28.2,22.8 28.2,21.7 						"/>
					</g>
				</g>
			</g>
			<g>
				<g>
					<rect x="14.1" y="21.4" class="st5" width="2.3" height="1.2"/>
					<rect x="14.3" y="21.5" class="st6" width="2" height="1"/>
					<g>
						<polygon class="st5" points="14.8,22.3 14.8,22.5 15.7,22.5 15.7,22.3 16.1,22.3 16.1,21.6 14.5,21.6 14.5,22.3 						"/>
					</g>
				</g>
				<g>
					<rect x="16.7" y="21.5" class="st5" width="2.1" height="1.2"/>
					<rect x="16.9" y="21.5" class="st6" width="1.9" height="1.1"/>
					<g>
						<rect x="17" y="21.6" class="st5" width="1.6" height="0.4"/>
						<rect x="17" y="22.2" class="st5" width="1.6" height="0.4"/>
					</g>
				</g>
				<g>
					<rect x="18.8" y="21.5" class="st5" width="2.1" height="1.2"/>
					<rect x="19" y="21.5" class="st6" width="1.9" height="1.1"/>
					<g>
						<rect x="19.2" y="21.6" class="st5" width="1.6" height="0.4"/>
						<rect x="19.2" y="22.2" class="st5" width="1.6" height="0.4"/>
					</g>
				</g>
			</g>
			<rect x="23" y="23.1" class="st7" width="1.3" height="0.1"/>
			<rect x="24.9" y="23.1" class="st7" width="1.3" height="0.1"/>
			<rect x="26.8" y="23.1" class="st7" width="1.3" height="0.1"/>
			<path d="M50.9,21.1"/>
			<g>
				
					<linearGradient id="SVGID_22_" gradientUnits="userSpaceOnUse" x1="61.15" y1="17.303" x2="61.15" y2="19.0251" gradientTransform="matrix(1 0 0 -1 0 40)">
					<stop  offset="0" style="stop-color:#1C1C1C"/>
					<stop  offset="1" style="stop-color:#000100"/>
				</linearGradient>
				<rect x="56.1" y="21" class="st25" width="10.1" height="1.7"/>
				<g>
					<g>
						<g>
							
								<linearGradient id="SVGID_23_" gradientUnits="userSpaceOnUse" x1="57.2" y1="17.8353" x2="57.2" y2="18.5404" gradientTransform="matrix(1 0 0 -1 0 40)">
								<stop  offset="0" style="stop-color:#1B4B62"/>
								<stop  offset="1" style="stop-color:#A6DBE2"/>
							</linearGradient>
							<path class="st26" d="M56.8,21.5h0.8c0.2,0,0.3,0.1,0.3,0.3v0.1c0,0.2-0.1,0.3-0.3,0.3h-0.8c-0.2,0-0.3-0.1-0.3-0.3v-0.1
								C56.5,21.6,56.6,21.5,56.8,21.5z"/>
						</g>
						<g>
							
								<linearGradient id="SVGID_24_" gradientUnits="userSpaceOnUse" x1="57.2" y1="17.8507" x2="57.2" y2="18.5249" gradientTransform="matrix(1 0 0 -1 0 40)">
								<stop  offset="0" style="stop-color:#A6DBE2"/>
								<stop  offset="1" style="stop-color:#1B4B62"/>
							</linearGradient>
							<path class="st27" d="M56.8,21.5h0.8c0.1,0,0.3,0.1,0.3,0.3v0.1c0,0.1-0.1,0.3-0.3,0.3h-0.8c-0.1,0-0.3-0.1-0.3-0.3v-0.1
								C56.5,21.6,56.7,21.5,56.8,21.5z"/>
						</g>
					</g>
					<g>
						<g>
							
								<linearGradient id="SVGID_25_" gradientUnits="userSpaceOnUse" x1="65.1" y1="17.8353" x2="65.1" y2="18.5404" gradientTransform="matrix(1 0 0 -1 0 40)">
								<stop  offset="0" style="stop-color:#1B4B62"/>
								<stop  offset="1" style="stop-color:#A6DBE2"/>
							</linearGradient>
							<path class="st28" d="M64.7,21.5h0.8c0.2,0,0.3,0.1,0.3,0.3v0.1c0,0.2-0.1,0.3-0.3,0.3h-0.8c-0.2,0-0.3-0.1-0.3-0.3v-0.1
								C64.4,21.6,64.5,21.5,64.7,21.5z"/>
						</g>
						<g>
							
								<linearGradient id="SVGID_26_" gradientUnits="userSpaceOnUse" x1="65.1" y1="17.8507" x2="65.1" y2="18.5249" gradientTransform="matrix(1 0 0 -1 0 40)">
								<stop  offset="0" style="stop-color:#A6DBE2"/>
								<stop  offset="1" style="stop-color:#1B4B62"/>
							</linearGradient>
							<path class="st29" d="M64.7,21.5h0.8c0.1,0,0.3,0.1,0.3,0.3v0.1c0,0.1-0.1,0.3-0.3,0.3h-0.8c-0.1,0-0.3-0.1-0.3-0.3v-0.1
								C64.4,21.6,64.5,21.5,64.7,21.5z"/>
						</g>
					</g>
					<g>
						<g>
							<g>
								
									<linearGradient id="SVGID_27_" gradientUnits="userSpaceOnUse" x1="59.1" y1="17.7165" x2="59.1" y2="18.6116" gradientTransform="matrix(1 0 0 -1 0 40)">
									<stop  offset="0" style="stop-color:#1B4B62"/>
									<stop  offset="1" style="stop-color:#A6DBE2"/>
								</linearGradient>
								<path class="st30" d="M58.8,21.4h0.6c0.2,0,0.4,0.2,0.4,0.4l0,0c0,0.2-0.2,0.4-0.4,0.4h-0.6c-0.2,0-0.4-0.2-0.4-0.4l0,0
									C58.4,21.6,58.6,21.4,58.8,21.4z"/>
							</g>
						</g>
						<g>
							<g>
								
									<linearGradient id="SVGID_28_" gradientUnits="userSpaceOnUse" x1="59.1" y1="17.7429" x2="59.1" y2="18.5852" gradientTransform="matrix(1 0 0 -1 0 40)">
									<stop  offset="0" style="stop-color:#A6DBE2"/>
									<stop  offset="1" style="stop-color:#1B4B62"/>
								</linearGradient>
								<path class="st31" d="M58.8,21.4h0.6c0.2,0,0.4,0.2,0.4,0.4l0,0c0,0.2-0.2,0.4-0.4,0.4h-0.6c-0.2,0-0.4-0.2-0.4-0.4l0,0
									C58.4,21.6,58.6,21.4,58.8,21.4z"/>
							</g>
						</g>
					</g>
					<g>
						
							<linearGradient id="SVGID_29_" gradientUnits="userSpaceOnUse" x1="60.7" y1="17.7877" x2="60.7" y2="18.5404" gradientTransform="matrix(1 0 0 -1 0 40)">
							<stop  offset="0" style="stop-color:#8F6E74"/>
							<stop  offset="1" style="stop-color:#BF949B"/>
						</linearGradient>
						<circle class="st32" cx="60.7" cy="21.8" r="0.4"/>
						
							<linearGradient id="SVGID_30_" gradientUnits="userSpaceOnUse" x1="60.7" y1="17.8273" x2="60.7" y2="18.5007" gradientTransform="matrix(1 0 0 -1 0 40)">
							<stop  offset="0" style="stop-color:#BF949B"/>
							<stop  offset="1" style="stop-color:#8F6E74"/>
						</linearGradient>
						<circle class="st33" cx="60.7" cy="21.8" r="0.3"/>
					</g>
					<g>
						
							<linearGradient id="SVGID_31_" gradientUnits="userSpaceOnUse" x1="62.1" y1="17.7877" x2="62.1" y2="18.5404" gradientTransform="matrix(1 0 0 -1 0 40)">
							<stop  offset="0" style="stop-color:#FFFFFF"/>
							<stop  offset="1" style="stop-color:#B6B9BA"/>
						</linearGradient>
						<circle class="st34" cx="62.1" cy="21.8" r="0.4"/>
						
							<linearGradient id="SVGID_32_" gradientUnits="userSpaceOnUse" x1="62.1" y1="17.8273" x2="62.1" y2="18.5007" gradientTransform="matrix(1 0 0 -1 0 40)">
							<stop  offset="0" style="stop-color:#B6B9BA"/>
							<stop  offset="1" style="stop-color:#FFFFFF"/>
						</linearGradient>
						<circle class="st35" cx="62.1" cy="21.8" r="0.3"/>
					</g>
					<g>
						
							<linearGradient id="SVGID_33_" gradientUnits="userSpaceOnUse" x1="63.5" y1="17.7877" x2="63.5" y2="18.5404" gradientTransform="matrix(1 0 0 -1 0 40)">
							<stop  offset="0" style="stop-color:#6FC96F"/>
							<stop  offset="1" style="stop-color:#5AA35A"/>
						</linearGradient>
						<circle class="st36" cx="63.5" cy="21.8" r="0.4"/>
						
							<linearGradient id="SVGID_34_" gradientUnits="userSpaceOnUse" x1="63.5" y1="17.8273" x2="63.5" y2="18.5007" gradientTransform="matrix(1 0 0 -1 0 40)">
							<stop  offset="0" style="stop-color:#5AA35A"/>
							<stop  offset="1" style="stop-color:#6FC96F"/>
						</linearGradient>
						<circle class="st37" cx="63.5" cy="21.8" r="0.3"/>
					</g>
				</g>
			</g>
		</g>
	</g>
	<g>
		
			<linearGradient id="SVGID_35_" gradientUnits="userSpaceOnUse" x1="40" y1="21.1904" x2="40" y2="26.6058" gradientTransform="matrix(1 0 0 -1 0 40)">
			<stop  offset="0" style="stop-color:#000100"/>
			<stop  offset="1" style="stop-color:#1C1C1C"/>
		</linearGradient>
		<rect x="12.4" y="13.4" class="st38" width="55.2" height="5.4"/>
		<polygon class="st1" points="67.6,13.4 12.4,13.4 18.8,7.4 61.2,7.4 		"/>
		
			<linearGradient id="SVGID_36_" gradientUnits="userSpaceOnUse" x1="10" y1="23.9" x2="12.3935" y2="23.9" gradientTransform="matrix(1 0 0 -1 0 40)">
			<stop  offset="0" style="stop-color:#1C1C1C"/>
			<stop  offset="0.5808" style="stop-color:#1A1A1A"/>
			<stop  offset="0.79" style="stop-color:#131413"/>
			<stop  offset="0.9386" style="stop-color:#080808"/>
			<stop  offset="1" style="stop-color:#000100"/>
		</linearGradient>
		<path class="st39" d="M10,13.4v5.4h2.4v-5.4C12.4,13.4,10,13.4,10,13.4z M11.9,18.3h-1.4v-0.8H12v0.8H11.9z M11.9,16.8h-0.8v-1.6
			h0.8C11.9,15.2,11.9,16.8,11.9,16.8z M11.9,14.7h-1.4v-0.8H12v0.8H11.9z"/>
		
			<linearGradient id="SVGID_37_" gradientUnits="userSpaceOnUse" x1="80.4" y1="23.9" x2="82.7935" y2="23.9" gradientTransform="matrix(-1 0 0 -1 150.4 40)">
			<stop  offset="0" style="stop-color:#1C1C1C"/>
			<stop  offset="0.5808" style="stop-color:#1A1A1A"/>
			<stop  offset="0.79" style="stop-color:#131413"/>
			<stop  offset="0.9386" style="stop-color:#080808"/>
			<stop  offset="1" style="stop-color:#000100"/>
		</linearGradient>
		<path class="st40" d="M67.6,13.4v5.4H70v-5.4C70,13.4,67.6,13.4,67.6,13.4z M68,18.3v-0.8h1.5v0.8H68L68,18.3z M68.1,15.2h0.8v1.6
			h-0.8C68.1,16.8,68.1,15.2,68.1,15.2z M68,14.7v-0.8h1.5v0.8H68L68,14.7z"/>
		
			<linearGradient id="SVGID_38_" gradientUnits="userSpaceOnUse" x1="57.7" y1="21.1904" x2="57.7" y2="26.6058" gradientTransform="matrix(1 0 0 -1 0 40)">
			<stop  offset="0" style="stop-color:#1D7AB3;stop-opacity:0.55"/>
			<stop  offset="0.1794" style="stop-color:#1E6D9A;stop-opacity:0.7114"/>
			<stop  offset="0.3726" style="stop-color:#1F6285;stop-opacity:0.8853"/>
			<stop  offset="0.5" style="stop-color:#1F5E7D"/>
			<stop  offset="0.6917" style="stop-color:#1F5F7F"/>
			<stop  offset="0.8022" style="stop-color:#216488"/>
			<stop  offset="0.8922" style="stop-color:#236D96"/>
			<stop  offset="0.9706" style="stop-color:#2678A9"/>
			<stop  offset="1" style="stop-color:#277EB3"/>
		</linearGradient>
		<polygon class="st41" points="67.6,13.4 67.6,18.8 47.8,18.8 49.8,13.4 		"/>
		<g>
			<g>
				<g>
					<rect x="22.7" y="14.2" class="st5" width="1.9" height="1.9"/>
					<rect x="22.8" y="14.3" class="st6" width="1.7" height="1.7"/>
					<g>
						<polygon class="st5" points="24.1,14.8 24.1,14.4 23.3,14.4 23.3,14.8 23,14.8 23,15.9 24.4,15.9 24.4,14.8 						"/>
					</g>
				</g>
				<g>
					<rect x="24.5" y="14.2" class="st5" width="1.9" height="1.9"/>
					<rect x="24.7" y="14.3" class="st6" width="1.7" height="1.7"/>
					<g>
						<polygon class="st5" points="26,14.8 26,14.4 25.2,14.4 25.2,14.8 24.8,14.8 24.8,15.9 26.3,15.9 26.3,14.8 						"/>
					</g>
				</g>
				<g>
					<rect x="26.4" y="14.2" class="st5" width="1.9" height="1.9"/>
					<rect x="26.6" y="14.3" class="st6" width="1.7" height="1.7"/>
					<g>
						<polygon class="st5" points="27.8,14.8 27.8,14.4 27.1,14.4 27.1,14.8 26.7,14.8 26.7,15.9 28.2,15.9 28.2,14.8 						"/>
					</g>
				</g>
			</g>
			<g>
				<g>
					<rect x="14.1" y="14.5" class="st5" width="2.3" height="1.2"/>
					<rect x="14.3" y="14.6" class="st6" width="2" height="1"/>
					<g>
						<polygon class="st5" points="14.8,15.4 14.8,15.6 15.7,15.6 15.7,15.4 16.1,15.4 16.1,14.7 14.5,14.7 14.5,15.4 						"/>
					</g>
				</g>
				<g>
					<rect x="16.7" y="14.6" class="st5" width="2.1" height="1.2"/>
					<rect x="16.9" y="14.6" class="st6" width="1.9" height="1.1"/>
					<g>
						<rect x="17" y="14.7" class="st5" width="1.6" height="0.4"/>
						<rect x="17" y="15.3" class="st5" width="1.6" height="0.4"/>
					</g>
				</g>
				<g>
					<rect x="18.8" y="14.6" class="st5" width="2.1" height="1.2"/>
					<rect x="19" y="14.6" class="st6" width="1.9" height="1.1"/>
					<g>
						<rect x="19.2" y="14.7" class="st5" width="1.6" height="0.4"/>
						<rect x="19.2" y="15.3" class="st5" width="1.6" height="0.4"/>
					</g>
				</g>
			</g>
			<rect x="23" y="16.2" class="st7" width="1.3" height="0.1"/>
			<rect x="24.9" y="16.2" class="st7" width="1.3" height="0.1"/>
			<rect x="26.8" y="16.2" class="st7" width="1.3" height="0.1"/>
			<path d="M50.9,14.2"/>
			<g>
				
					<linearGradient id="SVGID_39_" gradientUnits="userSpaceOnUse" x1="61.15" y1="24.203" x2="61.15" y2="25.9251" gradientTransform="matrix(1 0 0 -1 0 40)">
					<stop  offset="0" style="stop-color:#1C1C1C"/>
					<stop  offset="1" style="stop-color:#000100"/>
				</linearGradient>
				<rect x="56.1" y="14.1" class="st42" width="10.1" height="1.7"/>
				<g>
					<g>
						<g>
							
								<linearGradient id="SVGID_40_" gradientUnits="userSpaceOnUse" x1="57.2" y1="24.7353" x2="57.2" y2="25.4404" gradientTransform="matrix(1 0 0 -1 0 40)">
								<stop  offset="0" style="stop-color:#1B4B62"/>
								<stop  offset="1" style="stop-color:#A6DBE2"/>
							</linearGradient>
							<path class="st43" d="M56.8,14.6h0.8c0.2,0,0.3,0.1,0.3,0.3V15c0,0.2-0.1,0.3-0.3,0.3h-0.8c-0.2,0-0.3-0.1-0.3-0.3v-0.1
								C56.5,14.7,56.6,14.6,56.8,14.6z"/>
						</g>
						<g>
							
								<linearGradient id="SVGID_41_" gradientUnits="userSpaceOnUse" x1="57.2" y1="24.7507" x2="57.2" y2="25.4249" gradientTransform="matrix(1 0 0 -1 0 40)">
								<stop  offset="0" style="stop-color:#A6DBE2"/>
								<stop  offset="1" style="stop-color:#1B4B62"/>
							</linearGradient>
							<path class="st44" d="M56.8,14.6h0.8c0.1,0,0.3,0.1,0.3,0.3V15c0,0.1-0.1,0.3-0.3,0.3h-0.8c-0.1,0-0.3-0.1-0.3-0.3v-0.1
								C56.5,14.7,56.7,14.6,56.8,14.6z"/>
						</g>
					</g>
					<g>
						<g>
							
								<linearGradient id="SVGID_42_" gradientUnits="userSpaceOnUse" x1="65.1" y1="24.7353" x2="65.1" y2="25.4404" gradientTransform="matrix(1 0 0 -1 0 40)">
								<stop  offset="0" style="stop-color:#1B4B62"/>
								<stop  offset="1" style="stop-color:#A6DBE2"/>
							</linearGradient>
							<path class="st45" d="M64.7,14.6h0.8c0.2,0,0.3,0.1,0.3,0.3V15c0,0.2-0.1,0.3-0.3,0.3h-0.8c-0.2,0-0.3-0.1-0.3-0.3v-0.1
								C64.4,14.7,64.5,14.6,64.7,14.6z"/>
						</g>
						<g>
							
								<linearGradient id="SVGID_43_" gradientUnits="userSpaceOnUse" x1="65.1" y1="24.7507" x2="65.1" y2="25.4249" gradientTransform="matrix(1 0 0 -1 0 40)">
								<stop  offset="0" style="stop-color:#A6DBE2"/>
								<stop  offset="1" style="stop-color:#1B4B62"/>
							</linearGradient>
							<path class="st46" d="M64.7,14.6h0.8c0.1,0,0.3,0.1,0.3,0.3V15c0,0.1-0.1,0.3-0.3,0.3h-0.8c-0.1,0-0.3-0.1-0.3-0.3v-0.1
								C64.4,14.7,64.5,14.6,64.7,14.6z"/>
						</g>
					</g>
					<g>
						<g>
							<g>
								
									<linearGradient id="SVGID_44_" gradientUnits="userSpaceOnUse" x1="59.1" y1="24.6165" x2="59.1" y2="25.5116" gradientTransform="matrix(1 0 0 -1 0 40)">
									<stop  offset="0" style="stop-color:#1B4B62"/>
									<stop  offset="1" style="stop-color:#A6DBE2"/>
								</linearGradient>
								<path class="st47" d="M58.8,14.5h0.6c0.2,0,0.4,0.2,0.4,0.4l0,0c0,0.2-0.2,0.4-0.4,0.4h-0.6c-0.2,0-0.4-0.2-0.4-0.4l0,0
									C58.4,14.7,58.6,14.5,58.8,14.5z"/>
							</g>
						</g>
						<g>
							<g>
								
									<linearGradient id="SVGID_45_" gradientUnits="userSpaceOnUse" x1="59.1" y1="24.6429" x2="59.1" y2="25.4852" gradientTransform="matrix(1 0 0 -1 0 40)">
									<stop  offset="0" style="stop-color:#A6DBE2"/>
									<stop  offset="1" style="stop-color:#1B4B62"/>
								</linearGradient>
								<path class="st48" d="M58.8,14.5h0.6c0.2,0,0.4,0.2,0.4,0.4l0,0c0,0.2-0.2,0.4-0.4,0.4h-0.6c-0.2,0-0.4-0.2-0.4-0.4l0,0
									C58.4,14.7,58.6,14.5,58.8,14.5z"/>
							</g>
						</g>
					</g>
					<g>
						
							<linearGradient id="SVGID_46_" gradientUnits="userSpaceOnUse" x1="60.7" y1="24.6877" x2="60.7" y2="25.4404" gradientTransform="matrix(1 0 0 -1 0 40)">
							<stop  offset="0" style="stop-color:#8F6E74"/>
							<stop  offset="1" style="stop-color:#BF949B"/>
						</linearGradient>
						<circle class="st49" cx="60.7" cy="14.9" r="0.4"/>
						
							<linearGradient id="SVGID_47_" gradientUnits="userSpaceOnUse" x1="60.7" y1="24.7273" x2="60.7" y2="25.4007" gradientTransform="matrix(1 0 0 -1 0 40)">
							<stop  offset="0" style="stop-color:#BF949B"/>
							<stop  offset="1" style="stop-color:#8F6E74"/>
						</linearGradient>
						<circle class="st50" cx="60.7" cy="14.9" r="0.3"/>
					</g>
					<g>
						
							<linearGradient id="SVGID_48_" gradientUnits="userSpaceOnUse" x1="62.1" y1="24.6877" x2="62.1" y2="25.4404" gradientTransform="matrix(1 0 0 -1 0 40)">
							<stop  offset="0" style="stop-color:#FFFFFF"/>
							<stop  offset="1" style="stop-color:#B6B9BA"/>
						</linearGradient>
						<circle class="st51" cx="62.1" cy="14.9" r="0.4"/>
						
							<linearGradient id="SVGID_49_" gradientUnits="userSpaceOnUse" x1="62.1" y1="24.7273" x2="62.1" y2="25.4007" gradientTransform="matrix(1 0 0 -1 0 40)">
							<stop  offset="0" style="stop-color:#B6B9BA"/>
							<stop  offset="1" style="stop-color:#FFFFFF"/>
						</linearGradient>
						<circle class="st52" cx="62.1" cy="14.9" r="0.3"/>
					</g>
					<g>
						
							<linearGradient id="SVGID_50_" gradientUnits="userSpaceOnUse" x1="63.5" y1="24.6877" x2="63.5" y2="25.4404" gradientTransform="matrix(1 0 0 -1 0 40)">
							<stop  offset="0" style="stop-color:#6FC96F"/>
							<stop  offset="1" style="stop-color:#5AA35A"/>
						</linearGradient>
						<circle class="st53" cx="63.5" cy="14.9" r="0.4"/>
						
							<linearGradient id="SVGID_51_" gradientUnits="userSpaceOnUse" x1="63.5" y1="24.7273" x2="63.5" y2="25.4007" gradientTransform="matrix(1 0 0 -1 0 40)">
							<stop  offset="0" style="stop-color:#5AA35A"/>
							<stop  offset="1" style="stop-color:#6FC96F"/>
						</linearGradient>
						<circle class="st54" cx="63.5" cy="14.9" r="0.3"/>
					</g>
				</g>
			</g>
		</g>
	</g>
</g>
</svg>
