<?xml version="1.0" encoding="utf-8"?>
<!-- Generator: Adobe Illustrator 18.1.0, SVG Export Plug-In . SVG Version: 6.00 Build 0)  -->
<svg version="1.1" id="图层_1" xmlns="http://www.w3.org/2000/svg" xmlns:xlink="http://www.w3.org/1999/xlink" x="0px" y="0px"
	 width="60px" height="60px" viewBox="10 -10 60 60" style="enable-background:new 10 -10 60 60;" xml:space="preserve">
<style type="text/css">
	.st0{fill:url(#SVGID_1_);}
	.st1{fill:url(#SVGID_2_);}
	.st2{fill:url(#SVGID_3_);}
	.st3{opacity:0.49;fill:#87A3BC;enable-background:new    ;}
	.st4{fill:url(#SVGID_4_);}
	.st5{opacity:0.25;fill:#7192AD;enable-background:new    ;}
	.st6{opacity:0.79;fill:url(#SVGID_5_);enable-background:new    ;}
	.st7{opacity:0.79;fill:url(#SVGID_6_);enable-background:new    ;}
	.st8{fill:url(#SVGID_7_);}
	.st9{opacity:0.62;fill:#0092CC;enable-background:new    ;}
	.st10{fill:url(#SVGID_8_);}
	.st11{opacity:0.39;fill:#FFFFFF;enable-background:new    ;}
	.st12{opacity:0.49;fill:#FFFFFF;enable-background:new    ;}
	.st13{fill:#DCE2E8;}
	.st14{opacity:0.58;fill:#788EA5;enable-background:new    ;}
	.st15{opacity:0.66;fill:#FFFFFF;enable-background:new    ;}
	.st16{opacity:0.38;fill:#FFFFFF;enable-background:new    ;}
	.st17{opacity:0.79;fill:url(#SVGID_9_);enable-background:new    ;}
	.st18{fill:#36DB14;}
</style>
<g>
	<g>
		
			<linearGradient id="SVGID_1_" gradientUnits="userSpaceOnUse" x1="622.2466" y1="19.378" x2="587.3738" y2="11.7136" gradientTransform="matrix(-1 0 0 -1 637.7969 40)">
			<stop  offset="5.494000e-003" style="stop-color:#648398"/>
			<stop  offset="0.5056" style="stop-color:#A0B3C4"/>
			<stop  offset="1" style="stop-color:#648398"/>
		</linearGradient>
		<path class="st0" d="M11.4,32.3l1,1.8c0,0,12.2,5.6,30.7,8.5c0,0,2.3,0.4,4-1.7l22-23l0.3-1.6L11.4,32.3z"/>
		
			<linearGradient id="SVGID_2_" gradientUnits="userSpaceOnUse" x1="598.3732" y1="-4.3358" x2="597.9346" y2="20.4413" gradientTransform="matrix(-1 0 0 -1 637.7969 40)">
			<stop  offset="0" style="stop-color:#E5E7EB"/>
			<stop  offset="0.4945" style="stop-color:#C0CDD9"/>
			<stop  offset="1" style="stop-color:#9FB5C9"/>
		</linearGradient>
		<path class="st1" d="M69.6,12.8v3.7l-22.9,24l-4,0.5c0,0-14.8-2.3-31.6-8.6c0,0-3-2.9,0.7-6l8.1-6.5L69.6,12.8z"/>
		
			<linearGradient id="SVGID_3_" gradientUnits="userSpaceOnUse" x1="571.8246" y1="16.1948" x2="618.4438" y2="16.1948" gradientTransform="matrix(-1 0 0 -1 637.7969 40)">
			<stop  offset="5.494000e-003" style="stop-color:#648398"/>
			<stop  offset="0.5056" style="stop-color:#A0B3C4"/>
			<stop  offset="1" style="stop-color:#648398"/>
		</linearGradient>
		<path class="st2" d="M12.1,26.4c0.2-0.2,0.3-0.3,0.5-0.5l8.1-6.5l48.9-6.9v1.2L48,34.7c0,0-3.1,0.6-5.2,0.4l-29.3-7.7
			C13.5,27.4,12.5,27,12.1,26.4z"/>
		<path class="st3" d="M41.5,35c0,0-1.2,2.4-1.6,3.3c0,0-0.4,0.6-1.4,0.6c0,0-17.2-3.7-25.1-6.8c0,0-0.9-0.6-0.3-1.7l1.6-2.3
			C14.7,28.1,35.4,33.3,41.5,35z"/>
		
			<linearGradient id="SVGID_4_" gradientUnits="userSpaceOnUse" x1="604.8471" y1="7.9893" x2="616.1274" y2="7.9893" gradientTransform="matrix(-1 0 0 -1 637.7969 40)">
			<stop  offset="0" style="stop-color:#B3C2D3"/>
			<stop  offset="0.5281" style="stop-color:#CBD5E0"/>
			<stop  offset="1" style="stop-color:#B3C2D3"/>
		</linearGradient>
		<path class="st4" d="M32.9,32.8c0,0-1.2,2.3-7.3,0.9c0,0-4.4-1.4-4-3.8L32.9,32.8z"/>
		<ellipse class="st5" cx="35.6" cy="35.6" rx="1.2" ry="1"/>
		
			<linearGradient id="SVGID_5_" gradientUnits="userSpaceOnUse" x1="602.7237" y1="3.4658" x2="601.9715" y2="4.7623" gradientTransform="matrix(-1 0 0 -1 637.7969 40)">
			<stop  offset="0" style="stop-color:#93ACC3"/>
			<stop  offset="1" style="stop-color:#D9DFE5"/>
		</linearGradient>
		<ellipse class="st6" cx="35.6" cy="35.6" rx="1" ry="0.9"/>
		<path class="st5" d="M31.8,34.9c0,0.6,0.5,1,1.2,1c0.6,0,1.2-0.5,1.2-1c0-0.6-0.5-1-1.2-1S31.8,34.4,31.8,34.9z"/>
		
			<linearGradient id="SVGID_6_" gradientUnits="userSpaceOnUse" x1="605.352" y1="4.117" x2="604.5987" y2="5.4155" gradientTransform="matrix(-1 0 0 -1 637.7969 40)">
			<stop  offset="0" style="stop-color:#93ACC3"/>
			<stop  offset="1" style="stop-color:#D9DFE5"/>
		</linearGradient>
		<ellipse class="st7" cx="33" cy="34.9" rx="1" ry="0.9"/>
		
			<linearGradient id="SVGID_7_" gradientUnits="userSpaceOnUse" x1="602.1729" y1="7.6168" x2="602.1729" y2="16.5834" gradientTransform="matrix(-1 0 0 -1 637.7969 40)">
			<stop  offset="0" style="stop-color:#00BAF1"/>
			<stop  offset="0.9831" style="stop-color:#008DD1"/>
		</linearGradient>
		<polygon class="st8" points="44.3,33.8 55.7,22.6 19.8,23.4 15.5,26.4 		"/>
		<polygon class="st9" points="44.3,33.5 55.3,22.6 55.7,22.5 44.3,33.8 15.5,26.4 15.8,26.2 		"/>
		
			<linearGradient id="SVGID_8_" gradientUnits="userSpaceOnUse" x1="588.3478" y1="33.4055" x2="604.9555" y2="13.4378" gradientTransform="matrix(-1 0 0 -1 637.7969 40)">
			<stop  offset="6.043900e-002" style="stop-color:#C3CFDA"/>
			<stop  offset="0.7802" style="stop-color:#EAECF0"/>
		</linearGradient>
		<path class="st10" d="M70,12.5L47.4,31l-3.6-0.1c0,0-20.7-3.6-31.3-7.8l-1.1-1.4L38,5.8c0,0,10.2,0.6,29.2,4.9
			C67.2,10.7,68.9,11.2,70,12.5z"/>
		<path class="st3" d="M38,5.9c0,0,0.5,0,1.3,0.1c-5.6,3.3-23.2,15.3-26.1,17.3c0,0-1-0.7-1.1-0.8l-0.8-0.7L38,5.9z"/>
		<path class="st11" d="M13.5,22.9c5.2,1.6,22.7,6.8,32.3,7.6L45.4,31h-1.3c0,0-20.8-3.7-31.5-7.8c-0.2-0.2-1.1-1.2-1.3-1.3l0.6-0.4
			C12.1,21.6,13,22.7,13.5,22.9z"/>
		<path class="st12" d="M48,34.7c0,0-0.5,2.1-1.3,5.8l-4,0.5c0,0,0.7-4.4,1.2-5.8C43.9,35.2,46.8,35,48,34.7"/>
		<path class="st3" d="M67.8,10.9c0.6,0.3,1.5,0.8,2.2,1.6L47.5,31L44,30.9C46.6,28.4,59.7,16.5,67.8,10.9z"/>
		<path class="st13" d="M47.2,30.5l22.5-18.3c0.1,0.1,0.2,0.2,0.3,0.3L47.4,31L44,30.9c0.1,0,0.3-0.5,0.4-0.5
			C45.3,30.3,47.2,30.5,47.2,30.5z"/>
		<path class="st14" d="M32.4,32.7c0,0-2.2,0.8-5.9-0.2c0,0-3.2-0.7-4.5-2.5L32.4,32.7z"/>
		<path class="st15" d="M42.7,40.8c0,0,0.1,0.2,0,0.2c-6.1-1.1-20.1-4.1-31.6-8.5L10.7,32C10.7,32,23.5,37.2,42.7,40.8z"/>
		<path class="st16" d="M35,35.2c0,0.2,0.2,0.5,0.6,0.5c0.3,0,0.6-0.1,0.7-0.4c0-0.2-0.2-0.5-0.6-0.5C35.4,34.8,35.1,35,35,35.2z"/>
		<path class="st5" d="M37.3,36.3c0,0.6,0.5,1,1.2,1c0.6,0,1.2-0.5,1.2-1c0-0.6-0.5-1-1.2-1C37.8,35.2,37.3,35.7,37.3,36.3z"/>
		
			<linearGradient id="SVGID_9_" gradientUnits="userSpaceOnUse" x1="599.8232" y1="2.7775" x2="599.0704" y2="4.0754" gradientTransform="matrix(-1 0 0 -1 637.7969 40)">
			<stop  offset="0" style="stop-color:#93ACC3"/>
			<stop  offset="1" style="stop-color:#D9DFE5"/>
		</linearGradient>
		<path class="st17" d="M37.5,36.3c0,0.5,0.4,0.9,1,0.9c0.6,0,1-0.4,1-0.9s-0.4-0.9-1-0.9C37.9,35.3,37.5,35.8,37.5,36.3z"/>
		<path class="st16" d="M37.9,35.9c0,0.2,0.2,0.5,0.6,0.5c0.3,0,0.6-0.1,0.7-0.4c0-0.2-0.2-0.5-0.6-0.5
			C38.2,35.5,37.9,35.7,37.9,35.9z"/>
		<path class="st16" d="M32.4,34.5c0,0.2,0.2,0.5,0.6,0.5c0.3,0,0.6-0.1,0.7-0.4c0-0.2-0.2-0.5-0.6-0.5
			C32.7,34.1,32.4,34.3,32.4,34.5z"/>
	</g>
	<g>
		<g>
			<path class="st18" d="M43.4,10.4c-0.3,0-0.6-0.2-0.7-0.5c-1.2-3.3-4.4-5.5-7.9-5.5c-3.2,0-6.2,1.9-7.6,4.8
				c-0.2,0.4-0.6,0.5-1,0.3s-0.5-0.6-0.3-1c1.6-3.4,5.2-5.6,9-5.6c4.1,0,7.9,2.6,9.3,6.5c0.1,0.4-0.1,0.8-0.4,1
				C43.6,10.4,43.5,10.4,43.4,10.4z"/>
		</g>
		<g>
			<path class="st18" d="M39.3,13.5c-0.3,0-0.6-0.2-0.7-0.6c-0.4-1.8-2-3-3.8-3s-3.4,1.3-3.8,3c-0.1,0.4-0.5,0.7-0.9,0.6
				s-0.7-0.5-0.6-0.9c0.5-2.4,2.8-4.2,5.3-4.2s4.7,1.8,5.3,4.2c0.1,0.4-0.2,0.8-0.6,0.9C39.5,13.5,39.4,13.5,39.3,13.5z"/>
		</g>
		<g>
			<path class="st18" d="M47.6,6.3c-0.3,0-0.5-0.1-0.6-0.4c-2.5-4.3-7.1-7-12.1-7c-4.8,0-9.1,2.4-11.7,6.4c-0.2,0.3-0.7,0.4-1,0.2
				c-0.3-0.2-0.4-0.7-0.2-1c2.9-4.4,7.7-7.1,13-7.1c5.5,0,10.7,3,13.4,7.8c0.2,0.4,0.1,0.8-0.3,1C47.9,6.2,47.7,6.3,47.6,6.3z"/>
		</g>
	</g>
</g>
</svg>
