<?xml version="1.0" encoding="utf-8"?>
<!-- Generator: Adobe Illustrator 16.0.0, SVG Export Plug-In . SVG Version: 6.00 Build 0)  -->
<!DOCTYPE svg PUBLIC "-//W3C//DTD SVG 1.1//EN" "http://www.w3.org/Graphics/SVG/1.1/DTD/svg11.dtd">
<svg version="1.1" id="图层_1" xmlns="http://www.w3.org/2000/svg" xmlns:xlink="http://www.w3.org/1999/xlink" x="0px" y="0px"
	 width="44px" height="44px" viewBox="0 0 44 44" style="enable-background:new 0 0 44 44;" xml:space="preserve">
<style type="text/css">
<![CDATA[
	.st0{opacity:0;fill:#FFFFFF;}
	.st1{fill:#EFC41A;}
	.st2{fill:#FFFFFF;}
]]>
</style>
<rect class="st0" width="44" height="44"/>
<circle class="st1" cx="22" cy="22" r="21"/>
<g>
	<path class="st2" d="M22,27c-0.9,0-1.7-0.8-1.7-1.7V11.9c0-0.9,0.8-1.7,1.7-1.7c0.9,0,1.7,0.8,1.7,1.7v13.5
		C23.7,26.3,22.9,27,22,27z"/>
	<path class="st2" d="M22,33.8c-0.4,0-0.9-0.2-1.2-0.5c-0.3-0.3-0.5-0.8-0.5-1.2c0-0.4,0.2-0.9,0.5-1.2c0.6-0.6,1.7-0.6,2.4,0
		c0.3,0.3,0.5,0.8,0.5,1.2c0,0.4-0.2,0.9-0.5,1.2C22.9,33.6,22.5,33.8,22,33.8z"/>
</g>
</svg>
