<?xml version="1.0" encoding="utf-8"?>
<!-- Generator: Adobe Illustrator 18.1.0, SVG Export Plug-In . SVG Version: 6.00 Build 0)  -->
<svg version="1.1" id="图层_1" xmlns="http://www.w3.org/2000/svg" xmlns:xlink="http://www.w3.org/1999/xlink" x="0px" y="0px"
	 width="60px" height="60px" viewBox="10 -10 60 60" style="enable-background:new 10 -10 60 60;" xml:space="preserve">
<style type="text/css">
	.st0{fill:url(#SVGID_1_);}
	.st1{fill:url(#SVGID_2_);}
	.st2{fill:url(#SVGID_3_);}
	.st3{fill:url(#SVGID_4_);}
	.st4{fill:url(#SVGID_5_);}
	.st5{fill:url(#SVGID_6_);}
	.st6{fill:url(#SVGID_7_);}
	.st7{fill:url(#SVGID_8_);}
	.st8{fill:#FFFFFF;}
</style>
<g>
	
		<linearGradient id="SVGID_1_" gradientUnits="userSpaceOnUse" x1="40.0001" y1="-6.3439" x2="40.0001" y2="2.7309" gradientTransform="matrix(1 0 0 -1 0 40)">
		<stop  offset="5.617980e-003" style="stop-color:#7B8191"/>
		<stop  offset="0.4544" style="stop-color:#DEE1EB"/>
		<stop  offset="0.6216" style="stop-color:#C5C8D1"/>
		<stop  offset="1" style="stop-color:#616975"/>
	</linearGradient>
	<path class="st0" d="M32.6,36.5h14.8v6.3c0,1.2,1.8,2.5,3.2,2.8c-0.7,0.7-2,0.7-2.9,0.7c-5.2,0-10.5,0-15.6,0
		c-0.9,0-2.1-0.1-2.8-0.7c1.4-0.2,3.2-1.6,3.2-2.8L32.6,36.5L32.6,36.5z"/>
	
		<linearGradient id="SVGID_2_" gradientUnits="userSpaceOnUse" x1="40.0001" y1="2.2594" x2="40.0001" y2="46.6908" gradientTransform="matrix(1 0 0 -1 0 40)">
		<stop  offset="0" style="stop-color:#666A75"/>
		<stop  offset="1" style="stop-color:#E4E6F0"/>
	</linearGradient>
	<path class="st1" d="M14.3-6.3h51.3C67-6.3,68-5.3,68-4v20.4v19.1c0,1.3-1,2.3-2.3,2.3H14.3C13,37.8,12,36.8,12,35.5V17V-4
		C12-5.3,13-6.3,14.3-6.3L14.3-6.3z"/>
	
		<linearGradient id="SVGID_3_" gradientUnits="userSpaceOnUse" x1="39.9413" y1="2.9347" x2="40.0592" y2="47.6016" gradientTransform="matrix(1 0 0 -1 0 40)">
		<stop  offset="0" style="stop-color:#B7BCC9"/>
		<stop  offset="1" style="stop-color:#D6D9E8"/>
	</linearGradient>
	<path class="st2" d="M14.3-7.5h51.3c1.3,0,2.3,1,2.3,2.3v31.7v8.3c0,1.3-1,2.3-2.3,2.3H14.3c-1.3,0-2.3-1-2.3-2.3v-8.1V-5.2
		C12-6.5,13-7.5,14.3-7.5L14.3-7.5z"/>
	<path d="M14.5-5.6h51.1c0.5,0,0.8,0.4,0.8,0.8v33.4c0,0.5-0.4,0.8-0.8,0.8H14.5c-0.5,0-0.8-0.4-0.8-0.8V-4.7
		C13.6-5.2,14-5.6,14.5-5.6L14.5-5.6z"/>
	
		<linearGradient id="SVGID_4_" gradientUnits="userSpaceOnUse" x1="33.2141" y1="17.4451" x2="55.4889" y2="52.0951" gradientTransform="matrix(1 0 0 -1 0 40)">
		<stop  offset="0" style="stop-color:#050608"/>
		<stop  offset="1" style="stop-color:#7E8EA1"/>
	</linearGradient>
	<path class="st3" d="M14.7-5.2h27h23.7c0.4,0,0.7,0.3,0.7,0.7v32.9c0,0.4-0.3,0.7-0.7,0.7H41.7h-27c-0.4,0-0.7-0.3-0.7-0.7V-4.5
		C14-4.8,14.3-5.2,14.7-5.2L14.7-5.2z"/>
	
		<linearGradient id="SVGID_5_" gradientUnits="userSpaceOnUse" x1="42.0113" y1="19.9589" x2="15.7295" y2="46.3586" gradientTransform="matrix(1 0 0 -1 0 40)">
		<stop  offset="0" style="stop-color:#000000"/>
		<stop  offset="1" style="stop-color:#899BB0"/>
	</linearGradient>
	<path class="st4" d="M14.7-5.2h38.8L37.4,29.1H14.7c-0.4,0-0.7-0.3-0.7-0.7V-4.5C14-4.8,14.3-5.2,14.7-5.2L14.7-5.2z"/>
	
		<linearGradient id="SVGID_6_" gradientUnits="userSpaceOnUse" x1="39.9429" y1="12.8368" x2="40.0608" y2="44.0703" gradientTransform="matrix(1 0 0 -1 0 40)">
		<stop  offset="0" style="stop-color:#194B8C"/>
		<stop  offset="1" style="stop-color:#8EBFF2"/>
	</linearGradient>
	<polygon class="st5" points="16.1,-3.4 63.9,-3.4 63.9,27.5 16.1,27.5 	"/>
	
		<linearGradient id="SVGID_7_" gradientUnits="userSpaceOnUse" x1="34.4001" y1="12.5643" x2="34.4001" y2="43.4577" gradientTransform="matrix(1 0 0 -1 0 40)">
		<stop  offset="0" style="stop-color:#194B8C"/>
		<stop  offset="1" style="stop-color:#669ED9"/>
	</linearGradient>
	<polygon class="st6" points="16.1,-3.4 52.7,-3.4 38.1,27.5 16.1,27.5 	"/>
	
		<linearGradient id="SVGID_8_" gradientUnits="userSpaceOnUse" x1="-64.0563" y1="-625.6438" x2="-36.6164" y2="-625.6438" gradientTransform="matrix(0.7749 0 0 -0.7749 79.0441 -438.2114)">
		<stop  offset="0" style="stop-color:#868B99"/>
		<stop  offset="4.000000e-002" style="stop-color:#DFE3ED"/>
		<stop  offset="0.11" style="stop-color:#BAC1D1"/>
		<stop  offset="0.88" style="stop-color:#BAC1D1"/>
		<stop  offset="0.95" style="stop-color:#DFE4ED"/>
		<stop  offset="1" style="stop-color:#868B99"/>
	</linearGradient>
	<polygon class="st7" points="29.5,45.7 50.6,45.7 50.6,47.5 29.5,47.5 	"/>
	<path d="M39.9,32c0.7,0,1.3,0.6,1.3,1.3c0,0.7-0.6,1.3-1.3,1.3s-1.3-0.6-1.3-1.3S39.2,32,39.9,32L39.9,32z"/>
	<g>
		<polygon class="st8" points="38.7,20 27.1,8.4 20.5,15.1 20.1,14.7 27.1,7.7 38.7,19.3 53.8,4.1 59.7,4.1 59.7,4.6 54,4.6 		"/>
	</g>
</g>
</svg>
