<?xml version="1.0" encoding="utf-8"?>
<!-- Generator: Adobe Illustrator 18.1.0, SVG Export Plug-In . SVG Version: 6.00 Build 0)  -->
<svg version="1.1" id="图层_1" xmlns="http://www.w3.org/2000/svg" xmlns:xlink="http://www.w3.org/1999/xlink" x="0px" y="0px"
	 width="16px" height="16px" viewBox="0 0 16 16" style="enable-background:new 0 0 16 16;" xml:space="preserve">
<style type="text/css">
	.st0{fill:url(#SVGID_1_);}
	.st1{fill:url(#SVGID_2_);}
	.st2{fill:url(#SVGID_3_);}
	.st3{fill:url(#SVGID_4_);}
	.st4{fill:url(#SVGID_5_);}
	.st5{fill:url(#SVGID_6_);}
	.st6{fill:url(#SVGID_7_);}
	.st7{fill:url(#SVGID_8_);}
</style>
<g>
	
		<linearGradient id="SVGID_1_" gradientUnits="userSpaceOnUse" x1="0" y1="-14" x2="60" y2="-14" gradientTransform="matrix(0.2667 0 0 -0.2667 0 4.2667)">
		<stop  offset="0" style="stop-color:#B9BBBD"/>
		<stop  offset="3.208770e-002" style="stop-color:#B6B8BA"/>
		<stop  offset="5.619587e-002" style="stop-color:#ADAEB1"/>
		<stop  offset="8.827712e-002" style="stop-color:#9D9EA1"/>
		<stop  offset="0.1241" style="stop-color:#C1C1C2"/>
		<stop  offset="0.1924" style="stop-color:#F0F0F0"/>
		<stop  offset="0.2083" style="stop-color:#FBFBFB"/>
		<stop  offset="0.2247" style="stop-color:#FFFFFF"/>
		<stop  offset="0.3015" style="stop-color:#EEEEEF"/>
		<stop  offset="0.3853" style="stop-color:#E3E3E4"/>
		<stop  offset="0.4775" style="stop-color:#DFE0E1"/>
		<stop  offset="0.7191" style="stop-color:#FFFFFF"/>
		<stop  offset="0.779" style="stop-color:#FDFDFD"/>
		<stop  offset="0.8065" style="stop-color:#F6F5F5"/>
		<stop  offset="0.8258" style="stop-color:#EBEAEA"/>
		<stop  offset="0.927" style="stop-color:#797A7D"/>
		<stop  offset="1" style="stop-color:#BEC0C1"/>
	</linearGradient>
	<path class="st0" d="M13.5,16h-11C1.1,16,0,14.9,0,13.5v-11C0,1.1,1.1,0,2.5,0h11C14.9,0,16,1.1,16,2.5v11C16,14.9,14.9,16,13.5,16
		z"/>
	<g>
		
			<linearGradient id="SVGID_2_" gradientUnits="userSpaceOnUse" x1="3.1446" y1="-13.4888" x2="16.5964" y2="-13.4888" gradientTransform="matrix(0.2667 0 0 -0.2667 0 4.2667)">
			<stop  offset="0" style="stop-color:#050505"/>
			<stop  offset="1" style="stop-color:#1E1E21"/>
		</linearGradient>
		<path class="st1" d="M4.2,6.4H3.3c-0.3,0-0.5,0.2-0.5,0.2L0.8,9.3h0.8l0.6-0.8h1.1L3.2,9.3h0.7c0,0,0.5-2.2,0.6-2.6
			S4.2,6.4,4.2,6.4z M3.5,8h-1l0.8-1.1h0.5L3.5,8z"/>
		
			<linearGradient id="SVGID_3_" gradientUnits="userSpaceOnUse" x1="14.9637" y1="-16.1703" x2="25.3233" y2="-16.1703" gradientTransform="matrix(0.2667 0 0 -0.2667 0 4.2667)">
			<stop  offset="0" style="stop-color:#050505"/>
			<stop  offset="1" style="stop-color:#1E1E21"/>
		</linearGradient>
		<path class="st2" d="M6.5,7.2H5c-0.5,0-0.6,0.4-0.6,0.4L4,10c0.6,0,0.6-0.3,0.6-0.3l0.1-0.3c0,0,0.9,0,1.3,0s0.5-0.5,0.5-0.5
			s0.1-0.7,0.2-1.2S6.5,7.2,6.5,7.2z M5.9,9.1H4.8l0.3-1.6h1.1L5.9,9.1z"/>
		
			<linearGradient id="SVGID_4_" gradientUnits="userSpaceOnUse" x1="25.4033" y1="-14.4907" x2="34.9907" y2="-14.4907" gradientTransform="matrix(0.2667 0 0 -0.2667 0 4.2667)">
			<stop  offset="0" style="stop-color:#050505"/>
			<stop  offset="1" style="stop-color:#1E1E21"/>
		</linearGradient>
		<path class="st3" d="M8.6,7.7L8.4,9.1H7.3c0,0,0.1-0.7,0.3-1.5S7.1,6.9,7.1,6.9S7,7.9,6.8,8.6C6.7,9.3,7,9.3,7,9.3s0.7,0,1.4,0
			C8.9,9.3,9,8.8,9,8.8L9.3,7C8.7,7,8.6,7.7,8.6,7.7z"/>
		
			<linearGradient id="SVGID_5_" gradientUnits="userSpaceOnUse" x1="33.9" y1="-15" x2="44.5677" y2="-15" gradientTransform="matrix(0.2667 0 0 -0.2667 0 4.2667)">
			<stop  offset="0" style="stop-color:#050505"/>
			<stop  offset="1" style="stop-color:#1E1E21"/>
		</linearGradient>
		<path class="st4" d="M10.1,8c-0.1-0.3,0.1-0.5,0.1-0.5s1,0,1.3,0s0.5-0.3,0.5-0.3h-2C9.2,7.5,9.4,8.5,9.4,8.5h1.5
			c0.1,0.3-0.1,0.5-0.1,0.5s-1.2,0-1.4,0S9,9.3,9,9.3h2.2c0.3,0,0.4-1.3,0.4-1.3H10.1z"/>
		
			<linearGradient id="SVGID_6_" gradientUnits="userSpaceOnUse" x1="43.5406" y1="-14.95" x2="47.3841" y2="-14.95" gradientTransform="matrix(0.2667 0 0 -0.2667 0 4.2667)">
			<stop  offset="0" style="stop-color:#050505"/>
			<stop  offset="1" style="stop-color:#1E1E21"/>
		</linearGradient>
		<path class="st5" d="M12.1,7.2l-0.4,2.1c0.6,0,0.7-0.4,0.7-0.4l0.3-1.7C12.6,7.2,12.1,7.2,12.1,7.2z"/>
		
			<linearGradient id="SVGID_7_" gradientUnits="userSpaceOnUse" x1="45.2858" y1="-9" x2="48.2273" y2="-9" gradientTransform="matrix(0.2667 0 0 -0.2667 0 4.2667)">
			<stop  offset="0" style="stop-color:#050505"/>
			<stop  offset="1" style="stop-color:#1E1E21"/>
		</linearGradient>
		<polygon class="st6" points="12.9,6.4 12.2,6.4 12.1,6.9 12.7,6.9 		"/>
		
			<linearGradient id="SVGID_8_" gradientUnits="userSpaceOnUse" x1="47.0695" y1="-14.6" x2="56.8556" y2="-14.6" gradientTransform="matrix(0.2667 0 0 -0.2667 0 4.2667)">
			<stop  offset="0" style="stop-color:#050505"/>
			<stop  offset="1" style="stop-color:#1E1E21"/>
		</linearGradient>
		<path class="st7" d="M13.1,7c-0.5,1.1-0.5,2.3-0.5,2.3h2.2l-0.3-0.3h-1.2c-0.1-0.3,0.2-1.6,0.2-1.6s1.1,0,1.4,0S15.1,7,15.1,7
			H13.1z"/>
	</g>
</g>
</svg>
