<?xml version="1.0" encoding="utf-8"?>
<!-- Generator: Adobe Illustrator 18.1.0, SVG Export Plug-In . SVG Version: 6.00 Build 0)  -->
<svg version="1.1" id="图层_1" xmlns="http://www.w3.org/2000/svg" xmlns:xlink="http://www.w3.org/1999/xlink" x="0px" y="0px"
	 width="16px" height="16px" viewBox="0 0 16 16" style="enable-background:new 0 0 16 16;" xml:space="preserve">
<style type="text/css">
	.st0{fill:url(#SVGID_1_);}
	.st1{fill:url(#SVGID_2_);}
	.st2{fill:url(#SVGID_3_);}
	.st3{fill:url(#SVGID_4_);}
	.st4{fill:url(#SVGID_5_);}
	.st5{fill:url(#SVGID_6_);}
	.st6{fill:url(#SVGID_7_);}
	.st7{fill:url(#SVGID_8_);}
	.st8{fill:url(#SVGID_9_);}
	.st9{fill:url(#SVGID_10_);}
	.st10{fill:url(#SVGID_11_);}
	.st11{fill:url(#SVGID_12_);}
	.st12{fill:url(#SVGID_13_);}
	.st13{fill:url(#SVGID_14_);}
	.st14{fill:url(#SVGID_15_);}
</style>
<g>
	
		<linearGradient id="SVGID_1_" gradientUnits="userSpaceOnUse" x1="0" y1="-14" x2="60" y2="-14" gradientTransform="matrix(0.2667 0 0 -0.2667 0 4.2667)">
		<stop  offset="0" style="stop-color:#B9BBBD"/>
		<stop  offset="3.208770e-002" style="stop-color:#B6B8BA"/>
		<stop  offset="5.619587e-002" style="stop-color:#ADAEB1"/>
		<stop  offset="8.827712e-002" style="stop-color:#9D9EA1"/>
		<stop  offset="0.1241" style="stop-color:#C1C1C2"/>
		<stop  offset="0.1924" style="stop-color:#F0F0F0"/>
		<stop  offset="0.2083" style="stop-color:#FBFBFB"/>
		<stop  offset="0.2247" style="stop-color:#FFFFFF"/>
		<stop  offset="0.3015" style="stop-color:#EEEEEF"/>
		<stop  offset="0.3853" style="stop-color:#E3E3E4"/>
		<stop  offset="0.4775" style="stop-color:#DFE0E1"/>
		<stop  offset="0.7191" style="stop-color:#FFFFFF"/>
		<stop  offset="0.779" style="stop-color:#FDFDFD"/>
		<stop  offset="0.8065" style="stop-color:#F6F5F5"/>
		<stop  offset="0.8258" style="stop-color:#EBEAEA"/>
		<stop  offset="0.927" style="stop-color:#797A7D"/>
		<stop  offset="1" style="stop-color:#BEC0C1"/>
	</linearGradient>
	<path class="st0" d="M13.5,16h-11C1.1,16,0,14.9,0,13.5v-11C0,1.1,1.1,0,2.5,0h11C14.9,0,16,1.1,16,2.5v11C16,14.9,14.9,16,13.5,16
		z"/>
	<g>
		<g>
			
				<linearGradient id="SVGID_2_" gradientUnits="userSpaceOnUse" x1="5.079" y1="-5.25" x2="10.6721" y2="-5.25" gradientTransform="matrix(0.2667 0 0 -0.2667 0 4.2667)">
				<stop  offset="0" style="stop-color:#050505"/>
				<stop  offset="1" style="stop-color:#1E1E21"/>
			</linearGradient>
			<path class="st1" d="M2.9,5.9c0,0.2-0.1,0.4-0.2,0.6C2.5,6.6,2.3,6.7,2.1,6.7c-0.2,0-0.4-0.1-0.5-0.3C1.4,6.3,1.4,6.1,1.4,5.7
				c0-0.3,0.1-0.6,0.2-0.8c0.1-0.2,0.3-0.3,0.6-0.3c0.2,0,0.4,0.1,0.5,0.2c0.1,0.1,0.2,0.3,0.2,0.6H2.4c0-0.1-0.1-0.2-0.1-0.2
				C2.3,5.1,2.2,5,2.1,5C2,5,1.9,5.1,1.9,5.2C1.8,5.3,1.8,5.4,1.8,5.6c0,0.2,0,0.4,0.1,0.5C1.9,6.2,2,6.3,2.2,6.3
				c0.1,0,0.1,0,0.2-0.1C2.4,6.1,2.4,6,2.5,5.9L2.9,5.9L2.9,5.9z"/>
			
				<linearGradient id="SVGID_3_" gradientUnits="userSpaceOnUse" x1="12.113" y1="-5.35" x2="18.313" y2="-5.35" gradientTransform="matrix(0.2667 0 0 -0.2667 0 4.2667)">
				<stop  offset="0" style="stop-color:#050505"/>
				<stop  offset="1" style="stop-color:#1E1E21"/>
			</linearGradient>
			<path class="st2" d="M3.5,6.5C3.3,6.3,3.3,6,3.3,5.7c0-0.3,0.1-0.6,0.2-0.7c0.2-0.2,0.3-0.3,0.6-0.3c0.3,0,0.5,0.1,0.6,0.3
				c0.2,0.2,0.2,0.4,0.2,0.7c0,0.3-0.1,0.6-0.2,0.7C4.5,6.6,4.3,6.7,4.1,6.7S3.6,6.6,3.5,6.5z M4.3,6.1C4.4,6,4.5,5.9,4.5,5.7
				c0-0.2,0-0.3-0.1-0.5C4.3,5.1,4.2,5.1,4.1,5.1c-0.1,0-0.2,0.1-0.3,0.2C3.7,5.3,3.7,5.5,3.7,5.7c0,0.2,0,0.3,0.1,0.5
				c0.1,0.1,0.2,0.2,0.3,0.2C4.2,6.3,4.3,6.2,4.3,6.1z"/>
			
				<linearGradient id="SVGID_4_" gradientUnits="userSpaceOnUse" x1="20.1" y1="-5.2" x2="28.7932" y2="-5.2" gradientTransform="matrix(0.2667 0 0 -0.2667 0 4.2667)">
				<stop  offset="0" style="stop-color:#050505"/>
				<stop  offset="1" style="stop-color:#1E1E21"/>
			</linearGradient>
			<path class="st3" d="M5.4,4.7h0.2h0.2V5c0-0.1,0.1-0.1,0.1-0.2C6,4.7,6.1,4.6,6.3,4.6c0.2,0,0.3,0.1,0.4,0.2
				C6.7,4.9,6.7,4.9,6.7,5l0.1-0.1C6.9,4.7,7,4.6,7.2,4.6c0.2,0,0.3,0.1,0.4,0.2s0.2,0.3,0.2,0.5v1.4H7.5H7.3V5.4
				c0-0.1,0-0.2-0.1-0.2S7.1,5.1,7,5.1c-0.1,0-0.2,0-0.2,0.1C6.8,5.3,6.7,5.3,6.7,5.5v1.2H6.5H6.3V5.4c0-0.1,0-0.2-0.1-0.3
				C6.2,5.1,6.2,5.1,6.1,5.1c-0.1,0-0.2,0-0.2,0.1C5.8,5.3,5.8,5.3,5.8,5.5v1.2H5.6H5.4L5.4,4.7L5.4,4.7z"/>
			
				<linearGradient id="SVGID_5_" gradientUnits="userSpaceOnUse" x1="30.9313" y1="-5.2" x2="39.6249" y2="-5.2" gradientTransform="matrix(0.2667 0 0 -0.2667 0 4.2667)">
				<stop  offset="0" style="stop-color:#050505"/>
				<stop  offset="1" style="stop-color:#1E1E21"/>
			</linearGradient>
			<path class="st4" d="M8.2,4.7h0.2h0.2V5c0-0.1,0.1-0.1,0.1-0.2C8.9,4.7,9,4.6,9.1,4.6c0.2,0,0.3,0.1,0.4,0.2
				C9.6,4.9,9.6,4.9,9.6,5l0.1-0.1c0.1-0.2,0.2-0.2,0.4-0.2c0.2,0,0.3,0.1,0.4,0.2c0.1,0.1,0.2,0.3,0.2,0.5v1.4h-0.2h-0.3V5.4
				c0-0.1,0-0.2-0.1-0.2c0-0.1-0.1-0.1-0.2-0.1c-0.1,0-0.2,0-0.2,0.1C9.7,5.3,9.6,5.3,9.6,5.5v1.2H9.4H9.2V5.4c0-0.1,0-0.2-0.1-0.3
				C9.1,5.1,9,5.1,9,5.1s-0.2,0-0.2,0.1C8.7,5.3,8.7,5.3,8.7,5.5v1.2H8.5H8.3L8.2,4.7L8.2,4.7z"/>
			
				<linearGradient id="SVGID_6_" gradientUnits="userSpaceOnUse" x1="41.4262" y1="-5.35" x2="47.6262" y2="-5.35" gradientTransform="matrix(0.2667 0 0 -0.2667 0 4.2667)">
				<stop  offset="0" style="stop-color:#050505"/>
				<stop  offset="1" style="stop-color:#1E1E21"/>
			</linearGradient>
			<path class="st5" d="M11.3,6.5c-0.2-0.2-0.2-0.4-0.2-0.7c0-0.3,0.1-0.6,0.2-0.7c0.2-0.2,0.3-0.3,0.6-0.3s0.5,0.1,0.6,0.3
				c0.2,0.2,0.2,0.4,0.2,0.7c0,0.3-0.1,0.6-0.2,0.7c-0.2,0.2-0.3,0.3-0.6,0.3S11.4,6.6,11.3,6.5z M12.2,6.1c0.1-0.1,0.1-0.2,0.1-0.5
				c0-0.2,0-0.3-0.1-0.5c-0.1-0.1-0.2-0.2-0.3-0.2c-0.1,0-0.2,0.1-0.3,0.2c-0.1,0.1-0.1,0.2-0.1,0.5c0,0.2,0,0.3,0.1,0.5
				c0.1,0.1,0.2,0.2,0.3,0.2C12,6.3,12.1,6.2,12.2,6.1z"/>
			
				<linearGradient id="SVGID_7_" gradientUnits="userSpaceOnUse" x1="49.4372" y1="-5.2" x2="54.921" y2="-5.2" gradientTransform="matrix(0.2667 0 0 -0.2667 0 4.2667)">
				<stop  offset="0" style="stop-color:#050505"/>
				<stop  offset="1" style="stop-color:#1E1E21"/>
			</linearGradient>
			<path class="st6" d="M13.2,4.7h0.2h0.2V5l0.1-0.1c0.1-0.2,0.3-0.3,0.5-0.3c0.2,0,0.3,0.1,0.4,0.2c0.1,0.1,0.2,0.3,0.2,0.5v1.4
				h-0.2h-0.2V5.4c0-0.1,0-0.2-0.1-0.3c-0.1-0.1-0.1-0.1-0.2-0.1c-0.1,0-0.2,0.1-0.3,0.1c-0.1,0.1-0.1,0.2-0.1,0.4v1.1h-0.2h-0.2
				V4.7z"/>
		</g>
		<g>
			
				<linearGradient id="SVGID_8_" gradientUnits="userSpaceOnUse" x1="5" y1="-21.25" x2="11.0085" y2="-21.25" gradientTransform="matrix(0.2667 0 0 -0.2667 0 4.2667)">
				<stop  offset="0" style="stop-color:#050505"/>
				<stop  offset="1" style="stop-color:#1E1E21"/>
			</linearGradient>
			<path class="st7" d="M1.3,8.6h0.2h0.2v0.3l0-0.1c0.1-0.2,0.3-0.3,0.5-0.3c0.2,0,0.4,0.1,0.5,0.3C2.9,9,2.9,9.3,2.9,9.6
				c0,0.3-0.1,0.6-0.2,0.8c-0.1,0.2-0.3,0.3-0.5,0.3c-0.2,0-0.4-0.1-0.5-0.3l0,0v1H1.5H1.3V8.6z M2.1,10.2c0.1,0,0.2-0.1,0.3-0.2
				s0.1-0.3,0.1-0.5c0-0.2,0-0.3-0.1-0.5C2.3,9,2.2,9,2.1,9C2,9,1.9,9,1.9,9.1S1.8,9.4,1.8,9.6c0,0.2,0,0.3,0.1,0.5
				C1.9,10.1,2,10.2,2.1,10.2z"/>
			
				<linearGradient id="SVGID_9_" gradientUnits="userSpaceOnUse" x1="12.8338" y1="-19.7" x2="16.4338" y2="-19.7" gradientTransform="matrix(0.2667 0 0 -0.2667 0 4.2667)">
				<stop  offset="0" style="stop-color:#050505"/>
				<stop  offset="1" style="stop-color:#1E1E21"/>
			</linearGradient>
			<path class="st8" d="M3.4,8.6h0.2h0.2v0.3l0.1-0.1C4,8.6,4.1,8.5,4.3,8.5c0,0,0.1,0,0.1,0V9c0,0-0.1,0-0.1,0C4.1,9,4,9.1,3.9,9.1
				S3.8,9.4,3.8,9.5v1H3.6H3.4C3.4,10.6,3.4,8.6,3.4,8.6z"/>
			
				<linearGradient id="SVGID_10_" gradientUnits="userSpaceOnUse" x1="17.73" y1="-19.8" x2="24.0643" y2="-19.8" gradientTransform="matrix(0.2667 0 0 -0.2667 0 4.2667)">
				<stop  offset="0" style="stop-color:#050505"/>
				<stop  offset="1" style="stop-color:#1E1E21"/>
			</linearGradient>
			<path class="st9" d="M5,10.3c-0.2-0.2-0.2-0.5-0.2-0.8C4.7,9.2,4.8,9,5,8.8c0.2-0.2,0.3-0.3,0.6-0.3c0.3,0,0.5,0.1,0.6,0.3
				C6.3,9,6.4,9.2,6.4,9.5c0,0.3-0.1,0.6-0.2,0.8c-0.2,0.2-0.3,0.3-0.6,0.3C5.3,10.6,5.1,10.5,5,10.3z M5.9,10C5.9,9.9,6,9.7,6,9.5
				c0-0.2,0-0.3-0.1-0.5C5.8,9,5.7,8.9,5.6,8.9C5.4,8.9,5.3,9,5.3,9.1C5.2,9.2,5.2,9.4,5.2,9.5c0,0.2,0,0.3,0.1,0.5
				c0.1,0.1,0.2,0.2,0.3,0.2C5.7,10.2,5.8,10.1,5.9,10z"/>
			
				<linearGradient id="SVGID_11_" gradientUnits="userSpaceOnUse" x1="25.2655" y1="-18.8" x2="28.7447" y2="-18.8" gradientTransform="matrix(0.2667 0 0 -0.2667 0 4.2667)">
				<stop  offset="0" style="stop-color:#050505"/>
				<stop  offset="1" style="stop-color:#1E1E21"/>
			</linearGradient>
			<path class="st10" d="M7.7,10.6c-0.1,0-0.2,0-0.3,0c-0.2,0-0.3,0-0.3-0.1C7,10.4,7,10.3,7,10.1V8.9H6.7V8.5H7V8h0.4v0.5h0.3v0.4
				H7.4V10c0,0.1,0,0.1,0,0.1c0,0,0.1,0,0.1,0h0.1L7.7,10.6L7.7,10.6z"/>
			
				<linearGradient id="SVGID_12_" gradientUnits="userSpaceOnUse" x1="30.1332" y1="-19.8" x2="36.4684" y2="-19.8" gradientTransform="matrix(0.2667 0 0 -0.2667 0 4.2667)">
				<stop  offset="0" style="stop-color:#050505"/>
				<stop  offset="1" style="stop-color:#1E1E21"/>
			</linearGradient>
			<path class="st11" d="M8.3,10.3C8.1,10.1,8,9.9,8,9.5C8,9.2,8.1,9,8.3,8.8c0.2-0.2,0.3-0.3,0.6-0.3s0.5,0.1,0.6,0.3
				C9.7,9,9.7,9.2,9.7,9.5c0,0.3-0.1,0.6-0.2,0.8c-0.2,0.2-0.3,0.3-0.6,0.3S8.4,10.5,8.3,10.3z M9.2,10c0.1-0.1,0.1-0.3,0.1-0.5
				c0-0.2,0-0.3-0.1-0.5C9.1,9,9,8.9,8.9,8.9S8.6,9,8.6,9.1C8.5,9.2,8.5,9.4,8.5,9.5c0,0.2,0,0.3,0.1,0.5c0.1,0.1,0.2,0.2,0.3,0.2
				C9,10.2,9.1,10.1,9.2,10z"/>
			
				<linearGradient id="SVGID_13_" gradientUnits="userSpaceOnUse" x1="37.9532" y1="-19.85" x2="43.6635" y2="-19.85" gradientTransform="matrix(0.2667 0 0 -0.2667 0 4.2667)">
				<stop  offset="0" style="stop-color:#050505"/>
				<stop  offset="1" style="stop-color:#1E1E21"/>
			</linearGradient>
			<path class="st12" d="M11.7,9.8c0,0.2-0.1,0.4-0.2,0.6c-0.1,0.1-0.3,0.2-0.5,0.2c-0.2,0-0.4-0.1-0.6-0.3
				c-0.1-0.2-0.2-0.4-0.2-0.7c0-0.3,0.1-0.6,0.2-0.8s0.3-0.3,0.6-0.3c0.2,0,0.4,0.1,0.5,0.2c0.1,0.1,0.2,0.3,0.2,0.6h-0.5
				c0-0.1-0.1-0.2-0.1-0.2C11,9,11,9,10.9,9c-0.1,0-0.2,0.1-0.2,0.2s-0.1,0.2-0.1,0.4c0,0.2,0,0.4,0.1,0.5c0.1,0.1,0.1,0.2,0.3,0.2
				c0.1,0,0.1,0,0.2-0.1c0.1-0.1,0.1-0.2,0.1-0.3L11.7,9.8L11.7,9.8z"/>
			
				<linearGradient id="SVGID_14_" gradientUnits="userSpaceOnUse" x1="45.1363" y1="-19.8" x2="51.4697" y2="-19.8" gradientTransform="matrix(0.2667 0 0 -0.2667 0 4.2667)">
				<stop  offset="0" style="stop-color:#050505"/>
				<stop  offset="1" style="stop-color:#1E1E21"/>
			</linearGradient>
			<path class="st13" d="M12.3,10.3C12.1,10.1,12,9.9,12,9.5c0-0.3,0.1-0.6,0.2-0.8c0.2-0.2,0.3-0.3,0.6-0.3c0.3,0,0.5,0.1,0.6,0.3
				c0.2,0.2,0.2,0.5,0.2,0.8c0,0.3-0.1,0.6-0.2,0.8c-0.2,0.2-0.3,0.3-0.6,0.3C12.6,10.6,12.4,10.5,12.3,10.3z M13.2,10
				c0.1-0.1,0.1-0.3,0.1-0.5c0-0.2,0-0.3-0.1-0.5C13.1,9,13,8.9,12.9,8.9c-0.1,0-0.2,0.1-0.3,0.2c-0.1,0.1-0.1,0.3-0.1,0.5
				c0,0.2,0,0.3,0.1,0.5c0.1,0.1,0.2,0.2,0.3,0.2S13.1,10.1,13.2,10z"/>
			
				<linearGradient id="SVGID_15_" gradientUnits="userSpaceOnUse" x1="53.3727" y1="-18.5" x2="55" y2="-18.5" gradientTransform="matrix(0.2667 0 0 -0.2667 0 4.2667)">
				<stop  offset="0" style="stop-color:#050505"/>
				<stop  offset="1" style="stop-color:#1E1E21"/>
			</linearGradient>
			<path class="st14" d="M14.2,7.8h0.2h0.2v2.7h-0.2h-0.2V7.8z"/>
		</g>
	</g>
</g>
</svg>
