<?xml version="1.0" encoding="utf-8"?>
<!-- Generator: Adobe Illustrator 16.0.0, SVG Export Plug-In . SVG Version: 6.00 Build 0)  -->
<!DOCTYPE svg PUBLIC "-//W3C//DTD SVG 1.1//EN" "http://www.w3.org/Graphics/SVG/1.1/DTD/svg11.dtd">
<svg version="1.1" id="图层_1" xmlns="http://www.w3.org/2000/svg" xmlns:xlink="http://www.w3.org/1999/xlink" x="0px" y="0px"
	 width="60px" height="60px" viewBox="0 0 60 60" style="enable-background:new 0 0 60 60;" xml:space="preserve">
<style type="text/css">
<![CDATA[
	.st0{opacity:0;fill:#FFFFFF;}
	.st1{opacity:0.22;fill:#FFFFFF;}
	.st2{fill:url(#SVGID_1_);}
	.st3{fill:url(#SVGID_2_);}
	.st4{fill:url(#SVGID_3_);}
	.st5{fill:url(#SVGID_4_);}
	.st6{fill:url(#SVGID_5_);}
	.st7{fill:url(#SVGID_6_);}
	.st8{fill:url(#SVGID_7_);}
	.st9{fill:url(#SVGID_8_);}
	.st10{fill:url(#SVGID_9_);}
	.st11{fill:url(#SVGID_10_);}
	.st12{fill:url(#SVGID_11_);}
	.st13{fill:url(#SVGID_12_);}
	.st14{fill:url(#SVGID_13_);}
	.st15{fill:url(#SVGID_14_);}
	.st16{fill:url(#SVGID_15_);}
	.st17{fill:url(#SVGID_16_);}
	.st18{fill:url(#SVGID_17_);}
	.st19{fill:url(#SVGID_18_);}
	.st20{fill:url(#SVGID_19_);}
	.st21{fill:url(#SVGID_20_);}
	.st22{fill:url(#SVGID_21_);}
	.st23{fill:url(#SVGID_22_);}
	.st24{fill:url(#SVGID_23_);}
	.st25{fill:url(#SVGID_24_);}
]]>
</style>
<rect class="st0" width="60" height="60"/>
<g>
	<g>
		
			<radialGradient id="SVGID_1_" cx="-275.1514" cy="972.8545" r="172.7362" gradientTransform="matrix(0.4712 0 0 0.4712 201.3525 -381.2083)" gradientUnits="userSpaceOnUse">
			<stop  offset="0" style="stop-color:#FFFFFF"/>
			<stop  offset="1" style="stop-color:#000000"/>
		</radialGradient>
		<path class="st2" d="M30.5,23C13.3,23.1,1.6,30,2,41.5C2.4,51.8,14.4,60,30,60c15.6,0,28-8.1,28-18.4C58.1,28.5,43.8,22.9,30.5,23
			z M30,55.6c-15,0-27.5-7.5-27.3-16.5C2.8,31.5,14.9,23.2,30,23.2c15,0,27.6,7.3,27.6,16.3C57.5,48.4,45,55.6,30,55.6z"/>
		
			<radialGradient id="SVGID_2_" cx="-368.1528" cy="998.8535" r="172.9957" gradientTransform="matrix(0.4712 0 0 0.4712 201.3525 -381.2083)" gradientUnits="userSpaceOnUse">
			<stop  offset="0" style="stop-color:#FFFFFF"/>
			<stop  offset="1" style="stop-color:#000000"/>
		</radialGradient>
		<path class="st3" d="M57.5,39.1c0,0.1,0,0.3,0,0.4c0,8.9-12.5,16.1-27.6,16.1c-14.7,0-27-7.2-27.5-15.9c0,0.2,0,0.4,0,0.7
			c0,10.8,12,18.8,27.6,18.8c15.6,0,27.4-8,27.6-17.9C57.6,40.6,57.6,39.8,57.5,39.1z"/>
		<linearGradient id="SVGID_3_" gradientUnits="userSpaceOnUse" x1="27.4619" y1="60.0537" x2="32.9593" y2="15.7602">
			<stop  offset="0" style="stop-color:#FFFFFF"/>
			<stop  offset="1" style="stop-color:#000000"/>
		</linearGradient>
		<path class="st4" d="M57.5,39.1c-0.2-1.6-0.6-3.2-1.3-4.6c-2.5-4.5-8.3-8.2-15.7-10.1c9.8,2.5,16.6,8.2,16.6,14.9
			c0,8.9-12,15.8-27.1,15.8c-15,0-27.4-6.8-27.4-15.8c0-8.7,11.4-15.7,25.8-16.2c-0.5,0-0.9,0-1.4,0.1c-0.2,0-0.5,0-0.7,0.1
			c-0.2,0-0.4,0-0.6,0c-0.4,0-0.7,0.1-1.1,0.1c-0.1,0-0.2,0-0.3,0c-0.4,0-0.7,0.1-1,0.1c-0.1,0-0.2,0-0.3,0c-0.3,0-0.5,0.1-0.8,0.1
			c-0.2,0-0.4,0.1-0.6,0.1c-0.1,0-0.3,0.1-0.4,0.1c-10.8,2.1-18.5,8-18.9,15.7C2.9,48.4,15.2,55.6,30,55.6c15,0,27.6-7.2,27.6-16.1
			C57.5,39.4,57.5,39.2,57.5,39.1z"/>
		
			<radialGradient id="SVGID_4_" cx="-340.1567" cy="841.8535" r="202.1797" gradientTransform="matrix(0.4712 0 0 0.4712 201.3525 -381.2083)" gradientUnits="userSpaceOnUse">
			<stop  offset="0" style="stop-color:#FFFFFF"/>
			<stop  offset="1" style="stop-color:#000000"/>
		</radialGradient>
		<path class="st5" d="M28.5,23.3c0.5,0,0.9,0,1.4,0c0.4,0,0.8,0,1.3,0c0.2,0,0.3,0,0.5,0c0.3,0,0.5,0,0.8,0c0.2,0,0.4,0,0.6,0
			c0.2,0,0.4,0,0.7,0.1c0.2,0,0.4,0,0.6,0.1c0.2,0,0.4,0,0.6,0.1c0.4,0,0.8,0.1,1.2,0.1c0.2,0,0.3,0,0.5,0.1c0.2,0,0.4,0.1,0.6,0.1
			c0.2,0,0.4,0.1,0.6,0.1c0.2,0,0.4,0.1,0.6,0.1c0.2,0,0.4,0.1,0.7,0.1c0.2,0,0.3,0.1,0.5,0.1c0.3,0.1,0.7,0.2,1,0.2
			c0,0,0.1,0,0.1,0c9.4,2.4,16.1,7.8,16.6,14.1c0-0.3,0-0.5,0-0.8c0-8.1-12.2-14.6-27.2-14.6c-15,0-27.2,6.5-27.2,14.6
			c0,0.3,0,0.5,0,0.7C3.5,30.3,14.6,23.7,28.5,23.3z"/>
		<linearGradient id="SVGID_5_" gradientUnits="userSpaceOnUse" x1="38.4023" y1="21.5205" x2="1.0207" y2="96.2839">
			<stop  offset="0" style="stop-color:#FFFFFF"/>
			<stop  offset="1" style="stop-color:#000000"/>
		</linearGradient>
		<path class="st6" d="M30,52.5c14.6,0,26.4-6.1,27.2-13.9c-0.5-6.4-7.2-11.8-16.6-14.1c0,0-0.1,0-0.1,0c-0.3-0.1-0.7-0.2-1-0.2
			c-0.2,0-0.3-0.1-0.5-0.1c-0.2,0-0.4-0.1-0.7-0.1c-0.2,0-0.4-0.1-0.6-0.1c-0.2,0-0.4-0.1-0.6-0.1c-0.2,0-0.4-0.1-0.6-0.1
			c-0.2,0-0.3,0-0.5-0.1c-0.4-0.1-0.8-0.1-1.2-0.1c-0.2,0-0.4,0-0.6-0.1c-0.2,0-0.4,0-0.6-0.1c-0.2,0-0.4,0-0.7-0.1
			c-0.2,0-0.4,0-0.6,0c-0.3,0-0.5,0-0.8,0c-0.2,0-0.3,0-0.5,0c-0.4,0-0.8,0-1.3,0c-0.5,0-1,0-1.4,0C14.6,23.7,3.5,30.3,2.8,38.6
			C3.5,46.3,15.4,52.5,30,52.5z"/>
		
			<radialGradient id="SVGID_6_" cx="-368.8237" cy="930.8545" r="147.2146" gradientTransform="matrix(0.4712 0 0 0.4712 201.3525 -381.2083)" gradientUnits="userSpaceOnUse">
			<stop  offset="0" style="stop-color:#FFFFFF"/>
			<stop  offset="1" style="stop-color:#020202"/>
		</radialGradient>
		<path class="st7" d="M30,52.5c-14.6,0-26.5-6.1-27.2-13.9c0,0.3,0,0.5,0,0.8c0,8.9,12.3,15.8,27.4,15.8c15,0,27.1-6.8,27.1-15.8
			c0-0.3,0-0.5,0-0.8C56.4,46.3,44.5,52.5,30,52.5z"/>
	</g>
	<g>
		
			<radialGradient id="SVGID_7_" cx="-339.4868" cy="798.1875" r="238.6714" gradientTransform="matrix(0.4712 0 0 0.4712 201.3525 -381.2083)" gradientUnits="userSpaceOnUse">
			<stop  offset="0" style="stop-color:#FFFFFF"/>
			<stop  offset="1" style="stop-color:#000000"/>
		</radialGradient>
		<path class="st8" d="M30.5,15.4C13.3,15.5,1.6,22.4,2,33.9c0.4,10.4,12.5,18.5,28,18.5c15.6,0,28-8.1,28-18.4
			C58.1,21,43.8,15.4,30.5,15.4z M30,48.1c-15,0-27.5-7.5-27.3-16.5C2.8,23.9,14.9,15.7,30,15.7c15,0,27.6,7.3,27.6,16.3
			C57.5,40.9,45,48.1,30,48.1z"/>
		
			<radialGradient id="SVGID_8_" cx="-368.1528" cy="982.8535" r="172.9957" gradientTransform="matrix(0.4712 0 0 0.4712 201.3525 -381.2083)" gradientUnits="userSpaceOnUse">
			<stop  offset="0" style="stop-color:#FFFFFF"/>
			<stop  offset="1" style="stop-color:#000000"/>
		</radialGradient>
		<path class="st9" d="M57.5,31.6c0,0.1,0,0.3,0,0.4c0,8.9-12.5,16.1-27.6,16.1c-14.7,0-27-7.2-27.5-15.9c0,0.2,0,0.4,0,0.7
			c0,10.8,12,18.8,27.6,18.8c15.6,0,27.4-8,27.6-17.9C57.6,33,57.6,32.3,57.5,31.6z"/>
		<linearGradient id="SVGID_9_" gradientUnits="userSpaceOnUse" x1="27.4629" y1="52.5127" x2="32.9601" y2="8.2205">
			<stop  offset="0" style="stop-color:#FFFFFF"/>
			<stop  offset="1" style="stop-color:#000000"/>
		</linearGradient>
		<path class="st10" d="M57.5,31.6c-0.2-1.6-0.6-3.2-1.3-4.6c-2.5-4.5-8.3-8.2-15.7-10.1c9.8,2.5,16.6,8.2,16.6,14.9
			c0,8.9-12,15.8-27.1,15.8c-15,0-27.4-6.8-27.4-15.8c0-8.7,11.4-15.7,25.8-16.2c-0.5,0-0.9,0-1.4,0.1c-0.2,0-0.5,0-0.7,0.1
			c-0.2,0-0.4,0-0.6,0c-0.4,0-0.7,0.1-1.1,0.1c-0.1,0-0.2,0-0.3,0c-0.4,0-0.7,0.1-1,0.1c-0.1,0-0.2,0-0.3,0c-0.3,0-0.5,0.1-0.8,0.1
			c-0.2,0-0.4,0.1-0.6,0.1c-0.1,0-0.3,0.1-0.4,0.1c-10.8,2.1-18.5,8-18.9,15.7C2.9,40.9,15.2,48.1,30,48.1c15,0,27.6-7.2,27.6-16.1
			C57.5,31.8,57.5,31.7,57.5,31.6z"/>
		
			<radialGradient id="SVGID_10_" cx="-340.1567" cy="825.8545" r="202.1797" gradientTransform="matrix(0.4712 0 0 0.4712 201.3525 -381.2083)" gradientUnits="userSpaceOnUse">
			<stop  offset="0" style="stop-color:#FFFFFF"/>
			<stop  offset="1" style="stop-color:#000000"/>
		</radialGradient>
		<path class="st11" d="M28.5,15.7c0.5,0,0.9,0,1.4,0c0.4,0,0.8,0,1.3,0c0.2,0,0.3,0,0.5,0c0.3,0,0.5,0,0.8,0c0.2,0,0.4,0,0.6,0
			c0.2,0,0.4,0,0.7,0c0.2,0,0.4,0,0.6,0.1c0.2,0,0.4,0,0.6,0.1c0.4,0,0.8,0.1,1.2,0.1c0.2,0,0.3,0,0.5,0.1c0.2,0,0.4,0.1,0.6,0.1
			c0.2,0,0.4,0.1,0.6,0.1c0.2,0,0.4,0.1,0.6,0.1c0.2,0,0.4,0.1,0.7,0.1c0.2,0,0.3,0.1,0.5,0.1c0.3,0.1,0.7,0.2,1,0.2
			c0,0,0.1,0,0.1,0c9.4,2.4,16.1,7.8,16.6,14.1c0-0.3,0-0.5,0-0.8c0-8.1-12.2-14.6-27.2-14.6c-15,0-27.2,6.5-27.2,14.6
			c0,0.3,0,0.5,0,0.7C3.5,22.8,14.6,16.1,28.5,15.7z"/>
		<linearGradient id="SVGID_11_" gradientUnits="userSpaceOnUse" x1="38.4023" y1="13.9814" x2="1.0207" y2="88.7448">
			<stop  offset="0" style="stop-color:#FFFFFF"/>
			<stop  offset="1" style="stop-color:#000000"/>
		</linearGradient>
		<path class="st12" d="M30,44.9c14.6,0,26.4-6.1,27.2-13.9c-0.5-6.4-7.2-11.8-16.6-14.1c0,0-0.1,0-0.1,0c-0.3-0.1-0.7-0.2-1-0.2
			c-0.2,0-0.3-0.1-0.5-0.1c-0.2,0-0.4-0.1-0.7-0.1c-0.2,0-0.4-0.1-0.6-0.1c-0.2,0-0.4-0.1-0.6-0.1c-0.2,0-0.4-0.1-0.6-0.1
			c-0.2,0-0.3,0-0.5-0.1c-0.4-0.1-0.8-0.1-1.2-0.1c-0.2,0-0.4,0-0.6-0.1c-0.2,0-0.4,0-0.6-0.1c-0.2,0-0.4,0-0.7,0
			c-0.2,0-0.4,0-0.6,0c-0.3,0-0.5,0-0.8,0c-0.2,0-0.3,0-0.5,0c-0.4,0-0.8,0-1.3,0c-0.5,0-1,0-1.4,0C14.6,16.1,3.5,22.8,2.8,31.1
			C3.5,38.8,15.4,44.9,30,44.9z"/>
		
			<radialGradient id="SVGID_12_" cx="-368.8237" cy="914.8545" r="147.2146" gradientTransform="matrix(0.4712 0 0 0.4712 201.3525 -381.2083)" gradientUnits="userSpaceOnUse">
			<stop  offset="0" style="stop-color:#FFFFFF"/>
			<stop  offset="1" style="stop-color:#020202"/>
		</radialGradient>
		<path class="st13" d="M30,44.9c-14.6,0-26.5-6.1-27.2-13.9c0,0.3,0,0.5,0,0.8c0,8.9,12.3,15.8,27.4,15.8c15,0,27.1-6.8,27.1-15.8
			c0-0.3,0-0.5,0-0.8C56.4,38.8,44.5,44.9,30,44.9z"/>
	</g>
	<g>
		
			<radialGradient id="SVGID_13_" cx="-339.4868" cy="782.1875" r="238.6731" gradientTransform="matrix(0.4712 0 0 0.4712 201.3525 -381.2083)" gradientUnits="userSpaceOnUse">
			<stop  offset="0" style="stop-color:#FFFFFF"/>
			<stop  offset="1" style="stop-color:#000000"/>
		</radialGradient>
		<path class="st14" d="M30.5,7.9C13.3,8,1.6,14.9,2,26.4c0.4,10.4,12.5,18.5,28,18.5c15.6,0,28-8.1,28-18.4
			C58.1,13.4,43.8,7.8,30.5,7.9z M30,40.5c-15,0-27.5-7.5-27.3-16.5C2.8,16.4,14.9,8.2,30,8.2c15,0,27.6,7.3,27.6,16.3
			C57.5,33.4,45,40.5,30,40.5z"/>
		
			<radialGradient id="SVGID_14_" cx="-368.1528" cy="966.8555" r="172.9984" gradientTransform="matrix(0.4712 0 0 0.4712 201.3525 -381.2083)" gradientUnits="userSpaceOnUse">
			<stop  offset="0" style="stop-color:#FFFFFF"/>
			<stop  offset="1" style="stop-color:#000000"/>
		</radialGradient>
		<path class="st15" d="M57.5,24c0,0.1,0,0.3,0,0.4c0,8.9-12.5,16.1-27.6,16.1c-14.7,0-27-7.2-27.5-15.9c0,0.2,0,0.4,0,0.7
			c0,10.8,12,18.8,27.6,18.8c15.6,0,27.4-8,27.6-17.9C57.6,25.5,57.6,24.8,57.5,24z"/>
		<linearGradient id="SVGID_15_" gradientUnits="userSpaceOnUse" x1="27.4614" y1="44.9736" x2="32.9587" y2="0.6808">
			<stop  offset="0" style="stop-color:#FFFFFF"/>
			<stop  offset="1" style="stop-color:#000000"/>
		</linearGradient>
		<path class="st16" d="M57.5,24c-0.2-1.6-0.6-3.2-1.3-4.6c-2.5-4.5-8.3-8.2-15.7-10.1c9.8,2.5,16.6,8.2,16.6,14.9
			c0,8.9-12,15.8-27.1,15.8c-15,0-27.4-6.8-27.4-15.8c0-8.7,11.4-15.7,25.8-16.2c-0.5,0-0.9,0-1.4,0.1c-0.2,0-0.5,0-0.7,0.1
			c-0.2,0-0.4,0-0.6,0c-0.4,0-0.7,0.1-1.1,0.1c-0.1,0-0.2,0-0.3,0c-0.4,0-0.7,0.1-1,0.1c-0.1,0-0.2,0-0.3,0c-0.3,0-0.5,0.1-0.8,0.1
			c-0.2,0-0.4,0.1-0.6,0.1c-0.1,0-0.3,0.1-0.4,0.1C10.5,11,2.8,17,2.4,24.7C2.9,33.4,15.2,40.5,30,40.5c15,0,27.6-7.2,27.6-16.1
			C57.5,24.3,57.5,24.2,57.5,24z"/>
		
			<radialGradient id="SVGID_16_" cx="-340.1567" cy="809.8545" r="202.1797" gradientTransform="matrix(0.4712 0 0 0.4712 201.3525 -381.2083)" gradientUnits="userSpaceOnUse">
			<stop  offset="0" style="stop-color:#FFFFFF"/>
			<stop  offset="1" style="stop-color:#000000"/>
		</radialGradient>
		<path class="st17" d="M28.5,8.2c0.5,0,0.9,0,1.4,0c0.4,0,0.8,0,1.3,0c0.2,0,0.3,0,0.5,0c0.3,0,0.5,0,0.8,0c0.2,0,0.4,0,0.6,0
			c0.2,0,0.4,0,0.7,0.1c0.2,0,0.4,0,0.6,0.1c0.2,0,0.4,0,0.6,0.1c0.4,0,0.8,0.1,1.2,0.1c0.2,0,0.3,0,0.5,0.1c0.2,0,0.4,0.1,0.6,0.1
			c0.2,0,0.4,0.1,0.6,0.1c0.2,0,0.4,0.1,0.6,0.1C38.6,9,38.8,9,39,9.1c0.2,0,0.3,0.1,0.5,0.1c0.3,0.1,0.7,0.2,1,0.2c0,0,0.1,0,0.1,0
			c9.4,2.4,16.1,7.8,16.6,14.1c0-0.3,0-0.5,0-0.8C57.2,14.7,45,8.2,30,8.2c-15,0-27.2,6.5-27.2,14.6c0,0.3,0,0.5,0,0.7
			C3.5,15.2,14.6,8.6,28.5,8.2z"/>
		<linearGradient id="SVGID_17_" gradientUnits="userSpaceOnUse" x1="38.4023" y1="6.4419" x2="1.0207" y2="81.2053">
			<stop  offset="0" style="stop-color:#FFFFFF"/>
			<stop  offset="1" style="stop-color:#000000"/>
		</linearGradient>
		<path class="st18" d="M30,37.4c14.6,0,26.4-6.1,27.2-13.9c-0.5-6.4-7.2-11.8-16.6-14.1c0,0-0.1,0-0.1,0c-0.3-0.1-0.7-0.2-1-0.2
			c-0.2,0-0.3-0.1-0.5-0.1c-0.2,0-0.4-0.1-0.7-0.1c-0.2,0-0.4-0.1-0.6-0.1c-0.2,0-0.4-0.1-0.6-0.1c-0.2,0-0.4-0.1-0.6-0.1
			c-0.2,0-0.3,0-0.5-0.1c-0.4-0.1-0.8-0.1-1.2-0.1c-0.2,0-0.4,0-0.6-0.1c-0.2,0-0.4,0-0.6-0.1c-0.2,0-0.4,0-0.7-0.1
			c-0.2,0-0.4,0-0.6,0c-0.3,0-0.5,0-0.8,0c-0.2,0-0.3,0-0.5,0c-0.4,0-0.8,0-1.3,0c-0.5,0-1,0-1.4,0C14.6,8.6,3.5,15.2,2.8,23.5
			C3.5,31.2,15.4,37.4,30,37.4z"/>
		
			<radialGradient id="SVGID_18_" cx="-368.8237" cy="898.8545" r="147.2146" gradientTransform="matrix(0.4712 0 0 0.4712 201.3525 -381.2083)" gradientUnits="userSpaceOnUse">
			<stop  offset="0" style="stop-color:#FFFFFF"/>
			<stop  offset="1" style="stop-color:#020202"/>
		</radialGradient>
		<path class="st19" d="M30,37.4c-14.6,0-26.5-6.1-27.2-13.9c0,0.3,0,0.5,0,0.8c0,8.9,12.3,15.8,27.4,15.8c15,0,27.1-6.8,27.1-15.8
			c0-0.3,0-0.5,0-0.8C56.4,31.3,44.5,37.4,30,37.4z"/>
	</g>
	<g>
		
			<radialGradient id="SVGID_19_" cx="-339.4868" cy="766.1855" r="238.6767" gradientTransform="matrix(0.4712 0 0 0.4712 201.3525 -381.2083)" gradientUnits="userSpaceOnUse">
			<stop  offset="0" style="stop-color:#FFFFFF"/>
			<stop  offset="1" style="stop-color:#000000"/>
		</radialGradient>
		<path class="st20" d="M30.5,0.3C13.3,0.4,1.6,7.4,2,18.9c0.4,10.4,12.5,18.5,28,18.5c15.6,0,28-8.1,28-18.4
			C58.1,5.9,43.8,0.3,30.5,0.3z M30,33c-15,0-27.5-7.5-27.3-16.5C2.8,8.9,14.9,0.6,30,0.6c15,0,27.6,7.3,27.6,16.3
			C57.5,25.8,45,33,30,33z"/>
		
			<radialGradient id="SVGID_20_" cx="-368.1528" cy="950.8545" r="172.997" gradientTransform="matrix(0.4712 0 0 0.4712 201.3525 -381.2083)" gradientUnits="userSpaceOnUse">
			<stop  offset="0" style="stop-color:#FFFFFF"/>
			<stop  offset="1" style="stop-color:#000000"/>
		</radialGradient>
		<path class="st21" d="M57.5,16.5c0,0.1,0,0.3,0,0.4C57.5,25.8,45,33,30,33c-14.7,0-27-7.2-27.5-15.9c0,0.2,0,0.4,0,0.7
			c0,10.8,12,18.8,27.6,18.8c15.6,0,27.4-8,27.6-17.9C57.6,17.9,57.6,17.2,57.5,16.5z"/>
		<linearGradient id="SVGID_21_" gradientUnits="userSpaceOnUse" x1="27.4624" y1="37.4346" x2="32.9597" y2="-6.8583">
			<stop  offset="0" style="stop-color:#FFFFFF"/>
			<stop  offset="1" style="stop-color:#000000"/>
		</linearGradient>
		<path class="st22" d="M57.5,16.5c-0.2-1.6-0.6-3.2-1.3-4.6c-2.5-4.5-8.3-8.2-15.7-10.1c9.8,2.5,16.6,8.2,16.6,14.9
			c0,8.9-12,15.8-27.1,15.8c-15,0-27.4-6.8-27.4-15.8c0-8.7,11.4-15.7,25.8-16.2c-0.5,0-0.9,0-1.4,0.1c-0.2,0-0.5,0-0.7,0.1
			c-0.2,0-0.4,0-0.6,0c-0.4,0-0.7,0.1-1.1,0.1c-0.1,0-0.2,0-0.3,0c-0.4,0-0.7,0.1-1,0.1c-0.1,0-0.2,0-0.3,0c-0.3,0-0.5,0.1-0.8,0.1
			c-0.2,0-0.4,0.1-0.6,0.1c-0.1,0-0.3,0.1-0.4,0.1C10.5,3.5,2.8,9.5,2.4,17.1C2.9,25.8,15.2,33,30,33c15,0,27.6-7.2,27.6-16.1
			C57.5,16.8,57.5,16.6,57.5,16.5z"/>
		
			<radialGradient id="SVGID_22_" cx="-340.1567" cy="793.8535" r="202.1797" gradientTransform="matrix(0.4712 0 0 0.4712 201.3525 -381.2083)" gradientUnits="userSpaceOnUse">
			<stop  offset="0" style="stop-color:#FFFFFF"/>
			<stop  offset="1" style="stop-color:#000000"/>
		</radialGradient>
		<path class="st23" d="M28.5,0.6c0.5,0,0.9,0,1.4,0c0.4,0,0.8,0,1.3,0c0.2,0,0.3,0,0.5,0c0.3,0,0.5,0,0.8,0c0.2,0,0.4,0,0.6,0
			c0.2,0,0.4,0,0.7,0.1c0.2,0,0.4,0,0.6,0.1c0.2,0,0.4,0,0.6,0.1c0.4,0,0.8,0.1,1.2,0.1c0.2,0,0.3,0,0.5,0.1c0.2,0,0.4,0.1,0.6,0.1
			c0.2,0,0.4,0.1,0.6,0.1c0.2,0,0.4,0.1,0.6,0.1c0.2,0,0.4,0.1,0.7,0.1c0.2,0,0.3,0.1,0.5,0.1c0.3,0.1,0.7,0.2,1,0.2
			c0,0,0.1,0,0.1,0C49.9,4.2,56.6,9.6,57.1,16c0-0.3,0-0.5,0-0.8C57.2,7.2,45,0.6,30,0.6c-15,0-27.2,6.5-27.2,14.6
			c0,0.3,0,0.5,0,0.7C3.5,7.7,14.6,1.1,28.5,0.6z"/>
		<linearGradient id="SVGID_23_" gradientUnits="userSpaceOnUse" x1="38.4023" y1="-1.0967" x2="1.0205" y2="73.6672">
			<stop  offset="0" style="stop-color:#FFFFFF"/>
			<stop  offset="1" style="stop-color:#000000"/>
		</linearGradient>
		<path class="st24" d="M30,29.9c14.6,0,26.4-6.1,27.2-13.9C56.6,9.6,49.9,4.2,40.6,1.9c0,0-0.1,0-0.1,0c-0.3-0.1-0.7-0.2-1-0.2
			c-0.2,0-0.3-0.1-0.5-0.1c-0.2,0-0.4-0.1-0.7-0.1c-0.2,0-0.4-0.1-0.6-0.1c-0.2,0-0.4-0.1-0.6-0.1c-0.2,0-0.4-0.1-0.6-0.1
			c-0.2,0-0.3,0-0.5-0.1c-0.4-0.1-0.8-0.1-1.2-0.1c-0.2,0-0.4,0-0.6-0.1c-0.2,0-0.4,0-0.6-0.1c-0.2,0-0.4,0-0.7-0.1
			c-0.2,0-0.4,0-0.6,0c-0.3,0-0.5,0-0.8,0c-0.2,0-0.3,0-0.5,0c-0.4,0-0.8,0-1.3,0c-0.5,0-1,0-1.4,0C14.6,1.1,3.5,7.7,2.8,16
			C3.5,23.7,15.4,29.9,30,29.9z"/>
		
			<radialGradient id="SVGID_24_" cx="-368.8237" cy="882.8555" r="147.2146" gradientTransform="matrix(0.4712 0 0 0.4712 201.3525 -381.2083)" gradientUnits="userSpaceOnUse">
			<stop  offset="0" style="stop-color:#FFFFFF"/>
			<stop  offset="1" style="stop-color:#020202"/>
		</radialGradient>
		<path class="st25" d="M30,29.9C15.4,29.9,3.5,23.7,2.8,16c0,0.3,0,0.5,0,0.8c0,8.9,12.3,15.8,27.4,15.8c15,0,27.1-6.8,27.1-15.8
			c0-0.3,0-0.5,0-0.8C56.4,23.7,44.5,29.9,30,29.9z"/>
	</g>
	<ellipse transform="matrix(0.9916 0.1294 -0.1294 0.9916 1.751 -4.402)" class="st1" cx="34.8" cy="11.3" rx="21.3" ry="11"/>
</g>
</svg>
