<?xml version="1.0" encoding="utf-8"?>
<!-- Generator: Adobe Illustrator 18.1.0, SVG Export Plug-In . SVG Version: 6.00 Build 0)  -->
<svg version="1.1" id="图层_1" xmlns="http://www.w3.org/2000/svg" xmlns:xlink="http://www.w3.org/1999/xlink" x="0px" y="0px"
	 width="16px" height="16px" viewBox="0 0 16 16" style="enable-background:new 0 0 16 16;" xml:space="preserve">
<style type="text/css">
	.st0{fill:url(#SVGID_1_);}
	.st1{fill:url(#SVGID_2_);}
</style>
<g>
	
		<linearGradient id="SVGID_1_" gradientUnits="userSpaceOnUse" x1="0" y1="-14" x2="60" y2="-14" gradientTransform="matrix(0.2667 0 0 -0.2667 0 4.2667)">
		<stop  offset="0" style="stop-color:#B9BBBD"/>
		<stop  offset="3.208770e-002" style="stop-color:#B6B8BA"/>
		<stop  offset="5.619587e-002" style="stop-color:#ADAEB1"/>
		<stop  offset="8.827712e-002" style="stop-color:#9D9EA1"/>
		<stop  offset="0.1241" style="stop-color:#C1C1C2"/>
		<stop  offset="0.1924" style="stop-color:#F0F0F0"/>
		<stop  offset="0.2083" style="stop-color:#FBFBFB"/>
		<stop  offset="0.2247" style="stop-color:#FFFFFF"/>
		<stop  offset="0.3015" style="stop-color:#EEEEEF"/>
		<stop  offset="0.3853" style="stop-color:#E3E3E4"/>
		<stop  offset="0.4775" style="stop-color:#DFE0E1"/>
		<stop  offset="0.7191" style="stop-color:#FFFFFF"/>
		<stop  offset="0.779" style="stop-color:#FDFDFD"/>
		<stop  offset="0.8065" style="stop-color:#F6F5F5"/>
		<stop  offset="0.8258" style="stop-color:#EBEAEA"/>
		<stop  offset="0.927" style="stop-color:#797A7D"/>
		<stop  offset="1" style="stop-color:#BEC0C1"/>
	</linearGradient>
	<path class="st0" d="M13.5,16h-11C1.1,16,0,14.9,0,13.5v-11C0,1.1,1.1,0,2.5,0h11C14.9,0,16,1.1,16,2.5v11C16,14.9,14.9,16,13.5,16
		z"/>
	
		<linearGradient id="SVGID_2_" gradientUnits="userSpaceOnUse" x1="8" y1="-14" x2="52" y2="-14" gradientTransform="matrix(0.2667 0 0 -0.2667 0 4.2667)">
		<stop  offset="0" style="stop-color:#050505"/>
		<stop  offset="1" style="stop-color:#1E1E21"/>
	</linearGradient>
	<path class="st1" d="M8.5,7.3C8.5,7.3,8.4,7.2,8.3,7.2H7.7v0.5h0.5c0.1,0,0.2,0.1,0.2,0c0.1-0.1,0.1-0.1,0.1-0.2
		C8.6,7.4,8.6,7.4,8.5,7.3z M8.5,7.3C8.5,7.3,8.4,7.2,8.3,7.2H7.7v0.5h0.5c0.1,0,0.2,0.1,0.2,0c0.1-0.1,0.1-0.1,0.1-0.2
		C8.6,7.4,8.6,7.4,8.5,7.3z M13.9,4.5V2.9c0-0.4-0.2-0.7-0.6-0.7h-1.8v1.1h-0.8V2.1H9.9v1.1H9.1V2.1H8.3v1.1H7.5V2.1H6.7v1.1H5.9
		V2.1H5.1v1.1H4.3V2.1H3c-0.4,0-0.8,0.3-0.8,0.7v1.7h1.1v0.8H2.1v0.8h1.1v0.8H2.1v0.8h1.1v0.8H2.1v0.8h1.1v0.8H2.1v0.8h1.1v0.8H2.1
		v1.4c0,0.4,0.4,0.7,0.8,0.7h1.3v-1.1h0.8v1.1h0.8v-1.1h0.8v1.1h0.8v-1.1h0.8v1.1h0.8v-1.1h0.8v1.1h0.8v-1.1h0.8v1.1h1.8
		c0.4,0,0.6-0.3,0.6-0.7v-1.4h-1.1v-0.8h1.1v-0.8h-1.1V9.3h1.1V8.5h-1.1V7.7h1.1V6.9h-1.1V6.1h1.1V5.3h-1.1V4.5H13.9z M5.5,8.7
		c0.1,0.2,0.3,0.2,0.4,0.2c0.1,0,0.3,0,0.3-0.1s0.2-0.3,0.2-0.3h0.5c0,0.3-0.1,0.5-0.3,0.6C6.4,9.3,6.2,9.4,5.9,9.4
		C5.6,9.4,5.3,9.2,5.1,9C4.9,8.7,4.8,8.4,4.8,8c0-0.4,0.1-0.7,0.3-1s0.5-0.3,0.8-0.3c0.3,0,0.5,0,0.7,0.2C6.8,7,6.9,7.2,6.9,7.5H6.4
		c0,0-0.1-0.2-0.2-0.3C6.2,7.1,6.1,7.1,5.9,7.1c-0.2,0-0.3,0.1-0.4,0.2C5.4,7.5,5.3,7.7,5.3,8C5.3,8.3,5.4,8.5,5.5,8.7z M8.9,8.1
		C8.8,8.2,8.6,8.3,8.4,8.3H7.7v0.8H7.2V6.9h1.1c0.2,0,0.5,0,0.6,0.1s0.2,0.3,0.2,0.5C9.1,7.8,9,8,8.9,8.1z M11.2,8.4
		c0,0.3,0,0.5-0.2,0.7c-0.2,0.2-0.4,0.2-0.7,0.2S9.8,9.3,9.6,9.1C9.5,8.9,9.3,8.7,9.3,8.4V6.9h0.5v1.5c0,0.2,0.1,0.3,0.2,0.4
		c0.1,0.1,0.2,0.1,0.3,0.1c0.2,0,0.2-0.1,0.2-0.1c0.1-0.1,0-0.2,0-0.4V6.9h0.5L11.2,8.4L11.2,8.4z M8.2,7.2H7.7v0.5h0.5
		c0.1,0,0.2,0.1,0.2,0c0.1-0.1,0.1-0.1,0.1-0.2s0-0.2-0.1-0.2C8.5,7.2,8.4,7.2,8.2,7.2z"/>
</g>
</svg>
