<?xml version="1.0" encoding="utf-8"?>
<!-- Generator: Adobe Illustrator 18.1.0, SVG Export Plug-In . SVG Version: 6.00 Build 0)  -->
<svg version="1.1" id="图层_1" xmlns="http://www.w3.org/2000/svg" xmlns:xlink="http://www.w3.org/1999/xlink" x="0px" y="0px"
	 width="16px" height="16px" viewBox="0 0 16 16" style="enable-background:new 0 0 16 16;" xml:space="preserve">
<style type="text/css">
	.st0{fill:url(#SVGID_1_);}
</style>
<g>
	
		<linearGradient id="SVGID_1_" gradientUnits="userSpaceOnUse" x1="0" y1="-14" x2="60" y2="-14" gradientTransform="matrix(0.2667 0 0 -0.2667 0 4.2667)">
		<stop  offset="0" style="stop-color:#B9BBBD"/>
		<stop  offset="3.208770e-002" style="stop-color:#B6B8BA"/>
		<stop  offset="5.619587e-002" style="stop-color:#ADAEB1"/>
		<stop  offset="8.827712e-002" style="stop-color:#9D9EA1"/>
		<stop  offset="0.1241" style="stop-color:#C1C1C2"/>
		<stop  offset="0.1924" style="stop-color:#F0F0F0"/>
		<stop  offset="0.2083" style="stop-color:#FBFBFB"/>
		<stop  offset="0.2247" style="stop-color:#FFFFFF"/>
		<stop  offset="0.3015" style="stop-color:#EEEEEF"/>
		<stop  offset="0.3853" style="stop-color:#E3E3E4"/>
		<stop  offset="0.4775" style="stop-color:#DFE0E1"/>
		<stop  offset="0.7191" style="stop-color:#FFFFFF"/>
		<stop  offset="0.779" style="stop-color:#FDFDFD"/>
		<stop  offset="0.8065" style="stop-color:#F6F5F5"/>
		<stop  offset="0.8258" style="stop-color:#EBEAEA"/>
		<stop  offset="0.927" style="stop-color:#797A7D"/>
		<stop  offset="1" style="stop-color:#BEC0C1"/>
	</linearGradient>
	<path class="st0" d="M13.5,16h-11C1.1,16,0,14.9,0,13.5v-11C0,1.1,1.1,0,2.5,0h11C14.9,0,16,1.1,16,2.5v11C16,14.9,14.9,16,13.5,16
		z"/>
	<g>
		<path d="M9.9,7.7c-0.3,0-0.6,0-0.9,0C8,7.7,7,7.9,6.1,8.3C5.5,8.6,5,9,4.5,9.5c0,0-0.1,0.1-0.1,0.1c0-0.2-0.1-0.3-0.1-0.5
			c0,0,0,0,0-0.1c-0.1-0.2,0-0.3,0.1-0.4c0.5-0.5,1-0.9,1.7-1.1c0.6-0.2,1.2-0.3,1.9-0.2C8.7,7.3,9.2,7.5,9.9,7.7
			C9.8,7.7,9.8,7.7,9.9,7.7z"/>
		<path d="M4.3,8.4C4.2,8.2,4.2,8,4.1,7.8c0,0,0-0.1,0-0.1c0.6-0.6,1.3-0.9,2.1-1c0.5-0.1,1,0,1.5,0.1C8.1,6.9,8.4,7,8.8,7v0
			c-0.1,0-0.2,0-0.3,0C7.7,7,6.9,7.1,6.1,7.3c-0.5,0.2-1,0.5-1.5,0.8C4.5,8.2,4.4,8.3,4.3,8.4z"/>
		<path d="M2.7,11.1c0-0.2,0-0.5,0-0.7c0-0.1,0-0.1,0.1-0.1c0.1,0,0.3,0,0.4,0c0,0.5,0,1,0,1.4c-0.2,0-0.3,0-0.5,0
			c0,0-0.1,0-0.1-0.1C2.4,11.5,2.2,11.3,2,11c-0.1-0.1-0.1-0.2-0.2-0.2c0,0.3,0,0.6,0,1c-0.2,0-0.3,0-0.5,0c0-0.5,0-0.9,0-1.4
			c0.1,0,0.3,0,0.4,0c0.2,0,0.4,0.1,0.5,0.2C2.4,10.8,2.5,10.9,2.7,11.1C2.6,11.1,2.6,11.1,2.7,11.1z"/>
		<path d="M3.3,11.8c0-0.1,0-0.2,0-0.3s0.1-0.1,0.1-0.1c0.3,0,0.7,0,1.1,0c0.1,0,0.2-0.1,0.1-0.2c0,0-0.1,0-0.1,0
			c-0.2,0-0.5,0-0.7,0c-0.1,0-0.2,0-0.3,0c-0.2,0-0.2-0.1-0.2-0.2c0-0.1,0-0.2,0-0.3c0-0.1,0.1-0.2,0.2-0.2c0.1,0,0.2-0.1,0.3-0.1
			c0.4,0,0.8,0,1.2,0c0,0,0,0,0.1,0c0,0.1,0,0.2,0,0.3c-0.4,0-0.7,0-1.1,0c0,0.1,0,0.1,0,0.2c0,0,0.1,0,0.1,0c0.2,0,0.5,0,0.7,0
			c0,0,0.1,0,0.1,0c0.3,0,0.4,0.1,0.4,0.4c0,0.1,0,0.2,0,0.2c0,0.1-0.1,0.2-0.2,0.2c-0.1,0-0.1,0.1-0.2,0.1
			C4.3,11.8,3.8,11.8,3.3,11.8C3.4,11.8,3.4,11.8,3.3,11.8z"/>
		<path d="M13.4,10.9c0.1,0,0.2,0,0.2,0c0.2,0,0.5,0,0.7,0c0.2,0,0.3,0.1,0.3,0.3c0,0.1,0,0.2,0,0.3c0,0.1-0.1,0.2-0.2,0.2
			c-0.1,0-0.1,0.1-0.2,0.1c-0.5,0-1,0-1.4,0c0-0.1,0-0.2,0-0.3c0,0,0.1,0,0.1,0c0.3,0,0.7,0,1.1,0c0.1,0,0.1-0.1,0.1-0.1
			c0-0.1,0-0.1-0.1-0.1c-0.2,0-0.5,0-0.7,0c-0.1,0-0.2,0-0.2,0c-0.1,0-0.2-0.1-0.2-0.2c0-0.1,0-0.2,0-0.4c0-0.1,0.1-0.2,0.2-0.2
			c0.1,0,0.2-0.1,0.3-0.1c0.4,0,0.7,0,1.1,0c0.1,0,0.1,0,0.1,0.1c0,0.1,0,0.2,0,0.2c0,0-0.1,0-0.1,0c-0.3,0-0.6,0-0.9,0
			C13.4,10.7,13.4,10.7,13.4,10.9C13.4,10.8,13.4,10.9,13.4,10.9z"/>
		<path d="M7.9,11.8c-0.2,0-0.4,0-0.6,0c-0.2,0-0.3-0.2-0.3-0.4c0-0.2,0-0.5,0-0.7c0-0.2,0.1-0.3,0.3-0.3c0.1,0,0.1,0,0.2,0
			c0.3,0,0.6,0,0.8,0c0.1,0,0.2,0,0.2,0c0.1,0,0.2,0.1,0.2,0.3c0,0.3,0,0.6,0,0.8c0,0.2-0.2,0.3-0.4,0.3C8.3,11.8,8.1,11.8,7.9,11.8
			C7.9,11.8,7.9,11.8,7.9,11.8z M7.6,10.7c0,0.2,0,0.5,0,0.7c0,0,0.1,0.1,0.1,0.1c0.2,0,0.4,0,0.6,0c0.1,0,0.1,0,0.1-0.1
			c0-0.1,0-0.3,0-0.4c0-0.1,0-0.2,0-0.3C8.1,10.7,7.8,10.7,7.6,10.7z"/>
		<path d="M11.4,10.3c0,0.1,0,0.2,0,0.2c0,0.3,0,0.5,0,0.8c0,0.1,0,0.1,0.1,0.1c0.2,0,0.4,0,0.6,0c0.1,0,0.1,0,0.1-0.1
			c0-0.3,0-0.6,0-0.9c0-0.1,0-0.1,0.1-0.1c0.1,0,0.2,0,0.3,0c0.1,0,0.1,0,0.1,0.1c0,0.4,0,0.7,0,1.1c0,0.1-0.1,0.2-0.1,0.2
			c-0.1,0-0.2,0.1-0.2,0.1c-0.3,0-0.7,0-1,0c-0.1,0-0.2,0-0.2-0.1c-0.1-0.1-0.2-0.1-0.2-0.2c0-0.3,0-0.7,0-1.1c0,0,0-0.1,0.1-0.1
			C11.1,10.3,11.3,10.3,11.4,10.3z"/>
		<path d="M10.7,10.3c0,0.1,0,0.2,0,0.3c-0.4,0-0.8,0-1.2,0c0,0.1,0,0.1,0,0.1c0,0.2,0,0.4,0,0.6c0,0.1,0,0.1,0.1,0.1
			c0.3,0,0.6,0,1,0c0,0,0.1,0,0.1,0c0,0.1,0,0.2,0,0.3c0,0-0.1,0-0.1,0c-0.4,0-0.7,0-1.1,0c0,0-0.1,0-0.1,0C9.1,11.7,9,11.6,9,11.4
			c0-0.2,0-0.4,0-0.6c0-0.2,0.1-0.3,0.3-0.4c0.1,0,0.1,0,0.2,0c0.4,0,0.7,0,1.1,0C10.7,10.3,10.7,10.3,10.7,10.3z"/>
		<path d="M6.9,10.7c-0.3,0-0.7,0-1,0c0,0.1,0,0.2,0,0.2c0,0,0.1,0.1,0.1,0.1c0.3,0,0.6,0,0.8,0c0,0,0.1,0,0.1,0c0,0.1,0,0.1,0,0.2
			c0,0-0.1,0.1-0.1,0.1c-0.3,0-0.6,0-0.9,0c-0.1,0-0.1,0-0.1,0.1c0,0.2,0,0.3,0,0.5c-0.2,0-0.3,0-0.5,0c0-0.5,0-1,0-1.4
			c0,0,0.1,0,0.1,0c0.5,0,0.9,0,1.4,0c0.1,0,0.1,0,0.1,0.1C6.9,10.5,6.9,10.6,6.9,10.7z"/>
		<path d="M3.3,5.9C3.2,5.8,3.1,5.7,3.1,5.5c0,0,0-0.1,0-0.1c0.2-0.1,0.3-0.2,0.5-0.3C4.3,4.8,5,4.8,5.7,5c0.3,0.1,0.5,0.2,0.8,0.3
			c0,0,0.1,0,0.1,0.1C6.3,5.3,6.2,5.3,6,5.3c-0.4,0-0.7,0-1.1,0c-0.1,0-0.2,0-0.2-0.1c0,0-0.1-0.1-0.1-0.1h0c0,0.1,0,0.1,0,0.2
			c0,0,0,0.1-0.1,0.1C4.1,5.4,3.7,5.6,3.3,5.9C3.3,5.9,3.3,5.9,3.3,5.9z"/>
		<path d="M5.7,4.7c-0.3,0-0.6-0.1-0.9-0.1c-0.5,0-1,0.1-1.5,0.3C3.2,5.1,3.1,5.1,3,5.2c-0.1,0-0.1,0-0.1,0C2.9,5.1,2.8,5.1,2.8,5
			c0.1-0.2,0.3-0.3,0.5-0.4c0.4-0.2,0.8-0.3,1.3-0.2C4.9,4.5,5.3,4.6,5.7,4.7L5.7,4.7z"/>
		<path d="M5.3,6.1c0.9-0.2,1.7,0,2.5,0.3c0,0-0.1,0-0.1,0C7,6.4,6.3,6.4,5.7,6.6c-0.1,0-0.1,0-0.1-0.1C5.5,6.4,5.4,6.3,5.3,6.1z"/>
		<path d="M5.5,6.6C5,6.7,4.5,7.1,4,7.4C3.9,7.3,3.9,7.1,3.8,7c0,0,0-0.1,0-0.1C4,6.7,4.3,6.5,4.5,6.4c0,0.2,0,0.3,0,0.5
			c0,0,0.1-0.1,0.1-0.1c0.1-0.1,0.2-0.3,0.3-0.4c0-0.1,0.1-0.1,0.1,0C5.2,6.5,5.4,6.5,5.5,6.6z"/>
		<path d="M11.7,6.2c-0.1,0.3-0.2,0.5-0.3,0.7c-0.3,0.3-0.6,0.5-1,0.5c-0.4,0.1-0.8,0-1.2-0.2c0,0,0,0,0,0C10.1,7.3,11,7.1,11.7,6.2
			z"/>
		<path d="M10.6,5.2c0.2-0.1,0.3-0.1,0.4-0.1c0.1,0,0.1-0.1,0.1-0.1c0-0.1,0-0.2,0-0.4c0.1,0.1,0.1,0.2,0.2,0.2
			C11.4,5,11.4,5,11.6,4.9c0.1,0,0.2-0.1,0.3-0.1c-0.1,0.1-0.2,0.2-0.3,0.3c-0.1,0.1-0.1,0.1,0,0.2c0.1,0.1,0.1,0.2,0.2,0.3
			c-0.1-0.1-0.2-0.1-0.3-0.1c-0.1-0.1-0.1-0.1-0.2,0.1c-0.1,0.1-0.1,0.2-0.2,0.3c0-0.1,0-0.3,0-0.4c0-0.1,0-0.1-0.1-0.1
			C10.9,5.3,10.7,5.3,10.6,5.2z"/>
		<path d="M10.6,5.9c-0.2,0.4-0.5,0.7-0.9,0.9C9.3,6.9,8.8,6.9,8.4,6.7c-0.1,0-0.1,0-0.1-0.1c0,0,0,0,0,0C9.1,6.7,9.9,6.6,10.6,5.9z
			"/>
		<path d="M9.8,5.5C9.7,5.8,9.5,6.1,9.1,6.3C8.5,6.5,8,6.3,7.5,6.1c0.4,0.1,0.8,0.1,1.3,0C9.2,5.9,9.5,5.8,9.8,5.5z"/>
		<path d="M4.6,5.6c0,0.1,0,0.1-0.1,0.2C4.3,5.8,4.1,5.8,4,5.9c0,0-0.1,0-0.1,0v0C4.1,6,4.2,6.1,4.4,6.2C4.2,6.3,3.9,6.5,3.7,6.6
			C3.6,6.5,3.5,6.4,3.5,6.3c0,0,0-0.1,0.1-0.1c0.2-0.2,0.5-0.4,0.9-0.5C4.4,5.6,4.5,5.6,4.6,5.6z"/>
		<path d="M5.4,5.9c0.1-0.1,0.2-0.2,0.3-0.4c0,0,0.1,0,0.1,0c0.5,0.1,1,0.2,1.4,0.4c0,0,0,0,0,0C6.6,5.8,6,5.8,5.4,5.9
			C5.4,5.9,5.4,5.9,5.4,5.9z"/>
		<path d="M7,5.6c0.3,0.1,0.7,0,1.1-0.1C8.4,5.4,8.7,5.3,9,5c0,0,0,0.1-0.1,0.1C8.6,5.6,8.2,5.8,7.7,5.8C7.4,5.7,7.2,5.7,7,5.6
			C7,5.6,7,5.6,7,5.6z"/>
		<path d="M12.6,6.9c0-0.1,0-0.2,0-0.3c0-0.1,0-0.1-0.1-0.2c-0.1,0-0.2-0.1-0.3-0.1c0.1,0,0.2-0.1,0.3-0.1c0.1,0,0.1-0.1,0.1-0.1
			c0-0.1,0-0.2,0-0.2h0c0.1,0.1,0.1,0.1,0.1,0.2c0,0.1,0.1,0.1,0.1,0.1c0.1,0,0.2-0.1,0.3-0.1c-0.1,0.1-0.1,0.2-0.2,0.2
			c0,0.1-0.1,0.1,0,0.1c0.1,0.1,0.1,0.2,0.1,0.2c-0.1,0-0.2-0.1-0.2-0.1c-0.1,0-0.1,0-0.2,0.1C12.7,6.7,12.7,6.8,12.6,6.9z"/>
		<path d="M6.3,5.1c0.7,0.1,1.4,0,2-0.5C8.2,4.7,8.2,4.8,8.1,5c-0.3,0.3-0.6,0.4-1,0.3C6.8,5.3,6.6,5.2,6.3,5.1z"/>
		<path d="M7.6,4.2C7.5,4.7,6.5,5,6,4.6C6.6,4.7,7.1,4.6,7.6,4.2z"/>
		<path d="M4.9,5.5c0.2,0,0.3,0,0.5,0v0C5.3,5.5,5.2,5.6,5,5.6C5,5.6,4.9,5.5,4.9,5.5C4.9,5.5,4.9,5.5,4.9,5.5z"/>
	</g>
</g>
</svg>
