<?xml version="1.0" encoding="utf-8"?>
<!-- Generator: Adobe Illustrator 18.1.0, SVG Export Plug-In . SVG Version: 6.00 Build 0)  -->
<svg version="1.1" id="图层_1" xmlns="http://www.w3.org/2000/svg" xmlns:xlink="http://www.w3.org/1999/xlink" x="0px" y="0px"
	 width="16px" height="16px" viewBox="0 0 16 16" style="enable-background:new 0 0 16 16;" xml:space="preserve">
<style type="text/css">
	.st0{fill:url(#SVGID_1_);}
</style>
<linearGradient id="SVGID_1_" gradientUnits="userSpaceOnUse" x1="0" y1="-353.9981" x2="59.9997" y2="-353.9981" gradientTransform="matrix(0.2667 0 0 0.2667 0 102.4)">
	<stop  offset="0" style="stop-color:#B9BBBD"/>
	<stop  offset="3.208770e-002" style="stop-color:#B6B8BA"/>
	<stop  offset="5.619587e-002" style="stop-color:#ADAEB1"/>
	<stop  offset="8.827712e-002" style="stop-color:#9D9EA1"/>
	<stop  offset="0.1241" style="stop-color:#C1C1C2"/>
	<stop  offset="0.1924" style="stop-color:#F0F0F0"/>
	<stop  offset="0.2083" style="stop-color:#FBFBFB"/>
	<stop  offset="0.2247" style="stop-color:#FFFFFF"/>
	<stop  offset="0.3015" style="stop-color:#EEEEEF"/>
	<stop  offset="0.3853" style="stop-color:#E3E3E4"/>
	<stop  offset="0.4775" style="stop-color:#DFE0E1"/>
	<stop  offset="0.7191" style="stop-color:#FFFFFF"/>
	<stop  offset="0.779" style="stop-color:#FDFDFD"/>
	<stop  offset="0.8065" style="stop-color:#F6F5F5"/>
	<stop  offset="0.8258" style="stop-color:#EBEAEA"/>
	<stop  offset="0.927" style="stop-color:#797A7D"/>
	<stop  offset="1" style="stop-color:#BEC0C1"/>
</linearGradient>
<path class="st0" d="M13.5,16h-11C1.1,16,0,14.9,0,13.5v-11C0,1.1,1.1,0,2.5,0h11C14.9,0,16,1.1,16,2.5v11C16,14.9,14.9,16,13.5,16z
	"/>
<path d="M11.4,7.1c-0.2,0-0.4,0-0.3,0.2c0,0.5,0,1,0,1.5c0.5,0,0.9,0,1.4,0c0.1-0.1,0.3-0.4,0-0.3c-0.4,0-0.7,0-1.1,0
	C11.4,8.1,11.4,7.6,11.4,7.1L11.4,7.1z M7.4,7.2C7,7.8,6.7,8.3,6.3,8.9c0.2,0,0.4,0.1,0.4-0.1c0.1-0.1,0.1-0.4,0.3-0.4
	c0.2,0,0.4,0,0.6,0C7.7,8.3,8,8,7.7,8.1c-0.2,0-0.3,0-0.5,0c0.1-0.2,0.2-0.4,0.4-0.6C7.9,8,8.1,8.4,8.4,8.9c0.1,0,0.5,0.1,0.3-0.1
	c-0.3-0.5-0.7-1-1-1.5C7.6,7.1,7.5,7.1,7.4,7.2z M9.5,7.4c0.4,0,0.8,0,1.2,0c0.1-0.1,0.3-0.4,0-0.3c-0.5,0-1,0-1.5,0
	C8.4,7.4,8.5,8.7,9.3,8.9c0.5,0,0.9,0,1.4,0c0.1-0.1,0.3-0.4,0-0.3c-0.4,0-0.9,0-1.3,0C8.7,8.5,8.8,7.4,9.5,7.4L9.5,7.4z M3.3,7.1
	c-0.5,0-1,0-1.4,0C1,7.3,1,8.6,1.8,8.8c0.5,0.1,1,0,1.5,0c0.7,0,1-0.8,0.7-1.4C3.8,7.3,3.5,7.1,3.3,7.1L3.3,7.1z M3.3,8.6
	c-0.5,0-0.9,0-1.4,0C1.3,8.5,1.4,7.4,2,7.4c0.4,0,0.9,0,1.3,0C4,7.5,3.9,8.6,3.3,8.6z M12.9,8.1c0.5,0,1,0,1.5,0
	c0.1-0.1,0.3-0.4,0-0.3c-0.5,0-1,0-1.5,0c0-0.4,0.5-0.5,0.8-0.4c0.3,0,0.6,0,0.9,0c0.1-0.1,0.3-0.4,0-0.3c-0.5,0-1,0-1.5,0
	c-0.8,0.2-0.7,1.6,0.1,1.7c0.5,0,0.9,0,1.4,0c0.1-0.1,0.3-0.4,0-0.3c-0.4,0-0.9,0-1.3,0C13.1,8.6,13,8.4,12.9,8.1L12.9,8.1z
	 M5.7,8.2c0.7,0,0.6-1.2-0.1-1c-0.5,0-0.9,0-1.4,0c0,0.6,0,1.2,0,1.8c0.2,0,0.4,0.1,0.3-0.2c0-0.4,0-0.9,0-1.3c0.4,0,0.8,0,1.2,0
	C6.2,7.7,5.7,8,5.4,7.9c-0.2,0-0.4,0-0.6,0c0.3,0.3,0.7,0.7,1,1c0.1,0,0.5,0.1,0.4-0.1C6,8.6,5.7,8.4,5.5,8.2
	C5.6,8.2,5.6,8.2,5.7,8.2L5.7,8.2z"/>
</svg>
