<?xml version="1.0" encoding="utf-8"?>
<!-- Generator: Adobe Illustrator 18.1.0, SVG Export Plug-In . SVG Version: 6.00 Build 0)  -->
<svg version="1.1" id="图层_1" xmlns="http://www.w3.org/2000/svg" xmlns:xlink="http://www.w3.org/1999/xlink" x="0px" y="0px"
	 width="16px" height="16px" viewBox="0 0 16 16" style="enable-background:new 0 0 16 16;" xml:space="preserve">
<style type="text/css">
	.st0{fill:url(#SVGID_1_);}
	.st1{fill:url(#SVGID_2_);}
	.st2{fill:url(#SVGID_3_);}
	.st3{fill:url(#SVGID_4_);}
	.st4{fill:url(#SVGID_5_);}
	.st5{fill:url(#SVGID_6_);}
	.st6{fill:url(#SVGID_7_);}
	.st7{fill:url(#SVGID_8_);}
	.st8{fill:url(#SVGID_9_);}
	.st9{fill:url(#SVGID_10_);}
	.st10{fill:url(#SVGID_11_);}
</style>
<g>
	
		<linearGradient id="SVGID_1_" gradientUnits="userSpaceOnUse" x1="0" y1="-14" x2="60" y2="-14" gradientTransform="matrix(0.2667 0 0 -0.2667 0 4.2667)">
		<stop  offset="0" style="stop-color:#B9BBBD"/>
		<stop  offset="3.208770e-002" style="stop-color:#B6B8BA"/>
		<stop  offset="5.619587e-002" style="stop-color:#ADAEB1"/>
		<stop  offset="8.827712e-002" style="stop-color:#9D9EA1"/>
		<stop  offset="0.1241" style="stop-color:#C1C1C2"/>
		<stop  offset="0.1924" style="stop-color:#F0F0F0"/>
		<stop  offset="0.2083" style="stop-color:#FBFBFB"/>
		<stop  offset="0.2247" style="stop-color:#FFFFFF"/>
		<stop  offset="0.3015" style="stop-color:#EEEEEF"/>
		<stop  offset="0.3853" style="stop-color:#E3E3E4"/>
		<stop  offset="0.4775" style="stop-color:#DFE0E1"/>
		<stop  offset="0.7191" style="stop-color:#FFFFFF"/>
		<stop  offset="0.779" style="stop-color:#FDFDFD"/>
		<stop  offset="0.8065" style="stop-color:#F6F5F5"/>
		<stop  offset="0.8258" style="stop-color:#EBEAEA"/>
		<stop  offset="0.927" style="stop-color:#797A7D"/>
		<stop  offset="1" style="stop-color:#BEC0C1"/>
	</linearGradient>
	<path class="st0" d="M13.5,16h-11C1.1,16,0,14.9,0,13.5v-11C0,1.1,1.1,0,2.5,0h11C14.9,0,16,1.1,16,2.5v11C16,14.9,14.9,16,13.5,16
		z"/>
	<g>
		<g>
			
				<linearGradient id="SVGID_2_" gradientUnits="userSpaceOnUse" x1="19.2522" y1="-23.05" x2="25.5481" y2="-23.05" gradientTransform="matrix(0.2667 0 0 -0.2667 0 4.2667)">
				<stop  offset="0" style="stop-color:#050505"/>
				<stop  offset="1" style="stop-color:#1E1E21"/>
			</linearGradient>
			<path class="st1" d="M5.1,9.4h0.2h0.8c0.2,0,0.3,0.1,0.5,0.2C6.7,9.7,6.8,9.8,6.8,10c0,0.2-0.1,0.3-0.2,0.4c0,0-0.1,0.1-0.1,0.1
				c0,0,0.1,0,0.1,0c0.1,0.1,0.2,0.2,0.2,0.3v0.3c0,0.1,0,0.1,0,0.1c0,0,0,0.1,0.1,0.1v0.1H6.4c0,0,0-0.1,0-0.1s0-0.1,0-0.2v-0.2
				c0-0.1,0-0.2-0.1-0.2c-0.1,0-0.1-0.1-0.3-0.1H5.5v0.8H5.3H5.1L5.1,9.4L5.1,9.4z M5.5,10.3H6c0.1,0,0.2,0,0.2-0.1
				c0.1-0.1,0.1-0.1,0.1-0.2s0-0.2-0.1-0.2C6.2,9.8,6.1,9.8,6,9.8H5.5L5.5,10.3L5.5,10.3z"/>
			
				<linearGradient id="SVGID_3_" gradientUnits="userSpaceOnUse" x1="26.2279" y1="-23.05" x2="33.3676" y2="-23.05" gradientTransform="matrix(0.2667 0 0 -0.2667 0 4.2667)">
				<stop  offset="0" style="stop-color:#050505"/>
				<stop  offset="1" style="stop-color:#1E1E21"/>
			</linearGradient>
			<path class="st2" d="M7.7,9.4h0.2h0.2l0.7,2H8.7H8.5L8.3,11H7.6l-0.1,0.4H7.2H7L7.7,9.4z M7.7,10.7h0.5L7.9,9.9l0,0L7.7,10.7z"/>
			
				<linearGradient id="SVGID_4_" gradientUnits="userSpaceOnUse" x1="34.0426" y1="-23.1" x2="40.748" y2="-23.1" gradientTransform="matrix(0.2667 0 0 -0.2667 0 4.2667)">
				<stop  offset="0" style="stop-color:#050505"/>
				<stop  offset="1" style="stop-color:#1E1E21"/>
			</linearGradient>
			<path class="st3" d="M10.9,10.7c0,0.2-0.1,0.4-0.3,0.6c-0.2,0.1-0.3,0.2-0.6,0.2c-0.3,0-0.5-0.1-0.7-0.3
				c-0.2-0.2-0.2-0.5-0.2-0.8c0-0.3,0.1-0.6,0.2-0.8C9.5,9.5,9.7,9.4,10,9.4c0.2,0,0.4,0.1,0.6,0.2s0.2,0.3,0.3,0.5h-0.4
				c0-0.1-0.1-0.2-0.1-0.3c-0.1-0.1-0.2-0.1-0.3-0.1c-0.2,0-0.3,0.1-0.4,0.2c-0.1,0.1-0.1,0.3-0.1,0.5c0,0.2,0.1,0.4,0.1,0.5
				s0.2,0.2,0.4,0.2c0.1,0,0.2,0,0.3-0.1c0.1-0.1,0.1-0.2,0.1-0.3L10.9,10.7L10.9,10.7z"/>
		</g>
		<g>
			
				<linearGradient id="SVGID_5_" gradientUnits="userSpaceOnUse" x1="5" y1="-4.8278" x2="14.8496" y2="-4.8278" gradientTransform="matrix(0.2667 0 0 -0.2667 0 4.2667)">
				<stop  offset="0" style="stop-color:#050505"/>
				<stop  offset="1" style="stop-color:#1E1E21"/>
			</linearGradient>
			<path class="st4" d="M2.6,6.6c-0.2,0-0.3,0-0.5,0c-0.1,0-0.2,0-0.3-0.1C1.5,6.3,1.3,6,1.3,5.6c0-0.4,0.1-0.7,0.5-0.9
				C1.9,4.6,2,4.5,2.1,4.5c0.3,0,0.7,0,1,0s0.6,0.2,0.7,0.5C4,5.4,4,5.9,3.7,6.3C3.6,6.5,3.4,6.6,3.2,6.6C3,6.6,2.8,6.6,2.6,6.6
				L2.6,6.6z M2.6,4.9L2.6,4.9c-0.2,0-0.3,0-0.5,0C2.1,4.9,2,4.9,2,5C1.7,5.1,1.7,5.3,1.6,5.6c0,0.3,0.3,0.6,0.6,0.6
				c0.3,0,0.6,0,0.9,0c0,0,0.1,0,0.1,0c0.3-0.1,0.5-0.5,0.4-0.9C3.5,5.1,3.3,4.9,3.1,4.9C3,4.9,2.8,4.9,2.6,4.9z"/>
			
				<linearGradient id="SVGID_6_" gradientUnits="userSpaceOnUse" x1="45.7627" y1="-4.85" x2="53.1517" y2="-4.85" gradientTransform="matrix(0.2667 0 0 -0.2667 0 4.2667)">
				<stop  offset="0" style="stop-color:#050505"/>
				<stop  offset="1" style="stop-color:#1E1E21"/>
			</linearGradient>
			<path class="st5" d="M13.3,5.4c0.2,0,0.4,0,0.6,0c0.1,0,0.1,0,0.1,0.1c0,0,0,0.1,0,0.1c-0.1,0.2-0.2,0.2-0.3,0.2
				c-0.3,0-0.7,0-1,0c-0.1,0-0.2,0.1-0.1,0.2c0.1,0.2,0.3,0.3,0.5,0.3c0.3,0,0.7,0,1,0c0.1,0,0.1,0,0.1,0.1c0,0,0,0.1,0,0.1
				c-0.1,0.1-0.1,0.2-0.3,0.2c-0.3,0-0.6,0-0.8,0c-0.2,0-0.3-0.1-0.5-0.2c-0.3-0.2-0.5-0.9-0.3-1.2c0.1-0.1,0.1-0.2,0.2-0.3
				c0.1-0.2,0.3-0.3,0.6-0.3c0.3,0,0.7,0,1,0c0.1,0,0.2,0.1,0.1,0.2c-0.1,0.2-0.2,0.2-0.3,0.2c-0.3,0-0.5,0-0.8,0
				c-0.2,0-0.3,0.1-0.4,0.3c0,0.1,0,0.1,0.1,0.1C12.9,5.4,13.1,5.4,13.3,5.4L13.3,5.4z"/>
			
				<linearGradient id="SVGID_7_" gradientUnits="userSpaceOnUse" x1="15.4552" y1="-5" x2="22.8731" y2="-5" gradientTransform="matrix(0.2667 0 0 -0.2667 0 4.2667)">
				<stop  offset="0" style="stop-color:#050505"/>
				<stop  offset="1" style="stop-color:#1E1E21"/>
			</linearGradient>
			<path class="st6" d="M4.6,5.6C4.7,5.6,4.7,5.6,4.6,5.6c0.2,0,0.3,0,0.5,0s0.3,0,0.4,0c0.1,0,0.2-0.2,0.2-0.3C5.8,5.2,5.7,5,5.6,5
				c0,0-0.1,0-0.1,0c-0.3,0-0.6,0-0.9,0C4.5,4.9,4.5,5,4.5,5c0,0,0,0.1,0,0.1c0,0.4,0,0.8,0,1.3c0,0.1,0,0.2-0.1,0.2
				c-0.1,0-0.2,0-0.2,0c0,0,0-0.1,0-0.1c0-0.6,0-1.2,0-1.8c0-0.1,0.1-0.1,0.1-0.1c0.1,0,0.2,0,0.4,0c0.3,0,0.6,0,0.9,0
				C5.9,4.6,6,4.8,6.1,5c0.1,0.3,0,0.6-0.2,0.8C5.8,5.9,5.7,5.9,5.6,6c-0.1,0-0.1,0.1,0,0.2c0.1,0.1,0.2,0.2,0.3,0.4
				c0,0,0,0.1,0.1,0.1c0,0-0.1,0-0.1,0c0,0,0,0,0,0c-0.3,0-0.3,0-0.5-0.2C5.2,6.2,5,5.9,4.7,5.7C4.7,5.7,4.7,5.6,4.6,5.6z"/>
			
				<linearGradient id="SVGID_8_" gradientUnits="userSpaceOnUse" x1="22.9887" y1="-4.9059" x2="31.716" y2="-4.9059" gradientTransform="matrix(0.2667 0 0 -0.2667 0 4.2667)">
				<stop  offset="0" style="stop-color:#050505"/>
				<stop  offset="1" style="stop-color:#1E1E21"/>
			</linearGradient>
			<path class="st7" d="M8.3,6.6c-0.2,0-0.2,0-0.3-0.2C8,6.3,7.9,6.2,7.8,6.2c-0.2,0-0.3,0-0.5,0C7.1,6.3,7,6.2,7,6
				c0,0-0.1-0.1-0.1-0.1c0,0-0.1,0.1-0.1,0.1C6.7,6.2,6.6,6.3,6.5,6.5c0,0.1-0.1,0.1-0.2,0.1c-0.1,0-0.1,0-0.2,0c0,0-0.1,0-0.1,0
				c0,0,0-0.1,0-0.1C6.3,6.2,6.4,6,6.5,5.8C6.7,5.5,6.8,5.1,7,4.9C7,4.8,7,4.7,7.1,4.7c0.1-0.2,0.3-0.2,0.4,0
				c0.2,0.4,0.4,0.8,0.6,1.2c0.1,0.2,0.2,0.4,0.3,0.6c0,0,0,0.1,0,0.1C8.4,6.6,8.4,6.6,8.3,6.6C8.3,6.6,8.3,6.6,8.3,6.6z M6.9,5.9
				c0.2,0,0.5,0,0.7,0c0.1,0,0.1-0.1,0.1-0.1C7.6,5.5,7.5,5.3,7.4,5.1c0-0.1-0.1-0.1-0.1,0c0,0,0,0,0,0.1C7.1,5.4,7.1,5.5,7,5.7
				C6.9,5.7,6.9,5.8,6.9,5.9z"/>
			
				<linearGradient id="SVGID_9_" gradientUnits="userSpaceOnUse" x1="31.2078" y1="-4.85" x2="38.6182" y2="-4.85" gradientTransform="matrix(0.2667 0 0 -0.2667 0 4.2667)">
				<stop  offset="0" style="stop-color:#050505"/>
				<stop  offset="1" style="stop-color:#1E1E21"/>
			</linearGradient>
			<path class="st8" d="M9.6,4.5c0.2,0,0.3,0,0.5,0c0,0,0.1,0,0.1,0.1c0,0,0,0.1,0,0.1c0,0,0,0.1-0.1,0.1c-0.1,0.1-0.1,0.1-0.2,0.1
				c-0.3,0-0.6,0-0.8,0C9.1,4.9,9,5,9,5C8.7,5.2,8.6,5.4,8.7,5.8C8.8,6,9,6.2,9.3,6.2c0.3,0,0.6,0,1,0c0.1,0,0.1,0.1,0.1,0.1
				c0,0.1-0.1,0.1-0.1,0.2c0,0-0.1,0.1-0.1,0.1c-0.3,0-0.7,0-1,0c-0.2,0-0.4-0.2-0.5-0.4C8.4,6,8.3,5.8,8.3,5.5
				c0-0.3,0.2-0.6,0.4-0.8C8.9,4.6,9,4.6,9.1,4.6C9.3,4.5,9.5,4.5,9.6,4.5z"/>
			
				<linearGradient id="SVGID_10_" gradientUnits="userSpaceOnUse" x1="39.2454" y1="-4.8" x2="45.8992" y2="-4.8" gradientTransform="matrix(0.2667 0 0 -0.2667 0 4.2667)">
				<stop  offset="0" style="stop-color:#050505"/>
				<stop  offset="1" style="stop-color:#1E1E21"/>
			</linearGradient>
			<path class="st9" d="M10.5,5.5c0-0.3,0-0.5,0-0.8c0-0.1,0-0.2,0.1-0.2c0.2,0,0.2,0.1,0.2,0.2c0,0.4,0,0.9,0,1.3
				c0,0.1,0.1,0.2,0.2,0.2c0.4,0,0.8,0,1.1,0c0.1,0,0.1,0,0.1,0c0,0.1,0,0.1-0.1,0.1c0,0,0,0.1-0.1,0.1c0,0-0.1,0.1-0.1,0.1
				c-0.5,0-0.9,0-1.4,0c-0.1,0-0.2-0.1-0.2-0.2C10.5,6.1,10.5,5.8,10.5,5.5C10.5,5.5,10.5,5.5,10.5,5.5z"/>
			
				<linearGradient id="SVGID_11_" gradientUnits="userSpaceOnUse" x1="53.7458" y1="-1.85" x2="55" y2="-1.85" gradientTransform="matrix(0.2667 0 0 -0.2667 0 4.2667)">
				<stop  offset="0" style="stop-color:#050505"/>
				<stop  offset="1" style="stop-color:#1E1E21"/>
			</linearGradient>
			<path class="st10" d="M14.3,4.8c0-0.1,0.1-0.2,0.2-0.2c0.1,0,0.2,0.1,0.2,0.2S14.6,5,14.5,5C14.4,5,14.3,4.9,14.3,4.8z"/>
		</g>
	</g>
</g>
</svg>
