<?xml version="1.0" encoding="utf-8"?>
<!-- Generator: Adobe Illustrator 18.1.0, SVG Export Plug-In . SVG Version: 6.00 Build 0)  -->
<svg version="1.1" id="图层_1" xmlns="http://www.w3.org/2000/svg" xmlns:xlink="http://www.w3.org/1999/xlink" x="0px" y="0px"
	 width="16px" height="16px" viewBox="0 0 16 16" style="enable-background:new 0 0 16 16;" xml:space="preserve">
<style type="text/css">
	.st0{fill:url(#SVGID_1_);}
	.st1{fill:url(#SVGID_2_);}
	.st2{fill:url(#SVGID_3_);}
	.st3{fill:url(#SVGID_4_);}
</style>
<g>
	
		<linearGradient id="SVGID_1_" gradientUnits="userSpaceOnUse" x1="0" y1="-14" x2="60" y2="-14" gradientTransform="matrix(0.2667 0 0 -0.2667 0 4.2667)">
		<stop  offset="0" style="stop-color:#B9BBBD"/>
		<stop  offset="3.208770e-002" style="stop-color:#B6B8BA"/>
		<stop  offset="5.619587e-002" style="stop-color:#ADAEB1"/>
		<stop  offset="8.827712e-002" style="stop-color:#9D9EA1"/>
		<stop  offset="0.1241" style="stop-color:#C1C1C2"/>
		<stop  offset="0.1924" style="stop-color:#F0F0F0"/>
		<stop  offset="0.2083" style="stop-color:#FBFBFB"/>
		<stop  offset="0.2247" style="stop-color:#FFFFFF"/>
		<stop  offset="0.3015" style="stop-color:#EEEEEF"/>
		<stop  offset="0.3853" style="stop-color:#E3E3E4"/>
		<stop  offset="0.4775" style="stop-color:#DFE0E1"/>
		<stop  offset="0.7191" style="stop-color:#FFFFFF"/>
		<stop  offset="0.779" style="stop-color:#FDFDFD"/>
		<stop  offset="0.8065" style="stop-color:#F6F5F5"/>
		<stop  offset="0.8258" style="stop-color:#EBEAEA"/>
		<stop  offset="0.927" style="stop-color:#797A7D"/>
		<stop  offset="1" style="stop-color:#BEC0C1"/>
	</linearGradient>
	<path class="st0" d="M13.5,16h-11C1.1,16,0,14.9,0,13.5v-11C0,1.1,1.1,0,2.5,0h11C14.9,0,16,1.1,16,2.5v11C16,14.9,14.9,16,13.5,16
		z"/>
	<g>
		<g>
			
				<linearGradient id="SVGID_2_" gradientUnits="userSpaceOnUse" x1="10" y1="-14" x2="50" y2="-14" gradientTransform="matrix(0.2667 0 0 -0.2667 0 4.2667)">
				<stop  offset="0" style="stop-color:#050505"/>
				<stop  offset="1" style="stop-color:#1E1E21"/>
			</linearGradient>
			<path class="st1" d="M4.6,2.7c-1.1,0-1.9,0.9-1.9,1.9v0.7h0.8V4.6c0-0.6,0.5-1.1,1.1-1.1h0.7V2.7C5.3,2.7,4.6,2.7,4.6,2.7z
				 M2.7,7.7v0.5h0.8V7.7H2.7z M4.6,12.5c-0.6,0-1.1-0.5-1.1-1.1v-0.7H2.7v0.7c0,1.1,0.9,1.9,1.9,1.9h0.7v-0.8H4.6z M3.5,9.1H2.7
				v0.8h0.8V9.1z M2.7,6.1v0.8h0.8V6.1H2.7z M7.7,2.7v0.8h0.5V2.7H7.7z M7.7,12.5v0.8h0.5v-0.8H7.7z M11.4,2.7h-0.8v0.8h0.8
				c0.6,0,1.1,0.5,1.1,1.1v0.7h0.8V4.6C13.3,3.5,12.5,2.7,11.4,2.7z M12.5,7.7v0.5h0.8V7.7H12.5z M12.5,11.4c0,0.6-0.5,1.1-1.1,1.1
				h-0.8v0.8h0.8c1.1,0,1.9-0.9,1.9-1.9v-0.7h-0.8V11.4z M12.5,9.1v0.8h0.8V9.1H12.5z M12.5,6.1v0.8h0.8V6.1H12.5z M9.1,12.5v0.8
				h0.8v-0.8H9.1z M9.1,2.7v0.8h0.8V2.7H9.1z M6.1,12.5v0.8h0.8v-0.8H6.1z M6.1,2.7v0.8h0.8V2.7H6.1z"/>
		</g>
		<g>
			
				<linearGradient id="SVGID_3_" gradientUnits="userSpaceOnUse" x1="17" y1="-9.65" x2="43" y2="-9.65" gradientTransform="matrix(0.2667 0 0 -0.2667 0 4.2667)">
				<stop  offset="0" style="stop-color:#050505"/>
				<stop  offset="1" style="stop-color:#1E1E21"/>
			</linearGradient>
			<path class="st2" d="M11.5,4.5v4h-1.3c0-0.3,0-0.1-0.1-0.2c-0.1-0.4-0.2-1-0.8-1c-0.5,0-0.8,0.7-1.1,1.4C8.2,8.9,8.1,9,8.1,9.1
				C8,8.9,7.9,8.6,7.9,8.3c-0.1-1-0.3-2.1-1-2.1C6.4,6.2,6.2,7.1,6,7.9C6,8.1,5.9,8.3,5.9,8.5H4.5v-4H11.5z"/>
			
				<linearGradient id="SVGID_4_" gradientUnits="userSpaceOnUse" x1="17" y1="-18.1" x2="43" y2="-18.1" gradientTransform="matrix(0.2667 0 0 -0.2667 0 4.2667)">
				<stop  offset="0" style="stop-color:#050505"/>
				<stop  offset="1" style="stop-color:#1E1E21"/>
			</linearGradient>
			<path class="st3" d="M10,9.1h1.4v2.4H4.5V9.1H6c0.3,0,0.4-0.4,0.5-1C6.7,7.2,6.9,6.7,7,6.7c0.3,0,0.4,1.1,0.5,1.7
				c0.1,0.9,0.2,1.4,0.6,1.4c0.3,0,0.4-0.3,0.6-0.9c0.1-0.4,0.4-1.1,0.6-1.1c0.2,0,0.3,0.5,0.3,0.7C9.7,8.8,9.8,9.1,10,9.1z"/>
		</g>
	</g>
</g>
</svg>
