<?xml version="1.0" encoding="utf-8"?>
<!-- Generator: Adobe Illustrator 16.0.0, SVG Export Plug-In . SVG Version: 6.00 Build 0)  -->
<!DOCTYPE svg PUBLIC "-//W3C//DTD SVG 1.1//EN" "http://www.w3.org/Graphics/SVG/1.1/DTD/svg11.dtd">
<svg version="1.1" id="图层_1" xmlns="http://www.w3.org/2000/svg" xmlns:xlink="http://www.w3.org/1999/xlink" x="0px" y="0px"
	 width="60px" height="60px" viewBox="0 0 60 60" style="enable-background:new 0 0 60 60;" xml:space="preserve">
<style type="text/css">
<![CDATA[
	.st0{opacity:0;fill:#FFFFFF;}
	.st1{fill:url(#SVGID_1_);}
	.st2{fill:url(#SVGID_2_);}
	.st3{fill:url(#SVGID_3_);}
	.st4{fill:url(#SVGID_4_);}
	.st5{fill:url(#SVGID_5_);}
	.st6{fill:url(#SVGID_6_);}
	.st7{fill:url(#SVGID_7_);}
	.st8{fill:url(#SVGID_8_);}
	.st9{fill:url(#SVGID_9_);}
	.st10{fill:#FFFFFF;}
	.st11{fill:url(#SVGID_10_);}
	.st12{fill:url(#SVGID_11_);}
	.st13{fill:url(#SVGID_12_);}
	.st14{fill:url(#SVGID_13_);}
	.st15{fill:url(#SVGID_14_);}
	.st16{fill:url(#SVGID_15_);}
	.st17{fill:url(#SVGID_16_);}
	.st18{fill:url(#SVGID_17_);}
	.st19{fill:url(#SVGID_18_);}
	.st20{fill:url(#SVGID_19_);}
]]>
</style>
<rect class="st0" width="60" height="60"/>
<g>
	<path class="st10" d="M39,7.9c0,0,17.6,7.4,19.2,8.2c1.7,0.8,1.5,1.7,1.5,3.6c0,2,0.1,3-0.9,4c-1,1-28,28.3-29.5,29.2
		c-1.5,0.9-2.2,0.7-4.7-0.6C22.2,50.9,4.2,39.5,2.3,38c-2-1.5-3.7-5.8,0-8.6C6.1,26.7,30.7,9.5,33,8.1C35.2,6.6,36.2,6.5,39,7.9z"/>
	
		<linearGradient id="SVGID_1_" gradientUnits="userSpaceOnUse" x1="711.127" y1="139.6465" x2="598.8004" y2="177.8243" gradientTransform="matrix(-0.9787 -0.2051 -0.2051 0.9787 750.5887 30.7831)">
		<stop  offset="0" style="stop-color:#FFFFFF"/>
		<stop  offset="1" style="stop-color:#000000"/>
	</linearGradient>
	<path class="st1" d="M56.6,20.3c-3,3-22.8,21.5-25.6,24.2c-2.8,2.7-2.1,3.1-10.8-1.9c-8.7-5-12.4-6.9-16.1-9.3
		c-3.7-2.4-4.4-1.8-0.3-4.9c4.1-3.1,28.5-20,30.4-21.2c2-1.2,4.7,0.7,11.3,3.4c6.6,2.7,10.5,4.4,12.7,5.4
		C60.5,17.1,58.7,18.2,56.6,20.3z"/>
	
		<radialGradient id="SVGID_2_" cx="730.834" cy="223.7178" r="55.7693" gradientTransform="matrix(-0.9794 -0.2097 -0.1982 0.9668 767.2933 -65.0489)" gradientUnits="userSpaceOnUse">
		<stop  offset="0" style="stop-color:#FFFFFF"/>
		<stop  offset="3.884983e-002" style="stop-color:#FBFCF3"/>
		<stop  offset="0.1544" style="stop-color:#F1F5D4"/>
		<stop  offset="0.2528" style="stop-color:#EBF1C2"/>
		<stop  offset="0.3218" style="stop-color:#E9EFBB"/>
		<stop  offset="0.5743" style="stop-color:#ACD047"/>
		<stop  offset="0.8366" style="stop-color:#77BF44"/>
		<stop  offset="1" style="stop-color:#5CB647"/>
	</radialGradient>
	<path class="st2" d="M24.1,52.1C21,50.1,6.7,41.2,4,39.3c-2.7-1.9-3.6-2.9-3.9-4.8c-0.3-1.9,0.3-3.5,2.1-2.4
		c3,1.8,15.4,9.1,19.2,11.2c3.8,2.1,6.4,2.6,6.4,6.4C27.8,53.5,28.1,54.6,24.1,52.1z"/>
	
		<linearGradient id="SVGID_3_" gradientUnits="userSpaceOnUse" x1="684.5586" y1="173.6816" x2="717.1324" y2="47.7097" gradientTransform="matrix(-0.9787 -0.2051 -0.2051 0.9787 750.5887 30.7831)">
		<stop  offset="0" style="stop-color:#FFFFFF"/>
		<stop  offset="1" style="stop-color:#020202"/>
	</linearGradient>
	<path class="st3" d="M58.3,16.9c0,0,1.7-1,1.6,1.7c-0.1,2.7-0.1,2.2-0.3,3.7c-0.1,1.1-0.8,1.5-3,3.7c-2.2,2.2-21.8,21.7-24.5,24.4
		c-2.7,2.6-4.5,5.2-4.6,0.7c-0.1-4.5-0.3-4,1.7-5.7C31.2,43.5,58.7,16.4,58.3,16.9z"/>
	
		<radialGradient id="SVGID_4_" cx="733.1592" cy="227.1826" r="47.0969" gradientTransform="matrix(-0.9794 -0.2097 -0.1982 0.9668 767.2933 -65.0489)" gradientUnits="userSpaceOnUse">
		<stop  offset="0" style="stop-color:#FFFFFF"/>
		<stop  offset="3.884983e-002" style="stop-color:#FBFCF3"/>
		<stop  offset="0.1544" style="stop-color:#F1F5D4"/>
		<stop  offset="0.2528" style="stop-color:#EBF1C2"/>
		<stop  offset="0.3218" style="stop-color:#E9EFBB"/>
		<stop  offset="0.5743" style="stop-color:#ACD047"/>
		<stop  offset="0.8366" style="stop-color:#77BF44"/>
		<stop  offset="1" style="stop-color:#5CB647"/>
	</radialGradient>
	<path class="st4" d="M26.9,39.8C24.7,38.7,7.3,29.3,5.9,28.6c-1.4-0.6-2.2-0.1-2.2-0.1s-2,1.1-2.7,2.1c-0.7,1-1.1,2.6-1.1,2.6
		s0.5-1.8,1.7-1.4C2.8,32.1,18.8,42,22.4,44c2.7,1.5,5.2,2.8,5.1,6.3c-0.1,3.5-0.5,3.1-0.5,3.1s1.5,0.7,4.1-1.8
		c1.7-1.7,1.8-1.7,1.8-1.7s0.1-3.8-0.1-5.7C32.6,42.4,29.4,41.2,26.9,39.8z"/>
	
		<linearGradient id="SVGID_5_" gradientUnits="userSpaceOnUse" x1="751.7207" y1="148.998" x2="713.1474" y2="164.6478" gradientTransform="matrix(-0.9787 -0.2051 -0.2051 0.9787 750.5887 30.7831)">
		<stop  offset="0" style="stop-color:#CECBCB"/>
		<stop  offset="1" style="stop-color:#000000"/>
	</linearGradient>
	<path class="st5" d="M21.5,44.9c2.2,1.5,4.5,3,4.4,4.7c-0.1,1.6,1,3.2-5.9-1C13,44.4,8.6,41.5,5.5,39.3c-3.1-2.2-3.9-3.1-4-4.8
		C1.4,32.9,3,33.6,5.2,35S19.4,43.5,21.5,44.9z"/>
	
		<radialGradient id="SVGID_6_" cx="725.96" cy="225.0586" r="28.5543" gradientTransform="matrix(-0.9794 -0.2097 -0.1982 0.9668 767.2933 -65.0489)" gradientUnits="userSpaceOnUse">
		<stop  offset="0" style="stop-color:#F2F6E0"/>
		<stop  offset="1.941975e-002" style="stop-color:#EFF4DB"/>
		<stop  offset="0.1849" style="stop-color:#DBE9B0"/>
		<stop  offset="0.2692" style="stop-color:#D3E49F"/>
		<stop  offset="0.5769" style="stop-color:#B7D77B"/>
		<stop  offset="0.8681" style="stop-color:#7AB542"/>
		<stop  offset="1" style="stop-color:#6CAF44"/>
	</radialGradient>
	<path class="st6" d="M33.8,48.7c0,0-0.2-3.4-0.3-5.2c-0.1-1.9-1.4-2-3.7-3.2C27.6,38.9,8.2,28.7,6.8,28c-1.4-0.7-1.9-0.4-1.9-0.4
		l-1.1,0.9c0,0,1.3-0.2,2.7,0.6C7.9,30,25.4,39,28.2,40.7c2,1.1,4,1.9,4.1,3.4c0.2,2.6,0.5,5.8,0.5,5.8L33.8,48.7z"/>
	
		<radialGradient id="SVGID_7_" cx="705.373" cy="207.4756" r="20.232" gradientTransform="matrix(-0.9794 -0.2097 -0.1982 0.9668 767.2933 -65.0489)" gradientUnits="userSpaceOnUse">
		<stop  offset="0" style="stop-color:#F2F6E0"/>
		<stop  offset="1.941975e-002" style="stop-color:#EFF4DB"/>
		<stop  offset="0.1849" style="stop-color:#DBE9B0"/>
		<stop  offset="0.2692" style="stop-color:#D3E49F"/>
		<stop  offset="0.5769" style="stop-color:#B7D77B"/>
		<stop  offset="0.8681" style="stop-color:#7AB542"/>
		<stop  offset="1" style="stop-color:#6CAF44"/>
	</radialGradient>
	<path class="st7" d="M56,26.7c0,0,0.3-4.9,0.3-6c0-1.2-0.8-1.2-3-2.3c-2.2-1.1-19-8.4-20.4-9c-1.4-0.6-2,0.1-2,0.1s1.2-0.8,2.5-1.8
		c1.3-1,3.2-0.8,4.9-0.1c1.7,0.8,18.3,7.8,19.9,8.5c1.7,0.8,1.8,0.8,1.7,2.5c-0.1,1.7,0.3,3.8-1.5,5.6C56.7,25.9,56,26.7,56,26.7z"
		/>
	
		<radialGradient id="SVGID_8_" cx="692.4795" cy="230.1895" r="17.1221" gradientTransform="matrix(-0.9794 -0.2097 -0.1982 0.9668 767.2933 -65.0489)" gradientUnits="userSpaceOnUse">
		<stop  offset="0" style="stop-color:#F2F6E0"/>
		<stop  offset="1.941975e-002" style="stop-color:#EFF4DB"/>
		<stop  offset="0.1849" style="stop-color:#DBE9B0"/>
		<stop  offset="0.2692" style="stop-color:#D3E49F"/>
		<stop  offset="0.5769" style="stop-color:#B7D77B"/>
		<stop  offset="0.8681" style="stop-color:#7AB542"/>
		<stop  offset="1" style="stop-color:#6CAF44"/>
	</radialGradient>
	<path class="st8" d="M55,27.5c0,0,0.4-5.1,0.4-6.1c0-1-0.9-1.3-1.8-1.8c-0.9-0.5-19.3-9-20.6-9.5c-1.3-0.5-2.3-0.3-2.3-0.3L31,9.4
		c0,0,0.6-0.6,1.6-0.2c1,0.4,18.9,8.3,20.8,9.2c1.9,0.9,3.3,0.9,3.3,2.8c0.1,1.9-0.3,5.2-0.3,5.2L55,27.5z"/>
	
		<radialGradient id="SVGID_9_" cx="670.1318" cy="223.3984" r="123.2992" gradientTransform="matrix(-0.9794 -0.2097 -0.1982 0.9668 767.2933 -65.0489)" gradientUnits="userSpaceOnUse">
		<stop  offset="0" style="stop-color:#FFFFFF"/>
		<stop  offset="1" style="stop-color:#000000"/>
	</radialGradient>
	<path class="st9" d="M54,20L32.2,41.2c0,0,0.1,0.1,0.6,0.6c0.5,0.5,0.8,1.6,0.8,1.6l21.8-22c0,0-0.1-0.9-0.6-1.2
		C54.4,20,54,20,54,20z"/>
	
		<radialGradient id="SVGID_10_" cx="718.3574" cy="242.4531" r="218.547" gradientTransform="matrix(-0.9794 -0.2097 -0.1982 0.9668 767.2933 -65.0489)" gradientUnits="userSpaceOnUse">
		<stop  offset="0" style="stop-color:#FFFFFF"/>
		<stop  offset="1" style="stop-color:#000000"/>
	</radialGradient>
	<path class="st11" d="M30.6,9.8L4.9,27.6c0,0,0.7-0.2,1.1,0C6.3,27.8,6.8,28,6.8,28L32.2,10L30.6,9.8z"/>
	
		<radialGradient id="SVGID_11_" cx="700.7764" cy="204.8652" r="35.7383" gradientTransform="matrix(-0.9794 -0.2097 -0.1982 0.9668 767.2933 -65.0489)" gradientUnits="userSpaceOnUse">
		<stop  offset="0" style="stop-color:#FFFFFF"/>
		<stop  offset="3.884983e-002" style="stop-color:#FBFCF3"/>
		<stop  offset="0.1544" style="stop-color:#F1F5D4"/>
		<stop  offset="0.2528" style="stop-color:#EBF1C2"/>
		<stop  offset="0.3218" style="stop-color:#E9EFBB"/>
		<stop  offset="0.5743" style="stop-color:#ACD047"/>
		<stop  offset="0.8366" style="stop-color:#77BF44"/>
		<stop  offset="1" style="stop-color:#5CB647"/>
	</radialGradient>
	<path class="st12" d="M58.8,23.7c0,0,0.5-3.7,0.4-5c-0.1-1.3-0.3-1.6-2.2-2.5c-1.9-0.9-19-8.4-20.5-8.9c-1.5-0.5-3.2,0.2-3.2,0.2
		s2.1-1.9,4.8-0.8c2.7,1.1,19.1,8.1,20.5,8.8c1.4,0.6,1.4,1.2,1.2,3c-0.1,1.8-0.1,3-0.3,3.7C59.6,23,58.8,23.7,58.8,23.7z"/>
	
		<radialGradient id="SVGID_12_" cx="715.9863" cy="261.8887" r="36.908" gradientTransform="matrix(-0.9794 -0.2097 -0.1982 0.9668 767.2933 -65.0489)" gradientUnits="userSpaceOnUse">
		<stop  offset="0" style="stop-color:#FFFFFF"/>
		<stop  offset="3.884983e-002" style="stop-color:#FBFCF3"/>
		<stop  offset="0.1544" style="stop-color:#F1F5D4"/>
		<stop  offset="0.2528" style="stop-color:#EBF1C2"/>
		<stop  offset="0.3218" style="stop-color:#E9EFBB"/>
		<stop  offset="0.5743" style="stop-color:#ACD047"/>
		<stop  offset="0.8366" style="stop-color:#77BF44"/>
		<stop  offset="1" style="stop-color:#5CB647"/>
	</radialGradient>
	<path class="st13" d="M24.9,43.5C22.4,42,4.7,31.4,3.3,30.9C0.4,29.7,0,32.4,0,32.4s1.7-0.6,3,0.2C5,33.7,23.5,44.7,25.6,46
		c2,1.2,2,4.2,2,5c0,0.8-0.6,2.4-0.6,2.4s0.7,0.3,1.5,0c0.8-0.2,1.3-0.9,1.3-0.9s-0.2-3.5-0.5-5.2C29.1,46.1,25.9,44.1,24.9,43.5z"
		/>
	
		<linearGradient id="SVGID_13_" gradientUnits="userSpaceOnUse" x1="705.2441" y1="159.6924" x2="687.0958" y2="130.3092" gradientTransform="matrix(-0.9787 -0.2051 -0.2051 0.9787 750.5887 30.7831)">
		<stop  offset="0" style="stop-color:#FFFFFF"/>
		<stop  offset="1" style="stop-color:#020202"/>
	</linearGradient>
	<polygon class="st14" points="48.3,22.1 29.9,39.5 29.4,39.1 47.6,22 	"/>
	
		<linearGradient id="SVGID_14_" gradientUnits="userSpaceOnUse" x1="709.2119" y1="158.8076" x2="691.0628" y2="129.4233" gradientTransform="matrix(-0.9787 -0.2051 -0.2051 0.9787 750.5887 30.7831)">
		<stop  offset="0" style="stop-color:#FFFFFF"/>
		<stop  offset="1" style="stop-color:#020202"/>
	</linearGradient>
	<polygon class="st15" points="44.6,20.5 26.2,37.8 25.6,37.4 43.8,20.3 	"/>
	
		<linearGradient id="SVGID_15_" gradientUnits="userSpaceOnUse" x1="707.1611" y1="159.7275" x2="689.012" y2="130.3432" gradientTransform="matrix(-0.9787 -0.2051 -0.2051 0.9787 750.5887 30.7831)">
		<stop  offset="0" style="stop-color:#FFFFFF"/>
		<stop  offset="1" style="stop-color:#020202"/>
	</linearGradient>
	<polygon class="st16" points="46.4,21.8 28,39.1 27.5,38.8 45.7,21.6 	"/>
	
		<linearGradient id="SVGID_16_" gradientUnits="userSpaceOnUse" x1="675.4961" y1="352.5898" x2="642.6664" y2="381.9177" gradientTransform="matrix(-0.889 -0.458 -0.458 0.889 787.8168 3.1051)">
		<stop  offset="0" style="stop-color:#FFFFFF"/>
		<stop  offset="1" style="stop-color:#020202"/>
	</linearGradient>
	<path class="st17" d="M35.1,33.3c0.5,0.2,0.6,0.2,0.8-0.1l1-1.2c-0.4-0.2-0.8-0.2-1.2-0.1c-0.4,0.1-0.8,0.2-1.2,0.3
		c-0.4,0.1-0.8,0.1-1.2-0.2c-0.4-0.3-0.6-1,0.1-1.7c0.6-0.7,1.2-0.7,1.5-0.5C35,30,35,30.1,35,30.2c-0.1,0.1-0.2,0.2-0.4,0.1
		c-0.4-0.2-0.7-0.1-0.9,0.2c-0.3,0.3-0.3,0.7,0.1,1c0.3,0.3,0.7,0.3,1.2,0.1c0.7-0.2,1.4-0.3,2.6,0.3l0,0.1l-1.6,2L35,33.5
		L35.1,33.3z"/>
	
		<linearGradient id="SVGID_17_" gradientUnits="userSpaceOnUse" x1="676.6035" y1="353.7959" x2="643.7617" y2="383.1346" gradientTransform="matrix(-0.889 -0.458 -0.458 0.889 787.8168 3.1051)">
		<stop  offset="0" style="stop-color:#FFFFFF"/>
		<stop  offset="1" style="stop-color:#020202"/>
	</linearGradient>
	<path class="st18" d="M34,33.7c0.1-0.2,0.4-0.2,0.5,0c0.2,0.1,0.2,0.4,0.1,0.5c-0.1,0.2-0.4,0.2-0.5,0C33.9,34.1,33.9,33.8,34,33.7
		z"/>
	
		<linearGradient id="SVGID_18_" gradientUnits="userSpaceOnUse" x1="678.2637" y1="355.6045" x2="645.4056" y2="384.9577" gradientTransform="matrix(-0.889 -0.458 -0.458 0.889 787.8168 3.1051)">
		<stop  offset="0" style="stop-color:#FFFFFF"/>
		<stop  offset="1" style="stop-color:#020202"/>
	</linearGradient>
	<path class="st19" d="M32.6,33.8c-0.3,0-0.6,0.1-0.9,0.3c-0.4,0.5,0,1,0.4,1.3c0.3,0.2,0.5,0.4,0.8,0.4c0.3,0,0.5,0,0.6-0.2
		c0.1-0.2,0.2-0.3,0.1-0.5c0-0.2-0.1-0.4-0.2-0.5c-0.1-0.2,0-0.3,0-0.3c0.1-0.1,0.2-0.1,0.4,0c0.3,0.3,0.3,1-0.1,1.5
		c-0.5,0.6-1.3,0.9-2.1,0.2c-0.6-0.5-0.8-1.2-0.2-1.9c0.2-0.3,0.5-0.4,0.7-0.5l0,0l-1.1-0.6l-1.1,1.3L29.5,34l0.1-0.2
		c0.1,0,0.1,0,0.3-0.2l1-1.2l1.8,1.1L32.6,33.8z"/>
	
		<linearGradient id="SVGID_19_" gradientUnits="userSpaceOnUse" x1="680.5342" y1="358.1855" x2="647.7418" y2="387.4801" gradientTransform="matrix(-0.889 -0.458 -0.458 0.889 787.8168 3.1051)">
		<stop  offset="0" style="stop-color:#FFFFFF"/>
		<stop  offset="1" style="stop-color:#020202"/>
	</linearGradient>
	<path class="st20" d="M29.5,35.4c-0.3,0.1-0.7,0.1-1-0.2c-0.2-0.2-0.3-0.4-0.1-0.6c0.1-0.1,0.3-0.2,0.5,0C29,34.8,29,34.9,29,35
		c0,0-0.1,0.1-0.2,0.1c0.2,0.1,0.4,0.2,0.7,0.1L29.5,35.4z M28.9,36.1c-0.3,0.1-0.7,0.1-1-0.2c-0.2-0.2-0.3-0.4-0.1-0.6
		c0.1-0.1,0.3-0.2,0.5,0c0.2,0.1,0.1,0.3,0.1,0.4c0,0-0.1,0.1-0.2,0.1c0.2,0.1,0.4,0.2,0.7,0.1L28.9,36.1z"/>
</g>
</svg>
