<?xml version="1.0" encoding="utf-8"?>
<!-- Generator: Adobe Illustrator 18.1.0, SVG Export Plug-In . SVG Version: 6.00 Build 0)  -->
<svg version="1.1" id="图层_1" xmlns="http://www.w3.org/2000/svg" xmlns:xlink="http://www.w3.org/1999/xlink" x="0px" y="0px"
	 viewBox="0 0 60 60" enable-background="new 0 0 60 60" xml:space="preserve">
<g>
	<g>
		<g>
			<g opacity="0.47">
				<image overflow="visible" width="131" height="131" xlink:href="12915EC7.png"  transform="matrix(1 0 0 1 -35 -35)">
				</image>
			</g>
			<path fill="#8E9597" d="M43.2,0.2H15.1C6.8,0.2,0,7,0,15.3v28.2c0,8.3,6.8,15.1,15.1,15.1h28.2c8.3,0,15.1-6.8,15.1-15.1V15.3
				C58.3,7,51.5,0.2,43.2,0.2z"/>
			<linearGradient id="SVGID_1_" gradientUnits="userSpaceOnUse" x1="8.7377" y1="9.476" x2="52.2089" y2="51.8473">
				<stop  offset="0" style="stop-color:#ABB0B1"/>
				<stop  offset="0.1758" style="stop-color:#FDFDFF"/>
				<stop  offset="0.2267" style="stop-color:#EAEBED"/>
				<stop  offset="0.3756" style="stop-color:#B5BABB"/>
				<stop  offset="0.4485" style="stop-color:#A1A7A8"/>
				<stop  offset="0.5425" style="stop-color:#A6ACAD"/>
				<stop  offset="0.6592" style="stop-color:#B6BABA"/>
				<stop  offset="0.7874" style="stop-color:#CFD0CF"/>
				<stop  offset="0.8061" style="stop-color:#D3D4D3"/>
				<stop  offset="1" style="stop-color:#8F9697"/>
			</linearGradient>
			<path fill="url(#SVGID_1_)" d="M43.2,0.8H15.1c-8,0-14.5,6.5-14.5,14.5v28.2c0,8,6.5,14.5,14.5,14.5h28.2c8,0,14.5-6.5,14.5-14.5
				V15.3C57.7,7.3,51.2,0.8,43.2,0.8z"/>
			<linearGradient id="SVGID_2_" gradientUnits="userSpaceOnUse" x1="48.4005" y1="50.2199" x2="9.6642" y2="8.2683">
				<stop  offset="0" style="stop-color:#FDFDFF"/>
				<stop  offset="0.1151" style="stop-color:#E1E3E4"/>
				<stop  offset="0.2899" style="stop-color:#BEC1C2"/>
				<stop  offset="0.4665" style="stop-color:#A2A6A7"/>
				<stop  offset="0.6434" style="stop-color:#8E9394"/>
				<stop  offset="0.821" style="stop-color:#828889"/>
				<stop  offset="1" style="stop-color:#7E8485"/>
			</linearGradient>
			<path fill="url(#SVGID_2_)" d="M54.1,42.3c0,6.7-5.4,12-12,12H16.2c-6.7,0-12-5.4-12-12V16.5c0-6.7,5.4-12,12-12h25.8
				c6.7,0,12,5.4,12,12V42.3z"/>
			<linearGradient id="SVGID_3_" gradientUnits="userSpaceOnUse" x1="10.2921" y1="10.0974" x2="47.3613" y2="47.9848">
				<stop  offset="0" style="stop-color:#ABB0B1"/>
				<stop  offset="0.1758" style="stop-color:#FDFDFF"/>
				<stop  offset="0.2267" style="stop-color:#EAEBED"/>
				<stop  offset="0.3756" style="stop-color:#B5BABB"/>
				<stop  offset="0.4485" style="stop-color:#A1A7A8"/>
				<stop  offset="0.5425" style="stop-color:#A6ACAD"/>
				<stop  offset="0.6592" style="stop-color:#B6BABA"/>
				<stop  offset="0.7874" style="stop-color:#CFD0CF"/>
				<stop  offset="0.8061" style="stop-color:#D3D4D3"/>
				<stop  offset="1" style="stop-color:#8F9697"/>
			</linearGradient>
			<path fill="url(#SVGID_3_)" d="M53.8,42.1c0,6.6-5.3,11.9-11.9,11.9H16.4C9.9,54,4.5,48.7,4.5,42.1V16.6
				c0-6.6,5.3-11.9,11.9-11.9h25.5c6.6,0,11.9,5.3,11.9,11.9V42.1z"/>
			<path fill="#FFFFFF" d="M5.2,42.2L5.1,17.3c0-6.6,5-12,11.8-12l24.9-0.1c2.7,0,5,0.9,6.1,1.6c-1.1-1-3.7-1.8-6.3-1.8l-24.8,0
				c-6.4,0-11.9,5.4-11.9,11.8v24.9c0,4.4,2.4,8.3,6,10.3C7.5,50,5.2,46.4,5.2,42.2z"/>
			<path fill="#FFFFFF" d="M1,44L1,15.1C1,7.4,6.8,1.3,14.6,1.3l28.8-0.1c3.1,0,5.8,1,7.1,1.9C49.2,1.9,46.2,1,43.2,1L14.4,1
				C7,1,0.6,7.2,0.6,14.7v28.9c0,5.1,2.8,9.7,6.9,12C3.8,53.1,1,48.9,1,44z"/>
			<path fill="#EAE9E8" d="M57,14.7L57,43.4c0,7.7-5.8,13.8-13.6,13.8l-28.7,0.1c-3.1,0-5.8-1-7-1.9C9,56.6,12,57.6,15,57.6l28.6,0
				c7.4,0,13.7-6.2,13.7-13.6V15.1c0-5-2.7-9.6-6.9-11.9C54.2,5.6,57,9.8,57,14.7z"/>
			<path opacity="0.56" fill="#20181F" d="M53.1,16.6l0.1,24.9c0,6.6-5,12-11.8,12l-24.9,0.1c-2.7,0-5-0.9-6.1-1.6
				c1.1,1,3.7,1.8,6.3,1.8l24.8,0c6.4,0,11.9-5.4,11.9-11.8V17c0-4.4-2.4-8.3-6-10.3C50.8,8.7,53.1,12.4,53.1,16.6z"/>
		</g>
	</g>
	<g>
		<line fill="none" stroke="#FFFFFF" stroke-miterlimit="10" x1="30.5" y1="19.1" x2="30.5" y2="30.5"/>
		<path fill="#FFFFFF" d="M22.8,48h-6.9c-1.5,0-2.7-1.2-2.7-2.7v-6.9c0-1.5,1.2-2.7,2.7-2.7h6.9c1.5,0,2.7,1.2,2.7,2.7v6.9
			C25.5,46.8,24.3,48,22.8,48z"/>
		<path fill="#FFFFFF" d="M45.1,48h-6.9c-1.5,0-2.7-1.2-2.7-2.7v-6.9c0-1.5,1.2-2.7,2.7-2.7h6.9c1.5,0,2.7,1.2,2.7,2.7v6.9
			C47.8,46.8,46.6,48,45.1,48z"/>
		<polyline fill="none" stroke="#FFFFFF" stroke-miterlimit="10" points="19.3,35.7 19.3,30.5 41.7,30.5 41.7,35.7 		"/>
		<path fill="#FFFFFF" d="M33.9,25.3h-6.9c-1.5,0-2.7-1.2-2.7-2.7v-6.9c0-1.5,1.2-2.7,2.7-2.7h6.9c1.5,0,2.7,1.2,2.7,2.7v6.9
			C36.7,24.1,35.4,25.3,33.9,25.3z"/>
	</g>
	<g>
		<line fill="none" stroke="#231815" stroke-miterlimit="10" x1="29.5" y1="18.1" x2="29.5" y2="29.5"/>
		<path fill="#231815" d="M21.8,47h-6.9c-1.5,0-2.7-1.2-2.7-2.7v-6.9c0-1.5,1.2-2.7,2.7-2.7h6.9c1.5,0,2.7,1.2,2.7,2.7v6.9
			C24.5,45.8,23.3,47,21.8,47z"/>
		<path fill="#231815" d="M44.1,47h-6.9c-1.5,0-2.7-1.2-2.7-2.7v-6.9c0-1.5,1.2-2.7,2.7-2.7h6.9c1.5,0,2.7,1.2,2.7,2.7v6.9
			C46.8,45.8,45.6,47,44.1,47z"/>
		<polyline fill="none" stroke="#231815" stroke-miterlimit="10" points="18.3,34.7 18.3,29.5 40.7,29.5 40.7,34.7 		"/>
		<path fill="#231815" d="M32.9,24.3h-6.9c-1.5,0-2.7-1.2-2.7-2.7v-6.9c0-1.5,1.2-2.7,2.7-2.7h6.9c1.5,0,2.7,1.2,2.7,2.7v6.9
			C35.7,23.1,34.4,24.3,32.9,24.3z"/>
	</g>
	<polygon fill="#231815" points="41.7,29.5 41.2,29 40.9,29.7 41.4,29.8 	"/>
	<polygon fill="#FFFFFF" points="42.2,30 41.7,29.5 41.4,30.2 41.7,30.2 	"/>
	<g>
		<linearGradient id="SVGID_4_" gradientUnits="userSpaceOnUse" x1="29.5" y1="24.3189" x2="30.5" y2="24.3189">
			<stop  offset="0" style="stop-color:#949393"/>
			<stop  offset="0.2696" style="stop-color:#7C7C7D"/>
			<stop  offset="0.7478" style="stop-color:#56575B"/>
			<stop  offset="1" style="stop-color:#48494E"/>
		</linearGradient>
		<line fill="none" stroke="url(#SVGID_4_)" stroke-miterlimit="10" x1="30" y1="18.6" x2="30" y2="30"/>
		<linearGradient id="SVGID_5_" gradientUnits="userSpaceOnUse" x1="12.6812" y1="41.3789" x2="25.0146" y2="41.3789">
			<stop  offset="0" style="stop-color:#949393"/>
			<stop  offset="0.2696" style="stop-color:#7C7C7D"/>
			<stop  offset="0.7478" style="stop-color:#56575B"/>
			<stop  offset="1" style="stop-color:#48494E"/>
		</linearGradient>
		<path fill="url(#SVGID_5_)" d="M22.3,47.5h-6.9c-1.5,0-2.7-1.2-2.7-2.7v-6.9c0-1.5,1.2-2.7,2.7-2.7h6.9c1.5,0,2.7,1.2,2.7,2.7v6.9
			C25,46.3,23.8,47.5,22.3,47.5z"/>
		<linearGradient id="SVGID_6_" gradientUnits="userSpaceOnUse" x1="34.9854" y1="41.3789" x2="47.3188" y2="41.3789">
			<stop  offset="0" style="stop-color:#949393"/>
			<stop  offset="0.2696" style="stop-color:#7C7C7D"/>
			<stop  offset="0.7478" style="stop-color:#56575B"/>
			<stop  offset="1" style="stop-color:#48494E"/>
		</linearGradient>
		<path fill="url(#SVGID_6_)" d="M44.6,47.5h-6.9c-1.5,0-2.7-1.2-2.7-2.7v-6.9c0-1.5,1.2-2.7,2.7-2.7h6.9c1.5,0,2.7,1.2,2.7,2.7v6.9
			C47.3,46.3,46.1,47.5,44.6,47.5z"/>
		<linearGradient id="SVGID_7_" gradientUnits="userSpaceOnUse" x1="18.3479" y1="32.3645" x2="41.6521" y2="32.3645">
			<stop  offset="0" style="stop-color:#949393"/>
			<stop  offset="0.2696" style="stop-color:#7C7C7D"/>
			<stop  offset="0.7478" style="stop-color:#56575B"/>
			<stop  offset="1" style="stop-color:#48494E"/>
		</linearGradient>
		<polyline fill="none" stroke="url(#SVGID_7_)" stroke-miterlimit="10" points="18.8,35.2 18.8,30 41.2,30 41.2,35.2 		"/>
		<linearGradient id="SVGID_8_" gradientUnits="userSpaceOnUse" x1="23.8333" y1="18.6211" x2="36.1667" y2="18.6211">
			<stop  offset="0" style="stop-color:#949393"/>
			<stop  offset="0.2696" style="stop-color:#7C7C7D"/>
			<stop  offset="0.7478" style="stop-color:#56575B"/>
			<stop  offset="1" style="stop-color:#48494E"/>
		</linearGradient>
		<path fill="url(#SVGID_8_)" d="M33.4,24.8h-6.9c-1.5,0-2.7-1.2-2.7-2.7v-6.9c0-1.5,1.2-2.7,2.7-2.7h6.9c1.5,0,2.7,1.2,2.7,2.7v6.9
			C36.2,23.6,34.9,24.8,33.4,24.8z"/>
	</g>
</g>
</svg>
