<?xml version="1.0" encoding="utf-8"?>
<!-- Generator: Adobe Illustrator 18.1.0, SVG Export Plug-In . SVG Version: 6.00 Build 0)  -->
<svg version="1.1" id="图层_1" xmlns="http://www.w3.org/2000/svg" xmlns:xlink="http://www.w3.org/1999/xlink" x="0px" y="0px"
	 width="16px" height="16px" viewBox="0 0 16 16" style="enable-background:new 0 0 16 16;" xml:space="preserve">
<style type="text/css">
	.st0{fill:url(#SVGID_1_);}
	.st1{fill:url(#SVGID_2_);}
</style>
<g>
	
		<linearGradient id="SVGID_1_" gradientUnits="userSpaceOnUse" x1="0" y1="-14" x2="60" y2="-14" gradientTransform="matrix(0.2667 0 0 -0.2667 0 4.2667)">
		<stop  offset="0" style="stop-color:#B9BBBD"/>
		<stop  offset="3.208770e-002" style="stop-color:#B6B8BA"/>
		<stop  offset="5.619587e-002" style="stop-color:#ADAEB1"/>
		<stop  offset="8.827712e-002" style="stop-color:#9D9EA1"/>
		<stop  offset="0.1241" style="stop-color:#C1C1C2"/>
		<stop  offset="0.1924" style="stop-color:#F0F0F0"/>
		<stop  offset="0.2083" style="stop-color:#FBFBFB"/>
		<stop  offset="0.2247" style="stop-color:#FFFFFF"/>
		<stop  offset="0.3015" style="stop-color:#EEEEEF"/>
		<stop  offset="0.3853" style="stop-color:#E3E3E4"/>
		<stop  offset="0.4775" style="stop-color:#DFE0E1"/>
		<stop  offset="0.7191" style="stop-color:#FFFFFF"/>
		<stop  offset="0.779" style="stop-color:#FDFDFD"/>
		<stop  offset="0.8065" style="stop-color:#F6F5F5"/>
		<stop  offset="0.8258" style="stop-color:#EBEAEA"/>
		<stop  offset="0.927" style="stop-color:#797A7D"/>
		<stop  offset="1" style="stop-color:#BEC0C1"/>
	</linearGradient>
	<path class="st0" d="M13.5,16h-11C1.1,16,0,14.9,0,13.5v-11C0,1.1,1.1,0,2.5,0h11C14.9,0,16,1.1,16,2.5v11C16,14.9,14.9,16,13.5,16
		z"/>
	<g>
		
			<linearGradient id="SVGID_2_" gradientUnits="userSpaceOnUse" x1="10.2704" y1="-14.0249" x2="49.7296" y2="-14.0249" gradientTransform="matrix(0.2667 0 0 -0.2667 0 4.2667)">
			<stop  offset="0" style="stop-color:#050505"/>
			<stop  offset="1" style="stop-color:#1E1E21"/>
		</linearGradient>
		<path class="st1" d="M6.1,3.7l0.2-0.5c0.2-0.3,0.4-0.5,0.8-0.5c0.4,0.2,0.5,0.4,0.5,0.8L7.5,3.7h4.8c0.3,0,0.5,0.2,0.5,0.6
			c0,0.4-0.2,0.6-0.5,0.7H7.2L6.8,6.1h5.9c0.3,0,0.5,0.2,0.5,0.6c0,0.4-0.2,0.6-0.5,0.6H6.5L6.1,8.3C6.1,8.5,6.1,8.5,6.2,8.5h5.4
			c0.4,0,0.6,0.1,0.7,0.4c0.1,0.3,0.1,0.6-0.2,0.9c-0.5,0.5-1.3,1.2-2.3,1.9c0.2,0,0.5,0.1,0.9,0.2c0.3,0.1,0.5,0.2,0.6,0.2
			c0.5,0.2,0.7,0.4,0.6,0.9c-0.1,0.4-0.4,0.5-0.9,0.4c-2.3-0.6-4.2-1-5.5-1.3C5,12,4.9,11.7,4.9,11.3c0.1-0.3,0.3-0.5,0.8-0.5
			c0.2,0,0.6,0.1,1.2,0.2c0.7,0.1,1.1,0.2,1.2,0.2c0.8-0.5,1.4-0.9,1.7-1.2C9.9,10,9.9,9.9,9.9,9.8c0,0-0.1-0.1-0.2-0.1H5.3
			c-0.7,0-1-0.3-0.8-0.9L5,7.3H3.2c-0.3,0-0.5-0.2-0.5-0.6c0-0.4,0.2-0.6,0.5-0.6h2.2l0.3-1.1h-2c-0.3,0-0.5-0.2-0.5-0.7
			c0-0.4,0.2-0.6,0.5-0.6L6.1,3.7L6.1,3.7z"/>
	</g>
</g>
</svg>
