<?xml version="1.0" encoding="utf-8"?>
<!-- Generator: Adobe Illustrator 18.1.0, SVG Export Plug-In . SVG Version: 6.00 Build 0)  -->
<svg version="1.1" id="图层_1" xmlns="http://www.w3.org/2000/svg" xmlns:xlink="http://www.w3.org/1999/xlink" x="0px" y="0px"
	 width="16px" height="16px" viewBox="0 0 16 16" style="enable-background:new 0 0 16 16;" xml:space="preserve">
<style type="text/css">
	.st0{fill:url(#SVGID_1_);}
	.st1{fill:url(#SVGID_2_);}
	.st2{fill:url(#SVGID_3_);}
	.st3{fill:url(#SVGID_4_);}
	.st4{fill:url(#SVGID_5_);}
	.st5{fill:url(#SVGID_6_);}
	.st6{fill:url(#SVGID_7_);}
	.st7{fill:url(#SVGID_8_);}
	.st8{fill:#FFFFFF;}
	.st9{fill:url(#SVGID_9_);}
	.st10{fill:url(#SVGID_10_);}
</style>
<g>
	
		<linearGradient id="SVGID_1_" gradientUnits="userSpaceOnUse" x1="0" y1="-14" x2="60" y2="-14" gradientTransform="matrix(0.2667 0 0 -0.2667 0 4.2667)">
		<stop  offset="0" style="stop-color:#B9BBBD"/>
		<stop  offset="3.208770e-002" style="stop-color:#B6B8BA"/>
		<stop  offset="5.619587e-002" style="stop-color:#ADAEB1"/>
		<stop  offset="8.827712e-002" style="stop-color:#9D9EA1"/>
		<stop  offset="0.1241" style="stop-color:#C1C1C2"/>
		<stop  offset="0.1924" style="stop-color:#F0F0F0"/>
		<stop  offset="0.2083" style="stop-color:#FBFBFB"/>
		<stop  offset="0.2247" style="stop-color:#FFFFFF"/>
		<stop  offset="0.3015" style="stop-color:#EEEEEF"/>
		<stop  offset="0.3853" style="stop-color:#E3E3E4"/>
		<stop  offset="0.4775" style="stop-color:#DFE0E1"/>
		<stop  offset="0.7191" style="stop-color:#FFFFFF"/>
		<stop  offset="0.779" style="stop-color:#FDFDFD"/>
		<stop  offset="0.8065" style="stop-color:#F6F5F5"/>
		<stop  offset="0.8258" style="stop-color:#EBEAEA"/>
		<stop  offset="0.927" style="stop-color:#797A7D"/>
		<stop  offset="1" style="stop-color:#BEC0C1"/>
	</linearGradient>
	<path class="st0" d="M13.5,16h-11C1.1,16,0,14.9,0,13.5v-11C0,1.1,1.1,0,2.5,0h11C14.9,0,16,1.1,16,2.5v11C16,14.9,14.9,16,13.5,16
		z"/>
	<g>
		<g>
			
				<linearGradient id="SVGID_2_" gradientUnits="userSpaceOnUse" x1="19.0685" y1="-28.2" x2="25.8753" y2="-28.2" gradientTransform="matrix(0.2667 0 0 -0.2667 0 4.2667)">
				<stop  offset="0" style="stop-color:#050505"/>
				<stop  offset="1" style="stop-color:#1E1E21"/>
			</linearGradient>
			<path class="st1" d="M5.8,10.8H6h0.2l0.7,1.9H6.7H6.5l-0.1-0.4H5.6l-0.1,0.4H5.3H5.1L5.8,10.8z M5.7,12h0.5L6,11.3l0,0L5.7,12z"
				/>
			
				<linearGradient id="SVGID_3_" gradientUnits="userSpaceOnUse" x1="26.8404" y1="-28.2" x2="32.9212" y2="-28.2" gradientTransform="matrix(0.2667 0 0 -0.2667 0 4.2667)">
				<stop  offset="0" style="stop-color:#050505"/>
				<stop  offset="1" style="stop-color:#1E1E21"/>
			</linearGradient>
			<path class="st2" d="M7.1,10.8h0.2h0.6c0.3,0,0.5,0.1,0.6,0.2c0.1,0.2,0.2,0.4,0.2,0.7c0,0.3-0.1,0.6-0.2,0.7s-0.3,0.3-0.6,0.3
				H7.3H7.1V10.8z M7.5,12.4h0.3c0.2,0,0.3-0.1,0.4-0.2c0.1-0.1,0.1-0.3,0.1-0.5c0-0.2,0-0.3-0.1-0.5c-0.1-0.1-0.2-0.2-0.3-0.2H7.6
				L7.5,12.4L7.5,12.4z"/>
			
				<linearGradient id="SVGID_4_" gradientUnits="userSpaceOnUse" x1="33.9795" y1="-28.2" x2="40.9322" y2="-28.2" gradientTransform="matrix(0.2667 0 0 -0.2667 0 4.2667)">
				<stop  offset="0" style="stop-color:#050505"/>
				<stop  offset="1" style="stop-color:#1E1E21"/>
			</linearGradient>
			<path class="st3" d="M9.4,12.7H9.3H9.1v-1.9h0.3h0.3l0.3,1.5l0,0l0.3-1.5h0.3h0.3v1.9h-0.2h-0.2v-1.6l0,0l-0.3,1.6H10H9.8
				l-0.3-1.7l0,0L9.4,12.7L9.4,12.7z"/>
		</g>
		
			<linearGradient id="SVGID_5_" gradientUnits="userSpaceOnUse" x1="31.9973" y1="-11.1739" x2="50" y2="-11.1739" gradientTransform="matrix(0.2667 0 0 -0.2667 0 4.2667)">
			<stop  offset="0" style="stop-color:#050505"/>
			<stop  offset="1" style="stop-color:#1E1E21"/>
		</linearGradient>
		<path class="st4" d="M13,5.2c-0.3-0.1-0.6-0.1-1-0.1c-0.6,0.1-1.1,0.2-1.7,0.5c0.1,0.1,0.1,0.2,0.1,0.3c0.1,0.3,0.1,0.6,0.1,0.9
			c0,0.1,0,0.1,0,0.2c0,0.1,0,0.2-0.1,0.3c-0.1,0.4-0.2,0.7-0.5,1l0,0C9.9,8.4,9.9,8.5,9.9,8.5c-0.1,0-0.1,0.1-0.1,0.1l0,0
			c-0.1,0-0.1,0.1-0.1,0.1l0,0l0,0C9.3,9,9,9.2,8.7,9.3c0,0-0.1,0-0.1,0c0,0,0,0-0.1,0c0,0-0.1,0-0.1,0c0,0,0.1,0,0.1,0l0,0
			c0,0,0.1,0,0.1,0l0,0c0.1,0,0.1,0,0.1,0l0,0c0.1,0,0.2,0,0.2-0.1c0.8-0.2,1.5-0.6,2.1-1c0.7-0.4,1.3-0.9,1.8-1.6
			c0.2-0.2,0.3-0.5,0.4-0.8C13.4,5.6,13.3,5.3,13,5.2z"/>
		
			<linearGradient id="SVGID_6_" gradientUnits="userSpaceOnUse" x1="18.0916" y1="-9.0821" x2="39.5128" y2="-9.0821" gradientTransform="matrix(0.2667 0 0 -0.2667 0 4.2667)">
			<stop  offset="0" style="stop-color:#050505"/>
			<stop  offset="1" style="stop-color:#1E1E21"/>
		</linearGradient>
		<path class="st5" d="M10.5,6.9c0,0.1,0,0.1,0,0.2c0,0.1,0,0.2-0.1,0.3c-0.1,0.4-0.2,0.7-0.5,1C9.9,8.4,9.9,8.5,9.9,8.5
			c-0.1,0-0.1,0.1-0.1,0.1l0,0c-0.1,0-0.1,0.1-0.1,0.1C9.3,9,9.1,9.2,8.7,9.3c0,0-0.1,0-0.1,0c0,0,0,0-0.1,0c0,0-0.1,0-0.1,0
			C8.3,9.4,8.2,9.5,8,9.5C7.3,9.6,6.7,9.5,6.2,9.1C5.4,8.7,5,8,4.8,7.1c-0.1-0.7,0-1.4,0.4-2c0-0.1,0.1-0.1,0.1-0.1c0.5,0,1,0,1.4,0
			c0.1,0,0.2,0,0.2-0.1c0.1,0,0.1-0.1,0.1-0.1v0H5.4c0-0.1,0-0.1,0-0.1c0.6-0.7,1.4-1,2.3-1c0.8,0,1.4,0.3,2,0.9
			c0.2,0.2,0.4,0.5,0.5,0.7c0,0,0,0.1,0,0.1c0.1,0.1,0.1,0.2,0.1,0.3C10.5,6.2,10.5,6.5,10.5,6.9z"/>
		
			<linearGradient id="SVGID_7_" gradientUnits="userSpaceOnUse" x1="10" y1="-7.3" x2="16.3785" y2="-7.3" gradientTransform="matrix(0.2667 0 0 -0.2667 0 4.2667)">
			<stop  offset="0" style="stop-color:#050505"/>
			<stop  offset="1" style="stop-color:#1E1E21"/>
		</linearGradient>
		<path class="st6" d="M3.5,7.5C3.6,7.4,3.6,7.2,3.7,7C3.8,6.7,3.9,6.3,4,6c0-0.1,0-0.1-0.1-0.1C3.5,5.6,3.1,5.3,2.7,5
			c0,0,0,0-0.1-0.1c0,0,0.1,0,0.1,0c0.5,0,1,0,1.5,0c0.1,0,0.1,0,0.1,0.1c0,0.1-0.1,0.1-0.2,0.1c-0.3,0-0.6,0-0.8,0c0,0-0.1,0-0.1,0
			c0.1,0.1,0.2,0.2,0.4,0.3C3.8,5.5,4,5.7,4.2,5.8c0.1,0,0.1,0.1,0,0.1C4.1,6.3,3.9,6.8,3.8,7.3c0,0.1-0.1,0.1-0.1,0.2
			C3.7,7.5,3.6,7.5,3.5,7.5C3.5,7.5,3.5,7.5,3.5,7.5z"/>
		
			<linearGradient id="SVGID_8_" gradientUnits="userSpaceOnUse" x1="18.0765" y1="0.4" x2="20.4329" y2="0.4" gradientTransform="matrix(0.2667 0 0 -0.2667 0 4.2667)">
			<stop  offset="0" style="stop-color:#050505"/>
			<stop  offset="1" style="stop-color:#1E1E21"/>
		</linearGradient>
		<path class="st7" d="M4.9,3.3C5,3.5,5.1,3.8,5.2,4c0.1,0.3,0.2,0.5,0.3,0.8c0,0.1,0,0.1,0,0.2c0,0-0.1,0.1-0.1,0.1
			C5.3,5.1,5.3,5,5.3,4.9C5.1,4.5,5,4.1,4.9,3.6c0-0.1,0-0.1,0-0.1C4.9,3.4,4.9,3.3,4.9,3.3L4.9,3.3z"/>
		<g>
			<path class="st8" d="M5.9,7C5.8,6.7,5.7,6.4,5.7,6.1c0-0.1,0-0.1,0.1-0.1C5.8,5.9,5.8,5.9,5.9,6c0.2,0.5,0.3,1,0.5,1.4
				c0,0,0,0.1,0,0.1c0,0-0.1,0-0.1,0C5.9,7.2,5.4,6.9,5,6.6c-0.1,0-0.1-0.1,0-0.1c0.2-0.1,0.2-0.1,0.3,0C5.5,6.6,5.7,6.8,5.9,7
				C5.9,7,5.9,7,5.9,7C5.9,7,5.9,7,5.9,7z"/>
			<path class="st8" d="M6.9,5.5c0-0.1,0.1-0.1,0.1-0.2c0.1-0.1,0.2-0.1,0.3,0c0.1,0.1,0.1,0.3,0.2,0.4c0,0.1,0,0.2,0.1,0.1
				c0,0,0,0,0,0C7.5,5.9,7.4,6,7.3,6.1h0c0,0,0,0,0,0c0.1-0.1,0.1-0.1,0-0.2C7.2,5.7,7.2,5.6,7.1,5.5c0-0.1,0-0.1-0.1-0.1
				C7,5.4,7,5.4,6.9,5.5c0,0.1,0,0.1,0.1,0.2C7,5.8,7,5.9,7.1,6.1c0,0.1,0.1,0.1,0.1,0.1h0v0C7.1,6.2,7,6.3,6.9,6.3h0c0,0,0,0,0,0
				C7,6.3,7,6.2,6.9,6.2C6.9,6,6.8,5.9,6.8,5.7c0-0.1-0.1-0.1-0.1,0c0,0,0,0,0,0v0c0.1-0.1,0.1-0.1,0.1-0.2C6.8,5.4,6.8,5.5,6.9,5.5
				C6.9,5.5,6.9,5.5,6.9,5.5z"/>
			<path class="st8" d="M8,5.4c0,0.1,0,0.1-0.1,0.2c-0.1,0.1-0.2,0.1-0.3,0C7.6,5.5,7.5,5.3,7.5,5.2c0-0.1,0-0.2-0.1-0.1h0v0
				C7.4,5,7.5,5,7.5,5c0,0,0.1,0,0.1,0.1c0.1,0.1,0.1,0.3,0.2,0.4c0,0.1,0,0.1,0.1,0.1C7.9,5.6,7.9,5.5,8,5.4c0,0,0-0.1,0-0.2
				C7.9,5.1,7.9,5,7.8,4.9c0-0.1-0.1-0.1-0.1-0.1h0c0,0,0,0,0,0c0.1-0.1,0.1-0.1,0.2-0.1c0.1,0,0.1,0,0.1,0C8,4.9,8,5,8.1,5.2
				c0,0,0,0.1,0,0.1c0,0.1,0.1,0.1,0.1,0c0,0,0,0,0,0v0C8.2,5.4,8.1,5.5,8.1,5.5C8,5.6,8,5.5,8,5.4C8,5.4,8,5.4,8,5.4z"/>
			<path class="st8" d="M6.7,6.2C6.7,6.2,6.7,6.1,6.7,6.2C6.6,6.1,6.7,6.2,6.7,6.2C6.7,6.2,6.7,6.2,6.7,6.2C6.6,6.3,6.6,6.5,6.5,6.5
				c-0.1,0-0.2,0-0.2-0.1c0-0.1,0-0.1,0-0.1C6.4,6.1,6.5,6.1,6.6,6c0,0,0.1,0,0-0.1c0-0.1-0.2-0.2-0.3-0.1c-0.1,0-0.1,0.1-0.2,0.1
				C6,6.1,6.1,6.4,6.2,6.6c0.1,0.1,0.2,0.1,0.3,0C6.7,6.5,6.7,6.4,6.7,6.2C6.7,6.2,6.7,6.2,6.7,6.2z M6.2,6.2
				C6.2,6.1,6.2,6.1,6.2,6.2c0-0.2,0-0.2,0.1-0.3c0.1-0.1,0.1-0.1,0.2,0c0,0.1,0.1,0.1,0,0.1c-0.1,0-0.1,0.1-0.1,0.1
				C6.3,6.1,6.2,6.2,6.2,6.2z"/>
			<path class="st8" d="M8.5,4.8c-0.1,0-0.1,0-0.2,0c-0.1,0-0.1,0-0.1-0.1c-0.1-0.2,0-0.3,0.2-0.4c0,0,0.1,0,0.1-0.1
				c0-0.1,0.1-0.1,0.1,0s0.1,0.1,0.1,0.2c0,0,0,0,0,0.1s0,0-0.1,0c-0.1-0.1-0.2-0.1-0.3,0c-0.1,0.1,0,0.2,0.1,0.2c0.1,0,0.1,0,0.1,0
				c0.2,0,0.3,0.1,0.2,0.3c0,0.1-0.1,0.2-0.2,0.3c-0.1,0-0.1,0-0.1,0.1c0,0,0,0-0.1,0c0-0.1-0.1-0.1-0.1-0.2c0,0,0,0,0-0.1
				c0,0,0,0,0.1,0s0,0,0.1,0.1c0.1,0.1,0.1,0.1,0.2,0C8.6,5,8.6,4.9,8.6,4.9C8.6,4.8,8.5,4.8,8.5,4.8z"/>
		</g>
		
			<linearGradient id="SVGID_9_" gradientUnits="userSpaceOnUse" x1="29.9682" y1="-4.3" x2="30.0946" y2="-4.3" gradientTransform="matrix(0.2667 0 0 -0.2667 0 4.2667)">
			<stop  offset="0" style="stop-color:#050505"/>
			<stop  offset="1" style="stop-color:#1E1E21"/>
		</linearGradient>
		<path class="st9" d="M8,5.4L8,5.4C8,5.4,8,5.4,8,5.4C8,5.4,8,5.4,8,5.4z"/>
		
			<linearGradient id="SVGID_10_" gradientUnits="userSpaceOnUse" x1="25.6535" y1="-4.6" x2="25.7735" y2="-4.6" gradientTransform="matrix(0.2667 0 0 -0.2667 0 4.2667)">
			<stop  offset="0" style="stop-color:#050505"/>
			<stop  offset="1" style="stop-color:#1E1E21"/>
		</linearGradient>
		<path class="st10" d="M6.9,5.5L6.9,5.5C6.9,5.5,6.9,5.5,6.9,5.5C6.9,5.5,6.9,5.5,6.9,5.5z"/>
	</g>
</g>
</svg>
