<?xml version="1.0" encoding="utf-8"?>
<!-- Generator: Adobe Illustrator 16.0.0, SVG Export Plug-In . SVG Version: 6.00 Build 0)  -->
<!DOCTYPE svg PUBLIC "-//W3C//DTD SVG 1.1//EN" "http://www.w3.org/Graphics/SVG/1.1/DTD/svg11.dtd">
<svg version="1.1" id="图层_1" xmlns="http://www.w3.org/2000/svg" xmlns:xlink="http://www.w3.org/1999/xlink" x="0px" y="0px"
	 width="100px" height="100px" viewBox="0 0 100 100" style="enable-background:new 0 0 100 100;" xml:space="preserve">
<style type="text/css">
<![CDATA[
	.st0{opacity:0;fill:#FFFFFF;}
	.st1{fill:url(#SVGID_1_);}
	.st2{fill:url(#SVGID_2_);}
	.st3{fill:url(#SVGID_3_);}
]]>
</style>
<rect class="st0" width="100" height="100"/>
<g>
	<linearGradient id="SVGID_1_" gradientUnits="userSpaceOnUse" x1="50.0005" y1="100" x2="50.0005" y2="4.882813e-004">
		<stop  offset="0" style="stop-color:#64ED33"/>
		<stop  offset="1" style="stop-color:#DBF9F3"/>
	</linearGradient>
	<path class="st1" d="M90.9,81.8c0,0,9.1,0,9.1-9.1V9.1C100,0,90.9,0,90.9,0H9.1C9.1,0,0,0,0,9.1v63.6c0,9.1,9.1,9.1,9.1,9.1h26.4
		v9.1l-8.2,9.1h45.5l-10-9.1v-9.1H90.9z M9.1,63.6c0,0-4.5,0-4.5-4.7V9.3c0-4.7,4.5-4.7,4.5-4.7h81.8c0,0,4.5,0,4.5,4.7v49.6
		c0,4.7-4.5,4.7-4.5,4.7H9.1z"/>
	<g>
		<linearGradient id="SVGID_2_" gradientUnits="userSpaceOnUse" x1="34.9731" y1="50" x2="34.9731" y2="20.4824">
			<stop  offset="0" style="stop-color:#64ED33"/>
			<stop  offset="1" style="stop-color:#DBF9F3"/>
		</linearGradient>
		<path class="st2" d="M47,25.8v18.8c-0.1,3.6-1.9,5.4-5.4,5.4H28.3c-3.6,0-5.4-1.8-5.4-5.4V25.8c0-3.5,1.8-5.2,5.4-5.4h13.4
			C45.1,20.6,46.9,22.4,47,25.8z M26.3,23v24.5c0,1,0.5,1.4,1.6,1.3h14c1.1,0.1,1.6-0.3,1.6-1.3V23c0-0.8-0.5-1.3-1.6-1.3h-14
			C26.8,21.7,26.3,22.2,26.3,23z"/>
		<linearGradient id="SVGID_3_" gradientUnits="userSpaceOnUse" x1="63.2383" y1="50.0229" x2="63.2383" y2="20.4824">
			<stop  offset="0" style="stop-color:#64ED33"/>
			<stop  offset="1" style="stop-color:#DBF9F3"/>
		</linearGradient>
		<path class="st3" d="M56.9,40.7l-2,5.4c-0.8,2.7-2.8,4.1-5.9,3.9c1.4-1.9,2.4-3.8,3-5.7l8.6-23.8h5.2l8.6,24
			c1.2,2.7,2.2,4.6,3,5.5c-3.9,0.2-6.2-1.4-6.8-4.8l-1.4-4.5H56.9z M68.7,39.4l-5.4-16.3l-5.9,16.3H68.7z"/>
	</g>
</g>
</svg>
