<?xml version="1.0" encoding="utf-8"?>
<!-- Generator: Adobe Illustrator 16.0.0, SVG Export Plug-In . SVG Version: 6.00 Build 0)  -->
<!DOCTYPE svg PUBLIC "-//W3C//DTD SVG 1.1//EN" "http://www.w3.org/Graphics/SVG/1.1/DTD/svg11.dtd">
<svg version="1.1" id="图层_1" xmlns="http://www.w3.org/2000/svg" xmlns:xlink="http://www.w3.org/1999/xlink" x="0px" y="0px"
	 width="100px" height="100px" viewBox="0 0 100 100" style="enable-background:new 0 0 100 100;" xml:space="preserve">
<style type="text/css">
<![CDATA[
	.st0{opacity:0;fill:#FFFFFF;}
	.st1{fill:url(#SVGID_1_);}
	.st2{fill:url(#SVGID_2_);}
]]>
</style>
<rect class="st0" width="100" height="100"/>
<g>
	<linearGradient id="SVGID_1_" gradientUnits="userSpaceOnUse" x1="50.0005" y1="100" x2="50.0005" y2="4.882813e-004">
		<stop  offset="0" style="stop-color:#64ED33"/>
		<stop  offset="1" style="stop-color:#DBF9F3"/>
	</linearGradient>
	<path class="st1" d="M50,0c13,0,24.3,4.4,33.9,13.2c9.6,8.8,14.9,19.6,15.9,32.5h-6.3c-0.7-7.7-3.2-14.6-7.7-20.9
		s-10.2-11-17.1-14.3L63.1,16L47.3,0.2L50,0z M31.3,89.5l5.7-5.5l15.8,15.8L50,100c-13,0-24.3-4.4-33.9-13.3
		C6.5,77.9,1.2,67,0.2,54.1h6.3c0.8,7.8,3.4,14.8,7.8,21.1C18.7,81.4,24.3,86.2,31.3,89.5L31.3,89.5z"/>
	<linearGradient id="SVGID_2_" gradientUnits="userSpaceOnUse" x1="50.0005" y1="75.8359" x2="50.0005" y2="24.1646">
		<stop  offset="0" style="stop-color:#64ED33"/>
		<stop  offset="1" style="stop-color:#DBF9F3"/>
	</linearGradient>
	<path class="st2" d="M34.5,29.3c0,2.9,1.2,5.2,2.6,5.2c1.4,0,2.6-2.3,2.6-5.2c0-2.9-1.2-5.2-2.6-5.2C35.7,24.2,34.5,26.5,34.5,29.3
		z M31.9,29.3h-7.7c-1.5,0-2.6,1.1-2.6,2.6v41.4c0,1.4,1.2,2.6,2.6,2.6h51.7c1.5,0,2.6-1.1,2.6-2.6V31.9c0-1.4-1.2-2.6-2.6-2.6h-7.7
		c0,4.3-2.3,7.8-5.2,7.8c-2.9,0-5.2-3.5-5.2-7.8h-2.6c0,4.3-2.3,7.8-5.2,7.8c-2.9,0-5.2-3.5-5.2-7.8h-2.6c0,4.3-2.3,7.8-5.2,7.8
		C34.2,37.1,31.9,33.6,31.9,29.3z M34.5,42.8c0-0.3,0.3-0.5,0.6-0.5h29.9c0.3,0,0.6,0.2,0.6,0.5v1.6c0,0.3-0.3,0.5-0.6,0.5H35.1
		c-0.3,0-0.6-0.2-0.6-0.5V42.8z M34.5,53.1c0-0.3,0.3-0.5,0.6-0.5h29.9c0.3,0,0.6,0.2,0.6,0.5v1.5c0,0.3-0.3,0.5-0.6,0.5H35.1
		c-0.3,0-0.6-0.2-0.6-0.5V53.1z M34.5,63.4c0-0.3,0.3-0.5,0.6-0.5h29.9c0.3,0,0.6,0.2,0.6,0.5V65c0,0.3-0.3,0.5-0.6,0.5H35.1
		c-0.3,0-0.6-0.2-0.6-0.5V63.4z M60.3,29.3c0,2.9,1.2,5.2,2.6,5.2c1.4,0,2.6-2.3,2.6-5.2c0-2.9-1.2-5.2-2.6-5.2
		C61.5,24.2,60.3,26.5,60.3,29.3z M47.4,29.3c0,2.9,1.2,5.2,2.6,5.2s2.6-2.3,2.6-5.2c0-2.9-1.2-5.2-2.6-5.2S47.4,26.5,47.4,29.3z"/>
</g>
</svg>
