<?xml version="1.0" encoding="utf-8"?>
<!-- Generator: Adobe Illustrator 16.0.0, SVG Export Plug-In . SVG Version: 6.00 Build 0)  -->
<!DOCTYPE svg PUBLIC "-//W3C//DTD SVG 1.1//EN" "http://www.w3.org/Graphics/SVG/1.1/DTD/svg11.dtd">
<svg version="1.1" id="图层_1" xmlns="http://www.w3.org/2000/svg" xmlns:xlink="http://www.w3.org/1999/xlink" x="0px" y="0px"
	 width="100px" height="100px" viewBox="0 0 100 100" style="enable-background:new 0 0 100 100;" xml:space="preserve">
<style type="text/css">
<![CDATA[
	.st0{opacity:0;fill:#FFFFFF;}
	.st1{fill:url(#SVGID_1_);}
]]>
</style>
<rect class="st0" width="100" height="100"/>
<linearGradient id="SVGID_1_" gradientUnits="userSpaceOnUse" x1="50.0005" y1="95.0713" x2="50.0005" y2="4.9292">
	<stop  offset="0" style="stop-color:#64ED33"/>
	<stop  offset="1" style="stop-color:#DBF9F3"/>
</linearGradient>
<path class="st1" d="M80,4.9v20H20v-20H80z M85,50c1.4,0,2.6-0.5,3.6-1.4c1-0.9,1.5-2.1,1.5-3.5c0-1.4-0.5-2.6-1.5-3.6
	c-1-1-2.2-1.5-3.6-1.5s-2.6,0.5-3.5,1.5c-0.9,1-1.4,2.2-1.4,3.6c0,1.4,0.5,2.6,1.4,3.5C82.4,49.5,83.6,50,85,50z M70,85V60.1H30V85
	H70z M85,30c4.1,0,7.6,1.5,10.6,4.5c3,3,4.5,6.5,4.5,10.6v30H80v20H20v-20H0v-30c0-4.1,1.5-7.6,4.5-10.6S11,30.1,15,30H85L85,30z"/>
</svg>
