<?xml version="1.0" encoding="utf-8"?>
<!-- Generator: Adobe Illustrator 16.0.0, SVG Export Plug-In . SVG Version: 6.00 Build 0)  -->
<!DOCTYPE svg PUBLIC "-//W3C//DTD SVG 1.1//EN" "http://www.w3.org/Graphics/SVG/1.1/DTD/svg11.dtd">
<svg version="1.1" id="图层_1" xmlns="http://www.w3.org/2000/svg" xmlns:xlink="http://www.w3.org/1999/xlink" x="0px" y="0px"
	 width="100px" height="100px" viewBox="0 0 100 100" style="enable-background:new 0 0 100 100;" xml:space="preserve">
<style type="text/css">
<![CDATA[
	.st0{opacity:0;fill:#FFFFFF;}
	.st1{fill:url(#SVGID_1_);}
]]>
</style>
<rect class="st0" width="100" height="100"/>
<linearGradient id="SVGID_1_" gradientUnits="userSpaceOnUse" x1="50.0005" y1="88.6338" x2="50.0005" y2="11.3667">
	<stop  offset="0" style="stop-color:#64ED33"/>
	<stop  offset="1" style="stop-color:#DBF9F3"/>
</linearGradient>
<path class="st1" d="M33.4,88.6c0,0,7.5,0,7.5-6.2V17.6c0-6.2-7.5-6.2-7.5-6.2H21.1c0,0-7.5,0-7.5,6.2v64.8c0,6.3,7.5,6.3,7.5,6.3
	H33.4z M4.6,84.1h4.5V15.9H4.6c0,0-5.1,0-4.5,34.1C0.6,84.1,4.6,84.1,4.6,84.1z M100,50c0-34.1-5.7-34.1-5.7-34.1H45.5v68.2h48.9
	C94.3,84.1,100,84.1,100,50z M54.5,75C52,75,50,73,50,70.5c0-2.5,2-4.5,4.5-4.5s4.5,2,4.5,4.5C59.1,73,57.1,75,54.5,75z M54.5,61.4
	c-2.5,0-4.5-2-4.5-4.5s2-4.5,4.5-4.5s4.5,2,4.5,4.5S57.1,61.4,54.5,61.4z M54.5,47.7c-2.5,0-4.5-2-4.5-4.5s2-4.5,4.5-4.5
	s4.5,2,4.5,4.5S57.1,47.7,54.5,47.7z M68.2,75c-2.5,0-4.5-2-4.5-4.5c0-2.5,2-4.5,4.5-4.5s4.5,2,4.5,4.5C72.7,73,70.7,75,68.2,75z
	 M68.2,61.4c-2.5,0-4.5-2-4.5-4.5s2-4.5,4.5-4.5s4.5,2,4.5,4.5S70.7,61.4,68.2,61.4z M68.2,47.7c-2.5,0-4.5-2-4.5-4.5s2-4.5,4.5-4.5
	s4.5,2,4.5,4.5S70.7,47.7,68.2,47.7z M81.8,75c-2.5,0-4.5-2-4.5-4.5c0-2.5,2-4.5,4.5-4.5s4.5,2,4.5,4.5C86.4,73,84.3,75,81.8,75z
	 M81.8,61.4c-2.5,0-4.5-2-4.5-4.5s2-4.5,4.5-4.5s4.5,2,4.5,4.5S84.3,61.4,81.8,61.4z M81.8,47.7c-2.5,0-4.5-2-4.5-4.5s2-4.5,4.5-4.5
	s4.5,2,4.5,4.5S84.3,47.7,81.8,47.7z M86.4,33.4c0,0.4-0.3,0.7-0.8,0.7H50.8c-0.4,0-0.8-0.3-0.8-0.7v-7.7c0-0.4,0.3-0.7,0.8-0.7
	h34.8c0.4,0,0.8,0.3,0.8,0.7V33.4z"/>
</svg>
