<?xml version="1.0" encoding="utf-8"?>
<!-- Generator: Adobe Illustrator 16.0.0, SVG Export Plug-In . SVG Version: 6.00 Build 0)  -->
<!DOCTYPE svg PUBLIC "-//W3C//DTD SVG 1.1//EN" "http://www.w3.org/Graphics/SVG/1.1/DTD/svg11.dtd">
<svg version="1.1" id="图层_1" xmlns="http://www.w3.org/2000/svg" xmlns:xlink="http://www.w3.org/1999/xlink" x="0px" y="0px"
	 width="100px" height="100px" viewBox="0 0 100 100" style="enable-background:new 0 0 100 100;" xml:space="preserve">
<style type="text/css">
<![CDATA[
	.st0{opacity:0;fill:#FFFFFF;}
	.st1{fill:url(#SVGID_1_);}
]]>
</style>
<rect class="st0" width="100" height="100"/>
<linearGradient id="SVGID_1_" gradientUnits="userSpaceOnUse" x1="50.0005" y1="95.9092" x2="50.0005" y2="4.0913">
	<stop  offset="0" style="stop-color:#64ED33"/>
	<stop  offset="1" style="stop-color:#DBF9F3"/>
</linearGradient>
<path class="st1" d="M22.5,13.3c0,5.1,2.1,9.2,4.6,9.2c2.5,0,4.6-4.1,4.6-9.2c0-5.1-2.1-9.2-4.6-9.2C24.5,4.1,22.5,8.2,22.5,13.3z
	 M17.9,13.3H4.1c-2.6,0-4.6,2-4.6,4.6v73.5c0,2.5,2.1,4.6,4.6,4.6h91.8c2.6,0,4.6-2,4.6-4.6V17.8c0-2.5-2.1-4.6-4.6-4.6H82.1
	C82.1,20.9,78,27,73,27c-5.1,0-9.2-6.2-9.2-13.8h-4.6c0,7.6-4.1,13.8-9.2,13.8c-5.1,0-9.2-6.2-9.2-13.8h-4.6
	c0,7.6-4.1,13.8-9.2,13.8C22,27,17.9,20.9,17.9,13.3z M22.5,37.1c0-0.5,0.5-0.9,1-0.9h53.1c0.6,0,1,0.4,1,0.9v2.8
	c0,0.5-0.5,0.9-1,0.9H23.5c-0.6,0-1-0.4-1-0.9V37.1z M22.5,55.5c0-0.5,0.5-0.9,1-0.9h53.1c0.6,0,1,0.4,1,0.9v2.8
	c0,0.5-0.5,0.9-1,0.9H23.5c-0.6,0-1-0.4-1-0.9V55.5z M22.5,73.9c0-0.5,0.5-0.9,1-0.9h53.1c0.6,0,1,0.4,1,0.9v2.8
	c0,0.5-0.5,0.9-1,0.9H23.5c-0.6,0-1-0.4-1-0.9V73.9z M68.4,13.3c0,5.1,2.1,9.2,4.6,9.2c2.5,0,4.6-4.1,4.6-9.2c0-5.1-2.1-9.2-4.6-9.2
	C70.4,4.1,68.4,8.2,68.4,13.3z M45.4,13.3c0,5.1,2.1,9.2,4.6,9.2s4.6-4.1,4.6-9.2c0-5.1-2.1-9.2-4.6-9.2S45.4,8.2,45.4,13.3z"/>
</svg>
