<?xml version="1.0" encoding="utf-8"?>
<!-- Generator: Adobe Illustrator 16.0.0, SVG Export Plug-In . SVG Version: 6.00 Build 0)  -->
<!DOCTYPE svg PUBLIC "-//W3C//DTD SVG 1.1//EN" "http://www.w3.org/Graphics/SVG/1.1/DTD/svg11.dtd">
<svg version="1.1" id="图层_1" xmlns="http://www.w3.org/2000/svg" xmlns:xlink="http://www.w3.org/1999/xlink" x="0px" y="0px"
	 width="100px" height="100px" viewBox="0 0 100 100" style="enable-background:new 0 0 100 100;" xml:space="preserve">
<style type="text/css">
<![CDATA[
	.st0{opacity:0;fill:#FFFFFF;}
	.st1{fill:url(#SVGID_1_);}
]]>
</style>
<rect class="st0" width="100" height="100"/>
<linearGradient id="SVGID_1_" gradientUnits="userSpaceOnUse" x1="50.0005" y1="93.1816" x2="50.0005" y2="6.8188">
	<stop  offset="0" style="stop-color:#64ED33"/>
	<stop  offset="1" style="stop-color:#DBF9F3"/>
</linearGradient>
<path class="st1" d="M58.4,6.8H41.6c0,0-5.2,0-5.2,5.7v8H5c0,0-5,0-5,5.2v17.6h36.4h4.5v-2.1c0-1.4,1.1-2.5,2.5-2.5h13.3
	c1.4,0,2.5,1.1,2.5,2.5v2.1h4.5H100V25.6c0-5.2-5-5.2-5-5.2H63.6v-8C63.6,6.8,58.4,6.8,58.4,6.8z M59.3,20.5H41v-9.2h18.4L59.3,20.5
	L59.3,20.5z M0,88.1c0,5,5,5,5,5h90c0,0,5,0,5-5V47.7H63.8h-4.7v6.6c0,1.4-1.1,2.5-2.5,2.5H43.4c-1.4,0-2.5-1.1-2.5-2.5v-6.6h-4.5H0
	V88.1z M45.5,43.2h9.1v9.1h-9.1V43.2z"/>
</svg>
