<?xml version="1.0" encoding="utf-8"?>
<!-- Generator: Adobe Illustrator 16.0.0, SVG Export Plug-In . SVG Version: 6.00 Build 0)  -->
<!DOCTYPE svg PUBLIC "-//W3C//DTD SVG 1.1//EN" "http://www.w3.org/Graphics/SVG/1.1/DTD/svg11.dtd">
<svg version="1.1" id="图层_1" xmlns="http://www.w3.org/2000/svg" xmlns:xlink="http://www.w3.org/1999/xlink" x="0px" y="0px"
	 width="100px" height="100px" viewBox="0 0 100 100" style="enable-background:new 0 0 100 100;" xml:space="preserve">
<style type="text/css">
<![CDATA[
	.st0{fill:url(#SVGID_1_);}
	.st1{fill:url(#SVGID_2_);}
	.st2{fill:url(#SVGID_3_);}
	.st3{fill:url(#SVGID_4_);}
	.st4{fill:url(#SVGID_5_);}
	.st5{fill:url(#SVGID_6_);}
	.st6{fill:#FFFFFF;fill-opacity:0;}
]]>
</style>
<rect class="st6" width="100" height="100"/>
<g>
	
		<linearGradient id="SVGID_1_" gradientUnits="userSpaceOnUse" x1="306" y1="-329.0908" x2="306" y2="-260.9097" gradientTransform="matrix(1 0 0 -1 -256 -245)">
		<stop  offset="0" style="stop-color:#64ED33"/>
		<stop  offset="1" style="stop-color:#DBF9F3"/>
	</linearGradient>
	<path class="st0" d="M0,79.5C0,84,4.4,84,4.4,84h91c0,0,4.6,0,4.6-4.5S95.4,75,95.4,75h-91C4.4,75,0,75,0,79.5z M38.6,77.3h18.2
		c0,0,2.3,0,2.3,2.3c0,2.3-2.3,2.3-2.3,2.3H38.6c0,0-2.3,0-2.3-2.3C36.4,77.3,38.6,77.3,38.6,77.3z M95.5,70.5V25
		c0-9.1-9.1-9.1-9.1-9.1H13.6c0,0-9.1,0-9.1,9.1v45.5H9h0.4L9.1,25c0-4.1,4.9-4.5,4.9-4.5h71.9c0,0,5,0.4,5,4.5v45.5H95.5z"/>
	<g>
		<g>
			
				<linearGradient id="SVGID_2_" gradientUnits="userSpaceOnUse" x1="305.9502" y1="-306.062" x2="305.9502" y2="-279.6265" gradientTransform="matrix(1 0 0 -1 -256 -245)">
				<stop  offset="0" style="stop-color:#64ED33"/>
				<stop  offset="1" style="stop-color:#DBF9F3"/>
			</linearGradient>
			<polygon class="st1" points="21.7,61.1 20,59.8 38.4,34.6 60.6,53.2 78.5,37.2 79.9,38.7 60.7,56 38.8,37.7 			"/>
		</g>
		<g>
			
				<linearGradient id="SVGID_3_" gradientUnits="userSpaceOnUse" x1="276.8008" y1="-309.7783" x2="276.8008" y2="-301.1108" gradientTransform="matrix(1 0 0 -1 -256 -245)">
				<stop  offset="0" style="stop-color:#64ED33"/>
				<stop  offset="1" style="stop-color:#DBF9F3"/>
			</linearGradient>
			<path class="st2" d="M25.1,60.4c0,2.4-1.9,4.3-4.3,4.3c-2.4,0-4.3-1.9-4.3-4.3c0-2.4,1.9-4.3,4.3-4.3
				C23.2,56.1,25.1,58.1,25.1,60.4"/>
		</g>
		<g>
			
				<linearGradient id="SVGID_4_" gradientUnits="userSpaceOnUse" x1="294.5996" y1="-285.48" x2="294.5996" y2="-276.813" gradientTransform="matrix(1 0 0 -1 -256 -245)">
				<stop  offset="0" style="stop-color:#64ED33"/>
				<stop  offset="1" style="stop-color:#DBF9F3"/>
			</linearGradient>
			<path class="st3" d="M42.9,36.1c0,2.4-1.9,4.3-4.3,4.3s-4.3-1.9-4.3-4.3s1.9-4.3,4.3-4.3S42.9,33.8,42.9,36.1"/>
		</g>
		<g>
			
				<linearGradient id="SVGID_5_" gradientUnits="userSpaceOnUse" x1="317.4004" y1="-304.2734" x2="317.4004" y2="-295.6075" gradientTransform="matrix(1 0 0 -1 -256 -245)">
				<stop  offset="0" style="stop-color:#64ED33"/>
				<stop  offset="1" style="stop-color:#DBF9F3"/>
			</linearGradient>
			<path class="st4" d="M65.7,54.9c0,2.4-1.9,4.3-4.3,4.3c-2.4,0-4.3-1.9-4.3-4.3c0-2.4,1.9-4.3,4.3-4.3
				C63.8,50.6,65.7,52.5,65.7,54.9"/>
		</g>
		<g>
			
				<linearGradient id="SVGID_6_" gradientUnits="userSpaceOnUse" x1="335.2002" y1="-286.5361" x2="335.2002" y2="-277.8687" gradientTransform="matrix(1 0 0 -1 -256 -245)">
				<stop  offset="0" style="stop-color:#64ED33"/>
				<stop  offset="1" style="stop-color:#DBF9F3"/>
			</linearGradient>
			<path class="st5" d="M83.5,37.2c0,2.4-1.9,4.3-4.3,4.3c-2.4,0-4.3-1.9-4.3-4.3c0-2.4,1.9-4.3,4.3-4.3
				C81.6,32.9,83.5,34.8,83.5,37.2"/>
		</g>
	</g>
</g>
</svg>
