<?xml version="1.0" encoding="utf-8"?>
<!-- Generator: Adobe Illustrator 16.0.0, SVG Export Plug-In . SVG Version: 6.00 Build 0)  -->
<!DOCTYPE svg PUBLIC "-//W3C//DTD SVG 1.1//EN" "http://www.w3.org/Graphics/SVG/1.1/DTD/svg11.dtd">
<svg version="1.1" id="图层_1" xmlns="http://www.w3.org/2000/svg" xmlns:xlink="http://www.w3.org/1999/xlink" x="0px" y="0px"
	 width="100px" height="100px" viewBox="0 0 100 100" style="enable-background:new 0 0 100 100;" xml:space="preserve">
<style type="text/css">
<![CDATA[
	.st0{opacity:0;fill:#FFFFFF;}
	.st1{fill:url(#SVGID_1_);}
]]>
</style>
<rect class="st0" width="100" height="100"/>
<linearGradient id="SVGID_1_" gradientUnits="userSpaceOnUse" x1="50.0005" y1="100" x2="50.0005" y2="4.882813e-004">
	<stop  offset="0" style="stop-color:#64ED33"/>
	<stop  offset="1" style="stop-color:#DBF9F3"/>
</linearGradient>
<path class="st1" d="M40.8,90.6v-8.9c-2.4,0-4.5-0.9-6.3-2.7c-1.8-1.8-2.7-3.9-2.7-6.3v-4.7L10,46.4c-0.6,2.3-0.9,5-0.9,8.1
	c0,9.2,3,17.3,9.1,24.1C24.4,85.5,31.9,89.5,40.8,90.6L40.8,90.6z M81.5,50h9.2c0.1,1,0.2,2.5,0.2,4.5c0,12.6-4.4,23.4-13.3,32.2
	C68.7,95.6,58,100,45.5,100c-12.6,0-23.4-4.4-32.2-13.3S0,67.1,0,54.5c0-12.5,4.4-23.2,13.3-32c8.9-8.9,19.6-13.3,32.2-13.3
	c4.4,0,8.9,0.7,13.6,2.1v11.5c0,2.4-0.9,4.5-2.8,6.4c-1.8,1.8-4,2.8-6.4,2.8h-9.1v8.9c0,1.3-0.4,2.4-1.3,3.3
	c-0.9,0.9-1.9,1.4-3.2,1.4h-9.1v8.9h27.2c1.3,0,2.4,0.5,3.3,1.4s1.4,2,1.4,3.3v13.6h4.5c4.4,0,7.3,2.1,8.7,6.2
	c6.2-6.7,9.4-14.8,9.4-24.5C81.7,52.5,81.6,51,81.5,50L81.5,50z M91.7,13.6v-2.1c0-2.1-0.7-4-2.2-5.5C88,4.4,86.2,3.6,84,3.6
	c-2.1,0-3.9,0.8-5.4,2.3c-1.5,1.6-2.2,3.4-2.2,5.5v2.1H91.7L91.7,13.6z M95.3,13.6c1.3,0,2.4,0.5,3.3,1.4c0.9,0.9,1.4,2,1.4,3.3
	v18.1c0,1.3-0.5,2.3-1.4,3.2c-0.9,0.9-2,1.3-3.3,1.3H72.8c-1.3,0-2.4-0.4-3.3-1.3s-1.4-1.9-1.4-3.2V18.3c0-1.3,0.5-2.4,1.4-3.3
	s2-1.4,3.3-1.4v-2.1c0-3.1,1.1-5.8,3.3-8.1C78.3,1.1,80.9,0,84,0c3.1,0,5.8,1.1,8,3.4c2.2,2.3,3.3,5,3.3,8.1L95.3,13.6L95.3,13.6z"
	/>
</svg>
