<?xml version="1.0" encoding="utf-8"?>
<!-- Generator: Adobe Illustrator 16.0.0, SVG Export Plug-In . SVG Version: 6.00 Build 0)  -->
<!DOCTYPE svg PUBLIC "-//W3C//DTD SVG 1.1//EN" "http://www.w3.org/Graphics/SVG/1.1/DTD/svg11.dtd">
<svg version="1.1" id="图层_1" xmlns="http://www.w3.org/2000/svg" xmlns:xlink="http://www.w3.org/1999/xlink" x="0px" y="0px"
	 width="100px" height="100px" viewBox="0 0 100 100" style="enable-background:new 0 0 100 100;" xml:space="preserve">
<style type="text/css">
<![CDATA[
	.st0{opacity:0;fill:#FFFFFF;}
	.st1{fill:url(#SVGID_1_);}
]]>
</style>
<rect class="st0" width="100" height="100"/>
<linearGradient id="SVGID_1_" gradientUnits="userSpaceOnUse" x1="50.0005" y1="100" x2="50.0005" y2="4.882813e-004">
	<stop  offset="0" style="stop-color:#64ED33"/>
	<stop  offset="1" style="stop-color:#DBF9F3"/>
</linearGradient>
<path class="st1" d="M50,62.6c10.5,0,21.5,2.3,32.9,6.9C94.3,74,100,80,100,87.4V100H0V87.4C0,80,5.7,74,17.1,69.4
	C28.5,64.9,39.5,62.6,50,62.6L50,62.6z M50,50c-6.8,0-12.7-2.4-17.5-7.3c-4.9-4.9-7.3-10.7-7.3-17.5s2.4-12.7,7.3-17.7
	C37.3,2.5,43.2,0,50,0s12.7,2.5,17.5,7.5c4.9,5,7.3,10.9,7.3,17.7s-2.4,12.7-7.3,17.5C62.7,47.6,56.8,50,50,50z"/>
</svg>
