<?xml version="1.0" encoding="utf-8"?>
<!-- Generator: Adobe Illustrator 16.0.0, SVG Export Plug-In . SVG Version: 6.00 Build 0)  -->
<!DOCTYPE svg PUBLIC "-//W3C//DTD SVG 1.1//EN" "http://www.w3.org/Graphics/SVG/1.1/DTD/svg11.dtd">
<svg version="1.1" id="图层_1" xmlns="http://www.w3.org/2000/svg" xmlns:xlink="http://www.w3.org/1999/xlink" x="0px" y="0px"
	 width="100px" height="100px" viewBox="0 0 100 100" style="enable-background:new 0 0 100 100;" xml:space="preserve">
<style type="text/css">
<![CDATA[
	.st0{opacity:0;fill:#FFFFFF;}
	.st1{fill:url(#SVGID_1_);}
]]>
</style>
<rect class="st0" width="100" height="100"/>
<linearGradient id="SVGID_1_" gradientUnits="userSpaceOnUse" x1="50" y1="95.4053" x2="50" y2="4.5952">
	<stop  offset="0" style="stop-color:#64ED33"/>
	<stop  offset="1" style="stop-color:#DBF9F3"/>
</linearGradient>
<path class="st1" d="M21.9,85.8V55.5l16.6,39.9h-7c-2.5,0-4.8-1-6.7-2.9C22.8,90.5,21.9,88.3,21.9,85.8L21.9,85.8z M31.5,33.3
	c1.3,0,2.5-0.5,3.4-1.5c0.9-1,1.3-2.1,1.3-3.5c0-1.3-0.4-2.5-1.3-3.4c-0.9-0.9-2-1.3-3.4-1.3c-1.3,0-2.5,0.4-3.4,1.3
	c-0.9,0.9-1.3,2-1.3,3.4c0,1.3,0.4,2.5,1.3,3.5C29,32.8,30.2,33.3,31.5,33.3z M99.2,67.6c1,2.4,1,4.8,0,7.3c-1,2.5-2.8,4.2-5.2,5.3
	L58.9,94.7c-1.2,0.4-2.5,0.7-3.8,0.7c-4.2,0-7.1-1.9-8.7-5.8L22.5,32.2c-0.4-1.3-0.7-2.6-0.7-3.8c0-4,1.9-6.9,5.8-8.5L63.1,5.3
	c1.3-0.4,2.6-0.7,3.8-0.7c4,0,6.9,1.9,8.5,5.8L99.2,67.6z M5.9,85.3c-2.4-1-4.1-2.8-5.2-5.2c-1-2.4-1-4.8,0-7.2l11.7-28v43L5.9,85.3
	z"/>
</svg>
