<?xml version="1.0" encoding="utf-8"?>
<!-- Generator: Adobe Illustrator 18.1.0, SVG Export Plug-In . SVG Version: 6.00 Build 0)  -->
<svg version="1.1" id="图层_1" xmlns="http://www.w3.org/2000/svg" xmlns:xlink="http://www.w3.org/1999/xlink" x="0px" y="0px"
	 width="40px" height="40px" viewBox="-12 -12 40 40" style="enable-background:new -12 -12 40 40;" xml:space="preserve">
<style type="text/css">
	.st0{fill:#BC002C;}
	.st1{fill:#FFFFFF;}
	.st2{opacity:0.35;}
	.st3{opacity:0.24;fill:#FFFFFF;}
</style>
<g>
	<path class="st0" d="M28,21.8c0,3.5-2.7,6.2-6.2,6.2H-5.7c-3.5,0-6.3-2.8-6.3-6.2V-5.7c0-3.5,2.9-6.3,6.3-6.3h27.5
		c3.5,0,6.2,2.8,6.2,6.3V21.8z"/>
	<g>
		<path class="st1" d="M-3.4-0.3c0.2-0.3,0.7-0.3,0.9,0c0.1,0.1,6.1,5.6,13.6,7.1c5.2,1,10.3,1.5,13.1,1.7c-0.1-0.9-0.9-1-3.4-2.2
			c-1.5-0.7-3.8-2.1-6.2-3.5c-1.5,1.2-3.5,2-4,2.1c0,0,0,0,0,0C10.3,5,9.9,4.8,9.8,4.4c-0.1-0.3,0.1-0.7,0.4-0.8c0,0,0,0,0,0
			c0.1,0,1-0.4,2.1-0.9c0.4-0.2,0.8-0.5,1.1-0.7c-0.6-0.3-1.2-0.7-1.8-1C10.8,1.4,9.9,1.7,9.1,2C7.7,2.5,6.4,2.8,6.3,2.9
			C6,3,5.6,2.8,5.6,2.4C5.5,2.1,5.7,1.7,6,1.6c0,0,2.2-0.6,4.2-1.4C9.2-0.3,8.3-0.7,7.5-1C3.8-2.3-1.2-2.6-4-1.4L-7.1-5
			C-7.3-5.2-7.6-5.2-7.9-5c-0.3,0.2-0.3,0.6-0.1,0.8l3.1,3.6c0,0-2.1,8.1,9,11.5c9.8,3,17.7,0.6,19.6-1.1C20.9,9.5,16,9,10.9,8
			C3,6.5-3.1,0.9-3.3,0.7C-3.6,0.4-3.6,0-3.4-0.3z"/>
		<path class="st1" d="M-0.8,19.5h-1.4l-0.5-1.4h-2.5l-0.5,1.4H-7l2.4-6.2h1.3L-0.8,19.5z M-3.1,17L-4,14.7L-4.8,17H-3.1z"/>
		<path class="st1" d="M-0.2,15h1.1v0.7c0.1-0.2,0.3-0.4,0.6-0.5C1.7,15,2,14.9,2.3,14.9c0.5,0,1,0.2,1.3,0.6c0.4,0.4,0.5,1,0.5,1.7
			C4.1,18,4,18.5,3.6,19c-0.4,0.4-0.8,0.6-1.3,0.6c-0.2,0-0.5,0-0.7-0.1c-0.2-0.1-0.4-0.3-0.6-0.5v2.3h-1.2V15L-0.2,15z M0.9,17.2
			c0,0.5,0.1,0.9,0.3,1.1c0.2,0.2,0.4,0.4,0.7,0.4c0.3,0,0.5-0.1,0.7-0.3c0.2-0.2,0.3-0.6,0.3-1.1c0-0.5-0.1-0.8-0.3-1
			c-0.2-0.2-0.4-0.3-0.7-0.3c-0.3,0-0.5,0.1-0.7,0.3S0.9,16.7,0.9,17.2z"/>
		<path class="st1" d="M6,16.4l-1.1-0.2c0.1-0.4,0.3-0.8,0.6-1c0.3-0.2,0.7-0.3,1.3-0.3c0.5,0,0.9,0.1,1.2,0.2
			c0.3,0.1,0.4,0.3,0.5,0.5c0.1,0.2,0.2,0.5,0.2,1.1l0,1.4c0,0.4,0,0.7,0.1,0.9c0,0.2,0.1,0.4,0.2,0.6H7.8c0-0.1-0.1-0.2-0.1-0.3
			c0-0.1,0-0.1,0-0.1c-0.2,0.2-0.4,0.3-0.6,0.4c-0.2,0.1-0.5,0.1-0.7,0.1c-0.5,0-0.8-0.1-1.1-0.4c-0.3-0.3-0.4-0.6-0.4-0.9
			c0-0.3,0.1-0.5,0.2-0.7c0.1-0.2,0.3-0.4,0.5-0.5C5.7,17,6,16.9,6.4,16.8c0.6-0.1,0.9-0.2,1.2-0.3v-0.1c0-0.2-0.1-0.4-0.2-0.5
			c-0.1-0.1-0.3-0.1-0.6-0.1c-0.2,0-0.4,0-0.5,0.1C6.1,16,6,16.2,6,16.4z M7.5,17.3c-0.2,0.1-0.4,0.1-0.7,0.2
			c-0.3,0.1-0.5,0.1-0.6,0.2C6,17.8,6,18,6,18.1c0,0.2,0.1,0.3,0.2,0.4c0.1,0.1,0.3,0.2,0.5,0.2c0.2,0,0.4-0.1,0.6-0.2
			c0.1-0.1,0.2-0.2,0.3-0.4c0-0.1,0-0.3,0-0.6V17.3z"/>
		<path class="st1" d="M13.8,16.3l-1.2,0.2c0-0.2-0.1-0.4-0.3-0.5c-0.1-0.1-0.3-0.2-0.5-0.2c-0.3,0-0.5,0.1-0.7,0.3
			c-0.2,0.2-0.3,0.5-0.3,1c0,0.5,0.1,0.9,0.3,1.1c0.2,0.2,0.4,0.3,0.7,0.3c0.2,0,0.4-0.1,0.6-0.2c0.1-0.1,0.2-0.3,0.3-0.7l1.2,0.2
			c-0.1,0.5-0.4,0.9-0.7,1.2c-0.3,0.3-0.8,0.4-1.4,0.4c-0.7,0-1.2-0.2-1.6-0.6c-0.4-0.4-0.6-1-0.6-1.7c0-0.7,0.2-1.3,0.6-1.7
			c0.4-0.4,0.9-0.6,1.6-0.6c0.5,0,1,0.1,1.3,0.4C13.4,15.5,13.6,15.8,13.8,16.3z"/>
		<path class="st1" d="M15.9,13.3v2.3c0.4-0.4,0.8-0.7,1.4-0.7c0.3,0,0.5,0.1,0.7,0.2c0.2,0.1,0.4,0.2,0.5,0.4
			c0.1,0.2,0.2,0.3,0.2,0.5c0,0.2,0.1,0.5,0.1,0.9v2.6h-1.2v-2.4c0-0.5,0-0.8-0.1-0.9c0-0.1-0.1-0.2-0.2-0.3
			c-0.1-0.1-0.3-0.1-0.4-0.1c-0.2,0-0.4,0-0.5,0.1C16.2,16,16,16.2,16,16.4c-0.1,0.2-0.1,0.5-0.1,0.9v2.2h-1.2v-6.2H15.9z"/>
		<path class="st1" d="M22.5,18.1l1.2,0.2c-0.2,0.4-0.4,0.8-0.7,1c-0.3,0.2-0.7,0.3-1.2,0.3c-0.8,0-1.4-0.3-1.7-0.8
			c-0.3-0.4-0.4-0.9-0.4-1.5c0-0.7,0.2-1.3,0.6-1.7c0.4-0.4,0.9-0.6,1.5-0.6c0.7,0,1.2,0.2,1.6,0.7c0.4,0.4,0.6,1.1,0.6,2h-3
			c0,0.4,0.1,0.6,0.3,0.8c0.2,0.2,0.4,0.3,0.7,0.3c0.2,0,0.3-0.1,0.5-0.2C22.4,18.4,22.5,18.3,22.5,18.1z M22.6,16.9
			c0-0.3-0.1-0.6-0.3-0.8c-0.2-0.2-0.4-0.3-0.6-0.3c-0.3,0-0.5,0.1-0.6,0.3c-0.2,0.2-0.3,0.4-0.2,0.8H22.6L22.6,16.9z"/>
	</g>
</g>
<g>
	<path class="st2" d="M28-5.8v27.5c0,3.4-2.8,6.3-6.3,6.3H-5.8c-2,0-3.7-0.9-4.9-2.3c1.1,0.9,2.4,1.4,3.9,1.4h27.5
		c3.4,0,6.3-2.8,6.3-6.3V-6.7c0-1.5-0.5-2.8-1.4-3.9C27.1-9.5,28-7.7,28-5.8z"/>
	<path class="st3" d="M26.6-9.7c-1.1-0.9-2.4-1.4-3.9-1.4H-4.8c-3.4,0-6.3,2.8-6.3,6.3v27.5c0,1.5,0.5,2.8,1.4,3.9
		c-1.4-1.1-2.3-2.9-2.3-4.9V-5.8c0-3.4,2.8-6.3,6.3-6.3h27.5C23.7-12,25.5-11.1,26.6-9.7z"/>
</g>
</svg>
