<?xml version="1.0" encoding="utf-8"?>
<!-- Generator: Adobe Illustrator 18.1.0, SVG Export Plug-In . SVG Version: 6.00 Build 0)  -->
<svg version="1.1" id="图层_1" xmlns="http://www.w3.org/2000/svg" xmlns:xlink="http://www.w3.org/1999/xlink" x="0px" y="0px"
	 width="40px" height="40px" viewBox="-12 -12 40 40" style="enable-background:new -12 -12 40 40;" xml:space="preserve">
<style type="text/css">
	.st0{fill:#FF8630;}
	.st1{fill:#FFFFFF;}
	.st2{opacity:0.35;}
	.st3{opacity:0.24;fill:#FFFFFF;}
</style>
<g>
	<path class="st0" d="M28,21.8c0,3.5-2.8,6.3-6.3,6.3H-5.8c-3.5,0-6.3-2.8-6.3-6.3V-5.8c0-3.5,2.8-6.3,6.3-6.3h27.5
		c3.5,0,6.3,2.8,6.3,6.3V21.8z"/>
	<g>
		<path class="st1" d="M-5.8,4H-5h0.8l2.4,8.1h-0.7h-0.7l-0.4-1.6h-2.5L-6.7,12h-0.7h-0.7L-5.8,4z M-5.9,9h1.7L-5,5.8h0L-5.9,9z"/>
		<path class="st1" d="M-1,4h0.7h2.4c0.7,0,1.3,0.2,1.7,0.6c0.4,0.4,0.6,0.9,0.6,1.7c0,0.7-0.2,1.3-0.6,1.7C3.7,8,3.6,8.1,3.5,8.2
			c0.1,0,0.1,0.1,0.2,0.1c0.4,0.3,0.6,0.9,0.6,1.6v0.9c0,0.3,0,0.6,0.1,0.7c0,0.1,0.1,0.2,0.2,0.3V12H3c0-0.2-0.1-0.4-0.1-0.6
			s0-0.5,0-0.8l0-0.5c0-0.5-0.1-0.8-0.2-1C2.5,9,2.3,8.9,1.9,8.9H0.4V12h-0.7H-1V4z M0.4,7.5H2c0.4,0,0.6-0.1,0.8-0.3
			C3,7.1,3.1,6.8,3.1,6.5S3,5.8,2.8,5.6C2.7,5.5,2.4,5.4,2.1,5.4H0.4V7.5z"/>
		<path class="st1" d="M5.7,4h0.7h2.4c0.7,0,1.3,0.2,1.7,0.6c0.4,0.4,0.6,0.9,0.6,1.7c0,0.7-0.2,1.3-0.6,1.7
			c-0.1,0.1-0.2,0.2-0.4,0.3c0.1,0,0.1,0.1,0.2,0.1c0.4,0.3,0.6,0.9,0.6,1.6v0.9c0,0.3,0,0.6,0.1,0.7c0,0.1,0.1,0.2,0.2,0.3V12H9.7
			c0-0.2-0.1-0.4-0.1-0.6c0-0.3,0-0.5,0-0.8l0-0.5c0-0.5-0.1-0.8-0.2-1C9.2,9,8.9,8.9,8.6,8.9H7.1V12H6.4H5.7V4z M7.1,7.5h1.6
			c0.4,0,0.6-0.1,0.8-0.3c0.2-0.2,0.3-0.5,0.3-0.8S9.6,5.8,9.5,5.6C9.3,5.5,9.1,5.4,8.7,5.4H7.1V7.5z"/>
		<path class="st1" d="M14.2,4H15h0.8l2.4,8.1h-0.7h-0.7l-0.4-1.6h-2.5L13.3,12h-0.7h-0.7L14.2,4z M14.1,9h1.7L15,5.8h0L14.1,9z"/>
		<path class="st1" d="M20.7,9L18.4,4h0.8H20l1.4,3.6l0,0L22.8,4h0.8h0.8l-2.2,5v3h-0.7h-0.7V9z"/>
	</g>
</g>
<g>
	<path class="st2" d="M28-5.8v27.5c0,3.4-2.8,6.3-6.3,6.3H-5.8c-2,0-3.7-0.9-4.9-2.3c1.1,0.9,2.4,1.4,3.9,1.4h27.5
		c3.4,0,6.3-2.8,6.3-6.3V-6.7c0-1.5-0.5-2.8-1.4-3.9C27.1-9.5,28-7.7,28-5.8z"/>
	<path class="st3" d="M26.6-9.7c-1.1-0.9-2.4-1.4-3.9-1.4H-4.8c-3.4,0-6.3,2.8-6.3,6.3v27.5c0,1.5,0.5,2.8,1.4,3.9
		c-1.4-1.1-2.3-2.9-2.3-4.9V-5.8c0-3.4,2.8-6.3,6.3-6.3h27.5C23.7-12,25.5-11.1,26.6-9.7z"/>
</g>
</svg>
