<?xml version="1.0" encoding="utf-8"?>
<!-- Generator: Adobe Illustrator 18.1.0, SVG Export Plug-In . SVG Version: 6.00 Build 0)  -->
<svg version="1.1" id="图层_1" xmlns="http://www.w3.org/2000/svg" xmlns:xlink="http://www.w3.org/1999/xlink" x="0px" y="0px"
	 width="40px" height="40px" viewBox="-12 -12 40 40" style="enable-background:new -12 -12 40 40;" xml:space="preserve">
<style type="text/css">
	.st0{fill:#94B27C;}
	.st1{fill:#FFFFFF;}
	.st2{opacity:0.35;}
	.st3{opacity:0.24;fill:#FFFFFF;}
</style>
<g>
	<path class="st0" d="M28,21.8c0,3.5-2.8,6.3-6.3,6.3H-5.8c-3.5,0-6.3-2.8-6.3-6.3V-5.8c0-3.5,2.8-6.3,6.3-6.3h27.5
		c3.5,0,6.3,2.8,6.3,6.3V21.8z"/>
	<path class="st1" d="M16.3-2.8c-5.4-4.1-12.8-3.5-17.5,1l2.3,1.8c3.7-3.2,9.3-3.5,13.4-0.4c1,0.7,1.8,1.6,2.4,2.5l2.7-1.1
		C18.8-0.5,17.6-1.8,16.3-2.8z M21.3,4.9l-2.7,1.1c0.5,2.8-0.1,5.9-2,8.4c-2,2.6-4.9,4.1-7.9,4.2l-0.4,2.9c4-0.1,8-1.9,10.6-5.4
		C21.4,12.8,22.1,8.7,21.3,4.9z M-1.6,3.4l-2.3-1.8C-7,7.4-5.5,14.7-0.1,18.8c1.3,1,2.6,1.7,4,2.1L4.3,18c-0.9-0.4-1.8-0.8-2.7-1.5
		C-2.5,13.4-3.7,7.9-1.6,3.4z"/>
</g>
<g>
	<path class="st2" d="M28-5.8v27.5c0,3.4-2.8,6.3-6.3,6.3H-5.8c-2,0-3.7-0.9-4.9-2.3c1.1,0.9,2.4,1.4,3.9,1.4h27.5
		c3.4,0,6.3-2.8,6.3-6.3V-6.7c0-1.5-0.5-2.8-1.4-3.9C27.1-9.5,28-7.7,28-5.8z"/>
	<path class="st3" d="M26.6-9.7c-1.1-0.9-2.4-1.4-3.9-1.4H-4.8c-3.4,0-6.3,2.8-6.3,6.3v27.5c0,1.5,0.5,2.8,1.4,3.9
		c-1.4-1.1-2.3-2.9-2.3-4.9V-5.8c0-3.4,2.8-6.3,6.3-6.3h27.5C23.7-12,25.5-11.1,26.6-9.7z"/>
</g>
</svg>
