<?xml version="1.0" encoding="utf-8"?>
<!-- Generator: Adobe Illustrator 18.1.0, SVG Export Plug-In . SVG Version: 6.00 Build 0)  -->
<svg version="1.1" id="图层_1" xmlns="http://www.w3.org/2000/svg" xmlns:xlink="http://www.w3.org/1999/xlink" x="0px" y="0px"
	 width="40px" height="40px" viewBox="-12 -12 40 40" style="enable-background:new -12 -12 40 40;" xml:space="preserve">
<style type="text/css">
	.st0{fill:#9863D3;}
	.st1{fill:#FFFFFF;}
	.st2{opacity:0.35;}
	.st3{opacity:0.24;fill:#FFFFFF;}
</style>
<path class="st0" d="M28,21.8c0,3.5-2.8,6.3-6.3,6.3H-5.8c-3.5,0-6.3-2.8-6.3-6.3V-5.8c0-3.5,2.8-6.3,6.3-6.3h27.5
	c3.5,0,6.3,2.8,6.3,6.3V21.8z"/>
<g>
	<g>
		<path class="st1" d="M-5.3,2.9C-5.3,3.5-5.5,4-5.9,4.3c-0.3,0.4-0.8,0.5-1.3,0.5c-0.6,0-1.1-0.2-1.4-0.7C-9,3.7-9.1,3.1-9.1,2.3
			c0-0.9,0.2-1.6,0.5-2.1c0.3-0.5,0.8-0.7,1.5-0.7c0.5,0,1,0.2,1.3,0.5c0.3,0.3,0.5,0.8,0.6,1.5h-1.1c0-0.3-0.1-0.5-0.2-0.6
			c-0.1-0.2-0.3-0.2-0.5-0.2c-0.3,0-0.5,0.1-0.6,0.4C-7.9,1.3-8,1.6-8,2.1c0,0.6,0.1,1,0.2,1.3c0.1,0.3,0.4,0.4,0.7,0.4
			c0.2,0,0.4-0.1,0.5-0.2c0.1-0.2,0.2-0.4,0.2-0.7H-5.3z"/>
		<path class="st1" d="M-3.7,4.1c-0.4-0.5-0.6-1.1-0.6-2c0-0.8,0.2-1.5,0.6-2c0.4-0.5,0.9-0.7,1.6-0.7c0.7,0,1.2,0.2,1.6,0.7
			C-0.2,0.7,0,1.4,0,2.2c0,0.8-0.2,1.5-0.6,2C-1,4.6-1.5,4.9-2.1,4.9C-2.8,4.9-3.3,4.6-3.7,4.1z M-1.4,3.3c0.2-0.3,0.3-0.6,0.3-1.2
			c0-0.5-0.1-0.9-0.3-1.2c-0.2-0.3-0.4-0.4-0.7-0.4c-0.3,0-0.6,0.1-0.7,0.4c-0.2,0.3-0.3,0.7-0.3,1.2c0,0.5,0.1,0.9,0.3,1.2
			c0.2,0.3,0.4,0.4,0.7,0.4C-1.8,3.7-1.6,3.6-1.4,3.3z"/>
		<path class="st1" d="M1.2-0.4h0.5h0.5v0.8c0.1-0.1,0.1-0.3,0.2-0.4c0.3-0.4,0.6-0.6,1-0.6c0.4,0,0.7,0.1,0.9,0.4
			C4.5,0,4.6,0.2,4.7,0.3l0.1-0.2c0.2-0.4,0.6-0.6,1-0.6c0.4,0,0.8,0.1,1,0.4c0.3,0.3,0.4,0.7,0.4,1.2v3.6H6.7H6.1V1.4
			C6.1,1.2,6.1,1,6,0.8C5.9,0.7,5.7,0.6,5.5,0.6C5.3,0.6,5.1,0.7,5,0.9C4.8,1.1,4.8,1.3,4.8,1.7v3.1H4.2H3.7V1.5
			c0-0.3-0.1-0.5-0.2-0.7C3.4,0.7,3.2,0.6,3,0.6c-0.2,0-0.4,0.1-0.5,0.3C2.4,1.1,2.3,1.3,2.3,1.7v3.1H1.8H1.2V-0.4z"/>
		<path class="st1" d="M8.7-0.4h0.5h0.5v0.8c0.1-0.1,0.1-0.3,0.2-0.4c0.3-0.4,0.6-0.6,1-0.6c0.4,0,0.7,0.1,0.9,0.4
			C12,0,12.1,0.2,12.1,0.3l0.1-0.2c0.2-0.4,0.6-0.6,1-0.6c0.4,0,0.8,0.1,1,0.4c0.3,0.3,0.4,0.7,0.4,1.2v3.6h-0.5h-0.6V1.4
			c0-0.3-0.1-0.5-0.2-0.6c-0.1-0.1-0.2-0.2-0.4-0.2c-0.2,0-0.4,0.1-0.6,0.3s-0.2,0.4-0.2,0.8v3.1h-0.5h-0.6V1.5
			c0-0.3-0.1-0.5-0.2-0.7c-0.1-0.2-0.3-0.2-0.5-0.2c-0.2,0-0.4,0.1-0.5,0.3S9.8,1.3,9.8,1.7v3.1H9.3H8.7V-0.4z"/>
		<path class="st1" d="M16.5,4.1c-0.4-0.5-0.6-1.1-0.6-2c0-0.8,0.2-1.5,0.6-2c0.4-0.5,0.9-0.7,1.6-0.7c0.7,0,1.2,0.2,1.6,0.7
			c0.4,0.5,0.6,1.1,0.6,2c0,0.8-0.2,1.5-0.6,2c-0.4,0.5-0.9,0.7-1.6,0.7C17.4,4.9,16.9,4.6,16.5,4.1z M18.8,3.3
			c0.2-0.3,0.3-0.6,0.3-1.2c0-0.5-0.1-0.9-0.3-1.2c-0.2-0.3-0.4-0.4-0.7-0.4c-0.3,0-0.6,0.1-0.7,0.4c-0.2,0.3-0.3,0.7-0.3,1.2
			c0,0.5,0.1,0.9,0.3,1.2c0.2,0.3,0.4,0.4,0.7,0.4C18.4,3.7,18.7,3.6,18.8,3.3z"/>
		<path class="st1" d="M21.5-0.4H22h0.5v0.8l0.1-0.2c0.3-0.4,0.7-0.7,1.1-0.7c0.4,0,0.8,0.2,1.1,0.5c0.3,0.3,0.4,0.7,0.4,1.2v3.6
			h-0.5h-0.6V1.6c0-0.3-0.1-0.5-0.2-0.7c-0.1-0.2-0.3-0.2-0.5-0.2c-0.3,0-0.5,0.1-0.7,0.3c-0.2,0.2-0.2,0.6-0.2,1v2.8H22h-0.6V-0.4z
			"/>
	</g>
	<g>
		<path class="st1" d="M3.2,13.9c0,0.4,0.1,0.7,0.2,0.9c0.1,0.2,0.4,0.3,0.6,0.3c0.4,0,0.6-0.1,0.8-0.4c0.2-0.3,0.3-0.6,0.3-1.1V9.9
			h0.7h0.7v6.4H5.9H5.2v-0.9c0,0.1-0.1,0.2-0.2,0.3c-0.4,0.5-0.8,0.8-1.4,0.8c-0.6,0-1-0.2-1.3-0.6c-0.3-0.4-0.5-1-0.5-1.7V9.9h0.7
			h0.7V13.9z"/>
		<path class="st1" d="M8.4,9.9h0.7h0.7v1.1l0.2-0.4c0.3-0.6,0.7-0.9,1.3-0.9c0.1,0,0.2,0,0.3,0v1.7c-0.1,0-0.2,0-0.4,0
			c-0.4,0-0.8,0.1-1,0.4c-0.2,0.3-0.3,0.6-0.3,1.2v3.3H9.1H8.4V9.9z"/>
		<path class="st1" d="M12.9,7.7h0.7h0.7v8.6h-0.7h-0.7V7.7z"/>
	</g>
</g>
<g>
	<path class="st2" d="M28-5.8v27.5c0,3.4-2.8,6.3-6.3,6.3H-5.8c-2,0-3.7-0.9-4.9-2.3c1.1,0.9,2.4,1.4,3.9,1.4h27.5
		c3.4,0,6.3-2.8,6.3-6.3V-6.7c0-1.5-0.5-2.8-1.4-3.9C27.1-9.5,28-7.7,28-5.8z"/>
	<path class="st3" d="M26.6-9.7c-1.1-0.9-2.4-1.4-3.9-1.4H-4.8c-3.4,0-6.3,2.8-6.3,6.3v27.5c0,1.5,0.5,2.8,1.4,3.9
		c-1.4-1.1-2.3-2.9-2.3-4.9V-5.8c0-3.4,2.8-6.3,6.3-6.3h27.5C23.7-12,25.5-11.1,26.6-9.7z"/>
</g>
</svg>
