<?xml version="1.0" encoding="utf-8"?>
<!-- Generator: Adobe Illustrator 18.1.0, SVG Export Plug-In . SVG Version: 6.00 Build 0)  -->
<svg version="1.1" id="图层_1" xmlns="http://www.w3.org/2000/svg" xmlns:xlink="http://www.w3.org/1999/xlink" x="0px" y="0px"
	 width="40px" height="40px" viewBox="-12 -12 40 40" style="enable-background:new -12 -12 40 40;" xml:space="preserve">
<style type="text/css">
	.st0{fill:#42C638;}
	.st1{fill:#FFFFFF;}
	.st2{opacity:0.35;}
	.st3{opacity:0.24;fill:#FFFFFF;}
</style>
<g>
	<path class="st0" d="M28,21.8c0,3.5-2.8,6.3-6.3,6.3H-5.8c-3.5,0-6.3-2.8-6.3-6.3V-5.8c0-3.5,2.8-6.3,6.3-6.3h27.5
		c3.5,0,6.3,2.8,6.3,6.3V21.8z"/>
	<g>
		<g>
			<path class="st1" d="M-1.8,1.8c0-0.4-0.1-0.7-0.4-0.9c-0.2-0.2-0.5-0.3-0.9-0.3S-3.8,0.6-4,0.8C-4.2,1-4.3,1.2-4.3,1.6
				c0,0.2,0.1,0.4,0.3,0.6c0.2,0.1,0.6,0.3,1.1,0.4c1,0.3,1.7,0.6,2.1,0.9c0.4,0.4,0.6,0.9,0.6,1.6C-0.3,5.9-0.5,6.5-1,7
				c-0.5,0.5-1.1,0.7-2,0.7c-0.9,0-1.6-0.2-2-0.7c-0.5-0.5-0.7-1.1-0.7-2h1.3c0,0.4,0.1,0.8,0.4,1C-3.8,6.1-3.4,6.3-3,6.3
				c0.4,0,0.7-0.1,1-0.3c0.2-0.2,0.4-0.4,0.4-0.7C-1.6,5-1.7,4.7-2,4.6c-0.2-0.2-0.7-0.3-1.3-0.5c-0.9-0.2-1.5-0.5-1.8-0.9
				c-0.3-0.3-0.5-0.9-0.5-1.6c0-0.8,0.2-1.4,0.7-1.8c0.4-0.4,1.1-0.7,1.8-0.7c0.8,0,1.4,0.2,1.9,0.7c0.5,0.5,0.7,1.1,0.7,1.9H-1.8z"
				/>
			<path class="st1" d="M2.6,7.4H1.9H1.3v-8.1H2h0.7l2.6,5.6v-5.6H6h0.7v8.1H6H5.3L2.6,1.6V7.4z"/>
			<path class="st1" d="M9.8,7.4H9.1H8.5v-8.1h1h1l1.2,6.4h0l1.2-6.4h1h1v8.1h-0.6h-0.6V0.7h0l-1.2,6.7h-0.7H11L9.8,0.6h0V7.4z"/>
			<path class="st1" d="M16.8-0.6h0.7h2.2c0.7,0,1.3,0.2,1.6,0.7s0.6,1.1,0.6,1.9c0,0.8-0.2,1.4-0.6,1.9c-0.4,0.5-0.9,0.7-1.5,0.7
				h-1.6v2.9h-0.7h-0.7V-0.6z M18.2,3.1h1.4c0.3,0,0.5-0.1,0.7-0.3c0.2-0.2,0.2-0.5,0.2-0.9c0-0.4-0.1-0.7-0.2-0.9s-0.4-0.3-0.8-0.3
				h-1.3V3.1z"/>
		</g>
		<g>
			<path class="st1" d="M-3.9,14.7c-0.1,0.7-0.3,1.2-0.7,1.6c-0.4,0.4-0.8,0.6-1.4,0.6c-0.7,0-1.2-0.3-1.6-0.8
				c-0.4-0.6-0.6-1.3-0.6-2.2c0-0.9,0.2-1.7,0.6-2.2c0.4-0.6,0.9-0.8,1.6-0.8c0.6,0,1,0.2,1.4,0.6c0.4,0.4,0.6,0.9,0.7,1.5h-1
				c0-0.3-0.1-0.6-0.3-0.8c-0.2-0.2-0.4-0.3-0.7-0.3c-0.4,0-0.7,0.2-0.9,0.5c-0.2,0.4-0.3,0.9-0.3,1.5c0,0.6,0.1,1.1,0.3,1.5
				c0.2,0.4,0.5,0.5,0.9,0.5c0.3,0,0.5-0.1,0.7-0.3c0.2-0.2,0.3-0.5,0.3-0.8H-3.9z"/>
			<path class="st1" d="M-2.3,16c-0.4-0.6-0.6-1.3-0.6-2.2c0-0.9,0.2-1.7,0.6-2.2c0.4-0.6,1-0.8,1.7-0.8c0.7,0,1.3,0.3,1.7,0.8
				c0.4,0.6,0.6,1.3,0.6,2.2c0,0.9-0.2,1.7-0.6,2.2c-0.4,0.6-1,0.8-1.7,0.8C-1.3,16.9-1.9,16.6-2.3,16z M0.3,15.3
				c0.2-0.4,0.4-0.9,0.4-1.5c0-0.6-0.1-1.1-0.3-1.5c-0.2-0.4-0.5-0.5-0.9-0.5c-0.4,0-0.7,0.2-0.9,0.5c-0.2,0.4-0.3,0.9-0.3,1.5
				c0,0.6,0.1,1.1,0.3,1.5c0.2,0.4,0.5,0.5,0.9,0.5C-0.2,15.8,0.1,15.6,0.3,15.3z"/>
			<path class="st1" d="M3.8,16.7H3.3H2.9v-5.8h0.7h0.7l0.9,4.6h0L6,10.9h0.7h0.7v5.8H7H6.6v-4.9h0l-0.9,4.9H5.2H4.7l-0.9-4.9h0
				V16.7z"/>
			<path class="st1" d="M9.7,16.7H9.3H8.8v-5.8h0.7h0.7l0.9,4.6h0l0.8-4.6h0.7h0.7v5.8H13h-0.5v-4.9h0l-0.9,4.9h-0.5h-0.5l-0.9-4.9
				h0V16.7z"/>
			<path class="st1" d="M15.2,16c-0.4-0.6-0.6-1.3-0.6-2.2c0-0.9,0.2-1.7,0.6-2.2c0.4-0.6,1-0.8,1.7-0.8c0.7,0,1.3,0.3,1.7,0.8
				c0.4,0.6,0.6,1.3,0.6,2.2c0,0.9-0.2,1.7-0.6,2.2c-0.4,0.6-1,0.8-1.7,0.8C16.2,16.9,15.6,16.6,15.2,16z M17.8,15.3
				c0.2-0.4,0.4-0.9,0.4-1.5c0-0.6-0.1-1.1-0.3-1.5c-0.2-0.4-0.5-0.5-0.9-0.5c-0.4,0-0.7,0.2-0.9,0.5c-0.2,0.4-0.3,0.9-0.3,1.5
				c0,0.6,0.1,1.1,0.3,1.5c0.2,0.4,0.5,0.5,0.9,0.5C17.3,15.8,17.6,15.6,17.8,15.3z"/>
			<path class="st1" d="M21.3,16.7h-0.5h-0.5v-5.8h0.5h0.5l1.9,4v-4h0.5h0.5v5.8h-0.5h-0.5l-2-4.2V16.7z"/>
		</g>
	</g>
</g>
<g>
	<path class="st2" d="M28-5.8v27.5c0,3.4-2.8,6.3-6.3,6.3H-5.8c-2,0-3.7-0.9-4.9-2.3c1.1,0.9,2.4,1.4,3.9,1.4h27.5
		c3.4,0,6.3-2.8,6.3-6.3V-6.7c0-1.5-0.5-2.8-1.4-3.9C27.1-9.5,28-7.7,28-5.8z"/>
	<path class="st3" d="M26.6-9.7c-1.1-0.9-2.4-1.4-3.9-1.4H-4.8c-3.4,0-6.3,2.8-6.3,6.3v27.5c0,1.5,0.5,2.8,1.4,3.9
		c-1.4-1.1-2.3-2.9-2.3-4.9V-5.8c0-3.4,2.8-6.3,6.3-6.3h27.5C23.7-12,25.5-11.1,26.6-9.7z"/>
</g>
</svg>
