<?xml version="1.0" encoding="utf-8"?>
<!-- Generator: Adobe Illustrator 18.1.0, SVG Export Plug-In . SVG Version: 6.00 Build 0)  -->
<svg version="1.1" id="图层_1" xmlns="http://www.w3.org/2000/svg" xmlns:xlink="http://www.w3.org/1999/xlink" x="0px" y="0px"
	 width="40px" height="40px" viewBox="-12 -12 40 40" style="enable-background:new -12 -12 40 40;" xml:space="preserve">
<style type="text/css">
	.st0{fill:#1F5FA3;}
	.st1{fill:#FFFFFF;}
	.st2{opacity:0.35;}
	.st3{opacity:0.24;fill:#FFFFFF;}
</style>
<g>
	<path class="st0" d="M28,21.8c0,3.5-2.8,6.3-6.3,6.3H-5.8c-3.5,0-6.3-2.8-6.3-6.3V-5.8c0-3.5,2.8-6.3,6.3-6.3h27.5
		c3.5,0,6.3,2.8,6.3,6.3V21.8z"/>
	<g>
		<path class="st1" d="M-5,2.6h1h3.2c1.4,0,2.4,0.4,3.1,1.3c0.7,0.9,1.1,2.2,1.1,3.9c0,1.8-0.4,3.1-1.1,4.1c-0.7,1-1.8,1.5-3.1,1.5
			H-4h-1V2.6z M-2.9,11.5h2.1c0.7,0,1.2-0.3,1.6-1C1.2,9.9,1.4,9,1.4,7.9c0-1.2-0.2-2.1-0.6-2.6C0.4,4.7-0.2,4.5-1,4.5h-1.9V11.5z"
			/>
		<path class="st1" d="M5,2.6h1h3.7c1,0,1.8,0.2,2.4,0.7c0.6,0.5,0.9,1.2,0.9,2c0,0.8-0.3,1.5-0.9,2c-0.1,0.1-0.2,0.2-0.4,0.3
			c0.2,0.1,0.4,0.2,0.6,0.4c0.6,0.5,1,1.2,1,2.2c0,1-0.3,1.8-1,2.4c-0.6,0.6-1.5,0.9-2.6,0.9H6H5V2.6z M7.1,6.8h2.4
			c0.5,0,0.9-0.1,1.2-0.3C10.8,6.4,11,6.1,11,5.7c0-0.4-0.1-0.7-0.4-0.9c-0.3-0.2-0.7-0.3-1.3-0.3H7.1V6.8z M7.1,11.5h2.7
			c0.5,0,0.9-0.1,1.1-0.4c0.2-0.2,0.4-0.6,0.4-1.1c0-0.5-0.1-0.9-0.4-1.1c-0.3-0.2-0.7-0.4-1.2-0.4H7.1V11.5z"/>
		<path class="st1" d="M21.1,6.1c0,0.8-0.2,1.4-0.6,1.9c-0.4,0.5-1.1,1.2-2.1,1.9c-0.9,0.6-1.5,1.2-1.9,1.7h4.5v1.9h-6.7v0
			c0-1,0.2-1.8,0.7-2.5c0.4-0.7,1.3-1.4,2.5-2.3c0.6-0.4,1-0.8,1.3-1.2c0.2-0.3,0.3-0.7,0.3-1.2c0-0.5-0.1-0.9-0.4-1.2
			c-0.3-0.3-0.6-0.5-1-0.5c-0.5,0-0.9,0.2-1.1,0.5c-0.2,0.3-0.3,0.8-0.3,1.5h-1.9c0-1.2,0.3-2.1,0.9-2.7c0.6-0.7,1.4-1,2.5-1
			c1,0,1.8,0.3,2.4,0.9C20.8,4.3,21.1,5.1,21.1,6.1z"/>
	</g>
</g>
<g>
	<path class="st2" d="M28-5.8v27.5c0,3.4-2.8,6.3-6.3,6.3H-5.8c-2,0-3.7-0.9-4.9-2.3c1.1,0.9,2.4,1.4,3.9,1.4h27.5
		c3.4,0,6.3-2.8,6.3-6.3V-6.7c0-1.5-0.5-2.8-1.4-3.9C27.1-9.5,28-7.7,28-5.8z"/>
	<path class="st3" d="M26.6-9.7c-1.1-0.9-2.4-1.4-3.9-1.4H-4.8c-3.4,0-6.3,2.8-6.3,6.3v27.5c0,1.5,0.5,2.8,1.4,3.9
		c-1.4-1.1-2.3-2.9-2.3-4.9V-5.8c0-3.4,2.8-6.3,6.3-6.3h27.5C23.7-12,25.5-11.1,26.6-9.7z"/>
</g>
</svg>
