<?xml version="1.0" encoding="utf-8"?>
<!-- Generator: Adobe Illustrator 18.1.0, SVG Export Plug-In . SVG Version: 6.00 Build 0)  -->
<svg version="1.1" id="图层_1" xmlns="http://www.w3.org/2000/svg" xmlns:xlink="http://www.w3.org/1999/xlink" x="0px" y="0px"
	 width="40px" height="40px" viewBox="-12 -12 40 40" style="enable-background:new -12 -12 40 40;" xml:space="preserve">
<style type="text/css">
	.st0{fill:#30A5F7;}
	.st1{opacity:0.35;}
	.st2{opacity:0.24;fill:#FFFFFF;}
	.st3{fill:#FFFFFF;}
</style>
<path class="st0" d="M28,21.8c0,3.5-2.8,6.3-6.3,6.3H-5.7c-3.5,0-6.3-2.8-6.3-6.3V-5.7c0-3.5,2.8-6.3,6.3-6.3h27.5
	c3.5,0,6.3,2.8,6.3,6.3V21.8z"/>
<g>
	<path class="st1" d="M28-5.7v27.5c0,3.4-2.8,6.3-6.3,6.3H-5.7c-2,0-3.7-0.9-4.9-2.3c1.1,0.9,2.4,1.4,3.9,1.4h27.5
		c3.4,0,6.3-2.8,6.3-6.3V-6.7c0-1.5-0.5-2.8-1.4-3.9C27.1-9.5,28-7.7,28-5.7z"/>
	<path class="st2" d="M26.6-9.7c-1.1-0.9-2.4-1.4-3.9-1.4H-4.8c-3.4,0-6.3,2.8-6.3,6.3v27.5c0,1.5,0.5,2.8,1.4,3.9
		c-1.4-1.1-2.3-2.9-2.3-4.9V-5.7c0-3.4,2.8-6.3,6.3-6.3h27.5C23.7-12,25.5-11.1,26.6-9.7z"/>
</g>
<g>
	<path class="st3" d="M7.8-6.7c-7.5,0-13.5,6-13.5,13.5c0,3,0.8,5.1,2.3,7.4c1.5-2.2,4.5-1.9,4.5-1.9c-1.3,0-4.8-5.3-4.8-5.3
		s0.8-2.5,0.2-4.3s0.5-3.5,0.8-3.5s0.2,0.5,0.5,1c0,1,1.3,0.7,2,1c0.7,0,0.5-0.8,1.5-1c1,0,1.5,1.5,1.5,1.5c0,0.2,1.7,0,1.7,0
		l0.2,2.5c-2.5,2.7-1.7,3.3-2,4c0,1-2.5,0.5-2.5,0.8s-0.5,1.7-0.5,1.7c1.5-0.5,2.5,0.5,2.5,0.5s0.8-2,3.5-3.5s7.3-0.8,7.5-1.3
		s1-0.8,1-1.7c-0.3-1-0.5-4.8-0.3-4.8c0.2,0,2.5-1.3,2.2-1.5c-0.2,0.3-1-1.5-1-1.5c2.8,0.2,4.5,7.3,4.5,7.3c0,0.2-0.3,3.5-0.8,2
		s-1-1.5-1-1.5v4.3h2.8c0.3-0.8,0.3-1.5,0.3-2.5C21.3-0.7,15.3-6.7,7.8-6.7z M5.8,0.3c-0.3,0.8-0.3,0-1.3-1s-0.8,0-1.5,0.2
		C2.6-0.2,1.3-0.9,1.3-1.7s1-0.2,1.7,0c1,0.3,1.5-1,2.3-1.2c0,0,1,1.2,1,1.8C6.3-0.7,6.1-0.2,5.8,0.3z M13.6-2.2
		c-0.5,0.5-0.3,0.5-0.3,0.8c0,0.5,0,0.5,0,1.3s0,0.5-0.3,1.3s0,0-0.3,0s-0.2-0.5-0.2-1s-0.3-0.2,0-0.2c0.3-0.2-0.5-0.8-0.5-0.8
		s-0.5,0-0.8,0s-0.8-0.5-0.5-0.5c0-0.2,0-0.5,0-0.5s0.5-0.3,1.3-0.8c0.8-0.5,0-1,0-1.3s-0.5-0.5-0.5-0.5s-0.8,0.3-1.5,1
		c0,0-0.8,0-1.5,0c0,0,0,0.2,0,0s0.3-0.5,0.3-1c-0.3-0.5-0.3-0.5,0-1c0,0,1.5,0,1.7,0c0.3,0,1.5,0.2,2.5,0.5c1,0.3,0.8,0.5,0.5,1.3
		s0.5,0.5,0.5,1C13.6-2.4,14.1-2.7,13.6-2.2z M21.1,10.1L21.1,10.1L21.1,10.1L21.1,10.1z"/>
	<path class="st3" d="M21.7,11.3L21.7,11.3c0,0.4-0.3,0.9-0.8,0.9h-3.3v-2.1h3.3C21.7,10.1,21.7,10.9,21.7,11.3z"/>
	<path class="st3" d="M21.7,16.9L21.7,16.9c0,0.4-0.3,0.9-0.8,0.9h-3.3v-2.1h3.3C21.7,15.8,21.7,16.5,21.7,16.9z"/>
	<path class="st3" d="M15.6,21.8L15.6,21.8c-0.8,0-1.3-0.5-1.3-1.3V8.1c0-0.8,0.5-1.3,1.3-1.3l0,0c0.8,0,1.3,0.5,1.3,1.3v12.5
		C16.8,21.3,16.1,21.8,15.6,21.8z"/>
	<path class="st3" d="M13.1,8.6v11.3h-4c-3,0-5.5-2.2-5.5-5.5c0-1.5,0.5-3,1.5-4s2.5-1.8,4-1.8H13.1z"/>
	<path class="st3" d="M1.3,12.6v0.5c-0.2,0-0.6,0.1-1.1,0.2c-2.9,0.7-5,3.2-5.3,6.2c0,0.2,0,0.5,0,0.7c0,0.8,0.4,3.5,1.8,2.5
		c0.8-0.6-0.6-1.2,0-4c0.6-2.8,3.2-3.5,4.7-3.8v1h1.3v-1.3v-0.5v-1.5C2.6,12.6,1.3,12.6,1.3,12.6z"/>
</g>
</svg>
