<?xml version="1.0" encoding="utf-8"?>
<!-- Generator: Adobe Illustrator 18.1.0, SVG Export Plug-In . SVG Version: 6.00 Build 0)  -->
<svg version="1.1" id="图层_1" xmlns="http://www.w3.org/2000/svg" xmlns:xlink="http://www.w3.org/1999/xlink" x="0px" y="0px"
	 width="60px" height="60px" viewBox="10 -10 60 60" style="enable-background:new 10 -10 60 60;" xml:space="preserve">
<style type="text/css">
	.st0{fill:url(#SVGID_1_);}
	.st1{fill:url(#SVGID_2_);}
	.st2{fill:url(#SVGID_3_);}
	.st3{fill:url(#SVGID_4_);}
	.st4{fill:url(#SVGID_5_);}
	.st5{fill:url(#SVGID_6_);}
	.st6{fill:url(#SVGID_7_);}
	.st7{fill:url(#SVGID_8_);}
	.st8{fill:url(#SVGID_9_);}
	.st9{fill:url(#SVGID_10_);}
	.st10{fill:url(#SVGID_11_);}
	.st11{fill:url(#SVGID_12_);}
</style>
<g>
	
		<linearGradient id="SVGID_1_" gradientUnits="userSpaceOnUse" x1="-14.7193" y1="-499.3788" x2="-14.7193" y2="-440.9335" gradientTransform="matrix(0.7608 0 0 -0.7608 52.8985 -337.7274)">
		<stop  offset="1.000000e-002" style="stop-color:#6F7687"/>
		<stop  offset="0.99" style="stop-color:#A4ABB8"/>
	</linearGradient>
	<path class="st0" d="M15.7-2.2h51.9c1.3,0,2.4,1.1,2.4,2.4v28.2v9.1c0,3.6-24.4,4.7-28.3,4.7s-28.3-1.1-28.3-4.7v-8.9V0.3
		C13.4-1,14.4-2.2,15.7-2.2L15.7-2.2z"/>
	
		<linearGradient id="SVGID_2_" gradientUnits="userSpaceOnUse" x1="41.6001" y1="-1.6982" x2="41.6001" y2="34.3126" gradientTransform="matrix(1 0 0 -1 0 40)">
		<stop  offset="0" style="stop-color:#777B87"/>
		<stop  offset="1" style="stop-color:#E4E6F0"/>
	</linearGradient>
	<path class="st1" d="M69.6,35.3v2.1c0,3.6-24.1,4.6-28,4.6s-28-1-28-4.6c0-1.3,0-0.7,0-2C17.5,41,61.5,42.9,69.6,35.3L69.6,35.3z"
		/>
	
		<linearGradient id="SVGID_3_" gradientUnits="userSpaceOnUse" x1="41.6114" y1="-1.2246" x2="41.59" y2="41.9692" gradientTransform="matrix(1 0 0 -1 0 40)">
		<stop  offset="0" style="stop-color:#B7BCC9"/>
		<stop  offset="1" style="stop-color:#D6D9E8"/>
	</linearGradient>
	<path class="st2" d="M16-2h51.3c1.3,0,2.3,1,2.3,2.3v27.9v8.3c0,3.6-24.1,4.6-28,4.6s-28-1-28-4.6v-8.1v-28C13.7-0.9,14.8-2,16-2
		L16-2z"/>
	
		<linearGradient id="SVGID_4_" gradientUnits="userSpaceOnUse" x1="56.6378" y1="-770.9976" x2="79.2682" y2="-762.7609" gradientTransform="matrix(0.2229 -0.1523 -0.1467 -0.2146 -111.4484 -123.0723)">
		<stop  offset="0" style="stop-color:#8D919C"/>
		<stop  offset="1" style="stop-color:#8B8D99"/>
	</linearGradient>
	<polygon class="st3" points="18.7,27.7 13.7,31.1 13.7,34.6 18.7,31.2 	"/>
	<polygon points="18.4,2.4 65,2.4 65,32.7 18.4,32.7 	"/>
	
		<linearGradient id="SVGID_5_" gradientUnits="userSpaceOnUse" x1="-24.7723" y1="-475.5315" x2="-24.7723" y2="-437.2473" gradientTransform="matrix(0.7749 0 0 -0.7749 60.8961 -336.0894)">
		<stop  offset="0" style="stop-color:#222833"/>
		<stop  offset="1" style="stop-color:#4E5966"/>
	</linearGradient>
	<polygon class="st4" points="18.7,2.7 64.7,2.7 64.7,32.4 18.7,32.4 	"/>
	
		<linearGradient id="SVGID_6_" gradientUnits="userSpaceOnUse" x1="95.9446" y1="-800.689" x2="142.0287" y2="-734.8739" gradientTransform="matrix(0.2229 -0.1523 -0.1467 -0.2146 -105.341 -127.2319)">
		<stop  offset="7.000000e-002" style="stop-color:#171D26"/>
		<stop  offset="0.93" style="stop-color:#2B323B"/>
	</linearGradient>
	<polygon class="st5" points="44.3,10.3 18.7,27.7 18.7,31.2 45.9,12.7 49,8.7 	"/>
	
		<linearGradient id="SVGID_7_" gradientUnits="userSpaceOnUse" x1="41.7613" y1="0.8847" x2="41.6436" y2="41.9563" gradientTransform="matrix(1 0 0 -1 0 40)">
		<stop  offset="0" style="stop-color:#B7BCC9"/>
		<stop  offset="1" style="stop-color:#F7F8FC"/>
	</linearGradient>
	<path class="st6" d="M16-2h51.3c1.3,0,2.3,1,2.3,2.3c-1-1-2.5-1.3-10.4-1.3H21.9c-6.5,0-7.7,0.4-8.2,1.3C13.7-0.9,14.8-2,16-2L16-2
		z"/>
	
		<linearGradient id="SVGID_8_" gradientUnits="userSpaceOnUse" x1="2300.8394" y1="-2655.4102" x2="2300.8394" y2="-2643.2021" gradientTransform="matrix(3.350000e-002 -2.290000e-002 -2.290000e-002 -3.350000e-002 -89.353 -27.5479)">
		<stop  offset="0" style="stop-color:#8497AB"/>
		<stop  offset="0.4972" style="stop-color:#656A71"/>
		<stop  offset="1" style="stop-color:#C2CEE0"/>
	</linearGradient>
	<polygon class="st7" points="49,8.2 47.7,8.7 48,9.1 	"/>
	
		<linearGradient id="SVGID_9_" gradientUnits="userSpaceOnUse" x1="187.3478" y1="-774.1226" x2="187.3478" y2="-762.8198" gradientTransform="matrix(0.2148 -0.1468 -0.1468 -0.2148 -106.9264 -127.6664)">
		<stop  offset="0" style="stop-color:#748393"/>
		<stop  offset="0.2528" style="stop-color:#656A71"/>
		<stop  offset="0.7472" style="stop-color:#E4E4E4"/>
		<stop  offset="1" style="stop-color:#C2CEE0"/>
	</linearGradient>
	<polygon class="st8" points="47.8,8.5 43.6,9.8 43.5,9.9 45.1,12.2 45.3,12.2 48.2,9.1 	"/>
	
		<linearGradient id="SVGID_10_" gradientUnits="userSpaceOnUse" x1="100.6627" y1="-774.3496" x2="100.6627" y2="-762.5986" gradientTransform="matrix(0.2229 -0.1523 -0.1467 -0.2146 -106.297 -127.9893)">
		<stop  offset="5.617980e-003" style="stop-color:#354758"/>
		<stop  offset="0.2528" style="stop-color:#141B23"/>
		<stop  offset="0.3989" style="stop-color:#171D23"/>
		<stop  offset="0.8034" style="stop-color:#B8C0CB"/>
		<stop  offset="1" style="stop-color:#6E798B"/>
	</linearGradient>
	<polygon class="st9" points="43.6,9.8 12.5,31 14.1,33.4 45.3,12.2 	"/>
	
		<linearGradient id="SVGID_11_" gradientUnits="userSpaceOnUse" x1="12.5256" y1="6.1763" x2="11.5072" y2="7.6756" gradientTransform="matrix(1 0 0 -1 0 40)">
		<stop  offset="0" style="stop-color:#354758"/>
		<stop  offset="0.1854" style="stop-color:#141B23"/>
		<stop  offset="0.3539" style="stop-color:#171D23"/>
		<stop  offset="0.764" style="stop-color:#B8C0CB"/>
		<stop  offset="1" style="stop-color:#6E798B"/>
	</linearGradient>
	<polygon class="st10" points="13,31.3 10,33.3 11,34.8 14,32.8 	"/>
	
		<linearGradient id="SVGID_12_" gradientUnits="userSpaceOnUse" x1="20.6578" y1="11.0386" x2="19.0063" y2="13.4703" gradientTransform="matrix(1 0 0 -1 0 40)">
		<stop  offset="0" style="stop-color:#8497AB"/>
		<stop  offset="0.2416" style="stop-color:#616871"/>
		<stop  offset="0.3989" style="stop-color:#656A71"/>
		<stop  offset="0.8034" style="stop-color:#F9F9F9"/>
		<stop  offset="1" style="stop-color:#C2CEE0"/>
	</linearGradient>
	<polygon class="st11" points="25.5,22.1 12.5,31 14.1,33.4 27.2,24.5 	"/>
</g>
</svg>
