<?xml version="1.0" encoding="utf-8"?>
<!-- Generator: Adobe Illustrator 18.1.0, SVG Export Plug-In . SVG Version: 6.00 Build 0)  -->
<svg version="1.1" id="图层_1" xmlns="http://www.w3.org/2000/svg" xmlns:xlink="http://www.w3.org/1999/xlink" x="0px" y="0px"
	 width="40px" height="40px" viewBox="-12 -12 40 40" style="enable-background:new -12 -12 40 40;" xml:space="preserve">
<style type="text/css">
	.st0{fill:#E81C24;}
	.st1{fill-rule:evenodd;clip-rule:evenodd;fill:#FFFFFF;}
	.st2{opacity:0.35;}
	.st3{opacity:0.24;fill:#FFFFFF;}
</style>
<g>
	<path class="st0" d="M28,21.8c0,3.5-2.7,6.3-6.2,6.3H-5.7c-3.5,0-6.3-2.8-6.3-6.3V-5.8c0-3.5,2.9-6.3,6.3-6.3h27.5
		c3.5,0,6.2,2.8,6.2,6.3V21.8z"/>
	<g>
		<path class="st1" d="M1.9,12.2c-1,0-1.9,0-2.8,0c0-0.1,0-0.2,0-0.2c0-1.1,0-2.2,0-3.4C-1,8.5-1,8.4-1.2,8.4c-1.5,0-3.1,0-4.6,0
			c-0.1,0-0.1,0-0.2,0c0,1.3,0,2.5,0,3.8c-1,0-1.9,0-2.9,0c0-2.8,0-5.6,0-8.4c1,0,1.9,0,2.8,0C-6,3.9-6,3.9-6,4C-6,5-6,5.9-6,6.8
			C-6,7-5.9,7.1-5.8,7.1c1.5,0,3,0,4.5,0C-1,7.1-1,7-1,6.8C-1,5.9-1,5-1,4.1C-1,4-1,3.9-1,3.8c0.1,0,0.1,0,0.2,0c0.8,0,1.6,0,2.5,0
			c0.2,0,0.2,0,0.2,0.2c0,2.7,0,5.4,0,8C1.9,12.1,1.9,12.1,1.9,12.2z"/>
		<path class="st1" d="M25,3.8c0,0.4,0,0.9,0,1.3c0,0-0.1,0.1-0.2,0.1c-0.7,0-1.5,0-2.2,0c-0.8,0-1.6,0-2.4,0
			c-0.7,0-1.4,0.2-1.9,0.7c-0.8,0.7-1,1.6-0.8,2.7c0.1,0.6,0.4,1.2,0.8,1.7c0.4,0.4,0.9,0.6,1.5,0.6c1.7,0,3.3,0,5,0
			c0.3,0,0.3,0,0.3,0.3c0,0.4,0,0.7,0,1.1c-0.1,0-0.2,0-0.2,0c-1.6,0-3.3,0-4.9,0c-0.9,0-1.8-0.1-2.6-0.3c-2.1-0.5-3.3-2.1-3.3-4.3
			c0-0.5,0.1-1.1,0.3-1.6c0.4-0.9,1.1-1.4,2-1.7c0.9-0.4,1.9-0.6,2.9-0.6c1.9,0,3.8,0,5.7,0C24.9,3.8,24.9,3.8,25,3.8z"/>
		<path class="st1" d="M10.5,7.8c0.3,0.1,0.6,0.1,0.8,0.2c0.3,0.1,0.6,0.2,0.9,0.3c0.7,0.3,0.9,0.9,0.8,1.6c0,0.2-0.1,0.5-0.2,0.7
			c-0.3,0.7-0.8,1.1-1.5,1.3c-0.5,0.1-1,0.2-1.6,0.2c-2.3,0-4.6,0-6.8-0.1c0,0-0.1,0-0.1,0c0-0.3,0-0.6,0-1c0.1,0,0.2,0,0.2,0
			c1.6,0,3.3,0,4.9,0c0.3,0,0.7,0,1-0.1c0.8-0.2,1.2-0.9,1-1.7C9.8,9,9.6,8.8,9.2,8.7C8.8,8.6,8.5,8.5,8.1,8.4c-1.2,0-2.5,0-3.7,0
			c-0.1,0-0.2,0-0.3,0c0-0.4,0-0.8,0-1.1c0.1,0,0.2,0,0.2,0c1.3,0,2.5,0,3.8,0c0.3,0,0.5,0,0.8-0.1c0.5-0.1,0.8-0.5,0.8-1
			c0-0.5-0.3-0.9-0.8-1.1C8.6,5,8.3,4.9,8,4.9c-1.6,0-3.1,0-4.7,0c-0.1,0-0.2,0-0.3,0c0-0.4,0-0.7,0-1.1c0.2,0,0.5,0,0.7,0
			c1.8,0,3.7,0,5.5,0c0.8,0,1.6,0.1,2.3,0.5c0.6,0.2,1,0.6,1,1.3c0.1,0.9-0.3,1.5-1.1,1.9C11.2,7.6,10.9,7.7,10.5,7.8z"/>
	</g>
</g>
<g>
	<path class="st2" d="M28-5.8v27.5c0,3.4-2.8,6.3-6.3,6.3H-5.8c-2,0-3.7-0.9-4.9-2.3c1.1,0.9,2.4,1.4,3.9,1.4h27.5
		c3.4,0,6.3-2.8,6.3-6.3V-6.7c0-1.5-0.5-2.8-1.4-3.9C27.1-9.5,28-7.7,28-5.8z"/>
	<path class="st3" d="M26.6-9.7c-1.1-0.9-2.4-1.4-3.9-1.4H-4.8c-3.4,0-6.3,2.8-6.3,6.3v27.5c0,1.5,0.5,2.8,1.4,3.9
		c-1.4-1.1-2.3-2.9-2.3-4.9V-5.8c0-3.4,2.8-6.3,6.3-6.3h27.5C23.7-12,25.5-11.1,26.6-9.7z"/>
</g>
</svg>
