<?xml version="1.0" encoding="utf-8"?>
<!-- Generator: Adobe Illustrator 18.1.0, SVG Export Plug-In . SVG Version: 6.00 Build 0)  -->
<svg version="1.1" id="图层_1" xmlns="http://www.w3.org/2000/svg" xmlns:xlink="http://www.w3.org/1999/xlink" x="0px" y="0px"
	 width="40px" height="40px" viewBox="-12 -12 40 40" style="enable-background:new -12 -12 40 40;" xml:space="preserve">
<style type="text/css">
	.st0{fill:#42C638;}
	.st1{fill:#FFFFFF;}
	.st2{opacity:0.35;}
	.st3{opacity:0.24;fill:#FFFFFF;}
</style>
<path class="st0" d="M28,21.8c0,3.5-2.8,6.3-6.3,6.3H-5.8c-3.5,0-6.3-2.8-6.3-6.3V-5.8c0-3.5,2.8-6.3,6.3-6.3h27.5
	c3.5,0,6.3,2.8,6.3,6.3V21.8z"/>
<path class="st1" d="M20.5,0.6v-3.4c0-0.8-0.4-1.5-1.3-1.5h-3.8V-2h-1.7v-2.5H12v2.3h-1.7v-2.3H8.6v2.3H6.9v-2.3H5.2v2.3H3.6v-2.3
	H1.9v2.3H0.2v-2.3h-2.8c-0.8,0-1.7,0.6-1.7,1.5v3.6H-2v1.7h-2.5V4h2.3v1.7h-2.3v1.7h2.3V9h-2.3v1.7h2.3v1.7h-2.3v1.7h2.3v1.7h-2.3v3
	c0,0.8,0.8,1.5,1.7,1.5h2.8v-2.3h1.7v2.3h1.7v-2.3H5v2.3h1.7v-2.3h1.7v2.3h1.7v-2.3h1.7v2.3h1.7v-2.3h1.7v2.3H19
	c0.8,0,1.3-0.6,1.3-1.5v-3H18v-1.7h2.3v-1.7H18v-1.7h2.3V9H18V7.3h2.3V5.7H18V4h2.3V2.3H18V0.6H20.5z"/>
<g>
	<path class="st2" d="M28-5.8v27.5c0,3.4-2.8,6.3-6.3,6.3H-5.8c-2,0-3.7-0.9-4.9-2.3c1.1,0.9,2.4,1.4,3.9,1.4h27.5
		c3.4,0,6.3-2.8,6.3-6.3V-6.7c0-1.5-0.5-2.8-1.4-3.9C27.1-9.5,28-7.7,28-5.8z"/>
	<path class="st3" d="M26.6-9.7c-1.1-0.9-2.4-1.4-3.9-1.4H-4.8c-3.4,0-6.3,2.8-6.3,6.3v27.5c0,1.5,0.5,2.8,1.4,3.9
		c-1.4-1.1-2.3-2.9-2.3-4.9V-5.8c0-3.4,2.8-6.3,6.3-6.3h27.5C23.7-12,25.5-11.1,26.6-9.7z"/>
</g>
<g>
	<path class="st0" d="M5.2,8.8c-0.1,0.6-0.3,1.1-0.7,1.4c-0.4,0.3-0.8,0.5-1.4,0.5c-0.7,0-1.2-0.2-1.6-0.7C1,9.5,0.8,8.8,0.8,8
		c0-0.8,0.2-1.5,0.6-2c0.4-0.5,1-0.7,1.6-0.7c0.6,0,1,0.2,1.4,0.5c0.4,0.3,0.6,0.8,0.7,1.4h-1c0-0.3-0.1-0.5-0.3-0.7
		C3.6,6.3,3.4,6.2,3.1,6.2c-0.4,0-0.7,0.2-0.9,0.5C2,7,1.9,7.4,1.9,8c0,0.6,0.1,1,0.3,1.3c0.2,0.3,0.5,0.5,0.9,0.5
		c0.3,0,0.5-0.1,0.7-0.3C4,9.4,4.1,9.1,4.1,8.8H5.2z"/>
	<path class="st0" d="M6.3,5.4h0.5h1.6c0.5,0,0.9,0.1,1.2,0.4s0.4,0.7,0.4,1.2c0,0.5-0.1,0.9-0.4,1.2S9,8.7,8.5,8.7H7.4v1.9H6.9H6.3
		V5.4z M7.4,7.8h1c0.2,0,0.4-0.1,0.5-0.2C9,7.5,9.1,7.3,9.1,7.1c0-0.3-0.1-0.5-0.2-0.6S8.6,6.3,8.3,6.3h-1V7.8z"/>
	<path class="st0" d="M15.2,8.8c0,0.6-0.2,1.1-0.5,1.4s-0.8,0.5-1.5,0.5c-0.6,0-1.1-0.2-1.4-0.5s-0.5-0.8-0.5-1.4V5.4h0.5h0.5v3.4
		c0,0.3,0.1,0.6,0.2,0.8c0.2,0.2,0.4,0.3,0.7,0.3c0.3,0,0.5-0.1,0.7-0.3s0.2-0.4,0.2-0.8V5.4h0.5h0.5V8.8z"/>
</g>
</svg>
