<?xml version="1.0" encoding="utf-8"?>
<!-- Generator: Adobe Illustrator 18.1.0, SVG Export Plug-In . SVG Version: 6.00 Build 0)  -->
<svg version="1.1" id="图层_1" xmlns="http://www.w3.org/2000/svg" xmlns:xlink="http://www.w3.org/1999/xlink" x="0px" y="0px"
	 width="40px" height="40px" viewBox="-12 -12 40 40" style="enable-background:new -12 -12 40 40;" xml:space="preserve">
<style type="text/css">
	.st0{fill:#2376B9;}
	.st1{fill-rule:evenodd;clip-rule:evenodd;fill:#FFFFFF;}
	.st2{opacity:0.35;}
	.st3{opacity:0.24;fill:#FFFFFF;}
</style>
<g>
	<path class="st0" d="M28,21.8c0,3.5-2.8,6.3-6.3,6.3H-5.8c-3.5,0-6.3-2.8-6.3-6.3V-5.8c0-3.5,2.8-6.3,6.3-6.3h27.5
		c3.5,0,6.3,2.8,6.3,6.3V21.8z"/>
	<g>
		<g>
			<path class="st1" d="M17.5,7.4c0.1-0.2,0.1-0.4,0.2-0.6c0-0.1,0.2-0.2,0.3-0.2c1.6,0,3.3,0,4.9,0c0.2,0,0.2,0.1,0.2,0.2
				c0,0.6,0,0.6-0.6,0.6c-0.6,0-1.3,0-1.9,0c-0.2,0-0.3-0.1-0.3-0.3c0-0.1,0-0.2,0-0.4c0,0,0,0-0.1,0c0,0.1-0.1,0.2-0.1,0.4
				c-0.1,0.2-0.2,0.3-0.4,0.3c-1.5,0-3,0-4.5,0c-0.2,0-0.3-0.1-0.4-0.3c0-0.1-0.1-0.2-0.2-0.4c0,0.1,0,0.3,0,0.4
				c0,0.2,0,0.2-0.2,0.2c-0.8,0-1.6,0-2.4,0c-0.1,0-0.2,0-0.2-0.2c0-0.8-0.1-0.7,0.6-0.7c1.5,0,2.9,0,4.4,0c0.3,0,0.4,0.1,0.5,0.3
				C17.3,7.1,17.4,7.3,17.5,7.4C17.5,7.4,17.5,7.4,17.5,7.4z"/>
			<path class="st1" d="M9,3.9c-0.3,0-0.6,0-0.8,0c-3.1,0-6.2,0-9.3,0c-0.3,0-0.3-0.1-0.3-0.3C-1.4,2.9-1.5,3-0.9,3
				c3.1,0,6.2,0,9.3,0c0.3,0,0.5,0.1,0.5,0.4C8.9,3.6,9,3.7,9,3.9z"/>
			<path class="st1" d="M3.8,12.1c1.6,0,3.3,0,4.9,0c0.3,0,0.3,0,0.2,0.3C8.8,13,8.8,13,8.2,13c-3.1,0-6.2,0-9.3,0
				c-0.2,0-0.3-0.1-0.3-0.3c0-0.7-0.1-0.6,0.6-0.6C0.7,12.1,2.2,12.1,3.8,12.1z"/>
			<path class="st1" d="M7.9,13.9c-0.6,0.5-1.2,0.8-1.9,0.8c-0.5,0-1,0.1-1.5,0.1c-1.9,0-3.8,0-5.6,0c-0.2,0-0.3-0.1-0.3-0.3
				c0-0.7-0.1-0.6,0.6-0.6c2.8,0,5.6,0,8.4,0C7.7,13.9,7.8,13.9,7.9,13.9z"/>
			<path class="st1" d="M7.8,2.1c-0.2,0-0.5,0-0.7,0c-2.7,0-5.5,0-8.2,0c-0.4,0-0.4,0-0.4-0.4c0-0.5,0-0.5,0.5-0.5
				c2.1,0,4.2,0,6.3,0c0.7,0,1.4,0.1,2,0.5C7.5,1.8,7.7,1.9,7.8,2.1C7.9,2.1,7.8,2.1,7.8,2.1z"/>
			<path class="st1" d="M8.5,9.4c-2.7,0-5.2,0-7.8,0c-0.2,0-0.3-0.1-0.3-0.3c0-0.7,0-0.7,0.7-0.7c2.1,0,4.1,0,6.2,0
				c0.3,0,0.5,0.1,0.7,0.3C8.2,9,8.4,9.1,8.5,9.4z"/>
			<path class="st1" d="M8.5,6.7C8.3,7,8,7.2,7.8,7.5C7.7,7.5,7.6,7.5,7.5,7.5c-2.3,0-4.5,0-6.8,0c-0.2,0-0.3,0-0.3-0.2
				c0-0.6,0-0.6,0.6-0.6c2.4,0,4.9,0,7.3,0C8.4,6.7,8.4,6.7,8.5,6.7z"/>
			<path class="st1" d="M-5.7,1.2c1,0,2,0,3,0c0.2,0,0.3,0,0.3,0.3c0,0.6,0,0.6-0.6,0.6c-1.9,0-3.8,0-5.6,0c-0.3,0-0.4,0-0.3-0.3
				c0-0.5,0-0.6,0.5-0.6C-7.6,1.2-6.6,1.2-5.7,1.2z"/>
			<path class="st1" d="M-5.7,12.1c1,0,2,0,3,0c0.2,0,0.3,0.1,0.3,0.3c0,0.6,0,0.6-0.6,0.6c-1.9,0-3.8,0-5.7,0C-9,13-9,12.9-9,12.7
				c0-0.6,0-0.6,0.6-0.6C-7.6,12.1-6.6,12.1-5.7,12.1z"/>
			<path class="st1" d="M-5.7,3.9c-1,0-2,0-3.1,0C-9,3.9-9,3.9-9,3.7C-9,3-9,3-8.4,3c1.9,0,3.8,0,5.7,0c0.2,0,0.3,0.1,0.3,0.3
				c0,0.6,0,0.6-0.6,0.6C-3.9,3.9-4.8,3.9-5.7,3.9z"/>
			<path class="st1" d="M-5.7,13.9c1,0,2,0,2.9,0c0.2,0,0.3,0,0.3,0.3c0,0.6,0,0.6-0.6,0.6c-1.9,0-3.8,0-5.7,0
				C-9,14.8-9,14.7-9,14.5c0-0.6,0-0.6,0.5-0.6C-7.6,13.9-6.6,13.9-5.7,13.9C-5.7,13.9-5.7,13.9-5.7,13.9z"/>
			<path class="st1" d="M16.2,3.9c-0.1,0-0.2,0-0.2,0c-1.9,0-3.8,0-5.7,0c-0.3,0-0.3-0.1-0.3-0.3C9.9,3,9.9,3,10.5,3
				c1.7,0,3.4,0,5.1,0c0.2,0,0.3,0.1,0.4,0.3C16,3.5,16.1,3.7,16.2,3.9z"/>
			<path class="st1" d="M18.8,3.9C18.9,3.6,19,3.4,19,3.1c0-0.1,0.1-0.1,0.2-0.1c1.9,0,3.7,0,5.6,0C25,3,25,3.1,25,3.2
				c0,0.7,0,0.7-0.6,0.7c-1.7,0-3.4,0-5.2,0C19.1,3.9,19,3.9,18.8,3.9z"/>
			<path class="st1" d="M15.5,2.1c-0.1,0-0.2,0-0.2,0c-1.7,0-3.4,0-5,0C10,2.1,9.9,2,9.9,1.8c0-0.6,0-0.6,0.5-0.6c1.5,0,3,0,4.5,0
				c0.2,0,0.3,0.1,0.4,0.3C15.4,1.7,15.4,1.9,15.5,2.1z"/>
			<path class="st1" d="M19.5,2.1C19.4,2,19.4,2,19.5,2.1c0.2-0.9,0.2-0.9,1-0.9c1.4,0,2.8,0,4.2,0c0.2,0,0.3,0.1,0.3,0.3
				c0,0.6,0,0.6-0.6,0.6c-1.5,0-3,0-4.5,0C19.8,2.1,19.6,2.1,19.5,2.1z"/>
			<path class="st1" d="M16.8,5.7c-0.1,0-0.2,0-0.3,0c-1.5,0-3,0-4.4,0c-0.2,0-0.3-0.1-0.3-0.3c0-0.2,0-0.4,0-0.6c0.1,0,0.2,0,0.3,0
				c1.4,0,2.8,0,4.2,0c0.2,0,0.3,0.1,0.3,0.2C16.7,5.3,16.7,5.5,16.8,5.7z"/>
			<path class="st1" d="M18.1,5.7c0.1-0.3,0.2-0.5,0.3-0.7c0-0.1,0.1-0.1,0.2-0.1c1.4,0,2.9,0,4.3,0c0.2,0,0.2,0.1,0.2,0.2
				c0,0.7,0,0.7-0.6,0.7c-1.3,0-2.7,0-4,0C18.4,5.7,18.3,5.7,18.1,5.7z"/>
			<path class="st1" d="M12.3,13c-0.7,0-1.4,0-2.1,0c-0.2,0-0.3-0.1-0.3-0.3c0-0.6,0-0.6,0.6-0.6c1.3,0,2.5,0,3.8,0
				c0.2,0,0.3,0,0.3,0.3c0,0.6,0,0.6-0.6,0.6C13.4,13,12.9,13,12.3,13z"/>
			<path class="st1" d="M12.3,14.8c-0.7,0-1.4,0-2.1,0c-0.2,0-0.3-0.1-0.3-0.3c0-0.6,0-0.6,0.6-0.6c1.2,0,2.5,0,3.7,0
				c0.3,0,0.3,0,0.3,0.4c0,0.5,0,0.5-0.5,0.5C13.5,14.8,12.9,14.8,12.3,14.8z"/>
			<path class="st1" d="M22.7,14.8c-0.7,0-1.4,0-2.1,0c-0.2,0-0.3,0-0.3-0.3c0-0.6,0-0.6,0.6-0.6c1.2,0,2.5,0,3.7,0
				c0.3,0,0.4,0.1,0.4,0.3c0,0.5,0,0.5-0.6,0.5C23.9,14.8,23.3,14.8,22.7,14.8C22.7,14.8,22.7,14.8,22.7,14.8z"/>
			<path class="st1" d="M22.7,13c-0.7,0-1.4,0-2.1,0c-0.2,0-0.2,0-0.3-0.2c0-0.6,0-0.6,0.6-0.6c1.3,0,2.5,0,3.8,0
				c0.2,0,0.3,0.1,0.3,0.3c0,0.6,0,0.6-0.6,0.6C23.8,13,23.2,13,22.7,13z"/>
			<path class="st1" d="M19.7,8.5C19.7,8.5,19.7,8.5,19.7,8.5c-0.2,0.9-0.2,0.9-1.1,0.9c-0.9,0-1.8,0-2.7,0c-0.2,0-0.3-0.1-0.4-0.2
				c-0.1-0.2-0.1-0.4-0.2-0.7C16.7,8.5,18.2,8.5,19.7,8.5z"/>
			<path class="st1" d="M13.2,9.4c-0.4,0-0.8,0-1.2,0c-0.2,0-0.2,0-0.2-0.2c0-0.7,0-0.7,0.7-0.7c0.6,0,1.2,0,1.9,0
				c0.2,0,0.2,0.1,0.2,0.2c0,0.7,0,0.7-0.7,0.7C13.7,9.4,13.5,9.4,13.2,9.4C13.2,9.4,13.2,9.4,13.2,9.4z"/>
			<path class="st1" d="M21.7,8.4c0.4,0,0.7,0,1.1,0c0.2,0,0.3,0,0.3,0.2c0,0.7,0,0.7-0.7,0.7c-0.6,0-1.2,0-1.9,0
				c-0.2,0-0.3,0-0.3-0.3c0-0.7,0-0.7,0.6-0.7C21.2,8.4,21.5,8.4,21.7,8.4z"/>
			<path class="st1" d="M6.1,10.3c0.3,0,0.5,0,0.7,0c0.7,0,1.3,0,2,0c0.1,0,0.2,0,0.2,0.2c0,0,0,0,0,0c0.2,0.6,0.1,0.7-0.5,0.7
				c-0.7,0-1.4,0-2.1,0c-0.2,0-0.3-0.1-0.3-0.3C6.1,10.7,6.1,10.5,6.1,10.3z"/>
			<path class="st1" d="M9.1,4.9C9.1,5.1,9,5.4,9,5.6c0,0.1-0.1,0.1-0.2,0.1c-0.8,0-1.6,0-2.5,0c-0.1,0-0.2-0.1-0.2-0.2
				c0-0.7,0-0.7,0.6-0.7c0.7,0,1.3,0,2,0C8.9,4.9,9,4.9,9.1,4.9z"/>
			<path class="st1" d="M-4.4,8.4c0,0.3,0,0.5,0,0.8c0,0.1-0.1,0.2-0.2,0.2c-0.8,0-1.6,0-2.4,0c-0.1,0-0.2-0.1-0.2-0.2
				c-0.1-0.7-0.1-0.7,0.7-0.7C-5.8,8.5-5.1,8.4-4.4,8.4z"/>
			<path class="st1" d="M19.1,10.3c-0.1,0.3-0.2,0.5-0.3,0.7c0,0.1-0.1,0.1-0.2,0.1c-0.7,0-1.5,0-2.2,0c-0.1,0-0.2-0.1-0.2-0.1
				c-0.1-0.2-0.2-0.4-0.3-0.7C16.9,10.3,18,10.3,19.1,10.3z"/>
			<path class="st1" d="M0.5,4.9c0.3,0,0.5,0,0.8,0c0.6,0,1.2,0,1.8,0c0.2,0,0.2,0,0.2,0.2c0,0.8,0.1,0.6-0.6,0.7
				c-0.6,0-1.3,0-1.9,0c-0.2,0-0.3,0-0.2-0.2C0.5,5.3,0.5,5.1,0.5,4.9z"/>
			<path class="st1" d="M1.9,10.3c0.4,0,0.8,0,1.1,0c0.2,0,0.3,0,0.3,0.2c0,0.8,0.1,0.6-0.6,0.6c-0.6,0-1.3,0-1.9,0
				c-0.2,0-0.3-0.1-0.3-0.3c0-0.6,0-0.6,0.6-0.6C1.3,10.3,1.6,10.3,1.9,10.3z"/>
			<path class="st1" d="M13.2,10.3c0.4,0,0.8,0,1.2,0c0.2,0,0.2,0,0.2,0.2c0,0.8,0.1,0.7-0.6,0.7c-0.6,0-1.3,0-1.9,0
				c-0.2,0-0.3-0.1-0.3-0.3c0-0.6,0-0.6,0.6-0.6C12.7,10.3,12.9,10.3,13.2,10.3C13.2,10.3,13.2,10.3,13.2,10.3z"/>
			<path class="st1" d="M21.7,10.3c0.4,0,0.8,0,1.2,0c0.2,0,0.3,0,0.2,0.2c0,0.8,0.1,0.6-0.6,0.6c-0.6,0-1.3,0-1.9,0
				c-0.2,0-0.3-0.1-0.3-0.3c0-0.6,0-0.6,0.6-0.6C21.2,10.3,21.5,10.3,21.7,10.3z"/>
			<path class="st1" d="M-5.7,5.7c-0.4,0-0.8,0-1.2,0c-0.2,0-0.2,0-0.2-0.2c0-0.8-0.1-0.6,0.6-0.6c0.6,0,1.3,0,1.9,0
				c0.2,0,0.2,0.1,0.2,0.2c0,0.6,0,0.6-0.6,0.6C-5.2,5.7-5.5,5.7-5.7,5.7z"/>
			<path class="st1" d="M-5.7,10.3c0.4,0,0.7,0,1.1,0c0.2,0,0.3,0.1,0.3,0.3c0,0.7,0.1,0.6-0.6,0.6c-0.6,0-1.2,0-1.8,0
				c-0.2,0-0.3-0.1-0.3-0.3c0-0.6,0-0.6,0.6-0.6C-6.3,10.3-6,10.3-5.7,10.3C-5.7,10.3-5.7,10.3-5.7,10.3z"/>
			<path class="st1" d="M-4.4,7.5c-0.9,0-1.8,0-2.7,0c-0.2-0.9-0.2-0.9,0.7-0.9c0.6,0,1.2,0,1.8,0c0.2,0,0.3,0.1,0.3,0.3
				C-4.4,7.1-4.4,7.3-4.4,7.5z"/>
			<path class="st1" d="M16.5,12.1c0.6,0,1.3,0,1.9,0c-0.1,0.3-0.2,0.5-0.3,0.7c0,0.1-0.1,0.1-0.2,0.1c-0.3,0-0.6,0-1,0
				c-0.1,0-0.2-0.1-0.2-0.1C16.7,12.6,16.6,12.4,16.5,12.1z"/>
			<path class="st1" d="M17.4,14.8c-0.1-0.3-0.2-0.5-0.3-0.8c0.2,0,0.4,0,0.6,0C17.7,14.2,17.6,14.5,17.4,14.8
				C17.5,14.8,17.5,14.8,17.4,14.8z"/>
		</g>
	</g>
</g>
<g>
	<path class="st2" d="M28-5.8v27.5c0,3.4-2.8,6.3-6.3,6.3H-5.8c-2,0-3.7-0.9-4.9-2.3c1.1,0.9,2.4,1.4,3.9,1.4h27.5
		c3.4,0,6.3-2.8,6.3-6.3V-6.7c0-1.5-0.5-2.8-1.4-3.9C27.1-9.5,28-7.7,28-5.8z"/>
	<path class="st3" d="M26.6-9.7c-1.1-0.9-2.4-1.4-3.9-1.4H-4.8c-3.4,0-6.3,2.8-6.3,6.3v27.5c0,1.5,0.5,2.8,1.4,3.9
		c-1.4-1.1-2.3-2.9-2.3-4.9V-5.8c0-3.4,2.8-6.3,6.3-6.3h27.5C23.7-12,25.5-11.1,26.6-9.7z"/>
</g>
</svg>
