<?xml version="1.0" encoding="utf-8"?>
<!-- Generator: Adobe Illustrator 18.1.0, SVG Export Plug-In . SVG Version: 6.00 Build 0)  -->
<svg version="1.1" id="图层_1" xmlns="http://www.w3.org/2000/svg" xmlns:xlink="http://www.w3.org/1999/xlink" x="0px" y="0px"
	 width="40px" height="40px" viewBox="-12 -12 40 40" style="enable-background:new -12 -12 40 40;" xml:space="preserve">
<style type="text/css">
	.st0{fill:#2499B9;}
	.st1{fill:#FFFFFF;}
	.st2{fill-rule:evenodd;clip-rule:evenodd;fill:#FFFFFF;}
	.st3{opacity:0.35;}
	.st4{opacity:0.24;fill:#FFFFFF;}
</style>
<g>
	<path class="st0" d="M28,21.7c0,3.5-2.8,6.3-6.3,6.3H-5.8c-3.5,0-6.3-2.8-6.3-6.3V-5.8c0-3.5,2.8-6.2,6.3-6.2h27.5
		c3.5,0,6.3,2.8,6.3,6.2V21.7z"/>
	<g>
		<g>
			<path class="st1" d="M-2.8,15.1h0.6h0.6l1.2,4.2h0l1.2-4.2h0.6H2l-1.8,5.5h-0.5h-0.5L-2.8,15.1z"/>
			<path class="st1" d="M3.1,20.5c0.1-0.8,0.3-1.6,0.7-2.4c0.3-0.7,0.8-1.4,1.3-2H2.3v-0.9h3.8v0.4V16c-0.5,0.6-1,1.3-1.3,2.1
				c-0.3,0.8-0.6,1.6-0.6,2.4H3.1z"/>
			<path class="st1" d="M7.1,20c-0.3-0.4-0.5-1.1-0.5-2.1c0-1,0.2-1.7,0.5-2.1c0.3-0.5,0.8-0.7,1.4-0.7c0.6,0,1.1,0.2,1.4,0.7
				c0.3,0.5,0.5,1.2,0.5,2.1v0c0,0.9-0.1,1.6-0.5,2.1c-0.3,0.4-0.8,0.7-1.4,0.7C7.8,20.7,7.4,20.4,7.1,20z M9.1,19.4
				c0.1-0.3,0.2-0.8,0.2-1.5c0-0.7-0.1-1.2-0.2-1.5C9,16.1,8.8,16,8.5,16c-0.3,0-0.5,0.1-0.6,0.4c-0.1,0.3-0.2,0.8-0.2,1.5
				c0,0.7,0.1,1.2,0.2,1.5c0.1,0.3,0.3,0.4,0.6,0.4C8.8,19.8,9,19.7,9.1,19.4z"/>
			<path class="st1" d="M11.3,20c-0.3-0.4-0.5-1.1-0.5-2.1c0-1,0.2-1.7,0.5-2.1c0.3-0.5,0.8-0.7,1.4-0.7c0.6,0,1.1,0.2,1.4,0.7
				c0.3,0.5,0.5,1.2,0.5,2.1v0c0,0.9-0.1,1.6-0.5,2.1c-0.3,0.4-0.8,0.7-1.4,0.7C12.1,20.7,11.6,20.4,11.3,20z M13.3,19.4
				c0.1-0.3,0.2-0.8,0.2-1.5c0-0.7-0.1-1.2-0.2-1.5C13.2,16.1,13,16,12.7,16c-0.3,0-0.5,0.1-0.6,0.4c-0.1,0.3-0.2,0.8-0.2,1.5
				c0,0.7,0.1,1.2,0.2,1.5c0.1,0.3,0.3,0.4,0.6,0.4C13,19.8,13.2,19.7,13.3,19.4z"/>
			<path class="st1" d="M15.5,20c-0.3-0.4-0.5-1.1-0.5-2.1c0-1,0.2-1.7,0.5-2.1c0.3-0.5,0.8-0.7,1.4-0.7c0.6,0,1.1,0.2,1.4,0.7
				c0.3,0.5,0.5,1.2,0.5,2.1v0c0,0.9-0.1,1.6-0.5,2.1c-0.3,0.4-0.8,0.7-1.4,0.7C16.3,20.7,15.8,20.4,15.5,20z M17.5,19.4
				c0.1-0.3,0.2-0.8,0.2-1.5c0-0.7-0.1-1.2-0.2-1.5c-0.1-0.3-0.3-0.4-0.6-0.4c-0.3,0-0.5,0.1-0.6,0.4c-0.1,0.3-0.2,0.8-0.2,1.5
				c0,0.7,0.1,1.2,0.2,1.5c0.1,0.3,0.3,0.4,0.6,0.4C17.2,19.8,17.4,19.7,17.5,19.4z"/>
		</g>
		<g>
			<path class="st2" d="M17.5,1.6c0.1-0.2,0.1-0.4,0.2-0.6c0-0.1,0.2-0.2,0.3-0.2c1.6,0,3.3,0,4.9,0c0.2,0,0.2,0.1,0.2,0.2
				c0,0.6,0,0.6-0.6,0.6c-0.6,0-1.3,0-1.9,0c-0.2,0-0.3-0.1-0.3-0.3c0-0.1,0-0.2,0-0.4c0,0,0,0-0.1,0c0,0.1-0.1,0.2-0.1,0.4
				c-0.1,0.2-0.2,0.3-0.4,0.3c-1.5,0-3,0-4.5,0c-0.2,0-0.3-0.1-0.4-0.3c0-0.1-0.1-0.2-0.2-0.4c0,0.1,0,0.3,0,0.4
				c0,0.2,0,0.2-0.2,0.2c-0.8,0-1.6,0-2.4,0c-0.1,0-0.2,0-0.2-0.2c0-0.8-0.1-0.7,0.6-0.7c1.5,0,2.9,0,4.4,0c0.3,0,0.4,0.1,0.5,0.3
				C17.3,1.3,17.4,1.4,17.5,1.6C17.5,1.6,17.5,1.6,17.5,1.6z"/>
			<path class="st2" d="M9-2C8.7-2,8.5-2,8.2-2C5.1-2,2-2-1.1-2C-1.4-2-1.4-2-1.4-2.3c0-0.7-0.1-0.5,0.5-0.5c3.1,0,6.2,0,9.3,0
				c0.3,0,0.5,0.1,0.5,0.4C8.9-2.3,9-2.1,9-2z"/>
			<path class="st2" d="M3.8,6.2c1.6,0,3.3,0,4.9,0c0.3,0,0.3,0,0.2,0.3C8.8,7.1,8.8,7.1,8.2,7.1c-3.1,0-6.2,0-9.3,0
				c-0.2,0-0.3-0.1-0.3-0.3c0-0.7-0.1-0.6,0.6-0.6C0.7,6.2,2.2,6.2,3.8,6.2z"/>
			<path class="st2" d="M7.9,8C7.3,8.5,6.7,8.8,6,8.8c-0.5,0-1,0.1-1.5,0.1c-1.9,0-3.8,0-5.6,0c-0.2,0-0.3-0.1-0.3-0.3
				C-1.4,7.9-1.5,8-0.8,8C2,8,4.8,8,7.6,8C7.7,8,7.8,8,7.9,8z"/>
			<path class="st2" d="M7.8-3.8c-0.2,0-0.5,0-0.7,0c-2.7,0-5.5,0-8.2,0c-0.4,0-0.4,0-0.4-0.4c0-0.5,0-0.5,0.5-0.5
				c2.1,0,4.2,0,6.3,0c0.7,0,1.4,0.1,2,0.5C7.5-4.1,7.7-4,7.8-3.8C7.9-3.8,7.8-3.8,7.8-3.8z"/>
			<path class="st2" d="M8.5,3.5c-2.7,0-5.2,0-7.8,0c-0.2,0-0.3-0.1-0.3-0.3c0-0.7,0-0.7,0.7-0.7c2.1,0,4.1,0,6.2,0
				c0.3,0,0.5,0.1,0.7,0.3C8.2,3.1,8.4,3.3,8.5,3.5z"/>
			<path class="st2" d="M8.5,0.8C8.3,1.1,8,1.4,7.8,1.6C7.7,1.7,7.6,1.7,7.5,1.7c-2.3,0-4.5,0-6.8,0c-0.2,0-0.3,0-0.3-0.2
				c0-0.6,0-0.6,0.6-0.6c2.4,0,4.9,0,7.3,0C8.4,0.8,8.4,0.8,8.5,0.8z"/>
			<path class="st2" d="M-5.7-4.7c1,0,2,0,3,0c0.2,0,0.3,0,0.3,0.3c0,0.6,0,0.6-0.6,0.6c-1.9,0-3.8,0-5.6,0c-0.3,0-0.4,0-0.3-0.3
				c0-0.5,0-0.6,0.5-0.6C-7.6-4.7-6.6-4.7-5.7-4.7z"/>
			<path class="st2" d="M-5.7,6.2c1,0,2,0,3,0c0.2,0,0.3,0.1,0.3,0.3c0,0.6,0,0.6-0.6,0.6c-1.9,0-3.8,0-5.7,0C-9,7.1-9,7-9,6.8
				c0-0.6,0-0.6,0.6-0.6C-7.6,6.2-6.6,6.2-5.7,6.2z"/>
			<path class="st2" d="M-5.7-2c-1,0-2,0-3.1,0C-9-2-9-2-9-2.2c0-0.6,0-0.6,0.6-0.6c1.9,0,3.8,0,5.7,0c0.2,0,0.3,0.1,0.3,0.3
				C-2.4-2-2.4-2-3-2C-3.9-2-4.8-2-5.7-2z"/>
			<path class="st2" d="M-5.7,8c1,0,2,0,2.9,0c0.2,0,0.3,0,0.3,0.3c0,0.6,0,0.6-0.6,0.6c-1.9,0-3.8,0-5.7,0C-9,8.9-9,8.8-9,8.6
				C-9,8-9,8-8.5,8C-7.6,8-6.6,8-5.7,8C-5.7,8-5.7,8-5.7,8z"/>
			<path class="st2" d="M16.2-2c-0.1,0-0.2,0-0.2,0c-1.9,0-3.8,0-5.7,0C10-2,9.9-2,9.9-2.3c0-0.5,0-0.5,0.6-0.5c1.7,0,3.4,0,5.1,0
				c0.2,0,0.3,0.1,0.4,0.3C16-2.4,16.1-2.2,16.2-2z"/>
			<path class="st2" d="M18.8-2C18.9-2.3,19-2.5,19-2.7c0-0.1,0.1-0.1,0.2-0.1c1.9,0,3.7,0,5.6,0C25-2.8,25-2.8,25-2.6
				c0,0.7,0,0.7-0.6,0.7c-1.7,0-3.4,0-5.2,0C19.1-2,19-2,18.8-2z"/>
			<path class="st2" d="M15.5-3.8c-0.1,0-0.2,0-0.2,0c-1.7,0-3.4,0-5,0c-0.3,0-0.3-0.1-0.3-0.3c0-0.6,0-0.6,0.5-0.6c1.5,0,3,0,4.5,0
				c0.2,0,0.3,0.1,0.4,0.3C15.4-4.2,15.4-4,15.5-3.8z"/>
			<path class="st2" d="M19.5-3.8C19.4-3.8,19.4-3.8,19.5-3.8c0.2-0.9,0.2-0.9,1-0.9c1.4,0,2.8,0,4.2,0c0.2,0,0.3,0.1,0.3,0.3
				c0,0.6,0,0.6-0.6,0.6c-1.5,0-3,0-4.5,0C19.8-3.8,19.6-3.8,19.5-3.8z"/>
			<path class="st2" d="M16.8-0.1c-0.1,0-0.2,0-0.3,0c-1.5,0-3,0-4.4,0c-0.2,0-0.3-0.1-0.3-0.3c0-0.2,0-0.4,0-0.6c0.1,0,0.2,0,0.3,0
				c1.4,0,2.8,0,4.2,0c0.2,0,0.3,0.1,0.3,0.2C16.7-0.6,16.7-0.4,16.8-0.1z"/>
			<path class="st2" d="M18.1-0.1c0.1-0.3,0.2-0.5,0.3-0.7C18.4-1,18.5-1,18.6-1c1.4,0,2.9,0,4.3,0c0.2,0,0.2,0.1,0.2,0.2
				c0,0.7,0,0.7-0.6,0.7c-1.3,0-2.7,0-4,0C18.4-0.1,18.3-0.1,18.1-0.1z"/>
			<path class="st2" d="M12.3,7.1c-0.7,0-1.4,0-2.1,0C10,7.1,9.9,7,9.9,6.8c0-0.6,0-0.6,0.6-0.6c1.3,0,2.5,0,3.8,0
				c0.2,0,0.3,0,0.3,0.3c0,0.6,0,0.6-0.6,0.6C13.4,7.1,12.9,7.1,12.3,7.1z"/>
			<path class="st2" d="M12.3,8.9c-0.7,0-1.4,0-2.1,0c-0.2,0-0.3-0.1-0.3-0.3C9.9,8,9.9,8,10.5,8c1.2,0,2.5,0,3.7,0
				c0.3,0,0.3,0,0.3,0.4c0,0.5,0,0.5-0.5,0.5C13.5,8.9,12.9,8.9,12.3,8.9z"/>
			<path class="st2" d="M22.7,8.9c-0.7,0-1.4,0-2.1,0c-0.2,0-0.3,0-0.3-0.3c0-0.6,0-0.6,0.6-0.6c1.2,0,2.5,0,3.7,0
				C24.9,8,25,8.1,25,8.4c0,0.5,0,0.5-0.6,0.5C23.9,8.9,23.3,8.9,22.7,8.9C22.7,8.9,22.7,8.9,22.7,8.9z"/>
			<path class="st2" d="M22.7,7.1c-0.7,0-1.4,0-2.1,0c-0.2,0-0.2,0-0.3-0.2c0-0.6,0-0.6,0.6-0.6c1.3,0,2.5,0,3.8,0
				c0.2,0,0.3,0.1,0.3,0.3c0,0.6,0,0.6-0.6,0.6C23.8,7.1,23.2,7.1,22.7,7.1z"/>
			<path class="st2" d="M19.7,2.6C19.7,2.6,19.7,2.6,19.7,2.6c-0.2,0.9-0.2,0.9-1.1,0.9c-0.9,0-1.8,0-2.7,0c-0.2,0-0.3-0.1-0.4-0.2
				c-0.1-0.2-0.1-0.4-0.2-0.7C16.7,2.6,18.2,2.6,19.7,2.6z"/>
			<path class="st2" d="M13.2,3.5c-0.4,0-0.8,0-1.2,0c-0.2,0-0.2,0-0.2-0.2c0-0.7,0-0.7,0.7-0.7c0.6,0,1.2,0,1.9,0
				c0.2,0,0.2,0.1,0.2,0.2c0,0.7,0,0.7-0.7,0.7C13.7,3.5,13.5,3.5,13.2,3.5C13.2,3.5,13.2,3.5,13.2,3.5z"/>
			<path class="st2" d="M21.7,2.6c0.4,0,0.7,0,1.1,0c0.2,0,0.3,0,0.3,0.2c0,0.7,0,0.7-0.7,0.7c-0.6,0-1.2,0-1.9,0
				c-0.2,0-0.3,0-0.3-0.3c0-0.7,0-0.7,0.6-0.7C21.2,2.6,21.5,2.6,21.7,2.6z"/>
			<path class="st2" d="M6.1,4.4c0.3,0,0.5,0,0.7,0c0.7,0,1.3,0,2,0c0.1,0,0.2,0,0.2,0.2c0,0,0,0,0,0c0.2,0.6,0.1,0.7-0.5,0.7
				c-0.7,0-1.4,0-2.1,0C6.2,5.3,6.1,5.2,6.1,5C6.1,4.8,6.1,4.6,6.1,4.4z"/>
			<path class="st2" d="M9.1-1C9.1-0.7,9-0.5,9-0.3c0,0.1-0.1,0.1-0.2,0.1c-0.8,0-1.6,0-2.5,0c-0.1,0-0.2-0.1-0.2-0.2
				C6.1-1,6.1-1,6.8-1c0.7,0,1.3,0,2,0C8.9-1,9-1,9.1-1z"/>
			<path class="st2" d="M-4.4,2.6c0,0.3,0,0.5,0,0.8c0,0.1-0.1,0.2-0.2,0.2c-0.8,0-1.6,0-2.4,0c-0.1,0-0.2-0.1-0.2-0.2
				c-0.1-0.7-0.1-0.7,0.7-0.7C-5.8,2.6-5.1,2.6-4.4,2.6z"/>
			<path class="st2" d="M19.1,4.4c-0.1,0.3-0.2,0.5-0.3,0.7c0,0.1-0.1,0.1-0.2,0.1c-0.7,0-1.5,0-2.2,0c-0.1,0-0.2-0.1-0.2-0.1
				C16,4.9,16,4.7,15.9,4.4C16.9,4.4,18,4.4,19.1,4.4z"/>
			<path class="st2" d="M0.5-1C0.7-1,1-1,1.2-1C1.8-1,2.4-1,3-1c0.2,0,0.2,0,0.2,0.2c0,0.8,0.1,0.6-0.6,0.7c-0.6,0-1.3,0-1.9,0
				c-0.2,0-0.3,0-0.2-0.2C0.5-0.6,0.5-0.8,0.5-1z"/>
			<path class="st2" d="M1.9,4.4c0.4,0,0.8,0,1.1,0c0.2,0,0.3,0,0.3,0.2c0,0.8,0.1,0.6-0.6,0.6c-0.6,0-1.3,0-1.9,0
				C0.5,5.3,0.4,5.2,0.5,5c0-0.6,0-0.6,0.6-0.6C1.3,4.4,1.6,4.4,1.9,4.4z"/>
			<path class="st2" d="M13.2,4.4c0.4,0,0.8,0,1.2,0c0.2,0,0.2,0,0.2,0.2c0,0.8,0.1,0.7-0.6,0.7c-0.6,0-1.3,0-1.9,0
				c-0.2,0-0.3-0.1-0.3-0.3c0-0.6,0-0.6,0.6-0.6C12.7,4.4,12.9,4.4,13.2,4.4C13.2,4.4,13.2,4.4,13.2,4.4z"/>
			<path class="st2" d="M21.7,4.4c0.4,0,0.8,0,1.2,0c0.2,0,0.3,0,0.2,0.2c0,0.8,0.1,0.6-0.6,0.6c-0.6,0-1.3,0-1.9,0
				c-0.2,0-0.3-0.1-0.3-0.3c0-0.6,0-0.6,0.6-0.6C21.2,4.4,21.5,4.4,21.7,4.4z"/>
			<path class="st2" d="M-5.7-0.1c-0.4,0-0.8,0-1.2,0c-0.2,0-0.2,0-0.2-0.2C-7.1-1.2-7.2-1-6.5-1c0.6,0,1.3,0,1.9,0
				C-4.4-1-4.3-1-4.3-0.8c0,0.6,0,0.6-0.6,0.6C-5.2-0.1-5.5-0.1-5.7-0.1z"/>
			<path class="st2" d="M-5.7,4.4c0.4,0,0.7,0,1.1,0c0.2,0,0.3,0.1,0.3,0.3c0,0.7,0.1,0.6-0.6,0.6c-0.6,0-1.2,0-1.8,0
				c-0.2,0-0.3-0.1-0.3-0.3c0-0.6,0-0.6,0.6-0.6C-6.3,4.4-6,4.4-5.7,4.4C-5.7,4.4-5.7,4.4-5.7,4.4z"/>
			<path class="st2" d="M-4.4,1.7c-0.9,0-1.8,0-2.7,0c-0.2-0.9-0.2-0.9,0.7-0.9c0.6,0,1.2,0,1.8,0c0.2,0,0.3,0.1,0.3,0.3
				C-4.4,1.3-4.4,1.4-4.4,1.7z"/>
			<path class="st2" d="M16.5,6.2c0.6,0,1.3,0,1.9,0c-0.1,0.3-0.2,0.5-0.3,0.7C18.1,7,18,7.1,18,7.1c-0.3,0-0.6,0-1,0
				c-0.1,0-0.2-0.1-0.2-0.1C16.7,6.7,16.6,6.5,16.5,6.2z"/>
			<path class="st2" d="M17.4,8.9c-0.1-0.3-0.2-0.5-0.3-0.8c0.2,0,0.4,0,0.6,0C17.7,8.3,17.6,8.6,17.4,8.9
				C17.5,8.9,17.5,8.9,17.4,8.9z"/>
		</g>
	</g>
</g>
<g>
	<path class="st3" d="M28-5.8v27.5c0,3.4-2.8,6.3-6.3,6.3H-5.8c-2,0-3.7-0.9-4.9-2.3c1.1,0.9,2.4,1.4,3.9,1.4h27.5
		c3.4,0,6.3-2.8,6.3-6.3V-6.7c0-1.5-0.5-2.8-1.4-3.9C27.1-9.5,28-7.7,28-5.8z"/>
	<path class="st4" d="M26.6-9.7c-1.1-0.9-2.4-1.4-3.9-1.4H-4.8c-3.4,0-6.3,2.8-6.3,6.3v27.5c0,1.5,0.5,2.8,1.4,3.9
		c-1.4-1.1-2.3-2.9-2.3-4.9V-5.8c0-3.4,2.8-6.3,6.3-6.3h27.5C23.7-12,25.5-11.1,26.6-9.7z"/>
</g>
</svg>
