<?xml version="1.0" encoding="utf-8"?>
<!-- Generator: Adobe Illustrator 18.1.0, SVG Export Plug-In . SVG Version: 6.00 Build 0)  -->
<svg version="1.1" id="图层_1" xmlns="http://www.w3.org/2000/svg" xmlns:xlink="http://www.w3.org/1999/xlink" x="0px" y="0px"
	 width="40px" height="40px" viewBox="-12 -12 40 40" style="enable-background:new -12 -12 40 40;" xml:space="preserve">
<style type="text/css">
	.st0{fill:#0070D3;}
	.st1{fill:#FFFFFF;}
	.st2{fill-rule:evenodd;clip-rule:evenodd;fill:#FFFFFF;}
	.st3{opacity:0.35;}
	.st4{opacity:0.24;fill:#FFFFFF;}
</style>
<g>
	<path class="st0" d="M28,21.8c0,3.5-2.8,6.3-6.3,6.3H-5.8c-3.5,0-6.3-2.8-6.3-6.3V-5.8c0-3.5,2.8-6.3,6.3-6.3h27.5
		c3.5,0,6.3,2.8,6.3,6.3V21.8z"/>
	<g>
		<g>
			<path class="st1" d="M-5.7,15.3h0.5h1.7c0.7,0,1.3,0.2,1.6,0.6c0.4,0.4,0.6,1,0.6,1.8c0,0.9-0.2,1.6-0.6,2
				c-0.4,0.5-0.9,0.7-1.7,0.7h-1.6h-0.5V15.3z M-4.6,19.6h0.9c0.4,0,0.8-0.1,1-0.4c0.2-0.3,0.3-0.7,0.3-1.3c0-0.5-0.1-0.9-0.3-1.2
				c-0.2-0.3-0.5-0.4-0.9-0.4h-1V19.6z"/>
			<path class="st1" d="M2.4,16.8c0-0.2-0.1-0.4-0.3-0.6C1.8,16.1,1.6,16,1.3,16c-0.3,0-0.5,0.1-0.6,0.2c-0.2,0.1-0.2,0.3-0.2,0.5
				c0,0.2,0.1,0.3,0.2,0.4c0.2,0.1,0.5,0.2,1,0.3c0.8,0.2,1.3,0.4,1.5,0.6c0.3,0.2,0.4,0.6,0.4,1.1c0,0.5-0.2,0.9-0.6,1.2
				c-0.4,0.3-0.9,0.4-1.6,0.4c-0.7,0-1.2-0.2-1.5-0.5c-0.4-0.3-0.6-0.7-0.6-1.3h1c0,0.3,0.1,0.5,0.3,0.6c0.2,0.1,0.4,0.2,0.8,0.2
				c0.3,0,0.6-0.1,0.8-0.2c0.2-0.1,0.3-0.3,0.3-0.5c0-0.2-0.1-0.3-0.2-0.4c-0.1-0.1-0.4-0.2-0.9-0.3c-0.8-0.2-1.4-0.4-1.6-0.6
				c-0.3-0.2-0.4-0.5-0.4-1c0-0.5,0.2-0.9,0.5-1.2c0.4-0.3,0.9-0.4,1.5-0.4c0.6,0,1.1,0.2,1.4,0.5c0.4,0.3,0.6,0.7,0.6,1.2H2.4z"/>
			<path class="st1" d="M9.6,18.8c0,0.6-0.2,1-0.5,1.3c-0.3,0.3-0.8,0.5-1.4,0.5c-0.5,0-0.8-0.1-1.1-0.4c-0.3-0.3-0.5-0.6-0.5-1.1h1
				c0,0.2,0.1,0.4,0.2,0.5c0.1,0.1,0.3,0.2,0.5,0.2c0.2,0,0.4-0.1,0.5-0.3c0.1-0.2,0.2-0.4,0.2-0.7c0-0.3-0.1-0.5-0.2-0.7
				C8.2,18,8,17.9,7.8,17.9c-0.1,0-0.3,0-0.4,0.1c-0.1,0.1-0.2,0.1-0.3,0.3l-0.9,0l0.3-2.8h2.8v0.9H7.3l-0.2,1.1
				c0.3-0.2,0.6-0.3,0.9-0.3c0.5,0,0.8,0.2,1.1,0.5C9.4,17.9,9.6,18.3,9.6,18.8z"/>
			<path class="st1" d="M10.5,20c-0.3-0.4-0.4-1.1-0.4-2c0-0.9,0.1-1.6,0.4-2c0.3-0.4,0.7-0.7,1.3-0.7c0.6,0,1.1,0.2,1.3,0.7
				c0.3,0.4,0.4,1.1,0.4,2v0c0,0.9-0.1,1.5-0.4,2c-0.3,0.4-0.7,0.6-1.3,0.6C11.2,20.6,10.8,20.4,10.5,20z M12.4,19.4
				c0.1-0.3,0.2-0.7,0.2-1.4c0-0.7-0.1-1.1-0.2-1.4c-0.1-0.3-0.3-0.4-0.6-0.4c-0.3,0-0.5,0.1-0.6,0.4c-0.1,0.3-0.2,0.8-0.2,1.4
				c0,0.7,0.1,1.1,0.2,1.4c0.1,0.3,0.3,0.4,0.6,0.4C12.1,19.8,12.3,19.6,12.4,19.4z"/>
			<path class="st1" d="M17.6,16.9c0,0.4-0.1,0.7-0.3,1c-0.2,0.3-0.5,0.5-1,0.9c-0.5,0.3-0.8,0.6-0.9,0.8l0,0h2.3v0.9H14v0
				c0-0.5,0.1-0.9,0.4-1.2c0.2-0.3,0.7-0.7,1.3-1.2c0.3-0.2,0.5-0.4,0.6-0.6c0.1-0.2,0.2-0.4,0.2-0.6c0-0.2-0.1-0.4-0.2-0.5
				c-0.1-0.1-0.3-0.2-0.5-0.2c-0.2,0-0.4,0.1-0.5,0.3c-0.1,0.2-0.2,0.4-0.2,0.7h-1c0-0.6,0.1-1,0.4-1.3c0.3-0.3,0.7-0.5,1.3-0.5
				c0.5,0,0.9,0.2,1.2,0.5C17.4,16.1,17.6,16.5,17.6,16.9z"/>
			<path class="st1" d="M18.5,20c-0.3-0.4-0.4-1.1-0.4-2c0-0.9,0.1-1.6,0.4-2s0.7-0.7,1.3-0.7c0.6,0,1.1,0.2,1.3,0.7
				c0.3,0.4,0.4,1.1,0.4,2v0c0,0.9-0.1,1.5-0.4,2c-0.3,0.4-0.7,0.6-1.3,0.6C19.3,20.6,18.8,20.4,18.5,20z M20.5,19.4
				c0.1-0.3,0.2-0.7,0.2-1.4c0-0.7-0.1-1.1-0.2-1.4c-0.1-0.3-0.3-0.4-0.6-0.4c-0.3,0-0.5,0.1-0.6,0.4c-0.1,0.3-0.2,0.8-0.2,1.4
				c0,0.7,0.1,1.1,0.2,1.4c0.1,0.3,0.3,0.4,0.6,0.4C20.2,19.8,20.3,19.6,20.5,19.4z"/>
		</g>
		<g>
			<path class="st2" d="M17.5,1.6c0.1-0.2,0.1-0.4,0.2-0.6c0-0.1,0.2-0.2,0.3-0.2c1.6,0,3.3,0,4.9,0c0.2,0,0.2,0.1,0.2,0.2
				c0,0.6,0,0.6-0.6,0.6c-0.6,0-1.3,0-1.9,0c-0.2,0-0.3-0.1-0.3-0.3c0-0.1,0-0.2,0-0.4c0,0,0,0-0.1,0c0,0.1-0.1,0.2-0.1,0.4
				c-0.1,0.2-0.2,0.3-0.4,0.3c-1.5,0-3,0-4.5,0c-0.2,0-0.3-0.1-0.4-0.3c0-0.1-0.1-0.2-0.2-0.4c0,0.1,0,0.3,0,0.4
				c0,0.2,0,0.2-0.2,0.2c-0.8,0-1.6,0-2.4,0c-0.1,0-0.2,0-0.2-0.2c0-0.8-0.1-0.7,0.6-0.7c1.5,0,2.9,0,4.4,0c0.3,0,0.4,0.1,0.5,0.3
				C17.3,1.3,17.4,1.5,17.5,1.6C17.5,1.6,17.5,1.6,17.5,1.6z"/>
			<path class="st2" d="M9-1.9c-0.3,0-0.6,0-0.8,0c-3.1,0-6.2,0-9.3,0c-0.3,0-0.3-0.1-0.3-0.3c0-0.7-0.1-0.5,0.5-0.5
				c3.1,0,6.2,0,9.3,0c0.3,0,0.5,0.1,0.5,0.4C8.9-2.2,9-2.1,9-1.9z"/>
			<path class="st2" d="M3.8,6.3c1.6,0,3.3,0,4.9,0c0.3,0,0.3,0,0.2,0.3C8.8,7.1,8.8,7.1,8.2,7.1c-3.1,0-6.2,0-9.3,0
				c-0.2,0-0.3-0.1-0.3-0.3c0-0.7-0.1-0.6,0.6-0.6C0.7,6.3,2.2,6.3,3.8,6.3z"/>
			<path class="st2" d="M7.9,8.1C7.3,8.6,6.7,8.8,6,8.9C5.5,9,5,9,4.5,9C2.6,9,0.7,9-1.1,9c-0.2,0-0.3-0.1-0.3-0.3
				c0-0.7-0.1-0.6,0.6-0.6c2.8,0,5.6,0,8.4,0C7.7,8.1,7.8,8.1,7.9,8.1z"/>
			<path class="st2" d="M7.8-3.7c-0.2,0-0.5,0-0.7,0c-2.7,0-5.5,0-8.2,0c-0.4,0-0.4,0-0.4-0.4c0-0.5,0-0.5,0.5-0.5
				c2.1,0,4.2,0,6.3,0c0.7,0,1.4,0.1,2,0.5C7.5-4,7.7-3.9,7.8-3.7C7.9-3.8,7.8-3.7,7.8-3.7z"/>
			<path class="st2" d="M8.5,3.6c-2.7,0-5.2,0-7.8,0c-0.2,0-0.3-0.1-0.3-0.3c0-0.7,0-0.7,0.7-0.7c2.1,0,4.1,0,6.2,0
				C7.6,2.6,7.8,2.7,8,3C8.2,3.1,8.4,3.3,8.5,3.6z"/>
			<path class="st2" d="M8.5,0.9C8.3,1.2,8,1.4,7.8,1.7C7.7,1.7,7.6,1.7,7.5,1.7c-2.3,0-4.5,0-6.8,0c-0.2,0-0.3,0-0.3-0.2
				c0-0.6,0-0.6,0.6-0.6c2.4,0,4.9,0,7.3,0C8.4,0.9,8.4,0.9,8.5,0.9z"/>
			<path class="st2" d="M-5.7-4.6c1,0,2,0,3,0c0.2,0,0.3,0,0.3,0.3c0,0.6,0,0.6-0.6,0.6c-1.9,0-3.8,0-5.6,0C-8.9-3.7-9-3.8-9-4
				c0-0.5,0-0.6,0.5-0.6C-7.6-4.6-6.6-4.6-5.7-4.6z"/>
			<path class="st2" d="M-5.7,6.3c1,0,2,0,3,0c0.2,0,0.3,0.1,0.3,0.3c0,0.6,0,0.6-0.6,0.6c-1.9,0-3.8,0-5.7,0C-9,7.2-9,7.1-9,6.8
				c0-0.6,0-0.6,0.6-0.6C-7.6,6.3-6.6,6.3-5.7,6.3z"/>
			<path class="st2" d="M-5.7-1.9c-1,0-2,0-3.1,0C-9-1.9-9-2-9-2.2c0-0.6,0-0.6,0.6-0.6c1.9,0,3.8,0,5.7,0c0.2,0,0.3,0.1,0.3,0.3
				c0,0.6,0,0.6-0.6,0.6C-3.9-1.9-4.8-1.9-5.7-1.9z"/>
			<path class="st2" d="M-5.7,8.1c1,0,2,0,2.9,0c0.2,0,0.3,0,0.3,0.3C-2.4,9-2.4,9-3,9c-1.9,0-3.8,0-5.7,0C-9,9-9,8.9-9,8.6
				c0-0.6,0-0.6,0.5-0.6C-7.6,8.1-6.6,8.1-5.7,8.1C-5.7,8.1-5.7,8.1-5.7,8.1z"/>
			<path class="st2" d="M16.2-1.9c-0.1,0-0.2,0-0.2,0c-1.9,0-3.8,0-5.7,0C10-1.9,9.9-2,9.9-2.2c0-0.5,0-0.6,0.6-0.6
				c1.7,0,3.4,0,5.1,0c0.2,0,0.3,0.1,0.4,0.3C16-2.3,16.1-2.1,16.2-1.9z"/>
			<path class="st2" d="M18.8-1.9C18.9-2.2,19-2.4,19-2.7c0-0.1,0.1-0.1,0.2-0.1c1.9,0,3.7,0,5.6,0C25-2.8,25-2.7,25-2.6
				c0,0.7,0,0.7-0.6,0.7c-1.7,0-3.4,0-5.2,0C19.1-1.9,19-1.9,18.8-1.9z"/>
			<path class="st2" d="M15.5-3.7c-0.1,0-0.2,0-0.2,0c-1.7,0-3.4,0-5,0C10-3.7,9.9-3.8,9.9-4c0-0.6,0-0.6,0.5-0.6c1.5,0,3,0,4.5,0
				c0.2,0,0.3,0.1,0.4,0.3C15.4-4.2,15.4-4,15.5-3.7z"/>
			<path class="st2" d="M19.5-3.7C19.4-3.8,19.4-3.8,19.5-3.7c0.2-0.9,0.2-0.9,1-0.9c1.4,0,2.8,0,4.2,0c0.2,0,0.3,0.1,0.3,0.3
				c0,0.6,0,0.6-0.6,0.6c-1.5,0-3,0-4.5,0C19.8-3.7,19.6-3.7,19.5-3.7z"/>
			<path class="st2" d="M16.8-0.1c-0.1,0-0.2,0-0.3,0c-1.5,0-3,0-4.4,0c-0.2,0-0.3-0.1-0.3-0.3c0-0.2,0-0.4,0-0.6c0.1,0,0.2,0,0.3,0
				c1.4,0,2.8,0,4.2,0c0.2,0,0.3,0.1,0.3,0.2C16.7-0.5,16.7-0.3,16.8-0.1z"/>
			<path class="st2" d="M18.1-0.1c0.1-0.3,0.2-0.5,0.3-0.7c0-0.1,0.1-0.1,0.2-0.1c1.4,0,2.9,0,4.3,0c0.2,0,0.2,0.1,0.2,0.2
				c0,0.7,0,0.7-0.6,0.7c-1.3,0-2.7,0-4,0C18.4-0.1,18.3-0.1,18.1-0.1z"/>
			<path class="st2" d="M12.3,7.1c-0.7,0-1.4,0-2.1,0c-0.2,0-0.3-0.1-0.3-0.3c0-0.6,0-0.6,0.6-0.6c1.3,0,2.5,0,3.8,0
				c0.2,0,0.3,0,0.3,0.3c0,0.6,0,0.6-0.6,0.6C13.4,7.1,12.9,7.1,12.3,7.1z"/>
			<path class="st2" d="M12.3,9c-0.7,0-1.4,0-2.1,0C10,9,9.9,8.9,9.9,8.7c0-0.6,0-0.6,0.6-0.6c1.2,0,2.5,0,3.7,0
				c0.3,0,0.3,0,0.3,0.4c0,0.5,0,0.5-0.5,0.5C13.5,9,12.9,9,12.3,9z"/>
			<path class="st2" d="M22.7,9c-0.7,0-1.4,0-2.1,0c-0.2,0-0.3,0-0.3-0.3c0-0.6,0-0.6,0.6-0.6c1.2,0,2.5,0,3.7,0
				c0.3,0,0.4,0.1,0.4,0.3C25,9,25,9,24.5,9C23.9,9,23.3,9,22.7,9C22.7,9,22.7,9,22.7,9z"/>
			<path class="st2" d="M22.7,7.1c-0.7,0-1.4,0-2.1,0c-0.2,0-0.2,0-0.3-0.2c0-0.6,0-0.6,0.6-0.6c1.3,0,2.5,0,3.8,0
				c0.2,0,0.3,0.1,0.3,0.3c0,0.6,0,0.6-0.6,0.6C23.8,7.1,23.2,7.1,22.7,7.1z"/>
			<path class="st2" d="M19.7,2.6C19.7,2.7,19.7,2.7,19.7,2.6c-0.2,0.9-0.2,0.9-1.1,0.9c-0.9,0-1.8,0-2.7,0c-0.2,0-0.3-0.1-0.4-0.2
				c-0.1-0.2-0.1-0.4-0.2-0.7C16.7,2.6,18.2,2.6,19.7,2.6z"/>
			<path class="st2" d="M13.2,3.6c-0.4,0-0.8,0-1.2,0c-0.2,0-0.2,0-0.2-0.2c0-0.7,0-0.7,0.7-0.7c0.6,0,1.2,0,1.9,0
				c0.2,0,0.2,0.1,0.2,0.2c0,0.7,0,0.7-0.7,0.7C13.7,3.6,13.5,3.6,13.2,3.6C13.2,3.6,13.2,3.6,13.2,3.6z"/>
			<path class="st2" d="M21.7,2.6c0.4,0,0.7,0,1.1,0c0.2,0,0.3,0,0.3,0.2c0,0.7,0,0.7-0.7,0.7c-0.6,0-1.2,0-1.9,0
				c-0.2,0-0.3,0-0.3-0.3c0-0.7,0-0.7,0.6-0.7C21.2,2.6,21.5,2.6,21.7,2.6z"/>
			<path class="st2" d="M6.1,4.5c0.3,0,0.5,0,0.7,0c0.7,0,1.3,0,2,0c0.1,0,0.2,0,0.2,0.2c0,0,0,0,0,0c0.2,0.6,0.1,0.7-0.5,0.7
				c-0.7,0-1.4,0-2.1,0c-0.2,0-0.3-0.1-0.3-0.3C6.1,4.9,6.1,4.7,6.1,4.5z"/>
			<path class="st2" d="M9.1-1C9.1-0.7,9-0.5,9-0.2c0,0.1-0.1,0.1-0.2,0.1c-0.8,0-1.6,0-2.5,0c-0.1,0-0.2-0.1-0.2-0.2
				C6.1-1,6.1-1,6.8-1c0.7,0,1.3,0,2,0C8.9-1,9-1,9.1-1z"/>
			<path class="st2" d="M-4.4,2.6c0,0.3,0,0.5,0,0.8c0,0.1-0.1,0.2-0.2,0.2c-0.8,0-1.6,0-2.4,0c-0.1,0-0.2-0.1-0.2-0.2
				c-0.1-0.7-0.1-0.7,0.7-0.7C-5.8,2.6-5.1,2.6-4.4,2.6z"/>
			<path class="st2" d="M19.1,4.5C19,4.7,18.9,5,18.8,5.2c0,0.1-0.1,0.1-0.2,0.1c-0.7,0-1.5,0-2.2,0c-0.1,0-0.2-0.1-0.2-0.1
				C16,5,16,4.7,15.9,4.5C16.9,4.5,18,4.5,19.1,4.5z"/>
			<path class="st2" d="M0.5-1C0.7-1,1-1,1.2-1C1.8-1,2.4-1,3-1c0.2,0,0.2,0,0.2,0.2c0,0.8,0.1,0.6-0.6,0.7c-0.6,0-1.3,0-1.9,0
				c-0.2,0-0.3,0-0.2-0.2C0.5-0.5,0.5-0.7,0.5-1z"/>
			<path class="st2" d="M1.9,4.5c0.4,0,0.8,0,1.1,0c0.2,0,0.3,0,0.3,0.2c0,0.8,0.1,0.6-0.6,0.6c-0.6,0-1.3,0-1.9,0
				c-0.2,0-0.3-0.1-0.3-0.3c0-0.6,0-0.6,0.6-0.6C1.3,4.5,1.6,4.5,1.9,4.5z"/>
			<path class="st2" d="M13.2,4.5c0.4,0,0.8,0,1.2,0c0.2,0,0.2,0,0.2,0.2c0,0.8,0.1,0.7-0.6,0.7c-0.6,0-1.3,0-1.9,0
				c-0.2,0-0.3-0.1-0.3-0.3c0-0.6,0-0.6,0.6-0.6C12.7,4.5,12.9,4.5,13.2,4.5C13.2,4.5,13.2,4.5,13.2,4.5z"/>
			<path class="st2" d="M21.7,4.5c0.4,0,0.8,0,1.2,0c0.2,0,0.3,0,0.2,0.2c0,0.8,0.1,0.6-0.6,0.6c-0.6,0-1.3,0-1.9,0
				c-0.2,0-0.3-0.1-0.3-0.3c0-0.6,0-0.6,0.6-0.6C21.2,4.5,21.5,4.5,21.7,4.5z"/>
			<path class="st2" d="M-5.7-0.1c-0.4,0-0.8,0-1.2,0c-0.2,0-0.2,0-0.2-0.2c0-0.8-0.1-0.6,0.6-0.6c0.6,0,1.3,0,1.9,0
				c0.2,0,0.2,0.1,0.2,0.2c0,0.6,0,0.6-0.6,0.6C-5.2-0.1-5.5-0.1-5.7-0.1z"/>
			<path class="st2" d="M-5.7,4.5c0.4,0,0.7,0,1.1,0c0.2,0,0.3,0.1,0.3,0.3c0,0.7,0.1,0.6-0.6,0.6c-0.6,0-1.2,0-1.8,0
				c-0.2,0-0.3-0.1-0.3-0.3c0-0.6,0-0.6,0.6-0.6C-6.3,4.5-6,4.5-5.7,4.5C-5.7,4.5-5.7,4.5-5.7,4.5z"/>
			<path class="st2" d="M-4.4,1.7c-0.9,0-1.8,0-2.7,0c-0.2-0.9-0.2-0.9,0.7-0.9c0.6,0,1.2,0,1.8,0c0.2,0,0.3,0.1,0.3,0.3
				C-4.4,1.3-4.4,1.5-4.4,1.7z"/>
			<path class="st2" d="M16.5,6.3c0.6,0,1.3,0,1.9,0c-0.1,0.3-0.2,0.5-0.3,0.7c0,0.1-0.1,0.1-0.2,0.1c-0.3,0-0.6,0-1,0
				c-0.1,0-0.2-0.1-0.2-0.1C16.7,6.8,16.6,6.6,16.5,6.3z"/>
			<path class="st2" d="M17.4,8.9c-0.1-0.3-0.2-0.5-0.3-0.8c0.2,0,0.4,0,0.6,0C17.7,8.4,17.6,8.7,17.4,8.9
				C17.5,8.9,17.5,8.9,17.4,8.9z"/>
		</g>
	</g>
</g>
<g>
	<path class="st3" d="M28-5.8v27.5c0,3.4-2.8,6.3-6.3,6.3H-5.8c-2,0-3.7-0.9-4.9-2.3c1.1,0.9,2.4,1.4,3.9,1.4h27.5
		c3.4,0,6.3-2.8,6.3-6.3V-6.7c0-1.5-0.5-2.8-1.4-3.9C27.1-9.5,28-7.7,28-5.8z"/>
	<path class="st4" d="M26.6-9.7c-1.1-0.9-2.4-1.4-3.9-1.4H-4.8c-3.4,0-6.3,2.8-6.3,6.3v27.5c0,1.5,0.5,2.8,1.4,3.9
		c-1.4-1.1-2.3-2.9-2.3-4.9V-5.8c0-3.4,2.8-6.3,6.3-6.3h27.5C23.7-12,25.5-11.1,26.6-9.7z"/>
</g>
</svg>
