<?xml version="1.0" encoding="utf-8"?>
<!-- Generator: Adobe Illustrator 18.1.0, SVG Export Plug-In . SVG Version: 6.00 Build 0)  -->
<svg version="1.1" id="图层_1" xmlns="http://www.w3.org/2000/svg" xmlns:xlink="http://www.w3.org/1999/xlink" x="0px" y="0px"
	 width="40px" height="40px" viewBox="-12 -12 40 40" style="enable-background:new -12 -12 40 40;" xml:space="preserve">
<style type="text/css">
	.st0{fill:#074739;}
	.st1{fill:#FFFFFF;}
	.st2{opacity:0.35;}
	.st3{opacity:0.24;fill:#FFFFFF;}
</style>
<g>
	<path class="st0" d="M28,21.8c0,3.5-2.7,6.2-6.2,6.2H-5.7c-3.5,0-6.3-2.8-6.3-6.2V-5.7c0-3.5,2.9-6.3,6.3-6.3h27.5
		c3.5,0,6.2,2.8,6.2,6.3V21.8z"/>
</g>
<g>
	<path class="st1" d="M12.7,7.2c-0.8,0-1.5-0.1-2.3,0C8,7.3,5.6,7.7,3.3,8.8c-1.5,0.8-2.9,1.7-4,3C-0.8,11.9-0.9,12-1,12.1
		c-0.1-0.4-0.1-0.8-0.2-1.2c0,0,0-0.1,0-0.1c-0.2-0.4,0-0.8,0.3-1.1c1.2-1.3,2.6-2.2,4.3-2.8C5,6.2,6.6,6.1,8.2,6.2
		c1.5,0.1,2.9,0.5,4.3,0.9C12.6,7.2,12.6,7.2,12.7,7.2z"/>
	<path class="st1" d="M-1.4,9c-0.1-0.5-0.3-1-0.4-1.5c0-0.1,0-0.2,0.1-0.2C-0.2,5.8,1.6,5,3.7,4.7c1.3-0.2,2.5-0.1,3.8,0.2
		C8.3,5.1,9.1,5.4,10,5.6c0,0,0,0.1,0,0.1c-0.3,0-0.5,0-0.8,0c-2-0.2-4,0.1-6,0.7c-1.4,0.4-2.6,1.1-3.7,2C-0.8,8.5-1.1,8.7-1.4,9z"
		/>
	<path class="st1" d="M-5.5,15.9c0-0.6,0-1.2,0-1.8c0-0.2,0-0.2,0.2-0.2c0.3,0,0.7,0,1,0c0,1.2,0,2.4,0,3.6c-0.4,0-0.8,0-1.2,0
		c-0.1,0-0.1-0.1-0.2-0.1c-0.5-0.6-1.1-1.2-1.6-1.8c-0.2-0.2-0.3-0.4-0.4-0.6c0,0.8,0,1.6,0,2.5c-0.4,0-0.8,0-1.2,0
		c0-1.2,0-2.4,0-3.6c0.3,0,0.7,0,1,0c0.6-0.1,0.9,0.1,1.2,0.6C-6.2,14.9-5.9,15.4-5.5,15.9C-5.5,15.8-5.5,15.9-5.5,15.9z"/>
	<path class="st1" d="M-3.8,17.5c0-0.2,0-0.5,0-0.7c0-0.2,0.1-0.1,0.2-0.1c0.9,0,1.8,0,2.7,0c0.3,0,0.4-0.2,0.3-0.5
		c0,0-0.1-0.1-0.2-0.1c-0.6,0-1.1,0-1.7,0c-0.3,0-0.5,0-0.8-0.1c-0.4-0.1-0.5-0.2-0.5-0.6c0-0.3,0-0.6,0-0.8c0-0.3,0.1-0.5,0.4-0.6
		c0.2-0.1,0.4-0.1,0.7-0.1c1,0,2,0,2.9,0c0,0,0.1,0,0.1,0c0,0.3,0,0.5,0,0.8c-0.9,0-1.9,0-2.9,0c0,0.2,0,0.4,0,0.6
		c0.1,0,0.2,0,0.2,0c0.6,0,1.2,0,1.8,0c0.1,0,0.1,0,0.2,0c0.7,0,0.9,0.2,0.9,1c0,0.2,0,0.4,0,0.6c0,0.3-0.1,0.5-0.4,0.6
		c-0.2,0.1-0.4,0.1-0.5,0.1c-1.2,0-2.3,0-3.5,0C-3.7,17.5-3.7,17.5-3.8,17.5z"/>
	<path class="st1" d="M21.6,15.3c0.2,0,0.4,0,0.6,0c0.6,0,1.3,0,1.9,0c0.5,0,0.7,0.3,0.7,0.8c0,0.2,0,0.5,0,0.7
		c0,0.3-0.1,0.5-0.4,0.6c-0.2,0.1-0.3,0.1-0.5,0.1c-1.2,0-2.4,0-3.6,0c0-0.3,0-0.5,0-0.8c0.1,0,0.2,0,0.3,0c0.9,0,1.8,0,2.7,0
		c0.2,0,0.2-0.1,0.2-0.3c0-0.2,0-0.3-0.3-0.3c-0.6,0-1.3,0-1.9,0c-0.2,0-0.4,0-0.6-0.1c-0.3-0.1-0.4-0.2-0.4-0.5c0-0.3,0-0.6,0-0.9
		c0-0.3,0.1-0.5,0.4-0.6c0.3-0.1,0.5-0.1,0.8-0.1c0.9,0,1.8,0,2.7,0c0.2,0,0.2,0,0.2,0.2c0,0.2,0,0.4,0,0.6c-0.1,0-0.2,0-0.3,0
		c-0.8,0-1.6,0-2.3,0c-0.3,0-0.3,0-0.3,0.3C21.6,15.1,21.6,15.2,21.6,15.3z"/>
	<path class="st1" d="M7.9,17.5c-0.5,0-1,0-1.5,0c-0.5-0.1-0.8-0.4-0.8-0.9c0-0.6,0-1.2,0-1.7c0-0.5,0.3-0.8,0.8-0.9
		c0.1,0,0.3,0,0.4,0c0.7,0,1.4,0,2.1,0c0.2,0,0.4,0,0.6,0.1c0.4,0.1,0.6,0.3,0.6,0.7c0,0.7,0,1.4,0,2.1c0,0.5-0.4,0.8-1,0.8
		C8.7,17.5,8.3,17.5,7.9,17.5C7.9,17.5,7.9,17.5,7.9,17.5z M7,14.7c0,0.6,0,1.2,0,1.8c0,0,0.1,0.1,0.2,0.1c0.5,0,1,0,1.5,0
		c0.1,0,0.2,0,0.2-0.2c0-0.3,0-0.7,0-1c0-0.2,0-0.5,0-0.7C8.2,14.7,7.6,14.7,7,14.7z"/>
	<path class="st1" d="M16.6,13.9c0,0.2,0,0.4,0,0.6c0,0.7,0,1.3,0,2c0,0.2,0,0.2,0.2,0.2c0.5,0,1,0,1.5,0c0.2,0,0.2-0.1,0.2-0.2
		c0-0.8,0-1.5,0-2.3c0-0.2,0.1-0.2,0.2-0.2c0.3,0,0.6,0,0.9,0c0.1,0,0.2,0,0.2,0.2c0,0.9,0,1.8,0,2.7c0,0.3-0.1,0.5-0.4,0.6
		c-0.2,0.1-0.4,0.1-0.6,0.1c-0.9,0-1.7,0-2.6,0c-0.2,0-0.4-0.1-0.6-0.1c-0.3-0.1-0.4-0.3-0.4-0.6c0-0.9,0-1.8,0-2.7
		c0-0.1,0.1-0.2,0.1-0.2C15.8,13.9,16.2,13.9,16.6,13.9z"/>
	<path class="st1" d="M14.9,13.9c0,0.3,0,0.5,0,0.8c-1,0-2,0-3,0c0,0.1,0,0.2,0,0.3c0,0.5,0,0.9,0,1.4c0,0.2,0.1,0.2,0.2,0.2
		c0.8,0,1.6,0,2.4,0c0.1,0,0.2,0,0.3,0c0,0.3,0,0.5,0,0.8c-0.1,0-0.1,0-0.2,0c-0.9,0-1.9,0-2.8,0c-0.1,0-0.2,0-0.3,0
		c-0.7-0.1-0.9-0.4-0.9-1.1c0-0.5,0-1,0-1.5c0-0.6,0.3-0.9,0.8-1c0.1,0,0.3,0,0.4,0c0.9,0,1.9,0,2.8,0
		C14.7,13.9,14.8,13.9,14.9,13.9z"/>
	<path class="st1" d="M5.2,14.7c-0.9,0-1.7,0-2.6,0c0,0.2,0,0.4,0,0.6c0,0,0.1,0.1,0.2,0.1c0.7,0,1.4,0,2.1,0c0.1,0,0.2,0,0.3,0
		c0,0.2,0,0.4,0,0.5c0,0.1-0.1,0.1-0.2,0.1c-0.7,0-1.4,0-2.1,0c-0.2,0-0.3,0-0.3,0.3c0,0.4,0,0.7,0,1.1c-0.4,0-0.9,0-1.3,0
		c0-1.2,0-2.4,0-3.6c0.1,0,0.2,0,0.2,0c1.2,0,2.3,0,3.5,0c0.2,0,0.3,0,0.3,0.3C5.2,14.3,5.2,14.5,5.2,14.7z"/>
	<path class="st1" d="M-3.9,2.7C-4,2.4-4.2,2.1-4.4,1.8c0,0,0-0.2,0.1-0.2C-3.9,1.4-3.5,1-3,0.8C-1.3,0,0.4,0,2.2,0.5
		c0.7,0.2,1.3,0.5,2,0.7c0.1,0,0.1,0.1,0.3,0.1C3.9,1.3,3.4,1.2,3,1.2C2,1.1,1.1,1.1,0.2,1.2C0,1.2-0.2,1.2-0.3,1
		c0-0.1-0.1-0.2-0.2-0.3c0,0,0,0-0.1,0c0,0.1,0,0.3,0,0.4c0,0.1-0.1,0.2-0.1,0.2C-1.8,1.6-2.9,2-3.9,2.7C-3.8,2.7-3.9,2.7-3.9,2.7z"
		/>
	<path class="st1" d="M2.2-0.2C1.4-0.2,0.7-0.3,0-0.3c-1.3,0-2.6,0.2-3.7,0.8C-4.1,0.6-4.3,0.8-4.6,1C-4.8,1.1-4.8,1.1-4.9,1
		C-5,0.8-5.1,0.7-5.3,0.5c0.4-0.4,0.7-0.7,1.2-1C-3-1-1.9-1.1-0.8-1C0.2-0.9,1.2-0.6,2.2-0.2C2.1-0.2,2.2-0.2,2.2-0.2z"/>
	<path class="st1" d="M1.2,3.3c2.2-0.4,4.3,0.1,6.4,0.9c-0.1,0-0.1,0-0.2,0C5.6,4,3.9,4,2.1,4.4c-0.1,0-0.2,0-0.3-0.1
		C1.7,4,1.5,3.6,1.2,3.3z"/>
	<path class="st1" d="M1.8,4.5C0.3,4.9-0.9,5.6-2.1,6.6c-0.1-0.4-0.3-0.8-0.4-1.1c0,0,0-0.1,0.1-0.2C-2,4.7-1.4,4.3-0.7,4
		c0,0.4,0,0.8,0,1.3c0.1-0.1,0.1-0.1,0.2-0.2c0.3-0.3,0.5-0.7,0.8-1C0.3,3.9,0.4,3.9,0.5,4C1,4.1,1.4,4.3,1.8,4.5z"/>
	<path class="st1" d="M17.2,3.6c-0.2,0.7-0.4,1.2-0.8,1.7c-0.7,0.8-1.6,1.2-2.6,1.3c-1,0.1-2-0.1-3-0.4c0,0,0,0-0.1,0
		C13.3,6.2,15.5,5.6,17.2,3.6z"/>
	<path class="st1" d="M14.6,0.9c0.4-0.1,0.7-0.2,1-0.3c0.2,0,0.2-0.1,0.2-0.3c0-0.3,0-0.6,0.1-0.9c0.2,0.2,0.3,0.4,0.4,0.6
		c0.3,0.4,0.3,0.4,0.7,0.3c0.3-0.1,0.5-0.1,0.8-0.2c-0.2,0.3-0.4,0.6-0.7,0.9c-0.1,0.1-0.1,0.3,0,0.4c0.2,0.3,0.3,0.6,0.5,0.9
		c-0.3-0.1-0.5-0.2-0.8-0.3c-0.3-0.1-0.3-0.1-0.6,0.2c-0.2,0.2-0.4,0.5-0.5,0.7c0-0.4,0-0.7,0-1c0-0.2-0.1-0.3-0.2-0.4
		C15.2,1.2,14.9,1.1,14.6,0.9z"/>
	<path class="st1" d="M14.7,2.7c-0.4,1.1-1.2,1.9-2.3,2.2C11.2,5.2,10.1,5.1,9,4.7c-0.1,0-0.3-0.1-0.4-0.1c0,0,0,0-0.1,0
		C10.8,4.8,12.9,4.4,14.7,2.7z"/>
	<path class="st1" d="M12.6,1.6c-0.3,0.9-0.9,1.7-1.9,2C9.3,4.1,8,3.8,6.7,3.2c1.1,0.2,2.1,0.2,3.2-0.1C10.9,2.8,11.8,2.3,12.6,1.6z
		"/>
	<path class="st1" d="M-0.7,1.9c0,0.4,0,0.4-0.2,0.4c-0.4,0.1-0.8,0.2-1.2,0.3c-0.1,0-0.1,0.1-0.2,0.1c0,0,0,0,0,0.1
		C-1.9,3-1.5,3.2-1.1,3.3c-0.6,0.4-1.2,0.7-1.8,1.1c-0.1-0.3-0.3-0.6-0.4-0.9c0-0.1,0-0.2,0.1-0.2c0.6-0.6,1.3-1,2.2-1.3
		C-1,2-0.8,2-0.7,1.9z"/>
	<path class="st1" d="M1.4,2.7C1.6,2.3,1.9,2,2.1,1.7c0,0,0.1-0.1,0.2,0c1.2,0.2,2.4,0.5,3.6,1c0,0,0,0,0,0.1
		C4.4,2.6,2.9,2.5,1.4,2.7C1.4,2.7,1.4,2.7,1.4,2.7z"/>
	<path class="st1" d="M5.4,1.9C6.3,2,7.1,2,8,1.8c0.9-0.2,1.7-0.6,2.4-1.2c0,0.1-0.1,0.2-0.1,0.3C9.6,2.1,8.4,2.5,7.1,2.4
		C6.5,2.3,6,2.1,5.5,2C5.5,2,5.4,1.9,5.4,1.9z"/>
	<path class="st1" d="M19.6,5.2c0-0.3,0-0.5,0-0.7c0-0.2,0-0.3-0.2-0.4C19.2,4,19,3.9,18.7,3.7c0.3-0.1,0.5-0.2,0.8-0.2
		c0.2,0,0.3-0.1,0.2-0.3c0-0.2,0-0.4,0-0.6c0,0,0.1,0,0.1,0C19.9,2.8,20,3,20.1,3.1c0.1,0.1,0.2,0.2,0.3,0.1
		c0.2-0.1,0.5-0.1,0.8-0.2c-0.2,0.2-0.3,0.4-0.5,0.6c-0.1,0.1-0.1,0.2,0,0.4c0.1,0.2,0.2,0.4,0.3,0.6c-0.2-0.1-0.4-0.1-0.6-0.2
		c-0.2-0.1-0.3,0-0.4,0.1C19.9,4.8,19.8,4.9,19.6,5.2z"/>
	<path class="st1" d="M3.8,0.6c1.9,0.3,3.6,0,5-1.4C8.6-0.4,8.4,0,8.1,0.3C7.4,1,6.6,1.2,5.6,1.1C5,1.1,4.3,0.9,3.8,0.6z"/>
	<path class="st1" d="M6.9-1.5C6.7-0.2,4.3,0.4,2.9-0.4C4.4-0.3,5.7-0.5,6.9-1.5z"/>
	<path class="st1" d="M0.3,1.7c0.4,0,0.9,0,1.3-0.1c0,0,0,0,0,0.1C1.3,1.8,0.9,1.9,0.5,2C0.4,2,0.3,1.8,0.3,1.8
		C0.3,1.7,0.3,1.7,0.3,1.7z"/>
</g>
<g>
	<path class="st2" d="M28-5.8v27.5c0,3.4-2.8,6.3-6.3,6.3H-5.8c-2,0-3.7-0.9-4.9-2.3c1.1,0.9,2.4,1.4,3.9,1.4h27.5
		c3.4,0,6.3-2.8,6.3-6.3V-6.7c0-1.5-0.5-2.8-1.4-3.9C27.1-9.5,28-7.7,28-5.8z"/>
	<path class="st3" d="M26.6-9.7c-1.1-0.9-2.4-1.4-3.9-1.4H-4.8c-3.4,0-6.3,2.8-6.3,6.3v27.5c0,1.5,0.5,2.8,1.4,3.9
		c-1.4-1.1-2.3-2.9-2.3-4.9V-5.8c0-3.4,2.8-6.3,6.3-6.3h27.5C23.7-12,25.5-11.1,26.6-9.7z"/>
</g>
</svg>
