<?xml version="1.0" encoding="utf-8"?>
<!-- Generator: Adobe Illustrator 18.1.0, SVG Export Plug-In . SVG Version: 6.00 Build 0)  -->
<svg version="1.1" id="图层_1" xmlns="http://www.w3.org/2000/svg" xmlns:xlink="http://www.w3.org/1999/xlink" x="0px" y="0px"
	 width="40px" height="40px" viewBox="-12 -12 40 40" style="enable-background:new -12 -12 40 40;" xml:space="preserve">
<style type="text/css">
	.st0{fill:#D10010;}
	.st1{fill:#FFFFFF;}
	.st2{fill-rule:evenodd;clip-rule:evenodd;fill:#FFFFFF;}
	.st3{opacity:0.35;}
	.st4{opacity:0.24;fill:#FFFFFF;}
</style>
<g>
	<path class="st0" d="M28,21.8c0,3.5-2.8,6.2-6.3,6.2H-5.8c-3.5,0-6.3-2.8-6.3-6.2V-5.7c0-3.5,2.8-6.3,6.3-6.3h27.5
		c3.5,0,6.3,2.8,6.3,6.3V21.8z"/>
	<g>
		<g>
			<path class="st1" d="M0.6,12.3h0.5h2.1c0.5,0,0.9,0.1,1.2,0.4c0.3,0.3,0.5,0.6,0.5,1c0,0.5-0.2,0.9-0.5,1.1
				C4.3,14.9,4.2,14.9,4,15C4.1,15,4.2,15,4.2,15c0.3,0.2,0.4,0.5,0.5,0.9l0,0.8c0,0.2,0,0.3,0.1,0.4c0,0.1,0.1,0.1,0.2,0.2v0.1H3.7
				c0-0.1-0.1-0.2-0.1-0.3c0-0.2,0-0.4,0-0.6l0-0.5c0-0.2-0.1-0.4-0.2-0.5c-0.1-0.1-0.4-0.1-0.7-0.1H1.7v2H1.1H0.6V12.3z M1.7,14.5
				h1.3c0.3,0,0.5-0.1,0.6-0.2c0.1-0.1,0.2-0.3,0.2-0.5c0-0.2-0.1-0.4-0.2-0.5c-0.1-0.1-0.3-0.2-0.6-0.2H1.7V14.5z"/>
			<path class="st1" d="M7.2,12.3h0.6h0.6l1.8,5.2H9.7H9.2l-0.4-1.1h-2l-0.3,1.1H6H5.4L7.2,12.3z M7.2,15.5h1.4l-0.7-2.1h0L7.2,15.5
				z"/>
			<path class="st1" d="M15.4,15.6c-0.1,0.6-0.3,1.1-0.7,1.4c-0.4,0.4-0.9,0.5-1.5,0.5c-0.7,0-1.3-0.2-1.7-0.7
				c-0.4-0.5-0.6-1.1-0.6-2c0-0.8,0.2-1.5,0.6-2c0.4-0.5,1-0.7,1.7-0.7c0.6,0,1.1,0.2,1.5,0.5c0.4,0.3,0.6,0.8,0.7,1.4h-1.1
				c0-0.3-0.2-0.5-0.4-0.7c-0.2-0.2-0.5-0.2-0.8-0.2c-0.4,0-0.7,0.2-0.9,0.5c-0.2,0.3-0.3,0.8-0.3,1.3c0,0.6,0.1,1,0.3,1.3
				c0.2,0.3,0.5,0.5,0.9,0.5c0.3,0,0.6-0.1,0.8-0.3c0.2-0.2,0.3-0.4,0.4-0.7H15.4z"/>
		</g>
		<g>
			<path class="st2" d="M-5.8,5c-0.5,0-0.9,0-1.4,0C-7.5,5-7.8,4.9-8,4.7c-0.8-0.5-1.2-1.3-1.2-2.3c0-1,0.3-1.9,1.1-2.4
				c0.2-0.2,0.6-0.3,0.8-0.3c0.9,0,1.7,0,2.6,0c0.9,0,1.5,0.5,2,1.4C-2.3,2-2.3,3.4-3,4.2C-3.4,4.7-3.9,5-4.5,5
				C-4.9,4.9-5.4,5-5.8,5C-5.8,5-5.8,5-5.8,5z M-5.8,0.7C-5.8,0.7-5.8,0.7-5.8,0.7c-0.5,0-0.9,0-1.4,0c-0.1,0-0.2,0-0.3,0.1
				c-0.6,0.3-0.9,0.9-0.9,1.6c0,0.7,0.7,1.7,1.5,1.6c0.8,0,1.5,0,2.3,0c0.1,0,0.2,0,0.3,0c0.8-0.3,1.3-1.3,1-2.3
				c-0.2-0.6-0.6-1.1-1.2-1C-5,0.7-5.4,0.7-5.8,0.7z"/>
			<path class="st2" d="M21.8,1.8c0.5,0,1,0,1.6,0c0.1,0,0.2,0.1,0.3,0.1c0,0.1,0,0.2-0.1,0.3c-0.2,0.4-0.4,0.6-0.9,0.5
				c-0.8,0-1.7,0-2.5,0c-0.3,0-0.4,0.2-0.2,0.4C20.2,3.8,20.6,4,21.1,4c0.9,0,1.7,0,2.6,0c0.2,0,0.3,0.1,0.2,0.3
				c0,0.1-0.1,0.1-0.1,0.2C23.7,4.9,23.5,5,23.2,5c-0.7,0-1.4,0-2.2,0c-0.5,0-0.8-0.1-1.2-0.4C19,3.9,18.6,2.3,19,1.4
				c0.1-0.3,0.3-0.6,0.5-0.9c0.4-0.5,0.9-0.8,1.5-0.8c0.9,0,1.7,0,2.6,0c0.3,0,0.4,0.1,0.3,0.5c-0.2,0.4-0.5,0.5-0.8,0.5
				c-0.7,0-1.3,0-2,0c-0.4,0-0.9,0.4-1,0.8c-0.1,0.2,0,0.3,0.2,0.3C20.7,1.8,21.2,1.8,21.8,1.8C21.8,1.8,21.8,1.8,21.8,1.8z"/>
			<path class="st2" d="M-0.7,2.4c0.1,0,0.1-0.1,0.2-0.1c0.3,0,0.7,0,1,0c0.3,0,0.7,0,1,0c0.3,0,0.6-0.4,0.7-0.7
				c0-0.2-0.2-0.7-0.4-0.8c-0.1,0-0.2,0-0.2,0c-0.8,0-1.6,0-2.4,0c-0.2,0-0.3,0.1-0.3,0.3c0,0.1,0,0.2,0,0.3c0,1.1,0,2.2,0,3.2
				c0,0.2-0.1,0.4-0.1,0.5c-0.2,0.1-0.4,0-0.6,0C-2,4.9-2,4.8-2,4.7C-2,3.1-2,1.6-2,0c0-0.2,0.2-0.3,0.3-0.3c0.3,0,0.6,0,0.9,0
				c0.8,0,1.6,0,2.4,0c0.7,0,1.2,0.5,1.4,1.2C3.3,1.7,3,2.4,2.4,3C2.2,3.1,2,3.2,1.8,3.3C1.6,3.4,1.5,3.5,1.7,3.7
				C2,4,2.3,4.3,2.6,4.6c0.1,0.1,0.1,0.2,0.1,0.2C2.6,4.9,2.5,4.9,2.5,5c0,0,0,0,0,0C1.6,5,1.6,5,1.1,4.3C0.5,3.8,0,3.2-0.5,2.7
				C-0.6,2.6-0.6,2.5-0.7,2.4z"/>
			<path class="st2" d="M8.7,5C8.3,5,8.3,5,8.1,4.5C7.9,4.2,7.7,4,7.4,4C7,4.1,6.6,4,6.2,4C5.7,4.1,5.5,3.9,5.3,3.4
				c0-0.1-0.1-0.2-0.2-0.3C5,3.3,4.9,3.3,4.8,3.5C4.6,3.9,4.4,4.3,4.2,4.7C4.1,4.9,4,5,3.8,5C3.7,5,3.6,5,3.4,5
				c-0.1,0-0.2,0-0.3-0.1c0-0.1,0-0.2,0.1-0.3C3.6,4,3.9,3.4,4.2,2.8C4.6,2,5,1.2,5.4,0.4C5.5,0.3,5.6,0.1,5.6,0
				c0.3-0.5,0.9-0.4,1.1,0c0.5,1,1.1,2.1,1.6,3.1c0.3,0.5,0.5,1,0.8,1.5c0,0.1,0.1,0.2,0.1,0.3C9.1,4.9,9,4.9,8.9,5
				C8.9,5,8.8,5,8.7,5z M5.1,3.1c0.6,0,1.2,0,1.8,0c0.2,0,0.3-0.1,0.2-0.3c-0.2-0.5-0.5-1-0.8-1.5C6.3,1,6.2,1,6,1.2
				c0,0-0.1,0.1-0.1,0.1C5.7,1.8,5.5,2.2,5.3,2.6C5.2,2.8,5.2,2.9,5.1,3.1z"/>
			<path class="st2" d="M12.2-0.3c0.5,0,0.9,0,1.4,0c0.1,0,0.2,0,0.3,0.1c0,0.1,0,0.2-0.1,0.3c0,0.1-0.1,0.2-0.1,0.3
				c-0.1,0.2-0.3,0.3-0.5,0.3c-0.7,0-1.4,0-2.2,0c-0.2,0-0.3,0-0.5,0.1c-0.7,0.5-1,1.2-0.7,2C10,3.5,10.4,4.1,11.2,4
				c0.8,0,1.7,0,2.5,0c0.2,0,0.3,0.1,0.2,0.4c-0.1,0.1-0.1,0.3-0.2,0.4c-0.1,0.1-0.2,0.2-0.3,0.2c-0.9,0-1.8,0-2.7,0
				c-0.6,0-1-0.5-1.4-1C9,3.4,8.8,2.8,8.8,2.1C8.9,1.3,9.2,0.5,9.9,0c0.3-0.2,0.6-0.3,1-0.3C11.3-0.3,11.8-0.3,12.2-0.3z"/>
			<path class="st2" d="M14.4,2.2c0-0.7,0-1.4,0-2.1c0-0.3,0.1-0.4,0.4-0.4c0.4,0,0.5,0.1,0.5,0.6c0,1.1,0,2.2,0,3.3
				c0,0.3,0.1,0.4,0.4,0.4c1,0,2,0,3,0c0.1,0,0.2,0.1,0.3,0.1c0,0.1-0.1,0.3-0.1,0.4c0,0.1-0.1,0.2-0.1,0.2
				c-0.1,0.1-0.2,0.2-0.3,0.2c-1.2,0-2.4,0-3.5,0c-0.3,0-0.5-0.2-0.5-0.6C14.4,3.7,14.4,2.9,14.4,2.2C14.4,2.2,14.4,2.2,14.4,2.2z"
				/>
			<path class="st2" d="M24.4,0.3c0-0.4,0.2-0.6,0.4-0.6c0.3,0,0.5,0.2,0.4,0.6c0,0.3-0.2,0.5-0.4,0.6C24.5,0.8,24.4,0.6,24.4,0.3z"
				/>
		</g>
	</g>
</g>
<g>
	<path class="st3" d="M28-5.8v27.5c0,3.4-2.8,6.3-6.3,6.3H-5.8c-2,0-3.7-0.9-4.9-2.3c1.1,0.9,2.4,1.4,3.9,1.4h27.5
		c3.4,0,6.3-2.8,6.3-6.3V-6.7c0-1.5-0.5-2.8-1.4-3.9C27.1-9.5,28-7.7,28-5.8z"/>
	<path class="st4" d="M26.6-9.7c-1.1-0.9-2.4-1.4-3.9-1.4H-4.8c-3.4,0-6.3,2.8-6.3,6.3v27.5c0,1.5,0.5,2.8,1.4,3.9
		c-1.4-1.1-2.3-2.9-2.3-4.9V-5.8c0-3.4,2.8-6.3,6.3-6.3h27.5C23.7-12,25.5-11.1,26.6-9.7z"/>
</g>
</svg>
