<?xml version="1.0" encoding="utf-8"?>
<!-- Generator: Adobe Illustrator 18.1.0, SVG Export Plug-In . SVG Version: 6.00 Build 0)  -->
<svg version="1.1" id="图层_1" xmlns="http://www.w3.org/2000/svg" xmlns:xlink="http://www.w3.org/1999/xlink" x="0px" y="0px"
	 width="40px" height="40px" viewBox="-12 -12 40 40" style="enable-background:new -12 -12 40 40;" xml:space="preserve">
<style type="text/css">
	.st0{fill:#7C76CE;}
	.st1{fill:#FFFFFF;}
	.st2{opacity:0.35;}
	.st3{opacity:0.24;fill:#FFFFFF;}
</style>
<g>
	<path class="st0" d="M28,21.8c0,3.5-2.7,6.3-6.2,6.3H-5.7c-3.5,0-6.3-2.8-6.3-6.3V-5.8c0-3.5,2.9-6.3,6.3-6.3h27.5
		c3.5,0,6.2,2.8,6.2,6.3V21.8z"/>
	<g>
		<g>
			<path class="st1" d="M-0.3-5C-2.9-5-5-3-5-0.4V1h2v-1.4C-3-2-1.9-3-0.3-3H1v-2H-0.3z M-5.1,7.1v1.9h1.9V7.1H-5.1z M-0.3,19
				C-1.9,19-3,18-3,16.4V15h-2v1.4C-5,19-2.9,21-0.3,21H1v-2H-0.3z M-3.3,10.8h-1.9v1.9h1.9V10.8z M-5.1,3.3v1.9h1.9V3.3H-5.1z
				 M7.1-5.1v1.9h1.9v-1.9H7.1z M7.1,19.3v1.9h1.9v-1.9H7.1z M16.5-5H15v2h1.5C18-3,19-2,19-0.4V1h2v-1.4C21-3,19.1-5,16.5-5z
				 M19.3,7.1v1.9h1.9V7.1H19.3z M19,16.4c0,1.6-1,2.6-2.5,2.6H15v2h1.5c2.6,0,4.5-2,4.5-4.6V15h-2V16.4z M19.3,10.8v1.9h1.9v-1.9
				H19.3z M19.3,3.3v1.9h1.9V3.3H19.3z M10.8,19.3v1.9h1.9v-1.9H10.8z M10.8-5.1v1.9h1.9v-1.9H10.8z M3.3,19.3v1.9h1.9v-1.9H3.3z
				 M3.3-5.1v1.9h1.9v-1.9H3.3z"/>
		</g>
		<g>
			<path class="st1" d="M16,0v9h-2.7c0,0-0.1-0.2-0.1-0.3c-0.2-1-0.6-2.5-1.9-2.5c-1.3,0-2,1.9-2.7,3.5c-0.1,0.3-0.3,0.8-0.4,1.1
				C8.1,10.2,8,9.4,7.9,8.7C7.5,6.2,7.2,3.6,5.5,3.6c-1.4,0-1.9,2.1-2.3,4C3.1,8.1,3,9,2.9,9H0V0H16z"/>
			<path class="st1" d="M13,11h3v5H0v-5h3.1C3.9,11,4,9.8,4.4,8.2c0.4-2.1,0.8-3.3,1.1-3.3c0.6,0,1,2.8,1.2,4
				C7,11,7.2,12.4,8.2,12.4c0.7,0,1-0.8,1.6-2.2c0.3-0.9,1.1-2.8,1.6-2.8c0.4,0,0.6,1.5,0.8,2C12.3,10.1,12.4,11,13,11z"/>
		</g>
	</g>
</g>
<g>
	<path class="st2" d="M28-5.8v27.5c0,3.4-2.8,6.3-6.3,6.3H-5.8c-2,0-3.7-0.9-4.9-2.3c1.1,0.9,2.4,1.4,3.9,1.4h27.5
		c3.4,0,6.3-2.8,6.3-6.3V-6.7c0-1.5-0.5-2.8-1.4-3.9C27.1-9.5,28-7.7,28-5.8z"/>
	<path class="st3" d="M26.6-9.7c-1.1-0.9-2.4-1.4-3.9-1.4H-4.8c-3.4,0-6.3,2.8-6.3,6.3v27.5c0,1.5,0.5,2.8,1.4,3.9
		c-1.4-1.1-2.3-2.9-2.3-4.9V-5.8c0-3.4,2.8-6.3,6.3-6.3h27.5C23.7-12,25.5-11.1,26.6-9.7z"/>
</g>
</svg>
