<?xml version="1.0" encoding="utf-8"?>
<!-- Generator: Adobe Illustrator 18.1.0, SVG Export Plug-In . SVG Version: 6.00 Build 0)  -->
<svg version="1.1" id="图层_1" xmlns="http://www.w3.org/2000/svg" xmlns:xlink="http://www.w3.org/1999/xlink" x="0px" y="0px"
	 width="60px" height="60px" viewBox="10 -10 60 60" style="enable-background:new 10 -10 60 60;" xml:space="preserve">
<style type="text/css">
	.st0{fill:url(#SVGID_1_);}
	.st1{fill:url(#SVGID_2_);}
	.st2{fill:url(#SVGID_3_);}
	.st3{fill:url(#SVGID_4_);}
	.st4{fill:#FFFFFF;}
</style>
<g>
	
		<linearGradient id="SVGID_1_" gradientUnits="userSpaceOnUse" x1="172.965" y1="19.6937" x2="228.9503" y2="18.0414" gradientTransform="matrix(0.938 -2.950000e-002 -2.770000e-002 -0.9996 -148.0058 44.7983)">
		<stop  offset="0" style="stop-color:#434342"/>
		<stop  offset="0.5" style="stop-color:#FFFFFF"/>
		<stop  offset="1" style="stop-color:#434342"/>
	</linearGradient>
	<path class="st0" d="M38.5-7.9c0,0-5.5,8-12.9,8.3c-6.2,0.3-9.3-2.5-9.3-2.5L13.7-2c0,0-0.4,19.5,4.3,29
		c5.6,11.4,20.1,19.6,21.6,20.5c1.5,0.8,2.4,0.6,4.2-0.6S60.7,35.8,64,25.3c3.3-10.7,2.1-28.9,2.1-28.9l-2.2,0.1c0,0-5.9,2.9-9.8,3
		C47.1-0.4,41.2-8,41.2-8L38.5-7.9z"/>
	
		<linearGradient id="SVGID_2_" gradientUnits="userSpaceOnUse" x1="40.0792" y1="-3.7659" x2="40.0792" y2="43.7405" gradientTransform="matrix(1 0 0 -1 0 40)">
		<stop  offset="0" style="stop-color:#50CE50"/>
		<stop  offset="1" style="stop-color:#003B00"/>
	</linearGradient>
	<path class="st1" d="M38.8-3.7c0,0-4.7,6.8-11,7c-5.2,0.2-7.9-2.1-7.9-2.1l-2.1,0.1c0,0-0.4,16.6,3.6,24.7
		c4.8,9.7,17,16.7,18.3,17.4s2,0.5,3.6-0.5c1.6-1,14.3-9.4,17.1-18.4c2.8-9.1,1.8-24.6,1.8-24.6L60.4,0c0,0-5,2.4-8.3,2.5
		c-6,0.2-10.9-6.3-10.9-6.3L38.8-3.7z"/>
	
		<linearGradient id="SVGID_3_" gradientUnits="userSpaceOnUse" x1="19.2858" y1="19.9328" x2="60.8485" y2="19.9328" gradientTransform="matrix(1 0 0 -1 0 40)">
		<stop  offset="0" style="stop-color:#006500"/>
		<stop  offset="0.5" style="stop-color:#00CE00"/>
		<stop  offset="1" style="stop-color:#006500"/>
	</linearGradient>
	<path class="st2" d="M38.9-2.1c0,0-4.3,6.3-10.2,6.6c-4.9,0.2-7.4-2-7.4-2l-2,0.1c0,0-0.4,15.5,3.4,23c4.5,9,15.9,15.5,17.1,16.2
		s1.9,0.5,3.3-0.5c1.5-0.9,13.4-8.8,15.9-17.1c2.6-8.5,1.7-22.9,1.7-22.9l-1.7,0c0,0-4.6,2.3-7.8,2.4C45.6,3.9,41-2.1,41-2.1
		L38.9-2.1z"/>
	<g>
		
			<linearGradient id="SVGID_4_" gradientUnits="userSpaceOnUse" x1="40.0479" y1="7.19" x2="40.0479" y2="32.8263" gradientTransform="matrix(1 0 0 -1 0 40)">
			<stop  offset="0" style="stop-color:#50CE50"/>
			<stop  offset="1" style="stop-color:#003B00"/>
		</linearGradient>
		<path class="st3" d="M25.8,17.9l2.5-2.2L38.2,26l13-18.8l3.1,1.4L39.1,32.8L25.8,17.9z"/>
	</g>
	<g>
		<path class="st4" d="M25.9,18l2.5-2.2L38.2,26L51.1,7.3l3.1,1.4L39.1,32.8L25.9,18z"/>
	</g>
</g>
</svg>
