<?xml version="1.0" encoding="utf-8"?>
<!-- Generator: Adobe Illustrator 18.1.0, SVG Export Plug-In . SVG Version: 6.00 Build 0)  -->
<svg version="1.1" id="图层_1" xmlns="http://www.w3.org/2000/svg" xmlns:xlink="http://www.w3.org/1999/xlink" x="0px" y="0px"
	 width="40px" height="40px" viewBox="-12 -12 40 40" style="enable-background:new -12 -12 40 40;" xml:space="preserve">
<style type="text/css">
	.st0{fill:#FFB630;}
	.st1{fill:#FFFFFF;}
	.st2{opacity:0.35;}
	.st3{opacity:0.24;fill:#FFFFFF;}
</style>
<g>
	<path class="st0" d="M28,21.8c0,3.5-2.7,6.2-6.2,6.2H-5.7c-3.5,0-6.3-2.8-6.3-6.2V-5.7c0-3.5,2.9-6.3,6.3-6.3h27.5
		c3.5,0,6.2,2.8,6.2,6.3V21.8z"/>
	<path class="st1" d="M17.6,5.5c-0.2-0.8-0.6-1.6-1-2.4l1.9-2.8l0,0l-2.7-2.7l0,0L13-0.5c-0.7-0.4-1.5-0.8-2.4-1L9.9-4.8h0H6.2h0
		L5.5-1.5c-0.8,0.2-1.6,0.6-2.4,1L0.3-2.4l0,0l-2.7,2.7l0,0l1.9,2.8c-0.4,0.7-0.8,1.5-1,2.4l-3.3,0.7v0v3.7v0l3.3,0.7
		c0.2,0.8,0.6,1.6,1,2.4l-1.9,2.8l0,0l2.7,2.7l0,0l2.8-1.9c0.7,0.4,1.5,0.8,2.4,1l0.7,3.3h0h3.7h0l0.7-3.3c0.8-0.2,1.6-0.6,2.4-1
		l2.8,1.9l0,0l2.7-2.7l0,0l-1.9-2.8c0.4-0.7,0.8-1.5,1-2.4l3.3-0.7v0V6.1v0L17.6,5.5z M12.5,8c0,2.5-2,4.4-4.4,4.4
		c-2.5,0-4.5-2-4.5-4.4c0-2.5,2-4.4,4.5-4.4C10.5,3.6,12.5,5.5,12.5,8z"/>
</g>
<g>
	<path class="st2" d="M28-5.8v27.5c0,3.4-2.8,6.3-6.3,6.3H-5.8c-2,0-3.7-0.9-4.9-2.3c1.1,0.9,2.4,1.4,3.9,1.4h27.5
		c3.4,0,6.3-2.8,6.3-6.3V-6.7c0-1.5-0.5-2.8-1.4-3.9C27.1-9.5,28-7.7,28-5.8z"/>
	<path class="st3" d="M26.6-9.7c-1.1-0.9-2.4-1.4-3.9-1.4H-4.8c-3.4,0-6.3,2.8-6.3,6.3v27.5c0,1.5,0.5,2.8,1.4,3.9
		c-1.4-1.1-2.3-2.9-2.3-4.9V-5.8c0-3.4,2.8-6.3,6.3-6.3h27.5C23.7-12,25.5-11.1,26.6-9.7z"/>
</g>
</svg>
