<?xml version="1.0" encoding="utf-8"?>
<!-- Generator: Adobe Illustrator 18.1.0, SVG Export Plug-In . SVG Version: 6.00 Build 0)  -->
<svg version="1.1" id="图层_1" xmlns="http://www.w3.org/2000/svg" xmlns:xlink="http://www.w3.org/1999/xlink" x="0px" y="0px"
	 width="40px" height="40px" viewBox="-12 -12 40 40" style="enable-background:new -12 -12 40 40;" xml:space="preserve">
<style type="text/css">
	.st0{fill:#FFB630;}
	.st1{fill:#FFFFFF;}
	.st2{opacity:0.35;}
	.st3{opacity:0.24;fill:#FFFFFF;}
</style>
<g>
	<path class="st0" d="M28,21.8c0,3.5-2.7,6.2-6.2,6.2H-5.7c-3.5,0-6.3-2.8-6.3-6.2V-5.7c0-3.5,2.9-6.3,6.3-6.3h27.5
		c3.5,0,6.2,2.8,6.2,6.3V21.8z"/>
	<g>
		<path class="st1" d="M16.5,12.2c1.5-1,2.7-2.4,3.7-4l0.2-0.4c0.1-0.2,0.2-0.4,0.3-0.6L21,6.8c0.9-1.9,1.4-4.1,1.3-6.5c0,0,0,0,0,0
			c0-0.7-0.2-3.4-0.6-4.2c-1,0.4-2.9,1.6-3.3,2.9c-2-0.3-4.3-0.3-6.2,0.1c-0.3-1.4-2-2.4-3.2-3C8.5-3,8.2-0.9,8.3,0.5c0,0,0,0,0,0
			c0,1.3,0.2,2.5,0.5,3.7C8.8,4.2,11.5,10.5,16.5,12.2z"/>
		<path class="st1" d="M24.3,18.5c-0.6-0.7-1.9-1-2.9-1c-0.5-0.6-2.7-2.9-4-4.3l-0.7,0.5l-0.6-0.2C10.6,11.6,7.8,5,7.6,4.7l0-0.1
			l0-0.1c-4,1.3-8.1,3.8-10.5,6.3l-0.4,0.4c-0.2,0.2-0.4,0.4-0.6,0.6C-6.6,15-8.7,18.4-8.7,19v0.3H-5L-5,18.9
			c-0.2-1.1,0.2-2.5,1.1-3.5c0.5-0.7,1.4-1.4,2.8-1.7C0,13.2,3,13.6,3,13.6c6,0.5,11.7,2.9,18.2,6.3h3.6l0-0.2
			C24.9,19.3,24.7,18.9,24.3,18.5z"/>
		<path class="st1" d="M5.8,16.3C5.3,16,4.6,16,4,16.2c-0.4-0.4-0.7-0.9-0.8-1.5c-0.1,0-0.1,0-0.2,0c0,0-1.9-0.2-3.2-0.1
			c1.1,0.9,2.3,1.9,3.6,2.9h2.8v-0.3C6.2,16.8,6,16.5,5.8,16.3z"/>
		<path class="st1" d="M-3.9,10.3l0.3-0.3c0-0.1,0.1-0.1,0.2-0.2c-0.8-1.2-1.1-2.3-1.2-3.1c-0.2-1.3,0.1-2.5,0.9-3.5
			C-2.6,1.8-0.9,1.7,0.9,2c0,0.3,0,0.5,0.1,0.7C1.5,3.4,4,3.6,5.5,3c-1.1-1.6-3.3-2.3-4-2C1.3,1.1,1.1,1.3,1,1.5
			C0.4,1.4-0.2,1.3-0.6,1.3c-1.6,0-2.8,0.6-3.6,1.7c-0.9,1.1-1.2,2.4-1,3.9C-5.1,7.9-4.7,9.1-3.9,10.3z"/>
	</g>
</g>
<g>
	<path class="st2" d="M28-5.8v27.5c0,3.4-2.8,6.3-6.3,6.3H-5.8c-2,0-3.7-0.9-4.9-2.3c1.1,0.9,2.4,1.4,3.9,1.4h27.5
		c3.4,0,6.3-2.8,6.3-6.3V-6.7c0-1.5-0.5-2.8-1.4-3.9C27.1-9.5,28-7.7,28-5.8z"/>
	<path class="st3" d="M26.6-9.7c-1.1-0.9-2.4-1.4-3.9-1.4H-4.8c-3.4,0-6.3,2.8-6.3,6.3v27.5c0,1.5,0.5,2.8,1.4,3.9
		c-1.4-1.1-2.3-2.9-2.3-4.9V-5.8c0-3.4,2.8-6.3,6.3-6.3h27.5C23.7-12,25.5-11.1,26.6-9.7z"/>
</g>
</svg>
