<?xml version="1.0" encoding="utf-8"?>
<!-- Generator: Adobe Illustrator 18.1.0, SVG Export Plug-In . SVG Version: 6.00 Build 0)  -->
<svg version="1.1" id="图层_1" xmlns="http://www.w3.org/2000/svg" xmlns:xlink="http://www.w3.org/1999/xlink" x="0px" y="0px"
	 width="40px" height="40px" viewBox="-12 -12 40 40" style="enable-background:new -12 -12 40 40;" xml:space="preserve">
<style type="text/css">
	.st0{fill:#2F19CB;}
	.st1{fill:#FFFFFF;}
	.st2{opacity:0.55;fill-rule:evenodd;clip-rule:evenodd;fill:#FFFFFF;}
	.st3{fill-rule:evenodd;clip-rule:evenodd;fill:#FFFFFF;}
	.st4{fill-rule:evenodd;clip-rule:evenodd;fill:#2F19CB;}
	.st5{opacity:0.35;}
	.st6{opacity:0.24;fill:#FFFFFF;}
</style>
<g>
	<path class="st0" d="M28,21.8c0,3.5-2.8,6.3-6.3,6.3H-5.8c-3.5,0-6.3-2.8-6.3-6.3V-5.7c0-3.5,2.8-6.2,6.3-6.2h27.5
		c3.5,0,6.3,2.8,6.3,6.2V21.8z"/>
	<g>
		<path class="st1" d="M1.4,16.8H2h0.6v6.1H2H1.4V16.8z"/>
		<path class="st1" d="M3.8,16.8h0.6h2c0.8,0,1.5,0.2,1.9,0.7C8.8,18,9,18.7,9,19.7c0,1-0.2,1.8-0.7,2.4c-0.4,0.5-1.1,0.8-2,0.8H4.5
			H3.8V16.8z M5.1,21.8h1.1c0.5,0,0.9-0.2,1.2-0.5c0.3-0.3,0.4-0.9,0.4-1.6c0-0.6-0.1-1.1-0.4-1.4c-0.2-0.3-0.6-0.5-1.1-0.5H5.1
			V21.8z"/>
		<path class="st1" d="M13.2,18.6c0-0.3-0.1-0.5-0.4-0.7c-0.2-0.2-0.5-0.3-0.9-0.3c-0.3,0-0.6,0.1-0.8,0.2c-0.2,0.1-0.3,0.3-0.3,0.6
			c0,0.2,0.1,0.3,0.3,0.4c0.2,0.1,0.6,0.2,1.2,0.4c0.9,0.2,1.5,0.4,1.8,0.7c0.3,0.3,0.4,0.7,0.4,1.2c0,0.6-0.2,1-0.7,1.4
			c-0.4,0.3-1.1,0.5-1.8,0.5c-0.8,0-1.4-0.2-1.8-0.5c-0.4-0.4-0.7-0.9-0.7-1.5h1.2c0,0.3,0.1,0.6,0.4,0.7c0.2,0.2,0.5,0.3,0.9,0.3
			c0.4,0,0.7-0.1,0.9-0.2c0.2-0.1,0.3-0.3,0.3-0.5c0-0.2-0.1-0.4-0.2-0.5c-0.2-0.1-0.5-0.2-1-0.3c-1-0.2-1.6-0.4-1.9-0.7
			c-0.3-0.2-0.5-0.6-0.5-1.2c0-0.6,0.2-1.1,0.6-1.4c0.4-0.3,1-0.5,1.7-0.5c0.7,0,1.2,0.2,1.7,0.5c0.4,0.4,0.7,0.8,0.7,1.4H13.2z"/>
	</g>
	<path class="st2" d="M23.7-0.8c-1-0.4-2-0.4-3.1-0.3c-1.8,0.2-3.6,0.7-5.3,1.5c0.1,0.4,0.3,0.7,0.4,1.1c0.2,0.9,0.3,1.9,0.3,2.9
		C16,4.5,16,4.7,16,4.9c-0.1,0.3-0.1,0.6-0.2,0.9C15.5,7,15.1,8.1,14.4,9l0,0c-0.2,0.2-0.3,0.4-0.5,0.6c-0.1,0.1-0.3,0.3-0.4,0.4
		c0,0-0.1,0.1-0.1,0.1c-0.1,0.1-0.3,0.2-0.4,0.4l0,0l0,0c-0.8,0.7-1.7,1.3-2.7,1.7c-0.1,0-0.2,0.1-0.3,0.1c-0.1,0-0.1,0-0.2,0
		c-0.1,0-0.2,0-0.2,0.1c0.1,0,0.1,0,0.2,0l0,0c0.1,0,0.1,0,0.2-0.1h0c0.1,0,0.3,0,0.4-0.1l0,0c0.3,0,0.5-0.1,0.7-0.2
		c2.4-0.8,4.7-1.8,6.8-3.2c2.1-1.4,4.1-3,5.6-5c0.6-0.8,1.1-1.6,1.3-2.6C25,0.4,24.6-0.4,23.7-0.8z"/>
	<path class="st3" d="M16,4.3C16,4.5,16,4.7,16,4.9c-0.1,0.3-0.1,0.6-0.2,0.9C15.5,7,15.1,8.1,14.4,9c-0.2,0.2-0.3,0.4-0.4,0.6
		c-0.1,0.1-0.3,0.3-0.4,0.4c0,0-0.1,0.1-0.1,0.1c-0.1,0.1-0.3,0.3-0.4,0.4c-0.8,0.7-1.7,1.3-2.7,1.7c-0.1,0-0.2,0.1-0.3,0.1
		c-0.1,0-0.1,0-0.2,0c-0.1,0-0.2,0-0.2,0.1c-0.5,0.1-1.1,0.3-1.6,0.3c-2.1,0.2-4-0.2-5.8-1.3C-0.1,10.1-1.5,8-1.9,5.2
		C-2.3,3-1.8,0.9-0.6-1c0.1-0.1,0.2-0.2,0.4-0.2c1.5,0,3,0,4.5,0c0.3,0,0.5-0.1,0.8-0.3c0.1-0.1,0.3-0.2,0.4-0.4c0,0,0,0,0-0.1H0.1
		c0-0.1,0.1-0.2,0.1-0.3c1.9-2.1,4.3-3.2,7.2-3.1c2.5,0.1,4.5,1.1,6.2,2.9c0.7,0.7,1.2,1.5,1.6,2.4c0,0.1,0.1,0.1,0.1,0.2
		c0.1,0.4,0.3,0.8,0.4,1.1C15.9,2.4,16.1,3.4,16,4.3z"/>
	<path class="st3" d="M-6.2,6.5C-6,6-5.8,5.5-5.7,5C-5.3,3.8-5,2.7-4.6,1.6c0.1-0.2,0-0.3-0.1-0.4c-1.3-1-2.7-1.9-4-2.9
		c-0.1,0-0.1-0.1-0.2-0.2c0.1-0.1,0.2,0,0.3,0c1.6,0,3.2,0,4.9,0c0.3,0,0.3,0,0.2,0.3c-0.1,0.3-0.2,0.3-0.5,0.3c-0.9,0-1.7,0-2.6,0
		c-0.1,0-0.2,0-0.3,0c0.4,0.3,0.8,0.6,1.2,0.9C-5.1,0.1-4.6,0.6-3.9,1c0.1,0.1,0.2,0.2,0.1,0.4c-0.5,1.4-1,2.9-1.4,4.3
		c-0.1,0.2-0.2,0.4-0.4,0.5C-5.8,6.3-6,6.4-6.2,6.5C-6.1,6.5-6.2,6.5-6.2,6.5z"/>
	<path class="st3" d="M-1.7-7c0.3,0.8,0.5,1.6,0.8,2.3C-0.7-3.9-0.4-3-0.1-2.2C-0.1-2,0-1.8-0.2-1.7c-0.1,0.1-0.2,0.3-0.3,0.3
		c-0.1,0-0.1-0.2-0.2-0.4C-1.1-3.1-1.6-4.5-2-5.9c0-0.1-0.1-0.2,0-0.4C-1.9-6.5-1.9-6.8-1.7-7C-1.8-7-1.7-7-1.7-7z"/>
	<g>
		<g>
			<g>
				<path class="st4" d="M1.4,4.7C1.1,3.8,0.8,2.9,0.5,2c-0.1-0.2,0-0.3,0.1-0.4c0.4-0.3,0.4-0.3,0.6,0.2c0.5,1.5,0.9,3,1.4,4.5
					c0,0.1,0.1,0.2,0,0.3c-0.1,0-0.2,0-0.2-0.1c-1.4-1-2.8-2-4.1-3c-0.2-0.1-0.2-0.2,0-0.3c0.5-0.3,0.5-0.3,1,0
					c0.6,0.5,1.2,0.9,1.9,1.4C1.2,4.7,1.3,4.7,1.4,4.7C1.3,4.8,1.4,4.7,1.4,4.7z"/>
			</g>
			<g>
				<path class="st4" d="M4.4,0.1c0.1-0.2,0.1-0.4,0.3-0.6C5-0.9,5.4-0.9,5.6-0.4C5.8,0,5.9,0.4,6.1,0.8C6.2,1,6.2,1.3,6.5,1.1
					c0.1,0,0.1,0.1,0,0.1C6.3,1.5,6,1.7,5.7,1.9c0,0-0.1,0-0.1,0c0,0,0-0.1,0-0.1c0.2-0.2,0.2-0.4,0.1-0.6C5.6,0.8,5.4,0.4,5.3,0
					C5.2-0.1,5.2-0.3,5-0.3C4.8-0.3,4.8-0.2,4.7,0C4.5,0.2,4.4,0.4,4.6,0.7C4.7,1.1,4.8,1.4,5,1.8C5,2,5.1,2.1,5.3,2
					c0,0,0.1,0,0.1,0c0,0,0,0.1,0,0.1C5.1,2.3,4.9,2.5,4.6,2.7c0,0-0.1,0-0.1,0c0,0,0-0.1,0-0.1c0.2-0.1,0.2-0.3,0.1-0.5
					C4.4,1.7,4.2,1.2,4.1,0.7C4,0.6,3.9,0.5,3.8,0.6c0,0-0.1,0.1-0.1,0c0,0,0-0.1,0-0.1c0.1-0.2,0.3-0.5,0.4-0.6
					C4.3-0.3,4.3,0,4.3,0C4.4,0.1,4.4,0.1,4.4,0.1z"/>
			</g>
			<g>
				<path class="st4" d="M8-0.2C7.9,0.1,7.8,0.3,7.7,0.5C7.4,0.8,7,0.8,6.8,0.4C6.6,0,6.5-0.5,6.3-0.9C6.2-1.1,6.2-1.4,5.9-1.2
					c0,0-0.1,0-0.1,0c0,0,0-0.1,0-0.1C6-1.5,6.2-1.6,6.4-1.7c0.1-0.1,0.1,0.1,0.2,0.1c0.2,0.5,0.3,0.9,0.5,1.4
					c0.1,0.2,0.1,0.4,0.3,0.4c0.3,0,0.3-0.2,0.4-0.4c0.1-0.2,0.1-0.4,0-0.6C7.7-1.2,7.6-1.5,7.4-1.9C7.4-2.1,7.3-2.2,7.1-2.1
					c0,0-0.1,0-0.1,0c0,0,0-0.1,0-0.1c0.2-0.1,0.3-0.3,0.5-0.4c0.1-0.1,0.2,0,0.2,0.1C7.9-2,8.1-1.5,8.2-1.1c0,0.1,0.1,0.2,0.1,0.3
					c0.1,0.1,0.1,0.3,0.3,0.1c0,0,0.1-0.1,0.1,0c0,0,0,0.1,0,0.1C8.6-0.4,8.5-0.1,8.3,0C8.1,0.2,8.2-0.1,8.1-0.1C8-0.1,8-0.2,8-0.2z
					"/>
			</g>
			<g>
				<g>
					<path class="st4" d="M4,2.3c0-0.1,0-0.2-0.1-0.2c-0.1,0-0.1,0.1-0.1,0.2c0,0.1,0,0.1,0,0.2C3.7,2.8,3.5,3.1,3.2,3.1
						C2.9,3.2,2.7,3,2.5,2.7C2.4,2.5,2.4,2.4,2.6,2.3c0.3-0.2,0.7-0.5,1-0.7c0.1-0.1,0.1-0.1,0.1-0.2C3.6,0.9,3.1,0.7,2.8,0.9
						C2.6,1,2.4,1.1,2.3,1.3C1.8,1.9,1.9,3,2.4,3.5c0.3,0.3,0.8,0.3,1.1,0C3.9,3.3,4,2.9,4,2.4C4,2.4,4,2.3,4,2.3z M2.3,2.2
						c-0.1,0,0-0.2-0.1-0.2c0-0.2,0.1-0.4,0.2-0.6c0.2-0.2,0.4-0.2,0.6,0c0.1,0.1,0.2,0.3,0,0.4C2.8,1.8,2.7,2,2.5,2.1
						C2.5,2.1,2.4,2.2,2.3,2.2z"/>
				</g>
			</g>
			<g>
				<path class="st4" d="M9.4-2.1c-0.2,0-0.4,0.1-0.6,0c-0.2,0-0.3-0.1-0.4-0.3C8.2-2.9,8.5-3.5,9-3.7c0.1,0,0.2,0,0.3-0.2
					c0.1-0.2,0.2-0.1,0.2,0c0.1,0.2,0.1,0.3,0.2,0.5c0,0.1,0,0.1,0,0.2c-0.1,0.1-0.1,0-0.2-0.1c-0.3-0.3-0.6-0.3-0.8,0
					C8.5-2.9,8.7-2.6,9-2.7c0.2,0,0.3,0,0.5,0c0.6-0.1,0.9,0.3,0.8,0.8C10.2-1.4,10-1.1,9.6-0.9C9.5-0.9,9.3-0.8,9.2-0.7
					c0,0.1-0.1,0-0.1,0C9-0.9,8.9-1.1,8.9-1.4c0-0.1,0-0.1,0-0.2c0.1,0,0.1,0,0.1,0.1c0,0,0.1,0.1,0.1,0.1c0.2,0.2,0.4,0.2,0.6,0
					C9.9-1.4,10-1.6,10-1.8C9.9-2.1,9.7-2.1,9.4-2.1z"/>
			</g>
		</g>
	</g>
	<path class="st3" d="M8-0.2C8-0.2,8-0.3,8-0.2c0.1-0.1,0.1,0,0.1,0C8-0.1,8-0.2,8-0.2z"/>
	<path class="st3" d="M4.4,0.1C4.4,0.1,4.4,0.2,4.4,0.1C4.3,0.2,4.3,0.1,4.3,0C4.4,0,4.4,0.1,4.4,0.1z"/>
</g>
<g>
	<path class="st5" d="M28-5.8v27.5c0,3.4-2.8,6.3-6.3,6.3H-5.8c-2,0-3.7-0.9-4.9-2.3c1.1,0.9,2.4,1.4,3.9,1.4h27.5
		c3.4,0,6.3-2.8,6.3-6.3V-6.7c0-1.5-0.5-2.8-1.4-3.9C27.1-9.5,28-7.7,28-5.8z"/>
	<path class="st6" d="M26.6-9.7c-1.1-0.9-2.4-1.4-3.9-1.4H-4.8c-3.4,0-6.3,2.8-6.3,6.3v27.5c0,1.5,0.5,2.8,1.4,3.9
		c-1.4-1.1-2.3-2.9-2.3-4.9V-5.8c0-3.4,2.8-6.3,6.3-6.3h27.5C23.7-12,25.5-11.1,26.6-9.7z"/>
</g>
</svg>
