<?xml version="1.0" encoding="utf-8"?>
<!-- Generator: Adobe Illustrator 18.1.0, SVG Export Plug-In . SVG Version: 6.00 Build 0)  -->
<svg version="1.1" id="图层_1" xmlns="http://www.w3.org/2000/svg" xmlns:xlink="http://www.w3.org/1999/xlink" x="0px" y="0px"
	 width="40px" height="40px" viewBox="-12 -12 40 40" style="enable-background:new -12 -12 40 40;" xml:space="preserve">
<style type="text/css">
	.st0{fill:#B9012A;}
	.st1{fill:#FFFFFF;}
	.st2{opacity:0.35;}
	.st3{opacity:0.24;fill:#FFFFFF;}
</style>
<g>
	<path class="st0" d="M28,21.8c0,3.5-2.7,6.2-6.2,6.2H-5.7c-3.5,0-6.3-2.8-6.3-6.2V-5.7c0-3.5,2.9-6.3,6.3-6.3h27.5
		c3.5,0,6.2,2.8,6.2,6.3V21.8z"/>
	<g>
		<g>
			<path class="st1" d="M1.7,6.1h0.9h0.9v4.1l0.1-0.1c0.5-0.8,1.2-1.2,2-1.2S7.1,9.2,7.6,10c0.5,0.8,0.8,1.9,0.8,3.2
				c0,1.4-0.3,2.4-0.8,3.2c-0.5,0.8-1.2,1.2-2.1,1.2c-0.9,0-1.5-0.4-2-1.2l-0.1-0.1v1.1H1.7V6.1z M5,15.9c0.5,0,0.9-0.2,1.2-0.7
				c0.3-0.4,0.4-1.1,0.4-1.9c0-0.8-0.1-1.5-0.4-1.9C5.9,11,5.5,10.7,5,10.7c-0.5,0-0.9,0.2-1.2,0.7c-0.3,0.4-0.4,1.1-0.4,1.9
				c0,0.8,0.1,1.5,0.4,1.9C4.1,15.7,4.5,15.9,5,15.9z"/>
			<path class="st1" d="M12.7,17.7c-1.2,0-2.1-0.4-2.7-1.2c-0.6-0.8-0.9-1.9-0.9-3.5c0-1.3,0.3-2.3,0.9-3.1c0.6-0.8,1.4-1.2,2.4-1.2
				c1.1,0,1.9,0.4,2.4,1.1c0.6,0.8,0.8,1.9,0.8,3.3l0,0.6H11c0,0.6,0.2,1.1,0.4,1.4c0.2,0.4,0.7,0.6,1.2,0.6c0.3,0,0.5-0.1,0.7-0.2
				c0.2-0.2,0.3-0.4,0.4-0.7h1.9c-0.2,0.8-0.5,1.5-1.1,2C14,17.5,13.4,17.7,12.7,17.7z M13.8,12.5c0-0.5-0.2-1-0.3-1.3
				c-0.2-0.4-0.6-0.6-1.1-0.6c-0.5,0-0.8,0.2-1.1,0.7C11.1,11.6,11,12,11,12.5H13.8z"/>
			<path class="st1" d="M18.5,17.7c-0.6,0-1.2-0.2-1.5-0.7c-0.4-0.4-0.6-1-0.6-1.8c0-0.7,0.2-1.4,0.5-1.8c0.3-0.5,0.9-0.7,1.5-0.9
				l1.4-0.3c0.3-0.1,0.5-0.1,0.7-0.3c0,0,0.1-0.1,0.1-0.2c0-0.1,0-0.2,0-0.2v0c0-0.3-0.1-0.6-0.3-0.7c-0.2-0.2-0.5-0.2-0.9-0.2
				c-0.3,0-0.6,0.1-0.8,0.3c-0.2,0.2-0.3,0.5-0.3,0.9h-1.7c0.1-1.1,0.4-1.8,0.9-2.3c0.5-0.4,1.2-0.7,2.2-0.7c0.9,0,1.6,0.2,2.1,0.7
				c0.5,0.4,0.7,1,0.7,1.8v4.5c0,0.5,0,0.8,0.1,1c0.1,0.2,0.2,0.3,0.3,0.4v0v0.3h-1h-1v0c-0.1-0.3-0.1-0.6-0.2-1v0
				C20.2,17.3,19.5,17.7,18.5,17.7z M20.8,14.4v-0.9c-0.1,0.1-0.3,0.2-0.5,0.2l-0.7,0.2c-0.5,0.1-0.8,0.3-1,0.4
				c-0.2,0.2-0.3,0.4-0.3,0.8c0,0.3,0.1,0.6,0.2,0.8c0.1,0.2,0.3,0.3,0.6,0.3c0.6,0,1.1-0.3,1.4-0.9l0,0c0-0.1,0.1-0.2,0.1-0.4
				C20.7,14.7,20.8,14.5,20.8,14.4z"/>
		</g>
		<g>
			
				<ellipse transform="matrix(-0.8023 -0.5969 0.5969 -0.8023 22.6516 22.7136)" class="st1" cx="15.1" cy="7.6" rx="0.4" ry="0.6"/>
			<ellipse transform="matrix(-0.8022 -0.5971 0.5971 -0.8022 25.1748 20.6906)" class="st1" cx="16" cy="6.2" rx="0.4" ry="0.7"/>
			
				<ellipse transform="matrix(-0.8025 -0.5966 0.5966 -0.8025 27.2671 18.0666)" class="st1" cx="16.6" cy="4.5" rx="0.6" ry="0.9"/>
			
				<ellipse transform="matrix(-0.8024 -0.5968 0.5968 -0.8024 28.3788 14.5846)" class="st1" cx="16.6" cy="2.6" rx="0.7" ry="1.1"/>
			<ellipse transform="matrix(0.8024 0.5967 -0.5967 0.8024 3.6422 -9.1276)" class="st1" cx="15.6" cy="0.9" rx="0.9" ry="1.4"/>
			<ellipse transform="matrix(0.5972 -0.8021 0.8021 0.5972 5.5063 10.8555)" class="st1" cx="13.6" cy="-0.1" rx="1.7" ry="1.1"/>
			<ellipse transform="matrix(-0.8025 -0.5967 0.5967 -0.8025 18.5376 5.93)" class="st1" cx="10.3" cy="-0.1" rx="1.2" ry="1.8"/>
			<ellipse transform="matrix(-0.7075 -0.7067 0.7067 -0.7075 10.7004 6.0515)" class="st1" cx="6.6" cy="0.8" rx="1.2" ry="1.9"/>
			<ellipse transform="matrix(-0.7075 -0.7067 0.7067 -0.7075 2.4387 6.3819)" class="st1" cx="2.5" cy="2.7" rx="1.2" ry="1.9"/>
			<ellipse transform="matrix(-0.7074 -0.7068 0.7068 -0.7074 -5.3031 8.2643)" class="st1" cx="-0.9" cy="5.2" rx="1.2" ry="1.9"/>
			<ellipse transform="matrix(0.7074 0.7068 -0.7068 0.7074 4.8203 5.3921)" class="st1" cx="-4.1" cy="8.5" rx="1.1" ry="1.7"/>
			<ellipse transform="matrix(0.7075 0.7068 -0.7068 0.7075 6.884 7.2807)" class="st1" cx="-5.4" cy="12" rx="1.1" ry="1.7"/>
			<ellipse transform="matrix(0.7071 -0.7071 0.7071 0.7071 -11.8277 0.9828)" class="st1" cx="-4.7" cy="14.8" rx="2" ry="1.1"/>
			
				<ellipse transform="matrix(-0.7076 -0.7066 0.7066 -0.7076 -14.5888 25.9994)" class="st1" cx="-1.9" cy="16" rx="1.1" ry="2.2"/>
		</g>
	</g>
</g>
<g>
	<path class="st2" d="M28-5.8v27.5c0,3.4-2.8,6.3-6.3,6.3H-5.8c-2,0-3.7-0.9-4.9-2.3c1.1,0.9,2.4,1.4,3.9,1.4h27.5
		c3.4,0,6.3-2.8,6.3-6.3V-6.7c0-1.5-0.5-2.8-1.4-3.9C27.1-9.5,28-7.7,28-5.8z"/>
	<path class="st3" d="M26.6-9.7c-1.1-0.9-2.4-1.4-3.9-1.4H-4.8c-3.4,0-6.3,2.8-6.3,6.3v27.5c0,1.5,0.5,2.8,1.4,3.9
		c-1.4-1.1-2.3-2.9-2.3-4.9V-5.8c0-3.4,2.8-6.3,6.3-6.3h27.5C23.7-12,25.5-11.1,26.6-9.7z"/>
</g>
</svg>
