<?xml version="1.0" encoding="utf-8"?>
<!-- Generator: Adobe Illustrator 16.0.0, SVG Export Plug-In . SVG Version: 6.00 Build 0)  -->
<!DOCTYPE svg PUBLIC "-//W3C//DTD SVG 1.1//EN" "http://www.w3.org/Graphics/SVG/1.1/DTD/svg11.dtd">
<svg version="1.1" id="图层_1" xmlns="http://www.w3.org/2000/svg" xmlns:xlink="http://www.w3.org/1999/xlink" x="0px" y="0px"
	 width="105px" height="130px" viewBox="-2.5 -15 105 130" style="enable-background:new -2.5 -15 105 130;" xml:space="preserve">
<style type="text/css">
<![CDATA[
	.st0{fill:url(#SVGID_1_);}
	.st1{fill:url(#SVGID_2_);}
	.st2{fill:url(#SVGID_3_);}
	.st3{fill:url(#SVGID_4_);}
	.st4{fill:url(#SVGID_5_);}
	.st5{fill:url(#SVGID_6_);}
	.st6{fill:url(#SVGID_7_);}
	.st7{fill:url(#SVGID_8_);}
	.st8{fill:url(#SVGID_9_);}
	.st9{fill:#6D8D9D;}
	.st10{fill:url(#SVGID_10_);}
	.st11{fill:url(#SVGID_11_);}
	.st12{fill:url(#SVGID_12_);}
	.st13{fill:url(#SVGID_13_);}
	.st14{fill:url(#SVGID_14_);}
	.st15{fill:url(#SVGID_15_);}
	.st16{fill:url(#SVGID_16_);}
	.st17{fill:url(#SVGID_17_);}
	.st18{fill:url(#SVGID_18_);}
	.st19{fill:url(#SVGID_19_);}
	.st20{fill:url(#SVGID_20_);}
	.st21{fill:url(#SVGID_21_);}
	.st22{fill:url(#SVGID_22_);}
	.st23{fill:url(#SVGID_23_);}
	.st24{fill:url(#SVGID_24_);}
	.st25{fill:url(#SVGID_25_);}
	.st26{fill:url(#SVGID_26_);}
	.st27{fill:url(#SVGID_27_);}
	.st28{fill:url(#SVGID_28_);}
	.st29{fill:url(#SVGID_29_);}
	.st30{fill:url(#SVGID_30_);}
	.st31{fill:url(#SVGID_31_);}
	.st32{fill:url(#SVGID_32_);}
	.st33{fill:url(#SVGID_33_);}
	.st34{fill:url(#SVGID_34_);}
	.st35{fill:url(#SVGID_35_);}
	.st36{fill:url(#SVGID_36_);}
	.st37{fill:url(#SVGID_37_);}
	.st38{fill:url(#SVGID_38_);}
	.st39{fill:url(#SVGID_39_);}
	.st40{fill:url(#SVGID_40_);}
	.st41{fill:url(#SVGID_41_);}
	.st42{fill:url(#SVGID_42_);}
	.st43{fill:url(#SVGID_43_);}
	.st44{fill:url(#SVGID_44_);}
	.st45{fill:url(#SVGID_45_);}
	.st46{fill:url(#SVGID_46_);}
	.st47{fill:url(#SVGID_47_);}
	.st48{fill:url(#SVGID_48_);}
	.st49{fill:url(#SVGID_49_);}
	.st50{fill:url(#SVGID_50_);}
	.st51{fill:url(#SVGID_51_);}
	.st52{fill:url(#SVGID_52_);}
	.st53{fill:url(#SVGID_53_);}
	.st54{fill:url(#SVGID_54_);}
	.st55{fill:url(#SVGID_55_);}
	.st56{fill:url(#SVGID_56_);}
	.st57{fill:url(#SVGID_57_);}
	.st58{fill:url(#SVGID_58_);}
	.st59{fill:url(#SVGID_59_);}
	.st60{fill:url(#SVGID_60_);}
	.st61{fill:url(#SVGID_61_);}
	.st62{fill:url(#SVGID_62_);}
	.st63{fill:url(#SVGID_63_);}
	.st64{fill:url(#SVGID_64_);}
	.st65{fill:url(#SVGID_65_);}
	.st66{fill:url(#SVGID_66_);}
	.st67{fill:url(#SVGID_67_);}
	.st68{fill:url(#SVGID_68_);}
	.st69{fill:url(#SVGID_69_);}
	.st70{fill:url(#SVGID_70_);}
]]>
</style>
<g>
	<g>
		<g>
			<polygon class="st9" points="26.6,105.1 1.2,90.2 1.2,19.2 26.6,34.1 			"/>
			
				<linearGradient id="SVGID_1_" gradientUnits="userSpaceOnUse" x1="285.7734" y1="-281" x2="315.3839" y2="-229.7134" gradientTransform="matrix(1 0 0 -1 -256 -245)">
				<stop  offset="0" style="stop-color:#98B2BF"/>
				<stop  offset="1" style="stop-color:#B7CAD5"/>
			</linearGradient>
			<polygon class="st0" points="1.2,19.2 62.6,-13.4 88,1.5 26.6,34.1 			"/>
			
				<linearGradient id="SVGID_2_" gradientUnits="userSpaceOnUse" x1="313.2578" y1="-350.1426" x2="313.2578" y2="-246.543" gradientTransform="matrix(1 0 0 -1 -256 -245)">
				<stop  offset="0" style="stop-color:#3D4F5A"/>
				<stop  offset="1" style="stop-color:#607A88"/>
			</linearGradient>
			<polygon class="st1" points="26.6,105.1 88,72.5 88,1.5 26.6,34.1 			"/>
		</g>
		<polygon class="st9" points="24.2,106.6 -1.1,91.7 -1.1,20.7 24.2,35.6 		"/>
		
			<linearGradient id="SVGID_3_" gradientUnits="userSpaceOnUse" x1="258.457" y1="-279.9429" x2="276.517" y2="-279.9429" gradientTransform="matrix(1 0 0 -1 -256 -245)">
			<stop  offset="0" style="stop-color:#C7D6DE"/>
			<stop  offset="1" style="stop-color:#97B1BE"/>
		</linearGradient>
		<polygon class="st2" points="20.6,44.4 2.5,33.8 2.5,25.4 20.6,36.1 		"/>
		
			<linearGradient id="SVGID_4_" gradientUnits="userSpaceOnUse" x1="258.957" y1="-278.4932" x2="276.0143" y2="-278.4932" gradientTransform="matrix(1 0 0 -1 -256 -245)">
			<stop  offset="0" style="stop-color:#607A88"/>
			<stop  offset="1" style="stop-color:#3D4F5A"/>
		</linearGradient>
		<polygon class="st3" points="20.1,39.4 3,29.3 3,27.5 20.1,37.6 		"/>
		
			<linearGradient id="SVGID_5_" gradientUnits="userSpaceOnUse" x1="267.8398" y1="-273.5029" x2="268.7697" y2="-271.8924" gradientTransform="matrix(1 0 0 -1 -256 -245)">
			<stop  offset="0" style="stop-color:#98B2BF"/>
			<stop  offset="1" style="stop-color:#B7CAD5"/>
		</linearGradient>
		<polygon class="st4" points="-1.1,20.7 0.5,19.7 25.8,34.6 24.2,35.6 		"/>
		
			<linearGradient id="SVGID_6_" gradientUnits="userSpaceOnUse" x1="280.957" y1="-351.6426" x2="280.957" y2="-279.6431" gradientTransform="matrix(1 0 0 -1 -256 -245)">
			<stop  offset="0" style="stop-color:#3D4F5A"/>
			<stop  offset="1" style="stop-color:#607A88"/>
		</linearGradient>
		<polygon class="st5" points="24.2,106.6 25.8,105.6 25.8,34.6 24.2,35.6 		"/>
		<g>
			<g>
				<g>
					
						<linearGradient id="SVGID_7_" gradientUnits="userSpaceOnUse" x1="254.8291" y1="-287.6426" x2="280.164" y2="-287.6426" gradientTransform="matrix(1 0 0 -1 -256 -245)">
						<stop  offset="0" style="stop-color:#98B2BF"/>
						<stop  offset="1" style="stop-color:#B7CAD5"/>
					</linearGradient>
					<polygon class="st6" points="24.2,51.1 -1.1,36.2 -1.1,34.1 24.2,49.1 					"/>
				</g>
				
					<linearGradient id="SVGID_8_" gradientUnits="userSpaceOnUse" x1="280.957" y1="-296.1816" x2="280.957" y2="-293.1723" gradientTransform="matrix(1 0 0 -1 -256 -245)">
					<stop  offset="0" style="stop-color:#98B2BF"/>
					<stop  offset="1" style="stop-color:#B7CAD5"/>
				</linearGradient>
				<polygon class="st7" points="24.2,51.1 25.8,50.2 25.8,48.1 24.2,49.1 				"/>
			</g>
		</g>
		<g>
			<g>
				<g>
					
						<linearGradient id="SVGID_9_" gradientUnits="userSpaceOnUse" x1="254.8291" y1="-290.4434" x2="280.164" y2="-290.4434" gradientTransform="matrix(1 0 0 -1 -256 -245)">
						<stop  offset="0" style="stop-color:#98B2BF"/>
						<stop  offset="1" style="stop-color:#B7CAD5"/>
					</linearGradient>
					<polygon class="st8" points="24.2,53.9 -1.1,39 -1.1,36.9 24.2,51.9 					"/>
				</g>
				
					<linearGradient id="SVGID_10_" gradientUnits="userSpaceOnUse" x1="280.957" y1="-298.9717" x2="280.957" y2="-295.9639" gradientTransform="matrix(1 0 0 -1 -256 -245)">
					<stop  offset="0" style="stop-color:#98B2BF"/>
					<stop  offset="1" style="stop-color:#B7CAD5"/>
				</linearGradient>
				<polygon class="st10" points="24.2,53.9 25.8,53 25.8,50.9 24.2,51.9 				"/>
			</g>
		</g>
		
			<linearGradient id="SVGID_11_" gradientUnits="userSpaceOnUse" x1="260.5566" y1="-337.043" x2="280.1572" y2="-337.043" gradientTransform="matrix(1 0 0 -1 -256 -245)">
			<stop  offset="0" style="stop-color:#98B2BF"/>
			<stop  offset="1" style="stop-color:#B7CAD5"/>
		</linearGradient>
		<polygon class="st11" points="24.2,97.2 24.2,98.4 4.6,86.9 4.6,85.6 		"/>
		
			<linearGradient id="SVGID_12_" gradientUnits="userSpaceOnUse" x1="280.957" y1="-343.4404" x2="280.957" y2="-341.2905" gradientTransform="matrix(1 0 0 -1 -256 -245)">
			<stop  offset="0" style="stop-color:#98B2BF"/>
			<stop  offset="1" style="stop-color:#B7CAD5"/>
		</linearGradient>
		<polygon class="st12" points="24.2,98.4 25.8,97.5 25.8,96.2 24.2,97.2 		"/>
		
			<linearGradient id="SVGID_13_" gradientUnits="userSpaceOnUse" x1="260.5566" y1="-335.2432" x2="280.1572" y2="-335.2432" gradientTransform="matrix(1 0 0 -1 -256 -245)">
			<stop  offset="0" style="stop-color:#98B2BF"/>
			<stop  offset="1" style="stop-color:#B7CAD5"/>
		</linearGradient>
		<polygon class="st13" points="24.2,95.4 24.2,96.6 4.6,85 4.6,83.8 		"/>
		
			<linearGradient id="SVGID_14_" gradientUnits="userSpaceOnUse" x1="280.957" y1="-341.6152" x2="280.957" y2="-339.4677" gradientTransform="matrix(1 0 0 -1 -256 -245)">
			<stop  offset="0" style="stop-color:#98B2BF"/>
			<stop  offset="1" style="stop-color:#B7CAD5"/>
		</linearGradient>
		<polygon class="st14" points="24.2,96.6 25.8,95.6 25.8,94.4 24.2,95.4 		"/>
		
			<linearGradient id="SVGID_15_" gradientUnits="userSpaceOnUse" x1="260.5566" y1="-333.4434" x2="280.1572" y2="-333.4434" gradientTransform="matrix(1 0 0 -1 -256 -245)">
			<stop  offset="0" style="stop-color:#98B2BF"/>
			<stop  offset="1" style="stop-color:#B7CAD5"/>
		</linearGradient>
		<polygon class="st15" points="24.2,93.5 24.2,94.8 4.6,83.2 4.6,82 		"/>
		
			<linearGradient id="SVGID_16_" gradientUnits="userSpaceOnUse" x1="280.957" y1="-339.7939" x2="280.957" y2="-337.6426" gradientTransform="matrix(1 0 0 -1 -256 -245)">
			<stop  offset="0" style="stop-color:#98B2BF"/>
			<stop  offset="1" style="stop-color:#B7CAD5"/>
		</linearGradient>
		<polygon class="st16" points="24.2,94.8 25.8,93.8 25.8,92.6 24.2,93.5 		"/>
		
			<linearGradient id="SVGID_17_" gradientUnits="userSpaceOnUse" x1="260.5566" y1="-331.5938" x2="280.1572" y2="-331.5938" gradientTransform="matrix(1 0 0 -1 -256 -245)">
			<stop  offset="0" style="stop-color:#98B2BF"/>
			<stop  offset="1" style="stop-color:#B7CAD5"/>
		</linearGradient>
		<polygon class="st17" points="24.2,91.7 24.2,92.9 4.6,81.4 4.6,80.2 		"/>
		
			<linearGradient id="SVGID_18_" gradientUnits="userSpaceOnUse" x1="280.957" y1="-337.9678" x2="280.957" y2="-335.8194" gradientTransform="matrix(1 0 0 -1 -256 -245)">
			<stop  offset="0" style="stop-color:#98B2BF"/>
			<stop  offset="1" style="stop-color:#B7CAD5"/>
		</linearGradient>
		<polygon class="st18" points="24.2,92.9 25.8,92 25.8,90.8 24.2,91.7 		"/>
		
			<linearGradient id="SVGID_19_" gradientUnits="userSpaceOnUse" x1="260.5566" y1="-329.7432" x2="280.1572" y2="-329.7432" gradientTransform="matrix(1 0 0 -1 -256 -245)">
			<stop  offset="0" style="stop-color:#98B2BF"/>
			<stop  offset="1" style="stop-color:#B7CAD5"/>
		</linearGradient>
		<polygon class="st19" points="24.2,89.9 24.2,91.1 4.6,79.6 4.6,78.3 		"/>
		
			<linearGradient id="SVGID_20_" gradientUnits="userSpaceOnUse" x1="280.957" y1="-336.1426" x2="280.957" y2="-333.9947" gradientTransform="matrix(1 0 0 -1 -256 -245)">
			<stop  offset="0" style="stop-color:#98B2BF"/>
			<stop  offset="1" style="stop-color:#B7CAD5"/>
		</linearGradient>
		<polygon class="st20" points="24.2,91.1 25.8,90.2 25.8,89 24.2,89.9 		"/>
		
			<linearGradient id="SVGID_21_" gradientUnits="userSpaceOnUse" x1="260.5566" y1="-327.9434" x2="280.1572" y2="-327.9434" gradientTransform="matrix(1 0 0 -1 -256 -245)">
			<stop  offset="0" style="stop-color:#98B2BF"/>
			<stop  offset="1" style="stop-color:#B7CAD5"/>
		</linearGradient>
		<polygon class="st21" points="24.2,88.1 24.2,89.3 4.6,77.7 4.6,76.5 		"/>
		
			<linearGradient id="SVGID_22_" gradientUnits="userSpaceOnUse" x1="280.957" y1="-334.3213" x2="280.957" y2="-332.1699" gradientTransform="matrix(1 0 0 -1 -256 -245)">
			<stop  offset="0" style="stop-color:#98B2BF"/>
			<stop  offset="1" style="stop-color:#B7CAD5"/>
		</linearGradient>
		<polygon class="st22" points="24.2,89.3 25.8,88.3 25.8,87.1 24.2,88.1 		"/>
		
			<linearGradient id="SVGID_23_" gradientUnits="userSpaceOnUse" x1="260.5566" y1="-326.1436" x2="280.1572" y2="-326.1436" gradientTransform="matrix(1 0 0 -1 -256 -245)">
			<stop  offset="0" style="stop-color:#98B2BF"/>
			<stop  offset="1" style="stop-color:#B7CAD5"/>
		</linearGradient>
		<polygon class="st23" points="24.2,86.2 24.2,87.5 4.6,75.9 4.6,74.7 5.6,75.3 		"/>
		
			<linearGradient id="SVGID_24_" gradientUnits="userSpaceOnUse" x1="280.957" y1="-332.4966" x2="280.957" y2="-330.3466" gradientTransform="matrix(1 0 0 -1 -256 -245)">
			<stop  offset="0" style="stop-color:#98B2BF"/>
			<stop  offset="1" style="stop-color:#B7CAD5"/>
		</linearGradient>
		<polygon class="st24" points="24.2,87.5 25.8,86.5 25.8,85.3 24.2,86.2 		"/>
		
			<linearGradient id="SVGID_25_" gradientUnits="userSpaceOnUse" x1="261.0576" y1="-320.9453" x2="261.0576" y2="-319.7343" gradientTransform="matrix(1 0 0 -1 -256 -245)">
			<stop  offset="0" style="stop-color:#3D4F5A"/>
			<stop  offset="1" style="stop-color:#607A88"/>
		</linearGradient>
		<polygon class="st25" points="5.6,75.3 4.6,75.9 4.6,74.7 		"/>
		
			<linearGradient id="SVGID_26_" gradientUnits="userSpaceOnUse" x1="261.0576" y1="-322.7734" x2="261.0576" y2="-321.5616" gradientTransform="matrix(1 0 0 -1 -256 -245)">
			<stop  offset="0" style="stop-color:#3D4F5A"/>
			<stop  offset="1" style="stop-color:#607A88"/>
		</linearGradient>
		<polygon class="st26" points="5.6,77.1 4.6,77.7 4.6,76.5 		"/>
		
			<linearGradient id="SVGID_27_" gradientUnits="userSpaceOnUse" x1="261.0576" y1="-324.6025" x2="261.0576" y2="-323.3925" gradientTransform="matrix(1 0 0 -1 -256 -245)">
			<stop  offset="0" style="stop-color:#3D4F5A"/>
			<stop  offset="1" style="stop-color:#607A88"/>
		</linearGradient>
		<polygon class="st27" points="5.6,78.9 4.6,79.6 4.6,78.3 		"/>
		
			<linearGradient id="SVGID_28_" gradientUnits="userSpaceOnUse" x1="261.0576" y1="-326.4307" x2="261.0576" y2="-325.2202" gradientTransform="matrix(1 0 0 -1 -256 -245)">
			<stop  offset="0" style="stop-color:#3D4F5A"/>
			<stop  offset="1" style="stop-color:#607A88"/>
		</linearGradient>
		<polygon class="st28" points="5.6,80.8 4.6,81.4 4.6,80.2 		"/>
		
			<linearGradient id="SVGID_29_" gradientUnits="userSpaceOnUse" x1="261.0576" y1="-328.2593" x2="261.0576" y2="-327.0494" gradientTransform="matrix(1 0 0 -1 -256 -245)">
			<stop  offset="0" style="stop-color:#3D4F5A"/>
			<stop  offset="1" style="stop-color:#607A88"/>
		</linearGradient>
		<polygon class="st29" points="5.6,82.6 4.6,83.2 4.6,82 		"/>
		
			<linearGradient id="SVGID_30_" gradientUnits="userSpaceOnUse" x1="261.0576" y1="-330.0884" x2="261.0576" y2="-328.878" gradientTransform="matrix(1 0 0 -1 -256 -245)">
			<stop  offset="0" style="stop-color:#3D4F5A"/>
			<stop  offset="1" style="stop-color:#607A88"/>
		</linearGradient>
		<polygon class="st30" points="5.6,84.4 4.6,85 4.6,83.8 		"/>
		
			<linearGradient id="SVGID_31_" gradientUnits="userSpaceOnUse" x1="261.0576" y1="-331.9189" x2="261.0576" y2="-330.7085" gradientTransform="matrix(1 0 0 -1 -256 -245)">
			<stop  offset="0" style="stop-color:#3D4F5A"/>
			<stop  offset="1" style="stop-color:#607A88"/>
		</linearGradient>
		<polygon class="st31" points="5.6,86.3 4.6,86.9 4.6,85.7 		"/>
		<g>
			
				<linearGradient id="SVGID_32_" gradientUnits="userSpaceOnUse" x1="272.0928" y1="-341.0674" x2="278.5797" y2="-341.0674" gradientTransform="matrix(1 0.589 0 -1 -256 -433.8607)">
				<stop  offset="0" style="stop-color:#3D4F5A"/>
				<stop  offset="1" style="stop-color:#607A88"/>
			</linearGradient>
			<path class="st32" d="M22.6,71.3c0,1.8-1.5,2.4-3.2,1.3c-1.8-1.1-3.2-3.4-3.2-5.2s1.5-2.4,3.2-1.3C21.2,67.2,22.6,69.5,22.6,71.3
				z"/>
			
				<radialGradient id="SVGID_33_" cx="136.0303" cy="-450.3008" r="3.2121" gradientTransform="matrix(0.8946 0.527 0 -0.8946 -102.1807 -404.9509)" gradientUnits="userSpaceOnUse">
				<stop  offset="0" style="stop-color:#B7CAD5"/>
				<stop  offset="1" style="stop-color:#98B2BF"/>
			</radialGradient>
			<path class="st33" d="M22.4,71.2c0,1.6-1.3,2.1-2.9,1.2c-1.6-0.9-2.9-3-2.9-4.6s1.3-2.1,2.9-1.2C21.1,67.5,22.4,69.6,22.4,71.2z"
				/>
		</g>
		<g>
			
				<linearGradient id="SVGID_34_" gradientUnits="userSpaceOnUse" x1="274.3574" y1="-346.4189" x2="276.3154" y2="-346.4189" gradientTransform="matrix(1 0.589 0 -1 -256 -433.8607)">
				<stop  offset="0" style="stop-color:#3D4F5A"/>
				<stop  offset="1" style="stop-color:#607A88"/>
			</linearGradient>
			<path class="st34" d="M20.4,75.3c0,0.5-0.4,0.7-1,0.4c-0.5-0.3-1-1-1-1.6c0-0.5,0.4-0.7,1-0.4C19.9,74,20.4,74.7,20.4,75.3z"/>
			
				<radialGradient id="SVGID_35_" cx="135.8945" cy="-456.2036" r="0.969" gradientTransform="matrix(0.8946 0.527 0 -0.8946 -102.1807 -404.9509)" gradientUnits="userSpaceOnUse">
				<stop  offset="0" style="stop-color:#B7CAD5"/>
				<stop  offset="1" style="stop-color:#98B2BF"/>
			</radialGradient>
			<path class="st35" d="M20.3,75.3c0,0.5-0.4,0.6-0.9,0.4c-0.5-0.3-0.9-0.9-0.9-1.4s0.4-0.6,0.9-0.4C19.9,74.2,20.3,74.8,20.3,75.3
				z"/>
		</g>
	</g>
	<g>
		<g>
			<polygon class="st9" points="54.1,111.7 34.4,100.1 34.4,44.9 54.1,56.5 			"/>
			
				<linearGradient id="SVGID_36_" gradientUnits="userSpaceOnUse" x1="312.5674" y1="-302.9927" x2="335.5862" y2="-263.123" gradientTransform="matrix(1 0 0 -1 -256 -245)">
				<stop  offset="0" style="stop-color:#98B2BF"/>
				<stop  offset="1" style="stop-color:#B7CAD5"/>
			</linearGradient>
			<polygon class="st36" points="34.4,44.9 82.1,19.6 101.8,31.2 54.1,56.5 			"/>
			
				<linearGradient id="SVGID_37_" gradientUnits="userSpaceOnUse" x1="333.9063" y1="-356.7422" x2="333.9063" y2="-276.2432" gradientTransform="matrix(1 0 0 -1 -256 -245)">
				<stop  offset="0" style="stop-color:#3D4F5A"/>
				<stop  offset="1" style="stop-color:#607A88"/>
			</linearGradient>
			<polygon class="st37" points="54.1,111.7 101.8,86.4 101.8,31.2 54.1,56.5 			"/>
		</g>
		<polygon class="st9" points="52.2,112.8 32.6,101.2 32.6,46 52.2,57.6 		"/>
		
			<linearGradient id="SVGID_38_" gradientUnits="userSpaceOnUse" x1="291.3379" y1="-302.1431" x2="305.3779" y2="-302.1431" gradientTransform="matrix(1 0 0 -1 -256 -245)">
			<stop  offset="0" style="stop-color:#C7D6DE"/>
			<stop  offset="1" style="stop-color:#97B1BE"/>
		</linearGradient>
		<polygon class="st38" points="49.4,64.5 35.4,56.2 35.4,49.7 49.4,58 		"/>
		
			<linearGradient id="SVGID_39_" gradientUnits="userSpaceOnUse" x1="291.7285" y1="-301.043" x2="304.9878" y2="-301.043" gradientTransform="matrix(1 0 0 -1 -256 -245)">
			<stop  offset="0" style="stop-color:#607A88"/>
			<stop  offset="1" style="stop-color:#3D4F5A"/>
		</linearGradient>
		<polygon class="st39" points="49,60.6 35.8,52.8 35.8,51.4 49,59.2 		"/>
		
			<linearGradient id="SVGID_40_" gradientUnits="userSpaceOnUse" x1="298.625" y1="-297.1548" x2="299.3474" y2="-295.9035" gradientTransform="matrix(1 0 0 -1 -256 -245)">
			<stop  offset="0" style="stop-color:#98B2BF"/>
			<stop  offset="1" style="stop-color:#B7CAD5"/>
		</linearGradient>
		<polygon class="st40" points="32.6,46 33.8,45.3 53.5,56.9 52.2,57.6 		"/>
		
			<linearGradient id="SVGID_41_" gradientUnits="userSpaceOnUse" x1="308.8066" y1="-357.8438" x2="308.8066" y2="-301.9434" gradientTransform="matrix(1 0 0 -1 -256 -245)">
			<stop  offset="0" style="stop-color:#3D4F5A"/>
			<stop  offset="1" style="stop-color:#607A88"/>
		</linearGradient>
		<polygon class="st41" points="52.2,112.8 53.5,112.1 53.5,56.9 52.2,57.6 		"/>
		<g>
			<g>
				<g>
					
						<linearGradient id="SVGID_42_" gradientUnits="userSpaceOnUse" x1="288.5098" y1="-308.1436" x2="308.2047" y2="-308.1436" gradientTransform="matrix(1 0 0 -1 -256 -245)">
						<stop  offset="0" style="stop-color:#98B2BF"/>
						<stop  offset="1" style="stop-color:#B7CAD5"/>
					</linearGradient>
					<polygon class="st42" points="52.2,69.7 32.6,58.1 32.6,56.5 52.2,68.1 					"/>
				</g>
				
					<linearGradient id="SVGID_43_" gradientUnits="userSpaceOnUse" x1="308.8066" y1="-314.7852" x2="308.8066" y2="-312.4449" gradientTransform="matrix(1 0 0 -1 -256 -245)">
					<stop  offset="0" style="stop-color:#98B2BF"/>
					<stop  offset="1" style="stop-color:#B7CAD5"/>
				</linearGradient>
				<polygon class="st43" points="52.2,69.7 53.5,69 53.5,67.4 52.2,68.1 				"/>
			</g>
		</g>
		<g>
			<g>
				<g>
					
						<linearGradient id="SVGID_44_" gradientUnits="userSpaceOnUse" x1="288.5098" y1="-310.3438" x2="308.2047" y2="-310.3438" gradientTransform="matrix(1 0 0 -1 -256 -245)">
						<stop  offset="0" style="stop-color:#98B2BF"/>
						<stop  offset="1" style="stop-color:#B7CAD5"/>
					</linearGradient>
					<polygon class="st44" points="52.2,71.9 32.6,60.3 32.6,58.7 52.2,70.3 					"/>
				</g>
				
					<linearGradient id="SVGID_45_" gradientUnits="userSpaceOnUse" x1="308.8066" y1="-316.9541" x2="308.8066" y2="-314.6148" gradientTransform="matrix(1 0 0 -1 -256 -245)">
					<stop  offset="0" style="stop-color:#98B2BF"/>
					<stop  offset="1" style="stop-color:#B7CAD5"/>
				</linearGradient>
				<polygon class="st45" points="52.2,71.9 53.5,71.2 53.5,69.6 52.2,70.3 				"/>
			</g>
		</g>
		
			<linearGradient id="SVGID_46_" gradientUnits="userSpaceOnUse" x1="292.957" y1="-346.5928" x2="308.2003" y2="-346.5928" gradientTransform="matrix(1 0 0 -1 -256 -245)">
			<stop  offset="0" style="stop-color:#98B2BF"/>
			<stop  offset="1" style="stop-color:#B7CAD5"/>
		</linearGradient>
		<polygon class="st46" points="52.2,105.5 52.2,106.5 37,97.5 37,96.6 		"/>
		
			<linearGradient id="SVGID_47_" gradientUnits="userSpaceOnUse" x1="308.8066" y1="-351.522" x2="308.8066" y2="-349.8516" gradientTransform="matrix(1 0 0 -1 -256 -245)">
			<stop  offset="0" style="stop-color:#98B2BF"/>
			<stop  offset="1" style="stop-color:#B7CAD5"/>
		</linearGradient>
		<polygon class="st47" points="52.2,106.5 53.5,105.8 53.5,104.8 52.2,105.5 		"/>
		
			<linearGradient id="SVGID_48_" gradientUnits="userSpaceOnUse" x1="292.957" y1="-345.1426" x2="308.2003" y2="-345.1426" gradientTransform="matrix(1 0 0 -1 -256 -245)">
			<stop  offset="0" style="stop-color:#98B2BF"/>
			<stop  offset="1" style="stop-color:#B7CAD5"/>
		</linearGradient>
		<polygon class="st48" points="52.2,104.1 52.2,105.1 37,96.1 37,95.1 		"/>
		
			<linearGradient id="SVGID_49_" gradientUnits="userSpaceOnUse" x1="308.8066" y1="-350.1035" x2="308.8066" y2="-348.4346" gradientTransform="matrix(1 0 0 -1 -256 -245)">
			<stop  offset="0" style="stop-color:#98B2BF"/>
			<stop  offset="1" style="stop-color:#B7CAD5"/>
		</linearGradient>
		<polygon class="st49" points="52.2,105.1 53.5,104.3 53.5,103.4 52.2,104.1 		"/>
		
			<linearGradient id="SVGID_50_" gradientUnits="userSpaceOnUse" x1="292.957" y1="-343.6924" x2="308.2003" y2="-343.6924" gradientTransform="matrix(1 0 0 -1 -256 -245)">
			<stop  offset="0" style="stop-color:#98B2BF"/>
			<stop  offset="1" style="stop-color:#B7CAD5"/>
		</linearGradient>
		<polygon class="st50" points="52.2,102.7 52.2,103.6 37,94.7 37,93.7 		"/>
		
			<linearGradient id="SVGID_51_" gradientUnits="userSpaceOnUse" x1="308.8066" y1="-348.6865" x2="308.8066" y2="-347.0152" gradientTransform="matrix(1 0 0 -1 -256 -245)">
			<stop  offset="0" style="stop-color:#98B2BF"/>
			<stop  offset="1" style="stop-color:#B7CAD5"/>
		</linearGradient>
		<polygon class="st51" points="52.2,103.6 53.5,102.9 53.5,102 52.2,102.7 		"/>
		
			<linearGradient id="SVGID_52_" gradientUnits="userSpaceOnUse" x1="292.957" y1="-342.293" x2="308.2003" y2="-342.293" gradientTransform="matrix(1 0 0 -1 -256 -245)">
			<stop  offset="0" style="stop-color:#98B2BF"/>
			<stop  offset="1" style="stop-color:#B7CAD5"/>
		</linearGradient>
		<polygon class="st52" points="52.2,101.3 52.2,102.2 37,93.3 37,92.3 		"/>
		
			<linearGradient id="SVGID_53_" gradientUnits="userSpaceOnUse" x1="308.8066" y1="-347.2671" x2="308.8066" y2="-345.5967" gradientTransform="matrix(1 0 0 -1 -256 -245)">
			<stop  offset="0" style="stop-color:#98B2BF"/>
			<stop  offset="1" style="stop-color:#B7CAD5"/>
		</linearGradient>
		<polygon class="st53" points="52.2,102.2 53.5,101.5 53.5,100.6 52.2,101.3 		"/>
		
			<linearGradient id="SVGID_54_" gradientUnits="userSpaceOnUse" x1="292.957" y1="-340.8936" x2="308.2003" y2="-340.8936" gradientTransform="matrix(1 0 0 -1 -256 -245)">
			<stop  offset="0" style="stop-color:#98B2BF"/>
			<stop  offset="1" style="stop-color:#B7CAD5"/>
		</linearGradient>
		<polygon class="st54" points="52.2,99.9 52.2,100.8 37,91.8 37,90.9 		"/>
		
			<linearGradient id="SVGID_55_" gradientUnits="userSpaceOnUse" x1="308.8066" y1="-345.8506" x2="308.8066" y2="-344.1797" gradientTransform="matrix(1 0 0 -1 -256 -245)">
			<stop  offset="0" style="stop-color:#98B2BF"/>
			<stop  offset="1" style="stop-color:#B7CAD5"/>
		</linearGradient>
		<polygon class="st55" points="52.2,100.8 53.5,100.1 53.5,99.1 52.2,99.9 		"/>
		
			<linearGradient id="SVGID_56_" gradientUnits="userSpaceOnUse" x1="292.957" y1="-339.4932" x2="308.2003" y2="-339.4932" gradientTransform="matrix(1 0 0 -1 -256 -245)">
			<stop  offset="0" style="stop-color:#98B2BF"/>
			<stop  offset="1" style="stop-color:#B7CAD5"/>
		</linearGradient>
		<polygon class="st56" points="52.2,98.4 52.2,99.4 37,90.4 37,89.5 		"/>
		
			<linearGradient id="SVGID_57_" gradientUnits="userSpaceOnUse" x1="308.8066" y1="-344.4326" x2="308.8066" y2="-342.7603" gradientTransform="matrix(1 0 0 -1 -256 -245)">
			<stop  offset="0" style="stop-color:#98B2BF"/>
			<stop  offset="1" style="stop-color:#B7CAD5"/>
		</linearGradient>
		<polygon class="st57" points="52.2,99.4 53.5,98.7 53.5,97.7 52.2,98.4 		"/>
		
			<linearGradient id="SVGID_58_" gradientUnits="userSpaceOnUse" x1="292.957" y1="-338.0928" x2="308.2003" y2="-338.0928" gradientTransform="matrix(1 0 0 -1 -256 -245)">
			<stop  offset="0" style="stop-color:#98B2BF"/>
			<stop  offset="1" style="stop-color:#B7CAD5"/>
		</linearGradient>
		<polygon class="st58" points="52.2,97 52.2,98 37,89 37,88.1 37.8,88.5 		"/>
		
			<linearGradient id="SVGID_59_" gradientUnits="userSpaceOnUse" x1="308.8066" y1="-343.0142" x2="308.8066" y2="-341.3427" gradientTransform="matrix(1 0 0 -1 -256 -245)">
			<stop  offset="0" style="stop-color:#98B2BF"/>
			<stop  offset="1" style="stop-color:#B7CAD5"/>
		</linearGradient>
		<polygon class="st59" points="52.2,98 53.5,97.2 53.5,96.3 52.2,97 		"/>
		
			<linearGradient id="SVGID_60_" gradientUnits="userSpaceOnUse" x1="293.3574" y1="-334.0337" x2="293.3574" y2="-333.0928" gradientTransform="matrix(1 0 0 -1 -256 -245)">
			<stop  offset="0" style="stop-color:#3D4F5A"/>
			<stop  offset="1" style="stop-color:#607A88"/>
		</linearGradient>
		<polygon class="st60" points="37.8,88.5 37,89 37,88.1 		"/>
		
			<linearGradient id="SVGID_61_" gradientUnits="userSpaceOnUse" x1="293.3574" y1="-335.4561" x2="293.3574" y2="-334.5142" gradientTransform="matrix(1 0 0 -1 -256 -245)">
			<stop  offset="0" style="stop-color:#3D4F5A"/>
			<stop  offset="1" style="stop-color:#607A88"/>
		</linearGradient>
		<polygon class="st61" points="37.8,89.9 37,90.4 37,89.5 		"/>
		
			<linearGradient id="SVGID_62_" gradientUnits="userSpaceOnUse" x1="293.3574" y1="-336.8789" x2="293.3574" y2="-335.9365" gradientTransform="matrix(1 0 0 -1 -256 -245)">
			<stop  offset="0" style="stop-color:#3D4F5A"/>
			<stop  offset="1" style="stop-color:#607A88"/>
		</linearGradient>
		<polygon class="st62" points="37.8,91.4 37,91.8 37,90.9 		"/>
		
			<linearGradient id="SVGID_63_" gradientUnits="userSpaceOnUse" x1="293.3574" y1="-338.2998" x2="293.3574" y2="-337.3583" gradientTransform="matrix(1 0 0 -1 -256 -245)">
			<stop  offset="0" style="stop-color:#3D4F5A"/>
			<stop  offset="1" style="stop-color:#607A88"/>
		</linearGradient>
		<polygon class="st63" points="37.8,92.8 37,93.3 37,92.3 		"/>
		
			<linearGradient id="SVGID_64_" gradientUnits="userSpaceOnUse" x1="293.3574" y1="-339.7202" x2="293.3574" y2="-338.7798" gradientTransform="matrix(1 0 0 -1 -256 -245)">
			<stop  offset="0" style="stop-color:#3D4F5A"/>
			<stop  offset="1" style="stop-color:#607A88"/>
		</linearGradient>
		<polygon class="st64" points="37.8,94.2 37,94.7 37,93.7 		"/>
		
			<linearGradient id="SVGID_65_" gradientUnits="userSpaceOnUse" x1="293.3574" y1="-341.1426" x2="293.3574" y2="-340.2007" gradientTransform="matrix(1 0 0 -1 -256 -245)">
			<stop  offset="0" style="stop-color:#3D4F5A"/>
			<stop  offset="1" style="stop-color:#607A88"/>
		</linearGradient>
		<polygon class="st65" points="37.8,95.6 37,96.1 37,95.2 		"/>
		
			<linearGradient id="SVGID_66_" gradientUnits="userSpaceOnUse" x1="293.3574" y1="-342.5649" x2="293.3574" y2="-341.6249" gradientTransform="matrix(1 0 0 -1 -256 -245)">
			<stop  offset="0" style="stop-color:#3D4F5A"/>
			<stop  offset="1" style="stop-color:#607A88"/>
		</linearGradient>
		<polygon class="st66" points="37.8,97 37,97.5 37,96.6 		"/>
		<g>
			
				<linearGradient id="SVGID_67_" gradientUnits="userSpaceOnUse" x1="301.9297" y1="-338.4785" x2="306.9736" y2="-338.4785" gradientTransform="matrix(1 0.589 0 -1 -256 -433.8607)">
				<stop  offset="0" style="stop-color:#3D4F5A"/>
				<stop  offset="1" style="stop-color:#607A88"/>
			</linearGradient>
			<path class="st67" d="M51,85.4c0,1.4-1.1,1.9-2.5,1c-1.4-0.8-2.5-2.6-2.5-4s1.1-1.9,2.5-1C49.9,82.2,51,84,51,85.4z"/>
			
				<radialGradient id="SVGID_68_" cx="168.5322" cy="-447.373" r="2.4974" gradientTransform="matrix(0.8946 0.527 0 -0.8946 -102.1807 -404.9509)" gradientUnits="userSpaceOnUse">
				<stop  offset="0" style="stop-color:#B7CAD5"/>
				<stop  offset="1" style="stop-color:#98B2BF"/>
			</radialGradient>
			<path class="st68" d="M50.9,85.4c0,1.2-1,1.6-2.2,0.9c-1.2-0.7-2.2-2.3-2.2-3.6c0-1.2,1-1.6,2.2-0.9
				C49.9,82.5,50.9,84.1,50.9,85.4z"/>
		</g>
		<g>
			
				<linearGradient id="SVGID_69_" gradientUnits="userSpaceOnUse" x1="303.6914" y1="-342.6289" x2="305.2143" y2="-342.6289" gradientTransform="matrix(1 0.589 0 -1 -256 -433.8607)">
				<stop  offset="0" style="stop-color:#3D4F5A"/>
				<stop  offset="1" style="stop-color:#607A88"/>
			</linearGradient>
			<path class="st69" d="M49.3,88.5c0,0.4-0.3,0.6-0.8,0.3c-0.4-0.2-0.8-0.8-0.8-1.2s0.3-0.6,0.8-0.3C48.9,87.5,49.3,88.1,49.3,88.5
				z"/>
			
				<radialGradient id="SVGID_70_" cx="168.4277" cy="-451.9609" r="0.7532" gradientTransform="matrix(0.8946 0.527 0 -0.8946 -102.1807 -404.9509)" gradientUnits="userSpaceOnUse">
				<stop  offset="0" style="stop-color:#B7CAD5"/>
				<stop  offset="1" style="stop-color:#98B2BF"/>
			</radialGradient>
			<path class="st70" d="M49.2,88.5c0,0.4-0.3,0.5-0.7,0.3c-0.4-0.2-0.7-0.7-0.7-1.1c0-0.4,0.3-0.5,0.7-0.3
				C48.9,87.6,49.2,88.1,49.2,88.5z"/>
		</g>
	</g>
</g>
</svg>
