<?xml version="1.0" encoding="utf-8"?>
<!-- Generator: Adobe Illustrator 16.0.0, SVG Export Plug-In . SVG Version: 6.00 Build 0)  -->
<!DOCTYPE svg PUBLIC "-//W3C//DTD SVG 1.1//EN" "http://www.w3.org/Graphics/SVG/1.1/DTD/svg11.dtd">
<svg version="1.1" id="图层_1" xmlns="http://www.w3.org/2000/svg" xmlns:xlink="http://www.w3.org/1999/xlink" x="0px" y="0px"
	 width="100px" height="100px" viewBox="0 0 100 100" style="enable-background:new 0 0 100 100;" xml:space="preserve">
<style type="text/css">
<![CDATA[
	.st0{fill:url(#SVGID_1_);}
	.st1{fill:url(#SVGID_2_);}
	.st2{fill:#FFFFFF;}
	.st3{fill:#6D8D9D;}
]]>
</style>
<g>
	<polygon class="st3" points="82.8,100 12.3,58.4 12.3,2.7 82.8,44.3 	"/>
	
		<linearGradient id="SVGID_1_" gradientUnits="userSpaceOnUse" x1="304.5459" y1="-269.4067" x2="307.1318" y2="-264.9278" gradientTransform="matrix(1 0 0 -1 -256 -245)">
		<stop  offset="0" style="stop-color:#98B2BF"/>
		<stop  offset="1" style="stop-color:#B7CAD5"/>
	</linearGradient>
	<polygon class="st0" points="12.3,2.7 16.7,0.1 87.3,41.7 82.8,44.3 	"/>
	
		<linearGradient id="SVGID_2_" gradientUnits="userSpaceOnUse" x1="341.0938" y1="-344.9912" x2="341.0938" y2="-286.6558" gradientTransform="matrix(1 0 0 -1 -256 -245)">
		<stop  offset="0" style="stop-color:#3D4F5A"/>
		<stop  offset="1" style="stop-color:#607A88"/>
	</linearGradient>
	<polygon class="st1" points="82.8,100 87.3,97.4 87.3,41.7 82.8,44.3 	"/>
	<g>
		<path class="st2" d="M57,49.7c0-4,3.2-5.3,7.2-3c4,2.3,7.2,7.5,7.2,11.5c0,4-3.2,5.3-7.2,3C60.2,58.8,57,53.7,57,49.7z M51,64.8
			c0.2-1.7,1-7.3,7.4-6.9c1.6,2.2,3.6,4.1,5.8,5.4c2.2,1.3,4.2,1.7,5.8,1.4c6.5,7.1,7.2,13.7,7.4,15.6C77.4,80.4,51,64.8,51,64.8z"
			/>
		<g>
			<polygon class="st2" points="17.9,24.9 41.9,39.1 41.9,36.5 17.9,22.3 			"/>
			<polygon class="st2" points="17.9,33.8 41.9,47.9 41.9,45.4 17.9,31.2 			"/>
			<polygon class="st2" points="17.9,42.7 41.9,56.8 41.9,54.1 17.9,40.1 			"/>
		</g>
	</g>
</g>
</svg>
