<?xml version="1.0" encoding="utf-8"?>
<!-- Generator: Adobe Illustrator 16.0.0, SVG Export Plug-In . SVG Version: 6.00 Build 0)  -->
<!DOCTYPE svg PUBLIC "-//W3C//DTD SVG 1.1//EN" "http://www.w3.org/Graphics/SVG/1.1/DTD/svg11.dtd">
<svg version="1.1" id="图层_1" xmlns="http://www.w3.org/2000/svg" xmlns:xlink="http://www.w3.org/1999/xlink" x="0px" y="0px"
	 width="100px" height="120px" viewBox="0 -10 100 120" style="enable-background:new 0 -10 100 120;" xml:space="preserve">
<style type="text/css">
<![CDATA[
	.st0{fill:url(#SVGID_1_);}
	.st1{fill:url(#SVGID_2_);}
	.st2{fill:url(#SVGID_3_);}
	.st3{fill:url(#SVGID_4_);}
	.st4{fill:url(#SVGID_5_);}
	.st5{fill:url(#SVGID_6_);}
	.st6{fill:url(#SVGID_7_);}
	.st7{fill:url(#SVGID_8_);}
	.st8{fill:url(#SVGID_9_);}
	.st9{fill:#6D8D9D;}
	.st10{fill:url(#SVGID_10_);}
	.st11{fill:url(#SVGID_11_);}
	.st12{fill:url(#SVGID_12_);}
	.st13{fill:url(#SVGID_13_);}
	.st14{fill:url(#SVGID_14_);}
	.st15{fill:url(#SVGID_15_);}
	.st16{fill:url(#SVGID_16_);}
	.st17{fill:url(#SVGID_17_);}
	.st18{fill:url(#SVGID_18_);}
	.st19{fill:url(#SVGID_19_);}
	.st20{fill:url(#SVGID_20_);}
	.st21{fill:url(#SVGID_21_);}
	.st22{fill:url(#SVGID_22_);}
	.st23{fill:url(#SVGID_23_);}
	.st24{fill:url(#SVGID_24_);}
	.st25{fill:url(#SVGID_25_);}
	.st26{fill:url(#SVGID_26_);}
	.st27{fill:url(#SVGID_27_);}
	.st28{fill:url(#SVGID_28_);}
	.st29{fill:url(#SVGID_29_);}
	.st30{fill:url(#SVGID_30_);}
	.st31{fill:url(#SVGID_31_);}
	.st32{fill:url(#SVGID_32_);}
	.st33{fill:url(#SVGID_33_);}
	.st34{fill:url(#SVGID_34_);}
	.st35{fill:url(#SVGID_35_);}
]]>
</style>
<g>
	<g>
		<polygon class="st9" points="29.4,108.5 4.1,93.6 4.1,22.6 29.4,37.5 		"/>
		
			<linearGradient id="SVGID_1_" gradientUnits="userSpaceOnUse" x1="288.7412" y1="-284.3994" x2="318.3345" y2="-233.1424" gradientTransform="matrix(1 0 0 -1 -256 -245)">
			<stop  offset="0" style="stop-color:#98B2BF"/>
			<stop  offset="1" style="stop-color:#B7CAD5"/>
		</linearGradient>
		<polygon class="st0" points="4.1,22.6 65.6,-10 90.9,4.9 29.4,37.5 		"/>
		
			<linearGradient id="SVGID_2_" gradientUnits="userSpaceOnUse" x1="316.1992" y1="-353.5" x2="316.1992" y2="-249.8994" gradientTransform="matrix(1 0 0 -1 -256 -245)">
			<stop  offset="0" style="stop-color:#3D4F5A"/>
			<stop  offset="1" style="stop-color:#607A88"/>
		</linearGradient>
		<polygon class="st1" points="29.4,108.5 90.9,75.9 90.9,4.9 29.4,37.5 		"/>
	</g>
	<polygon class="st9" points="27.1,110 1.9,95.1 1.9,24.1 27.1,39 	"/>
	
		<linearGradient id="SVGID_3_" gradientUnits="userSpaceOnUse" x1="261.4492" y1="-283.2993" x2="279.5108" y2="-283.2993" gradientTransform="matrix(1 0 0 -1 -256 -245)">
		<stop  offset="0" style="stop-color:#C7D6DE"/>
		<stop  offset="1" style="stop-color:#97B1BE"/>
	</linearGradient>
	<polygon class="st2" points="23.6,47.8 5.4,37.2 5.4,28.8 23.6,39.5 	"/>
	
		<linearGradient id="SVGID_4_" gradientUnits="userSpaceOnUse" x1="261.9492" y1="-281.8496" x2="279.0068" y2="-281.8496" gradientTransform="matrix(1 0 0 -1 -256 -245)">
		<stop  offset="0" style="stop-color:#607A88"/>
		<stop  offset="1" style="stop-color:#3D4F5A"/>
	</linearGradient>
	<polygon class="st3" points="22.9,42.8 5.9,32.7 5.9,30.9 22.9,41 	"/>
	
		<linearGradient id="SVGID_5_" gradientUnits="userSpaceOnUse" x1="270.8271" y1="-276.8682" x2="271.7564" y2="-275.2586" gradientTransform="matrix(1 0 0 -1 -256 -245)">
		<stop  offset="0" style="stop-color:#98B2BF"/>
		<stop  offset="1" style="stop-color:#B7CAD5"/>
	</linearGradient>
	<polygon class="st4" points="1.9,24.1 3.4,23.1 28.7,38 27.1,39 	"/>
	
		<linearGradient id="SVGID_6_" gradientUnits="userSpaceOnUse" x1="283.9502" y1="-355" x2="283.9502" y2="-282.9995" gradientTransform="matrix(1 0 0 -1 -256 -245)">
		<stop  offset="0" style="stop-color:#3D4F5A"/>
		<stop  offset="1" style="stop-color:#607A88"/>
	</linearGradient>
	<polygon class="st5" points="27.1,110 28.7,109 28.7,38 27.1,39 	"/>
	<g>
		<g>
			<g>
				
					<linearGradient id="SVGID_7_" gradientUnits="userSpaceOnUse" x1="257.8018" y1="-291" x2="283.1377" y2="-291" gradientTransform="matrix(1 0 0 -1 -256 -245)">
					<stop  offset="0" style="stop-color:#98B2BF"/>
					<stop  offset="1" style="stop-color:#B7CAD5"/>
				</linearGradient>
				<polygon class="st6" points="27.1,54.5 1.9,39.6 1.9,37.5 27.1,52.5 				"/>
			</g>
			
				<linearGradient id="SVGID_8_" gradientUnits="userSpaceOnUse" x1="283.9502" y1="-299.5391" x2="283.9502" y2="-296.5293" gradientTransform="matrix(1 0 0 -1 -256 -245)">
				<stop  offset="0" style="stop-color:#98B2BF"/>
				<stop  offset="1" style="stop-color:#B7CAD5"/>
			</linearGradient>
			<polygon class="st7" points="27.1,54.5 28.7,53.6 28.7,51.5 27.1,52.5 			"/>
		</g>
	</g>
	<g>
		<g>
			<g>
				
					<linearGradient id="SVGID_9_" gradientUnits="userSpaceOnUse" x1="257.8018" y1="-293.7988" x2="283.1377" y2="-293.7988" gradientTransform="matrix(1 0 0 -1 -256 -245)">
					<stop  offset="0" style="stop-color:#98B2BF"/>
					<stop  offset="1" style="stop-color:#B7CAD5"/>
				</linearGradient>
				<polygon class="st8" points="27.1,57.3 1.9,42.4 1.9,40.3 27.1,55.3 				"/>
			</g>
			
				<linearGradient id="SVGID_10_" gradientUnits="userSpaceOnUse" x1="283.9502" y1="-302.3271" x2="283.9502" y2="-299.3193" gradientTransform="matrix(1 0 0 -1 -256 -245)">
				<stop  offset="0" style="stop-color:#98B2BF"/>
				<stop  offset="1" style="stop-color:#B7CAD5"/>
			</linearGradient>
			<polygon class="st10" points="27.1,57.3 28.7,56.4 28.7,54.3 27.1,55.3 			"/>
		</g>
	</g>
	
		<linearGradient id="SVGID_11_" gradientUnits="userSpaceOnUse" x1="263.5273" y1="-340.3994" x2="283.1279" y2="-340.3994" gradientTransform="matrix(1 0 0 -1 -256 -245)">
		<stop  offset="0" style="stop-color:#98B2BF"/>
		<stop  offset="1" style="stop-color:#B7CAD5"/>
	</linearGradient>
	<polygon class="st11" points="27.1,100.6 27.1,101.8 7.5,90.3 7.5,89 	"/>
	
		<linearGradient id="SVGID_12_" gradientUnits="userSpaceOnUse" x1="283.9502" y1="-346.7959" x2="283.9502" y2="-344.6479" gradientTransform="matrix(1 0 0 -1 -256 -245)">
		<stop  offset="0" style="stop-color:#98B2BF"/>
		<stop  offset="1" style="stop-color:#B7CAD5"/>
	</linearGradient>
	<polygon class="st12" points="27.1,101.8 28.7,100.9 28.7,99.6 27.1,100.6 	"/>
	
		<linearGradient id="SVGID_13_" gradientUnits="userSpaceOnUse" x1="263.5273" y1="-338.5996" x2="283.1279" y2="-338.5996" gradientTransform="matrix(1 0 0 -1 -256 -245)">
		<stop  offset="0" style="stop-color:#98B2BF"/>
		<stop  offset="1" style="stop-color:#B7CAD5"/>
	</linearGradient>
	<polygon class="st13" points="27.1,98.8 27.1,100 7.5,88.4 7.5,87.2 	"/>
	
		<linearGradient id="SVGID_14_" gradientUnits="userSpaceOnUse" x1="283.9502" y1="-344.9727" x2="283.9502" y2="-342.8232" gradientTransform="matrix(1 0 0 -1 -256 -245)">
		<stop  offset="0" style="stop-color:#98B2BF"/>
		<stop  offset="1" style="stop-color:#B7CAD5"/>
	</linearGradient>
	<polygon class="st14" points="27.1,100 28.7,99 28.7,97.8 27.1,98.8 	"/>
	
		<linearGradient id="SVGID_15_" gradientUnits="userSpaceOnUse" x1="263.5273" y1="-336.7998" x2="283.1279" y2="-336.7998" gradientTransform="matrix(1 0 0 -1 -256 -245)">
		<stop  offset="0" style="stop-color:#98B2BF"/>
		<stop  offset="1" style="stop-color:#B7CAD5"/>
	</linearGradient>
	<polygon class="st15" points="27.1,96.9 27.1,98.2 7.5,86.6 7.5,85.4 	"/>
	
		<linearGradient id="SVGID_16_" gradientUnits="userSpaceOnUse" x1="283.9502" y1="-343.1494" x2="283.9502" y2="-341" gradientTransform="matrix(1 0 0 -1 -256 -245)">
		<stop  offset="0" style="stop-color:#98B2BF"/>
		<stop  offset="1" style="stop-color:#B7CAD5"/>
	</linearGradient>
	<polygon class="st16" points="27.1,98.2 28.7,97.2 28.7,96 27.1,96.9 	"/>
	
		<linearGradient id="SVGID_17_" gradientUnits="userSpaceOnUse" x1="263.5273" y1="-334.9492" x2="283.1279" y2="-334.9492" gradientTransform="matrix(1 0 0 -1 -256 -245)">
		<stop  offset="0" style="stop-color:#98B2BF"/>
		<stop  offset="1" style="stop-color:#B7CAD5"/>
	</linearGradient>
	<polygon class="st17" points="27.1,95.1 27.1,96.3 7.5,84.8 7.5,83.6 	"/>
	
		<linearGradient id="SVGID_18_" gradientUnits="userSpaceOnUse" x1="283.9502" y1="-341.3232" x2="283.9502" y2="-339.1748" gradientTransform="matrix(1 0 0 -1 -256 -245)">
		<stop  offset="0" style="stop-color:#98B2BF"/>
		<stop  offset="1" style="stop-color:#B7CAD5"/>
	</linearGradient>
	<polygon class="st18" points="27.1,96.3 28.7,95.4 28.7,94.2 27.1,95.1 	"/>
	
		<linearGradient id="SVGID_19_" gradientUnits="userSpaceOnUse" x1="263.5273" y1="-333.0996" x2="283.1279" y2="-333.0996" gradientTransform="matrix(1 0 0 -1 -256 -245)">
		<stop  offset="0" style="stop-color:#98B2BF"/>
		<stop  offset="1" style="stop-color:#B7CAD5"/>
	</linearGradient>
	<polygon class="st19" points="27.1,93.3 27.1,94.5 7.5,83 7.5,81.7 	"/>
	
		<linearGradient id="SVGID_20_" gradientUnits="userSpaceOnUse" x1="283.9502" y1="-339.5" x2="283.9502" y2="-337.3521" gradientTransform="matrix(1 0 0 -1 -256 -245)">
		<stop  offset="0" style="stop-color:#98B2BF"/>
		<stop  offset="1" style="stop-color:#B7CAD5"/>
	</linearGradient>
	<polygon class="st20" points="27.1,94.5 28.7,93.6 28.7,92.4 27.1,93.3 	"/>
	
		<linearGradient id="SVGID_21_" gradientUnits="userSpaceOnUse" x1="263.5273" y1="-331.2988" x2="283.1279" y2="-331.2988" gradientTransform="matrix(1 0 0 -1 -256 -245)">
		<stop  offset="0" style="stop-color:#98B2BF"/>
		<stop  offset="1" style="stop-color:#B7CAD5"/>
	</linearGradient>
	<polygon class="st21" points="27.1,91.5 27.1,92.7 7.5,81.1 7.5,79.9 	"/>
	
		<linearGradient id="SVGID_22_" gradientUnits="userSpaceOnUse" x1="283.9502" y1="-337.6768" x2="283.9502" y2="-335.5273" gradientTransform="matrix(1 0 0 -1 -256 -245)">
		<stop  offset="0" style="stop-color:#98B2BF"/>
		<stop  offset="1" style="stop-color:#B7CAD5"/>
	</linearGradient>
	<polygon class="st22" points="27.1,92.7 28.7,91.7 28.7,90.5 27.1,91.5 	"/>
	
		<linearGradient id="SVGID_23_" gradientUnits="userSpaceOnUse" x1="263.5273" y1="-329.5" x2="283.1279" y2="-329.5" gradientTransform="matrix(1 0 0 -1 -256 -245)">
		<stop  offset="0" style="stop-color:#98B2BF"/>
		<stop  offset="1" style="stop-color:#B7CAD5"/>
	</linearGradient>
	<polygon class="st23" points="27.1,89.6 27.1,90.9 7.5,79.3 7.5,78.1 8.5,78.7 	"/>
	
		<linearGradient id="SVGID_24_" gradientUnits="userSpaceOnUse" x1="283.9502" y1="-335.854" x2="283.9502" y2="-333.7022" gradientTransform="matrix(1 0 0 -1 -256 -245)">
		<stop  offset="0" style="stop-color:#98B2BF"/>
		<stop  offset="1" style="stop-color:#B7CAD5"/>
	</linearGradient>
	<polygon class="st24" points="27.1,90.9 28.7,89.9 28.7,88.7 27.1,89.6 	"/>
	
		<linearGradient id="SVGID_25_" gradientUnits="userSpaceOnUse" x1="264.0498" y1="-324.3008" x2="264.0498" y2="-323.0898" gradientTransform="matrix(1 0 0 -1 -256 -245)">
		<stop  offset="0" style="stop-color:#3D4F5A"/>
		<stop  offset="1" style="stop-color:#607A88"/>
	</linearGradient>
	<polygon class="st25" points="8.5,78.7 7.5,79.3 7.5,78.1 	"/>
	
		<linearGradient id="SVGID_26_" gradientUnits="userSpaceOnUse" x1="264.0498" y1="-326.1289" x2="264.0498" y2="-324.917" gradientTransform="matrix(1 0 0 -1 -256 -245)">
		<stop  offset="0" style="stop-color:#3D4F5A"/>
		<stop  offset="1" style="stop-color:#607A88"/>
	</linearGradient>
	<polygon class="st26" points="8.5,80.5 7.5,81.1 7.5,79.9 	"/>
	
		<linearGradient id="SVGID_27_" gradientUnits="userSpaceOnUse" x1="264.0498" y1="-327.959" x2="264.0498" y2="-326.7481" gradientTransform="matrix(1 0 0 -1 -256 -245)">
		<stop  offset="0" style="stop-color:#3D4F5A"/>
		<stop  offset="1" style="stop-color:#607A88"/>
	</linearGradient>
	<polygon class="st27" points="8.5,82.3 7.5,83 7.5,81.7 	"/>
	
		<linearGradient id="SVGID_28_" gradientUnits="userSpaceOnUse" x1="264.0498" y1="-329.7861" x2="264.0498" y2="-328.5757" gradientTransform="matrix(1 0 0 -1 -256 -245)">
		<stop  offset="0" style="stop-color:#3D4F5A"/>
		<stop  offset="1" style="stop-color:#607A88"/>
	</linearGradient>
	<polygon class="st28" points="8.5,84.2 7.5,84.8 7.5,83.6 	"/>
	
		<linearGradient id="SVGID_29_" gradientUnits="userSpaceOnUse" x1="264.0498" y1="-331.6167" x2="264.0498" y2="-330.4068" gradientTransform="matrix(1 0 0 -1 -256 -245)">
		<stop  offset="0" style="stop-color:#3D4F5A"/>
		<stop  offset="1" style="stop-color:#607A88"/>
	</linearGradient>
	<polygon class="st29" points="8.5,86 7.5,86.6 7.5,85.4 	"/>
	
		<linearGradient id="SVGID_30_" gradientUnits="userSpaceOnUse" x1="264.0498" y1="-333.4458" x2="264.0498" y2="-332.2334" gradientTransform="matrix(1 0 0 -1 -256 -245)">
		<stop  offset="0" style="stop-color:#3D4F5A"/>
		<stop  offset="1" style="stop-color:#607A88"/>
	</linearGradient>
	<polygon class="st30" points="8.5,87.8 7.5,88.4 7.5,87.2 	"/>
	
		<linearGradient id="SVGID_31_" gradientUnits="userSpaceOnUse" x1="264.0498" y1="-335.2744" x2="264.0498" y2="-334.0659" gradientTransform="matrix(1 0 0 -1 -256 -245)">
		<stop  offset="0" style="stop-color:#3D4F5A"/>
		<stop  offset="1" style="stop-color:#607A88"/>
	</linearGradient>
	<polygon class="st31" points="8.5,89.7 7.5,90.3 7.5,89.1 	"/>
	<g>
		
			<linearGradient id="SVGID_32_" gradientUnits="userSpaceOnUse" x1="275.0664" y1="-342.6621" x2="281.5537" y2="-342.6621" gradientTransform="matrix(1 0.589 0 -1 -256 -433.8607)">
			<stop  offset="0" style="stop-color:#3D4F5A"/>
			<stop  offset="1" style="stop-color:#607A88"/>
		</linearGradient>
		<path class="st32" d="M25.6,74.7c0,1.8-1.5,2.4-3.2,1.3c-1.8-1.1-3.2-3.4-3.2-5.2c0-1.8,1.5-2.4,3.2-1.3
			C24.1,70.6,25.6,72.9,25.6,74.7z"/>
		
			<radialGradient id="SVGID_33_" cx="139.3545" cy="-452.0977" r="3.2124" gradientTransform="matrix(0.8946 0.527 0 -0.8946 -102.1807 -404.9509)" gradientUnits="userSpaceOnUse">
			<stop  offset="0" style="stop-color:#B7CAD5"/>
			<stop  offset="1" style="stop-color:#98B2BF"/>
		</radialGradient>
		<path class="st33" d="M25.4,74.6c0,1.6-1.3,2.1-2.9,1.2c-1.6-0.9-2.9-3-2.9-4.6s1.3-2.1,2.9-1.2C24.1,70.9,25.4,73,25.4,74.6z"/>
	</g>
	<g>
		
			<linearGradient id="SVGID_34_" gradientUnits="userSpaceOnUse" x1="277.332" y1="-348.0693" x2="279.29" y2="-348.0693" gradientTransform="matrix(1 0.589 0 -1 -256 -433.8607)">
			<stop  offset="0" style="stop-color:#3D4F5A"/>
			<stop  offset="1" style="stop-color:#607A88"/>
		</linearGradient>
		<path class="st34" d="M23.2,78.7c0,0.5-0.4,0.7-1,0.4c-0.5-0.3-1-1-1-1.6c0-0.5,0.4-0.7,1-0.4C22.9,77.4,23.2,78.1,23.2,78.7z"/>
		
			<radialGradient id="SVGID_35_" cx="139.2178" cy="-457.9971" r="0.9682" gradientTransform="matrix(0.8946 0.527 0 -0.8946 -102.1807 -404.9509)" gradientUnits="userSpaceOnUse">
			<stop  offset="0" style="stop-color:#B7CAD5"/>
			<stop  offset="1" style="stop-color:#98B2BF"/>
		</radialGradient>
		<path class="st35" d="M23.2,78.7c0,0.5-0.4,0.6-0.9,0.4c-0.5-0.3-0.9-0.9-0.9-1.4s0.4-0.6,0.9-0.4C22.9,77.6,23.2,78.2,23.2,78.7z
			"/>
	</g>
</g>
</svg>
