<?xml version="1.0" encoding="utf-8"?>
<!-- Generator: Adobe Illustrator 18.1.0, SVG Export Plug-In . SVG Version: 6.00 Build 0)  -->
<svg version="1.1" id="图层_1" xmlns="http://www.w3.org/2000/svg" xmlns:xlink="http://www.w3.org/1999/xlink" x="0px" y="0px"
	 width="60px" height="60px" viewBox="0 0 60 60" style="enable-background:new 0 0 60 60;" xml:space="preserve">
<style type="text/css">
	.st0{fill:#FFFFFF;fill-opacity:0;}
	.st1{fill:url(#SVGID_1_);}
	.st2{fill:#B54319;}
	.st3{fill:#6D8C9C;}
	.st4{fill:url(#SVGID_2_);}
	.st5{opacity:0.5;fill:#6D8C9C;enable-background:new    ;}
	.st6{fill:url(#SVGID_3_);}
	.st7{fill:url(#SVGID_4_);}
	.st8{fill:url(#SVGID_5_);}
	.st9{fill:url(#SVGID_6_);}
	.st10{fill:url(#SVGID_7_);}
</style>
<rect x="0" y="0" class="st0" width="60" height="60"/>
<g>
	
		<linearGradient id="SVGID_1_" gradientUnits="userSpaceOnUse" x1="-7.2873" y1="-5.4294" x2="28.7986" y2="-5.4294" gradientTransform="matrix(0.6 0 0 -0.6 8 28)">
		<stop  offset="0" style="stop-color:#AE4017"/>
		<stop  offset="1" style="stop-color:#761704"/>
	</linearGradient>
	<path class="st1" d="M25.3,30.4v6.5c0,0.3-0.1,0.5-0.4,0.5l0,0l-7.2,4l0,0c0.2-0.1,0.4-0.2,0.4-0.5v-6.5c0-0.6-0.5-1.3-1.1-1.7
		L4.4,25.2c-0.3-0.2-0.5-0.2-0.7-0.1l7.1-3.9l0,0c0.2-0.2,0.5-0.2,0.9,0.1l12.7,7.4C24.8,29.1,25.3,29.8,25.3,30.4z"/>
	<path class="st2" d="M4.4,25.2L17,32.7c0.6,0.4,1.1,1.1,1.1,1.7v6.5c0,0.6-0.5,0.8-1.1,0.4L4.4,33.9c-0.6-0.4-1.1-1.1-1.1-1.7v-6.5
		C3.3,25.1,3.8,24.9,4.4,25.2z"/>
	<path class="st3" d="M49.1,59.9L49.1,59.9L49.1,59.9z"/>
	
		<linearGradient id="SVGID_2_" gradientUnits="userSpaceOnUse" x1="20.9667" y1="-29.1238" x2="81.0926" y2="-29.1238" gradientTransform="matrix(0.6 0 0 -0.6 8 28)">
		<stop  offset="0" style="stop-color:#AE4017"/>
		<stop  offset="1" style="stop-color:#761704"/>
	</linearGradient>
	<path class="st4" d="M56.7,48.9v6.5c0,0.3-0.1,0.5-0.3,0.5l-7.1,3.9c0.1-0.1,0.2-0.2,0.2-0.5v-6.5c0-0.6-0.5-1.3-1.1-1.7l-27.1-16
		C21,35,20.8,35,20.6,35.1l7-3.8c0.2-0.2,0.5-0.2,0.9,0l27.1,16C56.2,47.6,56.7,48.3,56.7,48.9z"/>
	<path class="st5" d="M49.3,59.9c-0.1,0-0.1,0.1-0.1,0.1L49.3,59.9z"/>
	<path class="st2" d="M48.4,59.8l-27.1-16c-0.6-0.4-1.1-1.1-1.1-1.7v-6.5c0-0.6,0.5-0.8,1.1-0.4l27.1,16c0.6,0.4,1.1,1.1,1.1,1.7
		v6.5C49.5,60,49,60.2,48.4,59.8z"/>
	
		<linearGradient id="SVGID_3_" gradientUnits="userSpaceOnUse" x1="-7.2333" y1="5.3706" x2="52.9366" y2="5.3706" gradientTransform="matrix(0.6 0 0 -0.6 8 28)">
		<stop  offset="0" style="stop-color:#AE4017"/>
		<stop  offset="1" style="stop-color:#761704"/>
	</linearGradient>
	<path class="st6" d="M39.7,28.3v6.5c0,0.4-0.2,0.5-0.4,0.6l0,0l-6.8,3.7l0,0c0.1-0.1,0.1-0.2,0.1-0.3v-6.6c0-0.6-0.5-1.3-1.1-1.7
		l-27.1-16c-0.3-0.2-0.5-0.2-0.7-0.1l7.1-3.8l0,0c0.2-0.2,0.5-0.2,0.9,0.1l27.1,16C39.2,27,39.7,27.7,39.7,28.3z"/>
	
		<linearGradient id="SVGID_4_" gradientUnits="userSpaceOnUse" x1="-7.2333" y1="29.8206" x2="28.8233" y2="29.8206" gradientTransform="matrix(0.6 0 0 -0.6 8 28)">
		<stop  offset="0" style="stop-color:#AE4017"/>
		<stop  offset="1" style="stop-color:#761704"/>
	</linearGradient>
	<path class="st7" d="M25.3,15.8c0,0.2-0.1,0.4-0.2,0.4l0,0l0,0c-0.1,0.1-0.1,0.1-0.2,0.1l-7,3.8l0,0c0.1-0.1,0.2-0.2,0.2-0.5v-6.5
		c0-0.6-0.5-1.3-1.1-1.7L4.4,4.1C4.1,3.9,3.8,3.9,3.7,4l7.1-3.8C10.9,0,11.2,0,11.6,0.2l12.6,7.4c0.6,0.4,1.1,1.1,1.1,1.7L25.3,15.8
		L25.3,15.8z"/>
	
		<linearGradient id="SVGID_5_" gradientUnits="userSpaceOnUse" x1="68.5667" y1="-17.9863" x2="68.5667" y2="-17.9863" gradientTransform="matrix(0.6 0 0 -0.6 8 28)">
		<stop  offset="0" style="stop-color:#3D4F5A"/>
		<stop  offset="1" style="stop-color:#607A87"/>
	</linearGradient>
	<path class="st8" d="M49.1,38.8L49.1,38.8L49.1,38.8L49.1,38.8z"/>
	<path class="st3" d="M20.5,35.1L20.5,35.1L20.5,35.1L20.5,35.1z"/>
	
		<linearGradient id="SVGID_6_" gradientUnits="userSpaceOnUse" x1="44.7667" y1="-18.3843" x2="80.9667" y2="-18.3843" gradientTransform="matrix(0.6 0 0 -0.6 8 28)">
		<stop  offset="0" style="stop-color:#AE4017"/>
		<stop  offset="1" style="stop-color:#761704"/>
	</linearGradient>
	<path class="st9" d="M56.6,38.2v6.5c0,0.2-0.1,0.4-0.2,0.5l0,0l-7.2,4l0,0c0.2-0.1,0.2-0.2,0.2-0.5v-6.5c0-0.6-0.5-1.3-1.1-1.7
		L35.7,33c-0.3-0.2-0.6-0.2-0.8-0.1l-0.1-0.1l7.2-4l0.1,0.1c0.2-0.1,0.5-0.1,0.8,0.1l12.7,7.4C56.1,36.9,56.6,37.7,56.6,38.2z"/>
	<path class="st5" d="M20.5,35.1c0.1-0.1,0.1-0.1,0.1-0.1L20.5,35.1z"/>
	<path class="st2" d="M18.1,13.2v6.6c0,0.6-0.5,0.8-1.1,0.4L4.4,12.7c-0.6-0.4-1.1-1.1-1.1-1.7V4.5c0-0.6,0.5-0.8,1.1-0.4L17,11.6
		C17.6,11.9,18.1,12.6,18.1,13.2z"/>
	<path class="st2" d="M4.4,14.6l27.1,16c0.6,0.4,1.1,1.1,1.1,1.7v6.5c0,0.6-0.5,0.8-1.1,0.4l-27.1-16c-0.6-0.4-1.1-1.1-1.1-1.7V15
		C3.3,14.4,3.8,14.3,4.4,14.6z"/>
	<path class="st2" d="M48.4,40.5c0.6,0.4,1.1,1.1,1.1,1.7v6.5c0,0.6-0.5,0.8-1.1,0.4l-12.7-7.4c-0.6-0.4-1.1-1.1-1.1-1.7v-6.5
		c0-0.6,0.5-0.8,1.1-0.4L48.4,40.5z"/>
	
		<linearGradient id="SVGID_7_" gradientUnits="userSpaceOnUse" x1="51.0167" y1="-17.8863" x2="51.0167" y2="30.0978" gradientTransform="matrix(0.6 0 0 -0.6 8 28)">
		<stop  offset="0" style="stop-color:#761704"/>
		<stop  offset="1" style="stop-color:#AE4017"/>
	</linearGradient>
	<path class="st10" d="M56.7,27.8v6.5c0,0.3-0.1,0.5-0.3,0.5l0,0l-7.1,3.9c0.1-0.1,0.2-0.2,0.2-0.5v-6.5c0-0.6-0.5-1.3-1.1-1.7
		l-27.2-16c-0.3-0.2-0.5-0.2-0.8-0.1l7.1-3.9l0,0c0.2-0.1,0.5-0.1,0.8,0.1l27.1,16C56.2,26.4,56.7,27.2,56.7,27.8z"/>
	<path class="st2" d="M48.4,38.7l-27.1-16c-0.6-0.4-1.1-1.1-1.1-1.7v-6.5c0-0.6,0.5-0.8,1.1-0.4l27.1,16c0.6,0.4,1.1,1.1,1.1,1.7
		v6.5C49.5,38.8,49,39,48.4,38.7z"/>
</g>
</svg>
