<?xml version="1.0" encoding="utf-8"?>
<!-- Generator: Adobe Illustrator 16.0.0, SVG Export Plug-In . SVG Version: 6.00 Build 0)  -->
<!DOCTYPE svg PUBLIC "-//W3C//DTD SVG 1.1//EN" "http://www.w3.org/Graphics/SVG/1.1/DTD/svg11.dtd">
<svg version="1.1" id="图层_1" xmlns="http://www.w3.org/2000/svg" xmlns:xlink="http://www.w3.org/1999/xlink" x="0px" y="0px"
	 width="100px" height="100px" viewBox="0 0 100 100" style="enable-background:new 0 0 100 100;" xml:space="preserve">
<style type="text/css">
<![CDATA[
	.st0{opacity:0;fill:#FFFFFF;}
	.st1{fill:#4E646D;}
	.st2{fill:url(#SVGID_1_);}
	.st3{fill:url(#SVGID_2_);}
	.st4{fill:url(#SVGID_3_);}
	.st5{fill:url(#SVGID_4_);}
	.st6{fill:#FFFFFF;}
]]>
</style>
<rect class="st0" width="100" height="100"/>
<g>
	
		<linearGradient id="SVGID_1_" gradientUnits="userSpaceOnUse" x1="256.0703" y1="-308.7871" x2="355.999" y2="-308.7871" gradientTransform="matrix(1 0 0 -1 -256 -244)">
		<stop  offset="0" style="stop-color:#3D4F5A"/>
		<stop  offset="0.5" style="stop-color:#607A88"/>
		<stop  offset="1" style="stop-color:#3D4F5A"/>
	</linearGradient>
	<path class="st2" d="M100,41.3v17.5c0,1.4-0.9,2.8-2.7,3.8L56.4,86.7c-3.6,2.1-9.3,2.1-12.9,0L2.7,62.6c-2-1.2-2.8-2.7-2.6-4.3
		V41.8c0.2,1.2,1.1,2.4,2.6,3.3l40.9,24.2c3.6,2.1,9.3,2.1,12.9,0l40.9-24.2C99.1,44,100,42.7,100,41.3z"/>
	
		<linearGradient id="SVGID_2_" gradientUnits="userSpaceOnUse" x1="256.001" y1="-285.2998" x2="355.999" y2="-285.2998" gradientTransform="matrix(1 0 0 -1 -256 -244)">
		<stop  offset="0" style="stop-color:#86A2B1"/>
		<stop  offset="0.5" style="stop-color:#A9BFCB"/>
		<stop  offset="1" style="stop-color:#86A2B1"/>
	</linearGradient>
	<path class="st3" d="M97.3,37.5c3.6,2.1,3.6,5.5,0,7.6L56.5,69.3c-3.6,2.1-9.3,2.1-12.9,0L2.7,45.1c-3.6-2.1-3.6-5.5,0-7.6
		l40.9-24.2c3.6-2.1,9.3-2.1,12.9,0L97.3,37.5z"/>
	
		<linearGradient id="SVGID_3_" gradientUnits="userSpaceOnUse" x1="263.499" y1="-298.8247" x2="348.3994" y2="-298.8247" gradientTransform="matrix(1 0 0 -1 -256 -244)">
		<stop  offset="0" style="stop-color:#3D4F5A"/>
		<stop  offset="0.5" style="stop-color:#607A88"/>
		<stop  offset="1" style="stop-color:#3D4F5A"/>
	</linearGradient>
	<path class="st4" d="M92.4,41.3v2c0,1.2-0.8,2.3-2.3,3.2L55.5,67c-3,1.8-7.9,1.8-11,0L9.8,46.5c-0.8-0.4-1.3-1-1.7-1.5
		c-0.4-0.6-0.6-1.1-0.6-1.7v-2l0,0c0,1.2,0.8,2.3,2.3,3.2L44.5,65c3,1.8,7.9,1.8,11,0l34.7-20.5C91.7,43.6,92.4,42.4,92.4,41.3
		L92.4,41.3z"/>
	
		<radialGradient id="SVGID_4_" cx="306" cy="-285.2998" r="34.8894" gradientTransform="matrix(1 0 0 -1 -256 -244)" gradientUnits="userSpaceOnUse">
		<stop  offset="0" style="stop-color:#C4D3DB"/>
		<stop  offset="1" style="stop-color:#7B9AA9"/>
	</radialGradient>
	<path class="st5" d="M90.2,38c3,1.8,3,4.7,0,6.5L55.5,65.1c-3,1.8-7.9,1.8-11,0L9.8,44.5c-3-1.8-3-4.7,0-6.5l34.7-20.5
		c3-1.8,7.9-1.8,11,0L90.2,38z"/>
	<g>
		<path class="st1" d="M81.2,46.3L79.7,46l-3.5-6.1l-2.7,1.5c-3.9-1.4-8.3-2.2-12.6-2.2c-1.3,0-2.5,0.1-3.7,0.2l-1.5-0.9
			c0.3-0.7,0.4-1.5,0.4-2.2c0-2.5-1.2-5.1-3.6-7.4l2.6-1.6v-1.6l-2.8,1l-8.7-1.8l-1.9-2v1.6l4.9,8l2.3-1.4c1.2,1.5,1.8,3,1.8,4.5
			l-0.2,0v0.5l-0.1,0v-0.1l0,0l0,0v0l0,0v0.5l-0.1-0.2v0.3l0.1,0v0.2l-0.1-0.1v-0.1l-0.2,0v0.9l-0.2-0.1v-0.2l-0.2,0.1v0.7L49.3,38
			v-0.3l-0.1,0.2L49,38v0.7l-0.3-0.2v-0.2l0,0.2l0,0l0,0v0l-0.2,0.1v0.8l-0.3-0.2v-0.3L47.9,39l-0.2,0.1v1.2H48l0.9,0.6l-0.8-0.5
			c-0.1,0.1-0.2,0.2-0.3,0.3l-0.6-0.3v-0.9L47,40l-0.7,0v1.4L45.6,41v-0.8l-0.6,0.5l-0.5,0v1.2l-0.7-0.4v-0.6l-0.2,0.2l-0.6,0V43
			h0.4l0,0.1l2,1l4.2,2.5L48.3,47l0,0.4l-3.4-2l0.2-0.9l-0.4-0.4L43,43.8L42.8,44l0,0.2L41,43.1c-3.4,0.4-7.2,0.2-10.7-0.9l2.4-1.4
			v-1.6l-2.6,1l-9.4-2l-1.5-1.9v1.6l4.6,8l2.7-1.5c3.9,1.4,8.3,2.2,12.6,2.2c2,0,3.9-0.2,5.7-0.6c-0.6,1.1-0.9,2.2-0.9,3.4
			c0,2.5,1.2,5.1,3.6,7.4l-0.6,0.4l-2-0.4v1.6l13.5,2.7v-1.6l-1.1-0.2l-3.8-6.1l-2.3,1.4c-1.7-2.1-2.2-4.4-1.5-6.4v-1.6l0.6,0.4
			c0.1-0.2,0.2-0.3,0.4-0.5v-0.7l0.4,0.2c0.2-0.2,0.5-0.4,0.7-0.7v-0.7l0.5,0.3c0.2-0.2,0.5-0.3,0.7-0.5c0.1,0,0.1-0.1,0.2-0.1v-0.7
			l0.6,0.3c0.2-0.1,0.4-0.2,0.5-0.2v-0.5l0.5,0.3c0.1-0.1,0.3-0.1,0.4-0.2v-0.5l0.5,0.3c0.1,0,0.3-0.1,0.4-0.1v-0.5l0.5,0.3
			c0.2,0,0.3-0.1,0.5-0.1v-0.5l0.6,0.3c0.2,0,0.4-0.1,0.5-0.1v-0.4l0.5,0.3c0.2,0,0.3,0,0.5-0.1v-0.3l0.4,0.2
			c3.3-0.4,6.9-0.1,10.3,0.9l-0.4,0.2l-2-0.4V45l13.5,2.9l0-0.1l0.4,0.1V46.3z"/>
		<polygon class="st1" points="50.3,35.9 50.3,36.1 50.4,36.1 		"/>
		<polygon class="st1" points="49.7,37.1 49.7,37.3 49.8,37.3 		"/>
	</g>
	<g>
		<path class="st6" d="M59.1,41.1l-8.8-5.2c0,0.1-0.1,0.2-0.1,0.3l8.4,5C58.8,41.1,59,41.1,59.1,41.1z"/>
		<path class="st6" d="M58.2,41.2l-8.1-4.8c-0.1,0.1-0.1,0.2-0.2,0.3l7.7,4.6C57.8,41.3,58,41.3,58.2,41.2z"/>
		<path class="st6" d="M49.7,37.1c-0.1,0.1-0.1,0.2-0.2,0.3l7.1,4.2c0.2,0,0.3-0.1,0.5-0.1L49.7,37.1z"/>
		<path class="st6" d="M56.1,41.7l-6.8-4c-0.1,0.1-0.2,0.2-0.2,0.3l6.6,3.9C55.8,41.8,55.9,41.8,56.1,41.7z"/>
		<path class="st6" d="M55.1,42l-6.4-3.8c-0.1,0.1-0.2,0.2-0.3,0.2l6.2,3.7C54.8,42.1,55,42.1,55.1,42z"/>
		<path class="st6" d="M48.2,38.8c-0.1,0.1-0.3,0.2-0.4,0.3l6,3.5c0.2-0.1,0.4-0.2,0.5-0.2L48.2,38.8z"/>
		<path class="st6" d="M52.2,43.5c0.2-0.2,0.5-0.3,0.7-0.5c0.1,0,0.1-0.1,0.2-0.1l-5.9-3.5c-0.1,0-0.1,0.1-0.2,0.1
			c-0.3,0.1-0.5,0.3-0.8,0.4L52.2,43.5z"/>
		<path class="st6" d="M51,44.5c0.2-0.2,0.5-0.4,0.7-0.7l-6.1-3.6c-0.4,0.2-0.7,0.3-1.1,0.4L51,44.5z"/>
		<path class="st6" d="M43,41.1l7.3,4.3c0.1-0.2,0.2-0.3,0.4-0.5l-6.9-4.1C43.5,41,43.2,41.1,43,41.1z"/>
		<path class="st6" d="M51.2,53c-1.7-2.1-2.2-4.4-1.5-6.4L41,41.5c-3.4,0.4-7.2,0.2-10.7-0.9l2.4-1.4l-13.5-2.9l4.6,8l2.7-1.5
			c3.9,1.4,8.3,2.2,12.6,2.2c2,0,3.9-0.2,5.7-0.6c-0.6,1.1-0.9,2.2-0.9,3.4c0,2.5,1.2,5.1,3.6,7.4l-2.6,1.6l13.5,2.7l-4.9-8L51.2,53
			z"/>
		<path class="st6" d="M48.8,29.6c1.7,2,2.2,4.2,1.6,6.1l9.1,5.4c3.3-0.4,6.9-0.1,10.3,0.9l-2.4,1.4l13.5,2.9l-4.6-8l-2.7,1.5
			c-3.9-1.4-8.3-2.2-12.6-2.2c-2,0-3.9,0.2-5.7,0.6c0.6-1.1,0.9-2.2,0.9-3.4c0-2.5-1.2-5.1-3.6-7.4l2.6-1.6l-13.5-2.7l4.9,8
			L48.8,29.6z"/>
	</g>
</g>
</svg>
