<?xml version="1.0" encoding="utf-8"?>
<!-- Generator: Adobe Illustrator 16.0.0, SVG Export Plug-In . SVG Version: 6.00 Build 0)  -->
<!DOCTYPE svg PUBLIC "-//W3C//DTD SVG 1.1//EN" "http://www.w3.org/Graphics/SVG/1.1/DTD/svg11.dtd">
<svg version="1.1" id="图层_1" xmlns="http://www.w3.org/2000/svg" xmlns:xlink="http://www.w3.org/1999/xlink" x="0px" y="0px"
	 width="100px" height="125px" viewBox="0 -12.5 100 125" style="enable-background:new 0 -12.5 100 125;" xml:space="preserve">
<style type="text/css">
<![CDATA[
	.st0{fill:url(#SVGID_1_);}
	.st1{fill:url(#SVGID_2_);}
	.st2{fill:url(#SVGID_3_);}
	.st3{fill:url(#SVGID_4_);}
	.st4{fill:url(#SVGID_5_);}
	.st5{fill:url(#SVGID_6_);}
	.st6{fill:url(#SVGID_7_);}
	.st7{fill:url(#SVGID_8_);}
	.st8{fill:url(#SVGID_9_);}
	.st9{fill:url(#SVGID_10_);}
	.st10{fill:url(#SVGID_11_);}
]]>
</style>
<g>
	
		<linearGradient id="SVGID_1_" gradientUnits="userSpaceOnUse" x1="256.0996" y1="-328.2002" x2="352.4004" y2="-328.2002" gradientTransform="matrix(1 0 0 -1 -256 -245)">
		<stop  offset="0" style="stop-color:#3D4F5A"/>
		<stop  offset="0.9926" style="stop-color:#607A88"/>
	</linearGradient>
	<polygon class="st0" points="0.1,58.9 6.6,54.6 96.4,108.4 89.8,111.8 	"/>
	
		<linearGradient id="SVGID_2_" gradientUnits="userSpaceOnUse" x1="256.0996" y1="-326.4502" x2="352.4004" y2="-326.4502" gradientTransform="matrix(1 0 0 -1 -256 -245)">
		<stop  offset="0" style="stop-color:#98B2BF"/>
		<stop  offset="1" style="stop-color:#B7CAD5"/>
	</linearGradient>
	<polygon class="st1" points="0.1,56.7 6.6,53.3 96.4,106.3 89.8,109.6 	"/>
	
		<linearGradient id="SVGID_3_" gradientUnits="userSpaceOnUse" x1="296.8389" y1="-412.5146" x2="312.6387" y2="-412.5146" gradientTransform="matrix(1 0.589 0 -1 -256 -512.683)">
		<stop  offset="0" style="stop-color:#98B2BF"/>
		<stop  offset="1" style="stop-color:#B7CAD5"/>
	</linearGradient>
	<polygon class="st2" points="56.6,89.7 40.8,80.3 40.8,68.9 56.6,78.3 	"/>
	
		<linearGradient id="SVGID_4_" gradientUnits="userSpaceOnUse" x1="312.6299" y1="-326.75" x2="318.2109" y2="-326.75" gradientTransform="matrix(1 0 0 -1 -256 -245)">
		<stop  offset="0" style="stop-color:#98B2BF"/>
		<stop  offset="1" style="stop-color:#B7CAD5"/>
	</linearGradient>
	<polygon class="st3" points="62.2,86.8 56.6,89.7 56.6,73.8 62.2,82.3 	"/>
	
		<linearGradient id="SVGID_5_" gradientUnits="userSpaceOnUse" x1="259.7002" y1="-375.709" x2="356" y2="-375.709" gradientTransform="matrix(1 0.589 0 -1 -256 -512.683)">
		<stop  offset="0" style="stop-color:#7B9AA9"/>
		<stop  offset="0.5" style="stop-color:#C4D3DB"/>
		<stop  offset="1" style="stop-color:#7B9AA9"/>
	</linearGradient>
	<polygon class="st4" points="100,100.4 3.7,43.9 3.7,-11.9 100,44.9 	"/>
	
		<linearGradient id="SVGID_6_" gradientUnits="userSpaceOnUse" x1="334.1953" y1="-355.7842" x2="274.3055" y2="-226.516" gradientTransform="matrix(1 0 0 -1 -256 -245)">
		<stop  offset="0" style="stop-color:#32414A"/>
		<stop  offset="0.35" style="stop-color:#607A88"/>
		<stop  offset="1" style="stop-color:#32414A"/>
	</linearGradient>
	<polygon class="st5" points="96.4,46.6 96.4,102.3 0.1,45.6 0.1,-10 	"/>
	
		<linearGradient id="SVGID_7_" gradientUnits="userSpaceOnUse" x1="338.7744" y1="-352.3086" x2="291.2275" y2="-221.6743" gradientTransform="matrix(1 0 0 -1 -256 -245)">
		<stop  offset="0" style="stop-color:#32414A"/>
		<stop  offset="0.5" style="stop-color:#607A88"/>
		<stop  offset="1" style="stop-color:#32414A"/>
	</linearGradient>
	<polygon class="st6" points="100,100.4 96.4,102.3 96.4,46.6 0.1,-10 3.7,-11.9 100,44.9 	"/>
	
		<linearGradient id="SVGID_8_" gradientUnits="userSpaceOnUse" x1="256.0996" y1="-316.5996" x2="352.4004" y2="-316.5996" gradientTransform="matrix(1 0 0 -1 -256 -245)">
		<stop  offset="0" style="stop-color:#98B2BF"/>
		<stop  offset="1" style="stop-color:#B7CAD5"/>
	</linearGradient>
	<polygon class="st7" points="96.4,97.6 96.4,102.3 0.1,45.6 0.1,40.9 	"/>
	
		<linearGradient id="SVGID_9_" gradientUnits="userSpaceOnUse" x1="352.3564" y1="-344.0498" x2="355.9708" y2="-344.0498" gradientTransform="matrix(1 0 0 -1 -256 -245)">
		<stop  offset="0" style="stop-color:#98B2BF"/>
		<stop  offset="1" style="stop-color:#B7CAD5"/>
	</linearGradient>
	<polygon class="st8" points="96.4,97.6 100,95.8 100,100.4 96.4,102.3 	"/>
	
		<linearGradient id="SVGID_10_" gradientUnits="userSpaceOnUse" x1="345.6797" y1="-353.9502" x2="352.3564" y2="-353.9502" gradientTransform="matrix(1 0 0 -1 -256 -245)">
		<stop  offset="0" style="stop-color:#98B2BF"/>
		<stop  offset="1" style="stop-color:#B7CAD5"/>
	</linearGradient>
	<path class="st9" d="M89.8,109.6c0,0-0.1,0.3-0.1,0.6c0,0.5,0.1,1.6,0.1,1.6l6.5-3.4v-2.2L89.8,109.6z"/>
	
		<linearGradient id="SVGID_11_" gradientUnits="userSpaceOnUse" x1="301.4424" y1="-328.3643" x2="300.4255" y2="-330.0906" gradientTransform="matrix(1 0 0 -1 -256 -245)">
		<stop  offset="0" style="stop-color:#98B2BF"/>
		<stop  offset="0.5" style="stop-color:#B7CAD5"/>
		<stop  offset="1" style="stop-color:#98B2BF"/>
	</linearGradient>
	<path class="st10" d="M0.1,56.7c0,0-0.1,0.3-0.1,0.6c0,0.5,0.1,1.6,0.1,1.6l89.7,52.9v-1.6v-0.6L0.1,56.7z"/>
</g>
</svg>
