<?xml version="1.0" encoding="utf-8"?>
<!-- Generator: Adobe Illustrator 16.0.0, SVG Export Plug-In . SVG Version: 6.00 Build 0)  -->
<!DOCTYPE svg PUBLIC "-//W3C//DTD SVG 1.1//EN" "http://www.w3.org/Graphics/SVG/1.1/DTD/svg11.dtd">
<svg version="1.1" id="图层_1" xmlns="http://www.w3.org/2000/svg" xmlns:xlink="http://www.w3.org/1999/xlink" x="0px" y="0px"
	 width="100px" height="115px" viewBox="0 -7.5 100 115" style="enable-background:new 0 -7.5 100 115;" xml:space="preserve">
<style type="text/css">
<![CDATA[
	.st0{fill:url(#SVGID_1_);}
	.st1{fill:url(#SVGID_2_);}
	.st2{fill:url(#SVGID_3_);}
	.st3{fill:url(#SVGID_4_);}
	.st4{fill:url(#SVGID_5_);}
	.st5{fill:url(#SVGID_6_);}
	.st6{fill:url(#SVGID_7_);}
	.st7{fill:url(#SVGID_8_);}
	.st8{fill:url(#SVGID_9_);}
	.st9{fill:url(#SVGID_10_);}
	.st10{fill:url(#SVGID_11_);}
]]>
</style>
<g>
	<g>
		
			<linearGradient id="SVGID_1_" gradientUnits="userSpaceOnUse" x1="281.1738" y1="-340.9004" x2="332.8985" y2="-340.9004" gradientTransform="matrix(1 0 0 -1 -256 -245)">
			<stop  offset="0" style="stop-color:#3D4F5A"/>
			<stop  offset="0.5" style="stop-color:#607A88"/>
			<stop  offset="1" style="stop-color:#3D4F5A"/>
		</linearGradient>
		<path class="st0" d="M76.9,87.3v1.9c0,8.4-11.6,15.3-25.9,15.3c-14.3,0-25.9-6.8-25.9-15.3v-1.9c0,8.4,11.6,15.3,25.9,15.3
			C65.3,102.6,76.9,95.7,76.9,87.3z"/>
		
			<linearGradient id="SVGID_2_" gradientUnits="userSpaceOnUse" x1="281.1748" y1="-332.2998" x2="332.8975" y2="-332.2998" gradientTransform="matrix(1 0 0 -1 -256 -245)">
			<stop  offset="0" style="stop-color:#86A2B1"/>
			<stop  offset="0.5" style="stop-color:#A9BFCB"/>
			<stop  offset="1" style="stop-color:#86A2B1"/>
		</linearGradient>
		<ellipse class="st1" cx="51" cy="87.3" rx="25.9" ry="15.3"/>
	</g>
	<g>
		
			<linearGradient id="SVGID_3_" gradientUnits="userSpaceOnUse" x1="302.8545" y1="-410.8721" x2="318.6543" y2="-410.8721" gradientTransform="matrix(1 0.589 0 -1 -256 -512.683)">
			<stop  offset="0" style="stop-color:#3D4F5A"/>
			<stop  offset="0.5" style="stop-color:#607A88"/>
			<stop  offset="1" style="stop-color:#3D4F5A"/>
		</linearGradient>
		<polygon class="st2" points="62.7,91.6 46.9,82.3 46.9,70.9 62.7,80.2 		"/>
		
			<linearGradient id="SVGID_4_" gradientUnits="userSpaceOnUse" x1="296.3008" y1="-418.1592" x2="312.1006" y2="-418.1592" gradientTransform="matrix(1 0.589 0 -1 -256 -512.683)">
			<stop  offset="0" style="stop-color:#3D4F5A"/>
			<stop  offset="1" style="stop-color:#607A88"/>
		</linearGradient>
		<polygon class="st3" points="56.1,95 40.3,85.7 40.3,74.3 56.1,83.6 		"/>
		
			<linearGradient id="SVGID_5_" gradientUnits="userSpaceOnUse" x1="312.1309" y1="-332.1006" x2="318.6699" y2="-332.1006" gradientTransform="matrix(1 0 0 -1 -256 -245)">
			<stop  offset="0" style="stop-color:#3D4F5A"/>
			<stop  offset="0.9926" style="stop-color:#607A88"/>
		</linearGradient>
		<polygon class="st4" points="62.7,91.6 56.1,95 56.1,79.2 62.7,87.1 		"/>
		
			<linearGradient id="SVGID_6_" gradientUnits="userSpaceOnUse" x1="259.7012" y1="-380.8096" x2="356.001" y2="-380.8096" gradientTransform="matrix(1 0.589 0 -1 -256 -512.683)">
			<stop  offset="0" style="stop-color:#7B9AA9"/>
			<stop  offset="0.5" style="stop-color:#C4D3DB"/>
			<stop  offset="1" style="stop-color:#7B9AA9"/>
		</linearGradient>
		<polygon class="st5" points="100,105.7 3.7,48.9 3.7,-6.8 100,50 		"/>
		
			<linearGradient id="SVGID_7_" gradientUnits="userSpaceOnUse" x1="323.3438" y1="-426.0815" x2="285.055" y2="-343.438" gradientTransform="matrix(1 0.589 0 -1 -256 -512.683)">
			<stop  offset="0" style="stop-color:#7B9AA9"/>
			<stop  offset="0.35" style="stop-color:#C4D3DB"/>
			<stop  offset="1" style="stop-color:#7B9AA9"/>
		</linearGradient>
		<polygon class="st6" points="96.4,107.5 0,50.7 0,-5 96.4,51.8 		"/>
		
			<linearGradient id="SVGID_8_" gradientUnits="userSpaceOnUse" x1="338.7471" y1="-357.4692" x2="291.1683" y2="-226.7478" gradientTransform="matrix(1 0 0 -1 -256 -245)">
			<stop  offset="0" style="stop-color:#7B9AA9"/>
			<stop  offset="0.35" style="stop-color:#C4D3DB"/>
			<stop  offset="1" style="stop-color:#7B9AA9"/>
		</linearGradient>
		<polygon class="st7" points="100,105.7 96.4,107.5 96.4,51.8 0,-5 3.7,-6.8 100,50 		"/>
		
			<linearGradient id="SVGID_9_" gradientUnits="userSpaceOnUse" x1="337.8232" y1="-353.0225" x2="271.8459" y2="-238.7464" gradientTransform="matrix(1 0 0 -1 -256 -245)">
			<stop  offset="0" style="stop-color:#32414A"/>
			<stop  offset="0.35" style="stop-color:#607A88"/>
			<stop  offset="1" style="stop-color:#32414A"/>
		</linearGradient>
		<polygon class="st8" points="3.8,0.7 5.2,2.6 5.2,49.1 91.3,99.9 92.6,101.8 92.6,52.9 		"/>
		
			<linearGradient id="SVGID_10_" gradientUnits="userSpaceOnUse" x1="259.8008" y1="-320.4507" x2="348.6006" y2="-320.4507" gradientTransform="matrix(1 0 0 -1 -256 -245)">
			<stop  offset="0" style="stop-color:#32414A"/>
			<stop  offset="1" style="stop-color:#607A88"/>
		</linearGradient>
		<polygon class="st9" points="92.6,101.8 92.6,100.7 5.2,49.1 3.8,49.5 		"/>
		
			<linearGradient id="SVGID_11_" gradientUnits="userSpaceOnUse" x1="260.501" y1="-294.5" x2="260.501" y2="-245.628" gradientTransform="matrix(1 0 0 -1 -256 -245)">
			<stop  offset="0" style="stop-color:#32414A"/>
			<stop  offset="1" style="stop-color:#607A88"/>
		</linearGradient>
		<polygon class="st10" points="5.2,1.4 3.8,0.7 3.8,49.5 5.2,49.1 		"/>
	</g>
</g>
</svg>
