<?xml version="1.0" encoding="utf-8"?>
<!-- Generator: Adobe Illustrator 16.0.0, SVG Export Plug-In . SVG Version: 6.00 Build 0)  -->
<!DOCTYPE svg PUBLIC "-//W3C//DTD SVG 1.1//EN" "http://www.w3.org/Graphics/SVG/1.1/DTD/svg11.dtd">
<svg version="1.1" id="图层_1" xmlns="http://www.w3.org/2000/svg" xmlns:xlink="http://www.w3.org/1999/xlink" x="0px" y="0px"
	 width="100px" height="130px" viewBox="0 -15 100 130" style="enable-background:new 0 -15 100 130;" xml:space="preserve">
<style type="text/css">
<![CDATA[
	.st0{fill:url(#SVGID_1_);}
	.st1{fill:url(#SVGID_2_);}
	.st2{fill:url(#SVGID_3_);}
	.st3{fill:url(#SVGID_4_);}
	.st4{fill:url(#SVGID_5_);}
	.st5{fill:url(#SVGID_6_);}
	.st6{fill:url(#SVGID_7_);}
	.st7{fill:url(#SVGID_8_);}
	.st8{fill:url(#SVGID_9_);}
	.st9{fill:#FFFFFF;}
	.st10{fill:#6D8D9D;}
	.st11{fill:url(#SVGID_10_);}
	.st12{fill:url(#SVGID_11_);}
	.st13{fill:url(#SVGID_12_);}
	.st14{fill:url(#SVGID_13_);}
	.st15{fill:url(#SVGID_14_);}
	.st16{fill:url(#SVGID_15_);}
	.st17{fill:url(#SVGID_16_);}
	.st18{fill:url(#SVGID_17_);}
	.st19{fill:url(#SVGID_18_);}
	.st20{fill:url(#SVGID_19_);}
	.st21{fill:url(#SVGID_20_);}
	.st22{fill:url(#SVGID_21_);}
	.st23{fill:url(#SVGID_22_);}
	.st24{fill:url(#SVGID_23_);}
	.st25{fill:url(#SVGID_24_);}
	.st26{fill:url(#SVGID_25_);}
	.st27{fill:url(#SVGID_26_);}
	.st28{fill:url(#SVGID_27_);}
	.st29{fill:url(#SVGID_28_);}
	.st30{fill:url(#SVGID_29_);}
	.st31{fill:url(#SVGID_30_);}
	.st32{fill:url(#SVGID_31_);}
	.st33{fill:url(#SVGID_32_);}
	.st34{fill:url(#SVGID_33_);}
	.st35{fill:url(#SVGID_34_);}
	.st36{fill:url(#SVGID_35_);}
	.st37{fill:url(#SVGID_36_);}
	.st38{fill:url(#SVGID_37_);}
	.st39{fill:url(#SVGID_38_);}
	.st40{fill:url(#SVGID_39_);}
	.st41{fill:url(#SVGID_40_);}
	.st42{fill:url(#SVGID_41_);}
	.st43{fill:url(#SVGID_42_);}
	.st44{fill:url(#SVGID_43_);}
	.st45{fill:url(#SVGID_44_);}
	.st46{fill:url(#SVGID_45_);}
	.st47{fill:url(#SVGID_46_);}
]]>
</style>
<g>
	<g>
		<g>
			<g>
				<polygon class="st10" points="33.1,104.8 7.8,89.9 7.8,18.9 33.1,33.8 				"/>
				
					<linearGradient id="SVGID_1_" gradientUnits="userSpaceOnUse" x1="292.4033" y1="-280.6616" x2="322.0401" y2="-229.3293" gradientTransform="matrix(1 0 0 -1 -256 -245)">
					<stop  offset="0" style="stop-color:#98B2BF"/>
					<stop  offset="1" style="stop-color:#B7CAD5"/>
				</linearGradient>
				<polygon class="st0" points="7.8,18.9 69.3,-13.8 94.5,1.2 33.1,33.8 				"/>
				
					<linearGradient id="SVGID_2_" gradientUnits="userSpaceOnUse" x1="319.8496" y1="-349.7832" x2="319.8496" y2="-246.1831" gradientTransform="matrix(1 0 0 -1 -256 -245)">
					<stop  offset="0" style="stop-color:#3D4F5A"/>
					<stop  offset="1" style="stop-color:#607A88"/>
				</linearGradient>
				<polygon class="st1" points="33.1,104.8 94.5,72.2 94.5,1.2 33.1,33.8 				"/>
			</g>
			<polygon class="st10" points="30.8,106.2 5.5,91.3 5.5,20.3 30.8,35.2 			"/>
			
				<linearGradient id="SVGID_3_" gradientUnits="userSpaceOnUse" x1="265.1074" y1="-279.583" x2="283.168" y2="-279.583" gradientTransform="matrix(1 0 0 -1 -256 -245)">
				<stop  offset="0" style="stop-color:#C7D6DE"/>
				<stop  offset="1" style="stop-color:#97B1BE"/>
			</linearGradient>
			<polygon class="st2" points="27.1,44.1 9.1,33.4 9.1,25.1 27.1,35.7 			"/>
			
				<linearGradient id="SVGID_4_" gradientUnits="userSpaceOnUse" x1="265.6084" y1="-278.083" x2="282.667" y2="-278.083" gradientTransform="matrix(1 0 0 -1 -256 -245)">
				<stop  offset="0" style="stop-color:#607A88"/>
				<stop  offset="1" style="stop-color:#3D4F5A"/>
			</linearGradient>
			<polygon class="st3" points="26.6,39 9.6,29 9.6,27.2 26.6,37.2 			"/>
			
				<linearGradient id="SVGID_5_" gradientUnits="userSpaceOnUse" x1="274.4385" y1="-273.082" x2="275.3681" y2="-271.4719" gradientTransform="matrix(1 0 0 -1 -256 -245)">
				<stop  offset="0" style="stop-color:#98B2BF"/>
				<stop  offset="1" style="stop-color:#B7CAD5"/>
			</linearGradient>
			<polygon class="st4" points="5.5,20.3 7,19.4 32.3,34.3 30.8,35.2 			"/>
			
				<linearGradient id="SVGID_6_" gradientUnits="userSpaceOnUse" x1="287.5996" y1="-351.1826" x2="287.5996" y2="-279.2832" gradientTransform="matrix(1 0 0 -1 -256 -245)">
				<stop  offset="0" style="stop-color:#3D4F5A"/>
				<stop  offset="1" style="stop-color:#607A88"/>
			</linearGradient>
			<polygon class="st5" points="30.8,106.2 32.3,105.3 32.3,34.3 30.8,35.2 			"/>
			<g>
				<g>
					<g>
						
							<linearGradient id="SVGID_7_" gradientUnits="userSpaceOnUse" x1="261.4502" y1="-287.2832" x2="286.7842" y2="-287.2832" gradientTransform="matrix(1 0 0 -1 -256 -245)">
							<stop  offset="0" style="stop-color:#98B2BF"/>
							<stop  offset="1" style="stop-color:#B7CAD5"/>
						</linearGradient>
						<polygon class="st6" points="30.8,50.8 5.5,35.9 5.5,33.8 30.8,48.7 						"/>
					</g>
					
						<linearGradient id="SVGID_8_" gradientUnits="userSpaceOnUse" x1="287.5996" y1="-295.7832" x2="287.5996" y2="-292.7754" gradientTransform="matrix(1 0 0 -1 -256 -245)">
						<stop  offset="0" style="stop-color:#98B2BF"/>
						<stop  offset="1" style="stop-color:#B7CAD5"/>
					</linearGradient>
					<polygon class="st7" points="30.8,50.8 32.3,49.9 32.3,47.8 30.8,48.7 					"/>
				</g>
			</g>
			<g>
				<g>
					<g>
						
							<linearGradient id="SVGID_9_" gradientUnits="userSpaceOnUse" x1="261.4502" y1="-290.083" x2="286.7842" y2="-290.083" gradientTransform="matrix(1 0 0 -1 -256 -245)">
							<stop  offset="0" style="stop-color:#98B2BF"/>
							<stop  offset="1" style="stop-color:#B7CAD5"/>
						</linearGradient>
						<polygon class="st8" points="30.8,53.6 5.5,38.7 5.5,36.6 30.8,51.5 						"/>
					</g>
					
						<linearGradient id="SVGID_10_" gradientUnits="userSpaceOnUse" x1="287.5996" y1="-298.5732" x2="287.5996" y2="-295.5654" gradientTransform="matrix(1 0 0 -1 -256 -245)">
						<stop  offset="0" style="stop-color:#98B2BF"/>
						<stop  offset="1" style="stop-color:#B7CAD5"/>
					</linearGradient>
					<polygon class="st11" points="30.8,53.6 32.3,52.7 32.3,50.6 30.8,51.5 					"/>
				</g>
			</g>
			
				<linearGradient id="SVGID_11_" gradientUnits="userSpaceOnUse" x1="267.1963" y1="-336.6831" x2="286.8027" y2="-336.6831" gradientTransform="matrix(1 0 0 -1 -256 -245)">
				<stop  offset="0" style="stop-color:#98B2BF"/>
				<stop  offset="1" style="stop-color:#B7CAD5"/>
			</linearGradient>
			<polygon class="st12" points="30.8,96.8 30.8,98.1 11.1,86.5 11.1,85.3 			"/>
			
				<linearGradient id="SVGID_12_" gradientUnits="userSpaceOnUse" x1="287.5996" y1="-343.042" x2="287.5996" y2="-340.8916" gradientTransform="matrix(1 0 0 -1 -256 -245)">
				<stop  offset="0" style="stop-color:#98B2BF"/>
				<stop  offset="1" style="stop-color:#B7CAD5"/>
			</linearGradient>
			<polygon class="st13" points="30.8,98.1 32.3,97.1 32.3,95.9 30.8,96.8 			"/>
			
				<linearGradient id="SVGID_13_" gradientUnits="userSpaceOnUse" x1="267.1963" y1="-334.833" x2="286.8027" y2="-334.833" gradientTransform="matrix(1 0 0 -1 -256 -245)">
				<stop  offset="0" style="stop-color:#98B2BF"/>
				<stop  offset="1" style="stop-color:#B7CAD5"/>
			</linearGradient>
			<polygon class="st14" points="30.8,95 30.8,96.2 11.1,84.7 11.1,83.5 			"/>
			
				<linearGradient id="SVGID_14_" gradientUnits="userSpaceOnUse" x1="287.5996" y1="-341.2173" x2="287.5996" y2="-339.0693" gradientTransform="matrix(1 0 0 -1 -256 -245)">
				<stop  offset="0" style="stop-color:#98B2BF"/>
				<stop  offset="1" style="stop-color:#B7CAD5"/>
			</linearGradient>
			<polygon class="st15" points="30.8,96.2 32.3,95.3 32.3,94.1 30.8,95 			"/>
			
				<linearGradient id="SVGID_15_" gradientUnits="userSpaceOnUse" x1="267.1963" y1="-333.0327" x2="286.8027" y2="-333.0327" gradientTransform="matrix(1 0 0 -1 -256 -245)">
				<stop  offset="0" style="stop-color:#98B2BF"/>
				<stop  offset="1" style="stop-color:#B7CAD5"/>
			</linearGradient>
			<polygon class="st16" points="30.8,93.2 30.8,94.4 11.1,82.9 11.1,81.7 			"/>
			
				<linearGradient id="SVGID_16_" gradientUnits="userSpaceOnUse" x1="287.5996" y1="-339.3936" x2="287.5996" y2="-337.2433" gradientTransform="matrix(1 0 0 -1 -256 -245)">
				<stop  offset="0" style="stop-color:#98B2BF"/>
				<stop  offset="1" style="stop-color:#B7CAD5"/>
			</linearGradient>
			<polygon class="st17" points="30.8,94.4 32.3,93.5 32.3,92.3 30.8,93.2 			"/>
			
				<linearGradient id="SVGID_17_" gradientUnits="userSpaceOnUse" x1="267.1963" y1="-331.1831" x2="286.8027" y2="-331.1831" gradientTransform="matrix(1 0 0 -1 -256 -245)">
				<stop  offset="0" style="stop-color:#98B2BF"/>
				<stop  offset="1" style="stop-color:#B7CAD5"/>
			</linearGradient>
			<polygon class="st18" points="30.8,91.4 30.8,92.6 11.1,81 11.1,79.8 			"/>
			
				<linearGradient id="SVGID_18_" gradientUnits="userSpaceOnUse" x1="287.5996" y1="-337.5693" x2="287.5996" y2="-335.4209" gradientTransform="matrix(1 0 0 -1 -256 -245)">
				<stop  offset="0" style="stop-color:#98B2BF"/>
				<stop  offset="1" style="stop-color:#B7CAD5"/>
			</linearGradient>
			<polygon class="st19" points="30.8,92.6 32.3,91.7 32.3,90.4 30.8,91.4 			"/>
			
				<linearGradient id="SVGID_19_" gradientUnits="userSpaceOnUse" x1="267.1963" y1="-329.3833" x2="286.8027" y2="-329.3833" gradientTransform="matrix(1 0 0 -1 -256 -245)">
				<stop  offset="0" style="stop-color:#98B2BF"/>
				<stop  offset="1" style="stop-color:#B7CAD5"/>
			</linearGradient>
			<polygon class="st20" points="30.8,89.6 30.8,90.8 11.1,79.2 11.1,78 			"/>
			
				<linearGradient id="SVGID_20_" gradientUnits="userSpaceOnUse" x1="287.5996" y1="-335.7451" x2="287.5996" y2="-333.5947" gradientTransform="matrix(1 0 0 -1 -256 -245)">
				<stop  offset="0" style="stop-color:#98B2BF"/>
				<stop  offset="1" style="stop-color:#B7CAD5"/>
			</linearGradient>
			<polygon class="st21" points="30.8,90.8 32.3,89.8 32.3,88.6 30.8,89.5 			"/>
			
				<linearGradient id="SVGID_21_" gradientUnits="userSpaceOnUse" x1="267.1963" y1="-327.5327" x2="286.8027" y2="-327.5327" gradientTransform="matrix(1 0 0 -1 -256 -245)">
				<stop  offset="0" style="stop-color:#98B2BF"/>
				<stop  offset="1" style="stop-color:#B7CAD5"/>
			</linearGradient>
			<polygon class="st22" points="30.8,87.7 30.8,88.9 11.1,77.4 11.1,76.2 			"/>
			
				<linearGradient id="SVGID_22_" gradientUnits="userSpaceOnUse" x1="287.5996" y1="-333.9209" x2="287.5996" y2="-331.7725" gradientTransform="matrix(1 0 0 -1 -256 -245)">
				<stop  offset="0" style="stop-color:#98B2BF"/>
				<stop  offset="1" style="stop-color:#B7CAD5"/>
			</linearGradient>
			<polygon class="st23" points="30.8,88.9 32.3,88 32.3,86.8 30.8,87.7 			"/>
			
				<linearGradient id="SVGID_23_" gradientUnits="userSpaceOnUse" x1="267.1963" y1="-325.7329" x2="286.8027" y2="-325.7329" gradientTransform="matrix(1 0 0 -1 -256 -245)">
				<stop  offset="0" style="stop-color:#98B2BF"/>
				<stop  offset="1" style="stop-color:#B7CAD5"/>
			</linearGradient>
			<polygon class="st24" points="30.8,85.9 30.8,87.1 11.1,75.6 11.1,74.4 12.3,75 			"/>
			
				<linearGradient id="SVGID_24_" gradientUnits="userSpaceOnUse" x1="287.5996" y1="-332.0967" x2="287.5996" y2="-329.9468" gradientTransform="matrix(1 0 0 -1 -256 -245)">
				<stop  offset="0" style="stop-color:#98B2BF"/>
				<stop  offset="1" style="stop-color:#B7CAD5"/>
			</linearGradient>
			<polygon class="st25" points="30.8,87.1 32.3,86.2 32.3,85 30.8,85.9 			"/>
			
				<linearGradient id="SVGID_25_" gradientUnits="userSpaceOnUse" x1="267.6992" y1="-320.5459" x2="267.6992" y2="-319.335" gradientTransform="matrix(1 0 0 -1 -256 -245)">
				<stop  offset="0" style="stop-color:#3D4F5A"/>
				<stop  offset="1" style="stop-color:#607A88"/>
			</linearGradient>
			<polygon class="st26" points="12.3,75 11.1,75.6 11.1,74.4 			"/>
			
				<linearGradient id="SVGID_26_" gradientUnits="userSpaceOnUse" x1="267.6992" y1="-322.374" x2="267.6992" y2="-321.1626" gradientTransform="matrix(1 0 0 -1 -256 -245)">
				<stop  offset="0" style="stop-color:#3D4F5A"/>
				<stop  offset="1" style="stop-color:#607A88"/>
			</linearGradient>
			<polygon class="st27" points="12.3,76.8 11.1,77.4 11.1,76.2 			"/>
			
				<linearGradient id="SVGID_27_" gradientUnits="userSpaceOnUse" x1="267.6992" y1="-324.2036" x2="267.6992" y2="-322.9937" gradientTransform="matrix(1 0 0 -1 -256 -245)">
				<stop  offset="0" style="stop-color:#3D4F5A"/>
				<stop  offset="1" style="stop-color:#607A88"/>
			</linearGradient>
			<polygon class="st28" points="12.3,78.6 11.1,79.2 11.1,78 			"/>
			
				<linearGradient id="SVGID_28_" gradientUnits="userSpaceOnUse" x1="267.6992" y1="-326.0327" x2="267.6992" y2="-324.8213" gradientTransform="matrix(1 0 0 -1 -256 -245)">
				<stop  offset="0" style="stop-color:#3D4F5A"/>
				<stop  offset="1" style="stop-color:#607A88"/>
			</linearGradient>
			<polygon class="st29" points="12.3,80.4 11.1,81 11.1,79.8 			"/>
			
				<linearGradient id="SVGID_29_" gradientUnits="userSpaceOnUse" x1="267.6992" y1="-327.8623" x2="267.6992" y2="-326.6509" gradientTransform="matrix(1 0 0 -1 -256 -245)">
				<stop  offset="0" style="stop-color:#3D4F5A"/>
				<stop  offset="1" style="stop-color:#607A88"/>
			</linearGradient>
			<polygon class="st30" points="12.3,82.3 11.1,82.9 11.1,81.7 			"/>
			
				<linearGradient id="SVGID_30_" gradientUnits="userSpaceOnUse" x1="267.6992" y1="-329.6899" x2="267.6992" y2="-328.48" gradientTransform="matrix(1 0 0 -1 -256 -245)">
				<stop  offset="0" style="stop-color:#3D4F5A"/>
				<stop  offset="1" style="stop-color:#607A88"/>
			</linearGradient>
			<polygon class="st31" points="12.3,84.1 11.1,84.7 11.1,83.5 			"/>
			
				<linearGradient id="SVGID_31_" gradientUnits="userSpaceOnUse" x1="267.6992" y1="-331.521" x2="267.6992" y2="-330.3096" gradientTransform="matrix(1 0 0 -1 -256 -245)">
				<stop  offset="0" style="stop-color:#3D4F5A"/>
				<stop  offset="1" style="stop-color:#607A88"/>
			</linearGradient>
			<polygon class="st32" points="12.3,85.9 11.1,86.5 11.1,85.3 			"/>
			<g>
				
					<linearGradient id="SVGID_32_" gradientUnits="userSpaceOnUse" x1="278.7334" y1="-336.666" x2="285.2217" y2="-336.666" gradientTransform="matrix(1 0.589 0 -1 -256 -433.8607)">
					<stop  offset="0" style="stop-color:#3D4F5A"/>
					<stop  offset="1" style="stop-color:#607A88"/>
				</linearGradient>
				<path class="st33" d="M29.3,70.9c0,1.8-1.5,2.4-3.2,1.3c-1.7-1.1-3.2-3.4-3.2-5.2c0-1.8,1.5-2.4,3.2-1.3
					C27.8,66.8,29.3,69.1,29.3,70.9z"/>
				
					<radialGradient id="SVGID_33_" cx="282.1504" cy="-336.8579" r="2.8771" gradientTransform="matrix(1 0.589 0 -1 -256 -433.8607)" gradientUnits="userSpaceOnUse">
					<stop  offset="0" style="stop-color:#B7CAD5"/>
					<stop  offset="1" style="stop-color:#98B2BF"/>
				</radialGradient>
				<path class="st34" d="M29,70.9c0,1.6-1.3,2.1-2.9,1.2c-1.6-0.9-2.9-3-2.9-4.6c0-1.6,1.3-2.1,2.9-1.2C27.8,67.3,29,69.3,29,70.9z
					"/>
			</g>
			<g>
				
					<linearGradient id="SVGID_34_" gradientUnits="userSpaceOnUse" x1="281" y1="-342.0771" x2="282.9561" y2="-342.0771" gradientTransform="matrix(1 0.589 0 -1 -256 -433.8607)">
					<stop  offset="0" style="stop-color:#3D4F5A"/>
					<stop  offset="1" style="stop-color:#607A88"/>
				</linearGradient>
				<path class="st35" d="M27,74.9c0,0.5-0.4,0.7-1,0.4c-0.6-0.3-1-1-1-1.6c0-0.5,0.4-0.7,1-0.4C26.5,73.7,27,74.4,27,74.9z"/>
				
					<radialGradient id="SVGID_35_" cx="282.0293" cy="-342.1318" r="0.8669" gradientTransform="matrix(1 0.589 0 -1 -256 -433.8607)" gradientUnits="userSpaceOnUse">
					<stop  offset="0" style="stop-color:#B7CAD5"/>
					<stop  offset="1" style="stop-color:#98B2BF"/>
				</radialGradient>
				<path class="st36" d="M26.8,74.9c0,0.5-0.4,0.6-0.9,0.4C25.5,75,25,74.4,25,73.9s0.4-0.6,0.9-0.4C26.5,73.8,26.8,74.4,26.8,74.9
					z"/>
			</g>
		</g>
		<g>
			<g>
				
					<linearGradient id="SVGID_36_" gradientUnits="userSpaceOnUse" x1="315.377" y1="-355.6831" x2="341.8887" y2="-355.6831" gradientTransform="matrix(1 0 0 -1 -256 -245)">
					<stop  offset="0" style="stop-color:#3D4F5A"/>
					<stop  offset="0.5" style="stop-color:#607A88"/>
					<stop  offset="1" style="stop-color:#3D4F5A"/>
				</linearGradient>
				<path class="st37" d="M85.8,106.3v1c0,4.3-5.9,7.8-13.3,7.8c-7.3,0-13.3-3.5-13.3-7.8v-1c0,4.3,5.9,7.8,13.3,7.8
					S85.8,110.6,85.8,106.3z"/>
				
					<linearGradient id="SVGID_37_" gradientUnits="userSpaceOnUse" x1="315.3789" y1="-351.2832" x2="341.8887" y2="-351.2832" gradientTransform="matrix(1 0 0 -1 -256 -245)">
					<stop  offset="0" style="stop-color:#86A2B1"/>
					<stop  offset="0.5" style="stop-color:#A9BFCB"/>
					<stop  offset="1" style="stop-color:#86A2B1"/>
				</linearGradient>
				<path class="st38" d="M85.8,106.3c0,4.3-5.9,7.8-13.3,7.8s-13.3-3.5-13.3-7.8s5.9-7.8,13.3-7.8S85.8,101.9,85.8,106.3z"/>
			</g>
			
				<linearGradient id="SVGID_38_" gradientUnits="userSpaceOnUse" x1="326.4902" y1="-421.166" x2="334.5898" y2="-421.166" gradientTransform="matrix(1 0.589 0 -1 -256 -512.683)">
				<stop  offset="0" style="stop-color:#3D4F5A"/>
				<stop  offset="0.5" style="stop-color:#607A88"/>
				<stop  offset="1" style="stop-color:#3D4F5A"/>
			</linearGradient>
			<polygon class="st39" points="78.5,108.5 70.5,103.7 70.5,97.9 78.5,102.6 			"/>
			
				<linearGradient id="SVGID_39_" gradientUnits="userSpaceOnUse" x1="323.1396" y1="-424.8447" x2="331.2402" y2="-424.8447" gradientTransform="matrix(1 0.589 0 -1 -256 -512.683)">
				<stop  offset="0" style="stop-color:#3D4F5A"/>
				<stop  offset="1" style="stop-color:#607A88"/>
			</linearGradient>
			<polygon class="st40" points="75.3,110.2 67.1,105.4 67.1,99.6 75.3,104.4 			"/>
			
				<linearGradient id="SVGID_40_" gradientUnits="userSpaceOnUse" x1="331.2451" y1="-351.1328" x2="334.5967" y2="-351.1328" gradientTransform="matrix(1 0 0 -1 -256 -245)">
				<stop  offset="0" style="stop-color:#3D4F5A"/>
				<stop  offset="0.9926" style="stop-color:#607A88"/>
			</linearGradient>
			<polygon class="st41" points="78.5,108.5 75.3,110.2 75.3,102.1 78.5,106.1 			"/>
		</g>
		
			<linearGradient id="SVGID_41_" gradientUnits="userSpaceOnUse" x1="308.5498" y1="-405.9111" x2="350.5498" y2="-405.9111" gradientTransform="matrix(1 0.589 0 -1 -256 -512.683)">
			<stop  offset="0" style="stop-color:#7B9AA9"/>
			<stop  offset="0.5" style="stop-color:#C4D3DB"/>
			<stop  offset="1" style="stop-color:#7B9AA9"/>
		</linearGradient>
		<polygon class="st42" points="94.5,114.1 52.5,89.2 52.5,60.6 94.5,85.5 		"/>
		
			<linearGradient id="SVGID_42_" gradientUnits="userSpaceOnUse" x1="336.8936" y1="-427.7451" x2="318.5437" y2="-388.1383" gradientTransform="matrix(1 0.589 0 -1 -256 -512.683)">
			<stop  offset="0" style="stop-color:#7B9AA9"/>
			<stop  offset="0.35" style="stop-color:#C4D3DB"/>
			<stop  offset="1" style="stop-color:#7B9AA9"/>
		</linearGradient>
		<polygon class="st43" points="92.8,115 50.6,90.1 50.6,61.6 92.8,86.4 		"/>
		
			<linearGradient id="SVGID_43_" gradientUnits="userSpaceOnUse" x1="344.2783" y1="-361.6099" x2="322.0919" y2="-300.6533" gradientTransform="matrix(1 0 0 -1 -256 -245)">
			<stop  offset="0" style="stop-color:#7B9AA9"/>
			<stop  offset="0.35" style="stop-color:#C4D3DB"/>
			<stop  offset="1" style="stop-color:#7B9AA9"/>
		</linearGradient>
		<polygon class="st44" points="94.5,114.1 92.8,115 92.8,86.4 50.6,61.6 52.5,60.6 94.5,85.5 		"/>
		
			<linearGradient id="SVGID_44_" gradientUnits="userSpaceOnUse" x1="343.0957" y1="-359.1924" x2="312.9592" y2="-306.9945" gradientTransform="matrix(1 0 0 -1 -256 -245)">
			<stop  offset="0" style="stop-color:#32414A"/>
			<stop  offset="0.35" style="stop-color:#607A88"/>
			<stop  offset="1" style="stop-color:#32414A"/>
		</linearGradient>
		<polygon class="st45" points="52.6,64.5 53.3,65.5 53.3,89.3 90,111.1 90.8,112.1 90.8,87 		"/>
		<g>
			
				<linearGradient id="SVGID_45_" gradientUnits="userSpaceOnUse" x1="308.6494" y1="-345.6831" x2="346.75" y2="-345.6831" gradientTransform="matrix(1 0 0 -1 -256 -245)">
				<stop  offset="0" style="stop-color:#32414A"/>
				<stop  offset="1" style="stop-color:#607A88"/>
			</linearGradient>
			<polygon class="st46" points="90.8,112.1 90.8,111.5 53.3,89.3 52.6,89.5 			"/>
			
				<linearGradient id="SVGID_46_" gradientUnits="userSpaceOnUse" x1="309" y1="-334.5112" x2="309" y2="-309.4624" gradientTransform="matrix(1 0 0 -1 -256 -245)">
				<stop  offset="0" style="stop-color:#32414A"/>
				<stop  offset="1" style="stop-color:#607A88"/>
			</linearGradient>
			<polygon class="st47" points="53.3,64.9 52.6,64.5 52.6,89.5 53.3,89.3 			"/>
		</g>
	</g>
	<path class="st9" d="M81,100.7l-4.6-7.4c-0.1-0.1-0.1-0.2-0.2-0.2c0.8-0.8,1.2-1.9,1.2-3.5c0-4.3-3.4-9.8-7.7-12.3
		c-4.2-2.5-7.7-1.1-7.7,3.2c0,4.3,3.4,9.8,7.7,12.3c1.5,0.9,3,1.3,4.2,1.2c0,0.1,0.1,0.2,0.1,0.3l4.6,7.4c0.3,0.5,0.7,0.9,1.1,1.2
		c0.4,0.2,0.8,0.3,1.1,0.2C81.5,102.7,81.5,101.7,81,100.7 M69.6,90.3c-2.9-1.7-5.3-5.5-5.3-8.4c0-2.9,2.4-3.9,5.3-2.2
		c2.9,1.7,5.3,5.5,5.3,8.4S72.5,92,69.6,90.3"/>
</g>
</svg>
