<?xml version="1.0" encoding="utf-8"?>
<!-- Generator: Adobe Illustrator 16.0.0, SVG Export Plug-In . SVG Version: 6.00 Build 0)  -->
<!DOCTYPE svg PUBLIC "-//W3C//DTD SVG 1.1//EN" "http://www.w3.org/Graphics/SVG/1.1/DTD/svg11.dtd">
<svg version="1.1" id="图层_1" xmlns="http://www.w3.org/2000/svg" xmlns:xlink="http://www.w3.org/1999/xlink" x="0px" y="0px"
	 width="100px" height="112px" viewBox="0 0 100 112" style="enable-background:new 0 0 100 112;" xml:space="preserve">
<style type="text/css">
<![CDATA[
	.st0{fill:none;stroke:#285F72;stroke-width:0.1485;stroke-linecap:round;stroke-linejoin:round;}
	.st1{fill:#F8CEB9;}
	.st2{fill:url(#SVGID_1_);}
	.st3{fill:url(#SVGID_2_);}
	.st4{fill:url(#SVGID_3_);}
	.st5{fill:url(#SVGID_4_);}
	.st6{fill:url(#SVGID_5_);}
	.st7{fill:url(#SVGID_6_);}
	.st8{fill:url(#SVGID_7_);}
	.st9{fill:url(#SVGID_8_);}
	.st10{fill:url(#SVGID_9_);}
	.st11{fill:#95B0BE;}
	.st12{fill:#61879A;}
	.st13{fill:#FFFFFF;}
	.st14{fill:none;stroke:#00384C;stroke-width:0.1;stroke-linecap:round;stroke-linejoin:round;}
	.st15{fill:none;stroke:#790001;stroke-width:0.1;stroke-linecap:round;stroke-linejoin:round;}
	.st16{fill:#CEDA00;}
	.st17{fill:url(#SVGID_10_);}
	.st18{fill:url(#SVGID_11_);}
	.st19{fill:url(#SVGID_12_);}
	.st20{fill:url(#SVGID_13_);}
	.st21{fill:url(#SVGID_14_);}
	.st22{fill:url(#SVGID_15_);}
	.st23{fill:url(#SVGID_16_);}
	.st24{fill:url(#SVGID_17_);}
	.st25{fill:url(#SVGID_18_);}
	.st26{fill:url(#SVGID_19_);}
	.st27{fill:url(#SVGID_20_);}
	.st28{fill:url(#SVGID_21_);}
	.st29{fill:#FFFFFF;fill-opacity:0;}
]]>
</style>
<rect y="6" class="st29" width="100" height="100"/>
<g>
	
		<linearGradient id="SVGID_1_" gradientUnits="userSpaceOnUse" x1="580.1074" y1="728.8496" x2="655.6866" y2="728.8496" gradientTransform="matrix(1 0 0 1 -532 -659)">
		<stop  offset="0" style="stop-color:#32414A"/>
		<stop  offset="0.35" style="stop-color:#607A87"/>
		<stop  offset="1" style="stop-color:#32414A"/>
	</linearGradient>
	<path class="st2" d="M95.6,29.6L53,54.2c-2.4,1.4-4.4,4.8-4.4,7.6v46c0,1.3,0.4,2.2,1.1,2.6c0.7,0.4,1.7,0.3,2.8-0.3l42.6-24.6
		c2.4-1.4,4.4-4.8,4.4-7.6v-46c0-1.3-0.4-2.2-1.1-2.6C97.7,28.9,96.7,29,95.6,29.6z"/>
	
		<linearGradient id="SVGID_2_" gradientUnits="userSpaceOnUse" x1="580.1328" y1="728.8496" x2="632" y2="728.8496" gradientTransform="matrix(1 0 0 1 -532 -659)">
		<stop  offset="0" style="stop-color:#32414A"/>
		<stop  offset="0.35" style="stop-color:#607A87"/>
		<stop  offset="1" style="stop-color:#32414A"/>
	</linearGradient>
	<path class="st3" d="M97.4,28.6c-0.6,0-1.3,0.2-2.1,0.6L52.8,53.8c-2.6,1.5-4.6,5.1-4.6,8v46c0,2.1,1,3.3,2.6,3.3
		c0.6,0,1.3-0.2,2.1-0.6L95.4,86c2.6-1.5,4.6-5.1,4.6-8V32C100,29.8,99,28.6,97.4,28.6L97.4,28.6z M50.7,110.2
		c-1.5,0-1.6-1.7-1.6-2.4v-46c0-2.6,1.9-5.9,4.2-7.2L95.9,30c0.6-0.3,1.1-0.5,1.6-0.5c1.5,0,1.6,1.7,1.6,2.4v46
		c0,2.6-1.9,5.9-4.2,7.2l-42.6,24.6C51.7,110.1,51.2,110.2,50.7,110.2L50.7,110.2z"/>
	
		<linearGradient id="SVGID_3_" gradientUnits="userSpaceOnUse" x1="586.999" y1="698.3027" x2="616.3282" y2="748.7147" gradientTransform="matrix(1 0 0 1 -532 -659)">
		<stop  offset="0" style="stop-color:#32414A"/>
		<stop  offset="0.35" style="stop-color:#607A87"/>
		<stop  offset="1" style="stop-color:#32414A"/>
	</linearGradient>
	<path class="st4" d="M93.4,28.1L50.8,52.7c-2.6,1.5-4.6,5.1-4.6,8v46c0,3,2.1,4.2,4.6,2.7l42.6-24.6c2.6-1.5,4.6-5.1,4.6-8v-46
		C98.1,27.8,96,26.6,93.4,28.1z"/>
	
		<linearGradient id="SVGID_4_" gradientUnits="userSpaceOnUse" x1="578.2002" y1="727.75" x2="630.0996" y2="727.75" gradientTransform="matrix(1 0 0 1 -532 -659)">
		<stop  offset="0" style="stop-color:#3D4F5A"/>
		<stop  offset="1" style="stop-color:#607A87"/>
	</linearGradient>
	<path class="st5" d="M95.5,27.5c-0.6,0-1.3,0.2-2.1,0.6L50.8,52.7c-2.6,1.5-4.6,5.1-4.6,8v46c0,2.1,1,3.3,2.6,3.3
		c0.6,0,1.3-0.2,2.1-0.6l42.6-24.6c2.6-1.5,4.6-5.1,4.6-8.1v-46C98.1,28.7,97,27.5,95.5,27.5L95.5,27.5z M48.8,109.1
		c-1.5,0-1.6-1.7-1.6-2.4v-46c0-2.6,1.9-5.9,4.2-7.2L94,28.9c0.6-0.3,1.1-0.5,1.6-0.5c1.5,0,1.6,1.7,1.6,2.4v46
		c0,2.6-1.9,5.9-4.2,7.2l-42.6,24.6C49.8,108.9,49.2,109.1,48.8,109.1L48.8,109.1z"/>
	
		<linearGradient id="SVGID_5_" gradientUnits="userSpaceOnUse" x1="594.0146" y1="667.3818" x2="547.5425" y2="749.5117" gradientTransform="matrix(1 0 0 1 -532 -659)">
		<stop  offset="0" style="stop-color:#32414A"/>
		<stop  offset="0.35" style="stop-color:#607A87"/>
		<stop  offset="1" style="stop-color:#32414A"/>
	</linearGradient>
	<path class="st6" d="M47.5,1.9L4.9,26.4c-2.4,1.4-4.4,4.8-4.4,7.6v46c0,1.3,0.4,2.2,1.1,2.6c0,0,37.8,21.8,46.4,26.8
		c-0.2-0.5-0.3-1-0.3-1.6v-46c0-3.1,2.2-6.9,4.9-8.5l42.6-24.6c0.6-0.3,1.1-0.4,1.6-0.5c-2.3-1.3-8.2-4.7-8.2-4.7
		c-0.7-0.4-1.7-0.3-2.8,0.3L43.1,48.5c-2.4,1.4-4.4,4.8-4.4,7.6v38.8c0,1.3-0.4,2.2-1.3,2.7c-0.8,0.5-1.9,0.4-3-0.2l-27-15.6
		c-2.1-1.2-3.8-4.1-3.8-6.5V36.5c0-3.1,2.2-6.9,4.9-8.5L51.1,3.4c0.5-0.3,1.1-0.4,1.6-0.5c-1.2-0.7-2.4-1.4-2.4-1.4
		C49.6,1.1,48.6,1.2,47.5,1.9z M98.6,28.4c0.1,0,0.2,0,0.2,0.1C98.8,28.4,98.7,28.4,98.6,28.4z"/>
	
		<linearGradient id="SVGID_6_" gradientUnits="userSpaceOnUse" x1="532" y1="714.7998" x2="630.5996" y2="714.7998" gradientTransform="matrix(1 0 0 1 -532 -659)">
		<stop  offset="0" style="stop-color:#3D4F5A"/>
		<stop  offset="1" style="stop-color:#607A87"/>
	</linearGradient>
	<path class="st7" d="M49.3,0.8c-0.6,0-1.3,0.2-2.1,0.6L4.6,26C2,27.5,0,31.1,0,34v46c0,1.5,0.5,2.5,1.4,3l46.1,26.6l0,0l1.2,0.7
		l0,0l0.8,0.5c-0.8-0.5-1.4-1.5-1.4-3v-46l0,0l0,0c0-3,2.1-6.6,4.6-8l42.6-24.6c0.4-0.2,0.8-0.4,1.1-0.5l0,0c0.3-0.1,0.7-0.1,1-0.1
		c0.1,0,0.2,0,0.3,0l0,0c0.3,0,0.6,0.1,0.9,0.3l-9.9-5.7c-0.4-0.2-0.8-0.3-1.2-0.3c-0.6,0-1.3,0.2-2.1,0.6L42.9,48.1
		c-2.6,1.5-4.6,5.1-4.6,8v38.8l0,0l0,0c0,1.6-0.8,2.5-2,2.5c-0.5,0-1-0.2-1.6-0.5l-27-15.6c-1.9-1.1-3.5-3.9-3.5-6.1V36.5l0,0l0,0
		c0-3,2.1-6.6,4.6-8l10.8-6.2L50.4,4.4l1-0.6c0.4-0.2,0.8-0.4,1.1-0.5l0,0c0.3-0.1,0.7-0.1,1-0.1c0.4,0,0.8,0.1,1.2,0.3l0,0l0,0l0,0
		l0,0l0,0l-2.1-1.2l0,0l-2.1-1.2l0,0C50.2,0.9,49.8,0.8,49.3,0.8L49.3,0.8L49.3,0.8z M47.2,108.5L1.8,82.3c-0.6-0.3-0.9-1.1-0.9-2.2
		v-46c0-2.6,1.9-5.9,4.2-7.2L47.7,2.3c0.6-0.3,1.1-0.5,1.6-0.5l0,0c0.3,0,0.5,0.1,0.8,0.2l0,0l1.4,0.8C51.3,2.9,51.2,3,51,3.1
		l-1,0.6L19.1,21.4L8.3,27.6c-2.9,1.7-5.1,5.6-5.1,8.9v38.8c0,2.6,1.8,5.6,4,6.9l27.1,15.6c0.7,0.4,1.4,0.6,2,0.6
		c1.4,0,2.9-1.1,2.9-3.5V56.1c0-2.6,1.9-5.9,4.2-7.2L86,24.3c0.6-0.3,1.1-0.5,1.6-0.5c0.3,0,0.5,0.1,0.7,0.2l7.1,4.1
		c-0.2,0.1-0.3,0.2-0.5,0.3L52.3,53c-2.9,1.7-5.1,5.6-5.1,8.9v46C47.2,108.1,47.2,108.3,47.2,108.5L47.2,108.5z"/>
	
		<linearGradient id="SVGID_7_" gradientUnits="userSpaceOnUse" x1="547.4287" y1="714.5117" x2="578.9148" y2="658.9655" gradientTransform="matrix(1 0 0 1 -532 -659)">
		<stop  offset="0" style="stop-color:#32414A"/>
		<stop  offset="0.35" style="stop-color:#607A87"/>
		<stop  offset="1" style="stop-color:#32414A"/>
	</linearGradient>
	<path class="st8" d="M24.6,19.5c7.2-3.4,14.9-5.5,25.6-5.5c0-0.3,0-8.8,0-9.3C49.8,4.9,31.5,15.5,24.6,19.5z"/>
	
		<linearGradient id="SVGID_8_" gradientUnits="userSpaceOnUse" x1="551.5996" y1="672.3008" x2="582.4004" y2="672.3008" gradientTransform="matrix(1 0 0 1 -532 -659)">
		<stop  offset="0" style="stop-color:#3D4F5A"/>
		<stop  offset="1" style="stop-color:#607A87"/>
	</linearGradient>
	<path class="st9" d="M50.4,4.4L19.6,22.2c0.1,0,0.2-0.1,0.3-0.2l0,0c1.7-0.9,3.4-1.8,5.1-2.6l0,0c6.9-3.2,14.6-5.3,25.4-5.3v-0.3
		l0,0l0,0V4.4L50.4,4.4z M27.4,18.1L50,5v8.8C40.8,13.8,33.8,15.4,27.4,18.1L27.4,18.1z"/>
	
		<linearGradient id="SVGID_9_" gradientUnits="userSpaceOnUse" x1="593.5488" y1="683.3975" x2="607.5601" y2="659.3027" gradientTransform="matrix(1 0 0 1 -532 -659)">
		<stop  offset="0" style="stop-color:#32414A"/>
		<stop  offset="0.35" style="stop-color:#607A87"/>
		<stop  offset="1" style="stop-color:#32414A"/>
	</linearGradient>
	<polygon class="st10" points="84.5,24.1 84.5,24.1 50.4,4.4 50.4,14.1 76.1,28.9 	"/>
	
		<linearGradient id="SVGID_10_" gradientUnits="userSpaceOnUse" x1="595.8789" y1="678.3105" x2="607.0757" y2="658.8463" gradientTransform="matrix(1 0 0 1 -532 -659)">
		<stop  offset="0" style="stop-color:#32414A"/>
		<stop  offset="0.35" style="stop-color:#607A87"/>
		<stop  offset="1" style="stop-color:#32414A"/>
	</linearGradient>
	<path class="st17" d="M51.5,4c0,0-6.7,3.8-7.1,4.1c0.5,0.3,33.9,19.5,33.9,19.5l7.2-4.2c0.8-0.5,1.6-0.7,2.3-0.6
		c-2-1.1-33.2-19.1-33.2-19.1C53.8,3.2,52.6,3.3,51.5,4z"/>
	
		<linearGradient id="SVGID_11_" gradientUnits="userSpaceOnUse" x1="576" y1="674.5" x2="620.7334" y2="674.5" gradientTransform="matrix(1 0 0 1 -532 -659)">
		<stop  offset="0" style="stop-color:#3D4F5A"/>
		<stop  offset="1" style="stop-color:#607A87"/>
	</linearGradient>
	<path class="st18" d="M53.4,3.2c-0.6,0-1.3,0.2-2.1,0.6L44,8.1l0.3,0.2l0,0l0,0l0,0l33.8,19.5l7.4-4.3c0.7-0.4,1.4-0.6,2.1-0.6l0,0
		l0,0c0.4,0,0.8,0.1,1.2,0.3L54.7,3.5C54.3,3.3,53.9,3.2,53.4,3.2L53.4,3.2z M44.7,8.1l6.9-4c0.7-0.4,1.3-0.6,1.9-0.6
		c0.4,0,0.8,0.1,1.1,0.3l0,0l32.6,18.8c-0.6,0.1-1.2,0.3-1.8,0.6l-7.2,4.2L44.7,8.1L44.7,8.1z"/>
	
		<linearGradient id="SVGID_12_" gradientUnits="userSpaceOnUse" x1="546.085" y1="744.6572" x2="597.9038" y2="653.6166" gradientTransform="matrix(1 0 0 1 -532 -659)">
		<stop  offset="2.398080e-003" style="stop-color:#00384C"/>
		<stop  offset="0.3568" style="stop-color:#074B60"/>
		<stop  offset="0.4543" style="stop-color:#517C8F"/>
		<stop  offset="0.4753" style="stop-color:#5A8395"/>
		<stop  offset="0.5247" style="stop-color:#487589"/>
		<stop  offset="0.6927" style="stop-color:#104E62"/>
		<stop  offset="1" style="stop-color:#00384C"/>
	</linearGradient>
	<path class="st19" d="M50.4,14.1c-13.8,0-22.4,3.5-30.8,8.1L8.8,28.4c-2.6,1.5-4.6,5.1-4.6,8.1v38.8c0,2.2,1.6,5,3.5,6.1l27,15.6
		c1.9,1.1,3.5,0.2,3.5-2V56.1c0-3,2.1-6.6,4.6-8L76,28.9L50.4,14.1z M78.7,27.4l6.8-3.9c1.3-0.7,2.4-0.8,3.3-0.3L54.7,3.5
		c-0.8-0.5-2-0.4-3.3,0.3l-1,0.6l34.1,19.7L78.7,27.4z"/>
	
		<linearGradient id="SVGID_13_" gradientUnits="userSpaceOnUse" x1="536.2002" y1="709.3281" x2="620.7998" y2="709.3281" gradientTransform="matrix(1 0 0 1 -532 -659)">
		<stop  offset="0" style="stop-color:#32414A"/>
		<stop  offset="0.35" style="stop-color:#607A87"/>
		<stop  offset="1" style="stop-color:#32414A"/>
	</linearGradient>
	<path class="st20" d="M50.4,14.1c-13.8,0-22.4,3.5-30.8,8.1L8.8,28.4c-2.6,1.5-4.6,5.1-4.6,8.1v38.8c0,2.2,1.6,5,3.5,6.1l27,15.6
		c1.9,1.1,3.5,0.2,3.5-2V56.1c0-3,2.1-6.6,4.6-8L76,28.9L50.4,14.1z M78.7,27.4l6.8-3.9c1.3-0.7,2.4-0.8,3.3-0.3L54.7,3.5
		c-0.8-0.5-2-0.4-3.3,0.3l-1,0.6l34.1,19.7L78.7,27.4z"/>
	
		<linearGradient id="SVGID_14_" gradientUnits="userSpaceOnUse" x1="542.6924" y1="742.4873" x2="587.8778" y2="663.1011" gradientTransform="matrix(1 0 0 1 -532 -659)">
		<stop  offset="0" style="stop-color:#32414A"/>
		<stop  offset="0.35" style="stop-color:#607A87"/>
		<stop  offset="1" style="stop-color:#32414A"/>
	</linearGradient>
	<path class="st21" d="M19.7,22.3L8.9,28.5c-2.5,1.5-4.6,5-4.6,7.9v16.2c0,0,33.3,19.1,33.8,19.4c0-0.5,0-15.9,0-15.9
		c0-3,2.1-6.7,4.7-8.2c0,0,32.5-18.7,32.9-19c-0.5-0.3-25.5-14.7-25.5-14.7C37.1,14.3,28.5,17.5,19.7,22.3z M4.3,68.5
		C4.5,68.6,37.6,87.8,38.1,88c0-0.5,0-14.8,0-14.8S4.8,54.1,4.3,53.8C4.3,54.3,4.3,68.4,4.3,68.5z M4.3,75.3c0,2.2,1.5,4.9,3.4,6
		l27.1,15.6c0.9,0.5,1.7,0.6,2.3,0.2C37.7,96.7,38,96,38,95v-5.8c0,0-33.3-19.1-33.8-19.4C4.3,70.3,4.3,75.3,4.3,75.3z"/>
	
		<linearGradient id="SVGID_15_" gradientUnits="userSpaceOnUse" x1="536.0996" y1="714.7998" x2="608" y2="714.7998" gradientTransform="matrix(1 0 0 1 -532 -659)">
		<stop  offset="0" style="stop-color:#32414A"/>
		<stop  offset="0.35" style="stop-color:#607A87"/>
		<stop  offset="1" style="stop-color:#32414A"/>
	</linearGradient>
	<path class="st22" d="M50.4,14.1c-13.8,0-22.4,3.5-30.8,8.1L8.8,28.4c-2.6,1.5-4.6,5.1-4.6,8v16.2L38,72.1l0,0l0,0l0,0l0.3,0.2
		V56.1l0,0l0,0c0-3,2.1-6.6,4.6-8l32.8-19l0,0l0,0l0,0l0.3-0.2L50.4,14.1L50.4,14.1z M4.5,52.5v-16c0-2.9,2-6.3,4.5-7.8l10.8-6.2
		c8.8-4.8,17.3-8,30.5-8L75.4,29L42.7,47.8c-2.7,1.5-4.8,5.3-4.8,8.3v15.6L4.5,52.5L4.5,52.5z M4.1,53.5v0.3l0,0l0,0l0,0v14.7
		L37.9,88l0,0l0,0l0,0l0.3,0.2v-15L4.1,53.5L4.1,53.5z M4.5,68.4V54.1L38,73.4v14.4L4.5,68.4L4.5,68.4z M4.1,69.5v0.3l0,0l0,0l0,0
		v5.4c0,2.2,1.6,5,3.5,6.1L34.7,97c0.6,0.3,1.1,0.5,1.6,0.5c1.2,0,1.9-0.9,1.9-2.5v-5.8L4.1,69.5L4.1,69.5z M36.3,97.1
		c-0.4,0-0.9-0.2-1.4-0.4L7.8,81.1C6,80,4.5,77.4,4.5,75.3V70L38,89.3v5.6C37.9,96.3,37.3,97.1,36.3,97.1L36.3,97.1z"/>
	
		<linearGradient id="SVGID_16_" gradientUnits="userSpaceOnUse" x1="612.9727" y1="692.7207" x2="614.5535" y2="690.1246" gradientTransform="matrix(1 0 0 1 -532 -659)">
		<stop  offset="0" style="stop-color:#32414A"/>
		<stop  offset="0.35" style="stop-color:#607A87"/>
		<stop  offset="1" style="stop-color:#32414A"/>
	</linearGradient>
	<path class="st23" d="M81.6,27.9L81.6,27.9L77,30.6c-0.2,0.1-0.3,0.2-0.3,0.3s0.1,0.2,0.3,0.3l5.2,3c0.4,0.2,1,0.2,1.4,0l4.6-2.7
		c0.2-0.1,0.3-0.2,0.3-0.3c0-0.1-0.1-0.2-0.3-0.3l-5.2-3C82.6,27.7,82,27.7,81.6,27.9z"/>
	<path class="st11" d="M82.3,27.6c-0.3,0-0.6,0.1-0.8,0.2l-4.6,2.7c-0.2,0.1-0.3,0.3-0.3,0.5s0.1,0.3,0.3,0.5l5.2,3
		c0.2,0.1,0.5,0.2,0.8,0.2c0.3,0,0.6-0.1,0.8-0.2l4.6-2.7c0.2-0.1,0.3-0.3,0.3-0.5c0-0.2-0.1-0.3-0.3-0.5l-5.2-3
		C82.9,27.6,82.6,27.6,82.3,27.6L82.3,27.6z M82.9,34.2c-0.2,0-0.5-0.1-0.6-0.1l-5.2-3C77,31,76.9,31,76.9,30.9c0,0,0-0.1,0.2-0.2
		l4.6-2.7c0.2-0.1,0.4-0.1,0.6-0.1s0.5,0.1,0.6,0.1l5.2,3c0.1,0.1,0.2,0.1,0.2,0.2c0,0-0.1,0.1-0.2,0.2l-4.6,2.7
		C83.3,34.2,83.1,34.2,82.9,34.2L82.9,34.2z"/>
	<path class="st14" d="M88.3,30.8l-5.2-3c-0.4-0.3-1.2-0.3-1.6,0l-4.6,2.7c-0.4,0.3-0.4,0.7,0,0.9l5.2,3c0.4,0.3,1.2,0.3,1.6,0
		l4.6-2.7C88.7,31.4,88.7,31,88.3,30.8z"/>
	
		<linearGradient id="SVGID_17_" gradientUnits="userSpaceOnUse" x1="614.875" y1="690.8223" x2="616.7457" y2="687.675" gradientTransform="matrix(1 0 0 1 -532 -659)">
		<stop  offset="0" style="stop-color:#97B1BE"/>
		<stop  offset="1" style="stop-color:#B6C9D4"/>
	</linearGradient>
	<path class="st24" d="M88.3,30.8l-5.2-3c-0.4-0.3-1.2-0.3-1.6,0L79,29.2c3.8,0.9,2.7,3.2,7.2,3.7l2.1-1.2
		C88.7,31.4,88.7,31,88.3,30.8z"/>
	<path class="st11" d="M82.3,27.6c-0.3,0-0.6,0.1-0.8,0.2l-4.6,2.7c-0.2,0.1-0.3,0.3-0.3,0.5s0.1,0.3,0.3,0.5l5.2,3
		c0.2,0.1,0.5,0.2,0.8,0.2c0.3,0,0.6-0.1,0.8-0.2l4.6-2.7c0.2-0.1,0.3-0.3,0.3-0.5c0-0.2-0.1-0.3-0.3-0.5l-5.2-3
		C82.9,27.6,82.6,27.6,82.3,27.6L82.3,27.6z M82.8,34.2c-0.2,0-0.5-0.1-0.6-0.1l-5.2-3c-0.1-0.1-0.2-0.1-0.2-0.2c0,0,0-0.1,0.2-0.2
		l4.6-2.7c0.2-0.1,0.4-0.1,0.6-0.1s0.5,0.1,0.6,0.1l0,0l5.2,3c0.1,0.1,0.2,0.1,0.2,0.2c0,0-0.1,0.1-0.2,0.2l-4.6,2.7
		C83.3,34.2,83.1,34.2,82.8,34.2L82.8,34.2z"/>
	
		<linearGradient id="SVGID_18_" gradientUnits="userSpaceOnUse" x1="550.1416" y1="735.0029" x2="588.8915" y2="668.2377" gradientTransform="matrix(1 0 0 1 -532 -659)">
		<stop  offset="2.398080e-003" style="stop-color:#F7F7F7"/>
		<stop  offset="0.2414" style="stop-color:#F5F5F5"/>
		<stop  offset="0.3253" style="stop-color:#FFFFFF"/>
		<stop  offset="0.3583" style="stop-color:#FFFFFF"/>
		<stop  offset="0.4138" style="stop-color:#F7F7F7"/>
		<stop  offset="0.6927" style="stop-color:#EEEEEF"/>
		<stop  offset="1" style="stop-color:#DBDCDC"/>
	</linearGradient>
	<path class="st25" d="M27.3,25.1c0,0-10.8,6.2-11.2,6.5c0.5,0.3,23.5,13.6,23.5,13.6l11.3-6.6c5.6-3.1,12-5.2,19.5-6.5
		c0,0,1.1-0.6,1.5-0.8c-0.5-0.3-22.5-13-22.5-13C40.8,19.4,33.5,21.7,27.3,25.1z"/>
	<path class="st13" d="M49.4,18c-8.6,1.2-15.9,3.5-22.2,6.9l-11.5,6.6l0.3,0.2l0,0l0,0l0,0l23.5,13.5L51,38.7
		c5.6-3.1,12-5.2,19.4-6.5l1.4-0.8l0,0l0,0l0,0l0.3-0.2L49.4,18L49.4,18z M16.4,31.6l11-6.4c6.2-3.4,13.4-5.7,22-6.9l22.2,12.8
		l-1.2,0.7c-7.5,1.3-13.9,3.4-19.5,6.5l-11.3,6.5L16.4,31.6L16.4,31.6z"/>
	
		<linearGradient id="SVGID_19_" gradientUnits="userSpaceOnUse" x1="581.5" y1="707.1152" x2="581.5" y2="709.8225" gradientTransform="matrix(1 0 0 1 -532 -659)">
		<stop  offset="0" style="stop-color:#CEDA00"/>
		<stop  offset="0.6627" style="stop-color:#138F2E"/>
		<stop  offset="0.9955" style="stop-color:#006E1D"/>
	</linearGradient>
	<path class="st26" d="M48.2,48.8L48.2,48.8c-0.4,0.2-0.6,0.5-0.6,0.9c0,0.4,0.2,0.7,0.6,0.9c0.7,0.4,1.9,0.4,2.6,0
		c0.4-0.2,0.6-0.5,0.6-0.9c0-0.4-0.2-0.7-0.6-0.9C50.1,48.4,48.9,48.4,48.2,48.8z"/>
	<path class="st12" d="M49.5,48.2c-0.5,0-1,0.1-1.4,0.3c-0.5,0.3-0.7,0.7-0.7,1.1s0.3,0.8,0.7,1.1c0.4,0.2,0.9,0.3,1.4,0.3
		s1-0.1,1.4-0.3c0.5-0.3,0.7-0.7,0.7-1.1s-0.3-0.8-0.7-1.1l0,0C50.5,48.4,50,48.2,49.5,48.2L49.5,48.2z M47.8,49.7
		c0-0.2,0.2-0.5,0.5-0.7c0.3-0.2,0.8-0.3,1.2-0.3s0.9,0.1,1.2,0.3c0.3,0.2,0.5,0.4,0.5,0.7c0,0.2-0.2,0.5-0.5,0.7
		c-0.3,0.2-0.8,0.3-1.2,0.3s-0.9-0.1-1.2-0.3C48,50.2,47.8,49.9,47.8,49.7L47.8,49.7z"/>
	<path class="st16" d="M49.5,48.7c-0.4,0-0.9,0.1-1.2,0.3c-0.3,0.2-0.5,0.4-0.5,0.7c0,0.2,0.2,0.5,0.5,0.7c0.3,0.2,0.8,0.3,1.2,0.3
		s0.9-0.1,1.2-0.3c0.3-0.2,0.5-0.4,0.5-0.7c0-0.2-0.2-0.5-0.5-0.7C50.4,48.8,49.9,48.7,49.5,48.7L49.5,48.7z M49.5,50.2
		c-0.4,0-0.7-0.1-0.9-0.2c-0.2-0.1-0.3-0.2-0.3-0.3c0-0.1,0.1-0.2,0.3-0.3c0.2-0.1,0.6-0.2,0.9-0.2c0.4,0,0.7,0.1,0.9,0.2l0,0
		c0.2,0.1,0.3,0.2,0.3,0.3c0,0.1-0.1,0.2-0.3,0.3S49.9,50.2,49.5,50.2L49.5,50.2z"/>
	<path class="st0" d="M50.7,49c-0.7-0.4-1.7-0.4-2.4,0c-0.7,0.4-0.7,1,0,1.4c0.7,0.4,1.7,0.4,2.4,0C51.3,50,51.3,49.4,50.7,49z"/>
	
		<linearGradient id="SVGID_20_" gradientUnits="userSpaceOnUse" x1="584.2881" y1="706.4375" x2="585.0299" y2="707.4486" gradientTransform="matrix(1 0 0 1 -532 -659)">
		<stop  offset="5.617980e-003" style="stop-color:#FBC600"/>
		<stop  offset="1" style="stop-color:#E50012"/>
	</linearGradient>
	<path class="st27" d="M51.9,47.8c0.3,0.1,1.1,0.7,1.1,0.7s0.3-0.2,0.5-0.3c-0.2-0.1-1.1-0.6-1.1-0.6S52,47.6,51.9,47.8z"/>
	<path class="st1" d="M52.4,47.3l-0.8,0.4l0.2,0.1l0,0l0,0l0,0l1.1,0.6l0.5-0.3l0,0l0,0l0,0l0.2-0.1L52.4,47.3L52.4,47.3z
		 M52.1,47.8l0.3-0.2l0.8,0.5l-0.3,0.2L52.1,47.8L52.1,47.8z"/>
	<polygon class="st15" points="51.6,47.8 52.9,48.5 53.7,48.1 52.4,47.3 	"/>
	
		<linearGradient id="SVGID_21_" gradientUnits="userSpaceOnUse" x1="586.335" y1="705.252" x2="587.0773" y2="706.2637" gradientTransform="matrix(1 0 0 1 -532 -659)">
		<stop  offset="5.617980e-003" style="stop-color:#FBC600"/>
		<stop  offset="1" style="stop-color:#E50012"/>
	</linearGradient>
	<path class="st28" d="M53.9,46.6c0.3,0.1,1.1,0.6,1.1,0.6s0.3-0.2,0.5-0.3c-0.3-0.1-1.1-0.6-1.1-0.6S54.1,46.5,53.9,46.6z"/>
	<path class="st1" d="M54.4,46.2l-0.8,0.4l0.2,0.1l0,0l0,0l0,0l1.1,0.6l0.5-0.3l0,0l0,0l0,0l0.2-0.1L54.4,46.2L54.4,46.2z
		 M54.1,46.6l0.3-0.2l0.8,0.5l-0.3,0.2L54.1,46.6L54.1,46.6z"/>
	<polygon class="st15" points="53.7,46.6 54.9,47.3 55.7,46.9 54.4,46.2 	"/>
</g>
</svg>
