<?xml version="1.0" encoding="utf-8"?>
<!-- Generator: Adobe Illustrator 18.1.0, SVG Export Plug-In . SVG Version: 6.00 Build 0)  -->
<svg version="1.1" id="图层_1" xmlns="http://www.w3.org/2000/svg" xmlns:xlink="http://www.w3.org/1999/xlink" x="0px" y="0px"
	 width="60px" height="60px" viewBox="0 0 60 60" style="enable-background:new 0 0 60 60;" xml:space="preserve">
<style type="text/css">
	.st0{fill:#FFFFFF;fill-opacity:0;}
	.st1{fill:url(#SVGID_1_);}
	.st2{fill:url(#SVGID_2_);}
	.st3{fill:#517821;}
	.st4{fill:url(#SVGID_3_);}
	.st5{fill:#FFFFFF;}
</style>
<rect x="20" y="-20" class="st0" width="60" height="60"/>
<g>
	
		<linearGradient id="SVGID_1_" gradientUnits="userSpaceOnUse" x1="242.7369" y1="424.1208" x2="342.6667" y2="424.1208" gradientTransform="matrix(0.6 0 0 0.6 -145.6 -215.6)">
		<stop  offset="0" style="stop-color:#517821"/>
		<stop  offset="0.5" style="stop-color:#84B347"/>
		<stop  offset="1" style="stop-color:#517821"/>
	</linearGradient>
	<path class="st1" d="M60,24.8v10.5c0,0.8-0.5,1.7-1.6,2.3L33.8,52c-2.2,1.3-5.6,1.3-7.7,0L1.6,37.6c-1.2-0.7-1.7-1.6-1.6-2.6v-9.9
		c0.1,0.7,0.7,1.4,1.6,2l24.5,14.5c2.2,1.3,5.6,1.3,7.7,0l24.5-14.5C59.5,26.4,60,25.6,60,24.8z"/>
	
		<linearGradient id="SVGID_2_" gradientUnits="userSpaceOnUse" x1="242.6667" y1="400.6333" x2="342.6667" y2="400.6333" gradientTransform="matrix(0.6 0 0 0.6 -145.6 -215.6)">
		<stop  offset="0" style="stop-color:#A0D15C"/>
		<stop  offset="0.5" style="stop-color:#BAEB7F"/>
		<stop  offset="1" style="stop-color:#A0D15C"/>
	</linearGradient>
	<path class="st2" d="M58.4,22.5c2.2,1.3,2.2,3.3,0,4.6L33.9,41.6c-2.2,1.3-5.6,1.3-7.7,0L1.6,27.1c-2.2-1.3-2.2-3.3,0-4.6L26.2,8
		c2.2-1.3,5.6-1.3,7.7,0L58.4,22.5z"/>
	<path class="st3" d="M55.4,24.8V26c0,0.7-0.5,1.4-1.4,1.9L33.3,40.2c-1.8,1.1-4.7,1.1-6.6,0L5.9,27.9c-0.5-0.2-0.8-0.6-1-0.9
		c-0.2-0.4-0.4-0.7-0.4-1v-1.2l0,0c0,0.7,0.5,1.4,1.4,1.9L26.7,39c1.8,1.1,4.7,1.1,6.6,0l20.8-12.3C55,26.2,55.4,25.4,55.4,24.8
		L55.4,24.8z"/>
	
		<radialGradient id="SVGID_3_" cx="292.6667" cy="400.6333" r="34.8893" gradientTransform="matrix(0.6 0 0 0.6 -145.6 -215.6)" gradientUnits="userSpaceOnUse">
		<stop  offset="0" style="stop-color:#CED9C1"/>
		<stop  offset="1" style="stop-color:#98D146"/>
	</radialGradient>
	<path class="st4" d="M54.1,22.8c1.8,1.1,1.8,2.8,0,3.9L33.3,39.1c-1.8,1.1-4.7,1.1-6.6,0L5.9,26.7c-1.8-1.1-1.8-2.8,0-3.9
		l20.8-12.3c1.8-1.1,4.7-1.1,6.6,0L54.1,22.8z"/>
	<g>
		<path class="st3" d="M34.6,20l0.2-0.8l-0.2,0.1v-0.1h-1.8V17l-1.3-0.4h1.3l0.2-0.8l-1.3-0.5l1.1,0.1l0.2-0.8L31.6,14l1.1,0.2
			l0.2-0.8L30,12.1l-3,0.5l-0.2,0.8v0.8l0.2-0.1l-0.1,0.5v0.8H27l-0.1,0.5v0.8H27L26.9,17v2.2h-1.6L25.1,20l4.7,2.8L34.6,20z
			 M27.7,16.8l-0.2-0.2h0.7L27.7,16.8z"/>
		<polygon class="st3" points="29.8,28.3 26.3,30.4 25.3,30.4 25.1,31.1 26.9,31.1 26.9,34 27,34.1 26.9,34.5 26.9,35.3 27,35.3 
			26.9,35.7 26.9,36.5 27,36.5 26.9,37 26.9,37.7 29.8,38.8 32.8,37.7 32.9,37 32.8,37 32.8,37 32.2,37.1 31.9,37.2 31.9,37.3 
			30.9,37.6 30.3,37.3 32.8,36.5 32.8,36.4 32.9,35.8 32.8,35.8 32.8,35.7 32.6,35.8 31.5,35.8 31.9,36 30,36.6 30,36.4 29.6,36.2 
			29.8,36.2 32.8,35.3 32.8,35.2 32.9,34.5 32.8,34.5 32.8,34.5 32.6,34.6 31.5,34.6 31.9,34.8 30,35.4 30.1,35.3 29.2,34.8 
			29.8,35 32.8,34 32.8,33.9 32.9,33.3 32.8,33.3 32.8,31.1 34.6,31.1 34.7,30.4 33.2,30.4 		"/>
		<path class="st3" d="M29.8,27.7c1.8,0,3.3-0.8,3.7-1.8l0,0l0.2-0.8h-0.2c-0.3-1-1.8-1.8-3.7-1.8c-1.4,0-2.6,0.4-3.2,1.1h-0.2
			l-0.2,0.7c-0.1,0.1-0.1,0.2-0.1,0.2v0.1l0,0c0,0.1,0,0.1,0,0.1C26.1,26.8,27.8,27.7,29.8,27.7z"/>
		<polygon class="st3" points="25.3,24.8 24.4,25.1 20.8,23 20.9,22.7 20.6,22 20.4,22.7 20.4,23.8 15.5,23.8 14.3,25 14,24.8 
			13.8,25.6 14.5,26.3 13.1,25.5 14.7,23.8 14.9,23 13.9,23.8 13.4,23.8 12.2,25 11.9,24.8 11.8,25.6 12.4,26.3 11,25.5 12.7,23.8 
			12.8,23 11.6,23.8 11.3,23.8 10.2,25 9.8,24.8 9.7,25.6 10.4,26.3 8.9,25.5 10.6,23.8 10.7,23 9.7,23.6 9.7,23.8 9.2,23.8 8.1,25 
			7.7,24.8 7.6,25.6 9.2,27.3 10.6,27.3 10.7,26.6 11.3,27.3 12.7,27.3 12.8,26.6 13.4,27.3 14.7,27.3 14.9,26.6 15.5,27.3 
			20.4,27.3 20.4,28.4 25.1,25.6 		"/>
		<polygon class="st3" points="51.7,25.1 50.6,24 50.8,24 49.3,23 49.1,23.8 50,24.8 49.6,25.1 48.3,23.8 48.6,23.8 47.2,23 
			47,23.8 47.9,24.8 47.5,25.1 46.2,23.8 46,23.8 45.1,23 44.9,23.8 45.9,24.8 45.4,25.1 44.2,23.8 39.2,23.8 39.2,22.7 35.2,25.1 
			34.7,24.8 34.5,25.6 39.2,28.4 39.4,27.6 39.2,27.5 39.2,27.3 44.2,27.3 45.8,25.6 46,24.9 46.6,25.6 46.3,25.8 45.1,26.5 
			44.9,27.3 46.2,27.3 47.9,25.6 48.1,24.9 48.7,25.6 48.4,25.8 47.2,26.5 47,27.3 48.3,27.3 50,25.6 50.2,24.9 50.7,25.6 
			50.5,25.8 49.3,26.5 49.1,27.3 50.4,27.3 52.1,25.6 52.3,24.8 		"/>
	</g>
	<g>
		<g>
			<g>
				<g>
					<polygon class="st5" points="46,24.8 44.3,23 39.4,23 39.4,22 34.7,24.8 39.4,27.6 39.4,26.5 44.3,26.5 					"/>
					<polygon class="st5" points="46.4,23 45.1,23 46.7,24.8 45.1,26.5 46.4,26.5 48.1,24.8 					"/>
					<polygon class="st5" points="48.5,23 47.2,23 48.8,24.8 47.2,26.5 48.5,26.5 50.2,24.8 					"/>
					<polygon class="st5" points="50.6,23 49.3,23 50.9,24.8 49.3,26.5 50.6,26.5 52.3,24.8 					"/>
				</g>
				<g>
					<polygon class="st5" points="14,24.8 15.7,26.5 20.6,26.5 20.6,27.6 25.3,24.8 20.6,22 20.6,23 15.7,23 					"/>
					<polygon class="st5" points="13.6,26.5 14.9,26.5 13.3,24.8 14.9,23 13.6,23 11.9,24.8 					"/>
					<polygon class="st5" points="11.5,26.5 12.8,26.5 11.2,24.8 12.8,23 11.5,23 9.8,24.8 					"/>
					<polygon class="st5" points="9.4,26.5 10.7,26.5 9.1,24.8 10.7,23 9.4,23 7.7,24.8 					"/>
				</g>
			</g>
			<g>
				<g>
					<polygon class="st5" points="30,15.3 27.1,16.3 27.1,19.2 25.3,19.2 30,22 34.7,19.2 32.9,19.2 32.9,16.3 					"/>
					<polygon class="st5" points="27.1,15.1 27.1,15.8 30,14.9 32.9,15.8 32.9,15.1 30,14 					"/>
					<polygon class="st5" points="27.1,13.8 27.1,14.6 30,13.6 32.9,14.6 32.9,13.8 30,12.8 					"/>
					<polygon class="st5" points="27.1,12.6 27.1,13.4 30,12.4 32.9,13.4 32.9,12.6 30,11.6 					"/>
				</g>
				<g>
					<polygon class="st5" points="30,34.3 32.9,33.3 32.9,30.4 34.7,30.4 30,27.5 25.3,30.4 27.1,30.4 27.1,33.3 					"/>
					<polygon class="st5" points="32.9,34.5 32.9,33.7 30,34.7 27.1,33.7 27.1,34.5 30,35.5 					"/>
					<polygon class="st5" points="32.9,35.8 32.9,35 30,35.9 27.1,35 27.1,35.8 30,36.7 					"/>
					<polygon class="st5" points="32.9,37 32.9,36.2 30,37.2 27.1,36.2 27.1,37 30,38 					"/>
				</g>
			</g>
		</g>
		<ellipse class="st5" cx="30" cy="24.8" rx="3.7" ry="2.2"/>
	</g>
</g>
</svg>
