<?xml version="1.0" encoding="utf-8"?>
<!-- Generator: Adobe Illustrator 18.1.0, SVG Export Plug-In . SVG Version: 6.00 Build 0)  -->
<svg version="1.1" id="图层_1" xmlns="http://www.w3.org/2000/svg" xmlns:xlink="http://www.w3.org/1999/xlink" x="0px" y="0px"
	 width="60px" height="60px" viewBox="0 0 60 60" style="enable-background:new 0 0 60 60;" xml:space="preserve">
<style type="text/css">
	.st0{fill:#D0D8C5;}
	.st1{fill:url(#SVGID_1_);}
	.st2{fill:url(#SVGID_2_);}
	.st3{fill:url(#SVGID_3_);}
	.st4{fill:url(#SVGID_4_);}
	.st5{fill:#517821;}
	.st6{fill:url(#SVGID_5_);}
	.st7{fill:#FFFFFF;}
</style>
<g>
	<path class="st0" d="M55.9,22L33.5,35.2c-2,1.1-5.1,1.1-7,0L4.2,22c-0.8-0.5-1.3-1.1-1.4-1.8v7.6V28c0,0.2,0,0.3,0,0.4v7.1
		c-0.1,0.9,0.3,1.7,1.4,2.3l22.3,13.1c2,1.1,5.1,1.1,7,0l22.3-13.1c1-0.5,1.5-1.3,1.5-2.1v-7.5v-0.8V20C57.3,20.7,56.8,21.4,55.9,22
		z"/>
	
		<linearGradient id="SVGID_1_" gradientUnits="userSpaceOnUse" x1="256.0702" y1="338.2875" x2="356" y2="338.2875" gradientTransform="matrix(0.5455 0 0 0.5455 -136.9091 -155.7273)">
		<stop  offset="0" style="stop-color:#517821"/>
		<stop  offset="0.5" style="stop-color:#84B347"/>
		<stop  offset="1" style="stop-color:#517821"/>
	</linearGradient>
	<path class="st1" d="M57.3,16.6v8.3c0,0.8-0.5,1.5-1.5,2.1L33.5,40.1c-2,1.1-5.1,1.1-7,0L4.2,27c-1.1-0.7-1.5-1.5-1.4-2.3v-7.8
		c0.1,0.7,0.6,1.3,1.4,1.8l22.3,13.2c2,1.1,5.1,1.1,7,0l22.3-13.2C56.8,18.1,57.3,17.3,57.3,16.6z"/>
	
		<linearGradient id="SVGID_2_" gradientUnits="userSpaceOnUse" x1="256.0702" y1="355.2875" x2="356" y2="355.2875" gradientTransform="matrix(0.5455 0 0 0.5455 -136.9091 -155.7273)">
		<stop  offset="0" style="stop-color:#517821"/>
		<stop  offset="0.5" style="stop-color:#84B347"/>
		<stop  offset="1" style="stop-color:#517821"/>
	</linearGradient>
	<path class="st2" d="M57.3,25.9v8.3c0,0.8-0.5,1.5-1.5,2.1L33.5,49.4c-2,1.1-5.1,1.1-7,0L4.2,36.3c-1.1-0.7-1.5-1.5-1.4-2.3v-7.8
		c0.1,0.7,0.6,1.3,1.4,1.8l22.3,13.2c2,1.1,5.1,1.1,7,0l22.3-13.2C56.8,27.3,57.3,26.6,57.3,25.9z"/>
	
		<linearGradient id="SVGID_3_" gradientUnits="userSpaceOnUse" x1="256.0702" y1="372.2875" x2="356" y2="372.2875" gradientTransform="matrix(0.5455 0 0 0.5455 -136.9091 -155.7273)">
		<stop  offset="0" style="stop-color:#517821"/>
		<stop  offset="0.5" style="stop-color:#84B347"/>
		<stop  offset="1" style="stop-color:#517821"/>
	</linearGradient>
	<path class="st3" d="M57.3,35.1v8.3c0,0.8-0.5,1.5-1.5,2.1L33.5,58.7c-2,1.1-5.1,1.1-7,0L4.2,45.5c-1.1-0.7-1.5-1.5-1.4-2.3v-7.8
		c0.1,0.7,0.6,1.3,1.4,1.8l22.3,13.2c2,1.1,5.1,1.1,7,0l22.3-13.2C56.8,36.6,57.3,35.9,57.3,35.1z"/>
	
		<linearGradient id="SVGID_4_" gradientUnits="userSpaceOnUse" x1="256" y1="315.9" x2="356" y2="315.9" gradientTransform="matrix(0.5455 0 0 0.5455 -136.9091 -155.7273)">
		<stop  offset="0" style="stop-color:#A0D15C"/>
		<stop  offset="0.5" style="stop-color:#BAEB7F"/>
		<stop  offset="1" style="stop-color:#A0D15C"/>
	</linearGradient>
	<path class="st4" d="M55.8,14.5c2,1.1,2,3,0,4.1L33.5,31.9c-2,1.1-5.1,1.1-7,0L4.2,18.7c-2-1.1-2-3,0-4.1L26.5,1.3
		c2-1.1,5.1-1.1,7,0L55.8,14.5z"/>
	<path class="st5" d="M53.1,16.6v1.1c0,0.7-0.4,1.3-1.3,1.7L33,30.6c-1.6,1-4.3,1-6,0L8.1,19.4c-0.4-0.2-0.7-0.5-0.9-0.8
		c-0.2-0.3-0.3-0.6-0.3-0.9v-1.1l0,0c0,0.7,0.4,1.3,1.3,1.7L27,29.5c1.6,1,4.3,1,6,0l18.9-11.2C52.7,17.8,53.1,17.2,53.1,16.6
		L53.1,16.6z"/>
	
		<radialGradient id="SVGID_5_" cx="306.2057" cy="307.651" r="35.2417" gradientTransform="matrix(0.54 0 0 0.54 -135.3511 -149.5497)" gradientUnits="userSpaceOnUse">
		<stop  offset="0" style="stop-color:#CED9C1"/>
		<stop  offset="1" style="stop-color:#98D146"/>
	</radialGradient>
	<path class="st6" d="M51.9,14.8c1.6,1,1.6,2.6,0,3.5L33,29.6c-1.6,1-4.3,1-6,0L8.1,18.3c-1.6-1-1.6-2.6,0-3.5L27,3.6
		c1.6-1,4.3-1,6,0L51.9,14.8z"/>
	<g>
		<polygon class="st5" points="28.1,11.7 29.7,14.9 31.4,14 31.4,13.1 31,13.2 29.8,10.7 25.3,10 25.5,9.9 24.8,9.9 24.2,9.8 
			24.1,9.9 22.6,9.9 22.6,11.1 23.2,10.9 		"/>
		<polygon class="st5" points="30.7,10.1 32.2,13.5 33.9,12.5 33.9,11.6 33.5,11.7 32.3,9.2 27.3,8.4 27.5,8.3 26.9,8.3 26.8,8.3 
			26.7,8.3 25.1,8.4 25.1,9.4 25.3,9.3 		"/>
		<polygon class="st5" points="33.3,8.7 34.8,11.9 36.4,11 36.4,10.1 36.1,10.3 34.9,7.7 29.8,6.9 30.3,6.7 27.7,6.9 27.7,7.9 
			27.8,7.7 		"/>
		<polygon class="st5" points="36.9,14.6 35,13.7 35,14.6 37.2,15.9 31.9,19 31.2,18.5 31.2,19.4 32.7,22.7 33.1,22.8 31.5,22.6 
			30.3,20 29.2,20.6 28.6,20 28.6,20.9 30.2,24.2 33.6,24.8 29.2,24.7 27.8,21.4 26.6,22.1 26.1,21.5 26.1,22.4 27.7,25.7 
			31.3,26.3 27.5,26.4 26.7,26.2 25.2,23 24.1,23.6 23.6,23.1 23.6,23.9 25.1,27.2 30.7,28.1 32.3,27.2 32.3,26.5 33.2,26.6 
			34.9,25.7 34.9,25 35.8,25.1 37.4,24.2 37.4,23.5 38.3,23.6 44.3,20.1 46.5,21.4 46.5,14.6 		"/>
		<polygon class="st5" points="25,19.5 23.3,19.3 22.8,19 28.8,15.5 28.8,14.6 28.4,14.6 27.3,12.2 21.7,11.3 15.7,14.8 13.5,13.5 
			13.5,20.3 25,20.3 		"/>
	</g>
	<g>
		<polygon class="st7" points="27.3,11.3 21.7,10.4 15.7,14 13.5,12.7 13.5,19.5 25,19.5 22.8,18.2 28.8,14.6 		"/>
		<polygon class="st7" points="24.2,8.9 22.6,9.9 28.1,10.8 29.7,14.1 31.4,13.1 29.8,9.8 		"/>
		<polygon class="st7" points="26.8,7.4 25.1,8.4 30.7,9.3 32.2,12.6 33.9,11.6 32.3,8.3 		"/>
		<polygon class="st7" points="29.3,5.9 27.7,6.9 33.3,7.8 34.8,11.1 36.4,10.1 34.9,6.8 		"/>
	</g>
	<g>
		<polygon class="st7" points="32.7,21.8 31.2,18.5 37.2,15 35,13.7 46.5,13.7 46.5,20.5 44.3,19.2 38.3,22.7 		"/>
		<polygon class="st7" points="28.6,20 30.3,19.1 31.9,22.4 37.4,23.3 35.8,24.3 30.2,23.3 		"/>
		<polygon class="st7" points="26.1,21.5 27.8,20.6 29.3,23.9 34.9,24.8 33.2,25.7 27.7,24.9 		"/>
		<polygon class="st7" points="23.6,23.1 25.2,22.1 26.7,25.4 32.3,26.3 30.7,27.3 25.1,26.3 		"/>
	</g>
</g>
</svg>
