<?xml version="1.0" encoding="utf-8"?>
<!-- Generator: Adobe Illustrator 16.0.0, SVG Export Plug-In . SVG Version: 6.00 Build 0)  -->
<!DOCTYPE svg PUBLIC "-//W3C//DTD SVG 1.1//EN" "http://www.w3.org/Graphics/SVG/1.1/DTD/svg11.dtd">
<svg version="1.1" id="图层_1" xmlns="http://www.w3.org/2000/svg" xmlns:xlink="http://www.w3.org/1999/xlink" x="0px" y="0px"
	 width="100px" height="100px" viewBox="0 0 100 100" style="enable-background:new 0 0 100 100;" xml:space="preserve">
<style type="text/css">
<![CDATA[
	.st0{opacity:0;fill:#FFFFFF;}
	.st1{fill:#4E646D;}
	.st2{fill:url(#SVGID_1_);}
	.st3{fill:url(#SVGID_2_);}
	.st4{fill:url(#SVGID_3_);}
	.st5{fill:url(#SVGID_4_);}
	.st6{fill:#FFFFFF;}
]]>
</style>
<rect class="st0" width="100" height="100"/>
<g>
	
		<linearGradient id="SVGID_1_" gradientUnits="userSpaceOnUse" x1="256.0693" y1="-308.7871" x2="356" y2="-308.7871" gradientTransform="matrix(1 0 0 -1 -256 -244)">
		<stop  offset="0" style="stop-color:#3D4F5A"/>
		<stop  offset="0.5" style="stop-color:#607A88"/>
		<stop  offset="1" style="stop-color:#3D4F5A"/>
	</linearGradient>
	<path class="st2" d="M100,41.3v17.5c0,1.4-0.9,2.8-2.7,3.8L56.4,86.7c-3.6,2.1-9.3,2.1-12.9,0L2.7,62.6c-2-1.2-2.8-2.7-2.6-4.3
		V41.8c0.2,1.2,1.1,2.4,2.6,3.3l40.9,24.2c3.6,2.1,9.3,2.1,12.9,0l40.9-24.2C99.1,44,100,42.7,100,41.3z"/>
	
		<linearGradient id="SVGID_2_" gradientUnits="userSpaceOnUse" x1="255.999" y1="-285.2998" x2="356" y2="-285.2998" gradientTransform="matrix(1 0 0 -1 -256 -244)">
		<stop  offset="0" style="stop-color:#86A2B1"/>
		<stop  offset="0.5" style="stop-color:#A9BFCB"/>
		<stop  offset="1" style="stop-color:#86A2B1"/>
	</linearGradient>
	<path class="st3" d="M97.3,37.5c3.6,2.1,3.6,5.5,0,7.6L56.5,69.3c-3.6,2.1-9.3,2.1-12.9,0L2.7,45.1c-3.6-2.1-3.6-5.5,0-7.6
		l40.9-24.2c3.6-2.1,9.3-2.1,12.9,0L97.3,37.5z"/>
	
		<linearGradient id="SVGID_3_" gradientUnits="userSpaceOnUse" x1="263.499" y1="-298.8247" x2="348.4004" y2="-298.8247" gradientTransform="matrix(1 0 0 -1 -256 -244)">
		<stop  offset="0" style="stop-color:#3D4F5A"/>
		<stop  offset="0.5" style="stop-color:#607A88"/>
		<stop  offset="1" style="stop-color:#3D4F5A"/>
	</linearGradient>
	<path class="st4" d="M92.4,41.3v2c0,1.2-0.8,2.3-2.3,3.2L55.5,67c-3,1.8-7.9,1.8-11,0L9.8,46.5c-0.8-0.4-1.3-1-1.7-1.5
		c-0.4-0.6-0.6-1.1-0.6-1.7v-2l0,0c0,1.2,0.8,2.3,2.3,3.2L44.5,65c3,1.8,7.9,1.8,11,0l34.7-20.5C91.7,43.6,92.4,42.4,92.4,41.3
		L92.4,41.3z"/>
	
		<radialGradient id="SVGID_4_" cx="-2497.3584" cy="-606.6074" r="109.5438" gradientTransform="matrix(0.3185 0 0 -0.3185 845.4081 -151.9044)" gradientUnits="userSpaceOnUse">
		<stop  offset="0" style="stop-color:#C4D3DB"/>
		<stop  offset="1" style="stop-color:#7B9AA9"/>
	</radialGradient>
	<path class="st5" d="M90.2,38c3,1.8,3,4.7,0,6.5L55.5,65.1c-3,1.8-7.9,1.8-11,0L9.8,44.5c-3-1.8-3-4.7,0-6.5l34.7-20.5
		c3-1.8,7.9-1.8,11,0L90.2,38z"/>
	<polygon class="st1" points="46.8,42 46.8,43.3 52.5,43.3 52.5,41.7 	"/>
	<g>
		<path class="st1" d="M51.6,42c-1.1-0.7-2.9-0.7-4,0c-1.1,0.7-1.1,1.7,0,2.4c1.1,0.7,2.9,0.7,4,0C52.8,43.7,52.8,42.6,51.6,42z"/>
		<path class="st1" d="M83.9,42h-1.5c-0.8-0.3-1.9-0.3-2.7,0H65.9c-0.1-0.3-0.1-0.6-0.3-0.9l4.8-0.8c0.1,0.1,0.2,0.2,0.3,0.2
			c1.1,0.7,2.9,0.7,4,0c0.5-0.3,0.7-0.6,0.8-1h0v0c0-0.1,0-0.3,0-0.4v-1.3l-1.9-0.1c-1-0.2-2.1-0.1-2.9,0.4c0,0,0,0-0.1,0l-5.9,1.2
			c-0.8-1.1-2-2.2-3.5-3.1c-0.5-0.3-1.1-0.6-1.7-0.9l3.1-2.7c1.3,0.3,2.8,0.1,3.9-0.5c0.6-0.4,1-0.9,1.1-1.4h0v0c0-0.1,0-0.3,0-0.4
			v-1.3h-1c0,0-0.1-0.1-0.1-0.1c-1.5-0.9-3.9-0.9-5.4,0c0,0-0.1,0.1-0.1,0.1h-1v1.4c0,0,0,0.1,0,0.1v0v0c0,0.5,0.3,1,1,1.5L58,34.8
			c-2.5-0.9-5.3-1.3-8.1-1.3l-0.4-8c0.2-0.1,0.3-0.1,0.5-0.2c0.3-0.2,0.5-0.4,0.6-0.7h0v-0.2c0,0,0,0,0,0V23l-4.2,0v1.1
			c0,0.1,0,0.3,0,0.4l0,0l0,0c0.1,0.3,0.3,0.5,0.6,0.7c0.2,0.1,0.4,0.2,0.6,0.3l0.4,8c-2.4,0.1-4.8,0.6-6.9,1.4L40,34
			c0.4-0.3,0.6-0.7,0.5-1.1v-1.3h-1.4c-1-0.4-2.4-0.3-3.3,0.2l-1-0.2v1.3l0,0c-0.1,0.5,0.2,1,0.8,1.3c0.7,0.4,1.8,0.6,2.8,0.4
			l1.1,0.9c-0.5,0.2-1,0.5-1.5,0.8c-1.8,1.1-3.1,2.3-3.9,3.7l-9.3-1.5c-0.2-0.3-0.5-0.6-0.9-0.8c-1.5-0.9-3.9-0.9-5.4,0
			c-0.2,0.1-0.3,0.2-0.4,0.3h-0.7v1.5l0,0c0.1,0.5,0.5,0.9,1.1,1.3c1.5,0.9,3.9,0.9,5.4,0c0.3-0.2,0.5-0.4,0.7-0.5l8.9,1.2
			c-0.2,0.6-0.2,1.1-0.2,1.7c0,1.3,0.5,2.6,1.4,3.9l-5.7,1.7c-1.1-0.6-2.9-0.6-4,0c-0.1,0.1-0.2,0.1-0.2,0.2l-0.6-0.3v1.3l0,0
			c0,0.4,0.3,0.9,0.8,1.2c1.1,0.7,2.9,0.7,4,0c0.6-0.4,0.9-0.9,0.8-1.4l5.7-1.7c0.7,0.7,1.6,1.4,2.6,2c0.5,0.3,0.9,0.5,1.4,0.7
			l-0.5,0.4c-0.5,0-1.1,0-1.6,0.2v0l-0.9-0.3v1.3l0,0c0,0.3,0.2,0.7,0.6,1c0.8,0.5,2.2,0.5,3,0c0.4-0.3,0.7-0.6,0.6-1l0,0v-0.7
			l0.2-0.2c2.4,0.9,5.1,1.4,7.9,1.4l0.1,3.7c-0.6,0.1-1.2,0.3-1.7,0.6c-0.3,0.2-0.5,0.3-0.7,0.5l-0.4-0.1v1c0,0.1,0,0.2,0,0.3l0,0
			l0,0c0.1,0.5,0.4,1,1.1,1.4c1.5,0.9,3.9,0.9,5.4,0c0.8-0.5,1.2-1.2,1.1-1.8l0,0v-1.3h-0.9c-0.1,0-0.1-0.1-0.2-0.1
			c-0.5-0.3-1.1-0.5-1.8-0.6l-0.1-3.7c3.5-0.1,7-1,9.8-2.4l3.8,2.3v0.9l0,0c0,0.4,0.3,0.9,0.8,1.2c1.1,0.7,2.9,0.7,4,0
			c0.6-0.3,0.8-0.8,0.8-1.2l0,0v-1.3l-0.5,0.4c-0.1-0.1-0.2-0.2-0.4-0.3c-0.9-0.5-2.2-0.6-3.2-0.3l-4.1-2.4c2.5-1.6,3.8-3.7,4.1-5.7
			L78.4,44c0.1,0.2,0.4,0.5,0.7,0.7c1.1,0.7,2.9,0.7,4,0c0.5-0.3,0.7-0.6,0.8-1l0,0V42z M54.3,45.9c-2.6,1.5-6.8,1.5-9.4,0
			c-2.6-1.5-2.6-4,0-5.5c2.6-1.5,6.8-1.5,9.4,0C56.9,41.9,56.9,44.4,54.3,45.9z"/>
	</g>
	<path class="st6" d="M51.6,40.7c1.1,0.7,1.1,1.7,0,2.4s-2.9,0.7-4,0c-1.1-0.7-1.1-1.7,0-2.4S50.5,40,51.6,40.7z M54.3,39.1
		c2.6,1.5,2.6,4,0,5.5c-2.6,1.5-6.8,1.5-9.4,0c-2.6-1.5-2.6-4,0-5.5C47.5,37.6,51.7,37.6,54.3,39.1z M65.2,38.7
		c-0.8-1.4-2.1-2.6-3.9-3.7c-0.5-0.3-1.1-0.6-1.7-0.9l3.1-2.7c1.3,0.3,2.8,0.1,3.9-0.5c1.5-0.9,1.5-2.3,0-3.2
		c-1.5-0.9-3.9-0.9-5.4,0c-1.4,0.9-1.5,2.2-0.1,3.1L58,33.5c-2.5-0.9-5.3-1.3-8.1-1.3l-0.4-8c0.2-0.1,0.3-0.1,0.5-0.2
		c0.8-0.5,0.8-1.3,0-1.8c-0.8-0.5-2.2-0.5-3,0c-0.8,0.5-0.8,1.3,0,1.8c0.2,0.1,0.4,0.2,0.6,0.3l0.4,8c-2.4,0.1-4.8,0.6-6.9,1.4
		L40,32.7c0.8-0.7,0.7-1.6-0.3-2.2c-1.1-0.7-2.9-0.7-4,0c-1.1,0.7-1.1,1.7,0,2.4c0.7,0.4,1.8,0.6,2.8,0.4l1.1,0.9
		c-0.5,0.2-1,0.5-1.5,0.8c-2,1.2-3.4,2.6-4.1,4.1L25,37.9c0-0.6-0.4-1.1-1.1-1.5c-1.5-0.9-3.9-0.9-5.4,0c-1.5,0.9-1.5,2.3,0,3.2
		c1.5,0.9,3.9,0.9,5.4,0c0.3-0.2,0.5-0.4,0.7-0.5l8.9,1.2c-0.2,0.6-0.2,1.1-0.2,1.7c0,1.3,0.5,2.6,1.4,3.9l-5.7,1.7
		c-1.1-0.6-2.9-0.6-4,0c-1.1,0.7-1.1,1.7,0,2.4s2.9,0.7,4,0c0.6-0.4,0.9-0.9,0.8-1.4l5.7-1.7c0.7,0.7,1.6,1.4,2.6,2
		c0.5,0.3,0.9,0.5,1.4,0.7l-0.5,0.4c-0.7-0.1-1.3,0.1-1.8,0.4c-0.8,0.5-0.8,1.3,0,1.8c0.8,0.5,2.2,0.5,3,0c0.7-0.4,0.8-1,0.4-1.5
		l0.5-0.4c2.4,0.9,5.1,1.4,7.9,1.4l0.1,3.7c-0.6,0.1-1.2,0.3-1.7,0.6c-1.5,0.9-1.5,2.3,0,3.2c1.5,0.9,3.9,0.9,5.4,0
		c1.5-0.9,1.5-2.3,0-3.2c-0.5-0.3-1.1-0.5-1.8-0.6l-0.1-3.7c3.5-0.1,7-1,9.8-2.4l4.1,2.4c-0.5,0.6-0.3,1.4,0.6,1.9
		c1.1,0.7,2.9,0.7,4,0c1.1-0.7,1.1-1.7,0-2.4c-0.9-0.5-2.2-0.6-3.2-0.3l-4.1-2.4c2.5-1.6,3.8-3.7,4.1-5.7l12.4,0.1
		c0.1,0.2,0.4,0.5,0.7,0.7c1.1,0.7,2.9,0.7,4,0c1.1-0.7,1.1-1.7,0-2.4c-1.1-0.7-2.9-0.7-4,0c-0.3,0.2-0.5,0.4-0.7,0.6L66,41.5
		c0-0.6-0.2-1.1-0.4-1.7l4.8-0.8c0.1,0.1,0.2,0.2,0.3,0.2c1.1,0.7,2.9,0.7,4,0c1.1-0.7,1.1-1.7,0-2.4c-1.1-0.7-2.9-0.7-4,0
		c-0.5,0.3-0.8,0.7-0.8,1.1L65.2,38.7z"/>
</g>
</svg>
