<?xml version="1.0" encoding="utf-8"?>
<!-- Generator: Adobe Illustrator 16.0.0, SVG Export Plug-In . SVG Version: 6.00 Build 0)  -->
<!DOCTYPE svg PUBLIC "-//W3C//DTD SVG 1.1//EN" "http://www.w3.org/Graphics/SVG/1.1/DTD/svg11.dtd">
<svg version="1.1" id="图层_1" xmlns="http://www.w3.org/2000/svg" xmlns:xlink="http://www.w3.org/1999/xlink" x="0px" y="0px"
	 width="100px" height="100px" viewBox="0 0 100 100" style="enable-background:new 0 0 100 100;" xml:space="preserve">
<style type="text/css">
<![CDATA[
	.st0{opacity:0;fill:#FFFFFF;}
	.st1{fill:#4E646D;}
	.st2{fill:url(#SVGID_1_);}
	.st3{fill:url(#SVGID_2_);}
	.st4{fill:url(#SVGID_3_);}
	.st5{fill:url(#SVGID_4_);}
	.st6{fill:#FFFFFF;}
]]>
</style>
<rect class="st0" width="100" height="100"/>
<g>
	
		<linearGradient id="SVGID_1_" gradientUnits="userSpaceOnUse" x1="256.0703" y1="-308.7871" x2="355.999" y2="-308.7871" gradientTransform="matrix(1 0 0 -1 -256 -244)">
		<stop  offset="0" style="stop-color:#3D4F5A"/>
		<stop  offset="0.5" style="stop-color:#607A88"/>
		<stop  offset="1" style="stop-color:#3D4F5A"/>
	</linearGradient>
	<path class="st2" d="M100,41.3v17.5c0,1.4-0.9,2.8-2.7,3.8L56.4,86.7c-3.6,2.1-9.3,2.1-12.9,0L2.7,62.6c-2-1.2-2.8-2.7-2.6-4.3
		V41.8c0.2,1.2,1.1,2.4,2.6,3.3l40.9,24.2c3.6,2.1,9.3,2.1,12.9,0l40.9-24.2C99.1,44,100,42.7,100,41.3z"/>
	
		<linearGradient id="SVGID_2_" gradientUnits="userSpaceOnUse" x1="256.001" y1="-285.2998" x2="355.999" y2="-285.2998" gradientTransform="matrix(1 0 0 -1 -256 -244)">
		<stop  offset="0" style="stop-color:#86A2B1"/>
		<stop  offset="0.5" style="stop-color:#A9BFCB"/>
		<stop  offset="1" style="stop-color:#86A2B1"/>
	</linearGradient>
	<path class="st3" d="M97.3,37.5c3.6,2.1,3.6,5.5,0,7.6L56.5,69.3c-3.6,2.1-9.3,2.1-12.9,0L2.7,45.1c-3.6-2.1-3.6-5.5,0-7.6
		l40.9-24.2c3.6-2.1,9.3-2.1,12.9,0L97.3,37.5z"/>
	
		<linearGradient id="SVGID_3_" gradientUnits="userSpaceOnUse" x1="263.499" y1="-298.8247" x2="348.3994" y2="-298.8247" gradientTransform="matrix(1 0 0 -1 -256 -244)">
		<stop  offset="0" style="stop-color:#3D4F5A"/>
		<stop  offset="0.5" style="stop-color:#607A88"/>
		<stop  offset="1" style="stop-color:#3D4F5A"/>
	</linearGradient>
	<path class="st4" d="M92.4,41.3v2c0,1.2-0.8,2.3-2.3,3.2L55.5,67c-3,1.8-7.9,1.8-11,0L9.8,46.5c-0.8-0.4-1.3-1-1.7-1.5
		c-0.4-0.6-0.6-1.1-0.6-1.7v-2l0,0c0,1.2,0.8,2.3,2.3,3.2L44.5,65c3,1.8,7.9,1.8,11,0l34.7-20.5C91.7,43.6,92.4,42.4,92.4,41.3
		L92.4,41.3z"/>
	<g>
		
			<radialGradient id="SVGID_4_" cx="306" cy="-285.3008" r="34.8895" gradientTransform="matrix(1 0 0 -1 -256 -244)" gradientUnits="userSpaceOnUse">
			<stop  offset="0" style="stop-color:#C4D3DB"/>
			<stop  offset="1" style="stop-color:#7B9AA9"/>
		</radialGradient>
		<path class="st5" d="M90.2,38c3,1.8,3,4.7,0,6.5L55.5,65.1c-3,1.8-7.9,1.8-11,0L9.8,44.5c-3-1.8-3-4.7,0-6.5l34.7-20.5
			c3-1.8,7.9-1.8,11,0L90.2,38z"/>
		<g>
			<path class="st1" d="M57.6,33.3l0.3-1.3l-0.3,0.1V32h-3v-3.6l-2.1-0.7l2.1,0l0.3-1.3l-2.2-0.9l1.8,0.1l0.3-1.3l-2.2-1l1.9,0.3
				l0.3-1.3l-4.8-2.1l-5,0.8l-0.3,1.3v1.3l0.2-0.1l-0.2,0.8l0,1.3l0.2-0.1l-0.2,0.8v1.3l0.2,0l-0.2,0.7V32h-2.7l-0.3,1.3l7.9,4.7
				L57.6,33.3z M46.1,28l-0.3-0.3l1.2,0L46.1,28z"/>
			<polygon class="st1" points="49.7,47.2 43.9,50.6 42.1,50.6 41.8,51.9 44.8,51.9 44.8,56.7 45,56.8 44.8,57.5 44.8,58.8 45,58.8 
				44.8,59.5 44.8,60.9 45,60.9 44.8,61.6 44.8,62.9 49.7,64.6 54.6,62.9 54.9,61.6 54.6,61.7 54.6,61.6 53.6,61.9 53.1,62 
				53.2,62.1 51.5,62.6 50.5,62.2 54.6,60.9 54.6,60.7 54.9,59.6 54.6,59.6 54.6,59.5 54.3,59.6 52.5,59.7 53.1,60 50,61 50,60.6 
				49.4,60.3 49.7,60.4 54.6,58.8 54.6,58.6 54.9,57.5 54.6,57.5 54.6,57.5 54.3,57.6 52.5,57.7 53.1,58 50,59 50.1,58.8 48.7,58 
				49.7,58.4 54.6,56.7 54.6,56.5 54.9,55.5 54.6,55.5 54.6,51.9 57.6,51.9 57.9,50.6 55.4,50.6 			"/>
			<path class="st1" d="M49.7,46.2c3,0,5.5-1.3,6.1-3l0,0l0.3-1.3l-0.3,0c-0.5-1.7-3-3-6.1-3c-2.3,0-4.3,0.7-5.4,1.9l-0.4,0
				l-0.3,1.1c-0.1,0.1-0.1,0.3-0.1,0.4l0,0.1l0,0c0,0.1,0,0.1,0,0.2C43.5,44.6,46.3,46.2,49.7,46.2z"/>
			<polygon class="st1" points="42.2,41.3 40.7,41.9 34.7,38.3 34.9,37.9 34.3,36.6 34,37.9 34,39.7 25.8,39.7 23.9,41.7 23.4,41.3 
				23,42.6 24.2,43.8 21.9,42.5 24.5,39.7 24.9,38.4 23.1,39.7 22.3,39.7 20.4,41.6 19.9,41.3 19.6,42.6 20.7,43.8 18.4,42.5 
				21.1,39.7 21.4,38.4 19.3,39.7 18.8,39.7 17,41.6 16.4,41.3 16.1,42.6 17.3,43.8 14.9,42.5 17.6,39.7 17.9,38.4 16.2,39.3 
				16.1,39.7 15.3,39.7 13.5,41.6 12.9,41.3 12.6,42.6 15.3,45.5 17.6,45.5 17.8,44.4 18.8,45.5 21.1,45.5 21.3,44.4 22.3,45.5 
				24.5,45.5 24.8,44.4 25.8,45.5 34,45.5 34,47.3 41.9,42.6 			"/>
			<polygon class="st1" points="86.1,41.9 84.3,40 84.6,40 82.1,38.4 81.8,39.7 83.4,41.4 82.6,41.9 80.5,39.7 81,39.7 78.6,38.4 
				78.3,39.7 79.9,41.4 79.1,41.9 77,39.7 76.7,39.7 75.1,38.4 74.8,39.7 76.5,41.4 75.6,41.9 73.6,39.7 65.4,39.7 65.4,37.9 
				58.7,41.8 57.8,41.3 57.5,42.6 65.4,47.3 65.7,46 65.4,45.8 65.4,45.5 73.6,45.5 76.3,42.6 76.6,41.5 77.6,42.6 77.1,43 
				75.1,44.2 74.8,45.5 77,45.5 79.8,42.6 80.1,41.5 81.1,42.6 80.6,43 78.6,44.2 78.3,45.5 80.5,45.5 83.3,42.6 83.6,41.5 
				84.5,42.6 84.1,43 82.1,44.2 81.8,45.5 84,45.5 86.8,42.6 87.1,41.3 			"/>
		</g>
		<g>
			<g>
				<g>
					<g>
						<polygon class="st6" points="76.6,41.3 73.9,38.4 65.7,38.4 65.7,36.6 57.8,41.3 65.7,46 65.7,44.2 73.9,44.2 						"/>
						<polygon class="st6" points="77.4,38.4 75.1,38.4 77.9,41.3 75.1,44.2 77.4,44.2 80.1,41.3 						"/>
						<polygon class="st6" points="80.9,38.4 78.6,38.4 81.4,41.3 78.6,44.2 80.9,44.2 83.6,41.3 						"/>
						<polygon class="st6" points="84.3,38.4 82.1,38.4 84.9,41.3 82.1,44.2 84.3,44.2 87.1,41.3 						"/>
					</g>
					<g>
						<polygon class="st6" points="23.4,41.3 26.1,44.2 34.3,44.2 34.3,46 42.2,41.3 34.3,36.6 34.3,38.4 26.1,38.4 						"/>
						<polygon class="st6" points="22.6,44.2 24.9,44.2 22.1,41.3 24.9,38.4 22.6,38.4 19.9,41.3 						"/>
						<polygon class="st6" points="19.1,44.2 21.4,44.2 18.6,41.3 21.4,38.4 19.1,38.4 16.4,41.3 						"/>
						<polygon class="st6" points="15.7,44.2 17.9,44.2 15.1,41.3 17.9,38.4 15.7,38.4 12.9,41.3 						"/>
					</g>
				</g>
				<g>
					<g>
						<polygon class="st6" points="50,25.5 45.1,27.1 45.1,32 42.1,32 50,36.7 57.9,32 54.9,32 54.9,27.1 						"/>
						<polygon class="st6" points="45.1,25.1 45.1,26.4 50,24.8 54.9,26.4 54.9,25.1 50,23.4 						"/>
						<polygon class="st6" points="45.1,23 45.1,24.3 50,22.7 54.9,24.3 54.9,23 50,21.4 						"/>
						<polygon class="st6" points="45.1,21 45.1,22.3 50,20.6 54.9,22.3 54.9,21 50,19.3 						"/>
					</g>
					<g>
						<polygon class="st6" points="50,57.1 54.9,55.5 54.9,50.6 57.9,50.6 50,45.9 42.1,50.6 45.1,50.6 45.1,55.5 						"/>
						<polygon class="st6" points="54.9,57.5 54.9,56.2 50,57.8 45.1,56.2 45.1,57.5 50,59.2 						"/>
						<polygon class="st6" points="54.9,59.6 54.9,58.3 50,59.9 45.1,58.3 45.1,59.6 50,61.2 						"/>
						<polygon class="st6" points="54.9,61.6 54.9,60.3 50,62 45.1,60.3 45.1,61.6 50,63.3 						"/>
					</g>
				</g>
			</g>
			<ellipse class="st6" cx="50" cy="41.3" rx="6.2" ry="3.7"/>
		</g>
	</g>
</g>
</svg>
