<?xml version="1.0" encoding="utf-8"?>
<!-- Generator: Adobe Illustrator 16.0.0, SVG Export Plug-In . SVG Version: 6.00 Build 0)  -->
<!DOCTYPE svg PUBLIC "-//W3C//DTD SVG 1.1//EN" "http://www.w3.org/Graphics/SVG/1.1/DTD/svg11.dtd">
<svg version="1.1" id="图层_1" xmlns="http://www.w3.org/2000/svg" xmlns:xlink="http://www.w3.org/1999/xlink" x="0px" y="0px"
	 width="100px" height="132px" viewBox="0 -16 100 132" style="enable-background:new 0 -16 100 132;" xml:space="preserve">
<style type="text/css">
<![CDATA[
	.st0{fill:url(#SVGID_1_);}
	.st1{fill:url(#SVGID_2_);}
	.st2{fill:url(#SVGID_3_);}
	.st3{fill:url(#SVGID_4_);}
	.st4{fill:url(#SVGID_5_);}
	.st5{fill:url(#SVGID_6_);}
	.st6{fill:url(#SVGID_7_);}
	.st7{fill:url(#SVGID_8_);}
	.st8{fill:url(#SVGID_9_);}
	.st9{fill:#6D8D9D;}
	.st10{fill:url(#SVGID_10_);}
	.st11{fill:url(#SVGID_11_);}
	.st12{fill:url(#SVGID_12_);}
	.st13{fill:url(#SVGID_13_);}
	.st14{fill:url(#SVGID_14_);}
	.st15{fill:url(#SVGID_15_);}
	.st16{fill:url(#SVGID_16_);}
	.st17{fill:url(#SVGID_17_);}
	.st18{fill:url(#SVGID_18_);}
	.st19{fill:url(#SVGID_19_);}
	.st20{fill:url(#SVGID_20_);}
	.st21{fill:url(#SVGID_21_);}
	.st22{fill:url(#SVGID_22_);}
	.st23{fill:url(#SVGID_23_);}
	.st24{fill:url(#SVGID_24_);}
	.st25{fill:url(#SVGID_25_);}
	.st26{fill:url(#SVGID_26_);}
	.st27{fill:url(#SVGID_27_);}
	.st28{fill:url(#SVGID_28_);}
	.st29{fill:url(#SVGID_29_);}
	.st30{fill:url(#SVGID_30_);}
	.st31{fill:url(#SVGID_31_);}
	.st32{fill:url(#SVGID_32_);}
	.st33{fill:url(#SVGID_33_);}
	.st34{fill:url(#SVGID_34_);}
	.st35{fill:url(#SVGID_35_);}
	.st36{fill:url(#SVGID_36_);}
	.st37{fill:url(#SVGID_37_);}
	.st38{fill:url(#SVGID_38_);}
	.st39{fill:url(#SVGID_39_);}
	.st40{fill:url(#SVGID_40_);}
	.st41{fill:url(#SVGID_41_);}
	.st42{fill:url(#SVGID_42_);}
	.st43{fill:url(#SVGID_43_);}
]]>
</style>
<g>
	<g>
		<g>
			<polygon class="st9" points="33.1,103.4 7.8,88.4 7.8,17.4 33.1,32.3 			"/>
			
				<linearGradient id="SVGID_1_" gradientUnits="userSpaceOnUse" x1="292.3535" y1="-279.1787" x2="321.9468" y2="-227.9217" gradientTransform="matrix(1 0 0 -1 -256 -245)">
				<stop  offset="0" style="stop-color:#98B2BF"/>
				<stop  offset="1" style="stop-color:#B7CAD5"/>
			</linearGradient>
			<polygon class="st0" points="7.8,17.4 69.2,-15.2 94.5,-0.3 33.1,32.3 			"/>
			
				<linearGradient id="SVGID_2_" gradientUnits="userSpaceOnUse" x1="319.7998" y1="-348.4004" x2="319.7998" y2="-244.7007" gradientTransform="matrix(1 0 0 -1 -256 -245)">
				<stop  offset="0" style="stop-color:#3D4F5A"/>
				<stop  offset="1" style="stop-color:#607A88"/>
			</linearGradient>
			<polygon class="st1" points="33.1,103.4 94.5,70.7 94.5,-0.3 33.1,32.3 			"/>
		</g>
		<polygon class="st9" points="30.8,104.8 5.4,89.9 5.4,18.9 30.8,33.8 		"/>
		
			<linearGradient id="SVGID_3_" gradientUnits="userSpaceOnUse" x1="265.0557" y1="-278.1006" x2="283.1163" y2="-278.1006" gradientTransform="matrix(1 0 0 -1 -256 -245)">
			<stop  offset="0" style="stop-color:#C7D6DE"/>
			<stop  offset="1" style="stop-color:#97B1BE"/>
		</linearGradient>
		<polygon class="st2" points="27.1,42.6 9.1,32 9.1,23.6 27.1,34.3 		"/>
		
			<linearGradient id="SVGID_4_" gradientUnits="userSpaceOnUse" x1="265.5566" y1="-276.6504" x2="282.6152" y2="-276.6504" gradientTransform="matrix(1 0 0 -1 -256 -245)">
			<stop  offset="0" style="stop-color:#607A88"/>
			<stop  offset="1" style="stop-color:#3D4F5A"/>
		</linearGradient>
		<polygon class="st3" points="26.6,37.6 9.6,27.5 9.6,25.7 26.6,35.8 		"/>
		
			<linearGradient id="SVGID_5_" gradientUnits="userSpaceOnUse" x1="274.3906" y1="-271.645" x2="275.3199" y2="-270.0354" gradientTransform="matrix(1 0 0 -1 -256 -245)">
			<stop  offset="0" style="stop-color:#98B2BF"/>
			<stop  offset="1" style="stop-color:#B7CAD5"/>
		</linearGradient>
		<polygon class="st4" points="5.4,18.9 7,17.9 32.3,32.8 30.8,33.8 		"/>
		
			<linearGradient id="SVGID_6_" gradientUnits="userSpaceOnUse" x1="287.5498" y1="-349.8008" x2="287.5498" y2="-277.8008" gradientTransform="matrix(1 0 0 -1 -256 -245)">
			<stop  offset="0" style="stop-color:#3D4F5A"/>
			<stop  offset="1" style="stop-color:#607A88"/>
		</linearGradient>
		<polygon class="st5" points="30.8,104.8 32.3,103.9 32.3,32.8 30.8,33.8 		"/>
		<g>
			<g>
				<g>
					
						<linearGradient id="SVGID_7_" gradientUnits="userSpaceOnUse" x1="261.4004" y1="-285.8008" x2="286.7359" y2="-285.8008" gradientTransform="matrix(1 0 0 -1 -256 -245)">
						<stop  offset="0" style="stop-color:#98B2BF"/>
						<stop  offset="1" style="stop-color:#B7CAD5"/>
					</linearGradient>
					<polygon class="st6" points="30.8,49.3 5.4,34.4 5.4,32.3 30.8,47.3 					"/>
				</g>
				
					<linearGradient id="SVGID_8_" gradientUnits="userSpaceOnUse" x1="287.5498" y1="-294.3467" x2="287.5498" y2="-291.3369" gradientTransform="matrix(1 0 0 -1 -256 -245)">
					<stop  offset="0" style="stop-color:#98B2BF"/>
					<stop  offset="1" style="stop-color:#B7CAD5"/>
				</linearGradient>
				<polygon class="st7" points="30.8,49.3 32.3,48.4 32.3,46.3 30.8,47.3 				"/>
			</g>
		</g>
		<g>
			<g>
				<g>
					
						<linearGradient id="SVGID_9_" gradientUnits="userSpaceOnUse" x1="261.4004" y1="-288.6006" x2="286.7359" y2="-288.6006" gradientTransform="matrix(1 0 0 -1 -256 -245)">
						<stop  offset="0" style="stop-color:#98B2BF"/>
						<stop  offset="1" style="stop-color:#B7CAD5"/>
					</linearGradient>
					<polygon class="st8" points="30.8,52.1 5.4,37.2 5.4,35.1 30.8,50.1 					"/>
				</g>
				
					<linearGradient id="SVGID_10_" gradientUnits="userSpaceOnUse" x1="287.5498" y1="-297.1377" x2="287.5498" y2="-294.1279" gradientTransform="matrix(1 0 0 -1 -256 -245)">
					<stop  offset="0" style="stop-color:#98B2BF"/>
					<stop  offset="1" style="stop-color:#B7CAD5"/>
				</linearGradient>
				<polygon class="st10" points="30.8,52.1 32.3,51.2 32.3,49.1 30.8,50.1 				"/>
			</g>
		</g>
		
			<linearGradient id="SVGID_11_" gradientUnits="userSpaceOnUse" x1="267.1445" y1="-335.2007" x2="286.7525" y2="-335.2007" gradientTransform="matrix(1 0 0 -1 -256 -245)">
			<stop  offset="0" style="stop-color:#98B2BF"/>
			<stop  offset="1" style="stop-color:#B7CAD5"/>
		</linearGradient>
		<polygon class="st11" points="30.8,95.4 30.8,96.6 11.1,85.1 11.1,83.8 		"/>
		
			<linearGradient id="SVGID_12_" gradientUnits="userSpaceOnUse" x1="287.5498" y1="-341.6064" x2="287.5498" y2="-339.4565" gradientTransform="matrix(1 0 0 -1 -256 -245)">
			<stop  offset="0" style="stop-color:#98B2BF"/>
			<stop  offset="1" style="stop-color:#B7CAD5"/>
		</linearGradient>
		<polygon class="st12" points="30.8,96.6 32.3,95.7 32.3,94.5 30.8,95.4 		"/>
		
			<linearGradient id="SVGID_13_" gradientUnits="userSpaceOnUse" x1="267.1445" y1="-333.4009" x2="286.7525" y2="-333.4009" gradientTransform="matrix(1 0 0 -1 -256 -245)">
			<stop  offset="0" style="stop-color:#98B2BF"/>
			<stop  offset="1" style="stop-color:#B7CAD5"/>
		</linearGradient>
		<polygon class="st13" points="30.8,93.6 30.8,94.8 11.1,83.2 11.1,82 		"/>
		
			<linearGradient id="SVGID_14_" gradientUnits="userSpaceOnUse" x1="287.5498" y1="-339.7822" x2="287.5498" y2="-337.6319" gradientTransform="matrix(1 0 0 -1 -256 -245)">
			<stop  offset="0" style="stop-color:#98B2BF"/>
			<stop  offset="1" style="stop-color:#B7CAD5"/>
		</linearGradient>
		<polygon class="st14" points="30.8,94.8 32.3,93.8 32.3,92.6 30.8,93.6 		"/>
		
			<linearGradient id="SVGID_15_" gradientUnits="userSpaceOnUse" x1="267.1445" y1="-331.6006" x2="286.7525" y2="-331.6006" gradientTransform="matrix(1 0 0 -1 -256 -245)">
			<stop  offset="0" style="stop-color:#98B2BF"/>
			<stop  offset="1" style="stop-color:#B7CAD5"/>
		</linearGradient>
		<polygon class="st15" points="30.8,91.7 30.8,93 11.1,81.4 11.1,80.2 		"/>
		
			<linearGradient id="SVGID_16_" gradientUnits="userSpaceOnUse" x1="287.5498" y1="-337.9585" x2="287.5498" y2="-335.8076" gradientTransform="matrix(1 0 0 -1 -256 -245)">
			<stop  offset="0" style="stop-color:#98B2BF"/>
			<stop  offset="1" style="stop-color:#B7CAD5"/>
		</linearGradient>
		<polygon class="st16" points="30.8,93 32.3,92 32.3,90.8 30.8,91.7 		"/>
		
			<linearGradient id="SVGID_17_" gradientUnits="userSpaceOnUse" x1="267.1445" y1="-329.7505" x2="286.7525" y2="-329.7505" gradientTransform="matrix(1 0 0 -1 -256 -245)">
			<stop  offset="0" style="stop-color:#98B2BF"/>
			<stop  offset="1" style="stop-color:#B7CAD5"/>
		</linearGradient>
		<polygon class="st17" points="30.8,89.9 30.8,91.1 11.1,79.6 11.1,78.4 		"/>
		
			<linearGradient id="SVGID_18_" gradientUnits="userSpaceOnUse" x1="287.5498" y1="-336.1338" x2="287.5498" y2="-333.9839" gradientTransform="matrix(1 0 0 -1 -256 -245)">
			<stop  offset="0" style="stop-color:#98B2BF"/>
			<stop  offset="1" style="stop-color:#B7CAD5"/>
		</linearGradient>
		<polygon class="st18" points="30.8,91.1 32.3,90.2 32.3,89 30.8,89.9 		"/>
		
			<linearGradient id="SVGID_19_" gradientUnits="userSpaceOnUse" x1="267.1445" y1="-327.9009" x2="286.7525" y2="-327.9009" gradientTransform="matrix(1 0 0 -1 -256 -245)">
			<stop  offset="0" style="stop-color:#98B2BF"/>
			<stop  offset="1" style="stop-color:#B7CAD5"/>
		</linearGradient>
		<polygon class="st19" points="30.8,88.1 30.8,89.3 11.1,77.8 11.1,76.5 		"/>
		
			<linearGradient id="SVGID_20_" gradientUnits="userSpaceOnUse" x1="287.5498" y1="-334.3096" x2="287.5498" y2="-332.1587" gradientTransform="matrix(1 0 0 -1 -256 -245)">
			<stop  offset="0" style="stop-color:#98B2BF"/>
			<stop  offset="1" style="stop-color:#B7CAD5"/>
		</linearGradient>
		<polygon class="st20" points="30.8,89.3 32.3,88.4 32.3,87.2 30.8,88.1 		"/>
		
			<linearGradient id="SVGID_21_" gradientUnits="userSpaceOnUse" x1="267.1445" y1="-326.1006" x2="286.7525" y2="-326.1006" gradientTransform="matrix(1 0 0 -1 -256 -245)">
			<stop  offset="0" style="stop-color:#98B2BF"/>
			<stop  offset="1" style="stop-color:#B7CAD5"/>
		</linearGradient>
		<polygon class="st21" points="30.8,86.3 30.8,87.5 11.1,75.9 11.1,74.7 		"/>
		
			<linearGradient id="SVGID_22_" gradientUnits="userSpaceOnUse" x1="287.5498" y1="-332.4858" x2="287.5498" y2="-330.3369" gradientTransform="matrix(1 0 0 -1 -256 -245)">
			<stop  offset="0" style="stop-color:#98B2BF"/>
			<stop  offset="1" style="stop-color:#B7CAD5"/>
		</linearGradient>
		<polygon class="st22" points="30.8,87.5 32.3,86.5 32.3,85.3 30.8,86.3 		"/>
		
			<linearGradient id="SVGID_23_" gradientUnits="userSpaceOnUse" x1="267.1445" y1="-324.3003" x2="286.7525" y2="-324.3003" gradientTransform="matrix(1 0 0 -1 -256 -245)">
			<stop  offset="0" style="stop-color:#98B2BF"/>
			<stop  offset="1" style="stop-color:#B7CAD5"/>
		</linearGradient>
		<polygon class="st23" points="30.8,84.4 30.8,85.7 11.1,74.1 11.1,72.9 12.2,73.5 		"/>
		
			<linearGradient id="SVGID_24_" gradientUnits="userSpaceOnUse" x1="287.5498" y1="-330.6606" x2="287.5498" y2="-328.5113" gradientTransform="matrix(1 0 0 -1 -256 -245)">
			<stop  offset="0" style="stop-color:#98B2BF"/>
			<stop  offset="1" style="stop-color:#B7CAD5"/>
		</linearGradient>
		<polygon class="st24" points="30.8,85.7 32.3,84.7 32.3,83.5 30.8,84.4 		"/>
		
			<linearGradient id="SVGID_25_" gradientUnits="userSpaceOnUse" x1="267.6504" y1="-319.1084" x2="267.6504" y2="-317.8975" gradientTransform="matrix(1 0 0 -1 -256 -245)">
			<stop  offset="0" style="stop-color:#3D4F5A"/>
			<stop  offset="1" style="stop-color:#607A88"/>
		</linearGradient>
		<polygon class="st25" points="12.2,73.5 11.1,74.1 11.1,72.9 		"/>
		
			<linearGradient id="SVGID_26_" gradientUnits="userSpaceOnUse" x1="267.6504" y1="-320.9385" x2="267.6504" y2="-319.7251" gradientTransform="matrix(1 0 0 -1 -256 -245)">
			<stop  offset="0" style="stop-color:#3D4F5A"/>
			<stop  offset="1" style="stop-color:#607A88"/>
		</linearGradient>
		<polygon class="st26" points="12.2,75.3 11.1,75.9 11.1,74.7 		"/>
		
			<linearGradient id="SVGID_27_" gradientUnits="userSpaceOnUse" x1="267.6504" y1="-322.7666" x2="267.6504" y2="-321.5557" gradientTransform="matrix(1 0 0 -1 -256 -245)">
			<stop  offset="0" style="stop-color:#3D4F5A"/>
			<stop  offset="1" style="stop-color:#607A88"/>
		</linearGradient>
		<polygon class="st27" points="12.2,77.2 11.1,77.8 11.1,76.6 		"/>
		
			<linearGradient id="SVGID_28_" gradientUnits="userSpaceOnUse" x1="267.6504" y1="-324.5967" x2="267.6504" y2="-323.3858" gradientTransform="matrix(1 0 0 -1 -256 -245)">
			<stop  offset="0" style="stop-color:#3D4F5A"/>
			<stop  offset="1" style="stop-color:#607A88"/>
		</linearGradient>
		<polygon class="st28" points="12.2,79 11.1,79.6 11.1,78.4 		"/>
		
			<linearGradient id="SVGID_29_" gradientUnits="userSpaceOnUse" x1="267.6504" y1="-326.4268" x2="267.6504" y2="-325.2153" gradientTransform="matrix(1 0 0 -1 -256 -245)">
			<stop  offset="0" style="stop-color:#3D4F5A"/>
			<stop  offset="1" style="stop-color:#607A88"/>
		</linearGradient>
		<polygon class="st29" points="12.2,80.8 11.1,81.4 11.1,80.2 		"/>
		
			<linearGradient id="SVGID_30_" gradientUnits="userSpaceOnUse" x1="267.6504" y1="-328.2549" x2="267.6504" y2="-327.0444" gradientTransform="matrix(1 0 0 -1 -256 -245)">
			<stop  offset="0" style="stop-color:#3D4F5A"/>
			<stop  offset="1" style="stop-color:#607A88"/>
		</linearGradient>
		<polygon class="st30" points="12.2,82.6 11.1,83.3 11.1,82 		"/>
		
			<linearGradient id="SVGID_31_" gradientUnits="userSpaceOnUse" x1="267.6504" y1="-330.085" x2="267.6504" y2="-328.874" gradientTransform="matrix(1 0 0 -1 -256 -245)">
			<stop  offset="0" style="stop-color:#3D4F5A"/>
			<stop  offset="1" style="stop-color:#607A88"/>
		</linearGradient>
		<polygon class="st31" points="12.2,84.5 11.1,85.1 11.1,83.9 		"/>
		<g>
			
				<linearGradient id="SVGID_32_" gradientUnits="userSpaceOnUse" x1="278.6826" y1="-335.3135" x2="285.1709" y2="-335.3135" gradientTransform="matrix(1 0.589 0 -1 -256 -433.8607)">
				<stop  offset="0" style="stop-color:#3D4F5A"/>
				<stop  offset="1" style="stop-color:#607A88"/>
			</linearGradient>
			<path class="st32" d="M29.2,69.5c0,1.8-1.5,2.4-3.2,1.3c-1.8-1.1-3.2-3.4-3.2-5.2s1.5-2.4,3.2-1.3C27.7,65.4,29.2,67.7,29.2,69.5
				z"/>
			
				<radialGradient id="SVGID_33_" cx="84.1172" cy="-459.0713" r="3.3477" gradientTransform="matrix(0.8588 0.5059 0 -0.8588 -46.1399 -369.0618)" gradientUnits="userSpaceOnUse">
				<stop  offset="0" style="stop-color:#B7CAD5"/>
				<stop  offset="1" style="stop-color:#98B2BF"/>
			</radialGradient>
			<path class="st33" d="M29,69.4c0,1.6-1.3,2.1-2.9,1.2s-2.9-3-2.9-4.6c0-1.6,1.3-2.1,2.9-1.2C27.7,65.8,29,67.9,29,69.4z"/>
		</g>
		<g>
			
				<linearGradient id="SVGID_34_" gradientUnits="userSpaceOnUse" x1="280.9492" y1="-340.7197" x2="282.9053" y2="-340.7197" gradientTransform="matrix(1 0.589 0 -1 -256 -433.8607)">
				<stop  offset="0" style="stop-color:#3D4F5A"/>
				<stop  offset="1" style="stop-color:#607A88"/>
			</linearGradient>
			<path class="st34" d="M26.9,73.5c0,0.5-0.4,0.7-1,0.4c-0.5-0.3-1-1-1-1.6c0-0.5,0.4-0.7,1-0.4S26.9,72.9,26.9,73.5z"/>
			
				<radialGradient id="SVGID_35_" cx="83.9775" cy="-465.2188" r="1.009" gradientTransform="matrix(0.8588 0.5059 0 -0.8588 -46.1399 -369.0618)" gradientUnits="userSpaceOnUse">
				<stop  offset="0" style="stop-color:#B7CAD5"/>
				<stop  offset="1" style="stop-color:#98B2BF"/>
			</radialGradient>
			<path class="st35" d="M26.8,73.5c0,0.5-0.4,0.6-0.9,0.4C25.4,73.6,25,73,25,72.5s0.4-0.6,0.9-0.4C26.5,72.4,26.8,73,26.8,73.5z"
				/>
		</g>
	</g>
	<g>
		<g>
			
				<linearGradient id="SVGID_36_" gradientUnits="userSpaceOnUse" x1="311.0928" y1="-331.4004" x2="317.0459" y2="-331.4004" gradientTransform="matrix(1 0 0 -1 -256 -245)">
				<stop  offset="0" style="stop-color:#607A88"/>
				<stop  offset="1" style="stop-color:#3D4F5A"/>
			</linearGradient>
			<path class="st36" d="M60.3,93.9c-0.3-0.2-0.6-0.6-0.6-1.4V77L57,75.4l-1.9,1l1.5,14.2l0.8,4.3l1.2,1.8l0.6,0.7l1.9-1l-0.3-2.2
				C60.5,94.1,60.4,94,60.3,93.9z"/>
			
				<linearGradient id="SVGID_37_" gradientUnits="userSpaceOnUse" x1="318.627" y1="-339.9819" x2="330.9667" y2="-339.9819" gradientTransform="matrix(1 0 0 -1 -256 -245)">
				<stop  offset="0" style="stop-color:#607A88"/>
				<stop  offset="1" style="stop-color:#3D4F5A"/>
			</linearGradient>
			<path class="st37" d="M69,87.9c-1.7-1-3.3-1.2-4.4-0.6l0,0l-1.9,1.1l0.3,0.8l0.3-0.1c-0.2,0.6-0.3,1.2-0.3,2c0,0.5,0,1,0.1,1.4
				L63,93l1.2,5.2l3.6,3h1.1c0.1,0,0.1,0.1,0.2,0.1c0.7,0.4,1.4,0.7,2,0.8l-0.2,0.3l0.4,0.6l2.3-1.3l0,0c0.9-0.6,1.4-1.8,1.4-3.6
				C75,93.9,72.1,89.7,69,87.9z M69,99.1c-2-1.2-3.2-3.7-3.2-6.4c0-1.3,0.3-2.3,0.9-2.8l0.1,0.1l3,2.1l1.3,1.9l0.3,3.1l0.8,1
				C71.6,99.6,70.5,100,69,99.1z"/>
			
				<linearGradient id="SVGID_38_" gradientUnits="userSpaceOnUse" x1="330.6885" y1="-348.7505" x2="350.4941" y2="-348.7505" gradientTransform="matrix(1 0 0 -1 -256 -245)">
				<stop  offset="0" style="stop-color:#607A88"/>
				<stop  offset="1" style="stop-color:#3D4F5A"/>
			</linearGradient>
			<path class="st38" d="M92,101.8l-1.9,1l-0.5,8.1l-0.1-0.1c-0.3-1.4-0.6-2.7-0.9-4.1l-1.8-8l-2.5-1.5l-1.9,1l-0.8,7.9l0,0
				c-0.2-1.3-0.4-2.6-0.7-4l-1.7-7.9l-2.7-1.6l-1.9,1l5,14.4l0.6-0.6l1.2,0.7l-0.2,2l1.9-1l1.6-5.4c0.1-0.3,0.2-0.6,0.3-1l2.1,9.1
				l0.9,0.9l0.1-0.7l1.4,0.8l-0.1,2.1l1.9-1l3.3-10.8L92,101.8z"/>
			
				<linearGradient id="SVGID_39_" gradientUnits="userSpaceOnUse" x1="298.2148" y1="-324.0503" x2="310.1895" y2="-324.0503" gradientTransform="matrix(1 0 0 -1 -256 -245)">
				<stop  offset="0" style="stop-color:#607A88"/>
				<stop  offset="1" style="stop-color:#3D4F5A"/>
			</linearGradient>
			<polygon class="st39" points="42.2,70.3 44.1,71.8 44.1,85.5 43.4,86.7 44.9,88.9 46.8,87.9 46.8,80.5 50.1,82.5 49.6,82.9 
				51.2,85.3 53.1,84.2 53.1,82 46.8,78.3 46.8,74 52.3,78.5 54.2,77.4 54.2,75.2 44.1,69.2 			"/>
		</g>
		<g>
			
				<linearGradient id="SVGID_40_" gradientUnits="userSpaceOnUse" x1="298.2148" y1="-324.6006" x2="308.3145" y2="-324.6006" gradientTransform="matrix(1 0 0 -1 -256 -245)">
				<stop  offset="0" style="stop-color:#F6F8F9"/>
				<stop  offset="1" style="stop-color:#9EB6C3"/>
			</linearGradient>
			<path class="st40" d="M42.2,70.3l10.1,5.9v2.2L44.9,74v5.2l6.3,3.7v2.2l-6.3-3.5v7.3l-2.7-1.6V70.3z"/>
			
				<linearGradient id="SVGID_41_" gradientUnits="userSpaceOnUse" x1="311.0928" y1="-331.9507" x2="315.1699" y2="-331.9507" gradientTransform="matrix(1 0 0 -1 -256 -245)">
				<stop  offset="0" style="stop-color:#F6F8F9"/>
				<stop  offset="1" style="stop-color:#9EB6C3"/>
			</linearGradient>
			<path class="st41" d="M55.1,91.9V76.5l2.6,1.6v15.5c0,0.7,0.3,1.2,0.6,1.4c0.1,0.1,0.2,0.1,0.4,0.2l0.3,2.2
				c-0.3-0.1-0.8-0.3-1.4-0.6C55.8,95.6,55.1,94,55.1,91.9z"/>
			
				<linearGradient id="SVGID_42_" gradientUnits="userSpaceOnUse" x1="317.0996" y1="-340.6245" x2="329.0996" y2="-340.6245" gradientTransform="matrix(1 0 0 -1 -256 -245)">
				<stop  offset="0" style="stop-color:#F6F8F9"/>
				<stop  offset="1" style="stop-color:#9EB6C3"/>
			</linearGradient>
			<path class="st42" d="M61.1,92.1c0-4.3,2.8-5,6-3.2c3.2,1.9,6,6,6,10.3c0,4.2-2.8,5-6,3.1C63.9,100.4,61.1,96.3,61.1,92.1z
				 M70.4,97.6c0-2.7-1.3-5.3-3.3-6.4c-2-1.2-3.2-0.1-3.2,2.6s1.3,5.2,3.2,6.4C69.1,101.3,70.4,100.2,70.4,97.6z"/>
			
				<linearGradient id="SVGID_43_" gradientUnits="userSpaceOnUse" x1="330.7002" y1="-349.4502" x2="348.6289" y2="-349.4502" gradientTransform="matrix(1 0 0 -1 -256 -245)">
				<stop  offset="0" style="stop-color:#F6F8F9"/>
				<stop  offset="1" style="stop-color:#9EB6C3"/>
			</linearGradient>
			<path class="st43" d="M74.7,93.7l2.7,1.6l1.7,7.9c0.3,1.4,0.5,2.7,0.7,4l0.1,0.1c0.3-1,0.5-2.1,0.8-3.1l1.8-5.9l2.5,1.5l1.8,8
				c0.3,1.4,0.6,2.7,0.9,4.1l0.1,0.1c0.3-1.1,0.5-2.1,0.7-3.2l1.6-5.9l2.5,1.5l-3.3,10.8l-3.2-1.9l-1.6-7.3
				c-0.3-1.4-0.5-2.7-0.8-4.2l-0.1-0.1c-0.3,1.2-0.5,2.2-0.8,3.2l-1.6,5.4l-3.1-1.8L74.7,93.7z"/>
		</g>
	</g>
</g>
</svg>
