<?xml version="1.0" encoding="utf-8"?>
<!-- Generator: Adobe Illustrator 16.0.0, SVG Export Plug-In . SVG Version: 6.00 Build 0)  -->
<!DOCTYPE svg PUBLIC "-//W3C//DTD SVG 1.1//EN" "http://www.w3.org/Graphics/SVG/1.1/DTD/svg11.dtd">
<svg version="1.1" id="图层_1" xmlns="http://www.w3.org/2000/svg" xmlns:xlink="http://www.w3.org/1999/xlink" x="0px" y="0px"
	 width="100px" height="130px" viewBox="0 -15 100 130" style="enable-background:new 0 -15 100 130;" xml:space="preserve">
<style type="text/css">
<![CDATA[
	.st0{fill:url(#SVGID_1_);}
	.st1{fill:url(#SVGID_2_);}
	.st2{fill:url(#SVGID_3_);}
	.st3{fill:url(#SVGID_4_);}
	.st4{fill:url(#SVGID_5_);}
	.st5{fill:url(#SVGID_6_);}
	.st6{fill:url(#SVGID_7_);}
	.st7{fill:url(#SVGID_8_);}
	.st8{fill:url(#SVGID_9_);}
	.st9{fill:#6D8D9D;}
	.st10{fill:url(#SVGID_10_);}
	.st11{fill:url(#SVGID_11_);}
	.st12{fill:url(#SVGID_12_);}
	.st13{fill:url(#SVGID_13_);}
	.st14{fill:url(#SVGID_14_);}
	.st15{fill:url(#SVGID_15_);}
	.st16{fill:url(#SVGID_16_);}
	.st17{fill:url(#SVGID_17_);}
	.st18{fill:url(#SVGID_18_);}
	.st19{fill:url(#SVGID_19_);}
	.st20{fill:url(#SVGID_20_);}
	.st21{fill:url(#SVGID_21_);}
	.st22{fill:url(#SVGID_22_);}
	.st23{fill:url(#SVGID_23_);}
	.st24{fill:url(#SVGID_24_);}
	.st25{fill:url(#SVGID_25_);}
	.st26{fill:url(#SVGID_26_);}
	.st27{fill:url(#SVGID_27_);}
	.st28{fill:url(#SVGID_28_);}
	.st29{fill:url(#SVGID_29_);}
	.st30{fill:url(#SVGID_30_);}
	.st31{fill:url(#SVGID_31_);}
	.st32{fill:url(#SVGID_32_);}
	.st33{fill:url(#SVGID_33_);}
	.st34{fill:url(#SVGID_34_);}
	.st35{fill:url(#SVGID_35_);}
	.st36{fill:url(#SVGID_36_);}
	.st37{fill:url(#SVGID_37_);}
	.st38{fill:url(#SVGID_38_);}
	.st39{fill:url(#SVGID_39_);}
	.st40{fill:url(#SVGID_40_);}
	.st41{fill:url(#SVGID_41_);}
]]>
</style>
<g>
	<g>
		<g>
			<polygon class="st9" points="35.4,104.5 10.1,89.5 10.1,18.6 35.4,33.5 			"/>
			
				<linearGradient id="SVGID_1_" gradientUnits="userSpaceOnUse" x1="294.666" y1="-280.4058" x2="324.2343" y2="-229.1918" gradientTransform="matrix(1 0 0 -1 -256 -245)">
				<stop  offset="0" style="stop-color:#98B2BF"/>
				<stop  offset="1" style="stop-color:#B7CAD5"/>
			</linearGradient>
			<polygon class="st0" points="10.1,18.6 71.5,-14 96.8,0.9 35.4,33.5 			"/>
			
				<linearGradient id="SVGID_2_" gradientUnits="userSpaceOnUse" x1="322.0996" y1="-349.5488" x2="322.0996" y2="-245.9497" gradientTransform="matrix(1 0 0 -1 -256 -245)">
				<stop  offset="0" style="stop-color:#3D4F5A"/>
				<stop  offset="1" style="stop-color:#607A88"/>
			</linearGradient>
			<polygon class="st1" points="35.4,104.5 96.8,71.9 96.8,0.9 35.4,33.5 			"/>
		</g>
		<polygon class="st9" points="33,105.9 7.8,91 7.8,20 33,34.9 		"/>
		
			<linearGradient id="SVGID_3_" gradientUnits="userSpaceOnUse" x1="267.4121" y1="-279.3496" x2="285.4551" y2="-279.3496" gradientTransform="matrix(1 0 0 -1 -256 -245)">
			<stop  offset="0" style="stop-color:#C7D6DE"/>
			<stop  offset="1" style="stop-color:#97B1BE"/>
		</linearGradient>
		<polygon class="st2" points="29.4,43.8 11.4,33.1 11.4,24.8 29.4,35.4 		"/>
		
			<linearGradient id="SVGID_4_" gradientUnits="userSpaceOnUse" x1="267.9111" y1="-277.8496" x2="284.9541" y2="-277.8496" gradientTransform="matrix(1 0 0 -1 -256 -245)">
			<stop  offset="0" style="stop-color:#607A88"/>
			<stop  offset="1" style="stop-color:#3D4F5A"/>
		</linearGradient>
		<polygon class="st3" points="28.9,38.7 11.9,28.7 11.9,26.9 28.9,37 		"/>
		
			<linearGradient id="SVGID_5_" gradientUnits="userSpaceOnUse" x1="276.7305" y1="-272.8613" x2="277.6594" y2="-271.2523" gradientTransform="matrix(1 0 0 -1 -256 -245)">
			<stop  offset="0" style="stop-color:#98B2BF"/>
			<stop  offset="1" style="stop-color:#B7CAD5"/>
		</linearGradient>
		<polygon class="st4" points="7.8,20 9.3,19.1 34.6,34 33,34.9 		"/>
		
			<linearGradient id="SVGID_6_" gradientUnits="userSpaceOnUse" x1="289.8496" y1="-350.9492" x2="289.8496" y2="-279.0493" gradientTransform="matrix(1 0 0 -1 -256 -245)">
			<stop  offset="0" style="stop-color:#3D4F5A"/>
			<stop  offset="1" style="stop-color:#607A88"/>
		</linearGradient>
		<polygon class="st5" points="33,105.9 34.6,105 34.6,34 33,34.9 		"/>
		<g>
			<g>
				<g>
					
						<linearGradient id="SVGID_7_" gradientUnits="userSpaceOnUse" x1="263.7793" y1="-287.0488" x2="289.0791" y2="-287.0488" gradientTransform="matrix(1 0 0 -1 -256 -245)">
						<stop  offset="0" style="stop-color:#98B2BF"/>
						<stop  offset="1" style="stop-color:#B7CAD5"/>
					</linearGradient>
					<polygon class="st6" points="33,50.5 7.8,35.6 7.8,33.5 33,48.4 					"/>
				</g>
				
					<linearGradient id="SVGID_8_" gradientUnits="userSpaceOnUse" x1="289.8496" y1="-295.543" x2="289.8496" y2="-292.5377" gradientTransform="matrix(1 0 0 -1 -256 -245)">
					<stop  offset="0" style="stop-color:#98B2BF"/>
					<stop  offset="1" style="stop-color:#B7CAD5"/>
				</linearGradient>
				<polygon class="st7" points="33,50.5 34.6,49.6 34.6,47.5 33,48.4 				"/>
			</g>
		</g>
		<g>
			<g>
				<g>
					
						<linearGradient id="SVGID_9_" gradientUnits="userSpaceOnUse" x1="263.7793" y1="-289.8496" x2="289.0791" y2="-289.8496" gradientTransform="matrix(1 0 0 -1 -256 -245)">
						<stop  offset="0" style="stop-color:#98B2BF"/>
						<stop  offset="1" style="stop-color:#B7CAD5"/>
					</linearGradient>
					<polygon class="st8" points="33,53.3 7.8,38.4 7.8,36.3 33,51.3 					"/>
				</g>
				
					<linearGradient id="SVGID_10_" gradientUnits="userSpaceOnUse" x1="289.8496" y1="-298.333" x2="289.8496" y2="-295.3271" gradientTransform="matrix(1 0 0 -1 -256 -245)">
					<stop  offset="0" style="stop-color:#98B2BF"/>
					<stop  offset="1" style="stop-color:#B7CAD5"/>
				</linearGradient>
				<polygon class="st10" points="33,53.3 34.6,52.3 34.6,50.3 33,51.3 				"/>
			</g>
		</g>
		
			<linearGradient id="SVGID_11_" gradientUnits="userSpaceOnUse" x1="269.498" y1="-336.3994" x2="289.0986" y2="-336.3994" gradientTransform="matrix(1 0 0 -1 -256 -245)">
			<stop  offset="0" style="stop-color:#98B2BF"/>
			<stop  offset="1" style="stop-color:#B7CAD5"/>
		</linearGradient>
		<polygon class="st11" points="33,96.5 33,97.8 13.4,86.3 13.4,85 		"/>
		
			<linearGradient id="SVGID_12_" gradientUnits="userSpaceOnUse" x1="289.8496" y1="-342.7598" x2="289.8496" y2="-340.6118" gradientTransform="matrix(1 0 0 -1 -256 -245)">
			<stop  offset="0" style="stop-color:#98B2BF"/>
			<stop  offset="1" style="stop-color:#B7CAD5"/>
		</linearGradient>
		<polygon class="st12" points="33,97.8 34.6,96.8 34.6,95.7 33,96.5 		"/>
		
			<linearGradient id="SVGID_13_" gradientUnits="userSpaceOnUse" x1="269.498" y1="-334.5498" x2="289.0986" y2="-334.5498" gradientTransform="matrix(1 0 0 -1 -256 -245)">
			<stop  offset="0" style="stop-color:#98B2BF"/>
			<stop  offset="1" style="stop-color:#B7CAD5"/>
		</linearGradient>
		<polygon class="st13" points="33,94.8 33,95.9 13.4,84.3 13.4,83.2 		"/>
		
			<linearGradient id="SVGID_14_" gradientUnits="userSpaceOnUse" x1="289.8496" y1="-340.9365" x2="289.8496" y2="-338.791" gradientTransform="matrix(1 0 0 -1 -256 -245)">
			<stop  offset="0" style="stop-color:#98B2BF"/>
			<stop  offset="1" style="stop-color:#B7CAD5"/>
		</linearGradient>
		<polygon class="st14" points="33,95.9 34.6,95 34.6,93.8 33,94.8 		"/>
		
			<linearGradient id="SVGID_15_" gradientUnits="userSpaceOnUse" x1="269.498" y1="-332.75" x2="289.0986" y2="-332.75" gradientTransform="matrix(1 0 0 -1 -256 -245)">
			<stop  offset="0" style="stop-color:#98B2BF"/>
			<stop  offset="1" style="stop-color:#B7CAD5"/>
		</linearGradient>
		<polygon class="st15" points="33,92.8 33,94.2 13.4,82.5 13.4,81.3 		"/>
		
			<linearGradient id="SVGID_16_" gradientUnits="userSpaceOnUse" x1="289.8496" y1="-339.1157" x2="289.8496" y2="-336.9659" gradientTransform="matrix(1 0 0 -1 -256 -245)">
			<stop  offset="0" style="stop-color:#98B2BF"/>
			<stop  offset="1" style="stop-color:#B7CAD5"/>
		</linearGradient>
		<polygon class="st16" points="33,94.2 34.6,93.2 34.6,91.9 33,92.9 		"/>
		
			<linearGradient id="SVGID_17_" gradientUnits="userSpaceOnUse" x1="269.498" y1="-330.8994" x2="289.0986" y2="-330.8994" gradientTransform="matrix(1 0 0 -1 -256 -245)">
			<stop  offset="0" style="stop-color:#98B2BF"/>
			<stop  offset="1" style="stop-color:#B7CAD5"/>
		</linearGradient>
		<polygon class="st17" points="33,91 33,92.3 13.4,80.8 13.4,79.5 		"/>
		
			<linearGradient id="SVGID_18_" gradientUnits="userSpaceOnUse" x1="289.8496" y1="-337.291" x2="289.8496" y2="-335.147" gradientTransform="matrix(1 0 0 -1 -256 -245)">
			<stop  offset="0" style="stop-color:#98B2BF"/>
			<stop  offset="1" style="stop-color:#B7CAD5"/>
		</linearGradient>
		<polygon class="st18" points="33,92.3 34.6,91.3 34.6,90.2 33,91 		"/>
		
			<linearGradient id="SVGID_19_" gradientUnits="userSpaceOnUse" x1="269.498" y1="-329.0996" x2="289.0986" y2="-329.0996" gradientTransform="matrix(1 0 0 -1 -256 -245)">
			<stop  offset="0" style="stop-color:#98B2BF"/>
			<stop  offset="1" style="stop-color:#B7CAD5"/>
		</linearGradient>
		<polygon class="st19" points="33,89.3 33,90.4 13.4,78.9 13.4,77.8 		"/>
		
			<linearGradient id="SVGID_20_" gradientUnits="userSpaceOnUse" x1="289.8496" y1="-335.4697" x2="289.8496" y2="-333.3218" gradientTransform="matrix(1 0 0 -1 -256 -245)">
			<stop  offset="0" style="stop-color:#98B2BF"/>
			<stop  offset="1" style="stop-color:#B7CAD5"/>
		</linearGradient>
		<polygon class="st20" points="33,90.4 34.6,89.5 34.6,88.3 33,89.3 		"/>
		
			<linearGradient id="SVGID_21_" gradientUnits="userSpaceOnUse" x1="269.498" y1="-327.2998" x2="289.0986" y2="-327.2998" gradientTransform="matrix(1 0 0 -1 -256 -245)">
			<stop  offset="0" style="stop-color:#98B2BF"/>
			<stop  offset="1" style="stop-color:#B7CAD5"/>
		</linearGradient>
		<polygon class="st21" points="33,87.4 33,88.7 13.4,77.2 13.4,75.9 		"/>
		
			<linearGradient id="SVGID_22_" gradientUnits="userSpaceOnUse" x1="289.8496" y1="-333.647" x2="289.8496" y2="-331.499" gradientTransform="matrix(1 0 0 -1 -256 -245)">
			<stop  offset="0" style="stop-color:#98B2BF"/>
			<stop  offset="1" style="stop-color:#B7CAD5"/>
		</linearGradient>
		<polygon class="st22" points="33,88.7 34.6,87.8 34.6,86.5 33,87.4 		"/>
		
			<linearGradient id="SVGID_23_" gradientUnits="userSpaceOnUse" x1="269.498" y1="-325.4492" x2="289.0986" y2="-325.4492" gradientTransform="matrix(1 0 0 -1 -256 -245)">
			<stop  offset="0" style="stop-color:#98B2BF"/>
			<stop  offset="1" style="stop-color:#B7CAD5"/>
		</linearGradient>
		<polygon class="st23" points="33,85.7 33,86.8 13.4,75.3 13.4,74 14.5,74.7 		"/>
		
			<linearGradient id="SVGID_24_" gradientUnits="userSpaceOnUse" x1="289.8496" y1="-331.8257" x2="289.8496" y2="-329.6781" gradientTransform="matrix(1 0 0 -1 -256 -245)">
			<stop  offset="0" style="stop-color:#98B2BF"/>
			<stop  offset="1" style="stop-color:#B7CAD5"/>
		</linearGradient>
		<polygon class="st24" points="33,86.8 34.6,85.8 34.6,84.7 33,85.7 		"/>
		
			<linearGradient id="SVGID_25_" gradientUnits="userSpaceOnUse" x1="270" y1="-320.2832" x2="270" y2="-319.0732" gradientTransform="matrix(1 0 0 -1 -256 -245)">
			<stop  offset="0" style="stop-color:#3D4F5A"/>
			<stop  offset="1" style="stop-color:#607A88"/>
		</linearGradient>
		<polygon class="st25" points="14.5,74.7 13.4,75.3 13.4,74 		"/>
		
			<linearGradient id="SVGID_26_" gradientUnits="userSpaceOnUse" x1="270" y1="-322.1118" x2="270" y2="-320.9013" gradientTransform="matrix(1 0 0 -1 -256 -245)">
			<stop  offset="0" style="stop-color:#3D4F5A"/>
			<stop  offset="1" style="stop-color:#607A88"/>
		</linearGradient>
		<polygon class="st26" points="14.5,76.5 13.4,77.2 13.4,75.9 		"/>
		
			<linearGradient id="SVGID_27_" gradientUnits="userSpaceOnUse" x1="270" y1="-323.9385" x2="270" y2="-322.7285" gradientTransform="matrix(1 0 0 -1 -256 -245)">
			<stop  offset="0" style="stop-color:#3D4F5A"/>
			<stop  offset="1" style="stop-color:#607A88"/>
		</linearGradient>
		<polygon class="st27" points="14.5,78.3 13.4,78.9 13.4,77.8 		"/>
		
			<linearGradient id="SVGID_28_" gradientUnits="userSpaceOnUse" x1="270" y1="-325.7656" x2="270" y2="-324.5556" gradientTransform="matrix(1 0 0 -1 -256 -245)">
			<stop  offset="0" style="stop-color:#3D4F5A"/>
			<stop  offset="1" style="stop-color:#607A88"/>
		</linearGradient>
		<polygon class="st28" points="14.5,80.2 13.4,80.8 13.4,79.5 		"/>
		
			<linearGradient id="SVGID_29_" gradientUnits="userSpaceOnUse" x1="270" y1="-327.5928" x2="270" y2="-326.3843" gradientTransform="matrix(1 0 0 -1 -256 -245)">
			<stop  offset="0" style="stop-color:#3D4F5A"/>
			<stop  offset="1" style="stop-color:#607A88"/>
		</linearGradient>
		<polygon class="st29" points="14.5,81.9 13.4,82.5 13.4,81.3 		"/>
		
			<linearGradient id="SVGID_30_" gradientUnits="userSpaceOnUse" x1="270" y1="-329.4209" x2="270" y2="-328.2109" gradientTransform="matrix(1 0 0 -1 -256 -245)">
			<stop  offset="0" style="stop-color:#3D4F5A"/>
			<stop  offset="1" style="stop-color:#607A88"/>
		</linearGradient>
		<polygon class="st30" points="14.5,83.8 13.4,84.4 13.4,83.3 		"/>
		
			<linearGradient id="SVGID_31_" gradientUnits="userSpaceOnUse" x1="270" y1="-331.25" x2="270" y2="-330.0381" gradientTransform="matrix(1 0 0 -1 -256 -245)">
			<stop  offset="0" style="stop-color:#3D4F5A"/>
			<stop  offset="1" style="stop-color:#607A88"/>
		</linearGradient>
		<polygon class="st31" points="14.5,85.7 13.4,86.3 13.4,85 		"/>
		<g>
			
				<linearGradient id="SVGID_32_" gradientUnits="userSpaceOnUse" x1="281.0264" y1="-335.1274" x2="287.5083" y2="-335.1274" gradientTransform="matrix(1 0.589 0 -1 -256 -433.8607)">
				<stop  offset="0" style="stop-color:#3D4F5A"/>
				<stop  offset="1" style="stop-color:#607A88"/>
			</linearGradient>
			<path class="st32" d="M31.5,70.7c0,1.8-1.5,2.4-3.2,1.3c-1.8-1.1-3.2-3.4-3.2-5.1s1.5-2.4,3.2-1.3C30,66.5,31.5,68.8,31.5,70.7z"
				/>
			
				<radialGradient id="SVGID_33_" cx="49.0679" cy="-540.1538" r="3.3471" gradientTransform="matrix(0.858 0.5054 0 -0.858 -13.6576 -419.3255)" gradientUnits="userSpaceOnUse">
				<stop  offset="0" style="stop-color:#B7CAD5"/>
				<stop  offset="1" style="stop-color:#98B2BF"/>
			</radialGradient>
			<path class="st33" d="M31.3,70.7c0,1.6-1.3,2.1-2.9,1.2s-2.9-3-2.9-4.6s1.3-2.1,2.9-1.2C30,66.9,31.3,69,31.3,70.7z"/>
		</g>
		<g>
			
				<linearGradient id="SVGID_34_" gradientUnits="userSpaceOnUse" x1="283.2891" y1="-340.4863" x2="285.2441" y2="-340.4863" gradientTransform="matrix(1 0.589 0 -1 -256 -433.8607)">
				<stop  offset="0" style="stop-color:#3D4F5A"/>
				<stop  offset="1" style="stop-color:#607A88"/>
			</linearGradient>
			<path class="st34" d="M29.3,74.7c0,0.5-0.4,0.7-1,0.4c-0.5-0.3-1-1-1-1.6s0.4-0.7,1-0.4C28.8,73.4,29.3,74.2,29.3,74.7z"/>
			
				<radialGradient id="SVGID_35_" cx="48.9258" cy="-546.2993" r="1.0082" gradientTransform="matrix(0.858 0.5054 0 -0.858 -13.6576 -419.3255)" gradientUnits="userSpaceOnUse">
				<stop  offset="0" style="stop-color:#B7CAD5"/>
				<stop  offset="1" style="stop-color:#98B2BF"/>
			</radialGradient>
			<path class="st35" d="M29.1,74.7c0,0.5-0.4,0.6-0.9,0.4c-0.5-0.3-0.9-0.9-0.9-1.4s0.4-0.6,0.9-0.4C28.8,73.5,29.1,74.2,29.1,74.7
				z"/>
		</g>
	</g>
	<g>
		<g>
			
				<linearGradient id="SVGID_36_" gradientUnits="userSpaceOnUse" x1="300.5742" y1="-329.249" x2="314.1738" y2="-329.249" gradientTransform="matrix(1 0 0 -1 -256 -245)">
				<stop  offset="0" style="stop-color:#607A88"/>
				<stop  offset="1" style="stop-color:#3D4F5A"/>
			</linearGradient>
			<polygon class="st36" points="57.3,79 54.6,77.4 53,78.4 53,78.5 48.8,81.3 48.6,81.3 48.6,73.9 46.3,72.5 44.5,73.4 46.3,85.2 
				46.3,88 46.8,88.3 47,90.3 48.6,89.4 48.6,84.8 50.6,83.5 55.3,94.9 56.5,95.9 58.1,95 52.5,82.3 			"/>
			
				<linearGradient id="SVGID_37_" gradientUnits="userSpaceOnUse" x1="326.6855" y1="-344.9492" x2="341.7734" y2="-344.9492" gradientTransform="matrix(1 0 0 -1 -256 -245)">
				<stop  offset="0" style="stop-color:#607A88"/>
				<stop  offset="1" style="stop-color:#3D4F5A"/>
			</linearGradient>
			<path class="st37" d="M83,94.2L81.3,95l0.3,2l-1.4,3.2c-0.4,0.8-0.7,1.7-1,2.5l-0.1-0.1c-0.4-1.3-0.7-2.5-1-3.7l-2.8-9.5
				l-2.8-1.6l-1.7,0.9l1.7,1.9v12.1l-0.6,0.4l1.1,2.4l1.7-0.9v-7.7c0-0.2,0-0.3,0-0.5l3.6,10.7l1.7-0.9l2.4-5.3l1.3,7.6v1.3l0.2,0.1
				l0.4,2.1l1.7-0.9V95.8L83,94.2z M83.5,97.9l0.2-0.3l0.1,0.1c0,0.3-0.1,0.7-0.1,1.1L83.5,97.9z"/>
			
				<linearGradient id="SVGID_38_" gradientUnits="userSpaceOnUse" x1="312.1055" y1="-334.75" x2="326.3711" y2="-334.75" gradientTransform="matrix(1 0 0 -1 -256 -245)">
				<stop  offset="0" style="stop-color:#607A88"/>
				<stop  offset="1" style="stop-color:#3D4F5A"/>
			</linearGradient>
			<path class="st38" d="M66.3,86.3l0.4,1.5l0.5-0.2l-1.6,4.4c-0.5,1.5-0.9,2.8-1.4,4.2L64,96c-0.5-2.1-0.9-3.8-1.4-5.9l-2.3-9.4
				l-2.6-1.5L56,80.2l5.5,17.4l2.3,2.7l1.7-0.9l4.8-12.6l-2.5-1.5L66.3,86.3z"/>
		</g>
		<g>
			
				<linearGradient id="SVGID_39_" gradientUnits="userSpaceOnUse" x1="300.5742" y1="-329.6494" x2="312.4746" y2="-329.6494" gradientTransform="matrix(1 0 0 -1 -256 -245)">
				<stop  offset="0" style="stop-color:#F6F8F9"/>
				<stop  offset="1" style="stop-color:#9EB6C3"/>
			</linearGradient>
			<path class="st39" d="M44.5,73.4l2.4,1.4v7.3H47l5.9-3.9l2.7,1.6L50.8,83l5.6,12.8l-2.7-1.6L49.3,84L47,85.8v4.7l-2.5-1.5V73.4z"
				/>
			
				<linearGradient id="SVGID_40_" gradientUnits="userSpaceOnUse" x1="312.1055" y1="-335.2998" x2="324.6875" y2="-335.2998" gradientTransform="matrix(1 0 0 -1 -256 -245)">
				<stop  offset="0" style="stop-color:#F6F8F9"/>
				<stop  offset="1" style="stop-color:#9EB6C3"/>
			</linearGradient>
			<path class="st40" d="M56.1,80.3l2.6,1.5l2.3,9.4c0.5,2.1,0.9,3.8,1.4,5.9l0.1,0.1c0.5-1.5,0.9-2.8,1.4-4.2l2.3-6.7l2.5,1.5
				L64,100.3L61,98.7L56.1,80.3z"/>
			
				<linearGradient id="SVGID_41_" gradientUnits="userSpaceOnUse" x1="326.6855" y1="-345.5498" x2="340.088" y2="-345.5498" gradientTransform="matrix(1 0 0 -1 -256 -245)">
				<stop  offset="0" style="stop-color:#F6F8F9"/>
				<stop  offset="1" style="stop-color:#9EB6C3"/>
			</linearGradient>
			<path class="st41" d="M70.6,88.8l2.8,1.6l2.8,9.5c0.4,1.2,0.7,2.5,1,3.7l0.1,0.1c0.4-0.8,0.7-1.7,1-2.5l2.8-6.2l2.8,1.7v15.5
				l-2.3-1.3v-7.7c0-1.4,0.2-3.3,0.3-4.6l-0.1-0.1l-1.2,2.8l-2.7,5.8l-1.4-0.8l-2.7-9L72.6,93h-0.1c0.1,1.5,0.3,3.6,0.3,5v7.7
				l-2.2-1.3V88.8z"/>
		</g>
	</g>
</g>
</svg>
