<?xml version="1.0" encoding="utf-8"?>
<!-- Generator: Adobe Illustrator 16.0.0, SVG Export Plug-In . SVG Version: 6.00 Build 0)  -->
<!DOCTYPE svg PUBLIC "-//W3C//DTD SVG 1.1//EN" "http://www.w3.org/Graphics/SVG/1.1/DTD/svg11.dtd">
<svg version="1.1" id="图层_1" xmlns="http://www.w3.org/2000/svg" xmlns:xlink="http://www.w3.org/1999/xlink" x="0px" y="0px"
	 width="100px" height="130px" viewBox="0 -15 100 130" style="enable-background:new 0 -15 100 130;" xml:space="preserve">
<style type="text/css">
<![CDATA[
	.st0{fill:url(#SVGID_1_);}
	.st1{fill:url(#SVGID_2_);}
	.st2{fill:url(#SVGID_3_);}
	.st3{fill:url(#SVGID_4_);}
	.st4{fill:url(#SVGID_5_);}
	.st5{fill:url(#SVGID_6_);}
	.st6{fill:url(#SVGID_7_);}
	.st7{fill:url(#SVGID_8_);}
	.st8{fill:url(#SVGID_9_);}
	.st9{fill:#FFFFFF;}
	.st10{fill:#6D8D9D;}
	.st11{fill:url(#SVGID_10_);}
	.st12{fill:url(#SVGID_11_);}
	.st13{fill:url(#SVGID_12_);}
	.st14{fill:url(#SVGID_13_);}
	.st15{fill:url(#SVGID_14_);}
	.st16{fill:url(#SVGID_15_);}
	.st17{fill:url(#SVGID_16_);}
	.st18{fill:url(#SVGID_17_);}
	.st19{fill:url(#SVGID_18_);}
	.st20{fill:url(#SVGID_19_);}
	.st21{fill:url(#SVGID_20_);}
	.st22{fill:url(#SVGID_21_);}
	.st23{fill:url(#SVGID_22_);}
	.st24{fill:url(#SVGID_23_);}
	.st25{fill:url(#SVGID_24_);}
	.st26{fill:url(#SVGID_25_);}
	.st27{fill:url(#SVGID_26_);}
	.st28{fill:url(#SVGID_27_);}
	.st29{fill:url(#SVGID_28_);}
	.st30{fill:url(#SVGID_29_);}
	.st31{fill:url(#SVGID_30_);}
	.st32{fill:url(#SVGID_31_);}
	.st33{fill:url(#SVGID_32_);}
	.st34{fill:url(#SVGID_33_);}
	.st35{fill:url(#SVGID_34_);}
	.st36{fill:url(#SVGID_35_);}
	.st37{fill:url(#SVGID_36_);}
	.st38{fill:url(#SVGID_37_);}
	.st39{fill:url(#SVGID_38_);}
	.st40{fill:url(#SVGID_39_);}
	.st41{fill:url(#SVGID_40_);}
	.st42{fill:url(#SVGID_41_);}
	.st43{fill:url(#SVGID_42_);}
	.st44{fill:url(#SVGID_43_);}
	.st45{fill:url(#SVGID_44_);}
	.st46{fill:url(#SVGID_45_);}
	.st47{fill:url(#SVGID_46_);}
]]>
</style>
<g>
	<g>
		<g>
			<g>
				<polygon class="st10" points="33.1,104.7 7.9,89.8 7.9,18.8 33.1,33.7 				"/>
				
					<linearGradient id="SVGID_1_" gradientUnits="userSpaceOnUse" x1="292.4023" y1="-280.5791" x2="322.0386" y2="-229.2477" gradientTransform="matrix(1 0 0 -1 -256 -245)">
					<stop  offset="0" style="stop-color:#98B2BF"/>
					<stop  offset="1" style="stop-color:#B7CAD5"/>
				</linearGradient>
				<polygon class="st0" points="7.9,18.8 69.3,-13.9 94.5,1.1 33.1,33.7 				"/>
				
					<linearGradient id="SVGID_2_" gradientUnits="userSpaceOnUse" x1="319.8496" y1="-349.7002" x2="319.8496" y2="-246.1001" gradientTransform="matrix(1 0 0 -1 -256 -245)">
					<stop  offset="0" style="stop-color:#3D4F5A"/>
					<stop  offset="1" style="stop-color:#607A88"/>
				</linearGradient>
				<polygon class="st1" points="33.1,104.7 94.5,72.1 94.5,1.1 33.1,33.7 				"/>
			</g>
			<polygon class="st10" points="30.9,106.1 5.5,91.2 5.5,20.2 30.9,35.1 			"/>
			
				<linearGradient id="SVGID_3_" gradientUnits="userSpaceOnUse" x1="265.1113" y1="-279.5" x2="283.1718" y2="-279.5" gradientTransform="matrix(1 0 0 -1 -256 -245)">
				<stop  offset="0" style="stop-color:#C7D6DE"/>
				<stop  offset="1" style="stop-color:#97B1BE"/>
			</linearGradient>
			<polygon class="st2" points="27.1,44 9.1,33.3 9.1,25 27.1,35.6 			"/>
			
				<linearGradient id="SVGID_4_" gradientUnits="userSpaceOnUse" x1="265.6113" y1="-278" x2="282.6699" y2="-278" gradientTransform="matrix(1 0 0 -1 -256 -245)">
				<stop  offset="0" style="stop-color:#607A88"/>
				<stop  offset="1" style="stop-color:#3D4F5A"/>
			</linearGradient>
			<polygon class="st3" points="26.6,38.9 9.6,28.9 9.6,27.1 26.6,37.1 			"/>
			
				<linearGradient id="SVGID_5_" gradientUnits="userSpaceOnUse" x1="274.4385" y1="-272.999" x2="275.368" y2="-271.3889" gradientTransform="matrix(1 0 0 -1 -256 -245)">
				<stop  offset="0" style="stop-color:#98B2BF"/>
				<stop  offset="1" style="stop-color:#B7CAD5"/>
			</linearGradient>
			<polygon class="st4" points="5.5,20.2 7,19.3 32.4,34.2 30.9,35.1 			"/>
			
				<linearGradient id="SVGID_6_" gradientUnits="userSpaceOnUse" x1="287.6006" y1="-351.0996" x2="287.6006" y2="-279.2002" gradientTransform="matrix(1 0 0 -1 -256 -245)">
				<stop  offset="0" style="stop-color:#3D4F5A"/>
				<stop  offset="1" style="stop-color:#607A88"/>
			</linearGradient>
			<polygon class="st5" points="30.9,106.1 32.4,105.2 32.4,34.2 30.9,35.1 			"/>
			<g>
				<g>
					<g>
						
							<linearGradient id="SVGID_7_" gradientUnits="userSpaceOnUse" x1="261.4502" y1="-287.2002" x2="286.7837" y2="-287.2002" gradientTransform="matrix(1 0 0 -1 -256 -245)">
							<stop  offset="0" style="stop-color:#98B2BF"/>
							<stop  offset="1" style="stop-color:#B7CAD5"/>
						</linearGradient>
						<polygon class="st6" points="30.9,50.7 5.5,35.8 5.5,33.7 30.9,48.6 						"/>
					</g>
					
						<linearGradient id="SVGID_8_" gradientUnits="userSpaceOnUse" x1="287.6006" y1="-295.7002" x2="287.6006" y2="-292.6924" gradientTransform="matrix(1 0 0 -1 -256 -245)">
						<stop  offset="0" style="stop-color:#98B2BF"/>
						<stop  offset="1" style="stop-color:#B7CAD5"/>
					</linearGradient>
					<polygon class="st7" points="30.9,50.7 32.4,49.8 32.4,47.7 30.9,48.6 					"/>
				</g>
			</g>
			<g>
				<g>
					<g>
						
							<linearGradient id="SVGID_9_" gradientUnits="userSpaceOnUse" x1="261.4502" y1="-290" x2="286.7837" y2="-290" gradientTransform="matrix(1 0 0 -1 -256 -245)">
							<stop  offset="0" style="stop-color:#98B2BF"/>
							<stop  offset="1" style="stop-color:#B7CAD5"/>
						</linearGradient>
						<polygon class="st8" points="30.9,53.5 5.5,38.6 5.5,36.5 30.9,51.4 						"/>
					</g>
					
						<linearGradient id="SVGID_10_" gradientUnits="userSpaceOnUse" x1="287.6006" y1="-298.4902" x2="287.6006" y2="-295.4824" gradientTransform="matrix(1 0 0 -1 -256 -245)">
						<stop  offset="0" style="stop-color:#98B2BF"/>
						<stop  offset="1" style="stop-color:#B7CAD5"/>
					</linearGradient>
					<polygon class="st11" points="30.9,53.5 32.4,52.6 32.4,50.5 30.9,51.4 					"/>
				</g>
			</g>
			
				<linearGradient id="SVGID_11_" gradientUnits="userSpaceOnUse" x1="267.1992" y1="-336.6001" x2="286.8047" y2="-336.6001" gradientTransform="matrix(1 0 0 -1 -256 -245)">
				<stop  offset="0" style="stop-color:#98B2BF"/>
				<stop  offset="1" style="stop-color:#B7CAD5"/>
			</linearGradient>
			<polygon class="st12" points="30.9,96.7 30.9,98 11.1,86.4 11.1,85.2 			"/>
			
				<linearGradient id="SVGID_12_" gradientUnits="userSpaceOnUse" x1="287.6006" y1="-342.959" x2="287.6006" y2="-340.8086" gradientTransform="matrix(1 0 0 -1 -256 -245)">
				<stop  offset="0" style="stop-color:#98B2BF"/>
				<stop  offset="1" style="stop-color:#B7CAD5"/>
			</linearGradient>
			<polygon class="st13" points="30.9,98 32.4,97 32.4,95.8 30.9,96.7 			"/>
			
				<linearGradient id="SVGID_13_" gradientUnits="userSpaceOnUse" x1="267.1992" y1="-334.75" x2="286.8047" y2="-334.75" gradientTransform="matrix(1 0 0 -1 -256 -245)">
				<stop  offset="0" style="stop-color:#98B2BF"/>
				<stop  offset="1" style="stop-color:#B7CAD5"/>
			</linearGradient>
			<polygon class="st14" points="30.9,94.9 30.9,96.1 11.1,84.6 11.1,83.4 			"/>
			
				<linearGradient id="SVGID_14_" gradientUnits="userSpaceOnUse" x1="287.6006" y1="-341.1343" x2="287.6006" y2="-338.9863" gradientTransform="matrix(1 0 0 -1 -256 -245)">
				<stop  offset="0" style="stop-color:#98B2BF"/>
				<stop  offset="1" style="stop-color:#B7CAD5"/>
			</linearGradient>
			<polygon class="st15" points="30.9,96.1 32.4,95.2 32.4,94 30.9,94.9 			"/>
			
				<linearGradient id="SVGID_15_" gradientUnits="userSpaceOnUse" x1="267.1992" y1="-332.9497" x2="286.8047" y2="-332.9497" gradientTransform="matrix(1 0 0 -1 -256 -245)">
				<stop  offset="0" style="stop-color:#98B2BF"/>
				<stop  offset="1" style="stop-color:#B7CAD5"/>
			</linearGradient>
			<polygon class="st16" points="30.9,93.1 30.9,94.3 11.1,82.8 11.1,81.6 			"/>
			
				<linearGradient id="SVGID_16_" gradientUnits="userSpaceOnUse" x1="287.6006" y1="-339.3105" x2="287.6006" y2="-337.1602" gradientTransform="matrix(1 0 0 -1 -256 -245)">
				<stop  offset="0" style="stop-color:#98B2BF"/>
				<stop  offset="1" style="stop-color:#B7CAD5"/>
			</linearGradient>
			<polygon class="st17" points="30.9,94.3 32.4,93.4 32.4,92.2 30.9,93.1 			"/>
			
				<linearGradient id="SVGID_17_" gradientUnits="userSpaceOnUse" x1="267.1992" y1="-331.1001" x2="286.8047" y2="-331.1001" gradientTransform="matrix(1 0 0 -1 -256 -245)">
				<stop  offset="0" style="stop-color:#98B2BF"/>
				<stop  offset="1" style="stop-color:#B7CAD5"/>
			</linearGradient>
			<polygon class="st18" points="30.9,91.3 30.9,92.5 11.1,80.9 11.1,79.7 			"/>
			
				<linearGradient id="SVGID_18_" gradientUnits="userSpaceOnUse" x1="287.6006" y1="-337.4863" x2="287.6006" y2="-335.3379" gradientTransform="matrix(1 0 0 -1 -256 -245)">
				<stop  offset="0" style="stop-color:#98B2BF"/>
				<stop  offset="1" style="stop-color:#B7CAD5"/>
			</linearGradient>
			<polygon class="st19" points="30.9,92.5 32.4,91.6 32.4,90.3 30.9,91.3 			"/>
			
				<linearGradient id="SVGID_19_" gradientUnits="userSpaceOnUse" x1="267.1992" y1="-329.3003" x2="286.8047" y2="-329.3003" gradientTransform="matrix(1 0 0 -1 -256 -245)">
				<stop  offset="0" style="stop-color:#98B2BF"/>
				<stop  offset="1" style="stop-color:#B7CAD5"/>
			</linearGradient>
			<polygon class="st20" points="30.9,89.5 30.9,90.7 11.1,79.1 11.1,77.9 			"/>
			
				<linearGradient id="SVGID_20_" gradientUnits="userSpaceOnUse" x1="287.6006" y1="-335.6621" x2="287.6006" y2="-333.5117" gradientTransform="matrix(1 0 0 -1 -256 -245)">
				<stop  offset="0" style="stop-color:#98B2BF"/>
				<stop  offset="1" style="stop-color:#B7CAD5"/>
			</linearGradient>
			<polygon class="st21" points="30.9,90.7 32.4,89.7 32.4,88.5 30.9,89.4 			"/>
			
				<linearGradient id="SVGID_21_" gradientUnits="userSpaceOnUse" x1="267.1992" y1="-327.4497" x2="286.8047" y2="-327.4497" gradientTransform="matrix(1 0 0 -1 -256 -245)">
				<stop  offset="0" style="stop-color:#98B2BF"/>
				<stop  offset="1" style="stop-color:#B7CAD5"/>
			</linearGradient>
			<polygon class="st22" points="30.9,87.6 30.9,88.8 11.1,77.3 11.1,76.1 			"/>
			
				<linearGradient id="SVGID_22_" gradientUnits="userSpaceOnUse" x1="287.6006" y1="-333.8379" x2="287.6006" y2="-331.6895" gradientTransform="matrix(1 0 0 -1 -256 -245)">
				<stop  offset="0" style="stop-color:#98B2BF"/>
				<stop  offset="1" style="stop-color:#B7CAD5"/>
			</linearGradient>
			<polygon class="st23" points="30.9,88.8 32.4,87.9 32.4,86.7 30.9,87.6 			"/>
			
				<linearGradient id="SVGID_23_" gradientUnits="userSpaceOnUse" x1="267.1992" y1="-325.6499" x2="286.8047" y2="-325.6499" gradientTransform="matrix(1 0 0 -1 -256 -245)">
				<stop  offset="0" style="stop-color:#98B2BF"/>
				<stop  offset="1" style="stop-color:#B7CAD5"/>
			</linearGradient>
			<polygon class="st24" points="30.9,85.8 30.9,87 11.1,75.5 11.1,74.3 12.3,74.9 			"/>
			
				<linearGradient id="SVGID_24_" gradientUnits="userSpaceOnUse" x1="287.6006" y1="-332.0137" x2="287.6006" y2="-329.8638" gradientTransform="matrix(1 0 0 -1 -256 -245)">
				<stop  offset="0" style="stop-color:#98B2BF"/>
				<stop  offset="1" style="stop-color:#B7CAD5"/>
			</linearGradient>
			<polygon class="st25" points="30.9,87 32.4,86.1 32.4,84.9 30.9,85.8 			"/>
			
				<linearGradient id="SVGID_25_" gradientUnits="userSpaceOnUse" x1="267.7002" y1="-320.4629" x2="267.7002" y2="-319.252" gradientTransform="matrix(1 0 0 -1 -256 -245)">
				<stop  offset="0" style="stop-color:#3D4F5A"/>
				<stop  offset="1" style="stop-color:#607A88"/>
			</linearGradient>
			<polygon class="st26" points="12.3,74.9 11.1,75.5 11.1,74.3 			"/>
			
				<linearGradient id="SVGID_26_" gradientUnits="userSpaceOnUse" x1="267.7002" y1="-322.291" x2="267.7002" y2="-321.0796" gradientTransform="matrix(1 0 0 -1 -256 -245)">
				<stop  offset="0" style="stop-color:#3D4F5A"/>
				<stop  offset="1" style="stop-color:#607A88"/>
			</linearGradient>
			<polygon class="st27" points="12.3,76.7 11.1,77.3 11.1,76.1 			"/>
			
				<linearGradient id="SVGID_27_" gradientUnits="userSpaceOnUse" x1="267.7002" y1="-324.1206" x2="267.7002" y2="-322.9107" gradientTransform="matrix(1 0 0 -1 -256 -245)">
				<stop  offset="0" style="stop-color:#3D4F5A"/>
				<stop  offset="1" style="stop-color:#607A88"/>
			</linearGradient>
			<polygon class="st28" points="12.3,78.5 11.1,79.1 11.1,77.9 			"/>
			
				<linearGradient id="SVGID_28_" gradientUnits="userSpaceOnUse" x1="267.7002" y1="-325.9497" x2="267.7002" y2="-324.7383" gradientTransform="matrix(1 0 0 -1 -256 -245)">
				<stop  offset="0" style="stop-color:#3D4F5A"/>
				<stop  offset="1" style="stop-color:#607A88"/>
			</linearGradient>
			<polygon class="st29" points="12.3,80.3 11.1,80.9 11.1,79.7 			"/>
			
				<linearGradient id="SVGID_29_" gradientUnits="userSpaceOnUse" x1="267.7002" y1="-327.7793" x2="267.7002" y2="-326.5679" gradientTransform="matrix(1 0 0 -1 -256 -245)">
				<stop  offset="0" style="stop-color:#3D4F5A"/>
				<stop  offset="1" style="stop-color:#607A88"/>
			</linearGradient>
			<polygon class="st30" points="12.3,82.2 11.1,82.8 11.1,81.6 			"/>
			
				<linearGradient id="SVGID_30_" gradientUnits="userSpaceOnUse" x1="267.7002" y1="-329.6069" x2="267.7002" y2="-328.397" gradientTransform="matrix(1 0 0 -1 -256 -245)">
				<stop  offset="0" style="stop-color:#3D4F5A"/>
				<stop  offset="1" style="stop-color:#607A88"/>
			</linearGradient>
			<polygon class="st31" points="12.3,84 11.1,84.6 11.1,83.4 			"/>
			
				<linearGradient id="SVGID_31_" gradientUnits="userSpaceOnUse" x1="267.7002" y1="-331.438" x2="267.7002" y2="-330.2266" gradientTransform="matrix(1 0 0 -1 -256 -245)">
				<stop  offset="0" style="stop-color:#3D4F5A"/>
				<stop  offset="1" style="stop-color:#607A88"/>
			</linearGradient>
			<polygon class="st32" points="12.3,85.8 11.1,86.4 11.1,85.2 			"/>
			<g>
				
					<linearGradient id="SVGID_32_" gradientUnits="userSpaceOnUse" x1="278.7363" y1="-336.6626" x2="285.2246" y2="-336.6626" gradientTransform="matrix(1 0.589 0 -1 -256 -433.8607)">
					<stop  offset="0" style="stop-color:#3D4F5A"/>
					<stop  offset="1" style="stop-color:#607A88"/>
				</linearGradient>
				<path class="st33" d="M29.3,70.8c0,1.8-1.5,2.4-3.2,1.3c-1.7-1.1-3.3-3.3-3.3-5.1s1.5-2.4,3.2-1.3C27.8,66.7,29.3,69,29.3,70.8z
					"/>
				
					<radialGradient id="SVGID_33_" cx="282.1563" cy="-336.7749" r="2.8762" gradientTransform="matrix(1 0.589 0 -1 -256 -433.8607)" gradientUnits="userSpaceOnUse">
					<stop  offset="0" style="stop-color:#B7CAD5"/>
					<stop  offset="1" style="stop-color:#98B2BF"/>
				</radialGradient>
				<path class="st34" d="M29,70.8c0,1.6-1.3,2.1-2.9,1.2s-2.9-3-2.9-4.6c0-1.6,1.3-2.1,2.9-1.2C27.8,67.2,29,69.2,29,70.8z"/>
			</g>
			<g>
				
					<linearGradient id="SVGID_34_" gradientUnits="userSpaceOnUse" x1="281.0029" y1="-341.9941" x2="282.959" y2="-341.9941" gradientTransform="matrix(1 0.589 0 -1 -256 -433.8607)">
					<stop  offset="0" style="stop-color:#3D4F5A"/>
					<stop  offset="1" style="stop-color:#607A88"/>
				</linearGradient>
				<path class="st35" d="M27,74.8c0,0.5-0.4,0.7-1,0.4c-0.6-0.3-1-1-1-1.6c0-0.5,0.4-0.7,1-0.4C26.5,73.6,27,74.3,27,74.8z"/>
				
					<radialGradient id="SVGID_35_" cx="282.0352" cy="-342.0474" r="0.8658" gradientTransform="matrix(1 0.589 0 -1 -256 -433.8607)" gradientUnits="userSpaceOnUse">
					<stop  offset="0" style="stop-color:#B7CAD5"/>
					<stop  offset="1" style="stop-color:#98B2BF"/>
				</radialGradient>
				<path class="st36" d="M27,74.8c0,0.5-0.4,0.6-0.9,0.4c-0.5-0.3-0.9-0.9-0.9-1.4s0.4-0.6,0.9-0.4C26.5,73.7,27,74.3,27,74.8z"/>
			</g>
		</g>
		<g>
			<g>
				
					<linearGradient id="SVGID_36_" gradientUnits="userSpaceOnUse" x1="315.3799" y1="-355.6001" x2="341.8916" y2="-355.6001" gradientTransform="matrix(1 0 0 -1 -256 -245)">
					<stop  offset="0" style="stop-color:#3D4F5A"/>
					<stop  offset="0.5" style="stop-color:#607A88"/>
					<stop  offset="1" style="stop-color:#3D4F5A"/>
				</linearGradient>
				<path class="st37" d="M85.8,106.2v1c0,4.3-5.9,7.8-13.3,7.8c-7.3,0-13.3-3.5-13.3-7.8v-1c0,4.3,5.9,7.8,13.3,7.8
					C80,114,85.8,110.5,85.8,106.2z"/>
				
					<linearGradient id="SVGID_37_" gradientUnits="userSpaceOnUse" x1="315.3818" y1="-351.2002" x2="341.8916" y2="-351.2002" gradientTransform="matrix(1 0 0 -1 -256 -245)">
					<stop  offset="0" style="stop-color:#86A2B1"/>
					<stop  offset="0.5" style="stop-color:#A9BFCB"/>
					<stop  offset="1" style="stop-color:#86A2B1"/>
				</linearGradient>
				<path class="st38" d="M85.8,106.2c0,4.3-5.9,7.8-13.3,7.8c-7.4,0-13.3-3.5-13.3-7.8s5.9-7.8,13.3-7.8
					C80,98.4,85.8,101.8,85.8,106.2z"/>
			</g>
			
				<linearGradient id="SVGID_38_" gradientUnits="userSpaceOnUse" x1="326.4932" y1="-421.083" x2="334.5928" y2="-421.083" gradientTransform="matrix(1 0.589 0 -1 -256 -512.683)">
				<stop  offset="0" style="stop-color:#3D4F5A"/>
				<stop  offset="0.5" style="stop-color:#607A88"/>
				<stop  offset="1" style="stop-color:#3D4F5A"/>
			</linearGradient>
			<polygon class="st39" points="78.5,108.4 70.5,103.6 70.5,97.8 78.5,102.5 			"/>
			
				<linearGradient id="SVGID_39_" gradientUnits="userSpaceOnUse" x1="323.1504" y1="-424.7617" x2="331.25" y2="-424.7617" gradientTransform="matrix(1 0.589 0 -1 -256 -512.683)">
				<stop  offset="0" style="stop-color:#3D4F5A"/>
				<stop  offset="1" style="stop-color:#607A88"/>
			</linearGradient>
			<polygon class="st40" points="75.3,110.1 67.2,105.3 67.2,99.5 75.3,104.3 			"/>
			
				<linearGradient id="SVGID_40_" gradientUnits="userSpaceOnUse" x1="331.25" y1="-351.0498" x2="334.6016" y2="-351.0498" gradientTransform="matrix(1 0 0 -1 -256 -245)">
				<stop  offset="0" style="stop-color:#3D4F5A"/>
				<stop  offset="0.9926" style="stop-color:#607A88"/>
			</linearGradient>
			<polygon class="st41" points="78.5,108.4 75.3,110.1 75.3,102 78.5,106 			"/>
		</g>
		
			<linearGradient id="SVGID_41_" gradientUnits="userSpaceOnUse" x1="308.5498" y1="-405.8281" x2="350.5498" y2="-405.8281" gradientTransform="matrix(1 0.589 0 -1 -256 -512.683)">
			<stop  offset="0" style="stop-color:#7B9AA9"/>
			<stop  offset="0.5" style="stop-color:#C4D3DB"/>
			<stop  offset="1" style="stop-color:#7B9AA9"/>
		</linearGradient>
		<polygon class="st42" points="94.5,114 52.5,89.1 52.5,60.5 94.5,85.4 		"/>
		
			<linearGradient id="SVGID_42_" gradientUnits="userSpaceOnUse" x1="336.8945" y1="-427.6616" x2="318.5446" y2="-388.0545" gradientTransform="matrix(1 0.589 0 -1 -256 -512.683)">
			<stop  offset="0" style="stop-color:#7B9AA9"/>
			<stop  offset="0.35" style="stop-color:#C4D3DB"/>
			<stop  offset="1" style="stop-color:#7B9AA9"/>
		</linearGradient>
		<polygon class="st43" points="92.8,114.9 50.7,90 50.7,61.5 92.8,86.3 		"/>
		
			<linearGradient id="SVGID_43_" gradientUnits="userSpaceOnUse" x1="344.2793" y1="-361.5273" x2="322.0928" y2="-300.5703" gradientTransform="matrix(1 0 0 -1 -256 -245)">
			<stop  offset="0" style="stop-color:#7B9AA9"/>
			<stop  offset="0.35" style="stop-color:#C4D3DB"/>
			<stop  offset="1" style="stop-color:#7B9AA9"/>
		</linearGradient>
		<polygon class="st44" points="94.5,114 92.8,114.9 92.8,86.3 50.7,61.5 52.5,60.5 94.5,85.4 		"/>
		
			<linearGradient id="SVGID_44_" gradientUnits="userSpaceOnUse" x1="343.0957" y1="-359.1094" x2="312.9597" y2="-306.9121" gradientTransform="matrix(1 0 0 -1 -256 -245)">
			<stop  offset="0" style="stop-color:#32414A"/>
			<stop  offset="0.35" style="stop-color:#607A88"/>
			<stop  offset="1" style="stop-color:#32414A"/>
		</linearGradient>
		<polygon class="st45" points="52.7,64.4 53.3,65.4 53.3,89.2 90,111 90.8,112 90.8,86.9 		"/>
		<g>
			
				<linearGradient id="SVGID_45_" gradientUnits="userSpaceOnUse" x1="308.6504" y1="-345.6001" x2="346.75" y2="-345.6001" gradientTransform="matrix(1 0 0 -1 -256 -245)">
				<stop  offset="0" style="stop-color:#32414A"/>
				<stop  offset="1" style="stop-color:#607A88"/>
			</linearGradient>
			<polygon class="st46" points="90.8,112 90.8,111.4 53.3,89.2 52.7,89.4 			"/>
			
				<linearGradient id="SVGID_46_" gradientUnits="userSpaceOnUse" x1="309" y1="-334.4282" x2="309" y2="-309.3794" gradientTransform="matrix(1 0 0 -1 -256 -245)">
				<stop  offset="0" style="stop-color:#32414A"/>
				<stop  offset="1" style="stop-color:#607A88"/>
			</linearGradient>
			<polygon class="st47" points="53.3,64.8 52.7,64.4 52.7,89.4 53.3,89.2 			"/>
		</g>
	</g>
	<path class="st9" d="M71.7,89.4l9.2-3.2L62.5,75.3L71.7,89.4z M61.7,88.8c0,0.4,0.3,0.8,0.6,1l18.9,11.1c0.3,0.2,0.6,0.1,0.6-0.3
		V87.4l-5.9,2l4.6,9l-5.7-8.6l-3.1,1.1l-3.2-4.8L62.8,88l4.7-3.6l-5.8-8.8V88.8L61.7,88.8z"/>
</g>
</svg>
