<?xml version="1.0" encoding="utf-8"?>
<!-- Generator: Adobe Illustrator 16.0.0, SVG Export Plug-In . SVG Version: 6.00 Build 0)  -->
<!DOCTYPE svg PUBLIC "-//W3C//DTD SVG 1.1//EN" "http://www.w3.org/Graphics/SVG/1.1/DTD/svg11.dtd">
<svg version="1.1" id="图层_1" xmlns="http://www.w3.org/2000/svg" xmlns:xlink="http://www.w3.org/1999/xlink" x="0px" y="0px"
	 width="100px" height="130px" viewBox="0 -15 100 130" style="enable-background:new 0 -15 100 130;" xml:space="preserve">
<style type="text/css">
<![CDATA[
	.st0{fill:url(#SVGID_1_);}
	.st1{fill:url(#SVGID_2_);}
	.st2{fill:url(#SVGID_3_);}
	.st3{fill:url(#SVGID_4_);}
	.st4{fill:url(#SVGID_5_);}
	.st5{fill:url(#SVGID_6_);}
	.st6{fill:url(#SVGID_7_);}
	.st7{fill:url(#SVGID_8_);}
	.st8{fill:url(#SVGID_9_);}
	.st9{fill:#6D8D9D;}
	.st10{fill:url(#SVGID_10_);}
	.st11{fill:url(#SVGID_11_);}
	.st12{fill:url(#SVGID_12_);}
	.st13{fill:url(#SVGID_13_);}
	.st14{fill:url(#SVGID_14_);}
	.st15{fill:url(#SVGID_15_);}
	.st16{fill:url(#SVGID_16_);}
	.st17{fill:url(#SVGID_17_);}
	.st18{fill:url(#SVGID_18_);}
	.st19{fill:url(#SVGID_19_);}
	.st20{fill:url(#SVGID_20_);}
	.st21{fill:url(#SVGID_21_);}
	.st22{fill:url(#SVGID_22_);}
	.st23{fill:url(#SVGID_23_);}
	.st24{fill:url(#SVGID_24_);}
	.st25{fill:url(#SVGID_25_);}
	.st26{fill:url(#SVGID_26_);}
	.st27{fill:url(#SVGID_27_);}
	.st28{fill:url(#SVGID_28_);}
	.st29{fill:url(#SVGID_29_);}
	.st30{fill:url(#SVGID_30_);}
	.st31{fill:url(#SVGID_31_);}
	.st32{fill:url(#SVGID_32_);}
	.st33{fill:url(#SVGID_33_);}
	.st34{fill:url(#SVGID_34_);}
	.st35{fill:url(#SVGID_35_);}
	.st36{fill:url(#SVGID_36_);}
	.st37{fill:url(#SVGID_37_);}
	.st38{fill:url(#SVGID_38_);}
	.st39{fill:url(#SVGID_39_);}
	.st40{fill:url(#SVGID_40_);}
	.st41{fill:url(#SVGID_41_);}
	.st42{fill:url(#SVGID_42_);}
	.st43{fill:url(#SVGID_43_);}
	.st44{fill:url(#SVGID_44_);}
	.st45{fill:url(#SVGID_45_);}
	.st46{fill:url(#SVGID_46_);}
]]>
</style>
<g>
	<g>
		<g>
			<g>
				<polygon class="st9" points="32.8,104.2 7.4,89.3 7.4,18.3 32.8,33.2 				"/>
				
					<linearGradient id="SVGID_1_" gradientUnits="userSpaceOnUse" x1="292.0156" y1="-280.0068" x2="321.6519" y2="-228.6754" gradientTransform="matrix(1 0 0 -1 -256 -245)">
					<stop  offset="0" style="stop-color:#98B2BF"/>
					<stop  offset="1" style="stop-color:#B7CAD5"/>
				</linearGradient>
				<polygon class="st0" points="7.4,18.3 68.9,-14.4 94.2,0.6 32.8,33.2 				"/>
				
					<linearGradient id="SVGID_2_" gradientUnits="userSpaceOnUse" x1="319.5" y1="-349.1504" x2="319.5" y2="-245.5503" gradientTransform="matrix(1 0 0 -1 -256 -245)">
					<stop  offset="0" style="stop-color:#3D4F5A"/>
					<stop  offset="1" style="stop-color:#607A88"/>
				</linearGradient>
				<polygon class="st1" points="32.8,104.2 94.2,71.5 94.2,0.6 32.8,33.2 				"/>
			</g>
			<polygon class="st9" points="30.4,105.5 5.1,90.7 5.1,19.7 30.4,34.6 			"/>
			
				<linearGradient id="SVGID_3_" gradientUnits="userSpaceOnUse" x1="264.7246" y1="-278.9502" x2="282.7861" y2="-278.9502" gradientTransform="matrix(1 0 0 -1 -256 -245)">
				<stop  offset="0" style="stop-color:#C7D6DE"/>
				<stop  offset="1" style="stop-color:#97B1BE"/>
			</linearGradient>
			<polygon class="st2" points="26.8,43.5 8.7,32.8 8.7,24.5 26.8,35.1 			"/>
			
				<linearGradient id="SVGID_4_" gradientUnits="userSpaceOnUse" x1="265.2256" y1="-277.4502" x2="282.2852" y2="-277.4502" gradientTransform="matrix(1 0 0 -1 -256 -245)">
				<stop  offset="0" style="stop-color:#607A88"/>
				<stop  offset="1" style="stop-color:#3D4F5A"/>
			</linearGradient>
			<polygon class="st3" points="26.3,38.4 9.2,28.4 9.2,26.6 26.3,36.6 			"/>
			
				<linearGradient id="SVGID_5_" gradientUnits="userSpaceOnUse" x1="274.0811" y1="-272.4629" x2="275.0107" y2="-270.8528" gradientTransform="matrix(1 0 0 -1 -256 -245)">
				<stop  offset="0" style="stop-color:#98B2BF"/>
				<stop  offset="1" style="stop-color:#B7CAD5"/>
			</linearGradient>
			<polygon class="st4" points="5.1,19.7 6.7,18.8 32,33.7 30.4,34.6 			"/>
			
				<linearGradient id="SVGID_6_" gradientUnits="userSpaceOnUse" x1="287.1992" y1="-350.5498" x2="287.1991" y2="-278.6504" gradientTransform="matrix(1 0 0 -1 -256 -245)">
				<stop  offset="0" style="stop-color:#3D4F5A"/>
				<stop  offset="1" style="stop-color:#607A88"/>
			</linearGradient>
			<polygon class="st5" points="30.4,105.5 32,104.7 32,33.7 30.4,34.6 			"/>
			<g>
				<g>
					<g>
						
							<linearGradient id="SVGID_7_" gradientUnits="userSpaceOnUse" x1="261.0996" y1="-286.6504" x2="286.4346" y2="-286.6504" gradientTransform="matrix(1 0 0 -1 -256 -245)">
							<stop  offset="0" style="stop-color:#98B2BF"/>
							<stop  offset="1" style="stop-color:#B7CAD5"/>
						</linearGradient>
						<polygon class="st6" points="30.4,50.2 5.1,35.3 5.1,33.2 30.4,48.1 						"/>
					</g>
					
						<linearGradient id="SVGID_8_" gradientUnits="userSpaceOnUse" x1="287.2002" y1="-295.1504" x2="287.2002" y2="-292.1426" gradientTransform="matrix(1 0 0 -1 -256 -245)">
						<stop  offset="0" style="stop-color:#98B2BF"/>
						<stop  offset="1" style="stop-color:#B7CAD5"/>
					</linearGradient>
					<polygon class="st7" points="30.4,50.2 32,49.3 32,47.2 30.4,48.1 					"/>
				</g>
			</g>
			<g>
				<g>
					<g>
						
							<linearGradient id="SVGID_9_" gradientUnits="userSpaceOnUse" x1="261.0996" y1="-289.4502" x2="286.4346" y2="-289.4502" gradientTransform="matrix(1 0 0 -1 -256 -245)">
							<stop  offset="0" style="stop-color:#98B2BF"/>
							<stop  offset="1" style="stop-color:#B7CAD5"/>
						</linearGradient>
						<polygon class="st8" points="30.4,53 5.1,38.1 5.1,36 30.4,50.8 						"/>
					</g>
					
						<linearGradient id="SVGID_10_" gradientUnits="userSpaceOnUse" x1="287.2002" y1="-297.9399" x2="287.2002" y2="-294.9326" gradientTransform="matrix(1 0 0 -1 -256 -245)">
						<stop  offset="0" style="stop-color:#98B2BF"/>
						<stop  offset="1" style="stop-color:#B7CAD5"/>
					</linearGradient>
					<polygon class="st10" points="30.4,53 32,52.1 32,50 30.4,50.8 					"/>
				</g>
			</g>
			
				<linearGradient id="SVGID_11_" gradientUnits="userSpaceOnUse" x1="266.7998" y1="-336.0503" x2="286.4004" y2="-336.0503" gradientTransform="matrix(1 0 0 -1 -256 -245)">
				<stop  offset="0" style="stop-color:#98B2BF"/>
				<stop  offset="1" style="stop-color:#B7CAD5"/>
			</linearGradient>
			<polygon class="st11" points="30.4,96.2 30.4,97.5 10.8,85.9 10.8,84.7 			"/>
			
				<linearGradient id="SVGID_12_" gradientUnits="userSpaceOnUse" x1="287.2002" y1="-342.4092" x2="287.2002" y2="-340.2588" gradientTransform="matrix(1 0 0 -1 -256 -245)">
				<stop  offset="0" style="stop-color:#98B2BF"/>
				<stop  offset="1" style="stop-color:#B7CAD5"/>
			</linearGradient>
			<polygon class="st12" points="30.4,97.5 32,96.5 32,95.3 30.4,96.2 			"/>
			
				<linearGradient id="SVGID_13_" gradientUnits="userSpaceOnUse" x1="266.7998" y1="-334.2002" x2="286.4004" y2="-334.2002" gradientTransform="matrix(1 0 0 -1 -256 -245)">
				<stop  offset="0" style="stop-color:#98B2BF"/>
				<stop  offset="1" style="stop-color:#B7CAD5"/>
			</linearGradient>
			<polygon class="st13" points="30.4,94.4 30.4,95.5 10.8,84 10.8,82.9 			"/>
			
				<linearGradient id="SVGID_14_" gradientUnits="userSpaceOnUse" x1="287.2002" y1="-340.5845" x2="287.2002" y2="-338.4365" gradientTransform="matrix(1 0 0 -1 -256 -245)">
				<stop  offset="0" style="stop-color:#98B2BF"/>
				<stop  offset="1" style="stop-color:#B7CAD5"/>
			</linearGradient>
			<polygon class="st14" points="30.4,95.5 32,94.7 32,93.5 30.4,94.4 			"/>
			
				<linearGradient id="SVGID_15_" gradientUnits="userSpaceOnUse" x1="266.7998" y1="-332.3999" x2="286.4004" y2="-332.3999" gradientTransform="matrix(1 0 0 -1 -256 -245)">
				<stop  offset="0" style="stop-color:#98B2BF"/>
				<stop  offset="1" style="stop-color:#B7CAD5"/>
			</linearGradient>
			<polygon class="st15" points="30.4,92.5 30.4,93.8 10.8,82.3 10.8,81 			"/>
			
				<linearGradient id="SVGID_16_" gradientUnits="userSpaceOnUse" x1="287.2002" y1="-338.7607" x2="287.2002" y2="-336.6104" gradientTransform="matrix(1 0 0 -1 -256 -245)">
				<stop  offset="0" style="stop-color:#98B2BF"/>
				<stop  offset="1" style="stop-color:#B7CAD5"/>
			</linearGradient>
			<polygon class="st16" points="30.4,93.8 32,92.9 32,91.7 30.4,92.5 			"/>
			
				<linearGradient id="SVGID_17_" gradientUnits="userSpaceOnUse" x1="266.7998" y1="-330.5503" x2="286.4004" y2="-330.5503" gradientTransform="matrix(1 0 0 -1 -256 -245)">
				<stop  offset="0" style="stop-color:#98B2BF"/>
				<stop  offset="1" style="stop-color:#B7CAD5"/>
			</linearGradient>
			<polygon class="st17" points="30.4,90.8 30.4,92 10.8,80.4 10.8,79.2 			"/>
			
				<linearGradient id="SVGID_18_" gradientUnits="userSpaceOnUse" x1="287.2002" y1="-336.9365" x2="287.2002" y2="-334.7881" gradientTransform="matrix(1 0 0 -1 -256 -245)">
				<stop  offset="0" style="stop-color:#98B2BF"/>
				<stop  offset="1" style="stop-color:#B7CAD5"/>
			</linearGradient>
			<polygon class="st18" points="30.4,92 32,91 32,89.8 30.4,90.8 			"/>
			
				<linearGradient id="SVGID_19_" gradientUnits="userSpaceOnUse" x1="266.7998" y1="-328.7505" x2="286.4004" y2="-328.7505" gradientTransform="matrix(1 0 0 -1 -256 -245)">
				<stop  offset="0" style="stop-color:#98B2BF"/>
				<stop  offset="1" style="stop-color:#B7CAD5"/>
			</linearGradient>
			<polygon class="st19" points="30.4,89 30.4,90.2 10.8,78.5 10.8,77.4 			"/>
			
				<linearGradient id="SVGID_20_" gradientUnits="userSpaceOnUse" x1="287.2002" y1="-335.1123" x2="287.2002" y2="-332.9619" gradientTransform="matrix(1 0 0 -1 -256 -245)">
				<stop  offset="0" style="stop-color:#98B2BF"/>
				<stop  offset="1" style="stop-color:#B7CAD5"/>
			</linearGradient>
			<polygon class="st20" points="30.4,90.2 32,89.2 32,88 30.4,88.9 			"/>
			
				<linearGradient id="SVGID_21_" gradientUnits="userSpaceOnUse" x1="266.7998" y1="-326.8999" x2="286.4004" y2="-326.8999" gradientTransform="matrix(1 0 0 -1 -256 -245)">
				<stop  offset="0" style="stop-color:#98B2BF"/>
				<stop  offset="1" style="stop-color:#B7CAD5"/>
			</linearGradient>
			<polygon class="st21" points="30.4,87 30.4,88.3 10.8,76.8 10.8,75.5 			"/>
			
				<linearGradient id="SVGID_22_" gradientUnits="userSpaceOnUse" x1="287.2002" y1="-333.2881" x2="287.2002" y2="-331.1397" gradientTransform="matrix(1 0 0 -1 -256 -245)">
				<stop  offset="0" style="stop-color:#98B2BF"/>
				<stop  offset="1" style="stop-color:#B7CAD5"/>
			</linearGradient>
			<polygon class="st22" points="30.4,88.3 32,87.4 32,86.2 30.4,87 			"/>
			
				<linearGradient id="SVGID_23_" gradientUnits="userSpaceOnUse" x1="266.7998" y1="-325.1001" x2="286.4004" y2="-325.1001" gradientTransform="matrix(1 0 0 -1 -256 -245)">
				<stop  offset="0" style="stop-color:#98B2BF"/>
				<stop  offset="1" style="stop-color:#B7CAD5"/>
			</linearGradient>
			<polygon class="st23" points="30.4,85.3 30.4,86.5 10.8,75 10.8,73.8 11.8,74.4 			"/>
			
				<linearGradient id="SVGID_24_" gradientUnits="userSpaceOnUse" x1="287.2002" y1="-331.4639" x2="287.2002" y2="-329.314" gradientTransform="matrix(1 0 0 -1 -256 -245)">
				<stop  offset="0" style="stop-color:#98B2BF"/>
				<stop  offset="1" style="stop-color:#B7CAD5"/>
			</linearGradient>
			<polygon class="st24" points="30.4,86.5 32,85.5 32,84.4 30.4,85.3 			"/>
			
				<linearGradient id="SVGID_25_" gradientUnits="userSpaceOnUse" x1="267.2998" y1="-319.9131" x2="267.2998" y2="-318.7022" gradientTransform="matrix(1 0 0 -1 -256 -245)">
				<stop  offset="0" style="stop-color:#3D4F5A"/>
				<stop  offset="1" style="stop-color:#607A88"/>
			</linearGradient>
			<polygon class="st25" points="11.8,74.4 10.8,75 10.8,73.8 			"/>
			
				<linearGradient id="SVGID_26_" gradientUnits="userSpaceOnUse" x1="267.2998" y1="-321.7412" x2="267.2998" y2="-320.5298" gradientTransform="matrix(1 0 0 -1 -256 -245)">
				<stop  offset="0" style="stop-color:#3D4F5A"/>
				<stop  offset="1" style="stop-color:#607A88"/>
			</linearGradient>
			<polygon class="st26" points="11.8,76.2 10.8,76.8 10.8,75.5 			"/>
			
				<linearGradient id="SVGID_27_" gradientUnits="userSpaceOnUse" x1="267.2998" y1="-323.5708" x2="267.2998" y2="-322.3609" gradientTransform="matrix(1 0 0 -1 -256 -245)">
				<stop  offset="0" style="stop-color:#3D4F5A"/>
				<stop  offset="1" style="stop-color:#607A88"/>
			</linearGradient>
			<polygon class="st27" points="11.8,78 10.8,78.5 10.8,77.4 			"/>
			
				<linearGradient id="SVGID_28_" gradientUnits="userSpaceOnUse" x1="267.2998" y1="-325.3999" x2="267.2998" y2="-324.1885" gradientTransform="matrix(1 0 0 -1 -256 -245)">
				<stop  offset="0" style="stop-color:#3D4F5A"/>
				<stop  offset="1" style="stop-color:#607A88"/>
			</linearGradient>
			<polygon class="st28" points="11.8,79.8 10.8,80.4 10.8,79.2 			"/>
			
				<linearGradient id="SVGID_29_" gradientUnits="userSpaceOnUse" x1="267.2998" y1="-327.2295" x2="267.2998" y2="-326.0181" gradientTransform="matrix(1 0 0 -1 -256 -245)">
				<stop  offset="0" style="stop-color:#3D4F5A"/>
				<stop  offset="1" style="stop-color:#607A88"/>
			</linearGradient>
			<polygon class="st29" points="11.8,81.7 10.8,82.3 10.8,81 			"/>
			
				<linearGradient id="SVGID_30_" gradientUnits="userSpaceOnUse" x1="267.2998" y1="-329.0571" x2="267.2998" y2="-327.8472" gradientTransform="matrix(1 0 0 -1 -256 -245)">
				<stop  offset="0" style="stop-color:#3D4F5A"/>
				<stop  offset="1" style="stop-color:#607A88"/>
			</linearGradient>
			<polygon class="st30" points="11.8,83.5 10.8,84 10.8,82.9 			"/>
			
				<linearGradient id="SVGID_31_" gradientUnits="userSpaceOnUse" x1="267.2998" y1="-330.8882" x2="267.2998" y2="-329.6768" gradientTransform="matrix(1 0 0 -1 -256 -245)">
				<stop  offset="0" style="stop-color:#3D4F5A"/>
				<stop  offset="1" style="stop-color:#607A88"/>
			</linearGradient>
			<polygon class="st31" points="11.8,85.3 10.8,85.9 10.8,84.7 			"/>
			<g>
				
					<linearGradient id="SVGID_32_" gradientUnits="userSpaceOnUse" x1="278.3516" y1="-336.2979" x2="284.8399" y2="-336.2979" gradientTransform="matrix(1 0.589 0 -1 -256 -433.8607)">
					<stop  offset="0" style="stop-color:#3D4F5A"/>
					<stop  offset="1" style="stop-color:#607A88"/>
				</linearGradient>
				<path class="st32" d="M28.8,70.3c0,1.8-1.5,2.4-3.2,1.3c-1.7-1.1-3.2-3.4-3.2-5.2c0-1.8,1.5-2.4,3.2-1.3
					C27.4,66.2,28.8,68.5,28.8,70.3z"/>
				
					<radialGradient id="SVGID_33_" cx="281.7705" cy="-336.4478" r="2.874" gradientTransform="matrix(1 0.589 0 -1 -256 -433.8607)" gradientUnits="userSpaceOnUse">
					<stop  offset="0" style="stop-color:#B7CAD5"/>
					<stop  offset="1" style="stop-color:#98B2BF"/>
				</radialGradient>
				<path class="st33" d="M28.6,70.3c0,1.6-1.3,2.1-2.9,1.2c-1.6-0.9-2.9-3-2.9-4.6c0-1.6,1.3-2.1,2.9-1.2
					C27.4,66.7,28.6,68.7,28.6,70.3z"/>
			</g>
			<g>
				
					<linearGradient id="SVGID_34_" gradientUnits="userSpaceOnUse" x1="280.6172" y1="-341.6504" x2="282.5732" y2="-341.6504" gradientTransform="matrix(1 0.589 0 -1 -256 -433.8607)">
					<stop  offset="0" style="stop-color:#3D4F5A"/>
					<stop  offset="1" style="stop-color:#607A88"/>
				</linearGradient>
				<path class="st34" d="M26.6,74.3c0,0.5-0.4,0.7-1,0.4c-0.6-0.3-1-1-1-1.6c0-0.5,0.4-0.7,1-0.4C26.1,73,26.6,73.8,26.6,74.3z"/>
				
					<radialGradient id="SVGID_35_" cx="281.6484" cy="-341.7241" r="0.8665" gradientTransform="matrix(1 0.589 0 -1 -256 -433.8607)" gradientUnits="userSpaceOnUse">
					<stop  offset="0" style="stop-color:#B7CAD5"/>
					<stop  offset="1" style="stop-color:#98B2BF"/>
				</radialGradient>
				<path class="st35" d="M26.5,74.3c0,0.5-0.4,0.6-0.9,0.4c-0.5-0.3-0.9-0.9-0.9-1.4s0.4-0.6,0.9-0.4
					C26.1,73.2,26.5,73.8,26.5,74.3z"/>
			</g>
		</g>
		<g>
			<g>
				
					<linearGradient id="SVGID_36_" gradientUnits="userSpaceOnUse" x1="314.9951" y1="-355.0503" x2="341.5068" y2="-355.0503" gradientTransform="matrix(1 0 0 -1 -256 -245)">
					<stop  offset="0" style="stop-color:#3D4F5A"/>
					<stop  offset="0.5" style="stop-color:#607A88"/>
					<stop  offset="1" style="stop-color:#3D4F5A"/>
				</linearGradient>
				<path class="st36" d="M85.5,105.7v1c0,4.3-5.9,7.8-13.3,7.8c-7.3,0-13.3-3.5-13.3-7.8v-1c0,4.3,5.9,7.8,13.3,7.8
					C79.6,113.5,85.5,110,85.5,105.7z"/>
				
					<linearGradient id="SVGID_37_" gradientUnits="userSpaceOnUse" x1="314.9971" y1="-350.6504" x2="341.5068" y2="-350.6504" gradientTransform="matrix(1 0 0 -1 -256 -245)">
					<stop  offset="0" style="stop-color:#86A2B1"/>
					<stop  offset="0.5" style="stop-color:#A9BFCB"/>
					<stop  offset="1" style="stop-color:#86A2B1"/>
				</linearGradient>
				<path class="st37" d="M85.5,105.7c0,4.3-5.9,7.8-13.3,7.8c-7.4,0-13.3-3.5-13.3-7.8s5.9-7.8,13.3-7.8
					C79.6,97.9,85.5,101.3,85.5,105.7z"/>
			</g>
			
				<linearGradient id="SVGID_38_" gradientUnits="userSpaceOnUse" x1="326.0996" y1="-420.7397" x2="334.1992" y2="-420.7397" gradientTransform="matrix(1 0.589 0 -1 -256 -512.683)">
				<stop  offset="0" style="stop-color:#3D4F5A"/>
				<stop  offset="0.5" style="stop-color:#607A88"/>
				<stop  offset="1" style="stop-color:#3D4F5A"/>
			</linearGradient>
			<polygon class="st38" points="78.2,107.9 70.1,103 70.1,97.3 78.2,102 			"/>
			
				<linearGradient id="SVGID_39_" gradientUnits="userSpaceOnUse" x1="322.7578" y1="-424.418" x2="330.8574" y2="-424.418" gradientTransform="matrix(1 0.589 0 -1 -256 -512.683)">
				<stop  offset="0" style="stop-color:#3D4F5A"/>
				<stop  offset="1" style="stop-color:#607A88"/>
			</linearGradient>
			<polygon class="st39" points="74.9,109.5 66.8,104.8 66.8,99 74.9,103.8 			"/>
			
				<linearGradient id="SVGID_40_" gradientUnits="userSpaceOnUse" x1="330.8633" y1="-350.5" x2="334.2139" y2="-350.5" gradientTransform="matrix(1 0 0 -1 -256 -245)">
				<stop  offset="0" style="stop-color:#3D4F5A"/>
				<stop  offset="0.9926" style="stop-color:#607A88"/>
			</linearGradient>
			<polygon class="st40" points="78.2,107.9 74.9,109.5 74.9,101.5 78.2,105.5 			"/>
		</g>
		
			<linearGradient id="SVGID_41_" gradientUnits="userSpaceOnUse" x1="308.1992" y1="-405.4844" x2="350.1992" y2="-405.4844" gradientTransform="matrix(1 0.589 0 -1 -256 -512.683)">
			<stop  offset="0" style="stop-color:#7B9AA9"/>
			<stop  offset="0.5" style="stop-color:#C4D3DB"/>
			<stop  offset="1" style="stop-color:#7B9AA9"/>
		</linearGradient>
		<polygon class="st41" points="94.2,113.5 52.2,88.5 52.2,60 94.2,84.9 		"/>
		
			<linearGradient id="SVGID_42_" gradientUnits="userSpaceOnUse" x1="336.4971" y1="-427.3535" x2="318.1424" y2="-387.7362" gradientTransform="matrix(1 0.589 0 -1 -256 -512.683)">
			<stop  offset="0" style="stop-color:#7B9AA9"/>
			<stop  offset="0.35" style="stop-color:#C4D3DB"/>
			<stop  offset="1" style="stop-color:#7B9AA9"/>
		</linearGradient>
		<polygon class="st42" points="92.3,114.4 50.3,89.5 50.3,61 92.3,85.8 		"/>
		
			<linearGradient id="SVGID_43_" gradientUnits="userSpaceOnUse" x1="343.917" y1="-360.9458" x2="321.7419" y2="-300.0204" gradientTransform="matrix(1 0 0 -1 -256 -245)">
			<stop  offset="0" style="stop-color:#7B9AA9"/>
			<stop  offset="0.35" style="stop-color:#C4D3DB"/>
			<stop  offset="1" style="stop-color:#7B9AA9"/>
		</linearGradient>
		<polygon class="st43" points="94.2,113.5 92.3,114.4 92.3,85.8 50.3,61 52.2,60 94.2,84.9 		"/>
		
			<linearGradient id="SVGID_44_" gradientUnits="userSpaceOnUse" x1="342.709" y1="-358.5811" x2="312.5728" y2="-306.3838" gradientTransform="matrix(1 0 0 -1 -256 -245)">
			<stop  offset="0" style="stop-color:#32414A"/>
			<stop  offset="0.35" style="stop-color:#607A88"/>
			<stop  offset="1" style="stop-color:#32414A"/>
		</linearGradient>
		<polygon class="st44" points="52.3,63.9 52.9,64.9 52.9,88.7 89.7,110.5 90.4,111.5 90.4,86.4 		"/>
		<g>
			
				<linearGradient id="SVGID_45_" gradientUnits="userSpaceOnUse" x1="308.3008" y1="-345.0503" x2="346.4004" y2="-345.0503" gradientTransform="matrix(1 0 0 -1 -256 -245)">
				<stop  offset="0" style="stop-color:#32414A"/>
				<stop  offset="1" style="stop-color:#607A88"/>
			</linearGradient>
			<polygon class="st45" points="90.4,111.5 90.4,110.9 52.9,88.7 52.3,88.9 			"/>
			
				<linearGradient id="SVGID_46_" gradientUnits="userSpaceOnUse" x1="308.6006" y1="-333.8784" x2="308.6006" y2="-308.8296" gradientTransform="matrix(1 0 0 -1 -256 -245)">
				<stop  offset="0" style="stop-color:#32414A"/>
				<stop  offset="1" style="stop-color:#607A88"/>
			</linearGradient>
			<polygon class="st46" points="52.9,64.3 52.3,63.9 52.3,88.9 52.9,88.7 			"/>
		</g>
	</g>
</g>
</svg>
