<?xml version="1.0" encoding="utf-8"?>
<!-- Generator: Adobe Illustrator 16.0.0, SVG Export Plug-In . SVG Version: 6.00 Build 0)  -->
<!DOCTYPE svg PUBLIC "-//W3C//DTD SVG 1.1//EN" "http://www.w3.org/Graphics/SVG/1.1/DTD/svg11.dtd">
<svg version="1.1" id="图层_1" xmlns="http://www.w3.org/2000/svg" xmlns:xlink="http://www.w3.org/1999/xlink" x="0px" y="0px"
	 width="100px" height="120px" viewBox="0 -10 100 120" style="enable-background:new 0 -10 100 120;" xml:space="preserve">
<style type="text/css">
<![CDATA[
	.st0{opacity:0.3;fill:url(#SVGID_11_);enable-background:new    ;}
	.st1{opacity:0.3;fill:url(#SVGID_9_);enable-background:new    ;}
	.st2{fill:url(#SVGID_1_);}
	.st3{fill:url(#SVGID_2_);}
	.st4{fill:url(#SVGID_3_);}
	.st5{fill:url(#SVGID_4_);}
	.st6{fill:url(#SVGID_5_);}
	.st7{fill:url(#SVGID_6_);}
	.st8{fill:url(#SVGID_7_);}
	.st9{opacity:0.3;fill:url(#SVGID_10_);enable-background:new    ;}
	.st10{opacity:0.3;fill:url(#SVGID_8_);enable-background:new    ;}
	.st11{fill:url(#SVGID_12_);}
	.st12{fill:url(#SVGID_13_);}
]]>
</style>
<g>
	
		<linearGradient id="SVGID_1_" gradientUnits="userSpaceOnUse" x1="315.2998" y1="-325.8999" x2="356" y2="-325.8999" gradientTransform="matrix(1 0 0 -1 -256 -245)">
		<stop  offset="0" style="stop-color:#607A88"/>
		<stop  offset="1" style="stop-color:#3D4F5A"/>
	</linearGradient>
	<path class="st2" d="M100,100.5L82.4,110c-0.5-6-2.9-26.5-23.1-48.7l17.6-9.5C97.1,73.9,99.5,94.5,100,100.5z"/>
	
		<linearGradient id="SVGID_2_" gradientUnits="userSpaceOnUse" x1="324.2119" y1="-296.6001" x2="326.4336" y2="-296.6001" gradientTransform="matrix(1 0 0 -1 -256 -245)">
		<stop  offset="0" style="stop-color:#607A88"/>
		<stop  offset="1" style="stop-color:#3D4F5A"/>
	</linearGradient>
	<path class="st3" d="M68.2,51.4c0.8,0.2,1.5,0.3,2.2,0.4C69.7,51.7,69,51.6,68.2,51.4z"/>
	
		<linearGradient id="SVGID_3_" gradientUnits="userSpaceOnUse" x1="329.5879" y1="-297.0498" x2="331.291" y2="-297.0498" gradientTransform="matrix(1 0 0 -1 -256 -245)">
		<stop  offset="0" style="stop-color:#607A88"/>
		<stop  offset="1" style="stop-color:#3D4F5A"/>
	</linearGradient>
	<path class="st4" d="M73.6,52.1c0.6,0,1.1,0,1.7-0.1C74.7,52.1,74.2,52.1,73.6,52.1z"/>
	
		<linearGradient id="SVGID_4_" gradientUnits="userSpaceOnUse" x1="281.5635" y1="-267.1455" x2="337.291" y2="-267.1455" gradientTransform="matrix(1 0 0 -1 -256 -245)">
		<stop  offset="0" style="stop-color:#607A88"/>
		<stop  offset="1" style="stop-color:#3D4F5A"/>
	</linearGradient>
	<path class="st5" d="M81.3,31.4c0,2.5-0.4,4.7-1.2,6.5c-0.8,1.8-1.9,3.3-3.3,4.3c-0.7,0.5-1.5,1-2.4,1.3l-11.3,6.2l0,0l-4.6,2.5
		c3.2-2,5.1-5.8,5.1-11.3c0-12.4-10.1-28.4-22.5-35.7C35,1.6,29.5,0.8,25.5,2.3l15.6-8.5l0,0c4.1-2.7,10.5-2.3,17.6,1.9
		c11.8,7,21.6,21.9,22.4,34C81.3,30.2,81.3,30.8,81.3,31.4z"/>
	
		<linearGradient id="SVGID_5_" gradientUnits="userSpaceOnUse" x1="279.2002" y1="-291.6499" x2="332.8994" y2="-291.6499" gradientTransform="matrix(1 0 0 -1 -256 -245)">
		<stop  offset="0" style="stop-color:#607A88"/>
		<stop  offset="1" style="stop-color:#3D4F5A"/>
	</linearGradient>
	<path class="st6" d="M76.9,51.8l-17.6,9.5l-5.4,0.2c-3.8-0.4-8.1-1.9-12.7-4.6c-6.8-4-13.1-10-18-16.9l4.5-2.4L39,31.8l18.6,20.9
		l5.6-3C68.3,51.9,73,52.6,76.9,51.8z"/>
	
		<linearGradient id="SVGID_6_" gradientUnits="userSpaceOnUse" x1="267.2002" y1="-281.293" x2="297" y2="-281.293" gradientTransform="matrix(1 0 0 -1 -256 -245)">
		<stop  offset="0" style="stop-color:#607A88"/>
		<stop  offset="1" style="stop-color:#3D4F5A"/>
	</linearGradient>
	<path class="st7" d="M41,30.8l-13.3,6.9l-4.5,2.4c-5-0.4-8.9,0.4-12,2l2.3-1.2l12-6.5l2-1.1c3.2-2,7.6-3.2,13.3-2.7
		C40.8,30.6,40.9,30.7,41,30.8z"/>
	
		<linearGradient id="SVGID_7_" gradientUnits="userSpaceOnUse" x1="267.1846" y1="-286.4502" x2="269.4355" y2="-286.4502" gradientTransform="matrix(1 0 0 -1 -256 -245)">
		<stop  offset="0" style="stop-color:#607A88"/>
		<stop  offset="1" style="stop-color:#3D4F5A"/>
	</linearGradient>
	<path class="st8" d="M13.4,40.9L11.2,42h-0.1L13.4,40.9z"/>
	
		<linearGradient id="SVGID_8_" gradientUnits="userSpaceOnUse" x1="265.3994" y1="-267.7295" x2="281.5508" y2="-267.7295" gradientTransform="matrix(1 0 0 -1 -256 -245)">
		<stop  offset="0" style="stop-color:#7B9AA9"/>
		<stop  offset="1" style="stop-color:#C4D3DB"/>
	</linearGradient>
	<path class="st10" d="M24.9,2.6c-0.2,0.1-0.3,0.2-0.5,0.3c-0.3,0.1-0.5,0.3-0.8,0.5c-0.1,0.1-0.3,0.2-0.4,0.3l2.3-1.2
		C25.3,2.4,25.1,2.5,24.9,2.6z M10.5,42.4c-0.2,0.1-0.4,0.2-0.6,0.3c-0.2,0.1-0.3,0.2-0.5,0.3l0,0L10.5,42.4L10.5,42.4z"/>
	
		<linearGradient id="SVGID_9_" gradientUnits="userSpaceOnUse" x1="265.4355" y1="-267.7295" x2="281.5361" y2="-267.7295" gradientTransform="matrix(1 0 0 -1 -256 -245)">
		<stop  offset="0" style="stop-color:#7B9AA9"/>
		<stop  offset="1" style="stop-color:#C4D3DB"/>
	</linearGradient>
	<path class="st1" d="M10.5,42.4c-0.2,0.1-0.4,0.2-0.6,0.3c-0.2,0.1-0.3,0.2-0.5,0.3L10.5,42.4L10.5,42.4z M24.9,2.6
		c-0.2,0.1-0.3,0.2-0.5,0.3c-0.3,0.1-0.5,0.3-0.8,0.5c-0.1,0.1-0.3,0.2-0.4,0.3l2.3-1.2C25.3,2.4,25.1,2.5,24.9,2.6z"/>
	
		<linearGradient id="SVGID_10_" gradientUnits="userSpaceOnUse" x1="265.377" y1="-267.6997" x2="281.5635" y2="-267.6997" gradientTransform="matrix(1 0 0 -1 -256 -245)">
		<stop  offset="0" style="stop-color:#7B9AA9"/>
		<stop  offset="1" style="stop-color:#C4D3DB"/>
	</linearGradient>
	<path class="st9" d="M23.2,3.6l2.3-1.3C24.7,2.6,23.9,3,23.2,3.6z M10.5,42.4c-0.4,0.2-0.8,0.4-1.1,0.7L10.5,42.4L10.5,42.4z"/>
	
		<linearGradient id="SVGID_11_" gradientUnits="userSpaceOnUse" x1="265.3994" y1="-281.7588" x2="297.0039" y2="-281.7588" gradientTransform="matrix(1 0 0 -1 -256 -245)">
		<stop  offset="0" style="stop-color:#7B9AA9"/>
		<stop  offset="1" style="stop-color:#C4D3DB"/>
	</linearGradient>
	<path class="st0" d="M40.8,30.5c-5.8-0.4-10.1,0.7-13.3,2.7l-2,1.1c0.7,1.1,1.5,2.3,2.3,3.3l13.3-6.9
		C40.9,30.7,40.8,30.6,40.8,30.5z M10.5,42.4c-0.4,0.2-0.8,0.4-1.1,0.7L10.5,42.4L10.5,42.4z"/>
	
		<linearGradient id="SVGID_12_" gradientUnits="userSpaceOnUse" x1="256" y1="-300.7207" x2="338.3994" y2="-300.7207" gradientTransform="matrix(1 0 0 -1 -256 -245)">
		<stop  offset="0" style="stop-color:#7B9AA9"/>
		<stop  offset="1" style="stop-color:#C4D3DB"/>
	</linearGradient>
	<path class="st11" d="M18.7,14.4C18.7,2,28.8-2.2,41.2,5.2c12.4,7.4,22.5,23.3,22.5,35.7c0,12.4-10.1,16.6-22.5,9.2
		C28.8,42.7,18.7,26.8,18.7,14.4z M0,61.4C0.5,56.2,3.1,38.5,23.2,40c5,6.8,11.2,12.9,18,16.9c6.8,4,13.1,5.4,18.1,4.3
		c20.2,22.2,22.6,42.7,23.1,48.7C82.3,110,0.1,61.5,0,61.4z"/>
	
		<linearGradient id="SVGID_13_" gradientUnits="userSpaceOnUse" x1="265.3994" y1="-272.6484" x2="319.7276" y2="-272.6484" gradientTransform="matrix(1 0 0 -1 -256 -245)">
		<stop  offset="0" style="stop-color:#7B9AA9"/>
		<stop  offset="1" style="stop-color:#C4D3DB"/>
	</linearGradient>
	<path class="st12" d="M9.4,43.1l1.1-0.6v-0.1C10.1,42.6,9.7,42.8,9.4,43.1z M41.2,5.2c-6.1-3.6-11.6-4.4-15.6-2.9
		C24.7,2.6,24,3,23.3,3.6l0,0c-2.8,2.1-4.5,5.8-4.5,10.8c0,7.3,3.5,16,9,23.3c3.8,5,8.4,9.5,13.5,12.4c12.4,7.3,22.5,3.2,22.5-9.2
		C63.7,28.5,53.6,12.5,41.2,5.2z"/>
</g>
</svg>
