<?xml version="1.0" encoding="utf-8"?>
<!-- Generator: Adobe Illustrator 16.0.0, SVG Export Plug-In . SVG Version: 6.00 Build 0)  -->
<!DOCTYPE svg PUBLIC "-//W3C//DTD SVG 1.1//EN" "http://www.w3.org/Graphics/SVG/1.1/DTD/svg11.dtd">
<svg version="1.1" id="图层_1" xmlns="http://www.w3.org/2000/svg" xmlns:xlink="http://www.w3.org/1999/xlink" x="0px" y="0px"
	 width="100px" height="100px" viewBox="0 0 100 100" style="enable-background:new 0 0 100 100;" xml:space="preserve">
<style type="text/css">
<![CDATA[
	.st0{fill:none;stroke:#285F72;stroke-width:0.1485;stroke-linecap:round;stroke-linejoin:round;}
	.st1{fill:#F8CEB9;}
	.st2{fill:url(#SVGID_1_);}
	.st3{fill:url(#SVGID_2_);}
	.st4{fill:url(#SVGID_3_);}
	.st5{fill:url(#SVGID_4_);}
	.st6{fill:url(#SVGID_5_);}
	.st7{fill:url(#SVGID_6_);}
	.st8{fill:url(#SVGID_7_);}
	.st9{fill:url(#SVGID_8_);}
	.st10{fill:url(#SVGID_9_);}
	.st11{fill:#61879A;}
	.st12{fill:#FFFFFF;}
	.st13{fill:none;stroke:#00384C;stroke-width:0.1;stroke-linecap:round;stroke-linejoin:round;}
	.st14{fill:none;stroke:#790001;stroke-width:0.1;stroke-linecap:round;stroke-linejoin:round;}
	.st15{fill:#CEDA00;}
	.st16{fill:url(#SVGID_10_);}
	.st17{fill:url(#SVGID_11_);}
	.st18{fill:url(#SVGID_12_);}
	.st19{fill:url(#SVGID_13_);}
	.st20{fill:url(#SVGID_14_);}
	.st21{fill:url(#SVGID_15_);}
	.st22{fill:url(#SVGID_16_);}
	.st23{fill:url(#SVGID_17_);}
	.st24{fill:url(#SVGID_18_);}
	.st25{fill:url(#SVGID_19_);}
	.st26{fill:url(#SVGID_20_);}
	.st27{fill:url(#SVGID_21_);}
	.st28{fill:url(#SVGID_22_);}
	.st29{fill:url(#SVGID_23_);}
	.st30{fill:#FFFFFF;fill-opacity:0;}
]]>
</style>
<rect class="st30" width="100" height="100"/>
<g>
	
		<linearGradient id="SVGID_1_" gradientUnits="userSpaceOnUse" x1="595.3184" y1="722.3379" x2="640.4902" y2="643.8114" gradientTransform="matrix(1 0 0 1 -532 -671)">
		<stop  offset="0" style="stop-color:#32414A"/>
		<stop  offset="0.35" style="stop-color:#607A87"/>
		<stop  offset="1" style="stop-color:#32414A"/>
	</linearGradient>
	<path class="st2" d="M62.2,10.6L62.2,10.6L44.7,39.5c-0.2,0.3-0.2,0.6-0.1,0.9c0.1,0.3,0.3,0.6,0.6,0.8l35.3,20.4
		c0.6,0.3,1.4,0.1,1.8-0.4l17.4-28.9c0.2-0.3,0.2-0.6,0.1-1c-0.1-0.3-0.3-0.6-0.6-0.8L64,10.2C63.3,9.8,62.6,10,62.2,10.6z"/>
	
		<linearGradient id="SVGID_2_" gradientUnits="userSpaceOnUse" x1="594.9941" y1="722.709" x2="613.2916" y2="691.0168" gradientTransform="matrix(1 0 0 1 -532 -671)">
		<stop  offset="0" style="stop-color:#32414A"/>
		<stop  offset="0.35" style="stop-color:#607A87"/>
		<stop  offset="1" style="stop-color:#32414A"/>
	</linearGradient>
	<path class="st3" d="M63.3,9.8c-0.5,0-1,0.3-1.3,0.7L44.6,39.4c-0.1,0.2-0.2,0.5-0.2,0.7c0,0.5,0.3,0.9,0.7,1.2l22.8,13.2
		c0.7,0.4,1.2,0.7,1.2,0.7s0.6,0.3,1.2,0.7l10,5.8c0.2,0.1,0.5,0.2,0.7,0.2c0.5,0,1-0.2,1.3-0.7l17.4-28.9c0.1-0.2,0.2-0.5,0.2-0.7
		c0-0.5-0.3-0.9-0.7-1.2L76.5,17.2c-0.7-0.4-1.8-1-2.5-1.4L64,10C63.8,9.9,63.6,9.8,63.3,9.8L63.3,9.8z M81.1,61.6
		c-0.2,0-0.4-0.1-0.6-0.2l-10-5.8c-0.7-0.4-1.2-0.7-1.2-0.7s-0.6-0.3-1.2-0.7L45.3,41.1c-0.3-0.1-0.4-0.4-0.5-0.7
		c-0.1-0.3,0-0.6,0.1-0.8l17.4-28.9c0.2-0.3,0.6-0.5,1-0.5c0.2,0,0.4,0,0.6,0.1l0,0l10,5.8c0.7,0.4,1.8,1,2.5,1.4l22.8,13.2
		c0.3,0.1,0.4,0.4,0.5,0.7c0.1,0.3,0,0.6-0.1,0.8L82.1,61C81.9,61.4,81.5,61.6,81.1,61.6L81.1,61.6z"/>
	
		<linearGradient id="SVGID_3_" gradientUnits="userSpaceOnUse" x1="575.3984" y1="754.9521" x2="624.6152" y2="670.1529" gradientTransform="matrix(1 0 0 1 -532 -671)">
		<stop  offset="2.398080e-003" style="stop-color:#F7F7F7"/>
		<stop  offset="0.2414" style="stop-color:#F5F5F5"/>
		<stop  offset="0.3253" style="stop-color:#FFFFFF"/>
		<stop  offset="0.3583" style="stop-color:#FFFFFF"/>
		<stop  offset="0.4138" style="stop-color:#F7F7F7"/>
		<stop  offset="0.6897" style="stop-color:#F7F7F7"/>
		<stop  offset="1" style="stop-color:#EEEEEF"/>
	</linearGradient>
	<path class="st4" d="M54.6,35.6c0.5,0.3,24.2,14,24.7,14.3c0.3-0.5,18.3-30.2,18.6-30.8c-0.5-0.3-24.2-14-24.7-14.3
		C72.9,5.3,54.9,35,54.6,35.6z"/>
	<path class="st12" d="M73.1,4.4l-19,31.3l0.5,0.3l0,0l0,0l0,0l24.7,14.3L98,19.5l0,0l0,0l0,0l0.3-0.5L73.1,4.4L73.1,4.4z M55,35.5
		L73.3,5.2l24.2,14L79.2,49.4L55,35.5L55,35.5z"/>
	
		<linearGradient id="SVGID_4_" gradientUnits="userSpaceOnUse" x1="576.2598" y1="737.3633" x2="655.5243" y2="737.3633" gradientTransform="matrix(1 0 0 1 -532 -671)">
		<stop  offset="0" style="stop-color:#32414A"/>
		<stop  offset="0.35" style="stop-color:#607A87"/>
		<stop  offset="1" style="stop-color:#32414A"/>
	</linearGradient>
	<path class="st5" d="M94,38.2L94,38.2L49.4,64c-2.6,1.5-4.6,5.1-4.6,8v20.2c0,1.3,0.4,2.3,1.2,2.7c0.8,0.4,1.8,0.3,3-0.3l44.6-25.8
		c2.6-1.5,4.6-5.1,4.6-8V40.6c0-1.3-0.4-2.3-1.2-2.7C96.2,37.4,95.2,37.5,94,38.2z"/>
	
		<linearGradient id="SVGID_5_" gradientUnits="userSpaceOnUse" x1="576.2998" y1="737.4004" x2="630.6455" y2="737.4004" gradientTransform="matrix(1 0 0 1 -532 -671)">
		<stop  offset="0" style="stop-color:#32414A"/>
		<stop  offset="0.35" style="stop-color:#607A87"/>
		<stop  offset="1" style="stop-color:#32414A"/>
	</linearGradient>
	<path class="st6" d="M96,37.1c-0.7,0-1.4,0.2-2.2,0.7L49.2,63.6c-2.7,1.6-4.9,5.3-4.9,8.4v20.2c0,2.2,1.1,3.5,2.7,3.5
		c0.7,0,1.4-0.2,2.2-0.7l44.6-25.8c2.7-1.6,4.9-5.3,4.9-8.4V40.6C98.7,38.4,97.6,37.1,96,37.1L96,37.1z M47,94.7
		c-1.6,0-1.7-1.8-1.7-2.5V72c0-2.8,2-6.2,4.4-7.6l44.6-25.8c0.6-0.3,1.2-0.5,1.7-0.5c1.6,0,1.8,1.8,1.8,2.5v20.1
		c0,2.8-2,6.2-4.4,7.6L48.7,94.1C48.1,94.5,47.5,94.7,47,94.7L47,94.7z"/>
	
		<linearGradient id="SVGID_6_" gradientUnits="userSpaceOnUse" x1="591.9102" y1="719.8643" x2="608.1895" y2="747.8458" gradientTransform="matrix(1 0 0 1 -532 -671)">
		<stop  offset="0" style="stop-color:#607A87"/>
		<stop  offset="1" style="stop-color:#3D4F5A"/>
	</linearGradient>
	<path class="st7" d="M91.8,36.6L47.1,62.4c-2.7,1.6-4.9,5.3-4.9,8.4V91c0,3.1,2.2,4.4,4.9,2.8L91.8,68c2.7-1.6,4.9-5.3,4.9-8.4
		V39.4C96.6,36.3,94.4,35.1,91.8,36.6z"/>
	
		<linearGradient id="SVGID_7_" gradientUnits="userSpaceOnUse" x1="574.2725" y1="736.25" x2="628.6201" y2="736.25" gradientTransform="matrix(1 0 0 1 -532 -671)">
		<stop  offset="0" style="stop-color:#3D4F5A"/>
		<stop  offset="1" style="stop-color:#607A87"/>
	</linearGradient>
	<path class="st8" d="M93.9,36c-0.7,0-1.4,0.2-2.2,0.7L47.1,62.4c-2.7,1.6-4.9,5.3-4.9,8.4V91c0,2.2,1.1,3.5,2.7,3.5
		c0.7,0,1.4-0.2,2.2-0.7L91.8,68c2.7-1.6,4.9-5.3,4.9-8.4V39.4C96.6,37.2,95.5,36,93.9,36L93.9,36z M45,93.5c-1.6,0-1.8-1.8-1.8-2.5
		V70.8c0-2.8,2-6.2,4.4-7.6l44.6-25.8c0.6-0.3,1.2-0.5,1.7-0.5c1.6,0,1.8,1.8,1.8,2.5v20.2c0,2.8-2,6.2-4.4,7.6L46.7,93
		C46.1,93.3,45.5,93.5,45,93.5L45,93.5z"/>
	
		<linearGradient id="SVGID_8_" gradientUnits="userSpaceOnUse" x1="547.8877" y1="740.2012" x2="581.1041" y2="681.6024" gradientTransform="matrix(1 0 0 1 -532 -671)">
		<stop  offset="0" style="stop-color:#32414A"/>
		<stop  offset="0.35" style="stop-color:#607A87"/>
		<stop  offset="1" style="stop-color:#32414A"/>
	</linearGradient>
	<path class="st9" d="M25.6,31.2c7.6-3.6,15.7-5.8,27-5.9c0-0.3,0-9.2,0-9.7C52.2,15.8,32.7,27.1,25.6,31.2z"/>
	
		<linearGradient id="SVGID_9_" gradientUnits="userSpaceOnUse" x1="552.5" y1="695.6504" x2="584.7637" y2="695.6504" gradientTransform="matrix(1 0 0 1 -532 -671)">
		<stop  offset="0" style="stop-color:#32414A"/>
		<stop  offset="0.35" style="stop-color:#607A87"/>
		<stop  offset="1" style="stop-color:#32414A"/>
	</linearGradient>
	<path class="st10" d="M52.8,15.3L20.5,34c0.1-0.1,0.2-0.1,0.3-0.2l0,0c1.7-0.9,3.4-1.8,5.2-2.6l0,0c7.2-3.4,15.3-5.7,26.8-5.7v-0.3
		l0,0l0,0V15.3L52.8,15.3z M28.5,29.7l24-13.9v9.3C42.6,25.2,35.2,26.9,28.5,29.7L28.5,29.7z"/>
	<path class="st13" d="M20.5,34c8.8-4.8,17.8-8.5,32.3-8.5V15.3L20.5,34z"/>
	
		<linearGradient id="SVGID_10_" gradientUnits="userSpaceOnUse" x1="595.2793" y1="706.5625" x2="609.9475" y2="681.338" gradientTransform="matrix(1 0 0 1 -532 -671)">
		<stop  offset="0" style="stop-color:#32414A"/>
		<stop  offset="0.35" style="stop-color:#607A87"/>
		<stop  offset="1" style="stop-color:#32414A"/>
	</linearGradient>
	<polygon class="st16" points="86.1,34.6 86.1,34.6 52.8,15.3 52.8,25.5 77.3,39.7 	"/>
	
		<linearGradient id="SVGID_11_" gradientUnits="userSpaceOnUse" x1="553.3564" y1="755.8691" x2="592.6369" y2="687.2275" gradientTransform="matrix(1 0 0 1 -532 -671)">
		<stop  offset="2.398080e-003" style="stop-color:#00384C"/>
		<stop  offset="0.2414" style="stop-color:#074B60"/>
		<stop  offset="0.3253" style="stop-color:#517C8F"/>
		<stop  offset="0.3583" style="stop-color:#5A8395"/>
		<stop  offset="0.4138" style="stop-color:#487589"/>
		<stop  offset="0.6927" style="stop-color:#104E62"/>
		<stop  offset="1" style="stop-color:#00384C"/>
	</linearGradient>
	<path class="st17" d="M53.9,14.9L53.9,14.9c0,0-0.5,0.3-0.8,0.5c0.5,0.3,32.9,19,33.1,19.1c0.2-0.1,1-0.6,1-0.6
		c0.9-0.5,1.7-0.7,2.4-0.6c-1.9-1.1-32.4-18.7-32.4-18.7C56.3,14,55.2,14.1,53.9,14.9z M20.6,34.1L9.3,40.6
		c-2.6,1.5-4.8,5.2-4.8,8.3v13c0,2.3,1.6,5.1,3.6,6.2l26,15c0.9,0.5,1.8,0.6,2.5,0.3c0.6-0.4,1-1.2,1-2.2v-13c0-3.2,2.2-7,4.9-8.6
		c0,0,34-19.7,34.5-19.9c-0.5-0.3-24.3-14-24.3-14C38.8,25.7,29.8,29,20.6,34.1z"/>
	
		<linearGradient id="SVGID_12_" gradientUnits="userSpaceOnUse" x1="536.2998" y1="719.9492" x2="622.5996" y2="719.9492" gradientTransform="matrix(1 0 0 1 -532 -671)">
		<stop  offset="0" style="stop-color:#32414A"/>
		<stop  offset="0.35" style="stop-color:#607A87"/>
		<stop  offset="1" style="stop-color:#32414A"/>
	</linearGradient>
	<path class="st18" d="M56,14.1c-0.7,0-1.4,0.2-2.2,0.7l-1.1,0.6l0.3,0.2l0,0l0,0l0,0l32.7,18.9l0,0l0.3,0.2l-6.1,3.5l0.3-0.2l0,0
		l6.1-3.5l0,0l0.8-0.5c0.8-0.4,1.5-0.7,2.2-0.7h0.1l0,0c0.4,0,0.9,0.1,1.2,0.3L57.3,14.4C56.9,14.2,56.5,14.1,56,14.1L56,14.1z
		 M53.4,15.3L54,15c0.7-0.4,1.4-0.6,2-0.6c0.4,0,0.8,0.1,1.1,0.3l0,0L88.9,33c-0.6,0.1-1.2,0.3-1.9,0.7l-0.9,0.5L53.4,15.3
		L53.4,15.3z M52.8,25.5c-14.4,0-23.5,3.6-32.3,8.5L9.2,40.5c-2.7,1.6-4.9,5.3-4.9,8.4v13c0,2.3,1.7,5.2,3.7,6.4l26,15
		c0.6,0.3,1.2,0.5,1.6,0.5c1.2,0,2-1,2-2.6v-13l0,0l0,0c0-3.1,2.2-6.9,4.9-8.4L77,39.9l0,0l0,0l0,0l0.3-0.2L52.8,25.5L52.8,25.5z
		 M35.7,83.5c-0.5,0-1-0.2-1.5-0.5l-26-15c-1.9-1.1-3.5-3.9-3.5-6.1v-13c0-3,2.1-6.7,4.7-8.2l11.3-6.5c9.2-5,18.2-8.4,32-8.4
		l24,13.9L42.4,59.5c-2.8,1.6-5,5.5-5,8.7v13C37.4,82.6,36.7,83.5,35.7,83.5L35.7,83.5z"/>
	
		<linearGradient id="SVGID_13_" gradientUnits="userSpaceOnUse" x1="594.0078" y1="688.5811" x2="557.196" y2="753.6381" gradientTransform="matrix(1 0 0 1 -532 -671)">
		<stop  offset="0" style="stop-color:#32414A"/>
		<stop  offset="0.35" style="stop-color:#607A87"/>
		<stop  offset="1" style="stop-color:#32414A"/>
	</linearGradient>
	<path class="st19" d="M49.7,12.6L49.7,12.6L5.1,38.4c-2.6,1.5-4.6,5.1-4.6,8v20.1c0,1.3,0.4,2.3,1.2,2.7c0,0,34.3,19.8,42.5,24.5
		c-0.2-0.5-0.3-1-0.3-1.7V72c0-3.2,2.3-7.2,5.1-8.8l44.6-25.8c0.6-0.3,1.2-0.4,1.7-0.5c-1.9-1.1-4.9-2.8-4.9-2.8
		c-0.8-0.4-1.8-0.3-3,0.3L42.8,60.2c-2.6,1.5-4.6,5.1-4.6,8v13c0,1.3-0.5,2.3-1.3,2.8c-0.8,0.5-1.9,0.4-3.1-0.3l-26-15
		c-2.2-1.3-3.9-4.3-3.9-6.8v-13c0-3.3,2.3-7.2,5.1-8.8l44.6-25.8c0.6-0.3,1.2-0.4,1.7-0.5c-1.2-0.7-2.6-1.5-2.6-1.5
		C51.9,11.8,50.9,12,49.7,12.6z M97.2,37c0.1,0,0.2,0,0.2,0.1C97.4,37,97.3,37,97.2,37z"/>
	
		<linearGradient id="SVGID_14_" gradientUnits="userSpaceOnUse" x1="532" y1="724.4492" x2="629.2011" y2="724.4492" gradientTransform="matrix(1 0 0 1 -532 -671)">
		<stop  offset="0" style="stop-color:#3D4F5A"/>
		<stop  offset="1" style="stop-color:#607A87"/>
	</linearGradient>
	<path class="st20" d="M51.6,11.6c-0.7,0-1.4,0.2-2.2,0.7L4.9,38C2.2,39.5,0,43.3,0,46.4v20.1c0,1.6,0.6,2.7,1.4,3.2l42.2,24.4l0,0
		l1.2,0.7l0,0l0.8,0.5c-0.9-0.5-1.4-1.6-1.4-3.1V72l0,0l0,0c0-3.1,2.2-6.9,4.9-8.4l44.6-25.8c0.4-0.2,0.8-0.4,1.2-0.5l0,0
		c0.3-0.1,0.6-0.1,0.9-0.1c0.1,0,0.2,0,0.3,0l0,0c0.3,0,0.6,0.1,0.9,0.3l-6.6-3.8l0,0c-0.4-0.2-0.8-0.3-1.3-0.3
		c-0.7,0-1.4,0.2-2.2,0.7L42.6,59.7c-2.7,1.6-4.9,5.3-4.9,8.4v13l0,0l0,0c0,1.7-0.8,2.6-2,2.6c-0.5,0-1.1-0.2-1.6-0.5l-26-15
		c-2-1.2-3.7-4-3.7-6.4v-13l0,0l0,0c0-3.1,2.2-6.9,4.9-8.4L20.5,34l32.3-18.6l1.1-0.6c0.4-0.2,0.8-0.4,1.2-0.5l0,0
		c0.3-0.1,0.6-0.1,0.9-0.1c0.5,0,0.9,0.1,1.2,0.3l0,0l0,0l0,0l0,0l0,0l-2.1-1.2l0,0L52.8,12l0,0C52.6,11.7,52.1,11.6,51.6,11.6
		L51.6,11.6z M43.4,92.9l-41.5-24c-0.6-0.4-1-1.2-1-2.3V46.4c0-2.8,2-6.2,4.4-7.6L50,13c0.6-0.4,1.2-0.5,1.7-0.5
		c0.3,0,0.6,0.1,0.8,0.2l0,0l1.5,0.9c-0.2,0.1-0.4,0.2-0.6,0.3l-1.1,0.6L20,33.1L8.7,39.7c-3,1.7-5.3,5.8-5.3,9.3v13
		c0,2.7,1.8,5.9,4.2,7.2l26,15c0.7,0.4,1.4,0.6,2.1,0.6c1.5,0,3-1.1,3-3.6v-13c0-2.8,2-6.2,4.4-7.6l44.6-25.8
		c0.6-0.3,1.2-0.5,1.7-0.5c0.3,0,0.6,0.1,0.8,0.2l3.8,2.2c-0.2,0.1-0.4,0.2-0.6,0.3L48.7,62.7c-3,1.7-5.3,5.8-5.3,9.3v20.2
		C43.4,92.4,43.4,92.6,43.4,92.9L43.4,92.9z"/>
	
		<linearGradient id="SVGID_15_" gradientUnits="userSpaceOnUse" x1="597.6104" y1="701.1807" x2="609.3582" y2="680.758" gradientTransform="matrix(1 0 0 1 -532 -671)">
		<stop  offset="0" style="stop-color:#32414A"/>
		<stop  offset="0.35" style="stop-color:#607A87"/>
		<stop  offset="1" style="stop-color:#32414A"/>
	</linearGradient>
	<path class="st21" d="M53.9,14.9c0,0-7,4.1-7.5,4.3c0.5,0.3,33.1,19.1,33.1,19.1l7.5-4.5c0.9-0.5,1.7-0.7,2.4-0.6
		C87.5,32.1,57,14.5,57,14.5C56.3,14,55.2,14.1,53.9,14.9z"/>
	
		<linearGradient id="SVGID_16_" gradientUnits="userSpaceOnUse" x1="578.0996" y1="697.3496" x2="622.5996" y2="697.3496" gradientTransform="matrix(1 0 0 1 -532 -671)">
		<stop  offset="0" style="stop-color:#32414A"/>
		<stop  offset="0.35" style="stop-color:#607A87"/>
		<stop  offset="1" style="stop-color:#32414A"/>
	</linearGradient>
	<path class="st22" d="M56,14.1c-0.7,0-1.4,0.2-2.2,0.7l-7.7,4.5l0.3,0.2l0,0l0,0l0,0l33,19.1l7.7-4.5c0.8-0.4,1.5-0.7,2.2-0.7h0.1
		l0,0c0.4,0,0.9,0.1,1.2,0.3L57.3,14.4C56.9,14.2,56.5,14.1,56,14.1L56,14.1z M46.8,19.2L54,15c0.7-0.4,1.4-0.6,2-0.6
		c0.4,0,0.8,0.1,1.1,0.3l0,0L88.9,33c-0.6,0.1-1.2,0.3-1.9,0.7l-7.5,4.4L46.8,19.2L46.8,19.2z"/>
	
		<linearGradient id="SVGID_17_" gradientUnits="userSpaceOnUse" x1="550.6387" y1="752.8086" x2="583.3524" y2="695.6422" gradientTransform="matrix(1 0 0 1 -532 -671)">
		<stop  offset="0" style="stop-color:#32414A"/>
		<stop  offset="0.35" style="stop-color:#607A87"/>
		<stop  offset="1" style="stop-color:#32414A"/>
	</linearGradient>
	<path class="st23" d="M20.6,34.1L9.3,40.6c-2.6,1.5-4.8,5.2-4.8,8.3v13c0,2.3,1.6,5.1,3.6,6.2l26,15c0.9,0.5,1.8,0.6,2.5,0.3
		c0.6-0.4,1-1.2,1-2.2v-13c0-3.2,2.2-7,4.9-8.6c0,0,34-19.7,34.5-19.9c-0.5-0.3-24.3-14-24.3-14C38.8,25.7,29.8,29,20.6,34.1z"/>
	
		<linearGradient id="SVGID_18_" gradientUnits="userSpaceOnUse" x1="580.8008" y1="729.4365" x2="580.8008" y2="732.1226" gradientTransform="matrix(1 0 0 1 -532 -671)">
		<stop  offset="0" style="stop-color:#CEDA00"/>
		<stop  offset="0.6627" style="stop-color:#138F2E"/>
		<stop  offset="0.9955" style="stop-color:#006E1D"/>
	</linearGradient>
	<path class="st24" d="M47.5,59.1L47.5,59.1c-0.4,0.2-0.6,0.5-0.6,0.9c0,0.3,0.2,0.7,0.6,0.9c0.7,0.4,1.9,0.4,2.6,0
		c0.4-0.2,0.6-0.5,0.6-0.9c0-0.3-0.2-0.7-0.6-0.9C49.3,58.7,48.2,58.7,47.5,59.1z"/>
	<path class="st11" d="M48.7,58.6c-0.5,0-1,0.1-1.4,0.3c-0.5,0.3-0.7,0.7-0.7,1.1s0.3,0.8,0.7,1.1c0.4,0.2,0.9,0.3,1.4,0.3
		s1-0.1,1.4-0.3c0.5-0.3,0.7-0.7,0.7-1.1s-0.3-0.8-0.7-1.1l0,0C49.8,58.7,49.3,58.6,48.7,58.6L48.7,58.6z M47.1,60
		c0-0.2,0.2-0.5,0.5-0.7c0.3-0.2,0.8-0.3,1.2-0.3c0.4,0,0.9,0.1,1.2,0.3s0.5,0.4,0.5,0.7s-0.2,0.5-0.5,0.7S49.2,61,48.8,61
		c-0.4,0-0.9-0.1-1.2-0.3C47.2,60.5,47.1,60.2,47.1,60L47.1,60z"/>
	<path class="st15" d="M48.7,59c-0.4,0-0.9,0.1-1.2,0.3S47,59.7,47,60s0.2,0.5,0.5,0.7s0.8,0.3,1.2,0.3c0.4,0,0.9-0.1,1.2-0.3
		c0.3-0.2,0.5-0.4,0.5-0.7s-0.2-0.5-0.5-0.7C49.6,59.1,49.2,59,48.7,59L48.7,59z M48.7,60.5c-0.4,0-0.7-0.1-0.9-0.2
		c-0.2-0.1-0.3-0.2-0.3-0.3s0.1-0.2,0.3-0.3c0.2-0.1,0.6-0.2,0.9-0.2c0.4,0,0.7,0.1,0.9,0.2l0,0c0.2,0.1,0.3,0.2,0.3,0.3
		s-0.1,0.2-0.3,0.3C49.5,60.4,49.1,60.5,48.7,60.5L48.7,60.5z"/>
	<path class="st0" d="M49.9,59.3c-0.7-0.4-1.7-0.4-2.4,0c-0.7,0.4-0.7,1,0,1.4c0.7,0.4,1.7,0.4,2.4,0C50.6,60.3,50.6,59.7,49.9,59.3
		z"/>
	
		<linearGradient id="SVGID_19_" gradientUnits="userSpaceOnUse" x1="552.0654" y1="741.7002" x2="553.1949" y2="739.7404" gradientTransform="matrix(1 0 0 1 -532 -671)">
		<stop  offset="0" style="stop-color:#32414A"/>
		<stop  offset="0.35" style="stop-color:#607A87"/>
		<stop  offset="1" style="stop-color:#32414A"/>
	</linearGradient>
	<path class="st25" d="M8.3,61.7C8.2,61.8,8,62,8,62.4c0,0.8,0.5,1.7,1.2,2.1l22.9,13.2c0.3,0.2,0.6,0.2,0.8,0.1
		c0.2-0.1,0.3-0.4,0.3-0.7c0-0.8-0.5-1.7-1.2-2.1L9.1,61.8C8.8,61.6,8.5,61.6,8.3,61.7z"/>
	
		<linearGradient id="SVGID_20_" gradientUnits="userSpaceOnUse" x1="539.9004" y1="740.6504" x2="565.4336" y2="740.6504" gradientTransform="matrix(1 0 0 1 -532 -671)">
		<stop  offset="0" style="stop-color:#32414A"/>
		<stop  offset="0.35" style="stop-color:#607A87"/>
		<stop  offset="1" style="stop-color:#32414A"/>
	</linearGradient>
	<path class="st26" d="M8.6,61.4c-0.4,0-0.7,0.3-0.7,0.9c0,0.8,0.6,1.8,1.3,2.2l22.9,13.2c0.2,0.1,0.4,0.2,0.6,0.2
		c0.4,0,0.7-0.3,0.7-0.9c0-0.8-0.6-1.8-1.3-2.2L9.2,61.6C9,61.5,8.8,61.4,8.6,61.4L8.6,61.4z M32.7,77.7c-0.1,0-0.3,0-0.4-0.1
		l-23-13.3c-0.6-0.4-1.1-1.3-1.1-2c0-0.2,0-0.6,0.4-0.6c0.1,0,0.3,0,0.4,0.1l0,0l23,13.3c0.6,0.4,1.1,1.3,1.1,2
		C33.1,77.3,33.1,77.7,32.7,77.7L32.7,77.7z"/>
	
		<linearGradient id="SVGID_21_" gradientUnits="userSpaceOnUse" x1="583.5352" y1="728.7529" x2="584.2734" y2="729.7592" gradientTransform="matrix(1 0 0 1 -532 -671)">
		<stop  offset="5.617980e-003" style="stop-color:#FBC600"/>
		<stop  offset="1" style="stop-color:#E50012"/>
	</linearGradient>
	<path class="st27" d="M51.1,58.1c0.3,0.1,1.1,0.6,1.1,0.6s0.3-0.2,0.5-0.3c-0.2-0.1-1.1-0.6-1.1-0.6S51.3,57.9,51.1,58.1z"/>
	<path class="st1" d="M51.6,57.6L50.8,58l0.2,0.1l0,0l0,0l0,0l1,0.6l0.5-0.3l0,0l0,0l0,0l0.2-0.1L51.6,57.6L51.6,57.6z M51.4,58.1
		l0.3-0.2l0.8,0.5l-0.3,0.2L51.4,58.1L51.4,58.1z"/>
	<polygon class="st14" points="50.9,58.1 52.2,58.8 52.9,58.4 51.7,57.6 	"/>
	
		<linearGradient id="SVGID_22_" gradientUnits="userSpaceOnUse" x1="585.4385" y1="727.6572" x2="586.1766" y2="728.6632" gradientTransform="matrix(1 0 0 1 -532 -671)">
		<stop  offset="5.617980e-003" style="stop-color:#FBC600"/>
		<stop  offset="1" style="stop-color:#E50012"/>
	</linearGradient>
	<path class="st28" d="M53,57c0.3,0.1,1.1,0.6,1.1,0.6s0.3-0.2,0.5-0.3c-0.3-0.1-1.1-0.6-1.1-0.6S53.2,56.8,53,57z"/>
	<path class="st1" d="M53.6,56.5L52.8,57l0.2,0.1l0,0l0,0l0,0l1,0.6l0.5-0.3l0,0l0,0l0,0l0.2-0.1L53.6,56.5L53.6,56.5z M53.3,57
		l0.3-0.2l0.8,0.5l-0.3,0.2L53.3,57L53.3,57z"/>
	<polygon class="st14" points="52.8,57 54.1,57.7 54.8,57.3 53.6,56.5 	"/>
	
		<linearGradient id="SVGID_23_" gradientUnits="userSpaceOnUse" x1="547.042" y1="760.8066" x2="587.6677" y2="690.8092" gradientTransform="matrix(1 0 0 1 -532 -671)">
		<stop  offset="2.398080e-003" style="stop-color:#F7F7F7"/>
		<stop  offset="0.2414" style="stop-color:#F5F5F5"/>
		<stop  offset="0.3253" style="stop-color:#FFFFFF"/>
		<stop  offset="0.3583" style="stop-color:#FFFFFF"/>
		<stop  offset="0.4138" style="stop-color:#F7F7F7"/>
		<stop  offset="0.6927" style="stop-color:#EEEEEF"/>
		<stop  offset="1" style="stop-color:#DBDCDC"/>
	</linearGradient>
	<path class="st29" d="M24.7,36.5c0,0-11.3,6.5-11.8,6.8c0.5,0.3,24.7,14.2,24.7,14.2l11.9-6.9c5.9-3.2,12.6-5.5,20.4-6.8
		c0,0,1.2-0.7,1.5-0.9C71,42.6,47.8,29.3,47.8,29.3C38.9,30.5,31.3,32.9,24.7,36.5z"/>
	<path class="st12" d="M47.9,29.1c-9,1.3-16.7,3.6-23.2,7.3l-12,6.9l0.3,0.2l0,0l0,0l0,0l24.6,14.2l12-6.9
		c5.8-3.2,12.6-5.5,20.4-6.8l1.5-0.9l0,0l0,0l0,0l0.3-0.2L47.9,29.1L47.9,29.1z M13.3,43.3l11.6-6.7c6.5-3.6,14-5.9,23-7.2
		l23.3,13.4l-1.3,0.8C62,45,55.3,47.2,49.4,50.5l-11.9,6.9L13.3,43.3L13.3,43.3z"/>
</g>
</svg>
