<?xml version="1.0" encoding="utf-8"?>
<!-- Generator: Adobe Illustrator 16.0.0, SVG Export Plug-In . SVG Version: 6.00 Build 0)  -->
<!DOCTYPE svg PUBLIC "-//W3C//DTD SVG 1.1//EN" "http://www.w3.org/Graphics/SVG/1.1/DTD/svg11.dtd">
<svg version="1.1" id="图层_1" xmlns="http://www.w3.org/2000/svg" xmlns:xlink="http://www.w3.org/1999/xlink" x="0px" y="0px"
	 width="100px" height="100px" viewBox="0 0 100 100" style="enable-background:new 0 0 100 100;" xml:space="preserve">
<style type="text/css">
<![CDATA[
	.st0{opacity:0;fill:#FFFFFF;}
	.st1{fill:#4E646D;}
	.st2{fill:url(#SVGID_1_);}
	.st3{fill:url(#SVGID_2_);}
	.st4{fill:url(#SVGID_3_);}
	.st5{fill:url(#SVGID_4_);}
	.st6{fill:#FFFFFF;}
]]>
</style>
<rect class="st0" width="100" height="100"/>
<g>
	<linearGradient id="SVGID_1_" gradientUnits="userSpaceOnUse" x1="0" y1="64.7861" x2="100" y2="64.7861">
		<stop  offset="0" style="stop-color:#3D4F5A"/>
		<stop  offset="0.5" style="stop-color:#607A88"/>
		<stop  offset="1" style="stop-color:#3D4F5A"/>
	</linearGradient>
	<path class="st2" d="M100,41.3v17.4c0,16.3-22.4,29.6-50,29.6C22.4,88.3,0,75,0,58.7V41.3c0,16.3,22.4,29.6,50,29.6
		C77.6,70.9,100,57.6,100,41.3z"/>
	<linearGradient id="SVGID_2_" gradientUnits="userSpaceOnUse" x1="9.765625e-004" y1="41.2998" x2="99.999" y2="41.2998">
		<stop  offset="0" style="stop-color:#86A2B1"/>
		<stop  offset="0.5" style="stop-color:#A9BFCB"/>
		<stop  offset="1" style="stop-color:#86A2B1"/>
	</linearGradient>
	<ellipse class="st3" cx="50" cy="41.3" rx="50" ry="29.6"/>
	<linearGradient id="SVGID_3_" gradientUnits="userSpaceOnUse" x1="7.4844" y1="55.2998" x2="92.5186" y2="55.2998">
		<stop  offset="0" style="stop-color:#3D4F5A"/>
		<stop  offset="0.5" style="stop-color:#607A88"/>
		<stop  offset="1" style="stop-color:#3D4F5A"/>
	</linearGradient>
	<path class="st4" d="M92.5,43.2c0,13.9-19,25.1-42.5,25.1c-23.5,0-42.5-11.3-42.5-25.1c0-0.3,0-0.6,0-0.9
		C8.4,55.7,27.1,66.4,50,66.4c22.9,0,41.6-10.7,42.5-24.2C92.5,42.6,92.5,42.9,92.5,43.2z"/>
	<radialGradient id="SVGID_4_" cx="50" cy="41.2998" r="34.9293" gradientUnits="userSpaceOnUse">
		<stop  offset="0" style="stop-color:#C4D3DB"/>
		<stop  offset="1" style="stop-color:#7B9AA9"/>
	</radialGradient>
	<ellipse class="st5" cx="50" cy="41.3" rx="42.5" ry="25.1"/>
	<g>
		<polygon class="st1" points="41.7,43.4 39.7,44.5 39.4,45.8 41.9,45.8 45,42.6 45.3,41.3 44.3,41.9 41.9,39.4 41.7,39.4 
			41.9,39.1 39.7,38.1 39.4,39.4 41.3,41.4 40.4,41.9 38,39.4 37.8,39.4 38,39.1 35.9,38.1 35.5,39.4 37.5,41.4 36.6,41.9 
			34.2,39.4 34,39.4 34.1,39.1 32,38.1 31.7,39.4 31.7,39.4 33.6,41.4 32.7,41.9 30.3,39.4 21.2,39.4 21.2,37.4 13.6,41.8 
			12.7,41.3 12.4,42.6 21.2,47.8 21.5,46.5 21.2,46.3 21.2,45.8 30.3,45.8 33.4,42.6 33.4,42.6 33.6,41.4 34.7,42.6 34,43.4 
			32,44.5 31.7,45.8 31.7,45.8 34.2,45.8 37.2,42.6 37.2,42.6 37.5,41.4 38.6,42.6 37.9,43.4 35.9,44.5 35.5,45.8 38,45.8 
			41.1,42.6 41.1,42.6 41.4,41.4 42.5,42.6 		"/>
		<path class="st1" d="M58.5,34.6l0.3-1.3h-3.7v-2.7l0.3-1.3l-0.3,0v-0.1L51,27.8l4.1,0.6l0.3-1.3l-0.3,0v-0.2L51,25.5l4.1,0.6
			l0.3-1.3l-0.3,0v-0.2L51,23.2l4.1,0.6l0.3-1.3l-0.3,0v-0.2l-5.4-1.8L47,21.4L44.6,21l-0.3,1.3v1.5l0.2-0.1l-0.2,0.9h0h0v1.5
			l0.2-0.1l-0.2,0.9h0l0,0v1.5l0.2-0.1l-0.2,0.9l0,0l0,0v4.1h-3l-0.3,1.3l8.8,5.2L58.5,34.6z M47.4,22.7l1.7,0.2L47,23.7l-1.7-0.2
			L47.4,22.7z M47.4,25l1.7,0.2L47,26l-1.7-0.2L47.4,25z M47.1,28.2L45.3,28l2-0.7l1.7,0.2L47.1,28.2z"/>
		<polygon class="st1" points="49.7,45.4 43,49.3 41.2,49.3 40.9,50.6 44.2,50.6 44.2,56 44.4,56 44.2,56.8 44.2,56.8 44.2,56.8 
			44.2,58.2 44.4,58.3 44.2,59.1 44.2,60.5 44.4,60.6 44.2,61.4 44.2,62.8 49.7,64.6 55.1,62.8 55.4,61.6 55.1,61.5 55.1,61.4 
			54.8,61.5 53,61.2 55.1,60.5 55.4,59.3 55.1,59.2 55.1,59.1 54.8,59.2 53,58.9 55.1,58.2 55.1,58.2 55.4,57 55.1,56.9 55.1,56.8 
			54.8,56.9 53,56.6 55.1,56 55.1,56 55.4,54.7 55.1,54.6 55.1,50.6 58.5,50.6 58.8,49.3 56.3,49.3 		"/>
		<polygon class="st1" points="84.6,41 84.6,41.1 79.2,38 79.6,37.4 78.5,36.1 78.2,37.4 78.2,39.4 69.1,39.4 66.9,41.6 66.3,41.3 
			66,42.6 66,42.6 67.7,44.3 64.6,42.6 67.7,39.4 68,38.1 66.3,38.9 66.3,39.4 65.2,39.4 63,41.6 62.5,41.3 62.1,42.6 62.1,42.6 
			63.8,44.3 60.8,42.6 63.8,39.4 64.1,38.1 62.2,38.9 62.2,39.4 61.3,39.4 59.2,41.6 58.6,41.3 58.3,42.6 59.9,44.3 56.9,42.6 
			60,39.4 60.3,38.1 58.1,38.6 57.8,39.4 57.5,39.4 55.3,41.6 54.7,41.3 54.4,42.6 57.5,45.8 60,45.8 60.2,44.6 61.3,45.8 
			63.8,45.8 63.8,45.8 63.8,45.8 64.1,44.6 65.2,45.8 67.7,45.8 67.7,45.8 67.7,45.8 68,44.6 69.1,45.8 78.2,45.8 78.2,47.8 
			87,42.6 87.3,41.3 		"/>
	</g>
	<g>
		<g>
			<polygon class="st6" points="66.3,41.3 69.4,38.1 78.5,38.1 78.5,36.1 87.3,41.3 78.5,46.5 78.5,44.5 69.4,44.5 			"/>
			<polygon class="st6" points="65.5,38.1 68,38.1 64.9,41.3 68,44.5 65.5,44.5 62.5,41.3 			"/>
			<polygon class="st6" points="61.7,38.1 64.1,38.1 61.1,41.3 64.1,44.5 61.7,44.5 58.6,41.3 			"/>
			<polygon class="st6" points="57.8,38.1 60.3,38.1 57.2,41.3 60.3,44.5 57.8,44.5 54.7,41.3 			"/>
		</g>
		<g>
			<polygon class="st6" points="33.7,41.3 30.6,44.5 21.5,44.5 21.5,46.5 12.7,41.3 21.5,36.1 21.5,38.1 30.6,38.1 			"/>
			<polygon class="st6" points="34.5,44.5 32,44.5 35.1,41.3 32,38.1 34.5,38.1 37.5,41.3 			"/>
			<polygon class="st6" points="38.3,44.5 35.9,44.5 38.9,41.3 35.9,38.1 38.3,38.1 41.4,41.3 			"/>
			<polygon class="st6" points="42.2,44.5 39.7,44.5 42.8,41.3 39.7,38.1 42.2,38.1 45.3,41.3 			"/>
		</g>
		<g>
			<polygon class="st6" points="50,26.1 44.6,27.9 44.6,33.3 41.2,33.3 50,38.5 58.8,33.3 55.4,33.3 55.4,27.9 			"/>
			<polygon class="st6" points="44.6,25.6 44.6,27.1 50,25.3 55.4,27.1 55.4,25.6 50,23.8 			"/>
			<polygon class="st6" points="44.6,23.3 44.6,24.8 50,23 55.4,24.8 55.4,23.3 50,21.5 			"/>
			<polygon class="st6" points="44.6,21 44.6,22.5 50,20.7 55.4,22.5 55.4,21 50,19.2 			"/>
		</g>
		<g>
			<polygon class="st6" points="50,56.5 55.4,54.7 55.4,49.3 58.8,49.3 50,44.1 41.2,49.3 44.6,49.3 44.6,54.7 			"/>
			<polygon class="st6" points="55.4,57 55.4,55.5 50,57.3 44.6,55.5 44.6,57 50,58.8 			"/>
			<polygon class="st6" points="55.4,59.3 55.4,57.8 50,59.6 44.6,57.8 44.6,59.3 50,61.1 			"/>
			<polygon class="st6" points="55.4,61.6 55.4,60.1 50,61.9 44.6,60.1 44.6,61.6 50,63.4 			"/>
		</g>
	</g>
</g>
</svg>
