<?xml version="1.0" encoding="utf-8"?>
<!-- Generator: Adobe Illustrator 16.0.0, SVG Export Plug-In . SVG Version: 6.00 Build 0)  -->
<!DOCTYPE svg PUBLIC "-//W3C//DTD SVG 1.1//EN" "http://www.w3.org/Graphics/SVG/1.1/DTD/svg11.dtd">
<svg version="1.1" id="图层_1" xmlns="http://www.w3.org/2000/svg" xmlns:xlink="http://www.w3.org/1999/xlink" x="0px" y="0px"
	 width="100px" height="100px" viewBox="0 0 100 100" style="enable-background:new 0 0 100 100;" xml:space="preserve">
<style type="text/css">
<![CDATA[
	.st0{fill:#4E646D;}
	.st1{fill:url(#SVGID_1_);}
	.st2{fill:url(#SVGID_2_);}
	.st3{fill:url(#SVGID_3_);}
	.st4{fill:url(#SVGID_4_);}
	.st5{fill:#FFFFFF;}
]]>
</style>
<g>
	
		<linearGradient id="SVGID_1_" gradientUnits="userSpaceOnUse" x1="512.0703" y1="753.7871" x2="612" y2="753.7871" gradientTransform="matrix(1 0 0 1 -512 -690)">
		<stop  offset="0" style="stop-color:#3D4F5A"/>
		<stop  offset="0.5" style="stop-color:#607A88"/>
		<stop  offset="1" style="stop-color:#3D4F5A"/>
	</linearGradient>
	<path class="st1" d="M100,40.3v17.5c0,1.4-0.9,2.8-2.7,3.8L56.4,85.7c-3.6,2.1-9.3,2.1-12.9,0L2.7,61.6c-2-1.2-2.8-2.7-2.6-4.3
		V40.8c0.2,1.2,1.1,2.4,2.6,3.3l40.9,24.2c3.6,2.1,9.3,2.1,12.9,0l40.9-24.2C99.1,43,100,41.7,100,40.3z"/>
	
		<linearGradient id="SVGID_2_" gradientUnits="userSpaceOnUse" x1="512" y1="730.2998" x2="612" y2="730.2998" gradientTransform="matrix(1 0 0 1 -512 -690)">
		<stop  offset="0" style="stop-color:#86A2B1"/>
		<stop  offset="0.5" style="stop-color:#A9BFCB"/>
		<stop  offset="1" style="stop-color:#86A2B1"/>
	</linearGradient>
	<path class="st2" d="M97.3,36.5c3.6,2.1,3.6,5.5,0,7.6L56.5,68.3c-3.6,2.1-9.3,2.1-12.9,0L2.7,44.1c-3.6-2.1-3.6-5.5,0-7.6
		l40.9-24.2c3.6-2.1,9.3-2.1,12.9,0L97.3,36.5z"/>
	
		<linearGradient id="SVGID_3_" gradientUnits="userSpaceOnUse" x1="519.5" y1="743.8242" x2="604.4004" y2="743.8242" gradientTransform="matrix(1 0 0 1 -512 -690)">
		<stop  offset="0" style="stop-color:#3D4F5A"/>
		<stop  offset="0.5" style="stop-color:#607A88"/>
		<stop  offset="1" style="stop-color:#3D4F5A"/>
	</linearGradient>
	<path class="st3" d="M92.4,40.3v2c0,1.2-0.8,2.3-2.3,3.2L55.5,66c-3,1.8-7.9,1.8-11,0L9.8,45.5c-0.8-0.4-1.3-1-1.7-1.5
		c-0.4-0.6-0.6-1.1-0.6-1.7v-2l0,0c0,1.2,0.8,2.3,2.3,3.2L44.5,64c3,1.8,7.9,1.8,11,0l34.7-20.5C91.7,42.6,92.4,41.4,92.4,40.3
		L92.4,40.3z"/>
	
		<radialGradient id="SVGID_4_" cx="1146.0293" cy="-230.749" r="109.5431" gradientTransform="matrix(0.3185 0 0 0.3185 -315.0107 113.7934)" gradientUnits="userSpaceOnUse">
		<stop  offset="0" style="stop-color:#C4D3DB"/>
		<stop  offset="1" style="stop-color:#7B9AA9"/>
	</radialGradient>
	<path class="st4" d="M90.2,37c3,1.8,3,4.7,0,6.5L55.5,64.1c-3,1.8-7.9,1.8-11,0L9.8,43.5c-3-1.8-3-4.7,0-6.5l34.7-20.5
		c3-1.8,7.9-1.8,11,0L90.2,37z"/>
	<g>
		<polygon class="st0" points="53.5,30 53.8,28.7 51.6,28.7 51.6,27 48.6,26 46.3,26.7 46.3,26.3 48.6,25.5 51.6,26.6 51.9,25.3 
			51.6,25.1 51.9,24 51.6,23.9 51.9,22.7 50.3,21.8 49,21.3 45.9,21.9 45.5,23.2 45.5,24 45.7,24 45.5,24.5 45.5,25.3 45.7,25.2 
			45.5,25.7 45.5,26.6 45.7,26.5 45.5,27 45.5,28.7 44,28.7 43.8,30 43.7,30 48.6,32.9 		"/>
		<path class="st0" d="M63.7,36.3H63l2.7-1.6l0.2-1l0.3,0.6l1-0.6l0.2-1l0.3,0.6l1-0.6l0.2-1l0.3,0.6l1-0.6l0.3-1.3l-1.3-1.6
			l-3.9-0.3L65,29.8l-1.3-0.1l-0.3,1l-1.3-0.1l-0.2,1.2l3.3,0.6l0.4,0.9l-0.4-0.2l-0.3,0.1l-0.2-0.5l-3.4-0.5l-3.6,2.1L57.1,34
			l0.1-0.3l-0.6-1.4l-0.3,1.3v4.1h6.9L63.7,36.3z M68.3,30.6l0.2,0.5L68,30.5L68.3,30.6z M66.8,31.5l0.3,0.6l-0.6-0.6H66.8z"/>
		<path class="st0" d="M81.7,41.5L81.7,41.5l0.3-0.4L81.1,40l-1.5-0.8l-0.3,1.3l0.8,0.8l-0.5,0.3l-0.3-0.4l0.4-0.3l-2.2-1.7
			l-0.3,1.3l0.3,0.4l-2.2-1.6L75,40.4l0,0l0.4,0.5l-0.8-0.1l-0.4-0.4h-5.1v-1.1l-3.7,2.2L64.5,41l-0.3,1.3l3.5,2.1l-1.1,0.3
			l-23.4-14l-9.8,5.8l-0.2-0.2l-1.7,0.2l-0.3,1.3L56,52.5l12-7.1l0.2-0.8l1,0.6l0.3-1.1h4.8l1-1.1L75,44.1h1.4l1-1.1l-0.3,1.1h1.4
			l1-1.1l-0.3,1.1h1.4l1.7-1.8l0.3-1.3L81.7,41.5z M56.1,50.2l-21-12.4l8.2-4.8l21,12.4L56.1,50.2z M75.7,42.6l0.3-0.4l0.2-0.6
			l0.4,0.5L75.7,42.6z M77.5,41.5l-0.2-0.2l0.4-0.4l0.3,0.4L77.5,41.5z M77.8,42.6l0.3-0.3l0.2-0.6l0.4,0.5L77.8,42.6z M80.6,42.7
			h-0.8l0.5-0.5l0.2-0.6l0.6,0.6L80.6,42.7z"/>
		<path class="st0" d="M38.8,44.4l-0.3,1.1l-1.3-0.2l-0.3,1l-1.3-0.1l-0.3,1.3l3.3,0.6l0.5,1h-0.7l-0.3-0.7l-3.2-0.6l-3.6,2.1
			L31,49.7l0.1-0.1l-0.8-1.8L30,49.1v4.1h6.9l0.3-1.3l-0.5-0.1l2.6-1.5l0.2-1l0.3,0.6l1-0.6l0.2-1l0.3,0.6l1-0.6l0.2-1l0.3,0.6
			l1-0.6l0.3-1.3l-1.4-1.2L38.8,44.4z M39.8,47l0.5,0.1l0.3,0.7L39.8,47z M41.5,46.1l0.4,0.1l0.3,0.6L41.5,46.1z"/>
	</g>
	<g>
		<g>
			<g>
				<g>
					<polygon class="st5" points="65,31.4 61.7,30.9 58.1,33 56.8,32.2 56.8,36.3 63.7,36.3 62.4,35.5 66,33.4 					"/>
				</g>
				<g>
					<polygon class="st5" points="63.2,30 62.2,30.5 65.6,31.1 66.5,33.1 67.5,32.5 66.5,30.5 					"/>
				</g>
				<g>
					<polygon class="st5" points="64.7,29.1 63.7,29.6 67.1,30.2 68,32.2 69,31.6 68.1,29.6 					"/>
				</g>
				<g>
					<polygon class="st5" points="66.2,28.2 65.3,28.7 68.6,29.3 69.5,31.3 70.5,30.7 69.6,28.7 					"/>
				</g>
			</g>
			<g>
				<g>
					<polygon class="st5" points="76.3,41 74.6,39.2 69.5,39.2 69.5,38.1 64.7,41 69.5,43.8 69.5,42.7 74.6,42.7 					"/>
				</g>
				<g>
					<polygon class="st5" points="76.8,39.2 75.4,39.2 77.1,41 75.4,42.7 76.8,42.7 78.5,41 					"/>
				</g>
				<g>
					<polygon class="st5" points="78.9,39.2 77.5,39.2 79.3,41 77.5,42.7 78.9,42.7 80.6,41 					"/>
				</g>
				<g>
					<polygon class="st5" points="81.1,39.2 79.7,39.2 81.4,41 79.7,42.7 81.1,42.7 82.8,41 					"/>
				</g>
			</g>
			<g>
				<g>
					<polygon class="st5" points="48.9,24.7 45.9,25.7 45.9,28.7 44,28.7 48.9,31.6 53.8,28.7 51.9,28.7 51.9,25.7 					"/>
				</g>
				<g>
					<polygon class="st5" points="45.9,24.5 45.9,25.3 48.9,24.3 51.9,25.3 51.9,24.5 48.9,23.4 					"/>
				</g>
				<g>
					<polygon class="st5" points="45.9,23.2 45.9,24 48.9,23 51.9,24 51.9,23.2 48.9,22.2 					"/>
				</g>
				<g>
					<polygon class="st5" points="45.9,21.9 45.9,22.7 48.9,21.7 51.9,22.7 51.9,21.9 48.9,20.9 					"/>
				</g>
			</g>
			<g>
				<g>
					<polygon class="st5" points="38.6,47 35.3,46.5 31.7,48.6 30.3,47.8 30.3,51.9 37.3,51.9 35.9,51.1 39.5,49 					"/>
				</g>
				<g>
					<polygon class="st5" points="36.8,45.6 35.8,46.2 39.1,46.7 40.1,48.7 41.1,48.1 40.1,46.1 					"/>
				</g>
				<g>
					<polygon class="st5" points="38.3,44.7 37.3,45.3 40.7,45.8 41.6,47.8 42.6,47.2 41.7,45.2 					"/>
				</g>
				<g>
					<polygon class="st5" points="39.8,43.8 38.8,44.4 42.2,44.9 43.1,46.9 44.1,46.3 43.2,44.3 					"/>
				</g>
			</g>
		</g>
		<g>
			<path class="st5" d="M56.4,51.2L31.6,36.5l12-7.1l24.8,14.7L56.4,51.2z M35.4,36.5l21,12.4l8.2-4.8l-21-12.4L35.4,36.5z"/>
		</g>
	</g>
</g>
</svg>
