<?xml version="1.0" encoding="utf-8"?>
<!-- Generator: Adobe Illustrator 16.0.0, SVG Export Plug-In . SVG Version: 6.00 Build 0)  -->
<!DOCTYPE svg PUBLIC "-//W3C//DTD SVG 1.1//EN" "http://www.w3.org/Graphics/SVG/1.1/DTD/svg11.dtd">
<svg version="1.1" id="图层_1" xmlns="http://www.w3.org/2000/svg" xmlns:xlink="http://www.w3.org/1999/xlink" x="0px" y="0px"
	 width="100px" height="100px" viewBox="0 0 100 100" style="enable-background:new 0 0 100 100;" xml:space="preserve">
<style type="text/css">
<![CDATA[
	.st0{fill:#4E646D;}
	.st1{fill:url(#SVGID_1_);}
	.st2{fill:url(#SVGID_2_);}
	.st3{fill:url(#SVGID_3_);}
	.st4{fill:url(#SVGID_4_);}
	.st5{fill:#FFFFFF;}
]]>
</style>
<g>
	
		<linearGradient id="SVGID_1_" gradientUnits="userSpaceOnUse" x1="512.0703" y1="759.8623" x2="612" y2="759.8623" gradientTransform="matrix(1 0 0 1 -512 -690)">
		<stop  offset="0" style="stop-color:#3D4F5A"/>
		<stop  offset="0.5" style="stop-color:#607A88"/>
		<stop  offset="1" style="stop-color:#3D4F5A"/>
	</linearGradient>
	<path class="st1" d="M100,46.4v17.5c0,1.4-0.9,2.8-2.7,3.8L56.4,91.8c-3.6,2.1-9.3,2.1-12.9,0L2.7,67.7c-2-1.2-2.8-2.7-2.6-4.3
		V46.9c0.2,1.2,1.1,2.4,2.6,3.3l40.9,24.2c3.6,2.1,9.3,2.1,12.9,0l40.9-24.2C99.1,49.1,100,47.8,100,46.4z"/>
	
		<linearGradient id="SVGID_2_" gradientUnits="userSpaceOnUse" x1="512" y1="736.375" x2="612" y2="736.375" gradientTransform="matrix(1 0 0 1 -512 -690)">
		<stop  offset="0" style="stop-color:#86A2B1"/>
		<stop  offset="0.5" style="stop-color:#A9BFCB"/>
		<stop  offset="1" style="stop-color:#86A2B1"/>
	</linearGradient>
	<path class="st2" d="M97.3,42.6c3.6,2.1,3.6,5.5,0,7.6L56.5,74.4c-3.6,2.1-9.3,2.1-12.9,0L2.7,50.2c-3.6-2.1-3.6-5.5,0-7.6
		l40.9-24.2c3.6-2.1,9.3-2.1,12.9,0L97.3,42.6z"/>
	
		<linearGradient id="SVGID_3_" gradientUnits="userSpaceOnUse" x1="519.5" y1="749.9004" x2="604.3994" y2="749.9004" gradientTransform="matrix(1 0 0 1 -512 -690)">
		<stop  offset="0" style="stop-color:#3D4F5A"/>
		<stop  offset="0.5" style="stop-color:#607A88"/>
		<stop  offset="1" style="stop-color:#3D4F5A"/>
	</linearGradient>
	<path class="st3" d="M92.4,46.4v2c0,1.2-0.8,2.3-2.3,3.2L55.5,72.1c-3,1.8-7.9,1.8-11,0L9.8,51.6c-0.8-0.4-1.3-1-1.7-1.5
		c-0.4-0.6-0.6-1.1-0.6-1.7v-2l0,0c0,1.2,0.8,2.3,2.3,3.2l34.7,20.5c3,1.8,7.9,1.8,11,0l34.7-20.5C91.7,48.7,92.4,47.5,92.4,46.4
		L92.4,46.4z"/>
	
		<radialGradient id="SVGID_4_" cx="1146.0293" cy="-228.1592" r="109.5432" gradientTransform="matrix(0.3185 0 0 0.3185 -315.0107 119.0434)" gradientUnits="userSpaceOnUse">
		<stop  offset="0" style="stop-color:#C4D3DB"/>
		<stop  offset="1" style="stop-color:#7B9AA9"/>
	</radialGradient>
	<path class="st4" d="M90.2,43.1c3,1.8,3,4.7,0,6.5L55.5,70.2c-3,1.8-7.9,1.8-11,0L9.8,49.6c-3-1.8-3-4.7,0-6.5l34.7-20.5
		c3-1.8,7.9-1.8,11,0L90.2,43.1z"/>
	<path class="st0" d="M81.5,45.5c-0.6-1.7-1.9-3.3-4.1-4.6c-5.9-3.5-15.4-3.5-21.2,0c-1.7,1-3,2.3-3.7,3.6H21
		c-1.5,0-2.9,0.4-3.7,1.1h-0.9v1.6c0,1.5,2.1,2.7,4.6,2.7h1.8v4.5c0,0.8,1,1.4,2.3,1.4l0,0h11.4c1.3,0,2.3-0.6,2.4-1.4l0,0v-4.5
		h13.6c0.7,1.3,1.9,2.5,3.7,3.6c5.9,3.5,15.4,3.5,21.2,0c2.9-1.7,4.4-4,4.4-6.3v-1.6L81.5,45.5z M70.8,49.7c-2.3,1.3-5.9,1.3-8.2,0
		s-2.3-3.5,0-4.8s5.9-1.3,8.2,0S73.1,48.4,70.8,49.7z"/>
	<path class="st5" d="M20.9,43c-2.5,0-4.6,1.2-4.6,2.7s2.1,2.7,4.6,2.7h1.8v4.5c0,0.8,1,1.4,2.3,1.4l0,0h11.4c1.3,0,2.3-0.6,2.4-1.4
		l0,0v-4.5h13.6c0.7,1.3,1.9,2.5,3.7,3.6c5.9,3.5,15.4,3.5,21.2,0c5.9-3.5,5.9-9.1,0-12.6s-15.4-3.5-21.2,0c-1.7,1-3,2.3-3.7,3.6
		H20.9L20.9,43z M62.7,43.3c2.3-1.3,5.9-1.3,8.2,0c2.3,1.3,2.3,3.5,0,4.8c-2.3,1.3-5.9,1.3-8.2,0C60.4,46.8,60.4,44.6,62.7,43.3z"/>
</g>
</svg>
