<?xml version="1.0" encoding="utf-8"?>
<!-- Generator: Adobe Illustrator 16.0.0, SVG Export Plug-In . SVG Version: 6.00 Build 0)  -->
<!DOCTYPE svg PUBLIC "-//W3C//DTD SVG 1.1//EN" "http://www.w3.org/Graphics/SVG/1.1/DTD/svg11.dtd">
<svg version="1.1" id="图层_1" xmlns="http://www.w3.org/2000/svg" xmlns:xlink="http://www.w3.org/1999/xlink" x="0px" y="0px"
	 width="142px" height="120px" viewBox="-21 -10 142 120" style="enable-background:new -21 -10 142 120;" xml:space="preserve">
<style type="text/css">
<![CDATA[
	.st0{fill:url(#SVGID_100_);}
	.st1{fill:url(#SVGID_101_);}
	.st2{fill:url(#SVGID_102_);}
	.st3{fill:url(#SVGID_103_);}
	.st4{fill:url(#SVGID_104_);}
	.st5{fill:url(#SVGID_105_);}
	.st6{fill:url(#SVGID_106_);}
	.st7{fill:url(#SVGID_107_);}
	.st8{fill:url(#SVGID_1_);}
	.st9{fill:url(#SVGID_2_);}
	.st10{fill:url(#SVGID_3_);}
	.st11{fill:url(#SVGID_4_);}
	.st12{fill:url(#SVGID_5_);}
	.st13{fill:url(#SVGID_6_);}
	.st14{fill:url(#SVGID_7_);}
	.st15{fill:url(#SVGID_8_);}
	.st16{fill:url(#SVGID_9_);}
	.st17{fill:#6D8D9D;}
	.st18{fill:url(#SVGID_10_);}
	.st19{fill:url(#SVGID_11_);}
	.st20{fill:url(#SVGID_12_);}
	.st21{fill:url(#SVGID_13_);}
	.st22{fill:url(#SVGID_14_);}
	.st23{fill:url(#SVGID_15_);}
	.st24{fill:url(#SVGID_16_);}
	.st25{fill:url(#SVGID_17_);}
	.st26{fill:url(#SVGID_18_);}
	.st27{fill:url(#SVGID_19_);}
	.st28{fill:url(#SVGID_20_);}
	.st29{fill:url(#SVGID_21_);}
	.st30{fill:url(#SVGID_22_);}
	.st31{fill:url(#SVGID_23_);}
	.st32{fill:url(#SVGID_24_);}
	.st33{fill:url(#SVGID_25_);}
	.st34{fill:url(#SVGID_26_);}
	.st35{fill:url(#SVGID_27_);}
	.st36{fill:url(#SVGID_28_);}
	.st37{fill:url(#SVGID_29_);}
	.st38{fill:url(#SVGID_30_);}
	.st39{fill:url(#SVGID_31_);}
	.st40{fill:url(#SVGID_32_);}
	.st41{fill:url(#SVGID_33_);}
	.st42{fill:url(#SVGID_34_);}
	.st43{fill:url(#SVGID_35_);}
	.st44{fill:url(#SVGID_36_);}
	.st45{fill:url(#SVGID_37_);}
	.st46{fill:url(#SVGID_38_);}
	.st47{fill:url(#SVGID_39_);}
	.st48{fill:url(#SVGID_40_);}
	.st49{fill:url(#SVGID_41_);}
	.st50{fill:url(#SVGID_42_);}
	.st51{fill:url(#SVGID_43_);}
	.st52{fill:url(#SVGID_44_);}
	.st53{fill:url(#SVGID_45_);}
	.st54{fill:url(#SVGID_46_);}
	.st55{fill:url(#SVGID_47_);}
	.st56{fill:url(#SVGID_48_);}
	.st57{fill:url(#SVGID_49_);}
	.st58{fill:url(#SVGID_50_);}
	.st59{fill:url(#SVGID_51_);}
	.st60{fill:url(#SVGID_52_);}
	.st61{fill:url(#SVGID_53_);}
	.st62{fill:url(#SVGID_54_);}
	.st63{fill:url(#SVGID_55_);}
	.st64{fill:url(#SVGID_56_);}
	.st65{fill:url(#SVGID_57_);}
	.st66{fill:url(#SVGID_58_);}
	.st67{fill:url(#SVGID_59_);}
	.st68{fill:url(#SVGID_60_);}
	.st69{fill:url(#SVGID_61_);}
	.st70{fill:url(#SVGID_62_);}
	.st71{fill:url(#SVGID_63_);}
	.st72{fill:url(#SVGID_64_);}
	.st73{fill:url(#SVGID_65_);}
	.st74{fill:url(#SVGID_66_);}
	.st75{fill:url(#SVGID_67_);}
	.st76{fill:url(#SVGID_68_);}
	.st77{fill:url(#SVGID_69_);}
	.st78{fill:url(#SVGID_70_);}
	.st79{fill:url(#SVGID_71_);}
	.st80{fill:url(#SVGID_72_);}
	.st81{fill:url(#SVGID_73_);}
	.st82{fill:url(#SVGID_74_);}
	.st83{fill:url(#SVGID_75_);}
	.st84{fill:url(#SVGID_76_);}
	.st85{fill:url(#SVGID_77_);}
	.st86{fill:url(#SVGID_78_);}
	.st87{fill:url(#SVGID_79_);}
	.st88{fill:url(#SVGID_80_);}
	.st89{fill:url(#SVGID_81_);}
	.st90{fill:url(#SVGID_82_);}
	.st91{fill:url(#SVGID_83_);}
	.st92{fill:url(#SVGID_84_);}
	.st93{fill:url(#SVGID_85_);}
	.st94{fill:url(#SVGID_86_);}
	.st95{fill:url(#SVGID_87_);}
	.st96{fill:url(#SVGID_88_);}
	.st97{fill:url(#SVGID_89_);}
	.st98{fill:url(#SVGID_90_);}
	.st99{fill:url(#SVGID_91_);}
	.st100{fill:url(#SVGID_92_);}
	.st101{fill:url(#SVGID_93_);}
	.st102{fill:url(#SVGID_94_);}
	.st103{fill:url(#SVGID_95_);}
	.st104{fill:url(#SVGID_96_);}
	.st105{fill:url(#SVGID_97_);}
	.st106{fill:url(#SVGID_98_);}
	.st107{fill:url(#SVGID_99_);}
]]>
</style>
<g>
	<g>
		<polygon class="st17" points="54.7,110 -20.5,65.7 -20.5,62.6 54.7,106.9 		"/>
		
			<linearGradient id="SVGID_1_" gradientUnits="userSpaceOnUse" x1="290.0264" y1="-339.9658" x2="321.9431" y2="-284.6844" gradientTransform="matrix(1 0 0 -1 -256 -245)">
			<stop  offset="0" style="stop-color:#98B2BF"/>
			<stop  offset="1" style="stop-color:#B7CAD5"/>
		</linearGradient>
		<polygon class="st8" points="-20.5,62.6 45.4,27.7 120.5,72 54.7,106.9 		"/>
		
			<linearGradient id="SVGID_2_" gradientUnits="userSpaceOnUse" x1="343.5996" y1="-355" x2="343.5996" y2="-317.0547" gradientTransform="matrix(1 0 0 -1 -256 -245)">
			<stop  offset="0" style="stop-color:#3D4F5A"/>
			<stop  offset="1" style="stop-color:#607A88"/>
		</linearGradient>
		<polygon class="st9" points="54.7,110 120.5,75.2 120.5,72 54.7,106.9 		"/>
	</g>
	<g>
		<g>
			<g>
				<polygon class="st17" points="20.2,73.9 2.2,63.3 2.2,13.1 20.2,23.6 				"/>
				
					<linearGradient id="SVGID_3_" gradientUnits="userSpaceOnUse" x1="278.4229" y1="-269.9463" x2="299.3827" y2="-233.6428" gradientTransform="matrix(1 0 0 -1 -256 -245)">
					<stop  offset="0" style="stop-color:#98B2BF"/>
					<stop  offset="1" style="stop-color:#B7CAD5"/>
				</linearGradient>
				<polygon class="st10" points="2.2,13.1 45.7,-10 63.6,0.5 20.2,23.6 				"/>
				
					<linearGradient id="SVGID_4_" gradientUnits="userSpaceOnUse" x1="297.8994" y1="-318.9004" x2="297.8994" y2="-245.5" gradientTransform="matrix(1 0 0 -1 -256 -245)">
					<stop  offset="0" style="stop-color:#3D4F5A"/>
					<stop  offset="1" style="stop-color:#607A88"/>
				</linearGradient>
				<polygon class="st11" points="20.2,73.9 63.6,50.8 63.6,0.5 20.2,23.6 				"/>
			</g>
			<polygon class="st17" points="18.5,74.9 0.6,64.4 0.6,14.1 18.5,24.7 			"/>
			
				<linearGradient id="SVGID_5_" gradientUnits="userSpaceOnUse" x1="259.1426" y1="-269.1997" x2="271.9267" y2="-269.1997" gradientTransform="matrix(1 0 0 -1 -256 -245)">
				<stop  offset="0" style="stop-color:#C7D6DE"/>
				<stop  offset="1" style="stop-color:#97B1BE"/>
			</linearGradient>
			<polygon class="st12" points="15.9,30.9 3.1,23.4 3.1,17.5 15.9,25 			"/>
			
				<linearGradient id="SVGID_6_" gradientUnits="userSpaceOnUse" x1="259.5" y1="-268.1494" x2="271.5747" y2="-268.1494" gradientTransform="matrix(1 0 0 -1 -256 -245)">
				<stop  offset="0" style="stop-color:#607A88"/>
				<stop  offset="1" style="stop-color:#3D4F5A"/>
			</linearGradient>
			<polygon class="st13" points="15.6,27.3 3.5,20.2 3.5,19 15.6,26.1 			"/>
			
				<linearGradient id="SVGID_7_" gradientUnits="userSpaceOnUse" x1="265.7705" y1="-264.6191" x2="266.4274" y2="-263.4813" gradientTransform="matrix(1 0 0 -1 -256 -245)">
				<stop  offset="0" style="stop-color:#98B2BF"/>
				<stop  offset="1" style="stop-color:#B7CAD5"/>
			</linearGradient>
			<polygon class="st14" points="0.6,14.1 1.7,13.4 19.6,24 18.5,24.7 			"/>
			
				<linearGradient id="SVGID_8_" gradientUnits="userSpaceOnUse" x1="275.0498" y1="-319.9004" x2="275.0498" y2="-269" gradientTransform="matrix(1 0 0 -1 -256 -245)">
				<stop  offset="0" style="stop-color:#3D4F5A"/>
				<stop  offset="1" style="stop-color:#607A88"/>
			</linearGradient>
			<polygon class="st15" points="18.5,74.9 19.6,74.3 19.6,24 18.5,24.7 			"/>
			<g>
				<g>
					<g>
						
							<linearGradient id="SVGID_9_" gradientUnits="userSpaceOnUse" x1="256.5674" y1="-274.6494" x2="274.5024" y2="-274.6494" gradientTransform="matrix(1 0 0 -1 -256 -245)">
							<stop  offset="0" style="stop-color:#98B2BF"/>
							<stop  offset="1" style="stop-color:#B7CAD5"/>
						</linearGradient>
						<polygon class="st16" points="18.5,35.7 0.6,25.1 0.6,23.6 18.5,34.2 						"/>
					</g>
					
						<linearGradient id="SVGID_10_" gradientUnits="userSpaceOnUse" x1="275.0498" y1="-280.6758" x2="275.0498" y2="-278.5478" gradientTransform="matrix(1 0 0 -1 -256 -245)">
						<stop  offset="0" style="stop-color:#98B2BF"/>
						<stop  offset="1" style="stop-color:#B7CAD5"/>
					</linearGradient>
					<polygon class="st18" points="18.5,35.7 19.6,35 19.6,33.5 18.5,34.2 					"/>
				</g>
			</g>
			<g>
				<g>
					<g>
						
							<linearGradient id="SVGID_11_" gradientUnits="userSpaceOnUse" x1="256.5674" y1="-276.6494" x2="274.5024" y2="-276.6494" gradientTransform="matrix(1 0 0 -1 -256 -245)">
							<stop  offset="0" style="stop-color:#98B2BF"/>
							<stop  offset="1" style="stop-color:#B7CAD5"/>
						</linearGradient>
						<polygon class="st19" points="18.5,37.7 0.6,27.1 0.6,25.6 18.5,36.2 						"/>
					</g>
					
						<linearGradient id="SVGID_12_" gradientUnits="userSpaceOnUse" x1="275.0498" y1="-282.6523" x2="275.0498" y2="-280.5244" gradientTransform="matrix(1 0 0 -1 -256 -245)">
						<stop  offset="0" style="stop-color:#98B2BF"/>
						<stop  offset="1" style="stop-color:#B7CAD5"/>
					</linearGradient>
					<polygon class="st20" points="18.5,37.7 19.6,37 19.6,35.5 18.5,36.2 					"/>
				</g>
			</g>
			
				<linearGradient id="SVGID_13_" gradientUnits="userSpaceOnUse" x1="260.6201" y1="-309.5996" x2="274.4995" y2="-309.5996" gradientTransform="matrix(1 0 0 -1 -256 -245)">
				<stop  offset="0" style="stop-color:#98B2BF"/>
				<stop  offset="1" style="stop-color:#B7CAD5"/>
			</linearGradient>
			<polygon class="st21" points="18.5,68.3 18.5,69.1 4.6,61 4.6,60.1 			"/>
			
				<linearGradient id="SVGID_14_" gradientUnits="userSpaceOnUse" x1="275.0498" y1="-314.1299" x2="275.0498" y2="-312.6084" gradientTransform="matrix(1 0 0 -1 -256 -245)">
				<stop  offset="0" style="stop-color:#98B2BF"/>
				<stop  offset="1" style="stop-color:#B7CAD5"/>
			</linearGradient>
			<polygon class="st22" points="18.5,69.1 19.6,68.5 19.6,67.6 18.5,68.3 			"/>
			
				<linearGradient id="SVGID_15_" gradientUnits="userSpaceOnUse" x1="260.6201" y1="-308.2988" x2="274.4995" y2="-308.2988" gradientTransform="matrix(1 0 0 -1 -256 -245)">
				<stop  offset="0" style="stop-color:#98B2BF"/>
				<stop  offset="1" style="stop-color:#B7CAD5"/>
			</linearGradient>
			<polygon class="st23" points="18.5,67 18.5,67.8 4.6,59.7 4.6,58.8 			"/>
			
				<linearGradient id="SVGID_16_" gradientUnits="userSpaceOnUse" x1="275.0498" y1="-312.8389" x2="275.0498" y2="-311.3174" gradientTransform="matrix(1 0 0 -1 -256 -245)">
				<stop  offset="0" style="stop-color:#98B2BF"/>
				<stop  offset="1" style="stop-color:#B7CAD5"/>
			</linearGradient>
			<polygon class="st24" points="18.5,67.8 19.6,67.2 19.6,66.3 18.5,67 			"/>
			
				<linearGradient id="SVGID_17_" gradientUnits="userSpaceOnUse" x1="260.6201" y1="-307" x2="274.4995" y2="-307" gradientTransform="matrix(1 0 0 -1 -256 -245)">
				<stop  offset="0" style="stop-color:#98B2BF"/>
				<stop  offset="1" style="stop-color:#B7CAD5"/>
			</linearGradient>
			<polygon class="st25" points="18.5,65.7 18.5,66.5 4.6,58.4 4.6,57.5 			"/>
			
				<linearGradient id="SVGID_18_" gradientUnits="userSpaceOnUse" x1="275.0498" y1="-311.5479" x2="275.0498" y2="-310.0244" gradientTransform="matrix(1 0 0 -1 -256 -245)">
				<stop  offset="0" style="stop-color:#98B2BF"/>
				<stop  offset="1" style="stop-color:#B7CAD5"/>
			</linearGradient>
			<polygon class="st26" points="18.5,66.5 19.6,65.9 19.6,65 18.5,65.7 			"/>
			
				<linearGradient id="SVGID_19_" gradientUnits="userSpaceOnUse" x1="260.6201" y1="-305.749" x2="274.4995" y2="-305.749" gradientTransform="matrix(1 0 0 -1 -256 -245)">
				<stop  offset="0" style="stop-color:#98B2BF"/>
				<stop  offset="1" style="stop-color:#B7CAD5"/>
			</linearGradient>
			<polygon class="st27" points="18.5,64.4 18.5,65.3 4.6,57.1 4.6,56.2 			"/>
			
				<linearGradient id="SVGID_20_" gradientUnits="userSpaceOnUse" x1="275.0498" y1="-310.2559" x2="275.0498" y2="-308.7344" gradientTransform="matrix(1 0 0 -1 -256 -245)">
				<stop  offset="0" style="stop-color:#98B2BF"/>
				<stop  offset="1" style="stop-color:#B7CAD5"/>
			</linearGradient>
			<polygon class="st28" points="18.5,65.3 19.6,64.6 19.6,63.7 18.5,64.4 			"/>
			
				<linearGradient id="SVGID_21_" gradientUnits="userSpaceOnUse" x1="260.6201" y1="-304.4502" x2="274.4995" y2="-304.4502" gradientTransform="matrix(1 0 0 -1 -256 -245)">
				<stop  offset="0" style="stop-color:#98B2BF"/>
				<stop  offset="1" style="stop-color:#B7CAD5"/>
			</linearGradient>
			<polygon class="st29" points="18.5,63.1 18.5,64 4.6,55.8 4.6,54.9 			"/>
			
				<linearGradient id="SVGID_22_" gradientUnits="userSpaceOnUse" x1="275.0498" y1="-308.9658" x2="275.0498" y2="-307.4424" gradientTransform="matrix(1 0 0 -1 -256 -245)">
				<stop  offset="0" style="stop-color:#98B2BF"/>
				<stop  offset="1" style="stop-color:#B7CAD5"/>
			</linearGradient>
			<polygon class="st30" points="18.5,64 19.6,63.3 19.6,62.4 18.5,63.1 			"/>
			
				<linearGradient id="SVGID_23_" gradientUnits="userSpaceOnUse" x1="260.6201" y1="-303.1494" x2="274.4995" y2="-303.1494" gradientTransform="matrix(1 0 0 -1 -256 -245)">
				<stop  offset="0" style="stop-color:#98B2BF"/>
				<stop  offset="1" style="stop-color:#B7CAD5"/>
			</linearGradient>
			<polygon class="st31" points="18.5,61.8 18.5,62.7 4.6,54.5 4.6,53.6 			"/>
			
				<linearGradient id="SVGID_24_" gradientUnits="userSpaceOnUse" x1="275.0498" y1="-307.6719" x2="275.0498" y2="-306.1524" gradientTransform="matrix(1 0 0 -1 -256 -245)">
				<stop  offset="0" style="stop-color:#98B2BF"/>
				<stop  offset="1" style="stop-color:#B7CAD5"/>
			</linearGradient>
			<polygon class="st32" points="18.5,62.7 19.6,62 19.6,61.2 18.5,61.8 			"/>
			
				<linearGradient id="SVGID_25_" gradientUnits="userSpaceOnUse" x1="260.6201" y1="-301.8496" x2="274.4995" y2="-301.8496" gradientTransform="matrix(1 0 0 -1 -256 -245)">
				<stop  offset="0" style="stop-color:#98B2BF"/>
				<stop  offset="1" style="stop-color:#B7CAD5"/>
			</linearGradient>
			<polygon class="st33" points="18.5,60.5 18.5,61.4 4.6,53.2 4.6,52.3 5.3,52.8 			"/>
			
				<linearGradient id="SVGID_26_" gradientUnits="userSpaceOnUse" x1="275.0498" y1="-306.3818" x2="275.0498" y2="-304.8604" gradientTransform="matrix(1 0 0 -1 -256 -245)">
				<stop  offset="0" style="stop-color:#98B2BF"/>
				<stop  offset="1" style="stop-color:#B7CAD5"/>
			</linearGradient>
			<polygon class="st34" points="18.5,61.4 19.6,60.7 19.6,59.9 18.5,60.5 			"/>
			
				<linearGradient id="SVGID_27_" gradientUnits="userSpaceOnUse" x1="260.9492" y1="-298.2051" x2="260.9492" y2="-297.3477" gradientTransform="matrix(1 0 0 -1 -256 -245)">
				<stop  offset="0" style="stop-color:#3D4F5A"/>
				<stop  offset="1" style="stop-color:#607A88"/>
			</linearGradient>
			<polygon class="st35" points="5.3,52.8 4.6,53.2 4.6,52.3 			"/>
			
				<linearGradient id="SVGID_28_" gradientUnits="userSpaceOnUse" x1="260.9492" y1="-299.499" x2="260.9492" y2="-298.6426" gradientTransform="matrix(1 0 0 -1 -256 -245)">
				<stop  offset="0" style="stop-color:#3D4F5A"/>
				<stop  offset="1" style="stop-color:#607A88"/>
			</linearGradient>
			<polygon class="st36" points="5.3,54.1 4.6,54.5 4.6,53.6 			"/>
			
				<linearGradient id="SVGID_29_" gradientUnits="userSpaceOnUse" x1="260.9492" y1="-300.7959" x2="260.9492" y2="-299.9394" gradientTransform="matrix(1 0 0 -1 -256 -245)">
				<stop  offset="0" style="stop-color:#3D4F5A"/>
				<stop  offset="1" style="stop-color:#607A88"/>
			</linearGradient>
			<polygon class="st37" points="5.3,55.4 4.6,55.8 4.6,54.9 			"/>
			
				<linearGradient id="SVGID_30_" gradientUnits="userSpaceOnUse" x1="260.9492" y1="-302.0898" x2="260.9492" y2="-301.2304" gradientTransform="matrix(1 0 0 -1 -256 -245)">
				<stop  offset="0" style="stop-color:#3D4F5A"/>
				<stop  offset="1" style="stop-color:#607A88"/>
			</linearGradient>
			<polygon class="st38" points="5.3,56.7 4.6,57.1 4.6,56.2 			"/>
			
				<linearGradient id="SVGID_31_" gradientUnits="userSpaceOnUse" x1="260.9492" y1="-303.3857" x2="260.9492" y2="-302.5284" gradientTransform="matrix(1 0 0 -1 -256 -245)">
				<stop  offset="0" style="stop-color:#3D4F5A"/>
				<stop  offset="1" style="stop-color:#607A88"/>
			</linearGradient>
			<polygon class="st39" points="5.3,58 4.6,58.4 4.6,57.5 			"/>
			
				<linearGradient id="SVGID_32_" gradientUnits="userSpaceOnUse" x1="260.9492" y1="-304.6787" x2="260.9492" y2="-303.8213" gradientTransform="matrix(1 0 0 -1 -256 -245)">
				<stop  offset="0" style="stop-color:#3D4F5A"/>
				<stop  offset="1" style="stop-color:#607A88"/>
			</linearGradient>
			<polygon class="st40" points="5.3,59.2 4.6,59.7 4.6,58.8 			"/>
			
				<linearGradient id="SVGID_33_" gradientUnits="userSpaceOnUse" x1="260.9492" y1="-305.9766" x2="260.9492" y2="-305.1182" gradientTransform="matrix(1 0 0 -1 -256 -245)">
				<stop  offset="0" style="stop-color:#3D4F5A"/>
				<stop  offset="1" style="stop-color:#607A88"/>
			</linearGradient>
			<polygon class="st41" points="5.3,60.5 4.6,61 4.6,60.1 			"/>
			<g>
				
					<linearGradient id="SVGID_34_" gradientUnits="userSpaceOnUse" x1="268.7881" y1="-322.7314" x2="273.3809" y2="-322.7314" gradientTransform="matrix(1 0.589 0 -1 -256 -433.8607)">
					<stop  offset="0" style="stop-color:#3D4F5A"/>
					<stop  offset="1" style="stop-color:#607A88"/>
				</linearGradient>
				<path class="st42" d="M17.4,49.9c0,1.3-1,1.7-2.3,0.9c-1.3-0.7-2.3-2.4-2.3-3.6c0-1.2,1-1.7,2.3-0.9
					C16.4,47,17.4,48.7,17.4,49.9z"/>
				
					<radialGradient id="SVGID_35_" cx="-652.0103" cy="-335.6855" r="4.7199" gradientTransform="matrix(0.4311 0.2539 0 -0.4311 296.2905 69.5321)" gradientUnits="userSpaceOnUse">
					<stop  offset="0" style="stop-color:#B7CAD5"/>
					<stop  offset="1" style="stop-color:#98B2BF"/>
				</radialGradient>
				<path class="st43" d="M17.2,49.9c0,1.1-0.9,1.5-2,0.8c-1.1-0.7-2-2.1-2-3.2c0-1.1,0.9-1.5,2-0.8C16.3,47.3,17.2,48.8,17.2,49.9z
					"/>
			</g>
			<g>
				
					<linearGradient id="SVGID_36_" gradientUnits="userSpaceOnUse" x1="270.3926" y1="-326.582" x2="271.7764" y2="-326.582" gradientTransform="matrix(1 0.589 0 -1 -256 -433.8607)">
					<stop  offset="0" style="stop-color:#3D4F5A"/>
					<stop  offset="1" style="stop-color:#607A88"/>
				</linearGradient>
				<path class="st44" d="M15.8,52.8c0,0.4-0.3,0.5-0.7,0.3s-0.7-0.7-0.7-1.1s0.3-0.5,0.7-0.3C15.5,51.9,15.8,52.4,15.8,52.8z"/>
				
					<radialGradient id="SVGID_37_" cx="-652.2104" cy="-344.3545" r="1.4232" gradientTransform="matrix(0.4311 0.2539 0 -0.4311 296.2905 69.5321)" gradientUnits="userSpaceOnUse">
					<stop  offset="0" style="stop-color:#B7CAD5"/>
					<stop  offset="1" style="stop-color:#98B2BF"/>
				</radialGradient>
				<path class="st45" d="M15.7,52.7c0,0.3-0.3,0.5-0.6,0.3c-0.3-0.2-0.6-0.6-0.6-1c0-0.3,0.3-0.5,0.6-0.3
					C15.5,52,15.7,52.4,15.7,52.7z"/>
			</g>
		</g>
		<g>
			<g>
				<polygon class="st17" points="38.1,84.5 20.2,73.9 20.2,23.6 38.1,34.2 				"/>
				
					<linearGradient id="SVGID_38_" gradientUnits="userSpaceOnUse" x1="296.4033" y1="-280.5293" x2="317.3706" y2="-244.2129" gradientTransform="matrix(1 0 0 -1 -256 -245)">
					<stop  offset="0" style="stop-color:#98B2BF"/>
					<stop  offset="1" style="stop-color:#B7CAD5"/>
				</linearGradient>
				<polygon class="st46" points="20.2,23.6 63.6,0.5 81.6,11.1 38.1,34.2 				"/>
				
					<linearGradient id="SVGID_39_" gradientUnits="userSpaceOnUse" x1="315.8496" y1="-329.5" x2="315.8496" y2="-256.0996" gradientTransform="matrix(1 0 0 -1 -256 -245)">
					<stop  offset="0" style="stop-color:#3D4F5A"/>
					<stop  offset="1" style="stop-color:#607A88"/>
				</linearGradient>
				<polygon class="st47" points="38.1,84.5 81.6,61.4 81.6,11.1 38.1,34.2 				"/>
			</g>
			<polygon class="st17" points="36.4,85.5 18.5,74.9 18.5,24.7 36.4,35.2 			"/>
			
				<linearGradient id="SVGID_40_" gradientUnits="userSpaceOnUse" x1="277.0742" y1="-279.75" x2="289.8584" y2="-279.75" gradientTransform="matrix(1 0 0 -1 -256 -245)">
				<stop  offset="0" style="stop-color:#C7D6DE"/>
				<stop  offset="1" style="stop-color:#97B1BE"/>
			</linearGradient>
			<polygon class="st48" points="33.9,41.5 21.1,33.9 21.1,28 33.9,35.6 			"/>
			
				<linearGradient id="SVGID_41_" gradientUnits="userSpaceOnUse" x1="277.4277" y1="-278.6997" x2="289.5029" y2="-278.6997" gradientTransform="matrix(1 0 0 -1 -256 -245)">
				<stop  offset="0" style="stop-color:#607A88"/>
				<stop  offset="1" style="stop-color:#3D4F5A"/>
			</linearGradient>
			<polygon class="st49" points="33.5,37.9 21.4,30.8 21.4,29.5 33.5,36.6 			"/>
			
				<linearGradient id="SVGID_42_" gradientUnits="userSpaceOnUse" x1="283.7314" y1="-275.2012" x2="284.3893" y2="-274.0618" gradientTransform="matrix(1 0 0 -1 -256 -245)">
				<stop  offset="0" style="stop-color:#98B2BF"/>
				<stop  offset="1" style="stop-color:#B7CAD5"/>
			</linearGradient>
			<polygon class="st50" points="18.5,24.7 19.6,24 37.6,34.6 36.4,35.2 			"/>
			
				<linearGradient id="SVGID_43_" gradientUnits="userSpaceOnUse" x1="293" y1="-330.5" x2="293" y2="-279.5996" gradientTransform="matrix(1 0 0 -1 -256 -245)">
				<stop  offset="0" style="stop-color:#3D4F5A"/>
				<stop  offset="1" style="stop-color:#607A88"/>
			</linearGradient>
			<polygon class="st51" points="36.4,85.5 37.6,84.8 37.6,34.6 36.4,35.2 			"/>
			<g>
				<g>
					<g>
						
							<linearGradient id="SVGID_44_" gradientUnits="userSpaceOnUse" x1="274.5" y1="-285.1992" x2="292.4321" y2="-285.1992" gradientTransform="matrix(1 0 0 -1 -256 -245)">
							<stop  offset="0" style="stop-color:#98B2BF"/>
							<stop  offset="1" style="stop-color:#B7CAD5"/>
						</linearGradient>
						<polygon class="st52" points="36.4,46.2 18.5,35.7 18.5,34.2 36.4,44.8 						"/>
					</g>
					
						<linearGradient id="SVGID_45_" gradientUnits="userSpaceOnUse" x1="293" y1="-291.2412" x2="293" y2="-289.1123" gradientTransform="matrix(1 0 0 -1 -256 -245)">
						<stop  offset="0" style="stop-color:#98B2BF"/>
						<stop  offset="1" style="stop-color:#B7CAD5"/>
					</linearGradient>
					<polygon class="st53" points="36.4,46.2 37.6,45.6 37.6,44.1 36.4,44.8 					"/>
				</g>
			</g>
			<g>
				<g>
					<g>
						
							<linearGradient id="SVGID_46_" gradientUnits="userSpaceOnUse" x1="274.5" y1="-287.1992" x2="292.4321" y2="-287.1992" gradientTransform="matrix(1 0 0 -1 -256 -245)">
							<stop  offset="0" style="stop-color:#98B2BF"/>
							<stop  offset="1" style="stop-color:#B7CAD5"/>
						</linearGradient>
						<polygon class="st54" points="36.4,48.2 18.5,37.7 18.5,36.2 36.4,46.8 						"/>
					</g>
					
						<linearGradient id="SVGID_47_" gradientUnits="userSpaceOnUse" x1="293" y1="-293.2148" x2="293" y2="-291.088" gradientTransform="matrix(1 0 0 -1 -256 -245)">
						<stop  offset="0" style="stop-color:#98B2BF"/>
						<stop  offset="1" style="stop-color:#B7CAD5"/>
					</linearGradient>
					<polygon class="st55" points="36.4,48.2 37.6,47.6 37.6,46.1 36.4,46.8 					"/>
				</g>
			</g>
			
				<linearGradient id="SVGID_48_" gradientUnits="userSpaceOnUse" x1="278.5518" y1="-320.1992" x2="292.4308" y2="-320.1992" gradientTransform="matrix(1 0 0 -1 -256 -245)">
				<stop  offset="0" style="stop-color:#98B2BF"/>
				<stop  offset="1" style="stop-color:#B7CAD5"/>
			</linearGradient>
			<polygon class="st56" points="36.4,78.8 36.4,79.7 22.6,71.5 22.6,70.7 			"/>
			
				<linearGradient id="SVGID_49_" gradientUnits="userSpaceOnUse" x1="293" y1="-324.6943" x2="293" y2="-323.1709" gradientTransform="matrix(1 0 0 -1 -256 -245)">
				<stop  offset="0" style="stop-color:#98B2BF"/>
				<stop  offset="1" style="stop-color:#B7CAD5"/>
			</linearGradient>
			<polygon class="st57" points="36.4,79.7 37.6,79 37.6,78.2 36.4,78.8 			"/>
			
				<linearGradient id="SVGID_50_" gradientUnits="userSpaceOnUse" x1="278.5518" y1="-318.9004" x2="292.4308" y2="-318.9004" gradientTransform="matrix(1 0 0 -1 -256 -245)">
				<stop  offset="0" style="stop-color:#98B2BF"/>
				<stop  offset="1" style="stop-color:#B7CAD5"/>
			</linearGradient>
			<polygon class="st58" points="36.4,77.5 36.4,78.4 22.6,70.2 22.6,69.4 			"/>
			
				<linearGradient id="SVGID_51_" gradientUnits="userSpaceOnUse" x1="293" y1="-323.4048" x2="293" y2="-321.8833" gradientTransform="matrix(1 0 0 -1 -256 -245)">
				<stop  offset="0" style="stop-color:#98B2BF"/>
				<stop  offset="1" style="stop-color:#B7CAD5"/>
			</linearGradient>
			<polygon class="st59" points="36.4,78.4 37.6,77.7 37.6,76.9 36.4,77.5 			"/>
			
				<linearGradient id="SVGID_52_" gradientUnits="userSpaceOnUse" x1="278.5518" y1="-317.5996" x2="292.4308" y2="-317.5996" gradientTransform="matrix(1 0 0 -1 -256 -245)">
				<stop  offset="0" style="stop-color:#98B2BF"/>
				<stop  offset="1" style="stop-color:#B7CAD5"/>
			</linearGradient>
			<polygon class="st60" points="36.4,76.3 36.4,77.1 22.6,68.9 22.6,68.1 			"/>
			
				<linearGradient id="SVGID_53_" gradientUnits="userSpaceOnUse" x1="293" y1="-322.1108" x2="293" y2="-320.5894" gradientTransform="matrix(1 0 0 -1 -256 -245)">
				<stop  offset="0" style="stop-color:#98B2BF"/>
				<stop  offset="1" style="stop-color:#B7CAD5"/>
			</linearGradient>
			<polygon class="st61" points="36.4,77.1 37.6,76.4 37.6,75.6 36.4,76.3 			"/>
			
				<linearGradient id="SVGID_54_" gradientUnits="userSpaceOnUse" x1="278.5518" y1="-316.2988" x2="292.4308" y2="-316.2988" gradientTransform="matrix(1 0 0 -1 -256 -245)">
				<stop  offset="0" style="stop-color:#98B2BF"/>
				<stop  offset="1" style="stop-color:#B7CAD5"/>
			</linearGradient>
			<polygon class="st62" points="36.4,75 36.4,75.8 22.6,67.6 22.6,66.8 			"/>
			
				<linearGradient id="SVGID_55_" gradientUnits="userSpaceOnUse" x1="293" y1="-320.8193" x2="293" y2="-319.2998" gradientTransform="matrix(1 0 0 -1 -256 -245)">
				<stop  offset="0" style="stop-color:#98B2BF"/>
				<stop  offset="1" style="stop-color:#B7CAD5"/>
			</linearGradient>
			<polygon class="st63" points="36.4,75.8 37.6,75.2 37.6,74.3 36.4,75 			"/>
			
				<linearGradient id="SVGID_56_" gradientUnits="userSpaceOnUse" x1="278.5518" y1="-315" x2="292.4308" y2="-315" gradientTransform="matrix(1 0 0 -1 -256 -245)">
				<stop  offset="0" style="stop-color:#98B2BF"/>
				<stop  offset="1" style="stop-color:#B7CAD5"/>
			</linearGradient>
			<polygon class="st64" points="36.4,73.7 36.4,74.5 22.6,66.4 22.6,65.5 			"/>
			
				<linearGradient id="SVGID_57_" gradientUnits="userSpaceOnUse" x1="293" y1="-319.5293" x2="293" y2="-318.0078" gradientTransform="matrix(1 0 0 -1 -256 -245)">
				<stop  offset="0" style="stop-color:#98B2BF"/>
				<stop  offset="1" style="stop-color:#B7CAD5"/>
			</linearGradient>
			<polygon class="st65" points="36.4,74.5 37.6,73.9 37.6,73 36.4,73.7 			"/>
			
				<linearGradient id="SVGID_58_" gradientUnits="userSpaceOnUse" x1="278.5518" y1="-313.6992" x2="292.4308" y2="-313.6992" gradientTransform="matrix(1 0 0 -1 -256 -245)">
				<stop  offset="0" style="stop-color:#98B2BF"/>
				<stop  offset="1" style="stop-color:#B7CAD5"/>
			</linearGradient>
			<polygon class="st66" points="36.4,72.4 36.4,73.2 22.6,65.1 22.6,64.2 			"/>
			
				<linearGradient id="SVGID_59_" gradientUnits="userSpaceOnUse" x1="293" y1="-318.2373" x2="293" y2="-316.7158" gradientTransform="matrix(1 0 0 -1 -256 -245)">
				<stop  offset="0" style="stop-color:#98B2BF"/>
				<stop  offset="1" style="stop-color:#B7CAD5"/>
			</linearGradient>
			<polygon class="st67" points="36.4,73.2 37.6,72.6 37.6,71.7 36.4,72.4 			"/>
			
				<linearGradient id="SVGID_60_" gradientUnits="userSpaceOnUse" x1="278.5518" y1="-312.4004" x2="292.4308" y2="-312.4004" gradientTransform="matrix(1 0 0 -1 -256 -245)">
				<stop  offset="0" style="stop-color:#98B2BF"/>
				<stop  offset="1" style="stop-color:#B7CAD5"/>
			</linearGradient>
			<polygon class="st68" points="36.4,71.1 36.4,71.9 22.6,63.8 22.6,62.9 23.3,63.3 			"/>
			
				<linearGradient id="SVGID_61_" gradientUnits="userSpaceOnUse" x1="293" y1="-316.9478" x2="293" y2="-315.4263" gradientTransform="matrix(1 0 0 -1 -256 -245)">
				<stop  offset="0" style="stop-color:#98B2BF"/>
				<stop  offset="1" style="stop-color:#B7CAD5"/>
			</linearGradient>
			<polygon class="st69" points="36.4,71.9 37.6,71.3 37.6,70.4 36.4,71.1 			"/>
			
				<linearGradient id="SVGID_62_" gradientUnits="userSpaceOnUse" x1="278.9492" y1="-308.7676" x2="278.9492" y2="-307.9131" gradientTransform="matrix(1 0 0 -1 -256 -245)">
				<stop  offset="0" style="stop-color:#3D4F5A"/>
				<stop  offset="1" style="stop-color:#607A88"/>
			</linearGradient>
			<polygon class="st70" points="23.3,63.3 22.6,63.8 22.6,62.9 			"/>
			
				<linearGradient id="SVGID_63_" gradientUnits="userSpaceOnUse" x1="278.9492" y1="-310.0635" x2="278.9492" y2="-309.206" gradientTransform="matrix(1 0 0 -1 -256 -245)">
				<stop  offset="0" style="stop-color:#3D4F5A"/>
				<stop  offset="1" style="stop-color:#607A88"/>
			</linearGradient>
			<polygon class="st71" points="23.3,64.6 22.6,65.1 22.6,64.2 			"/>
			
				<linearGradient id="SVGID_64_" gradientUnits="userSpaceOnUse" x1="278.9492" y1="-311.3594" x2="278.9492" y2="-310.502" gradientTransform="matrix(1 0 0 -1 -256 -245)">
				<stop  offset="0" style="stop-color:#3D4F5A"/>
				<stop  offset="1" style="stop-color:#607A88"/>
			</linearGradient>
			<polygon class="st72" points="23.3,65.9 22.6,66.4 22.6,65.5 			"/>
			
				<linearGradient id="SVGID_65_" gradientUnits="userSpaceOnUse" x1="278.9492" y1="-312.6523" x2="278.9492" y2="-311.795" gradientTransform="matrix(1 0 0 -1 -256 -245)">
				<stop  offset="0" style="stop-color:#3D4F5A"/>
				<stop  offset="1" style="stop-color:#607A88"/>
			</linearGradient>
			<polygon class="st73" points="23.3,67.2 22.6,67.7 22.6,66.8 			"/>
			
				<linearGradient id="SVGID_66_" gradientUnits="userSpaceOnUse" x1="278.9492" y1="-313.9492" x2="278.9492" y2="-313.0908" gradientTransform="matrix(1 0 0 -1 -256 -245)">
				<stop  offset="0" style="stop-color:#3D4F5A"/>
				<stop  offset="1" style="stop-color:#607A88"/>
			</linearGradient>
			<polygon class="st74" points="23.3,68.5 22.6,68.9 22.6,68.1 			"/>
			
				<linearGradient id="SVGID_67_" gradientUnits="userSpaceOnUse" x1="278.9492" y1="-315.2432" x2="278.9492" y2="-314.3873" gradientTransform="matrix(1 0 0 -1 -256 -245)">
				<stop  offset="0" style="stop-color:#3D4F5A"/>
				<stop  offset="1" style="stop-color:#607A88"/>
			</linearGradient>
			<polygon class="st75" points="23.3,69.8 22.6,70.2 22.6,69.4 			"/>
			
				<linearGradient id="SVGID_68_" gradientUnits="userSpaceOnUse" x1="278.9492" y1="-316.5391" x2="278.9492" y2="-315.6805" gradientTransform="matrix(1 0 0 -1 -256 -245)">
				<stop  offset="0" style="stop-color:#3D4F5A"/>
				<stop  offset="1" style="stop-color:#607A88"/>
			</linearGradient>
			<polygon class="st76" points="23.3,71.1 22.6,71.5 22.6,70.7 			"/>
			<g>
				
					<linearGradient id="SVGID_69_" gradientUnits="userSpaceOnUse" x1="286.7178" y1="-322.7402" x2="291.3105" y2="-322.7402" gradientTransform="matrix(1 0.589 0 -1 -256 -433.8607)">
					<stop  offset="0" style="stop-color:#3D4F5A"/>
					<stop  offset="1" style="stop-color:#607A88"/>
				</linearGradient>
				<path class="st77" d="M35.3,60.5c0,1.3-1,1.7-2.3,0.9c-1.3-0.7-2.3-2.4-2.3-3.7c0-1.3,1-1.7,2.3-0.9
					C34.3,57.6,35.3,59.2,35.3,60.5z"/>
				
					<radialGradient id="SVGID_70_" cx="-610.418" cy="-335.6914" r="4.7178" gradientTransform="matrix(0.4311 0.2539 0 -0.4311 296.2905 69.5321)" gradientUnits="userSpaceOnUse">
					<stop  offset="0" style="stop-color:#B7CAD5"/>
					<stop  offset="1" style="stop-color:#98B2BF"/>
				</radialGradient>
				<path class="st78" d="M35.2,60.5c0,1.1-0.9,1.5-2,0.8c-1.1-0.7-2-2.1-2-3.2s0.9-1.5,2-0.8C34.3,58,35.2,59.3,35.2,60.5z"/>
			</g>
			<g>
				
					<linearGradient id="SVGID_71_" gradientUnits="userSpaceOnUse" x1="288.3223" y1="-326.5391" x2="289.708" y2="-326.5391" gradientTransform="matrix(1 0.589 0 -1 -256 -433.8607)">
					<stop  offset="0" style="stop-color:#3D4F5A"/>
					<stop  offset="1" style="stop-color:#607A88"/>
				</linearGradient>
				<path class="st79" d="M33.7,63.3c0,0.4-0.3,0.5-0.7,0.3c-0.4-0.2-0.7-0.7-0.7-1.1s0.3-0.5,0.7-0.3
					C33.4,62.4,33.7,62.9,33.7,63.3z"/>
				
					<radialGradient id="SVGID_72_" cx="-610.6152" cy="-344.3613" r="1.4243" gradientTransform="matrix(0.4311 0.2539 0 -0.4311 296.2905 69.5321)" gradientUnits="userSpaceOnUse">
					<stop  offset="0" style="stop-color:#B7CAD5"/>
					<stop  offset="1" style="stop-color:#98B2BF"/>
				</radialGradient>
				<path class="st80" d="M33.7,63.3c0,0.3-0.3,0.5-0.6,0.3s-0.6-0.6-0.6-1c0-0.3,0.3-0.4,0.6-0.3C33.4,62.5,33.7,63,33.7,63.3z"/>
			</g>
		</g>
		<g>
			<g>
				<polygon class="st17" points="56,95.1 38.1,84.5 38.1,34.3 56,44.8 				"/>
				
					<linearGradient id="SVGID_73_" gradientUnits="userSpaceOnUse" x1="314.3252" y1="-291.1416" x2="335.2744" y2="-254.8565" gradientTransform="matrix(1 0 0 -1 -256 -245)">
					<stop  offset="0" style="stop-color:#98B2BF"/>
					<stop  offset="1" style="stop-color:#B7CAD5"/>
				</linearGradient>
				<polygon class="st81" points="38.1,34.3 81.6,11.2 99.5,21.7 56,44.8 				"/>
				
					<linearGradient id="SVGID_74_" gradientUnits="userSpaceOnUse" x1="333.75" y1="-340.0996" x2="333.75" y2="-266.6992" gradientTransform="matrix(1 0 0 -1 -256 -245)">
					<stop  offset="0" style="stop-color:#3D4F5A"/>
					<stop  offset="1" style="stop-color:#607A88"/>
				</linearGradient>
				<polygon class="st82" points="56,95.1 99.5,72 99.5,21.7 56,44.8 				"/>
			</g>
			<polygon class="st17" points="54.4,96.1 36.4,85.6 36.4,35.3 54.4,45.9 			"/>
			
				<linearGradient id="SVGID_75_" gradientUnits="userSpaceOnUse" x1="295" y1="-290.3994" x2="307.7841" y2="-290.3994" gradientTransform="matrix(1 0 0 -1 -256 -245)">
				<stop  offset="0" style="stop-color:#C7D6DE"/>
				<stop  offset="1" style="stop-color:#97B1BE"/>
			</linearGradient>
			<polygon class="st83" points="51.8,52.1 39,44.6 39,38.7 51.8,46.2 			"/>
			
				<linearGradient id="SVGID_76_" gradientUnits="userSpaceOnUse" x1="295.3594" y1="-289.3496" x2="307.4355" y2="-289.3496" gradientTransform="matrix(1 0 0 -1 -256 -245)">
				<stop  offset="0" style="stop-color:#607A88"/>
				<stop  offset="1" style="stop-color:#3D4F5A"/>
			</linearGradient>
			<polygon class="st84" points="51.4,48.5 39.4,41.4 39.4,40.2 51.4,47.3 			"/>
			
				<linearGradient id="SVGID_77_" gradientUnits="userSpaceOnUse" x1="301.6289" y1="-285.8057" x2="302.2863" y2="-284.6671" gradientTransform="matrix(1 0 0 -1 -256 -245)">
				<stop  offset="0" style="stop-color:#98B2BF"/>
				<stop  offset="1" style="stop-color:#B7CAD5"/>
			</linearGradient>
			<polygon class="st85" points="36.4,35.3 37.6,34.6 55.5,45.2 54.4,45.9 			"/>
			
				<linearGradient id="SVGID_78_" gradientUnits="userSpaceOnUse" x1="310.9492" y1="-341.0996" x2="310.9492" y2="-290.1992" gradientTransform="matrix(1 0 0 -1 -256 -245)">
				<stop  offset="0" style="stop-color:#3D4F5A"/>
				<stop  offset="1" style="stop-color:#607A88"/>
			</linearGradient>
			<polygon class="st86" points="54.4,96.1 55.5,95.5 55.5,45.2 54.4,45.9 			"/>
			<g>
				<g>
					<g>
						
							<linearGradient id="SVGID_79_" gradientUnits="userSpaceOnUse" x1="292.4307" y1="-295.8496" x2="310.3652" y2="-295.8496" gradientTransform="matrix(1 0 0 -1 -256 -245)">
							<stop  offset="0" style="stop-color:#98B2BF"/>
							<stop  offset="1" style="stop-color:#B7CAD5"/>
						</linearGradient>
						<polygon class="st87" points="54.4,56.9 36.4,46.3 36.4,44.8 54.4,55.4 						"/>
					</g>
					
						<linearGradient id="SVGID_80_" gradientUnits="userSpaceOnUse" x1="310.9492" y1="-301.8672" x2="310.9492" y2="-299.7373" gradientTransform="matrix(1 0 0 -1 -256 -245)">
						<stop  offset="0" style="stop-color:#98B2BF"/>
						<stop  offset="1" style="stop-color:#B7CAD5"/>
					</linearGradient>
					<polygon class="st88" points="54.4,56.9 55.5,56.2 55.5,54.7 54.4,55.4 					"/>
				</g>
			</g>
			<g>
				<g>
					<g>
						
							<linearGradient id="SVGID_81_" gradientUnits="userSpaceOnUse" x1="292.4307" y1="-297.7988" x2="310.3652" y2="-297.7988" gradientTransform="matrix(1 0 0 -1 -256 -245)">
							<stop  offset="0" style="stop-color:#98B2BF"/>
							<stop  offset="1" style="stop-color:#B7CAD5"/>
						</linearGradient>
						<polygon class="st89" points="54.4,58.8 36.4,48.3 36.4,46.8 54.4,57.4 						"/>
					</g>
					
						<linearGradient id="SVGID_82_" gradientUnits="userSpaceOnUse" x1="310.9492" y1="-303.8428" x2="310.9492" y2="-301.7139" gradientTransform="matrix(1 0 0 -1 -256 -245)">
						<stop  offset="0" style="stop-color:#98B2BF"/>
						<stop  offset="1" style="stop-color:#B7CAD5"/>
					</linearGradient>
					<polygon class="st90" points="54.4,58.8 55.5,58.2 55.5,56.7 54.4,57.4 					"/>
				</g>
			</g>
			
				<linearGradient id="SVGID_83_" gradientUnits="userSpaceOnUse" x1="296.4834" y1="-330.7988" x2="310.3623" y2="-330.7988" gradientTransform="matrix(1 0 0 -1 -256 -245)">
				<stop  offset="0" style="stop-color:#98B2BF"/>
				<stop  offset="1" style="stop-color:#B7CAD5"/>
			</linearGradient>
			<polygon class="st91" points="54.4,89.5 54.4,90.3 40.5,82.1 40.5,81.3 			"/>
			
				<linearGradient id="SVGID_84_" gradientUnits="userSpaceOnUse" x1="310.9492" y1="-335.3193" x2="310.9492" y2="-333.7979" gradientTransform="matrix(1 0 0 -1 -256 -245)">
				<stop  offset="0" style="stop-color:#98B2BF"/>
				<stop  offset="1" style="stop-color:#B7CAD5"/>
			</linearGradient>
			<polygon class="st92" points="54.4,90.3 55.5,89.7 55.5,88.8 54.4,89.5 			"/>
			
				<linearGradient id="SVGID_85_" gradientUnits="userSpaceOnUse" x1="296.4834" y1="-329.5" x2="310.3623" y2="-329.5" gradientTransform="matrix(1 0 0 -1 -256 -245)">
				<stop  offset="0" style="stop-color:#98B2BF"/>
				<stop  offset="1" style="stop-color:#B7CAD5"/>
			</linearGradient>
			<polygon class="st93" points="54.4,88.2 54.4,89 40.5,80.9 40.5,80 			"/>
			
				<linearGradient id="SVGID_86_" gradientUnits="userSpaceOnUse" x1="310.9492" y1="-334.0273" x2="310.9492" y2="-332.5078" gradientTransform="matrix(1 0 0 -1 -256 -245)">
				<stop  offset="0" style="stop-color:#98B2BF"/>
				<stop  offset="1" style="stop-color:#B7CAD5"/>
			</linearGradient>
			<polygon class="st94" points="54.4,89 55.5,88.4 55.5,87.5 54.4,88.2 			"/>
			
				<linearGradient id="SVGID_87_" gradientUnits="userSpaceOnUse" x1="296.4834" y1="-328.1992" x2="310.3623" y2="-328.1992" gradientTransform="matrix(1 0 0 -1 -256 -245)">
				<stop  offset="0" style="stop-color:#98B2BF"/>
				<stop  offset="1" style="stop-color:#B7CAD5"/>
			</linearGradient>
			<polygon class="st95" points="54.4,86.9 54.4,87.7 40.5,79.6 40.5,78.7 			"/>
			
				<linearGradient id="SVGID_88_" gradientUnits="userSpaceOnUse" x1="310.9492" y1="-332.7373" x2="310.9492" y2="-331.2158" gradientTransform="matrix(1 0 0 -1 -256 -245)">
				<stop  offset="0" style="stop-color:#98B2BF"/>
				<stop  offset="1" style="stop-color:#B7CAD5"/>
			</linearGradient>
			<polygon class="st96" points="54.4,87.7 55.5,87.1 55.5,86.2 54.4,86.9 			"/>
			
				<linearGradient id="SVGID_89_" gradientUnits="userSpaceOnUse" x1="296.4834" y1="-326.9004" x2="310.3623" y2="-326.9004" gradientTransform="matrix(1 0 0 -1 -256 -245)">
				<stop  offset="0" style="stop-color:#98B2BF"/>
				<stop  offset="1" style="stop-color:#B7CAD5"/>
			</linearGradient>
			<polygon class="st97" points="54.4,85.6 54.4,86.4 40.5,78.3 40.5,77.4 			"/>
			
				<linearGradient id="SVGID_90_" gradientUnits="userSpaceOnUse" x1="310.9492" y1="-331.4458" x2="310.9492" y2="-329.9243" gradientTransform="matrix(1 0 0 -1 -256 -245)">
				<stop  offset="0" style="stop-color:#98B2BF"/>
				<stop  offset="1" style="stop-color:#B7CAD5"/>
			</linearGradient>
			<polygon class="st98" points="54.4,86.4 55.5,85.8 55.5,84.9 54.4,85.6 			"/>
			
				<linearGradient id="SVGID_91_" gradientUnits="userSpaceOnUse" x1="296.4834" y1="-325.6494" x2="310.3623" y2="-325.6494" gradientTransform="matrix(1 0 0 -1 -256 -245)">
				<stop  offset="0" style="stop-color:#98B2BF"/>
				<stop  offset="1" style="stop-color:#B7CAD5"/>
			</linearGradient>
			<polygon class="st99" points="54.4,84.3 54.4,85.2 40.5,77 40.5,76.1 			"/>
			
				<linearGradient id="SVGID_92_" gradientUnits="userSpaceOnUse" x1="310.9492" y1="-330.1553" x2="310.9492" y2="-328.6322" gradientTransform="matrix(1 0 0 -1 -256 -245)">
				<stop  offset="0" style="stop-color:#98B2BF"/>
				<stop  offset="1" style="stop-color:#B7CAD5"/>
			</linearGradient>
			<polygon class="st100" points="54.4,85.2 55.5,84.5 55.5,83.6 54.4,84.3 			"/>
			
				<linearGradient id="SVGID_93_" gradientUnits="userSpaceOnUse" x1="296.4834" y1="-324.3496" x2="310.3623" y2="-324.3496" gradientTransform="matrix(1 0 0 -1 -256 -245)">
				<stop  offset="0" style="stop-color:#98B2BF"/>
				<stop  offset="1" style="stop-color:#B7CAD5"/>
			</linearGradient>
			<polygon class="st101" points="54.4,83 54.4,83.9 40.5,75.7 40.5,74.8 			"/>
			
				<linearGradient id="SVGID_94_" gradientUnits="userSpaceOnUse" x1="310.9492" y1="-328.8638" x2="310.9492" y2="-327.3409" gradientTransform="matrix(1 0 0 -1 -256 -245)">
				<stop  offset="0" style="stop-color:#98B2BF"/>
				<stop  offset="1" style="stop-color:#B7CAD5"/>
			</linearGradient>
			<polygon class="st102" points="54.4,83.9 55.5,83.2 55.5,82.3 54.4,83 			"/>
			
				<linearGradient id="SVGID_95_" gradientUnits="userSpaceOnUse" x1="296.4834" y1="-323.0498" x2="310.3623" y2="-323.0498" gradientTransform="matrix(1 0 0 -1 -256 -245)">
				<stop  offset="0" style="stop-color:#98B2BF"/>
				<stop  offset="1" style="stop-color:#B7CAD5"/>
			</linearGradient>
			<polygon class="st103" points="54.4,81.7 54.4,82.6 40.5,74.4 40.5,73.5 41.2,74 			"/>
			
				<linearGradient id="SVGID_96_" gradientUnits="userSpaceOnUse" x1="310.9492" y1="-327.5737" x2="310.9492" y2="-326.0503" gradientTransform="matrix(1 0 0 -1 -256 -245)">
				<stop  offset="0" style="stop-color:#98B2BF"/>
				<stop  offset="1" style="stop-color:#B7CAD5"/>
			</linearGradient>
			<polygon class="st104" points="54.4,82.6 55.5,81.9 55.5,81.1 54.4,81.7 			"/>
			
				<linearGradient id="SVGID_97_" gradientUnits="userSpaceOnUse" x1="296.8496" y1="-319.397" x2="296.8496" y2="-318.5391" gradientTransform="matrix(1 0 0 -1 -256 -245)">
				<stop  offset="0" style="stop-color:#3D4F5A"/>
				<stop  offset="1" style="stop-color:#607A88"/>
			</linearGradient>
			<polygon class="st105" points="41.2,74 40.5,74.4 40.5,73.5 			"/>
			
				<linearGradient id="SVGID_98_" gradientUnits="userSpaceOnUse" x1="296.8496" y1="-320.6885" x2="296.8496" y2="-319.831" gradientTransform="matrix(1 0 0 -1 -256 -245)">
				<stop  offset="0" style="stop-color:#3D4F5A"/>
				<stop  offset="1" style="stop-color:#607A88"/>
			</linearGradient>
			<polygon class="st106" points="41.2,75.3 40.5,75.7 40.5,74.8 			"/>
			
				<linearGradient id="SVGID_99_" gradientUnits="userSpaceOnUse" x1="296.8496" y1="-321.9844" x2="296.8496" y2="-321.1284" gradientTransform="matrix(1 0 0 -1 -256 -245)">
				<stop  offset="0" style="stop-color:#3D4F5A"/>
				<stop  offset="1" style="stop-color:#607A88"/>
			</linearGradient>
			<polygon class="st107" points="41.2,76.6 40.5,77 40.5,76.1 			"/>
			
				<linearGradient id="SVGID_100_" gradientUnits="userSpaceOnUse" x1="296.8496" y1="-323.2783" x2="296.8496" y2="-322.4223" gradientTransform="matrix(1 0 0 -1 -256 -245)">
				<stop  offset="0" style="stop-color:#3D4F5A"/>
				<stop  offset="1" style="stop-color:#607A88"/>
			</linearGradient>
			<polygon class="st0" points="41.2,77.8 40.5,78.3 40.5,77.4 			"/>
			
				<linearGradient id="SVGID_101_" gradientUnits="userSpaceOnUse" x1="296.8496" y1="-324.5737" x2="296.8496" y2="-323.7159" gradientTransform="matrix(1 0 0 -1 -256 -245)">
				<stop  offset="0" style="stop-color:#3D4F5A"/>
				<stop  offset="1" style="stop-color:#607A88"/>
			</linearGradient>
			<polygon class="st1" points="41.2,79.1 40.5,79.6 40.5,78.7 			"/>
			
				<linearGradient id="SVGID_102_" gradientUnits="userSpaceOnUse" x1="296.8496" y1="-325.8696" x2="296.8496" y2="-325.0118" gradientTransform="matrix(1 0 0 -1 -256 -245)">
				<stop  offset="0" style="stop-color:#3D4F5A"/>
				<stop  offset="1" style="stop-color:#607A88"/>
			</linearGradient>
			<polygon class="st2" points="41.2,80.4 40.5,80.9 40.5,80 			"/>
			
				<linearGradient id="SVGID_103_" gradientUnits="userSpaceOnUse" x1="296.8496" y1="-327.1631" x2="296.8496" y2="-326.3056" gradientTransform="matrix(1 0 0 -1 -256 -245)">
				<stop  offset="0" style="stop-color:#3D4F5A"/>
				<stop  offset="1" style="stop-color:#607A88"/>
			</linearGradient>
			<polygon class="st3" points="41.2,81.7 40.5,82.2 40.5,81.3 			"/>
			<g>
				
					<linearGradient id="SVGID_104_" gradientUnits="userSpaceOnUse" x1="304.6514" y1="-322.8467" x2="309.2441" y2="-322.8467" gradientTransform="matrix(1 0.589 0 -1 -256 -433.8607)">
					<stop  offset="0" style="stop-color:#3D4F5A"/>
					<stop  offset="1" style="stop-color:#607A88"/>
				</linearGradient>
				<path class="st4" d="M53.2,71.1c0,1.3-1,1.7-2.3,0.9c-1.3-0.7-2.3-2.4-2.3-3.6c0-1.3,1-1.7,2.3-0.9
					C52.2,68.2,53.2,69.8,53.2,71.1z"/>
				
					<radialGradient id="SVGID_105_" cx="-568.8188" cy="-335.8477" r="4.721" gradientTransform="matrix(0.4311 0.2539 0 -0.4311 296.2905 69.5321)" gradientUnits="userSpaceOnUse">
					<stop  offset="0" style="stop-color:#B7CAD5"/>
					<stop  offset="1" style="stop-color:#98B2BF"/>
				</radialGradient>
				<path class="st5" d="M53.1,71.1c0,1.1-0.9,1.5-2,0.8c-1.1-0.7-2-2.1-2-3.2s0.9-1.5,2-0.8C52.2,68.5,53.1,70,53.1,71.1z"/>
			</g>
			<g>
				
					<linearGradient id="SVGID_106_" gradientUnits="userSpaceOnUse" x1="306.2559" y1="-326.5972" x2="307.6396" y2="-326.5972" gradientTransform="matrix(1 0.589 0 -1 -256 -433.8607)">
					<stop  offset="0" style="stop-color:#3D4F5A"/>
					<stop  offset="1" style="stop-color:#607A88"/>
				</linearGradient>
				<path class="st6" d="M51.6,73.9c0,0.4-0.3,0.5-0.7,0.3c-0.4-0.2-0.7-0.7-0.7-1.1s0.3-0.5,0.7-0.3C51.3,73.1,51.6,73.6,51.6,73.9
					z"/>
				
					<radialGradient id="SVGID_107_" cx="-569.0205" cy="-344.5127" r="1.4226" gradientTransform="matrix(0.4311 0.2539 0 -0.4311 296.2905 69.5321)" gradientUnits="userSpaceOnUse">
					<stop  offset="0" style="stop-color:#B7CAD5"/>
					<stop  offset="1" style="stop-color:#98B2BF"/>
				</radialGradient>
				<path class="st7" d="M51.6,73.9c0,0.3-0.3,0.5-0.6,0.3c-0.3-0.2-0.6-0.6-0.6-1c0-0.3,0.3-0.5,0.6-0.3
					C51.3,73.1,51.6,73.6,51.6,73.9z"/>
			</g>
		</g>
	</g>
</g>
</svg>
