<?xml version="1.0" encoding="utf-8"?>
<!-- Generator: Adobe Illustrator 16.0.0, SVG Export Plug-In . SVG Version: 6.00 Build 0)  -->
<!DOCTYPE svg PUBLIC "-//W3C//DTD SVG 1.1//EN" "http://www.w3.org/Graphics/SVG/1.1/DTD/svg11.dtd">
<svg version="1.1" id="图层_1" xmlns="http://www.w3.org/2000/svg" xmlns:xlink="http://www.w3.org/1999/xlink" x="0px" y="0px"
	 width="100px" height="100px" viewBox="0 0 100 100" style="enable-background:new 0 0 100 100;" xml:space="preserve">
<style type="text/css">
<![CDATA[
	.st0{fill:#4E646D;}
	.st1{fill:url(#SVGID_1_);}
	.st2{fill:url(#SVGID_2_);}
	.st3{fill:url(#SVGID_3_);}
	.st4{fill:url(#SVGID_4_);}
	.st5{fill:#FFFFFF;}
	.st6{fill:#FFFFFF;fill-opacity:0;}
]]>
</style>
<rect class="st6" width="100" height="100"/>
<g>
	
		<linearGradient id="SVGID_1_" gradientUnits="userSpaceOnUse" x1="512.1221" y1="754.7705" x2="611.9502" y2="754.7705" gradientTransform="matrix(1 0 0 1 -512 -690)">
		<stop  offset="0" style="stop-color:#3D4F5A"/>
		<stop  offset="0.5" style="stop-color:#607A88"/>
		<stop  offset="1" style="stop-color:#3D4F5A"/>
	</linearGradient>
	<path class="st1" d="M100,41.3v17.5c0,1.4-0.9,2.8-2.7,3.8l-40.9,24c-3.6,2.1-9.3,2.1-12.9,0l-40.7-24c-2-1.2-2.8-2.7-2.6-4.3V41.8
		c0.2,1.2,1.1,2.4,2.6,3.3l40.9,24.2c3.6,2.1,9.3,2.1,12.9,0l40.9-24.2C99,44,100,42.7,100,41.3z"/>
	
		<linearGradient id="SVGID_2_" gradientUnits="userSpaceOnUse" x1="511.9502" y1="731.2715" x2="611.9502" y2="731.2715" gradientTransform="matrix(1 0 0 1 -512 -690)">
		<stop  offset="0" style="stop-color:#86A2B1"/>
		<stop  offset="0.5" style="stop-color:#A9BFCB"/>
		<stop  offset="1" style="stop-color:#86A2B1"/>
	</linearGradient>
	<path class="st2" d="M97.2,37.5c3.6,2.1,3.6,5.4,0,7.6L56.5,69.3c-3.6,2.1-9.3,2.1-12.9,0L2.7,45.1c-3.6-2.1-3.6-5.4,0-7.6
		l40.9-24.2c3.6-2.1,9.3-2.1,12.9,0L97.2,37.5z"/>
	
		<linearGradient id="SVGID_3_" gradientUnits="userSpaceOnUse" x1="519.5176" y1="744.7676" x2="604.3818" y2="744.7676" gradientTransform="matrix(1 0 0 1 -512 -690)">
		<stop  offset="0" style="stop-color:#3D4F5A"/>
		<stop  offset="0.5" style="stop-color:#607A88"/>
		<stop  offset="1" style="stop-color:#3D4F5A"/>
	</linearGradient>
	<path class="st3" d="M92.4,41.3v2c0,1.2-0.8,2.3-2.3,3.2L55.5,67c-3,1.8-7.9,1.8-11,0L9.8,46.5c-0.8-0.4-1.3-1-1.7-1.5
		c-0.4-0.6-0.6-1.1-0.6-1.7v-2l0,0c0,1.2,0.8,2.3,2.3,3.2l34.7,20.5c3,1.8,7.9,1.8,11,0l34.7-20.5C91.7,43.6,92.4,42.4,92.4,41.3
		L92.4,41.3z"/>
	
		<radialGradient id="SVGID_4_" cx="563.457" cy="726.7793" r="35.2029" gradientTransform="matrix(0.99 0 0 0.99 -507.8221 -678.1893)" gradientUnits="userSpaceOnUse">
		<stop  offset="0" style="stop-color:#C4D3DB"/>
		<stop  offset="1" style="stop-color:#7B9AA9"/>
	</radialGradient>
	<path class="st4" d="M90.2,38c3,1.8,3,4.7,0,6.5L55.5,65c-3,1.8-7.9,1.8-11,0L9.8,44.6c-3-1.8-3-4.7,0-6.5l34.7-20.5
		c3-1.8,7.9-1.8,11,0L90.2,38z"/>
	<g>
		<polygon class="st0" points="46.7,32.3 49.5,38.3 52.5,36.6 52.5,35 51.8,35.1 49.6,30.5 41.4,29.2 41.7,29 40.5,29 39.4,28.8 
			39.1,29 36.4,29 36.4,31.2 37.5,30.8 		"/>
		<polygon class="st0" points="51.3,29.5 54.1,35.6 57.2,33.9 57.2,32.2 56.5,32.4 54.3,27.8 45.1,26.3 45.5,26.1 44.3,26.2 
			44,26.1 43.9,26.2 41.1,26.3 41.1,28.1 41.4,27.9 		"/>
		<polygon class="st0" points="56,26.8 58.8,32.8 61.8,31 61.8,29.5 61.1,29.7 59,25 49.7,23.5 50.6,23.2 45.8,23.6 45.8,25.3 
			46.1,25.2 		"/>
		<polygon class="st0" points="62.6,37.6 59.1,36 59.1,37.6 63.1,40 53.3,45.8 52.2,44.9 52.2,46.5 55,52.5 55.8,52.6 52.7,52.3 
			50.5,47.5 48.5,48.6 47.5,47.7 47.5,49.2 50.4,55.2 56.7,56.3 48.7,56.2 45.9,50.2 43.7,51.4 42.8,50.4 42.8,52 45.7,58.1 
			52.4,59.2 45.5,59.3 44,59 41.2,52.9 39.1,54.2 38.2,53.1 38.2,54.7 41,60.8 51.3,62.4 54.2,60.7 54.2,59.5 56,59.7 58.9,58 
			58.9,56.7 60.6,57 63.6,55.1 53.3,53.5 53.1,53.9 63.6,55.1 63.6,53.9 65.2,54.2 76.2,47.7 80.3,50.1 80.3,37.6 		"/>
		<polygon class="st0" points="40.9,46.6 37.7,46.3 36.9,45.8 47.8,39.3 47.8,37.7 47.1,37.7 45,33.2 34.8,31.6 23.8,38.1 
			19.7,35.7 19.7,48.2 40.9,48.2 		"/>
	</g>
	<g>
		<g>
			<polygon class="st5" points="45,31.7 34.8,30 23.8,36.5 19.7,34.2 19.7,46.6 40.9,46.6 36.9,44.2 47.8,37.7 			"/>
			<polygon class="st5" points="39.4,27.3 36.4,29 46.7,30.7 49.5,36.8 52.5,35 49.6,28.9 			"/>
			<polygon class="st5" points="44,24.5 41.1,26.3 51.3,27.9 54.1,34 57.2,32.2 54.3,26.2 			"/>
			<polygon class="st5" points="48.7,21.7 45.8,23.6 56,25.2 58.8,31.2 61.8,29.5 59,23.5 			"/>
		</g>
		<g>
			<polygon class="st5" points="55,50.9 52.2,44.9 63.1,38.4 59.1,36 80.3,36 80.3,48.5 76.2,46.2 65.2,52.6 			"/>
			<polygon class="st5" points="47.5,47.7 50.5,45.9 53.3,51.9 63.6,53.6 60.6,55.3 50.4,53.7 			"/>
			<polygon class="st5" points="42.8,50.4 45.9,48.6 48.7,54.6 58.9,56.4 56,58.1 45.7,56.5 			"/>
			<polygon class="st5" points="38.2,53.1 41.2,51.4 44,57.5 54.2,59.1 51.3,60.9 41,59.2 			"/>
		</g>
	</g>
</g>
</svg>
