<?xml version="1.0" encoding="utf-8"?>
<!-- Generator: Adobe Illustrator 16.0.0, SVG Export Plug-In . SVG Version: 6.00 Build 0)  -->
<!DOCTYPE svg PUBLIC "-//W3C//DTD SVG 1.1//EN" "http://www.w3.org/Graphics/SVG/1.1/DTD/svg11.dtd">
<svg version="1.1" id="图层_1" xmlns="http://www.w3.org/2000/svg" xmlns:xlink="http://www.w3.org/1999/xlink" x="0px" y="0px"
	 width="100px" height="120px" viewBox="0 -10 100 120" style="enable-background:new 0 -10 100 120;" xml:space="preserve">
<style type="text/css">
<![CDATA[
	.st0{fill:url(#SVGID_1_);}
	.st1{fill:url(#SVGID_2_);}
	.st2{fill:url(#SVGID_3_);}
	.st3{fill:url(#SVGID_4_);}
	.st4{fill:url(#SVGID_5_);}
	.st5{fill:url(#SVGID_6_);}
	.st6{fill:url(#SVGID_7_);}
	.st7{fill:url(#SVGID_8_);}
	.st8{fill:url(#SVGID_9_);}
	.st9{fill:#6D8D9D;}
	.st10{fill:url(#SVGID_10_);}
	.st11{fill:url(#SVGID_11_);}
	.st12{fill:url(#SVGID_12_);}
	.st13{fill:url(#SVGID_13_);}
	.st14{fill:url(#SVGID_14_);}
	.st15{fill:url(#SVGID_15_);}
	.st16{fill:url(#SVGID_16_);}
	.st17{fill:url(#SVGID_17_);}
	.st18{fill:url(#SVGID_18_);}
	.st19{fill:url(#SVGID_19_);}
	.st20{fill:url(#SVGID_20_);}
	.st21{fill:url(#SVGID_21_);}
	.st22{fill:url(#SVGID_22_);}
	.st23{fill:url(#SVGID_23_);}
	.st24{fill:url(#SVGID_24_);}
	.st25{fill:url(#SVGID_25_);}
	.st26{fill:url(#SVGID_26_);}
	.st27{fill:url(#SVGID_27_);}
	.st28{fill:url(#SVGID_28_);}
	.st29{fill:url(#SVGID_29_);}
	.st30{fill:url(#SVGID_30_);}
	.st31{fill:url(#SVGID_31_);}
	.st32{fill:url(#SVGID_32_);}
	.st33{fill:url(#SVGID_33_);}
	.st34{fill:url(#SVGID_34_);}
	.st35{fill:url(#SVGID_35_);}
	.st36{fill:url(#SVGID_36_);}
	.st37{fill:url(#SVGID_37_);}
	.st38{fill:url(#SVGID_38_);}
	.st39{fill:url(#SVGID_39_);}
	.st40{fill:url(#SVGID_40_);}
	.st41{fill:url(#SVGID_41_);}
	.st42{fill:url(#SVGID_42_);}
	.st43{fill:url(#SVGID_43_);}
	.st44{fill:url(#SVGID_44_);}
	.st45{fill:url(#SVGID_45_);}
	.st46{fill:url(#SVGID_46_);}
	.st47{fill:url(#SVGID_47_);}
	.st48{fill:url(#SVGID_48_);}
]]>
</style>
<g>
	<g>
		<g>
			<polygon class="st9" points="33.1,108.9 7.8,93.9 7.8,22.9 33.1,37.8 			"/>
			
				<linearGradient id="SVGID_1_" gradientUnits="userSpaceOnUse" x1="292.3672" y1="-284.6572" x2="321.9604" y2="-233.4002" gradientTransform="matrix(1 0 0 -1 -256 -245)">
				<stop  offset="0" style="stop-color:#98B2BF"/>
				<stop  offset="1" style="stop-color:#B7CAD5"/>
			</linearGradient>
			<polygon class="st0" points="7.8,22.9 69.3,-9.7 94.5,5.2 33.1,37.8 			"/>
			
				<linearGradient id="SVGID_2_" gradientUnits="userSpaceOnUse" x1="319.8496" y1="-353.9014" x2="319.8496" y2="-250.2012" gradientTransform="matrix(1 0 0 -1 -256 -245)">
				<stop  offset="0" style="stop-color:#3D4F5A"/>
				<stop  offset="1" style="stop-color:#607A88"/>
			</linearGradient>
			<polygon class="st1" points="33.1,108.9 94.5,76.2 94.5,5.2 33.1,37.8 			"/>
		</g>
		<polygon class="st9" points="30.8,110.3 5.4,95.4 5.4,24.4 30.8,39.3 		"/>
		
			<linearGradient id="SVGID_3_" gradientUnits="userSpaceOnUse" x1="265.0723" y1="-283.6016" x2="283.1323" y2="-283.6016" gradientTransform="matrix(1 0 0 -1 -256 -245)">
			<stop  offset="0" style="stop-color:#C7D6DE"/>
			<stop  offset="1" style="stop-color:#97B1BE"/>
		</linearGradient>
		<polygon class="st2" points="27.1,48.1 9,37.5 9,29.1 27.1,39.8 		"/>
		
			<linearGradient id="SVGID_4_" gradientUnits="userSpaceOnUse" x1="265.5723" y1="-282.1514" x2="282.6323" y2="-282.1514" gradientTransform="matrix(1 0 0 -1 -256 -245)">
			<stop  offset="0" style="stop-color:#607A88"/>
			<stop  offset="1" style="stop-color:#3D4F5A"/>
		</linearGradient>
		<polygon class="st3" points="26.6,43.1 9.5,33 9.5,31.2 26.6,41.3 		"/>
		
			<linearGradient id="SVGID_5_" gradientUnits="userSpaceOnUse" x1="274.4346" y1="-277.1563" x2="275.3639" y2="-275.5465" gradientTransform="matrix(1 0 0 -1 -256 -245)">
			<stop  offset="0" style="stop-color:#98B2BF"/>
			<stop  offset="1" style="stop-color:#B7CAD5"/>
		</linearGradient>
		<polygon class="st4" points="5.4,24.4 7,23.4 32.3,38.3 30.8,39.3 		"/>
		
			<linearGradient id="SVGID_6_" gradientUnits="userSpaceOnUse" x1="287.5498" y1="-355.3008" x2="287.5498" y2="-283.3008" gradientTransform="matrix(1 0 0 -1 -256 -245)">
			<stop  offset="0" style="stop-color:#3D4F5A"/>
			<stop  offset="1" style="stop-color:#607A88"/>
		</linearGradient>
		<polygon class="st5" points="30.8,110.3 32.3,109.4 32.3,38.3 30.8,39.3 		"/>
		<g>
			<g>
				<g>
					
						<linearGradient id="SVGID_7_" gradientUnits="userSpaceOnUse" x1="261.4492" y1="-291.3008" x2="286.7846" y2="-291.3008" gradientTransform="matrix(1 0 0 -1 -256 -245)">
						<stop  offset="0" style="stop-color:#98B2BF"/>
						<stop  offset="1" style="stop-color:#B7CAD5"/>
					</linearGradient>
					<polygon class="st6" points="30.8,54.8 5.4,39.9 5.4,37.8 30.8,52.8 					"/>
				</g>
				
					<linearGradient id="SVGID_8_" gradientUnits="userSpaceOnUse" x1="287.5498" y1="-299.8398" x2="287.5498" y2="-296.832" gradientTransform="matrix(1 0 0 -1 -256 -245)">
					<stop  offset="0" style="stop-color:#98B2BF"/>
					<stop  offset="1" style="stop-color:#B7CAD5"/>
				</linearGradient>
				<polygon class="st7" points="30.8,54.8 32.3,53.9 32.3,51.8 30.8,52.8 				"/>
			</g>
		</g>
		<g>
			<g>
				<g>
					
						<linearGradient id="SVGID_9_" gradientUnits="userSpaceOnUse" x1="261.4492" y1="-294.1016" x2="286.7846" y2="-294.1016" gradientTransform="matrix(1 0 0 -1 -256 -245)">
						<stop  offset="0" style="stop-color:#98B2BF"/>
						<stop  offset="1" style="stop-color:#B7CAD5"/>
					</linearGradient>
					<polygon class="st8" points="30.8,57.6 5.4,42.7 5.4,40.6 30.8,55.6 					"/>
				</g>
				
					<linearGradient id="SVGID_10_" gradientUnits="userSpaceOnUse" x1="287.5498" y1="-302.6318" x2="287.5498" y2="-299.624" gradientTransform="matrix(1 0 0 -1 -256 -245)">
					<stop  offset="0" style="stop-color:#98B2BF"/>
					<stop  offset="1" style="stop-color:#B7CAD5"/>
				</linearGradient>
				<polygon class="st10" points="30.8,57.6 32.3,56.7 32.3,54.6 30.8,55.6 				"/>
			</g>
		</g>
		
			<linearGradient id="SVGID_11_" gradientUnits="userSpaceOnUse" x1="267.1504" y1="-340.7012" x2="286.75" y2="-340.7012" gradientTransform="matrix(1 0 0 -1 -256 -245)">
			<stop  offset="0" style="stop-color:#98B2BF"/>
			<stop  offset="1" style="stop-color:#B7CAD5"/>
		</linearGradient>
		<polygon class="st11" points="30.8,100.9 30.8,102.1 11.1,90.6 11.1,89.3 		"/>
		
			<linearGradient id="SVGID_12_" gradientUnits="userSpaceOnUse" x1="287.5498" y1="-347.1016" x2="287.5498" y2="-344.9502" gradientTransform="matrix(1 0 0 -1 -256 -245)">
			<stop  offset="0" style="stop-color:#98B2BF"/>
			<stop  offset="1" style="stop-color:#B7CAD5"/>
		</linearGradient>
		<polygon class="st12" points="30.8,102.1 32.3,101.2 32.3,99.9 30.8,100.9 		"/>
		
			<linearGradient id="SVGID_13_" gradientUnits="userSpaceOnUse" x1="267.1504" y1="-338.9014" x2="286.75" y2="-338.9014" gradientTransform="matrix(1 0 0 -1 -256 -245)">
			<stop  offset="0" style="stop-color:#98B2BF"/>
			<stop  offset="1" style="stop-color:#B7CAD5"/>
		</linearGradient>
		<polygon class="st13" points="30.8,99.1 30.8,100.3 11.1,88.7 11.1,87.5 		"/>
		
			<linearGradient id="SVGID_14_" gradientUnits="userSpaceOnUse" x1="287.5498" y1="-345.2744" x2="287.5498" y2="-343.126" gradientTransform="matrix(1 0 0 -1 -256 -245)">
			<stop  offset="0" style="stop-color:#98B2BF"/>
			<stop  offset="1" style="stop-color:#B7CAD5"/>
		</linearGradient>
		<polygon class="st14" points="30.8,100.3 32.3,99.3 32.3,98.1 30.8,99.1 		"/>
		
			<linearGradient id="SVGID_15_" gradientUnits="userSpaceOnUse" x1="267.1504" y1="-337.1016" x2="286.75" y2="-337.1016" gradientTransform="matrix(1 0 0 -1 -256 -245)">
			<stop  offset="0" style="stop-color:#98B2BF"/>
			<stop  offset="1" style="stop-color:#B7CAD5"/>
		</linearGradient>
		<polygon class="st15" points="30.8,97.2 30.8,98.5 11.1,86.9 11.1,85.7 		"/>
		
			<linearGradient id="SVGID_16_" gradientUnits="userSpaceOnUse" x1="287.5498" y1="-343.4531" x2="287.5498" y2="-341.3018" gradientTransform="matrix(1 0 0 -1 -256 -245)">
			<stop  offset="0" style="stop-color:#98B2BF"/>
			<stop  offset="1" style="stop-color:#B7CAD5"/>
		</linearGradient>
		<polygon class="st16" points="30.8,98.5 32.3,97.5 32.3,96.3 30.8,97.2 		"/>
		
			<linearGradient id="SVGID_17_" gradientUnits="userSpaceOnUse" x1="267.1504" y1="-335.2515" x2="286.75" y2="-335.2515" gradientTransform="matrix(1 0 0 -1 -256 -245)">
			<stop  offset="0" style="stop-color:#98B2BF"/>
			<stop  offset="1" style="stop-color:#B7CAD5"/>
		</linearGradient>
		<polygon class="st17" points="30.8,95.4 30.8,96.6 11.1,85.1 11.1,83.9 		"/>
		
			<linearGradient id="SVGID_18_" gradientUnits="userSpaceOnUse" x1="287.5498" y1="-341.6279" x2="287.5498" y2="-339.4785" gradientTransform="matrix(1 0 0 -1 -256 -245)">
			<stop  offset="0" style="stop-color:#98B2BF"/>
			<stop  offset="1" style="stop-color:#B7CAD5"/>
		</linearGradient>
		<polygon class="st18" points="30.8,96.6 32.3,95.7 32.3,94.5 30.8,95.4 		"/>
		
			<linearGradient id="SVGID_19_" gradientUnits="userSpaceOnUse" x1="267.1504" y1="-333.4014" x2="286.75" y2="-333.4014" gradientTransform="matrix(1 0 0 -1 -256 -245)">
			<stop  offset="0" style="stop-color:#98B2BF"/>
			<stop  offset="1" style="stop-color:#B7CAD5"/>
		</linearGradient>
		<polygon class="st19" points="30.8,93.6 30.8,94.8 11.1,83.3 11.1,82 		"/>
		
			<linearGradient id="SVGID_20_" gradientUnits="userSpaceOnUse" x1="287.5498" y1="-339.8008" x2="287.5498" y2="-337.6505" gradientTransform="matrix(1 0 0 -1 -256 -245)">
			<stop  offset="0" style="stop-color:#98B2BF"/>
			<stop  offset="1" style="stop-color:#B7CAD5"/>
		</linearGradient>
		<polygon class="st20" points="30.8,94.8 32.3,93.9 32.3,92.7 30.8,93.6 		"/>
		
			<linearGradient id="SVGID_21_" gradientUnits="userSpaceOnUse" x1="267.1504" y1="-331.6016" x2="286.75" y2="-331.6016" gradientTransform="matrix(1 0 0 -1 -256 -245)">
			<stop  offset="0" style="stop-color:#98B2BF"/>
			<stop  offset="1" style="stop-color:#B7CAD5"/>
		</linearGradient>
		<polygon class="st21" points="30.8,91.8 30.8,93 11.1,81.4 11.1,80.2 		"/>
		
			<linearGradient id="SVGID_22_" gradientUnits="userSpaceOnUse" x1="287.5498" y1="-337.9785" x2="287.5498" y2="-335.8292" gradientTransform="matrix(1 0 0 -1 -256 -245)">
			<stop  offset="0" style="stop-color:#98B2BF"/>
			<stop  offset="1" style="stop-color:#B7CAD5"/>
		</linearGradient>
		<polygon class="st22" points="30.8,93 32.3,92 32.3,90.8 30.8,91.8 		"/>
		
			<linearGradient id="SVGID_23_" gradientUnits="userSpaceOnUse" x1="267.1504" y1="-329.8013" x2="286.75" y2="-329.8013" gradientTransform="matrix(1 0 0 -1 -256 -245)">
			<stop  offset="0" style="stop-color:#98B2BF"/>
			<stop  offset="1" style="stop-color:#B7CAD5"/>
		</linearGradient>
		<polygon class="st23" points="30.8,89.9 30.8,91.2 11.1,79.6 11.1,78.4 12.1,79 		"/>
		
			<linearGradient id="SVGID_24_" gradientUnits="userSpaceOnUse" x1="287.5498" y1="-336.1543" x2="287.5498" y2="-334.0049" gradientTransform="matrix(1 0 0 -1 -256 -245)">
			<stop  offset="0" style="stop-color:#98B2BF"/>
			<stop  offset="1" style="stop-color:#B7CAD5"/>
		</linearGradient>
		<polygon class="st24" points="30.8,91.2 32.3,90.2 32.3,89 30.8,89.9 		"/>
		
			<linearGradient id="SVGID_25_" gradientUnits="userSpaceOnUse" x1="267.6504" y1="-324.6035" x2="267.6504" y2="-323.3906" gradientTransform="matrix(1 0 0 -1 -256 -245)">
			<stop  offset="0" style="stop-color:#3D4F5A"/>
			<stop  offset="1" style="stop-color:#607A88"/>
		</linearGradient>
		<polygon class="st25" points="12.1,79 11.1,79.6 11.1,78.4 		"/>
		
			<linearGradient id="SVGID_26_" gradientUnits="userSpaceOnUse" x1="267.6504" y1="-326.4316" x2="267.6504" y2="-325.2206" gradientTransform="matrix(1 0 0 -1 -256 -245)">
			<stop  offset="0" style="stop-color:#3D4F5A"/>
			<stop  offset="1" style="stop-color:#607A88"/>
		</linearGradient>
		<polygon class="st26" points="12.1,80.8 11.1,81.4 11.1,80.2 		"/>
		
			<linearGradient id="SVGID_27_" gradientUnits="userSpaceOnUse" x1="267.6504" y1="-328.2607" x2="267.6504" y2="-327.0508" gradientTransform="matrix(1 0 0 -1 -256 -245)">
			<stop  offset="0" style="stop-color:#3D4F5A"/>
			<stop  offset="1" style="stop-color:#607A88"/>
		</linearGradient>
		<polygon class="st27" points="12.1,82.7 11.1,83.3 11.1,82 		"/>
		
			<linearGradient id="SVGID_28_" gradientUnits="userSpaceOnUse" x1="267.6504" y1="-330.0908" x2="267.6504" y2="-328.8788" gradientTransform="matrix(1 0 0 -1 -256 -245)">
			<stop  offset="0" style="stop-color:#3D4F5A"/>
			<stop  offset="1" style="stop-color:#607A88"/>
		</linearGradient>
		<polygon class="st28" points="12.1,84.5 11.1,85.1 11.1,83.9 		"/>
		
			<linearGradient id="SVGID_29_" gradientUnits="userSpaceOnUse" x1="267.6504" y1="-331.9199" x2="267.6504" y2="-330.7089" gradientTransform="matrix(1 0 0 -1 -256 -245)">
			<stop  offset="0" style="stop-color:#3D4F5A"/>
			<stop  offset="1" style="stop-color:#607A88"/>
		</linearGradient>
		<polygon class="st29" points="12.1,86.3 11.1,86.9 11.1,85.7 		"/>
		
			<linearGradient id="SVGID_30_" gradientUnits="userSpaceOnUse" x1="267.6504" y1="-333.748" x2="267.6504" y2="-332.538" gradientTransform="matrix(1 0 0 -1 -256 -245)">
			<stop  offset="0" style="stop-color:#3D4F5A"/>
			<stop  offset="1" style="stop-color:#607A88"/>
		</linearGradient>
		<polygon class="st30" points="12.1,88.1 11.1,88.7 11.1,87.5 		"/>
		
			<linearGradient id="SVGID_31_" gradientUnits="userSpaceOnUse" x1="267.6504" y1="-335.5791" x2="267.6504" y2="-334.3671" gradientTransform="matrix(1 0 0 -1 -256 -245)">
			<stop  offset="0" style="stop-color:#3D4F5A"/>
			<stop  offset="1" style="stop-color:#607A88"/>
		</linearGradient>
		<polygon class="st31" points="12.1,90 11.1,90.6 11.1,89.4 		"/>
		<g>
			
				<linearGradient id="SVGID_32_" gradientUnits="userSpaceOnUse" x1="278.6982" y1="-340.8428" x2="285.187" y2="-340.8428" gradientTransform="matrix(1 0.589 0 -1 -256 -433.8607)">
				<stop  offset="0" style="stop-color:#3D4F5A"/>
				<stop  offset="1" style="stop-color:#607A88"/>
			</linearGradient>
			<path class="st32" d="M29.1,75c0,1.8-1.5,2.4-3.2,1.3c-1.8-1.1-3.2-3.4-3.2-5.2c0-1.8,1.5-2.4,3.2-1.3
				C27.8,70.9,29.1,73.2,29.1,75z"/>
			
				<radialGradient id="SVGID_33_" cx="282.1172" cy="-340.9351" r="2.8755" gradientTransform="matrix(1 0.589 0 -1 -256 -433.8607)" gradientUnits="userSpaceOnUse">
				<stop  offset="0" style="stop-color:#B7CAD5"/>
				<stop  offset="1" style="stop-color:#98B2BF"/>
			</radialGradient>
			<path class="st33" d="M28.9,74.9c0,1.6-1.3,2.1-2.9,1.2s-2.9-3-2.9-4.6c0-1.6,1.3-2.1,2.9-1.2C27.8,71.3,28.9,73.3,28.9,74.9z"/>
		</g>
		<g>
			
				<linearGradient id="SVGID_34_" gradientUnits="userSpaceOnUse" x1="280.9629" y1="-346.1934" x2="282.9199" y2="-346.1934" gradientTransform="matrix(1 0.589 0 -1 -256 -433.8607)">
				<stop  offset="0" style="stop-color:#3D4F5A"/>
				<stop  offset="1" style="stop-color:#607A88"/>
			</linearGradient>
			<path class="st34" d="M26.9,79c0,0.5-0.4,0.7-1,0.4c-0.5-0.3-1-1-1-1.6c0-0.6,0.4-0.7,1-0.4C26.4,77.7,26.9,78.4,26.9,79z"/>
			
				<radialGradient id="SVGID_35_" cx="281.9951" cy="-346.2104" r="0.8672" gradientTransform="matrix(1 0.589 0 -1 -256 -433.8607)" gradientUnits="userSpaceOnUse">
				<stop  offset="0" style="stop-color:#B7CAD5"/>
				<stop  offset="1" style="stop-color:#98B2BF"/>
			</radialGradient>
			<path class="st35" d="M26.8,79c0,0.5-0.4,0.6-0.9,0.4C25.4,79.1,25,78.5,25,78s0.4-0.6,0.9-0.4C26.4,77.9,26.8,78.5,26.8,79z"/>
		</g>
	</g>
	<g>
		<path class="st9" d="M70.3,74.5L70.3,74.5c-0.4-3.1-6.5-5.5-14-5.5s-13.6,2.4-14,5.5l0,0l0,0v0.3v7.9V83v0.3v7.5v0.3v0.3v8.2l0,0
			c0.4,3.1,6.5,5.5,14,5.5s13.6-2.4,14-5.5l0,0v-8.2v-0.3v-0.3v-7.5V83v-0.3v-7.9V74.5L70.3,74.5z"/>
		
			<linearGradient id="SVGID_36_" gradientUnits="userSpaceOnUse" x1="298.25" y1="-319.1016" x2="326.3408" y2="-319.1016" gradientTransform="matrix(1 0 0 -1 -256 -245)">
			<stop  offset="0" style="stop-color:#B9CBD5"/>
			<stop  offset="1" style="stop-color:#6D8D9D"/>
		</linearGradient>
		<path class="st36" d="M56.3,69.1c7.8,0,14,2.2,14,5c0,2.7-6.3,5-14,5c-7.8,0-14-2.2-14-5C42.3,71.3,48.5,69.1,56.3,69.1z"/>
		<g>
			
				<linearGradient id="SVGID_37_" gradientUnits="userSpaceOnUse" x1="298.25" y1="-325.002" x2="326.3408" y2="-325.002" gradientTransform="matrix(1 0 0 -1 -256 -245)">
				<stop  offset="0" style="stop-color:#3D4F5A"/>
				<stop  offset="0.5" style="stop-color:#607A88"/>
				<stop  offset="1" style="stop-color:#3D4F5A"/>
			</linearGradient>
			<path class="st37" d="M56.3,79c-7.8,0-14-2.2-14-5v7.3l0,0c0.4,2.6,6.5,4.7,14,4.7s13.6-2.1,14-4.7l0,0V74
				C70.3,76.8,64,79,56.3,79z"/>
			
				<linearGradient id="SVGID_38_" gradientUnits="userSpaceOnUse" x1="298.25" y1="-318.8516" x2="298.25" y2="-318.8516" gradientTransform="matrix(1 0 0 -1 -256 -245)">
				<stop  offset="0" style="stop-color:#3D4F5A"/>
				<stop  offset="0.5" style="stop-color:#607A88"/>
				<stop  offset="1" style="stop-color:#3D4F5A"/>
			</linearGradient>
			<path class="st38" d="M42.3,73.7V74C42.3,73.9,42.3,73.8,42.3,73.7L42.3,73.7z"/>
			
				<linearGradient id="SVGID_39_" gradientUnits="userSpaceOnUse" x1="326.25" y1="-318.8516" x2="326.25" y2="-318.8516" gradientTransform="matrix(1 0 0 -1 -256 -245)">
				<stop  offset="0" style="stop-color:#3D4F5A"/>
				<stop  offset="0.5" style="stop-color:#607A88"/>
				<stop  offset="1" style="stop-color:#3D4F5A"/>
			</linearGradient>
			<path class="st39" d="M70.3,73.7c0,0.1,0,0.2,0,0.3V73.7L70.3,73.7z"/>
		</g>
		<g>
			
				<linearGradient id="SVGID_40_" gradientUnits="userSpaceOnUse" x1="298.25" y1="-333.1016" x2="326.3408" y2="-333.1016" gradientTransform="matrix(1 0 0 -1 -256 -245)">
				<stop  offset="0" style="stop-color:#3D4F5A"/>
				<stop  offset="0.5" style="stop-color:#607A88"/>
				<stop  offset="1" style="stop-color:#3D4F5A"/>
			</linearGradient>
			<path class="st40" d="M56.3,87.1c-7.8,0-14-2.2-14-5v7.3l0,0c0.4,2.6,6.5,4.7,14,4.7s13.6-2.1,14-4.7l0,0v-7.3
				C70.3,84.9,64,87.1,56.3,87.1z"/>
			
				<linearGradient id="SVGID_41_" gradientUnits="userSpaceOnUse" x1="298.25" y1="-326.9512" x2="298.25" y2="-326.9512" gradientTransform="matrix(1 0 0 -1 -256 -245)">
				<stop  offset="0" style="stop-color:#3D4F5A"/>
				<stop  offset="0.5" style="stop-color:#607A88"/>
				<stop  offset="1" style="stop-color:#3D4F5A"/>
			</linearGradient>
			<path class="st41" d="M42.3,81.8v0.3C42.3,82,42.3,81.9,42.3,81.8L42.3,81.8z"/>
			
				<linearGradient id="SVGID_42_" gradientUnits="userSpaceOnUse" x1="326.25" y1="-326.9512" x2="326.25" y2="-326.9512" gradientTransform="matrix(1 0 0 -1 -256 -245)">
				<stop  offset="0" style="stop-color:#3D4F5A"/>
				<stop  offset="0.5" style="stop-color:#607A88"/>
				<stop  offset="1" style="stop-color:#3D4F5A"/>
			</linearGradient>
			<path class="st42" d="M70.3,81.8c0,0.1,0,0.2,0,0.3V81.8L70.3,81.8z"/>
		</g>
		<g>
			
				<linearGradient id="SVGID_43_" gradientUnits="userSpaceOnUse" x1="298.25" y1="-341.2012" x2="326.3408" y2="-341.2012" gradientTransform="matrix(1 0 0 -1 -256 -245)">
				<stop  offset="0" style="stop-color:#3D4F5A"/>
				<stop  offset="0.5" style="stop-color:#607A88"/>
				<stop  offset="1" style="stop-color:#3D4F5A"/>
			</linearGradient>
			<path class="st43" d="M56.3,95.2c-7.8,0-14-2.2-14-5v7.3l0,0c0.4,2.6,6.5,4.7,14,4.7s13.6-2.1,14-4.7l0,0v-7.3
				C70.3,93,64,95.2,56.3,95.2z"/>
			
				<linearGradient id="SVGID_44_" gradientUnits="userSpaceOnUse" x1="298.25" y1="-335.0513" x2="298.25" y2="-335.0513" gradientTransform="matrix(1 0 0 -1 -256 -245)">
				<stop  offset="0" style="stop-color:#3D4F5A"/>
				<stop  offset="0.5" style="stop-color:#607A88"/>
				<stop  offset="1" style="stop-color:#3D4F5A"/>
			</linearGradient>
			<path class="st44" d="M42.3,89.9v0.3C42.3,90.1,42.3,90,42.3,89.9L42.3,89.9z"/>
			
				<linearGradient id="SVGID_45_" gradientUnits="userSpaceOnUse" x1="326.25" y1="-335.0513" x2="326.25" y2="-335.0513" gradientTransform="matrix(1 0 0 -1 -256 -245)">
				<stop  offset="0" style="stop-color:#3D4F5A"/>
				<stop  offset="0.5" style="stop-color:#607A88"/>
				<stop  offset="1" style="stop-color:#3D4F5A"/>
			</linearGradient>
			<path class="st45" d="M70.3,89.9c0,0.1,0,0.2,0,0.3V89.9L70.3,89.9z"/>
		</g>
		<g>
			
				<linearGradient id="SVGID_46_" gradientUnits="userSpaceOnUse" x1="298.25" y1="-349.3008" x2="326.3408" y2="-349.3008" gradientTransform="matrix(1 0 0 -1 -256 -245)">
				<stop  offset="0" style="stop-color:#3D4F5A"/>
				<stop  offset="0.5" style="stop-color:#607A88"/>
				<stop  offset="1" style="stop-color:#3D4F5A"/>
			</linearGradient>
			<path class="st46" d="M56.3,103.3c-7.8,0-14-2.2-14-5v7.3l0,0c0.4,2.6,6.5,4.7,14,4.7s13.6-2.1,14-4.7l0,0v-7.3
				C70.3,101,64,103.3,56.3,103.3z"/>
			
				<linearGradient id="SVGID_47_" gradientUnits="userSpaceOnUse" x1="298.25" y1="-343.1514" x2="298.25" y2="-343.1514" gradientTransform="matrix(1 0 0 -1 -256 -245)">
				<stop  offset="0" style="stop-color:#3D4F5A"/>
				<stop  offset="0.5" style="stop-color:#607A88"/>
				<stop  offset="1" style="stop-color:#3D4F5A"/>
			</linearGradient>
			<path class="st47" d="M42.3,98v0.3C42.3,98.2,42.3,98.1,42.3,98L42.3,98z"/>
			
				<linearGradient id="SVGID_48_" gradientUnits="userSpaceOnUse" x1="326.25" y1="-343.1514" x2="326.25" y2="-343.1514" gradientTransform="matrix(1 0 0 -1 -256 -245)">
				<stop  offset="0" style="stop-color:#3D4F5A"/>
				<stop  offset="0.5" style="stop-color:#607A88"/>
				<stop  offset="1" style="stop-color:#3D4F5A"/>
			</linearGradient>
			<path class="st48" d="M70.3,98c0,0.1,0,0.2,0,0.3V98L70.3,98z"/>
		</g>
	</g>
</g>
</svg>
