<?xml version="1.0" encoding="utf-8"?>
<!-- Generator: Adobe Illustrator 16.0.0, SVG Export Plug-In . SVG Version: 6.00 Build 0)  -->
<!DOCTYPE svg PUBLIC "-//W3C//DTD SVG 1.1//EN" "http://www.w3.org/Graphics/SVG/1.1/DTD/svg11.dtd">
<svg version="1.1" id="图层_1" xmlns="http://www.w3.org/2000/svg" xmlns:xlink="http://www.w3.org/1999/xlink" x="0px" y="0px"
	 width="100px" height="100px" viewBox="0 0 100 100" style="enable-background:new 0 0 100 100;" xml:space="preserve">
<style type="text/css">
<![CDATA[
	.st0{fill:#588191;}
	.st1{fill:none;stroke:#285F72;stroke-width:0.1485;stroke-linecap:round;stroke-linejoin:round;}
	.st2{fill:#BFD0DA;}
	.st3{fill:#F8CEB9;}
	.st4{fill:url(#SVGID_1_);}
	.st5{fill:url(#SVGID_2_);}
	.st6{fill:url(#SVGID_3_);}
	.st7{fill:url(#SVGID_4_);}
	.st8{fill:url(#SVGID_5_);}
	.st9{fill:url(#SVGID_6_);}
	.st10{fill:url(#SVGID_7_);}
	.st11{fill:url(#SVGID_8_);}
	.st12{fill:url(#SVGID_9_);}
	.st13{fill:none;stroke:#104E62;stroke-width:0.2;stroke-linecap:round;stroke-linejoin:round;}
	.st14{fill:#61879A;}
	.st15{fill:#FFFFFF;}
	.st16{fill:none;stroke:#790001;stroke-width:0.1;stroke-linecap:round;stroke-linejoin:round;}
	.st17{fill:#CEDA00;}
	.st18{fill:url(#SVGID_10_);}
	.st19{fill:url(#SVGID_11_);}
	.st20{fill:url(#SVGID_12_);}
	.st21{fill:url(#SVGID_13_);}
	.st22{fill:url(#SVGID_14_);}
	.st23{fill:url(#SVGID_15_);}
	.st24{fill:url(#SVGID_16_);}
	.st25{fill:url(#SVGID_17_);}
	.st26{fill:url(#SVGID_18_);}
	.st27{fill:url(#SVGID_19_);}
	.st28{fill:url(#SVGID_20_);}
	.st29{fill:url(#SVGID_21_);}
	.st30{fill:url(#SVGID_27_);}
	.st31{fill:url(#SVGID_28_);}
	.st32{fill:url(#SVGID_29_);}
	.st33{fill:url(#SVGID_30_);}
	.st34{fill:url(#SVGID_31_);}
	.st35{fill:url(#SVGID_32_);}
	.st36{fill:url(#SVGID_33_);}
	.st37{fill:url(#SVGID_34_);}
	.st38{fill:url(#SVGID_35_);}
	.st39{fill:url(#SVGID_36_);}
	.st40{fill:url(#SVGID_37_);}
	.st41{fill:url(#SVGID_38_);}
	.st42{fill:url(#SVGID_39_);}
	.st43{fill:url(#SVGID_40_);}
	.st44{clip-path:url(#SVGID_26_);fill:#FFFFFF;}
	.st45{fill:#FFFFFF;fill-opacity:0;}
	.st46{clip-path:url(#SVGID_23_);fill:url(#SVGID_24_);}
]]>
</style>
<rect class="st45" width="100" height="100"/>
<g>
	
		<linearGradient id="SVGID_1_" gradientUnits="userSpaceOnUse" x1="593.8857" y1="723.8232" x2="638.5671" y2="646.1494" gradientTransform="matrix(1 0 0 1 -532 -671)">
		<stop  offset="0" style="stop-color:#32414A"/>
		<stop  offset="0.65" style="stop-color:#607A87"/>
		<stop  offset="1" style="stop-color:#32414A"/>
	</linearGradient>
	<path class="st4" d="M60.7,12.5L43.5,41.1c-0.2,0.3-0.2,0.6-0.1,0.9s0.3,0.6,0.6,0.8l34.9,20.1c0.6,0.3,1.4,0.1,1.7-0.4l17.3-28.6
		c0.2-0.3,0.2-0.6,0.1-0.9s-0.3-0.6-0.6-0.8l-35-20.1C61.8,11.7,61.1,11.9,60.7,12.5z"/>
	
		<linearGradient id="SVGID_2_" gradientUnits="userSpaceOnUse" x1="575.0996" y1="708.4502" x2="630.0996" y2="708.4502" gradientTransform="matrix(1 0 0 1 -532 -671)">
		<stop  offset="0" style="stop-color:#3D4F5A"/>
		<stop  offset="1" style="stop-color:#607A87"/>
	</linearGradient>
	<path class="st5" d="M61.8,11.7c-0.5,0-1,0.2-1.2,0.7L43.3,41c-0.1,0.2-0.2,0.5-0.2,0.7c0,0.5,0.3,0.9,0.7,1.2l22.6,13
		c0.7,0.4,1.2,0.7,1.2,0.7s0.5,0.3,1.2,0.7l9.9,5.7c0.2,0.1,0.5,0.2,0.7,0.2c0.5,0,1-0.2,1.2-0.7L97.9,34c0.1-0.2,0.2-0.5,0.2-0.7
		c0-0.5-0.3-0.9-0.7-1.2L74.8,19c-0.7-0.4-1.8-1-2.4-1.4l-9.9-5.7C62.3,11.8,62.1,11.7,61.8,11.7L61.8,11.7z M79.4,62.9
		c-0.2,0-0.4-0.1-0.6-0.1L69,57.1c-0.7-0.4-1.2-0.7-1.2-0.7s-0.5-0.3-1.2-0.7L44,42.6c-0.3-0.1-0.4-0.4-0.5-0.7
		c-0.1-0.3,0-0.6,0.1-0.8l17.3-28.6c0.2-0.3,0.6-0.5,1-0.5c0.2,0,0.4,0,0.6,0.1l0,0l9.9,5.7c0.7,0.4,1.8,1,2.4,1.4l22.6,13
		c0.3,0.1,0.4,0.4,0.5,0.7c0.1,0.3,0,0.6-0.1,0.8L80.4,62.4C80.2,62.7,79.8,62.9,79.4,62.9L79.4,62.9z"/>
	
		<linearGradient id="SVGID_3_" gradientUnits="userSpaceOnUse" x1="574.1104" y1="756.0313" x2="622.7867" y2="672.1629" gradientTransform="matrix(1 0 0 1 -532 -671)">
		<stop  offset="2.398080e-003" style="stop-color:#F7F7F7"/>
		<stop  offset="0.2414" style="stop-color:#F5F5F5"/>
		<stop  offset="0.3253" style="stop-color:#FFFFFF"/>
		<stop  offset="0.3583" style="stop-color:#FFFFFF"/>
		<stop  offset="0.4138" style="stop-color:#F7F7F7"/>
		<stop  offset="0.6897" style="stop-color:#F7F7F7"/>
		<stop  offset="1" style="stop-color:#EEEEEF"/>
	</linearGradient>
	<path class="st6" d="M53.2,37.2c0.5,0.3,24,13.8,24.5,14.1c0.3-0.5,18-29.9,18.3-30.4C95.5,20.6,72,7.1,71.5,6.8
		C71.3,7.3,53.5,36.7,53.2,37.2z"/>
	<path class="st15" d="M71.5,6.3l-18.7,31l0.5,0.3l0,0l0,0l0,0l24.5,14.1l18.4-30.4l0,0l0,0l0,0l0.3-0.5L71.5,6.3L71.5,6.3z
		 M53.6,37.1L71.7,7.2L95.6,21L77.5,50.9L53.6,37.1L53.6,37.1z"/>
	
		<linearGradient id="SVGID_4_" gradientUnits="userSpaceOnUse" x1="-1285.8398" y1="730.8496" x2="-1146.553" y2="730.8496" gradientTransform="matrix(-1 0 0 1 -1185.3857 -671)">
		<stop  offset="0" style="stop-color:#32414A"/>
		<stop  offset="0.35" style="stop-color:#607A87"/>
		<stop  offset="1" style="stop-color:#32414A"/>
	</linearGradient>
	<path class="st7" d="M49.9,28c0,0.1-41.7,33.2-41.7,33.2c-1.6,1-2.5,2.1-2.5,3.4l0,0c0,1.3,0.9,2.4,2.5,3.4l41.1,23.7
		c3.5,2,9.1,2,12.6,0l32.9-19c2.6-1.5,4.8-5.2,4.8-8.2V50.3c0-1.4-0.4-2.4-1.2-2.9c-0.8-0.5-1.9-0.3-3.1,0.4c-0.1,0.1-0.3,0.1-0.5,0
		L62.5,28C59,26,53.4,26,49.9,28z"/>
	
		<linearGradient id="SVGID_5_" gradientUnits="userSpaceOnUse" x1="537.2002" y1="730.9004" x2="631.9004" y2="730.9004" gradientTransform="matrix(1 0 0 1 -532 -671)">
		<stop  offset="0" style="stop-color:#3D4F5A"/>
		<stop  offset="1" style="stop-color:#607A87"/>
	</linearGradient>
	<path class="st8" d="M56.2,26.1c-2.4,0-4.7,0.5-6.5,1.5L7.9,60.9c-1.8,1-2.7,2.4-2.7,3.8c0,1.4,0.9,2.7,2.7,3.8L49,92.1
		c1.8,1,4.2,1.6,6.5,1.6s4.7-0.5,6.5-1.6l32.9-19c2.8-1.6,5-5.4,5-8.6V50.3l0,0c0-2.3-1.1-3.6-2.8-3.6c-0.7,0-1.4,0.2-2.2,0.7
		L62.7,27.6C60.9,26.6,58.6,26.1,56.2,26.1L56.2,26.1z M50.2,28.4c1.6-0.9,3.7-1.4,6-1.4s4.5,0.5,6,1.4l0,0l32.3,19.7
		c0.2,0.1,0.3,0.1,0.5,0.1s0.3,0,0.5-0.1c0.6-0.4,1.3-0.6,1.8-0.6c1.7,0,1.9,2,1.9,2.7v14.2c0,2.9-2.1,6.4-4.6,7.8l-32.9,19
		c-1.6,0.9-3.7,1.4-6,1.4s-4.5-0.5-6-1.4L8.4,67.6c-1.4-0.8-2.2-1.9-2.2-3c0-1.1,0.8-2.1,2.2-3c0,0,0.1,0,0.1-0.1L50.2,28.4
		L50.2,28.4z"/>
	
		<linearGradient id="SVGID_6_" gradientUnits="userSpaceOnUse" x1="-1258.4385" y1="690.3311" x2="-1222.2582" y2="752.5187" gradientTransform="matrix(-1 0 0 1 -1185.3857 -671)">
		<stop  offset="0" style="stop-color:#00384C"/>
		<stop  offset="6.741570e-002" style="stop-color:#104E62"/>
		<stop  offset="0.1517" style="stop-color:#61879A"/>
		<stop  offset="0.3933" style="stop-color:#2A5E73"/>
		<stop  offset="1" style="stop-color:#00384C"/>
	</linearGradient>
	<path class="st9" d="M49,66.4c3.6,2.1,9.4,2.1,13,0l32.9-19c0.7-0.4,1.3-0.6,1.9-0.6c0.2,0.5,0.4,1.2,0.4,2v15.8
		c0,2.2-1.7,5.2-3.7,6.3l-32.9,19c-2.7,1.6-7.5,1.6-10.3,0L9.3,66C8.4,65.5,8,64.7,8,63.7v-21L49,66.4z"/>
	
		<linearGradient id="SVGID_7_" gradientUnits="userSpaceOnUse" x1="584.5" y1="761.8604" x2="584.5" y2="713.6348" gradientTransform="matrix(1 0 0 1 -532 -671)">
		<stop  offset="0" style="stop-color:#32414A"/>
		<stop  offset="1" style="stop-color:#607A87"/>
	</linearGradient>
	<path class="st10" d="M48.9,66.3c3.6,2.1,9.4,2.1,13,0l32.9-19c0.7-0.4,1.3-0.6,1.9-0.6c0.2,0.5,0.4,1.2,0.4,2v15.8
		c0,2.2-1.7,5.2-3.7,6.3l-32.9,19c-2.7,1.6-7.5,1.6-10.3,0l-41-23.9c-0.9-0.5-1.3-1.2-1.3-2.3v-21L48.9,66.3z"/>
	
		<linearGradient id="SVGID_8_" gradientUnits="userSpaceOnUse" x1="540" y1="737.75" x2="629.2002" y2="737.75" gradientTransform="matrix(1 0 0 1 -532 -671)">
		<stop  offset="0" style="stop-color:#32414A"/>
		<stop  offset="0.35" style="stop-color:#607A87"/>
		<stop  offset="1" style="stop-color:#32414A"/>
	</linearGradient>
	<path class="st11" d="M8,42.6v0.9l0,0v0.1l0,0v20.1c0,1,0.4,1.7,1.3,2.3l41.1,23.7c1.4,0.8,3.2,1.2,5.1,1.2s3.8-0.4,5.1-1.2
		l32.9-19c1.9-1.1,3.6-4,3.7-6.3V48.6c0-0.8-0.1-1.4-0.4-2c-0.6,0.1-1.2,0.2-1.9,0.6L62,66.3c-1.8,1-4.1,1.5-6.5,1.5
		s-4.7-0.5-6.5-1.5L8,42.6L8,42.6z M55.5,90c-1.8,0-3.5-0.4-4.7-1.1l-41-23.7C9.2,64.8,9,64.4,9,63.7V44.2l39.6,22.9
		c1.9,1.1,4.3,1.7,7,1.7c2.6,0,5.1-0.6,7-1.7l32.9-19c0.3-0.2,0.5-0.3,0.8-0.4c0.1,0.3,0.1,0.6,0.1,0.9v15.9c0,1.9-1.6,4.5-3.2,5.5
		L60.3,89C59,89.6,57.3,90,55.5,90L55.5,90z"/>
	
		<linearGradient id="SVGID_9_" gradientUnits="userSpaceOnUse" x1="559.6895" y1="744.376" x2="563.7363" y2="737.3761" gradientTransform="matrix(1 0 0 1 -532 -671)">
		<stop  offset="0" style="stop-color:#32414A"/>
		<stop  offset="0.35" style="stop-color:#607A87"/>
		<stop  offset="1" style="stop-color:#32414A"/>
	</linearGradient>
	<path class="st12" d="M12.6,55.7c-0.2,0.1-0.3,0.3-0.3,0.7v6.7c0,0.8,0.6,1.8,1.2,2.2L46.1,84c0.3,0.2,0.5,0.2,0.7,0.1
		c0.2-0.1,0.3-0.3,0.3-0.7v-6.7c0-0.8-0.6-1.8-1.2-2.1L13.4,55.8C13.1,55.7,12.8,55.6,12.6,55.7z"/>
	
		<linearGradient id="SVGID_10_" gradientUnits="userSpaceOnUse" x1="544.0996" y1="740.9004" x2="579.2725" y2="740.9004" gradientTransform="matrix(1 0 0 1 -532 -671)">
		<stop  offset="0" style="stop-color:#32414A"/>
		<stop  offset="0.35" style="stop-color:#607A87"/>
		<stop  offset="1" style="stop-color:#32414A"/>
	</linearGradient>
	<path class="st18" d="M12.9,55.4c-0.4,0-0.8,0.4-0.8,1v6.7c0,0.9,0.6,1.9,1.4,2.4L46,84.2c0.2,0.1,0.4,0.2,0.6,0.2
		c0.4,0,0.8-0.4,0.8-1v-6.7c0-0.9-0.6-1.9-1.4-2.4L13.5,55.6C13.3,55.5,13.1,55.4,12.9,55.4L12.9,55.4z M46.5,83.9
		c-0.1,0-0.2,0-0.4-0.1L13.7,65.1c-0.6-0.3-1.1-1.3-1.1-2v-6.7c0-0.2,0-0.5,0.3-0.5c0.1,0,0.2,0,0.4,0.1l0,0l32.4,18.7
		c0.6,0.3,1.1,1.3,1.1,1.9v6.7C46.8,83.6,46.8,83.9,46.5,83.9L46.5,83.9z"/>
	
		<linearGradient id="SVGID_11_" gradientUnits="userSpaceOnUse" x1="579" y1="752.3252" x2="532.4206" y2="752.3252" gradientTransform="matrix(1 0 0 1 -532 -671)">
		<stop  offset="0" style="stop-color:#32414A"/>
		<stop  offset="0.35" style="stop-color:#607A87"/>
		<stop  offset="1" style="stop-color:#32414A"/>
	</linearGradient>
	<path class="st19" d="M0.2,73.6c0,0.4,0.3,0.7,0.7,1L27.6,90c1.1,0.6,2.8,0.6,3.9,0c0,0,15.3-8.8,15.5-8.9c0-0.2,0-1.3,0-1.8
		C46.4,79.6,31.8,88,31.8,88c-1.2,0.7-3.2,0.7-4.4,0L0.7,72.6c-0.2-0.1-0.4-0.3-0.5-0.4C0.2,72.9,0.2,73.6,0.2,73.6z"/>
	
		<linearGradient id="SVGID_12_" gradientUnits="userSpaceOnUse" x1="532" y1="752" x2="579.2954" y2="752" gradientTransform="matrix(1 0 0 1 -532 -671)">
		<stop  offset="0" style="stop-color:#3D4F5A"/>
		<stop  offset="1" style="stop-color:#607A87"/>
	</linearGradient>
	<path class="st20" d="M0,71.3v0.5l0,0v0.6l0,0v1.2l0,0l0,0l0,0c0,0.4,0.3,0.9,0.9,1.2l26.7,15.4c0.6,0.3,1.3,0.5,2.1,0.5
		c0.8,0,1.5-0.2,2.1-0.5l15.6-9v-2.4l-15.6,9c-0.6,0.3-1.3,0.5-2.1,0.5c-0.8,0-1.5-0.2-2.1-0.5L0.9,72.4C0.3,72.1,0,71.7,0,71.3
		L0,71.3z M29.6,90.2c-0.7,0-1.4-0.2-1.8-0.4L1.1,74.4c-0.4-0.2-0.6-0.5-0.6-0.8v-0.8l0.1,0.1l0,0l26.7,15.4
		c0.6,0.4,1.4,0.6,2.3,0.6s1.7-0.2,2.3-0.6l14.9-8.6V81l-15.4,8.9C31,90,30.3,90.2,29.6,90.2L29.6,90.2z"/>
	
		<linearGradient id="SVGID_13_" gradientUnits="userSpaceOnUse" x1="561.4014" y1="736.0986" x2="551.1948" y2="753.4976" gradientTransform="matrix(1 0 0 1 -532 -671)">
		<stop  offset="0" style="stop-color:#32414A"/>
		<stop  offset="0.35" style="stop-color:#607A87"/>
		<stop  offset="1" style="stop-color:#32414A"/>
	</linearGradient>
	<path class="st21" d="M1,70.2c-0.5,0.3-0.7,0.6-0.7,1l0,0c0,0.4,0.3,0.7,0.7,1l26.7,15.4c1.1,0.6,2.8,0.6,3.9,0
		c0,0,15.3-8.8,15.5-8.9c0-0.2,0-2,0-2c0-0.8-0.6-1.8-1.2-2.1c0,0-25.9-15-26.2-15.1C19.4,59.6,1,70.2,1,70.2z"/>
	
		<linearGradient id="SVGID_14_" gradientUnits="userSpaceOnUse" x1="532" y1="744.75" x2="579.2974" y2="744.75" gradientTransform="matrix(1 0 0 1 -532 -671)">
		<stop  offset="0" style="stop-color:#3D4F5A"/>
		<stop  offset="1" style="stop-color:#607A87"/>
	</linearGradient>
	<path class="st22" d="M19.6,59.2L0.9,70C0.3,70.4,0,70.8,0,71.2c0,0.4,0.3,0.9,0.9,1.2l26.7,15.4c0.6,0.3,1.3,0.5,2.1,0.5
		c0.8,0,1.5-0.2,2.1-0.5l15.6-9v-2.1c0-0.9-0.6-1.9-1.4-2.4l-1-0.6L19.6,59.2L19.6,59.2z M29.6,87.8c-0.7,0-1.4-0.2-1.8-0.4L1.1,72
		c-0.4-0.2-0.6-0.5-0.6-0.8s0.2-0.6,0.6-0.8l18.5-10.7l25,14.5l1,0.6c0.6,0.3,1.1,1.3,1.1,1.9v1.8l-15.4,8.9
		C31,87.7,30.3,87.8,29.6,87.8L29.6,87.8z"/>
	
		<linearGradient id="SVGID_15_" gradientUnits="userSpaceOnUse" x1="-1226.248" y1="732.2461" x2="-1247.0653" y2="696.2888" gradientTransform="matrix(-1 0 0 1 -1185.3857 -671)">
		<stop  offset="0" style="stop-color:#32414A"/>
		<stop  offset="0.35" style="stop-color:#607A87"/>
		<stop  offset="1" style="stop-color:#32414A"/>
	</linearGradient>
	<path class="st23" d="M41.1,16.5l-32.9,19c-1.6,0.9-2.4,2.1-2.4,3.4c0,1.3,0.9,2.4,2.5,3.4L49.2,66c3.5,2,9.1,2,12.5,0l32.9-19
		c0.6-0.3,1.1-0.4,1.7-0.5c-2.5-1.5-52-30.1-52-30.1C43.6,15.7,42.4,15.8,41.1,16.5z M98,46.3L98,46.3L98,46.3z"/>
	
		<linearGradient id="SVGID_16_" gradientUnits="userSpaceOnUse" x1="537.2002" y1="712.7002" x2="629.9004" y2="712.7002" gradientTransform="matrix(1 0 0 1 -532 -671)">
		<stop  offset="0" style="stop-color:#3D4F5A"/>
		<stop  offset="1" style="stop-color:#607A87"/>
	</linearGradient>
	<path class="st24" d="M43,15.4c-0.7,0-1.4,0.2-2.2,0.7l-32.9,19c-1.8,1-2.7,2.4-2.7,3.8s0.9,2.7,2.7,3.8L49,66.4
		c1.8,1,4.1,1.6,6.5,1.6s4.7-0.5,6.5-1.5l32.9-19c0.4-0.2,0.8-0.4,1.2-0.5l0,0c0.3-0.1,0.6-0.1,0.9-0.1l0,0h0.1c0.3,0,0.6,0,0.8,0.1
		L44.7,16l0,0C44.2,15.6,43.7,15.4,43,15.4L43,15.4z M55.5,67c-2.3,0-4.5-0.5-6-1.4L8.4,41.8C6.9,41,6.2,40,6.2,38.9S7,36.8,8.4,36
		l32.9-19c0.6-0.4,1.2-0.5,1.7-0.5c0.4,0,0.8,0.1,1,0.3c0.1,0.1,0.2,0.1,0.3,0.2L95,46.4c-0.2,0.1-0.4,0.2-0.6,0.3l-32.9,19
		C60,66.5,57.8,67,55.5,67L55.5,67z"/>
	
		<linearGradient id="SVGID_17_" gradientUnits="userSpaceOnUse" x1="573.5811" y1="730.6895" x2="593.5162" y2="696.2072" gradientTransform="matrix(1 0 0 1 -532 -671)">
		<stop  offset="0" style="stop-color:#32414A"/>
		<stop  offset="0.35" style="stop-color:#607A87"/>
		<stop  offset="1" style="stop-color:#32414A"/>
	</linearGradient>
	<path class="st25" d="M45.5,18.9L45.5,18.9L11.6,38.5c-1,0.5-1.5,1.3-1.5,2c0,0.8,0.5,1.5,1.5,2L49,64.1c2.1,1.2,5.4,1.2,7.5,0
		l33.9-19.6c0.7-0.4,1.5-0.6,2.1-0.6L48.3,18.4C47.5,18.1,46.5,18.3,45.5,18.9z M93.5,43.9C93.5,44,93.5,44,93.5,43.9
		C93.5,44,93.5,43.9,93.5,43.9z"/>
	
		<linearGradient id="SVGID_18_" gradientUnits="userSpaceOnUse" x1="541.9004" y1="712.5996" x2="625.4643" y2="712.5996" gradientTransform="matrix(1 0 0 1 -532 -671)">
		<stop  offset="0" style="stop-color:#32414A"/>
		<stop  offset="0.35" style="stop-color:#607A87"/>
		<stop  offset="1" style="stop-color:#32414A"/>
	</linearGradient>
	<path class="st26" d="M47.6,18c-0.7,0-1.4,0.2-2.2,0.7L11.5,38.3c-1.1,0.6-1.6,1.4-1.6,2.2s0.5,1.6,1.6,2.2l37.4,21.6
		c1.1,0.6,2.5,0.9,3.9,0.9c1.4,0,2.8-0.3,3.9-0.9l33.7-19.5l0.2-0.1c0.7-0.4,1.3-0.6,1.9-0.7l0,0c0.1,0,0.2,0,0.3,0
		c0.1,0,0.2,0,0.3,0l0,0c0.2,0,0.3,0.1,0.5,0.1l-1-0.6L48.4,18.2C48.1,18.1,47.8,18,47.6,18L47.6,18z M52.7,64.7
		c-1.4,0-2.7-0.3-3.6-0.9L11.7,42.3c-0.9-0.5-1.4-1.2-1.4-1.8s0.5-1.3,1.4-1.8l33.9-19.6c0.7-0.4,1.4-0.6,2-0.6c0.2,0,0.4,0,0.6,0.1
		l43.5,25.1c-0.5,0.1-1,0.3-1.5,0.6L90,44.4L56.3,63.9C55.4,64.4,54.1,64.7,52.7,64.7L52.7,64.7z"/>
	
		<linearGradient id="SVGID_19_" gradientUnits="userSpaceOnUse" x1="576.6602" y1="723.8975" x2="590.3492" y2="700.2192" gradientTransform="matrix(1 0 0 1 -532 -671)">
		<stop  offset="0" style="stop-color:#32414A"/>
		<stop  offset="0.35" style="stop-color:#607A87"/>
		<stop  offset="1" style="stop-color:#32414A"/>
	</linearGradient>
	<polygon class="st27" points="56.6,59.9 19.1,38.2 46.4,22.5 83.8,44.1 	"/>
	
		<linearGradient id="SVGID_20_" gradientUnits="userSpaceOnUse" x1="561.9297" y1="750.4219" x2="595.3004" y2="692.9249" gradientTransform="matrix(1 0 0 1 -532 -671)">
		<stop  offset="2.398080e-003" style="stop-color:#F7F7F7"/>
		<stop  offset="0.2414" style="stop-color:#F5F5F5"/>
		<stop  offset="0.3253" style="stop-color:#FFFFFF"/>
		<stop  offset="0.3583" style="stop-color:#FFFFFF"/>
		<stop  offset="0.4138" style="stop-color:#F7F7F7"/>
		<stop  offset="0.6927" style="stop-color:#EEEEEF"/>
		<stop  offset="1" style="stop-color:#DBDCDC"/>
	</linearGradient>
	<path class="st28" d="M24.2,38.9C24.6,39.1,56,57.3,56,57.3s23.8-13.8,24.2-14.1c-0.5-0.3-31.8-18.4-31.8-18.4S24.6,38.6,24.2,38.9
		z"/>
	<path class="st15" d="M48.5,24.7L23.9,38.9l0.3,0.2l0,0l0,0l0,0L56,57.4l24.3-14l0,0l0,0l0,0l0.3-0.2L48.5,24.7L48.5,24.7z
		 M24.5,38.9l24-13.9l31.4,18.2L55.9,57L24.5,38.9L24.5,38.9z"/>
	
		<linearGradient id="SVGID_21_" gradientUnits="userSpaceOnUse" x1="482.915" y1="679.0313" x2="456.0716" y2="632.6649" gradientTransform="matrix(1.3631 0.208 -0.6259 0.6381 -177.7848 -487.4678)">
		<stop  offset="0" style="stop-color:#32414A"/>
		<stop  offset="0.35" style="stop-color:#607A87"/>
		<stop  offset="1" style="stop-color:#32414A"/>
	</linearGradient>
	<path class="st29" d="M13,14.5c0,0,0.2,0.5,2,1.6l0,0L49.6,36c3,1.7,7.8,3.4,10.7,3.7c0,0,29.1,3.2,30.1,3.3
		c-4.9-2.8-42-24.2-42-24.2c-0.8-0.5-1.9-0.9-3.1-1l-30.7-3.4C13.3,14.2,13,14.4,13,14.5z"/>
	<g>
		<g>
			<g>
				<defs>
					<path id="SVGID_22_" d="M45.9,74.4l-1-0.6L19.6,59.2L0.9,70c-1.1,0.7-1.1,1.7,0,2.4l26.7,15.4c1.1,0.7,3,0.7,4.2,0l15.6-9v-2.1
						C47.3,75.9,46.7,74.8,45.9,74.4z"/>
				</defs>
				<clipPath id="SVGID_23_">
					<use xlink:href="#SVGID_22_"  style="overflow:visible;"/>
				</clipPath>
				
					<linearGradient id="SVGID_24_" gradientUnits="userSpaceOnUse" x1="-496.0615" y1="1200.917" x2="-432.7513" y2="1091.8348" gradientTransform="matrix(0 -1 1 0 -1093.707 -385.248)">
					<stop  offset="2.398080e-003" style="stop-color:#F7F7F7"/>
					<stop  offset="0.2414" style="stop-color:#F5F5F5"/>
					<stop  offset="0.3253" style="stop-color:#FFFFFF"/>
					<stop  offset="0.3583" style="stop-color:#FFFFFF"/>
					<stop  offset="0.4138" style="stop-color:#F7F7F7"/>
					<stop  offset="0.6927" style="stop-color:#EEEEEF"/>
					<stop  offset="1" style="stop-color:#DBDCDC"/>
				</linearGradient>
				<path class="st46" d="M6.4,70.7C6.8,71,30.7,84.8,30.7,84.8S62,66.7,62.4,66.4C62,66.1,38,52.3,38,52.3S6.8,70.4,6.4,70.7z"/>
			</g>
		</g>
		<g>
			<g>
				<defs>
					<path id="SVGID_25_" d="M45.9,74.4l-1-0.6L19.6,59.2L0.9,70c-1.1,0.7-1.1,1.7,0,2.4l26.7,15.4c1.1,0.7,3,0.7,4.2,0l15.6-9v-2.1
						C47.3,75.9,46.7,74.8,45.9,74.4z"/>
				</defs>
				<clipPath id="SVGID_26_">
					<use xlink:href="#SVGID_25_"  style="overflow:visible;"/>
				</clipPath>
				<path class="st44" d="M38.1,52.2L6,70.7l0.3,0.2l0,0l0,0l0,0l24.3,14l31.8-18.3l0,0l0,0l0,0l0.3-0.2L38.1,52.2L38.1,52.2z
					 M6.7,70.7l31.4-18.1l24,13.9L30.7,84.6L6.7,70.7L6.7,70.7z"/>
			</g>
		</g>
	</g>
	
		<linearGradient id="SVGID_27_" gradientUnits="userSpaceOnUse" x1="544.5996" y1="700.0508" x2="625.5" y2="700.0508" gradientTransform="matrix(1 0 0 1 -532 -671)">
		<stop  offset="0" style="stop-color:#3D4F5A"/>
		<stop  offset="1" style="stop-color:#607A87"/>
	</linearGradient>
	<path class="st30" d="M13.9,13.9c-0.9,0-1.3,0.2-1.3,0.5c0,0.5,0.7,1.2,2.3,2.1l34.5,19.9c3,1.7,7.9,3.4,10.9,3.8l30,3.3l0,0
		l0.6,0.1c0.6,0.1,1.2,0.2,1.7,0.3l0,0c0.3,0.1,0.6,0.2,0.9,0.3L48.7,18.4l0,0c-0.8-0.5-1.9-0.9-3.2-1.1l-30.7-3.4
		C14.4,13.9,14.1,13.9,13.9,13.9L13.9,13.9z M13.5,14.3L13.5,14.3L13.5,14.3L13.5,14.3z M88.3,42.3l-27.9-3.1
		c-2.9-0.3-7.6-2-10.5-3.6l-34.6-20c-0.6-0.4-1-0.6-1.3-0.9c0.2,0,0.4,0,0.7,0l30.7,3.4c1.1,0.1,2.1,0.5,2.8,0.9l0.1,0.1L88.3,42.3
		L88.3,42.3z"/>
	
		<linearGradient id="SVGID_28_" gradientUnits="userSpaceOnUse" x1="567.5088" y1="723.8428" x2="565.5085" y2="720.3877" gradientTransform="matrix(1 0 0 1 -532 -671)">
		<stop  offset="0" style="stop-color:#AFC4D0"/>
		<stop  offset="0.9001" style="stop-color:#94B0BF"/>
		<stop  offset="1" style="stop-color:#7B9DAE"/>
	</linearGradient>
	<path class="st31" d="M32.6,49.9L32.6,49.9c-0.5,0.3-0.8,0.8-0.8,1.2c0,0.5,0.3,0.9,0.8,1.2c1,0.6,2.7,0.6,3.8,0
		c0.5-0.3,0.8-0.7,0.8-1.2s-0.3-0.9-0.8-1.2C35.3,49.3,33.6,49.3,32.6,49.9z"/>
	<path class="st0" d="M34.4,49.2c-0.7,0-1.4,0.2-2,0.5c-0.6,0.4-1,0.9-1,1.4c0,0.6,0.3,1.1,1,1.4c0.5,0.3,1.2,0.5,2,0.5
		c0.7,0,1.5-0.2,2-0.5c0.6-0.4,1-0.9,1-1.4c0-0.6-0.3-1.1-1-1.4C35.9,49.4,35.2,49.2,34.4,49.2L34.4,49.2z M32,51.1
		c0-0.4,0.2-0.7,0.7-1c0.5-0.3,1.1-0.4,1.8-0.4c0.6,0,1.3,0.1,1.8,0.4c0.5,0.3,0.7,0.6,0.7,1c0,0.4-0.2,0.7-0.7,1
		c-0.5,0.3-1.1,0.4-1.8,0.4c-0.6,0-1.3-0.1-1.8-0.4C32.2,51.9,32,51.5,32,51.1L32,51.1z"/>
	<path class="st2" d="M34.4,49.7c-0.6,0-1.3,0.1-1.8,0.4c-0.5,0.3-0.7,0.6-0.7,1c0,0.4,0.2,0.7,0.7,1c0.5,0.3,1.1,0.4,1.8,0.4
		c0.6,0,1.3-0.1,1.8-0.4c0.5-0.3,0.7-0.6,0.7-1c0-0.4-0.2-0.7-0.7-1C35.7,49.9,35.1,49.7,34.4,49.7L34.4,49.7z M34.4,52.1
		c-0.6,0-1.1-0.1-1.5-0.4c-0.3-0.2-0.5-0.4-0.5-0.6c0-0.2,0.2-0.4,0.5-0.6c0.4-0.2,0.9-0.4,1.5-0.4s1.1,0.1,1.5,0.4
		c0.3,0.2,0.5,0.4,0.5,0.6c0,0.2-0.2,0.4-0.5,0.6C35.6,52,35,52.1,34.4,52.1L34.4,52.1z"/>
	<path class="st13" d="M36.2,50.1c-1-0.6-2.5-0.6-3.5,0s-1,1.5,0,2c1,0.6,2.5,0.6,3.5,0C37.2,51.6,37.2,50.7,36.2,50.1z"/>
	
		<linearGradient id="SVGID_29_" gradientUnits="userSpaceOnUse" x1="571.709" y1="725.9512" x2="570.4693" y2="723.8101" gradientTransform="matrix(1 0 0 1 -532 -671)">
		<stop  offset="0" style="stop-color:#AFC4D0"/>
		<stop  offset="0.9001" style="stop-color:#94B0BF"/>
		<stop  offset="1" style="stop-color:#7B9DAE"/>
	</linearGradient>
	<path class="st32" d="M38,53.1L38,53.1c-0.3,0.2-0.5,0.5-0.5,0.8c0,0.3,0.2,0.6,0.5,0.8c0.6,0.4,1.6,0.4,2.2,0
		c0.3-0.2,0.5-0.5,0.5-0.8c0-0.3-0.2-0.6-0.5-0.8C39.6,52.7,38.6,52.7,38,53.1z"/>
	<path class="st0" d="M39.1,52.6c-0.5,0-0.9,0.1-1.2,0.3c-0.4,0.2-0.7,0.6-0.6,1c0,0.4,0.2,0.7,0.6,1c0.3,0.2,0.8,0.3,1.2,0.3
		c0.5,0,0.9-0.1,1.2-0.3c0.4-0.2,0.6-0.6,0.6-1c0-0.4-0.2-0.7-0.6-1l0,0C40,52.7,39.6,52.6,39.1,52.6L39.1,52.6z M37.7,53.9
		c0-0.2,0.1-0.4,0.4-0.6c0.3-0.2,0.6-0.2,1-0.2s0.7,0.1,1,0.2c0.3,0.2,0.4,0.4,0.4,0.6c0,0.2-0.1,0.4-0.4,0.6
		c-0.3,0.2-0.6,0.2-1,0.2s-0.7-0.1-1-0.2C37.9,54.3,37.7,54.1,37.7,53.9L37.7,53.9z"/>
	<path class="st2" d="M39.1,53c-0.4,0-0.7,0.1-1,0.2c-0.3,0.2-0.4,0.4-0.4,0.6s0.1,0.4,0.4,0.6c0.3,0.2,0.6,0.2,1,0.2s0.7-0.1,1-0.2
		c0.3-0.2,0.4-0.4,0.4-0.6s-0.1-0.4-0.4-0.6C39.9,53.1,39.5,53,39.1,53L39.1,53z M39.1,54.2c-0.3,0-0.6-0.1-0.8-0.2
		c-0.1-0.1-0.2-0.2-0.2-0.2s0-0.1,0.2-0.2c0.2-0.1,0.5-0.2,0.8-0.2c0.3,0,0.6,0.1,0.8,0.2l0,0c0.1,0.1,0.2,0.2,0.2,0.2
		s0,0.1-0.2,0.2C39.7,54.1,39.4,54.2,39.1,54.2L39.1,54.2z"/>
	<path class="st13" d="M40.1,53.3c-0.6-0.3-1.4-0.3-2,0s-0.6,0.8,0,1.2c0.6,0.3,1.4,0.3,2,0C40.7,54.1,40.7,53.6,40.1,53.3z"/>
	
		<linearGradient id="SVGID_30_" gradientUnits="userSpaceOnUse" x1="575.0273" y1="727.7842" x2="573.7884" y2="725.6441" gradientTransform="matrix(1 0 0 1 -532 -671)">
		<stop  offset="0" style="stop-color:#AFC4D0"/>
		<stop  offset="0.9001" style="stop-color:#94B0BF"/>
		<stop  offset="1" style="stop-color:#7B9DAE"/>
	</linearGradient>
	<path class="st33" d="M41.3,54.9L41.3,54.9c-0.3,0.2-0.5,0.5-0.5,0.8s0.2,0.6,0.5,0.8c0.6,0.4,1.6,0.4,2.2,0
		c0.3-0.2,0.5-0.5,0.5-0.8s-0.2-0.6-0.5-0.8C42.9,54.6,41.9,54.6,41.3,54.9z"/>
	<path class="st0" d="M42.4,54.4c-0.5,0-0.9,0.1-1.2,0.3c-0.4,0.2-0.7,0.6-0.7,1c0,0.4,0.2,0.7,0.7,1c0.3,0.2,0.8,0.3,1.2,0.3
		c0.5,0,0.9-0.1,1.2-0.3c0.4-0.2,0.6-0.6,0.6-1c0-0.4-0.2-0.7-0.6-1l0,0C43.3,54.5,42.8,54.4,42.4,54.4L42.4,54.4z M41,55.7
		c0-0.2,0.1-0.4,0.4-0.6c0.3-0.2,0.6-0.2,1-0.2s0.7,0.1,1,0.2c0.3,0.2,0.4,0.4,0.4,0.6s-0.1,0.4-0.4,0.6c-0.3,0.2-0.6,0.2-1,0.2
		s-0.7-0.1-1-0.2C41.1,56.1,41,55.9,41,55.7L41,55.7z"/>
	<path class="st2" d="M42.4,54.9c-0.4,0-0.7,0.1-1,0.2c-0.3,0.2-0.4,0.4-0.4,0.6s0.1,0.4,0.4,0.6c0.3,0.2,0.6,0.2,1,0.2
		s0.7-0.1,1-0.2c0.3-0.2,0.4-0.4,0.4-0.6s-0.1-0.4-0.4-0.6C43.1,55,42.7,54.9,42.4,54.9L42.4,54.9z M42.4,56.1
		c-0.3,0-0.6-0.1-0.8-0.2c-0.2-0.1-0.2-0.2-0.2-0.2s0-0.1,0.2-0.2c0.2-0.1,0.5-0.2,0.8-0.2c0.3,0,0.6,0.1,0.8,0.2l0,0
		c0.1,0.1,0.2,0.2,0.2,0.2s0,0.1-0.2,0.2C42.9,56,42.7,56.1,42.4,56.1L42.4,56.1z"/>
	<path class="st13" d="M43.4,55.2c-0.6-0.3-1.4-0.3-2,0s-0.6,0.8,0,1.2c0.6,0.3,1.4,0.3,2,0C43.9,56,43.9,55.5,43.4,55.2z"/>
	
		<linearGradient id="SVGID_31_" gradientUnits="userSpaceOnUse" x1="-1079.9761" y1="204.3516" x2="-1081.2152" y2="202.2112" gradientTransform="matrix(-1 0 0 -1 -1050.9063 251.7637)">
		<stop  offset="0" style="stop-color:#AFC4D0"/>
		<stop  offset="0.9001" style="stop-color:#94B0BF"/>
		<stop  offset="1" style="stop-color:#7B9DAE"/>
	</linearGradient>
	<path class="st34" d="M28.6,47.7L28.6,47.7c-0.3,0.2-0.5,0.5-0.5,0.8s0.2,0.6,0.5,0.8c0.6,0.4,1.6,0.4,2.2,0
		c0.3-0.2,0.5-0.5,0.5-0.8s-0.2-0.6-0.5-0.8C30.2,47.3,29.3,47.3,28.6,47.7z"/>
	<path class="st0" d="M29.8,47.2c-0.5,0-0.9,0.1-1.2,0.3c-0.4,0.2-0.7,0.6-0.7,1s0.2,0.7,0.7,1c0.3,0.2,0.8,0.3,1.2,0.3
		c0.4,0,0.9-0.1,1.2-0.3c0.4-0.2,0.6-0.6,0.6-1s-0.2-0.7-0.6-1C30.7,47.3,30.2,47.2,29.8,47.2L29.8,47.2z M28.3,48.4
		c0-0.2,0.1-0.4,0.4-0.6c0.3-0.2,0.6-0.2,1-0.2c0.4,0,0.7,0.1,1,0.2c0.3,0.2,0.4,0.4,0.4,0.6c0,0.2-0.1,0.5-0.3,0.6
		c-0.3,0.2-0.6,0.2-1,0.2c-0.4,0-0.7-0.1-1-0.2C28.5,48.9,28.3,48.7,28.3,48.4L28.3,48.4z"/>
	<path class="st2" d="M29.8,47.6c-0.4,0-0.7,0.1-1,0.2c-0.3,0.2-0.4,0.4-0.4,0.6c0,0.2,0.1,0.4,0.4,0.6c0.3,0.2,0.6,0.2,1,0.2
		c0.4,0,0.7-0.1,1-0.2c0.3-0.2,0.4-0.4,0.4-0.6c0-0.2-0.2-0.4-0.4-0.5C30.5,47.7,30.1,47.6,29.8,47.6L29.8,47.6z M29.8,48.8
		c-0.3,0-0.6-0.1-0.8-0.2s-0.2-0.2-0.2-0.2s0-0.1,0.2-0.2c0.2-0.1,0.5-0.2,0.8-0.2c0.3,0,0.6,0.1,0.8,0.2c0.2,0.1,0.2,0.2,0.2,0.2
		s0,0.1-0.2,0.2C30.3,48.7,30,48.8,29.8,48.8L29.8,48.8z"/>
	<path class="st13" d="M28.8,49c0.6,0.3,1.4,0.3,2,0c0.6-0.3,0.6-0.8,0-1.2c-0.5-0.3-1.4-0.3-2,0C28.2,48.2,28.2,48.7,28.8,49z"/>
	
		<linearGradient id="SVGID_32_" gradientUnits="userSpaceOnUse" x1="-1076.7749" y1="206.2549" x2="-1078.015" y2="204.1128" gradientTransform="matrix(-1 0 0 -1 -1050.9063 251.7637)">
		<stop  offset="0" style="stop-color:#AFC4D0"/>
		<stop  offset="0.9001" style="stop-color:#94B0BF"/>
		<stop  offset="1" style="stop-color:#7B9DAE"/>
	</linearGradient>
	<path class="st35" d="M25.4,45.8L25.4,45.8c-0.3,0.2-0.5,0.5-0.5,0.8c0,0.3,0.2,0.6,0.5,0.8c0.6,0.4,1.6,0.4,2.2,0
		c0.3-0.2,0.5-0.5,0.5-0.8c0-0.3-0.2-0.6-0.5-0.8C27,45.4,26,45.4,25.4,45.8z"/>
	<path class="st0" d="M26.5,45.3c-0.5,0-0.9,0.1-1.2,0.3c-0.4,0.2-0.7,0.6-0.7,1s0.2,0.7,0.7,1c0.3,0.2,0.8,0.3,1.2,0.3
		c0.5,0,0.9-0.1,1.2-0.3c0.4-0.2,0.6-0.6,0.6-1s-0.2-0.7-0.6-1l0,0C27.4,45.4,27,45.3,26.5,45.3L26.5,45.3z M25.1,46.6
		c0-0.2,0.1-0.4,0.4-0.6s0.6-0.2,1-0.2s0.7,0.1,1,0.2s0.4,0.4,0.4,0.6c0,0.2-0.1,0.4-0.4,0.6c-0.3,0.2-0.6,0.2-1,0.2s-0.7-0.1-1-0.2
		C25.2,47,25.1,46.8,25.1,46.6L25.1,46.6z"/>
	<path class="st2" d="M26.5,45.8c-0.4,0-0.7,0.1-1,0.2c-0.3,0.2-0.4,0.4-0.4,0.6c0,0.2,0.1,0.4,0.4,0.6c0.3,0.2,0.6,0.2,1,0.2
		s0.7-0.1,1-0.2c0.3-0.2,0.4-0.4,0.4-0.6c0-0.2-0.1-0.4-0.4-0.6S26.9,45.8,26.5,45.8L26.5,45.8z M26.5,46.9c-0.3,0-0.6-0.1-0.8-0.2
		c-0.2-0.1-0.2-0.2-0.2-0.2s0-0.1,0.2-0.2c0.2-0.1,0.5-0.2,0.8-0.2s0.6,0.1,0.8,0.2l0,0c0.1,0.1,0.2,0.2,0.2,0.2s0,0.1-0.2,0.2
		C27.1,46.9,26.8,46.9,26.5,46.9L26.5,46.9z"/>
	<path class="st13" d="M25.5,47.1c0.6,0.3,1.4,0.3,2,0c0.6-0.3,0.6-0.8,0-1.2c-0.6-0.3-1.4-0.3-2,0C25,46.3,25,46.8,25.5,47.1z"/>
	
		<linearGradient id="SVGID_33_" gradientUnits="userSpaceOnUse" x1="567.2285" y1="723.2451" x2="565.6998" y2="720.6045" gradientTransform="matrix(1 0 0 1 -532 -671)">
		<stop  offset="0" style="stop-color:#AFC4D0"/>
		<stop  offset="0.9001" style="stop-color:#94B0BF"/>
		<stop  offset="1" style="stop-color:#7B9DAE"/>
	</linearGradient>
	<path class="st36" d="M32.8,50.1L32.8,50.1c-0.4,0.2-0.6,0.5-0.6,0.8c0,0.3,0.2,0.6,0.6,0.8c0.9,0.5,2.4,0.5,3.3,0
		c0.4-0.2,0.6-0.5,0.6-0.8c0-0.3-0.2-0.6-0.6-0.8C35.2,49.6,33.7,49.6,32.8,50.1z"/>
	<path class="st2" d="M34.4,49.5c-0.6,0-1.3,0.1-1.8,0.4c-0.5,0.3-0.7,0.6-0.7,1c0,0.4,0.2,0.7,0.7,1c0.5,0.3,1.1,0.4,1.8,0.4
		c0.6,0,1.3-0.1,1.8-0.4c0.5-0.3,0.7-0.6,0.7-1c0-0.4-0.2-0.7-0.7-1C35.7,49.6,35.1,49.5,34.4,49.5L34.4,49.5z M34.4,51.9
		c-0.6,0-1.1-0.1-1.5-0.4c-0.3-0.2-0.5-0.4-0.5-0.6c0-0.2,0.2-0.4,0.5-0.6c0.4-0.2,0.9-0.4,1.5-0.4s1.1,0.1,1.5,0.4
		c0.3,0.2,0.5,0.4,0.5,0.6c0,0.2-0.2,0.4-0.5,0.6C35.6,51.8,35,51.9,34.4,51.9L34.4,51.9z"/>
	<path class="st13" d="M36.2,49.9c-1-0.6-2.5-0.6-3.5,0s-1,1.5,0,2c1,0.6,2.5,0.6,3.5,0C37.2,51.4,37.2,50.5,36.2,49.9z"/>
	
		<linearGradient id="SVGID_34_" gradientUnits="userSpaceOnUse" x1="571.5391" y1="725.2852" x2="570.7735" y2="723.9627" gradientTransform="matrix(1 0 0 1 -532 -671)">
		<stop  offset="0" style="stop-color:#AFC4D0"/>
		<stop  offset="0.9001" style="stop-color:#94B0BF"/>
		<stop  offset="1" style="stop-color:#7B9DAE"/>
	</linearGradient>
	<path class="st37" d="M38.3,53.3C38.2,53.3,38.2,53.3,38.3,53.3c-0.2,0.1-0.3,0.2-0.3,0.4c0,0.1,0.1,0.3,0.3,0.4
		c0.5,0.3,1.3,0.3,1.8,0c0.2-0.1,0.3-0.2,0.3-0.4c0-0.1-0.1-0.3-0.3-0.4C39.5,53,38.7,53,38.3,53.3z"/>
	<path class="st2" d="M39.1,52.8c-0.4,0-0.7,0.1-1,0.2c-0.3,0.2-0.4,0.4-0.4,0.6c0,0.2,0.1,0.4,0.4,0.6c0.3,0.2,0.6,0.2,1,0.2
		s0.7-0.1,1-0.2c0.3-0.2,0.4-0.4,0.4-0.6c0-0.2-0.1-0.4-0.4-0.6C39.9,52.9,39.5,52.8,39.1,52.8L39.1,52.8z M39.1,54
		c-0.3,0-0.6-0.1-0.8-0.2c-0.1-0.1-0.2-0.2-0.2-0.2s0-0.1,0.2-0.2c0.2-0.1,0.5-0.2,0.8-0.2c0.3,0,0.6,0.1,0.8,0.2l0,0
		c0.1,0.1,0.2,0.2,0.2,0.2s0,0.1-0.2,0.2C39.7,53.9,39.4,54,39.1,54L39.1,54z"/>
	<path class="st13" d="M40.1,53.1c-0.6-0.3-1.4-0.3-2,0c-0.6,0.3-0.6,0.8,0,1.2c0.6,0.3,1.4,0.3,2,0C40.7,53.9,40.7,53.4,40.1,53.1z
		"/>
	
		<linearGradient id="SVGID_35_" gradientUnits="userSpaceOnUse" x1="574.7822" y1="727.1611" x2="574.0161" y2="725.8378" gradientTransform="matrix(1 0 0 1 -532 -671)">
		<stop  offset="0" style="stop-color:#AFC4D0"/>
		<stop  offset="0.9001" style="stop-color:#94B0BF"/>
		<stop  offset="1" style="stop-color:#7B9DAE"/>
	</linearGradient>
	<path class="st38" d="M41.5,55.1L41.5,55.1c-0.2,0.1-0.3,0.2-0.3,0.4s0.1,0.3,0.3,0.4c0.5,0.3,1.3,0.3,1.8,0
		c0.2-0.1,0.3-0.2,0.3-0.4s-0.1-0.3-0.3-0.4C42.8,54.9,42,54.9,41.5,55.1z"/>
	<path class="st2" d="M42.4,54.7c-0.4,0-0.7,0.1-1,0.2c-0.3,0.2-0.4,0.4-0.4,0.6s0.1,0.4,0.4,0.6c0.3,0.2,0.6,0.2,1,0.2
		s0.7-0.1,1-0.2c0.3-0.2,0.4-0.4,0.4-0.6s-0.1-0.4-0.4-0.6C43.1,54.8,42.7,54.7,42.4,54.7L42.4,54.7z M42.4,55.9
		c-0.3,0-0.6-0.1-0.8-0.2c-0.1-0.1-0.2-0.2-0.2-0.2s0-0.1,0.2-0.2c0.2-0.1,0.5-0.2,0.8-0.2c0.3,0,0.6,0.1,0.8,0.2l0,0
		c0.1,0.1,0.2,0.2,0.2,0.2s0,0.1-0.2,0.2C42.9,55.8,42.7,55.9,42.4,55.9L42.4,55.9z"/>
	<path class="st13" d="M43.4,54.9c-0.6-0.3-1.4-0.3-2,0c-0.6,0.3-0.6,0.8,0,1.2c0.6,0.3,1.4,0.3,2,0C43.9,55.8,43.9,55.3,43.4,54.9z
		"/>
	
		<linearGradient id="SVGID_36_" gradientUnits="userSpaceOnUse" x1="-1080.2803" y1="204.1992" x2="-1081.0457" y2="202.8772" gradientTransform="matrix(-1 0 0 -1 -1050.9063 251.7637)">
		<stop  offset="0" style="stop-color:#AFC4D0"/>
		<stop  offset="0.9001" style="stop-color:#94B0BF"/>
		<stop  offset="1" style="stop-color:#7B9DAE"/>
	</linearGradient>
	<path class="st39" d="M28.9,47.9c-0.2,0.1-0.3,0.2-0.3,0.4l0,0c0,0.1,0.1,0.3,0.3,0.4c0.5,0.3,1.3,0.3,1.8,0
		c0.2-0.1,0.3-0.2,0.3-0.4c0-0.1-0.1-0.3-0.3-0.4C30.2,47.6,29.4,47.6,28.9,47.9z"/>
	<path class="st2" d="M29.8,47.4c-0.4,0-0.7,0.1-1,0.2c-0.3,0.2-0.4,0.4-0.4,0.6c0,0.2,0.1,0.4,0.4,0.6c0.3,0.2,0.6,0.2,1,0.2
		c0.4,0,0.7-0.1,1-0.2c0.3-0.2,0.4-0.4,0.4-0.6c0-0.2-0.1-0.4-0.4-0.6C30.5,47.5,30.1,47.4,29.8,47.4L29.8,47.4z M29.8,48.6
		c-0.3,0-0.6-0.1-0.8-0.2c-0.1-0.1-0.2-0.2-0.2-0.2s0-0.1,0.2-0.2s0.5-0.2,0.8-0.2c0.3,0,0.6,0.1,0.8,0.2c0.1,0.1,0.2,0.2,0.2,0.2
		s0,0.1-0.2,0.2C30.3,48.5,30,48.6,29.8,48.6L29.8,48.6z"/>
	<path class="st13" d="M28.8,48.8c0.6,0.3,1.4,0.3,2,0c0.6-0.3,0.6-0.8,0-1.2c-0.5-0.3-1.4-0.3-2,0C28.2,48,28.2,48.5,28.8,48.8z"/>
	
		<linearGradient id="SVGID_37_" gradientUnits="userSpaceOnUse" x1="-1077.0059" y1="206.0557" x2="-1077.7706" y2="204.7348" gradientTransform="matrix(-1 0 0 -1 -1050.9063 251.7637)">
		<stop  offset="0" style="stop-color:#AFC4D0"/>
		<stop  offset="0.9001" style="stop-color:#94B0BF"/>
		<stop  offset="1" style="stop-color:#7B9DAE"/>
	</linearGradient>
	<path class="st40" d="M25.6,46c-0.2,0.1-0.3,0.2-0.3,0.4l0,0c0,0.1,0.1,0.3,0.3,0.4c0.5,0.3,1.3,0.3,1.8,0c0.2-0.1,0.3-0.2,0.3-0.4
		c0-0.1-0.1-0.3-0.3-0.4C26.9,45.7,26.1,45.7,25.6,46z"/>
	<path class="st2" d="M26.5,45.5c-0.4,0-0.7,0.1-1,0.2c-0.3,0.2-0.4,0.4-0.4,0.6c0,0.2,0.1,0.4,0.4,0.6c0.3,0.2,0.6,0.2,1,0.2
		s0.7-0.1,1-0.2c0.3-0.2,0.4-0.4,0.4-0.6c0-0.2-0.1-0.4-0.4-0.6C27.2,45.6,26.9,45.5,26.5,45.5L26.5,45.5z M26.5,46.7
		c-0.3,0-0.6-0.1-0.8-0.2c-0.2-0.1-0.2-0.2-0.2-0.2s0-0.1,0.2-0.2c0.2-0.1,0.5-0.2,0.8-0.2s0.6,0.1,0.8,0.2l0,0
		c0.1,0.1,0.2,0.2,0.2,0.2s0,0.1-0.2,0.2C27.1,46.6,26.8,46.7,26.5,46.7L26.5,46.7z"/>
	<path class="st13" d="M25.5,46.9c0.6,0.3,1.4,0.3,2,0c0.6-0.3,0.6-0.8,0-1.2c-0.6-0.3-1.4-0.3-2,0C25,46.1,25,46.6,25.5,46.9z"/>
	
		<linearGradient id="SVGID_38_" gradientUnits="userSpaceOnUse" x1="583.9004" y1="730.7197" x2="583.9004" y2="733.3762" gradientTransform="matrix(1 0 0 1 -532 -671)">
		<stop  offset="0" style="stop-color:#CEDA00"/>
		<stop  offset="0.6627" style="stop-color:#138F2E"/>
		<stop  offset="0.9955" style="stop-color:#006E1D"/>
	</linearGradient>
	<path class="st41" d="M50.6,60.4L50.6,60.4c-0.4,0.2-0.6,0.5-0.6,0.9c0,0.3,0.2,0.6,0.6,0.9c0.7,0.4,1.8,0.4,2.6,0
		c0.4-0.2,0.6-0.5,0.6-0.9c0-0.3-0.2-0.7-0.6-0.9C52.4,60,51.3,60,50.6,60.4z"/>
	<path class="st14" d="M51.9,59.8c-0.5,0-1,0.1-1.4,0.3c-0.5,0.3-0.7,0.7-0.7,1.1c0,0.4,0.3,0.8,0.7,1.1c0.4,0.2,0.9,0.3,1.4,0.3
		s1-0.1,1.4-0.3c0.5-0.3,0.7-0.7,0.7-1.1c0-0.4-0.3-0.8-0.7-1.1l0,0C52.9,60,52.4,59.8,51.9,59.8L51.9,59.8z M50.2,61.3
		c0-0.2,0.2-0.5,0.5-0.7c0.3-0.2,0.7-0.3,1.2-0.3c0.4,0,0.8,0.1,1.2,0.3c0.3,0.2,0.5,0.4,0.5,0.7s-0.2,0.5-0.5,0.7
		c-0.3,0.2-0.7,0.3-1.2,0.3c-0.4,0-0.8-0.1-1.2-0.3C50.4,61.7,50.2,61.5,50.2,61.3L50.2,61.3z"/>
	<path class="st17" d="M51.9,60.3c-0.4,0-0.8,0.1-1.2,0.3c-0.3,0.2-0.5,0.4-0.5,0.7s0.2,0.5,0.5,0.7c0.3,0.2,0.7,0.3,1.2,0.3
		c0.4,0,0.8-0.1,1.2-0.3c0.3-0.2,0.5-0.4,0.5-0.7s-0.2-0.5-0.5-0.7C52.7,60.4,52.3,60.3,51.9,60.3L51.9,60.3z M51.9,61.7
		c-0.4,0-0.7-0.1-0.9-0.2s-0.2-0.2-0.2-0.3c0-0.1,0.1-0.2,0.3-0.3c0.2-0.1,0.6-0.2,0.9-0.2c0.4,0,0.7,0.1,0.9,0.2l0,0
		c0.2,0.1,0.2,0.2,0.2,0.3c0,0.1-0.1,0.2-0.2,0.3C52.6,61.7,52.2,61.7,51.9,61.7L51.9,61.7z"/>
	<path class="st1" d="M53,60.6c-0.6-0.4-1.7-0.4-2.3,0c-0.6,0.4-0.6,1,0,1.3c0.6,0.4,1.7,0.4,2.3,0C53.7,61.6,53.7,61,53,60.6z"/>
	
		<linearGradient id="SVGID_39_" gradientUnits="userSpaceOnUse" x1="578.1631" y1="729.791" x2="578.8955" y2="730.7892" gradientTransform="matrix(1 0 0 1 -532 -671)">
		<stop  offset="5.617980e-003" style="stop-color:#FBC600"/>
		<stop  offset="1" style="stop-color:#E50012"/>
	</linearGradient>
	<path class="st42" d="M45.7,59.1c0.2,0.1,1.1,0.6,1.1,0.6s0.3-0.2,0.5-0.3c-0.2-0.1-1.1-0.6-1.1-0.6S45.9,59,45.7,59.1z"/>
	<path class="st3" d="M46.3,58.7l-0.8,0.4l0.2,0.1l0,0l0,0l0,0l1,0.6l0.5-0.3l0,0l0,0l0,0l0.2-0.1L46.3,58.7L46.3,58.7z M46,59.1
		l0.3-0.2l0.8,0.5l-0.3,0.2L46,59.1L46,59.1z"/>
	<polygon class="st16" points="45.5,59.1 46.8,59.9 47.6,59.4 46.3,58.7 	"/>
	
		<linearGradient id="SVGID_40_" gradientUnits="userSpaceOnUse" x1="580.1377" y1="728.6563" x2="580.8653" y2="729.6481" gradientTransform="matrix(1 0 0 1 -532 -671)">
		<stop  offset="5.617980e-003" style="stop-color:#FBC600"/>
		<stop  offset="1" style="stop-color:#E50012"/>
	</linearGradient>
	<path class="st43" d="M47.7,58c0.2,0.1,1.1,0.6,1.1,0.6s0.3-0.2,0.5-0.3c-0.2-0.1-1.1-0.6-1.1-0.6S47.9,57.8,47.7,58z"/>
	<path class="st3" d="M48.3,57.5L47.5,58l0.2,0.1l0,0l0,0l0,0l1,0.6l0.5-0.3l0,0l0,0l0,0l0.2-0.1L48.3,57.5L48.3,57.5z M48,58
		l0.3-0.2l0.8,0.5l-0.3,0.2L48,58L48,58z"/>
	<polygon class="st16" points="47.5,58 48.8,58.7 49.5,58.3 48.3,57.5 	"/>
</g>
</svg>
