<?xml version="1.0" encoding="utf-8"?>
<!-- Generator: Adobe Illustrator 16.0.0, SVG Export Plug-In . SVG Version: 6.00 Build 0)  -->
<!DOCTYPE svg PUBLIC "-//W3C//DTD SVG 1.1//EN" "http://www.w3.org/Graphics/SVG/1.1/DTD/svg11.dtd">
<svg version="1.1" id="图层_1" xmlns="http://www.w3.org/2000/svg" xmlns:xlink="http://www.w3.org/1999/xlink" x="0px" y="0px"
	 width="100px" height="130px" viewBox="0 -15 100 130" style="enable-background:new 0 -15 100 130;" xml:space="preserve">
<style type="text/css">
<![CDATA[
	.st0{fill:url(#SVGID_1_);}
	.st1{fill:url(#SVGID_2_);}
	.st2{fill:url(#SVGID_3_);}
	.st3{fill:url(#SVGID_4_);}
	.st4{fill:url(#SVGID_5_);}
	.st5{fill:url(#SVGID_6_);}
	.st6{fill:url(#SVGID_7_);}
	.st7{fill:url(#SVGID_8_);}
	.st8{fill:url(#SVGID_9_);}
	.st9{fill:#FFFFFF;}
	.st10{fill:#6D8D9D;}
	.st11{fill:url(#SVGID_10_);}
	.st12{fill:url(#SVGID_11_);}
	.st13{fill:url(#SVGID_12_);}
	.st14{fill:url(#SVGID_13_);}
	.st15{fill:url(#SVGID_14_);}
	.st16{fill:url(#SVGID_15_);}
	.st17{fill:url(#SVGID_16_);}
	.st18{fill:url(#SVGID_17_);}
	.st19{fill:url(#SVGID_18_);}
	.st20{fill:url(#SVGID_19_);}
	.st21{fill:url(#SVGID_20_);}
	.st22{fill:url(#SVGID_21_);}
	.st23{fill:url(#SVGID_22_);}
	.st24{fill:url(#SVGID_23_);}
	.st25{fill:url(#SVGID_24_);}
	.st26{fill:url(#SVGID_25_);}
	.st27{fill:url(#SVGID_26_);}
	.st28{fill:url(#SVGID_27_);}
	.st29{fill:url(#SVGID_28_);}
	.st30{fill:url(#SVGID_29_);}
	.st31{fill:url(#SVGID_30_);}
	.st32{fill:url(#SVGID_31_);}
	.st33{fill:url(#SVGID_32_);}
	.st34{fill:url(#SVGID_33_);}
	.st35{fill:url(#SVGID_34_);}
	.st36{fill:url(#SVGID_35_);}
	.st37{fill:url(#SVGID_36_);}
	.st38{fill:url(#SVGID_37_);}
	.st39{fill:url(#SVGID_38_);}
	.st40{fill:url(#SVGID_39_);}
	.st41{fill:url(#SVGID_40_);}
	.st42{fill:url(#SVGID_41_);}
	.st43{fill:url(#SVGID_42_);}
	.st44{fill:url(#SVGID_43_);}
	.st45{fill:url(#SVGID_44_);}
	.st46{fill:url(#SVGID_45_);}
	.st47{fill:url(#SVGID_46_);}
]]>
</style>
<g>
	<g>
		<g>
			<polygon class="st10" points="33.5,104.2 8.2,89.3 8.2,18.3 33.5,33.2 			"/>
			
				<linearGradient id="SVGID_1_" gradientUnits="userSpaceOnUse" x1="292.7412" y1="-280.0503" x2="322.3779" y2="-228.718" gradientTransform="matrix(1 0 0 -1 -256 -245)">
				<stop  offset="0" style="stop-color:#98B2BF"/>
				<stop  offset="1" style="stop-color:#B7CAD5"/>
			</linearGradient>
			<polygon class="st0" points="8.2,18.3 69.6,-14.4 95,0.6 33.5,33.2 			"/>
			
				<linearGradient id="SVGID_2_" gradientUnits="userSpaceOnUse" x1="320.2002" y1="-349.1504" x2="320.2002" y2="-245.5503" gradientTransform="matrix(1 0 0 -1 -256 -245)">
				<stop  offset="0" style="stop-color:#3D4F5A"/>
				<stop  offset="1" style="stop-color:#607A88"/>
			</linearGradient>
			<polygon class="st1" points="33.5,104.2 95,71.5 95,0.6 33.5,33.2 			"/>
		</g>
		<polygon class="st10" points="31.2,105.5 5.9,90.7 5.9,19.7 31.2,34.6 		"/>
		
			<linearGradient id="SVGID_3_" gradientUnits="userSpaceOnUse" x1="265.4502" y1="-278.9502" x2="283.5108" y2="-278.9502" gradientTransform="matrix(1 0 0 -1 -256 -245)">
			<stop  offset="0" style="stop-color:#C7D6DE"/>
			<stop  offset="1" style="stop-color:#97B1BE"/>
		</linearGradient>
		<polygon class="st2" points="27.6,43.5 9.5,32.8 9.5,24.5 27.6,35.1 		"/>
		
			<linearGradient id="SVGID_4_" gradientUnits="userSpaceOnUse" x1="265.9502" y1="-277.4502" x2="283.0088" y2="-277.4502" gradientTransform="matrix(1 0 0 -1 -256 -245)">
			<stop  offset="0" style="stop-color:#607A88"/>
			<stop  offset="1" style="stop-color:#3D4F5A"/>
		</linearGradient>
		<polygon class="st3" points="27,38.4 10,28.4 10,26.6 27,36.6 		"/>
		
			<linearGradient id="SVGID_5_" gradientUnits="userSpaceOnUse" x1="274.8232" y1="-272.4775" x2="275.7527" y2="-270.8674" gradientTransform="matrix(1 0 0 -1 -256 -245)">
			<stop  offset="0" style="stop-color:#98B2BF"/>
			<stop  offset="1" style="stop-color:#B7CAD5"/>
		</linearGradient>
		<polygon class="st4" points="5.9,19.7 7.4,18.8 32.8,33.7 31.2,34.6 		"/>
		
			<linearGradient id="SVGID_6_" gradientUnits="userSpaceOnUse" x1="287.9502" y1="-350.5498" x2="287.9502" y2="-278.6504" gradientTransform="matrix(1 0 0 -1 -256 -245)">
			<stop  offset="0" style="stop-color:#3D4F5A"/>
			<stop  offset="1" style="stop-color:#607A88"/>
		</linearGradient>
		<polygon class="st5" points="31.2,105.5 32.8,104.7 32.8,33.7 31.2,34.6 		"/>
		<g>
			<g>
				<g>
					
						<linearGradient id="SVGID_7_" gradientUnits="userSpaceOnUse" x1="261.8037" y1="-286.6504" x2="287.1377" y2="-286.6504" gradientTransform="matrix(1 0 0 -1 -256 -245)">
						<stop  offset="0" style="stop-color:#98B2BF"/>
						<stop  offset="1" style="stop-color:#B7CAD5"/>
					</linearGradient>
					<polygon class="st6" points="31.2,50.2 5.9,35.3 5.9,33.2 31.2,48 					"/>
				</g>
				
					<linearGradient id="SVGID_8_" gradientUnits="userSpaceOnUse" x1="287.9502" y1="-295.1504" x2="287.9502" y2="-292.1416" gradientTransform="matrix(1 0 0 -1 -256 -245)">
					<stop  offset="0" style="stop-color:#98B2BF"/>
					<stop  offset="1" style="stop-color:#B7CAD5"/>
				</linearGradient>
				<polygon class="st7" points="31.2,50.2 32.8,49.3 32.8,47.2 31.2,48 				"/>
			</g>
		</g>
		<g>
			<g>
				<g>
					
						<linearGradient id="SVGID_9_" gradientUnits="userSpaceOnUse" x1="261.8037" y1="-289.4502" x2="287.1377" y2="-289.4502" gradientTransform="matrix(1 0 0 -1 -256 -245)">
						<stop  offset="0" style="stop-color:#98B2BF"/>
						<stop  offset="1" style="stop-color:#B7CAD5"/>
					</linearGradient>
					<polygon class="st8" points="31.2,53 5.9,38.1 5.9,36 31.2,50.9 					"/>
				</g>
				
					<linearGradient id="SVGID_10_" gradientUnits="userSpaceOnUse" x1="287.9502" y1="-297.9414" x2="287.9502" y2="-294.9326" gradientTransform="matrix(1 0 0 -1 -256 -245)">
					<stop  offset="0" style="stop-color:#98B2BF"/>
					<stop  offset="1" style="stop-color:#B7CAD5"/>
				</linearGradient>
				<polygon class="st11" points="31.2,53 32.8,52 32.8,50 31.2,50.9 				"/>
			</g>
		</g>
		
			<linearGradient id="SVGID_11_" gradientUnits="userSpaceOnUse" x1="267.5303" y1="-336.0503" x2="287.1299" y2="-336.0503" gradientTransform="matrix(1 0 0 -1 -256 -245)">
			<stop  offset="0" style="stop-color:#98B2BF"/>
			<stop  offset="1" style="stop-color:#B7CAD5"/>
		</linearGradient>
		<polygon class="st12" points="31.2,96.2 31.2,97.5 11.6,85.9 11.6,84.7 		"/>
		
			<linearGradient id="SVGID_12_" gradientUnits="userSpaceOnUse" x1="287.9502" y1="-342.4092" x2="287.9502" y2="-340.2588" gradientTransform="matrix(1 0 0 -1 -256 -245)">
			<stop  offset="0" style="stop-color:#98B2BF"/>
			<stop  offset="1" style="stop-color:#B7CAD5"/>
		</linearGradient>
		<polygon class="st13" points="31.2,97.5 32.8,96.5 32.8,95.3 31.2,96.2 		"/>
		
			<linearGradient id="SVGID_13_" gradientUnits="userSpaceOnUse" x1="267.5303" y1="-334.2002" x2="287.1299" y2="-334.2002" gradientTransform="matrix(1 0 0 -1 -256 -245)">
			<stop  offset="0" style="stop-color:#98B2BF"/>
			<stop  offset="1" style="stop-color:#B7CAD5"/>
		</linearGradient>
		<polygon class="st14" points="31.2,94.4 31.2,95.5 11.6,84 11.6,82.9 		"/>
		
			<linearGradient id="SVGID_14_" gradientUnits="userSpaceOnUse" x1="287.9502" y1="-340.5835" x2="287.9502" y2="-338.4356" gradientTransform="matrix(1 0 0 -1 -256 -245)">
			<stop  offset="0" style="stop-color:#98B2BF"/>
			<stop  offset="1" style="stop-color:#B7CAD5"/>
		</linearGradient>
		<polygon class="st15" points="31.2,95.5 32.8,94.7 32.8,93.5 31.2,94.4 		"/>
		
			<linearGradient id="SVGID_15_" gradientUnits="userSpaceOnUse" x1="267.5303" y1="-332.3999" x2="287.1299" y2="-332.3999" gradientTransform="matrix(1 0 0 -1 -256 -245)">
			<stop  offset="0" style="stop-color:#98B2BF"/>
			<stop  offset="1" style="stop-color:#B7CAD5"/>
		</linearGradient>
		<polygon class="st16" points="31.2,92.5 31.2,93.8 11.6,82.3 11.6,81 		"/>
		
			<linearGradient id="SVGID_16_" gradientUnits="userSpaceOnUse" x1="287.9502" y1="-338.7607" x2="287.9502" y2="-336.6104" gradientTransform="matrix(1 0 0 -1 -256 -245)">
			<stop  offset="0" style="stop-color:#98B2BF"/>
			<stop  offset="1" style="stop-color:#B7CAD5"/>
		</linearGradient>
		<polygon class="st17" points="31.2,93.8 32.8,92.9 32.8,91.7 31.2,92.5 		"/>
		
			<linearGradient id="SVGID_17_" gradientUnits="userSpaceOnUse" x1="267.5303" y1="-330.5503" x2="287.1299" y2="-330.5503" gradientTransform="matrix(1 0 0 -1 -256 -245)">
			<stop  offset="0" style="stop-color:#98B2BF"/>
			<stop  offset="1" style="stop-color:#B7CAD5"/>
		</linearGradient>
		<polygon class="st18" points="31.2,90.8 31.2,92 11.6,80.4 11.6,79.2 		"/>
		
			<linearGradient id="SVGID_18_" gradientUnits="userSpaceOnUse" x1="287.9502" y1="-336.9365" x2="287.9502" y2="-334.7871" gradientTransform="matrix(1 0 0 -1 -256 -245)">
			<stop  offset="0" style="stop-color:#98B2BF"/>
			<stop  offset="1" style="stop-color:#B7CAD5"/>
		</linearGradient>
		<polygon class="st19" points="31.2,92 32.8,91 32.8,89.8 31.2,90.8 		"/>
		
			<linearGradient id="SVGID_19_" gradientUnits="userSpaceOnUse" x1="267.5303" y1="-328.7505" x2="287.1299" y2="-328.7505" gradientTransform="matrix(1 0 0 -1 -256 -245)">
			<stop  offset="0" style="stop-color:#98B2BF"/>
			<stop  offset="1" style="stop-color:#B7CAD5"/>
		</linearGradient>
		<polygon class="st20" points="31.2,89 31.2,90.2 11.6,78.5 11.6,77.4 		"/>
		
			<linearGradient id="SVGID_20_" gradientUnits="userSpaceOnUse" x1="287.9502" y1="-335.1123" x2="287.9502" y2="-332.9619" gradientTransform="matrix(1 0 0 -1 -256 -245)">
			<stop  offset="0" style="stop-color:#98B2BF"/>
			<stop  offset="1" style="stop-color:#B7CAD5"/>
		</linearGradient>
		<polygon class="st21" points="31.2,90.2 32.8,89.2 32.8,88 31.2,88.9 		"/>
		
			<linearGradient id="SVGID_21_" gradientUnits="userSpaceOnUse" x1="267.5303" y1="-326.8999" x2="287.1299" y2="-326.8999" gradientTransform="matrix(1 0 0 -1 -256 -245)">
			<stop  offset="0" style="stop-color:#98B2BF"/>
			<stop  offset="1" style="stop-color:#B7CAD5"/>
		</linearGradient>
		<polygon class="st22" points="31.2,87 31.2,88.3 11.6,76.8 11.6,75.5 		"/>
		
			<linearGradient id="SVGID_22_" gradientUnits="userSpaceOnUse" x1="287.9502" y1="-333.2881" x2="287.9502" y2="-331.1397" gradientTransform="matrix(1 0 0 -1 -256 -245)">
			<stop  offset="0" style="stop-color:#98B2BF"/>
			<stop  offset="1" style="stop-color:#B7CAD5"/>
		</linearGradient>
		<polygon class="st23" points="31.2,88.3 32.8,87.4 32.8,86.2 31.2,87 		"/>
		
			<linearGradient id="SVGID_23_" gradientUnits="userSpaceOnUse" x1="267.5303" y1="-325.1001" x2="287.1299" y2="-325.1001" gradientTransform="matrix(1 0 0 -1 -256 -245)">
			<stop  offset="0" style="stop-color:#98B2BF"/>
			<stop  offset="1" style="stop-color:#B7CAD5"/>
		</linearGradient>
		<polygon class="st24" points="31.2,85.3 31.2,86.5 11.6,75 11.6,73.8 12.6,74.4 		"/>
		
			<linearGradient id="SVGID_24_" gradientUnits="userSpaceOnUse" x1="287.9502" y1="-331.4639" x2="287.9502" y2="-329.314" gradientTransform="matrix(1 0 0 -1 -256 -245)">
			<stop  offset="0" style="stop-color:#98B2BF"/>
			<stop  offset="1" style="stop-color:#B7CAD5"/>
		</linearGradient>
		<polygon class="st25" points="31.2,86.5 32.8,85.5 32.8,84.4 31.2,85.3 		"/>
		
			<linearGradient id="SVGID_25_" gradientUnits="userSpaceOnUse" x1="268.0508" y1="-319.9131" x2="268.0508" y2="-318.7022" gradientTransform="matrix(1 0 0 -1 -256 -245)">
			<stop  offset="0" style="stop-color:#3D4F5A"/>
			<stop  offset="1" style="stop-color:#607A88"/>
		</linearGradient>
		<polygon class="st26" points="12.6,74.4 11.6,75 11.6,73.8 		"/>
		
			<linearGradient id="SVGID_26_" gradientUnits="userSpaceOnUse" x1="268.0508" y1="-321.7412" x2="268.0508" y2="-320.5298" gradientTransform="matrix(1 0 0 -1 -256 -245)">
			<stop  offset="0" style="stop-color:#3D4F5A"/>
			<stop  offset="1" style="stop-color:#607A88"/>
		</linearGradient>
		<polygon class="st27" points="12.6,76.2 11.6,76.8 11.6,75.5 		"/>
		
			<linearGradient id="SVGID_27_" gradientUnits="userSpaceOnUse" x1="268.0508" y1="-323.5708" x2="268.0508" y2="-322.3609" gradientTransform="matrix(1 0 0 -1 -256 -245)">
			<stop  offset="0" style="stop-color:#3D4F5A"/>
			<stop  offset="1" style="stop-color:#607A88"/>
		</linearGradient>
		<polygon class="st28" points="12.6,78 11.6,78.5 11.6,77.4 		"/>
		
			<linearGradient id="SVGID_28_" gradientUnits="userSpaceOnUse" x1="268.0508" y1="-325.3999" x2="268.0508" y2="-324.1885" gradientTransform="matrix(1 0 0 -1 -256 -245)">
			<stop  offset="0" style="stop-color:#3D4F5A"/>
			<stop  offset="1" style="stop-color:#607A88"/>
		</linearGradient>
		<polygon class="st29" points="12.6,79.8 11.6,80.4 11.6,79.2 		"/>
		
			<linearGradient id="SVGID_29_" gradientUnits="userSpaceOnUse" x1="268.0508" y1="-327.2295" x2="268.0508" y2="-326.0181" gradientTransform="matrix(1 0 0 -1 -256 -245)">
			<stop  offset="0" style="stop-color:#3D4F5A"/>
			<stop  offset="1" style="stop-color:#607A88"/>
		</linearGradient>
		<polygon class="st30" points="12.6,81.7 11.6,82.3 11.6,81 		"/>
		
			<linearGradient id="SVGID_30_" gradientUnits="userSpaceOnUse" x1="268.0508" y1="-329.0571" x2="268.0508" y2="-327.8472" gradientTransform="matrix(1 0 0 -1 -256 -245)">
			<stop  offset="0" style="stop-color:#3D4F5A"/>
			<stop  offset="1" style="stop-color:#607A88"/>
		</linearGradient>
		<polygon class="st31" points="12.6,83.5 11.6,84 11.6,82.9 		"/>
		
			<linearGradient id="SVGID_31_" gradientUnits="userSpaceOnUse" x1="268.0508" y1="-330.8882" x2="268.0508" y2="-329.6768" gradientTransform="matrix(1 0 0 -1 -256 -245)">
			<stop  offset="0" style="stop-color:#3D4F5A"/>
			<stop  offset="1" style="stop-color:#607A88"/>
		</linearGradient>
		<polygon class="st32" points="12.6,85.3 11.6,85.9 11.6,84.7 		"/>
		<g>
			
				<linearGradient id="SVGID_32_" gradientUnits="userSpaceOnUse" x1="279.0664" y1="-335.8564" x2="285.5547" y2="-335.8564" gradientTransform="matrix(1 0.589 0 -1 -256 -433.8607)">
				<stop  offset="0" style="stop-color:#3D4F5A"/>
				<stop  offset="1" style="stop-color:#607A88"/>
			</linearGradient>
			<path class="st33" d="M29.6,70.3c0,1.8-1.5,2.4-3.2,1.3c-1.8-1.1-3.2-3.4-3.2-5.2c0-1.8,1.5-2.4,3.2-1.3
				C28.1,66.2,29.6,68.5,29.6,70.3z"/>
			
				<radialGradient id="SVGID_33_" cx="282.4863" cy="-336.0259" r="2.874" gradientTransform="matrix(1 0.589 0 -1 -256 -433.8607)" gradientUnits="userSpaceOnUse">
				<stop  offset="0" style="stop-color:#B7CAD5"/>
				<stop  offset="1" style="stop-color:#98B2BF"/>
			</radialGradient>
			<path class="st34" d="M29.4,70.3c0,1.6-1.3,2.1-2.9,1.2c-1.6-0.9-2.9-3-2.9-4.6c0-1.6,1.3-2.1,2.9-1.2
				C28.1,66.7,29.4,68.7,29.4,70.3z"/>
		</g>
		<g>
			
				<linearGradient id="SVGID_34_" gradientUnits="userSpaceOnUse" x1="281.333" y1="-341.2656" x2="283.2891" y2="-341.2656" gradientTransform="matrix(1 0.589 0 -1 -256 -433.8607)">
				<stop  offset="0" style="stop-color:#3D4F5A"/>
				<stop  offset="1" style="stop-color:#607A88"/>
			</linearGradient>
			<path class="st35" d="M27.3,74.3c0,0.5-0.4,0.7-1,0.4c-0.5-0.3-1-1-1-1.6c0-0.5,0.4-0.7,1-0.4C26.9,73,27.3,73.8,27.3,74.3z"/>
			
				<radialGradient id="SVGID_35_" cx="282.3633" cy="-341.3037" r="0.8672" gradientTransform="matrix(1 0.589 0 -1 -256 -433.8607)" gradientUnits="userSpaceOnUse">
				<stop  offset="0" style="stop-color:#B7CAD5"/>
				<stop  offset="1" style="stop-color:#98B2BF"/>
			</radialGradient>
			<path class="st36" d="M27.3,74.3c0,0.5-0.4,0.6-0.9,0.4c-0.5-0.3-0.9-0.9-0.9-1.4s0.4-0.6,0.9-0.4C26.9,73.2,27.3,73.8,27.3,74.3
				z"/>
		</g>
	</g>
	<g>
		<g>
			
				<linearGradient id="SVGID_36_" gradientUnits="userSpaceOnUse" x1="315.71" y1="-355.0503" x2="342.2216" y2="-355.0503" gradientTransform="matrix(1 0 0 -1 -256 -245)">
				<stop  offset="0" style="stop-color:#3D4F5A"/>
				<stop  offset="0.5" style="stop-color:#607A88"/>
				<stop  offset="1" style="stop-color:#3D4F5A"/>
			</linearGradient>
			<path class="st37" d="M86.3,105.7v1c0,4.3-5.9,7.8-13.3,7.8c-7.3,0-13.3-3.5-13.3-7.8v-1c0,4.3,5.9,7.8,13.3,7.8
				C80.3,113.5,86.3,110,86.3,105.7z"/>
			
				<linearGradient id="SVGID_37_" gradientUnits="userSpaceOnUse" x1="315.7119" y1="-350.6504" x2="342.2217" y2="-350.6504" gradientTransform="matrix(1 0 0 -1 -256 -245)">
				<stop  offset="0" style="stop-color:#86A2B1"/>
				<stop  offset="0.5" style="stop-color:#A9BFCB"/>
				<stop  offset="1" style="stop-color:#86A2B1"/>
			</linearGradient>
			<ellipse class="st38" cx="73" cy="105.7" rx="13.3" ry="7.8"/>
		</g>
		
			<linearGradient id="SVGID_38_" gradientUnits="userSpaceOnUse" x1="326.8232" y1="-420.2974" x2="334.9229" y2="-420.2974" gradientTransform="matrix(1 0.589 0 -1 -256 -512.683)">
			<stop  offset="0" style="stop-color:#3D4F5A"/>
			<stop  offset="0.5" style="stop-color:#607A88"/>
			<stop  offset="1" style="stop-color:#3D4F5A"/>
		</linearGradient>
		<polygon class="st39" points="79,107.9 70.9,103 70.9,97.3 79,102 		"/>
		
			<linearGradient id="SVGID_39_" gradientUnits="userSpaceOnUse" x1="323.4727" y1="-424.0352" x2="331.5732" y2="-424.0352" gradientTransform="matrix(1 0.589 0 -1 -256 -512.683)">
			<stop  offset="0" style="stop-color:#3D4F5A"/>
			<stop  offset="1" style="stop-color:#607A88"/>
		</linearGradient>
		<polygon class="st40" points="75.6,109.5 67.5,104.8 67.5,99 75.6,103.8 		"/>
		
			<linearGradient id="SVGID_40_" gradientUnits="userSpaceOnUse" x1="331.5781" y1="-350.5" x2="334.9297" y2="-350.5" gradientTransform="matrix(1 0 0 -1 -256 -245)">
			<stop  offset="0" style="stop-color:#3D4F5A"/>
			<stop  offset="0.9926" style="stop-color:#607A88"/>
		</linearGradient>
		<polygon class="st41" points="79,107.9 75.6,109.5 75.6,101.5 79,105.5 		"/>
	</g>
	
		<linearGradient id="SVGID_41_" gradientUnits="userSpaceOnUse" x1="308.8506" y1="-405.0718" x2="350.8681" y2="-405.0718" gradientTransform="matrix(1 0.589 0 -1 -256 -512.683)">
		<stop  offset="0" style="stop-color:#7B9AA9"/>
		<stop  offset="0.5" style="stop-color:#C4D3DB"/>
		<stop  offset="1" style="stop-color:#7B9AA9"/>
	</linearGradient>
	<polygon class="st42" points="95,113.5 52.9,88.5 52.9,60 95,84.9 	"/>
	
		<linearGradient id="SVGID_42_" gradientUnits="userSpaceOnUse" x1="337.2471" y1="-426.9116" x2="318.8924" y2="-387.2943" gradientTransform="matrix(1 0.589 0 -1 -256 -512.683)">
		<stop  offset="0" style="stop-color:#7B9AA9"/>
		<stop  offset="0.35" style="stop-color:#C4D3DB"/>
		<stop  offset="1" style="stop-color:#7B9AA9"/>
	</linearGradient>
	<polygon class="st43" points="93.1,114.4 51.1,89.5 51.1,61 93.1,85.8 	"/>
	
		<linearGradient id="SVGID_43_" gradientUnits="userSpaceOnUse" x1="344.667" y1="-360.9458" x2="322.4804" y2="-299.9887" gradientTransform="matrix(1 0 0 -1 -256 -245)">
		<stop  offset="0" style="stop-color:#7B9AA9"/>
		<stop  offset="0.35" style="stop-color:#C4D3DB"/>
		<stop  offset="1" style="stop-color:#7B9AA9"/>
	</linearGradient>
	<polygon class="st44" points="95,113.5 93.1,114.4 93.1,85.8 51.1,61 52.9,60 95,84.9 	"/>
	
		<linearGradient id="SVGID_44_" gradientUnits="userSpaceOnUse" x1="343.3975" y1="-358.5596" x2="313.2611" y2="-306.3619" gradientTransform="matrix(1 0 0 -1 -256 -245)">
		<stop  offset="0" style="stop-color:#32414A"/>
		<stop  offset="0.35" style="stop-color:#607A88"/>
		<stop  offset="1" style="stop-color:#32414A"/>
	</linearGradient>
	<polygon class="st45" points="53,63.9 53.7,64.9 53.7,88.7 90.5,110.5 91.1,111.5 91.1,86.4 	"/>
	<g>
		
			<linearGradient id="SVGID_45_" gradientUnits="userSpaceOnUse" x1="308.9502" y1="-345.0503" x2="347.0508" y2="-345.0503" gradientTransform="matrix(1 0 0 -1 -256 -245)">
			<stop  offset="0" style="stop-color:#32414A"/>
			<stop  offset="1" style="stop-color:#607A88"/>
		</linearGradient>
		<polygon class="st46" points="91.1,111.5 91.1,110.9 53.7,88.7 53,88.9 		"/>
		
			<linearGradient id="SVGID_46_" gradientUnits="userSpaceOnUse" x1="309.3008" y1="-333.8784" x2="309.3008" y2="-308.8286" gradientTransform="matrix(1 0 0 -1 -256 -245)">
			<stop  offset="0" style="stop-color:#32414A"/>
			<stop  offset="1" style="stop-color:#607A88"/>
		</linearGradient>
		<polygon class="st47" points="53.7,64.3 53,63.9 53,88.9 53.7,88.7 		"/>
	</g>
	<path class="st9" d="M72.2,86.4c0.5,0.3,1,1,1,1.6c0,0.5-0.4,0.7-1,0.4c-0.5-0.3-1-1-1-1.6C71.2,86.3,71.7,86,72.2,86.4z M72.2,85
		c1.3,0.8,2.3,2.4,2.3,3.7s-1,1.7-2.3,1s-2.3-2.4-2.3-3.7C69.9,84.8,71,84.4,72.2,85z M74.8,83.8c-0.8-0.8-1.6-1.5-2.5-2.1
		c-0.3-0.2-0.5-0.3-0.8-0.4l-0.4-2.1c0.4,0,0.7-0.2,0.7-0.8c0-0.7-0.6-1.7-1.3-2.1c-0.7-0.4-1.3-0.2-1.3,0.5s0.6,1.6,1.3,2.1
		l0.4,2.1c-1-0.3-1.9-0.3-2.6-0.1l-0.8-1.2c0-0.1,0-0.1,0-0.2c0-0.4-0.3-0.9-0.7-1.2c-0.4-0.2-0.7-0.1-0.7,0.3
		c0,0.4,0.3,0.9,0.7,1.2c0.1,0.1,0.2,0.1,0.3,0.1l0.8,1.1c-0.5,0.3-0.9,0.9-1.1,1.6L66.2,82c-0.1-0.5-0.5-1.1-1-1.4s-1-0.1-1,0.4
		s0.4,1.3,1,1.6c0.4,0.2,0.7,0.2,0.9,0l0.6,0.5c0,0.2,0,0.4,0,0.7c0,1,0.3,2.1,0.7,3.1L64.7,87c-0.2-0.4-0.6-0.7-0.9-0.9
		c-0.7-0.4-1.3-0.2-1.3,0.5s0.6,1.7,1.3,2.1c0.7,0.4,1.3,0.2,1.3-0.5c0-0.1,0-0.3-0.1-0.4l2.7-0.1c0.2,0.4,0.4,0.8,0.6,1.1
		c0.6,0.9,1.2,1.7,2,2.4L69.6,93c-0.5-0.3-1-0.1-1,0.4s0.4,1.3,1,1.6c0.5,0.3,1,0.1,1-0.4c0-0.3-0.2-0.7-0.4-1l0.7-1.7
		c0.5,0.4,1,0.8,1.5,1.1c0.2,0.1,0.4,0.2,0.7,0.3l0.1,0.3c-0.2,0-0.3,0.2-0.3,0.4c0,0.4,0.3,0.9,0.7,1.2c0.4,0.2,0.7,0.1,0.7-0.3
		c0-0.3-0.2-0.8-0.5-1l-0.1-0.3c1,0.3,1.8,0.4,2.6,0.2l1.6,2.5c-0.1,0.1-0.2,0.3-0.2,0.6c0,0.7,0.6,1.7,1.3,2.1s1.3,0.2,1.3-0.5
		s-0.6-1.7-1.3-2.1c-0.3-0.1-0.5-0.2-0.7-0.2l-1.6-2.5c0.8-0.5,1.3-1.3,1.4-2.6l2,1.2c0.1,0.5,0.5,1,0.9,1.2c0.5,0.3,1,0.1,1-0.4
		s-0.4-1.3-1-1.6c-0.4-0.3-0.8-0.2-0.9,0.1l-2-1.2c-0.1-1.3-0.6-2.8-1.4-4.2l3.1-1.2c0.1,0.1,0.3,0.3,0.4,0.4c0.5,0.3,1,0.1,1-0.4
		s-0.4-1.3-1-1.6c-0.5-0.3-1-0.1-1,0.4c0,0.1,0,0.3,0.1,0.5l-3.1,1.2c-0.2-0.4-0.5-0.7-0.8-1.1l0.8-1c0.1,0,0.1,0.1,0.2,0.1
		c0.5,0.3,1,0.1,1-0.4s-0.4-1.3-1-1.6c-0.5-0.3-1-0.1-1,0.4c0,0.3,0.1,0.5,0.2,0.8L74.8,83.8z"/>
</g>
</svg>
