<?xml version="1.0" encoding="utf-8"?>
<!-- Generator: Adobe Illustrator 18.1.0, SVG Export Plug-In . SVG Version: 6.00 Build 0)  -->
<svg version="1.1" id="图层_1" xmlns="http://www.w3.org/2000/svg" xmlns:xlink="http://www.w3.org/1999/xlink" x="0px" y="0px"
	 width="60px" height="60px" viewBox="0 0 60 60" style="enable-background:new 0 0 60 60;" xml:space="preserve">
<style type="text/css">
	.st0{fill:url(#SVGID_1_);}
	.st1{fill:url(#SVGID_2_);}
	.st2{fill:#2B2E54;}
	.st3{fill:#FFFFFF;}
</style>
<g>
	
		<linearGradient id="SVGID_1_" gradientUnits="userSpaceOnUse" x1="256.0702" y1="361.7875" x2="356" y2="361.7875" gradientTransform="matrix(0.5263 0 0 0.5263 -131.0526 -152.6316)">
		<stop  offset="0" style="stop-color:#20224C"/>
		<stop  offset="0.5" style="stop-color:#434B85"/>
		<stop  offset="1" style="stop-color:#20224C"/>
	</linearGradient>
	<path class="st0" d="M56.3,15.7v28.6c0,0.7-0.5,1.5-1.4,2L33.4,59c-1.9,1.1-4.9,1.1-6.8,0L5.1,46.3c-1.1-0.6-1.5-1.4-1.4-2.3V16
		c0.1,0.6,0.6,1.3,1.4,1.7l21.5,12.7c1.9,1.1,4.9,1.1,6.8,0l21.5-12.7C55.8,17.2,56.3,16.5,56.3,15.7z"/>
	
		<radialGradient id="SVGID_2_" cx="306" cy="319.9" r="41.0772" gradientTransform="matrix(0.5263 0 0 0.5263 -131.0526 -152.6316)" gradientUnits="userSpaceOnUse">
		<stop  offset="0" style="stop-color:#808BD5"/>
		<stop  offset="1" style="stop-color:#5B6BAA"/>
	</radialGradient>
	<path class="st1" d="M54.9,13.7c1.9,1.1,1.9,2.9,0,4L33.4,30.5c-1.9,1.1-4.9,1.1-6.8,0L5.1,17.7c-1.9-1.1-1.9-2.9,0-4L26.6,1
		c1.9-1.1,4.9-1.1,6.8,0L54.9,13.7z"/>
	<g>
		<path class="st2" d="M52.6,37.5l-4.7,2.8l-4-0.9l0.9-1.3l3.3-4.6l4.6-2.7v-3.6l0.8-1.1h-0.8l-4.7,2.8V30l-10.7,6.5l0.7-1.2h-0.8
			l-4.7,2.8v4.7h0.8l0.5-0.7l3.5-2.1l4,0.9l-4,5.7l-4.7,2.8v4.7h0.8l0.6-0.8l3.4-2.1v-1.2l10.8-6.4v1.2h0.8l0.5-0.7l3.5-2.1v-3.5
			l0.8-1.3C53.4,37.5,52.6,37.5,52.6,37.5z M38.5,38.1l8-4.8l-4,5.7L38.5,38.1z M38.5,47.1l4-5.7l4,0.9L38.5,47.1z"/>
		<path class="st3" d="M53.4,30.7V26l-4.7,2.8V30l-10.8,6.5v-1.2l-4.7,2.8v4.7l4.7-2.8l4,0.9l-4,5.8l-4.7,2.8v4.7l4.7-2.8v-1.2
			l10.8-6.5v1.2l4.7-2.8v-4.7l-4.7,2.8l-4-0.9l4-5.7L53.4,30.7z M47.3,42.3l-8,4.8l4-5.7L47.3,42.3z M39.3,38.1l8-4.8l-4,5.7
			L39.3,38.1z"/>
	</g>
	<g>
		<g>
			<path class="st2" d="M11.4,33.2h0.8v-1.3c1.4,1.3,2.5,2.7,3.2,4.2l1,0.6h-0.1l0.1,0.1l-0.8-0.5h-0.8l0.7,0.4h-0.5l0.8,0.5h-0.6
				l0.8,0.5h-0.6l0.7,0.5h-0.6l0.7,0.4h-0.6l1.3,0.8l-0.4-0.2h-0.8l2.2,1.6l-1.4-0.8h-0.8l2.3,1.7l-1.7-1h-0.8l3.8,2.5h0.8
				c-0.1-0.2-0.1-0.3-0.1-0.4l-0.6-0.4h0.5c-0.1-0.2-0.1-0.4-0.1-0.6l-0.5-0.3h0.5c0-0.2,0-0.3,0-0.4c0-0.1,0-0.1,0-0.1L19,40.7h0.5
				c0-0.1,0-0.2,0.1-0.3l-0.3-0.2h0.2c0-0.1,0-0.1,0.1-0.2l-0.3-0.2h0.4c0-0.1,0.1-0.1,0.1-0.2l-0.3-0.2h0.4c0-0.1,0.1-0.1,0.1-0.2
				l-0.3-0.2h0.4c0.1-0.1,0.1-0.1,0.1-0.2L19.8,39h0.3c0.1-0.1,0.1-0.1,0.1-0.1l-0.2,0.1h0.2c0.7-0.6,1.8-0.8,3.2-0.5v1.3l4.1,0.4
				l0.1,0.1h0.8L23.5,35h-0.8l0.8,0.8v0.6c-1.7-0.6-3.2-0.6-4.4-0.1c-0.5,0.2-0.9,0.6-1.3,1.1c-0.3-0.8-0.7-1.7-1.3-2.5
				c-1.1-1.8-2.6-3.5-4.4-4.9v-1.4l-4.8-0.4H6.5l2.8,2.3L11.4,33.2z"/>
			<path class="st2" d="M22.6,47.2l0.8,0.8v0.5c-1.4-1.3-2.6-2.9-3.3-4.4L18,42.8l0,0l-2.5-1.5h-0.8l0.4,0.3
				c-0.7,0.5-1.7,0.6-2.9,0.3v-1.3l-4.9-0.5H6.5l4.8,5.2h0.8v-1.4c1.7,0.6,3.2,0.6,4.4,0.1c0.4-0.2,0.8-0.5,1.1-0.8l0.3,0.2h0.1
				c0.3,0.7,0.7,1.4,1.2,2.2c1.1,1.8,2.6,3.5,4.4,4.9v1.4l4,0.4l0.1,0.1h0.8l-4.9-5.2L22.6,47.2L22.6,47.2z"/>
		</g>
		<g>
			<path class="st3" d="M19.4,39l-4.7-2.7c0.1,0.1,0.1,0.2,0.1,0.2l4.5,2.6C19.3,39.1,19.4,39.1,19.4,39z"/>
			<path class="st3" d="M19.2,39.2l-4.3-2.5c0.1,0.1,0.1,0.2,0.1,0.3l4.2,2.4C19.1,39.3,19.2,39.3,19.2,39.2z"/>
			<path class="st3" d="M15.1,37.2c0.1,0.1,0.1,0.2,0.1,0.2l3.8,2.2c0-0.1,0.1-0.1,0.1-0.2L15.1,37.2z"/>
			<path class="st3" d="M18.8,39.8l-3.6-2.1c0,0.1,0.1,0.2,0.1,0.2l3.5,2.1C18.8,39.9,18.8,39.8,18.8,39.8z"/>
			<path class="st3" d="M18.7,40.1l-3.4-2c0,0.1,0.1,0.2,0.1,0.2l3.3,1.9C18.7,40.2,18.7,40.2,18.7,40.1z"/>
			<path class="st3" d="M15.4,38.6c0,0.1,0,0.2,0.1,0.3l3.2,1.8c0-0.1,0-0.2,0.1-0.3L15.4,38.6z"/>
			<path class="st3" d="M18.6,41.5c0-0.2,0-0.3,0-0.4c0-0.1,0-0.1,0-0.1l-3.2-1.8c0,0.1,0,0.1,0,0.1c0,0.2,0,0.3,0,0.4L18.6,41.5z"
				/>
			<path class="st3" d="M18.7,42.4c-0.1-0.2-0.1-0.4-0.1-0.6l-3.3-1.9c0,0.2-0.1,0.3-0.1,0.4L18.7,42.4z"/>
			<path class="st3" d="M15.1,40.8l3.9,2.3c-0.1-0.2-0.1-0.3-0.1-0.4l-3.7-2.1C15.1,40.7,15.1,40.8,15.1,40.8z"/>
			<path class="st3" d="M22.6,48.4c-1.4-1.3-2.6-2.9-3.3-4.4l-4.7-2.7c-0.7,0.7-1.8,0.9-3.3,0.6v-1.3l-4.9-0.5l4.8,5.2v-1.4
				c1.7,0.6,3.2,0.6,4.4,0.1c0.5-0.2,0.9-0.6,1.3-1.1c0.3,0.8,0.7,1.7,1.3,2.5c1.1,1.8,2.6,3.5,4.4,4.9v1.4l4.8,0.4l-4.9-5.1V48.4z"
				/>
			<path class="st3" d="M11.4,31.9c1.4,1.3,2.5,2.7,3.2,4.2l4.9,2.8c0.7-0.6,1.8-0.8,3.2-0.5v1.3l4.9,0.5L22.7,35v1.4
				c-1.7-0.6-3.2-0.6-4.4-0.1c-0.5,0.2-0.9,0.6-1.3,1.1c-0.3-0.8-0.7-1.7-1.3-2.5c-1.1-1.8-2.6-3.5-4.4-4.9v-1.4l-4.8-0.4l4.9,5.2
				L11.4,31.9z"/>
		</g>
	</g>
	<g>
		<g>
			<polygon class="st2" points="24.2,17.2 23.5,18.5 23.5,18.5 22.8,18.6 23.6,16.8 23.6,16 23.1,16.5 22.6,16.3 22,17.6 21.3,17.6 
				22.1,15.9 22.1,15.1 21.6,15.6 21.1,15.4 20.4,16.9 19.7,16.9 20.5,15.1 20.5,14.2 19.4,14.3 19.4,14.3 16.9,12.9 18.3,12.1 
				18.3,11.3 15.2,12 15.3,12.1 11.3,12.1 11.3,16.2 12.7,15.4 16.3,17.6 16.8,17.5 16.8,17.9 17.8,18.5 18.3,18.4 18.3,18.8 
				19.3,19.4 19.8,19.3 19.8,19.7 20.8,20.3 24.2,19.7 25.2,17.7 25.2,16.9 24.6,17.4 			"/>
			<polygon class="st2" points="27.4,14.6 27.9,14.5 27.9,14.9 28.9,15.5 32.2,15 33.2,13 33.2,12.2 32.6,12.7 32.2,12.4 31.6,13.6 
				31.4,13.8 30.8,13.8 31.6,12.1 31.6,12.1 31.6,11.3 31.1,11.8 30.6,11.5 30,12.9 30,12.9 29.3,12.9 30.1,11.2 30.1,11.2 
				30.1,10.3 29.6,10.9 29.1,10.6 28.5,12 27.7,12.1 28.6,10.3 28.6,9.4 27.6,9.7 25,8.2 26.3,7.4 26.3,6.5 24.1,7.1 24.1,7.4 
				19.4,7.4 19.4,11.5 20.7,10.7 24.3,12.8 24.8,12.7 24.8,13.2 25.8,13.7 26.4,13.6 26.4,14.1 			"/>
			<polygon class="st2" points="47.3,16.6 43.7,14.5 40.4,15.1 39.8,16.2 39.5,16.2 39.5,17.1 39.5,17.1 42.6,18.9 41.7,19.1 
				41.7,19.9 41.7,19.9 48.7,19.9 48.7,15.8 			"/>
			<polygon class="st2" points="35.7,19.3 32.4,19.8 31.8,20.9 31.4,20.9 31.4,21.8 34.6,23.7 33.7,23.8 33.7,24.7 33.7,24.7 
				40.6,24.7 40.6,20.6 39.3,21.4 			"/>
			<path class="st2" d="M35.2,18.9v-0.8l-3.1,0.2l1.5-0.3v-0.8L30,17.5l2.1-0.4v-0.8l-3.6,0.3L28,17.1l-0.3,0.1l-0.2,0.4l-0.7,0.7
				v0.8l0,0l1,0.6l0.9-2l1.3-0.2l-0.5,0.5l-0.2,0.1l-0.2,0.4l-0.7,0.8V20l1,0.6l0.9-2l1.8-0.3l-0.6,0.5L31,18.9l-0.5,0.6l-0.6,0.5
				v0.8l1,0.6l0.9-2L35.2,18.9z M32.5,18.6L32.5,18.6L32.5,18.6L32.5,18.6z"/>
			<polygon class="st2" points="36.8,12.9 40.2,12.4 40.2,11.5 36.8,12.1 36.6,12.2 35.8,12.4 35.5,13.1 34.8,13.5 34.8,14.3 
				35.8,14.9 			"/>
			<polygon class="st2" points="41.7,13.3 41.7,12.4 38.2,12.7 37.6,13.2 37.3,13.3 37.1,13.7 36.4,14.4 36.4,15.3 37.4,15.8 
				38.3,13.8 39.6,13.6 39.1,14.1 38.8,14.2 38.7,14.5 37.9,15.3 37.9,16.2 38.9,16.7 39.8,14.7 43.2,14.2 43.2,13.3 41.1,13.4 			
				"/>
		</g>
		<g>
			<g>
				<polygon class="st3" points="19.6,16.2 16.3,16.7 12.7,14.6 11.3,15.4 11.3,11.3 18.3,11.3 16.9,12.1 20.5,14.2 				"/>
				<polygon class="st3" points="17.8,17.6 16.8,17.1 20.2,16.5 21.1,14.5 22.1,15.1 21.2,17.1 				"/>
				<polygon class="st3" points="19.3,18.5 18.3,17.9 21.7,17.4 22.6,15.4 23.6,16 22.7,18 				"/>
				<polygon class="st3" points="20.8,19.4 19.8,18.8 23.2,18.3 24.2,16.3 25.2,16.9 24.2,18.9 				"/>
			</g>
			<g>
				<polygon class="st3" points="27.6,11.4 24.3,12 20.7,9.8 19.4,10.6 19.4,6.5 26.3,6.5 25,7.3 28.6,9.4 				"/>
				<polygon class="st3" points="25.8,12.9 24.8,12.3 28.2,11.7 29.1,9.7 30.1,10.3 29.2,12.3 				"/>
				<polygon class="st3" points="27.4,13.8 26.4,13.2 29.7,12.6 30.6,10.7 31.6,11.3 30.7,13.2 				"/>
				<polygon class="st3" points="28.9,14.7 27.9,14.1 31.3,13.6 32.2,11.6 33.2,12.2 32.2,14.2 				"/>
			</g>
			<g>
				<polygon class="st3" points="40.4,14.2 43.7,13.6 47.3,15.8 48.7,15 48.7,19.1 41.7,19.1 43.1,18.3 39.5,16.2 				"/>
				<polygon class="st3" points="42.2,12.7 43.2,13.3 39.8,13.9 38.9,15.9 37.9,15.3 38.8,13.3 				"/>
				<polygon class="st3" points="40.7,11.8 41.7,12.4 38.3,13 37.4,14.9 36.4,14.4 37.3,12.4 				"/>
				<polygon class="st3" points="39.2,10.9 40.2,11.5 36.8,12.1 35.8,14.1 34.8,13.5 35.8,11.5 				"/>
			</g>
			<g>
				<polygon class="st3" points="32.4,18.9 35.7,18.4 39.3,20.5 40.6,19.7 40.6,23.8 33.7,23.8 35,23.1 31.4,20.9 				"/>
				<polygon class="st3" points="34.2,17.5 35.2,18.1 31.8,18.6 30.9,20.6 29.9,20.1 30.8,18.1 				"/>
				<polygon class="st3" points="32.6,16.6 33.6,17.2 30.3,17.7 29.4,19.7 28.4,19.2 29.3,17.2 				"/>
				<polygon class="st3" points="31.1,15.7 32.1,16.3 28.7,16.8 27.8,18.8 26.8,18.2 27.8,16.3 				"/>
			</g>
		</g>
	</g>
</g>
</svg>
