<?xml version="1.0" encoding="utf-8"?>
<!-- Generator: Adobe Illustrator 16.0.0, SVG Export Plug-In . SVG Version: 6.00 Build 0)  -->
<!DOCTYPE svg PUBLIC "-//W3C//DTD SVG 1.1//EN" "http://www.w3.org/Graphics/SVG/1.1/DTD/svg11.dtd">
<svg version="1.1" id="图层_1" xmlns="http://www.w3.org/2000/svg" xmlns:xlink="http://www.w3.org/1999/xlink" x="0px" y="0px"
	 width="100px" height="100px" viewBox="0 0 100 100" style="enable-background:new 0 0 100 100;" xml:space="preserve">
<style type="text/css">
<![CDATA[
	.st0{opacity:0;fill:#FFFFFF;}
	.st1{fill:#4E646D;}
	.st2{fill:url(#SVGID_1_);}
	.st3{fill:url(#SVGID_2_);}
	.st4{fill:url(#SVGID_3_);}
	.st5{fill:url(#SVGID_4_);}
	.st6{fill:#FFFFFF;}
]]>
</style>
<rect class="st0" width="100" height="100"/>
<g>
	
		<linearGradient id="SVGID_1_" gradientUnits="userSpaceOnUse" x1="256.0703" y1="-308.7881" x2="355.999" y2="-308.7881" gradientTransform="matrix(1 0 0 -1 -256 -244)">
		<stop  offset="0" style="stop-color:#3D4F5A"/>
		<stop  offset="0.5" style="stop-color:#607A88"/>
		<stop  offset="1" style="stop-color:#3D4F5A"/>
	</linearGradient>
	<path class="st2" d="M100,41.3v17.5c0,1.4-0.9,2.8-2.7,3.8L56.4,86.7c-3.6,2.1-9.3,2.1-12.9,0L2.7,62.6c-2-1.2-2.8-2.7-2.6-4.3
		V41.8c0.2,1.2,1.1,2.4,2.6,3.3l40.9,24.2c3.6,2.1,9.3,2.1,12.9,0l40.9-24.2C99.1,44,100,42.7,100,41.3z"/>
	
		<linearGradient id="SVGID_2_" gradientUnits="userSpaceOnUse" x1="256.001" y1="-285.3008" x2="355.999" y2="-285.3008" gradientTransform="matrix(1 0 0 -1 -256 -244)">
		<stop  offset="0" style="stop-color:#86A2B1"/>
		<stop  offset="0.5" style="stop-color:#A9BFCB"/>
		<stop  offset="1" style="stop-color:#86A2B1"/>
	</linearGradient>
	<path class="st3" d="M97.3,37.5c3.6,2.1,3.6,5.5,0,7.6L56.5,69.3c-3.6,2.1-9.3,2.1-12.9,0L2.7,45.1c-3.6-2.1-3.6-5.5,0-7.6
		l40.9-24.2c3.6-2.1,9.3-2.1,12.9,0L97.3,37.5z"/>
	
		<linearGradient id="SVGID_3_" gradientUnits="userSpaceOnUse" x1="263.499" y1="-298.8257" x2="348.3994" y2="-298.8257" gradientTransform="matrix(1 0 0 -1 -256 -244)">
		<stop  offset="0" style="stop-color:#3D4F5A"/>
		<stop  offset="0.5" style="stop-color:#607A88"/>
		<stop  offset="1" style="stop-color:#3D4F5A"/>
	</linearGradient>
	<path class="st4" d="M92.4,41.3v2c0,1.2-0.8,2.3-2.3,3.2L55.5,67c-3,1.8-7.9,1.8-11,0L9.8,46.5c-0.8-0.4-1.3-1-1.7-1.5
		c-0.4-0.6-0.6-1.1-0.6-1.7v-2l0,0c0,1.2,0.8,2.3,2.3,3.2L44.5,65c3,1.8,7.9,1.8,11,0l34.7-20.5C91.7,43.6,92.4,42.4,92.4,41.3
		L92.4,41.3z"/>
	
		<radialGradient id="SVGID_4_" cx="306" cy="-285.3008" r="34.8899" gradientTransform="matrix(1 0 0 -1 -256 -244)" gradientUnits="userSpaceOnUse">
		<stop  offset="0" style="stop-color:#C4D3DB"/>
		<stop  offset="1" style="stop-color:#7B9AA9"/>
	</radialGradient>
	<path class="st5" d="M90.2,38c3,1.8,3,4.7,0,6.5L55.5,65.1c-3,1.8-7.9,1.8-11,0L9.8,44.5c-3-1.8-3-4.7,0-6.5l34.7-20.5
		c3-1.8,7.9-1.8,11,0L90.2,38z"/>
	<g>
		<polygon class="st1" points="54.4,35.2 54.4,40.3 62.9,40.3 62.9,38.7 62.6,38.6 65.7,36.7 65.7,35.1 65,35.2 64.6,34.3 
			60.5,33.6 56.1,36.2 		"/>
		<polygon class="st1" points="65.2,33.9 66.4,36.3 67.6,35.6 67.6,34 66.2,32.6 67.1,32.8 68.2,35.2 69.4,34.5 69.4,32.9 
			67.9,31.5 69,31.7 70.1,34.1 71.3,33.4 71.3,31.8 69.8,29.8 64.9,29.4 64.9,30.6 63,30.5 63,31.6 61.1,31.6 61.1,32.8 61.6,32.9 
			61.1,33.2 		"/>
		<polygon class="st1" points="51.8,33.6 51.8,32.1 51.4,32 54.5,30.1 54.5,30.1 54.5,28.5 53.8,28.6 53.4,27.6 49.3,27 44.9,29.6 
			43.3,28.6 43.3,33.6 51.8,33.6 		"/>
		<polygon class="st1" points="50,26.6 54.1,27.3 55.2,29.7 56.4,29 56.4,29 56.4,27.4 55,26 55.9,26.1 55.9,26.2 57.1,28.6 
			58.3,27.9 58.3,27.9 58.3,26.3 56.7,24.9 57.8,25 57.8,25 59,27.5 60.2,26.8 60.1,26.7 60.1,25.2 58.6,23.2 53.7,22.8 53.7,24 
			51.8,23.9 51.8,25 50,25 50,26.2 50.5,26.3 		"/>
		<polygon class="st1" points="75.7,40.9 71.6,40.2 67.2,42.8 65.6,41.9 65.6,46.9 74.1,46.9 74.1,45.3 73.7,45.2 76.9,43.3 
			76.9,41.7 76.1,41.8 		"/>
		<polygon class="st1" points="81.2,36.4 79.5,36.1 76,36 76,37.3 74.2,37.1 74.2,38.3 72.3,38.2 72.3,39.6 72.6,39.6 72.3,39.8 
			76.4,40.5 77.5,42.9 78.7,42.2 78.7,40.6 77.3,39.2 78.3,39.4 79.4,41.8 80.6,41.1 80.6,39.5 79.2,38.1 80.1,38.3 81.3,40.7 
			82.5,40 82.5,38.4 		"/>
		<path class="st1" d="M37.2,31.6l-3.7-2.2L29.2,32l-1.9-0.5v1.6l39.2,23.2l6.2-3.7v-1.6L38.4,30.9L37.2,31.6z M61.2,46.8l4.6,2.7
			l-3.4,2l-5-2.4L61.2,46.8z M50,40.2l4.6,2.7l-3.3,2l-4.7-2.6L50,40.2z M43.4,36.3l-3.6,2.1l-4.7-2.6l3.7-2.2L43.4,36.3z"/>
		<polygon class="st1" points="40.3,44 40.3,45.2 38.4,45.1 38.4,46.3 36.5,46.2 36.5,47.1 37.4,47.3 36.5,47.8 40.6,48.4 
			41.8,50.9 43,50.2 43,48.6 41.5,47.2 42.5,47.3 43.6,49.8 44.8,49.1 44.8,47.5 43.4,46.1 44.4,46.2 45.5,48.7 46.7,48 46.7,46.4 
			45,44.4 		"/>
		<polygon class="st1" points="40.3,49.7 40,48.8 35.8,48.2 31.4,50.8 29.8,49.8 29.8,54.8 38.3,54.8 38.3,53.3 37.9,53.2 
			41.1,51.3 41.1,49.7 40.7,49.5 		"/>
	</g>
	<g>
		<path class="st6" d="M33.5,27.8l-6.2,3.7l39.2,23.2l6.2-3.7L33.5,27.8z M38.8,37.4l-4.6-2.7l4.6-2.7l4.6,2.7L38.8,37.4z M50,44
			l-4.6-2.7l4.6-2.7l4.6,2.7L50,44z M61.2,50.6l-4.6-2.7l4.6-2.7l4.6,2.7L61.2,50.6z"/>
		<polygon class="st6" points="64.6,32.7 60.5,32 56.1,34.6 54.4,33.6 54.4,38.7 62.9,38.7 61.3,37.7 65.7,35.1 		"/>
		<polygon class="st6" points="62.3,30.9 61.1,31.6 65.2,32.3 66.4,34.7 67.6,34 66.4,31.6 		"/>
		<polygon class="st6" points="64.2,29.8 63,30.5 67.1,31.2 68.2,33.6 69.4,32.9 68.3,30.5 		"/>
		<polygon class="st6" points="66.1,28.7 64.9,29.4 69,30.1 70.1,32.5 71.3,31.8 70.2,29.3 		"/>
		<polygon class="st6" points="40,47.3 35.8,46.6 31.4,49.2 29.8,48.2 29.8,53.3 38.3,53.3 36.7,52.3 41.1,49.7 		"/>
		<polygon class="st6" points="37.7,45.5 36.5,46.2 40.6,46.9 41.8,49.3 43,48.6 41.8,46.1 		"/>
		<polygon class="st6" points="39.6,44.4 38.4,45.1 42.5,45.7 43.6,48.2 44.8,47.5 43.7,45 		"/>
		<polygon class="st6" points="41.5,43.3 40.3,44 44.4,44.6 45.5,47.1 46.7,46.4 45.6,43.9 		"/>
		<g>
			<polygon class="st6" points="53.4,26.1 49.3,25.4 44.9,28 43.3,27 43.3,32.1 51.8,32.1 50.1,31.1 54.5,28.5 			"/>
			<polygon class="st6" points="51.2,24.3 50,25 54.1,25.7 55.2,28.1 56.4,27.4 55.3,24.9 			"/>
			<polygon class="st6" points="53,23.2 51.8,23.9 55.9,24.6 57.1,27 58.3,26.3 57.1,23.8 			"/>
			<polygon class="st6" points="54.9,22.1 53.7,22.8 57.8,23.4 59,25.9 60.2,25.2 59,22.7 			"/>
		</g>
		<g>
			<polygon class="st6" points="75.7,39.3 71.6,38.6 67.2,41.2 65.6,40.3 65.6,45.3 74.1,45.3 72.5,44.3 76.9,41.7 			"/>
			<polygon class="st6" points="73.5,37.5 72.3,38.2 76.4,38.9 77.5,41.3 78.7,40.6 77.6,38.2 			"/>
			<polygon class="st6" points="75.4,36.4 74.2,37.1 78.3,37.8 79.4,40.2 80.6,39.5 79.5,37.1 			"/>
			<polygon class="st6" points="77.2,35.3 76,36 80.1,36.7 81.3,39.1 82.5,38.4 81.3,36 			"/>
		</g>
	</g>
</g>
</svg>
