<?xml version="1.0" encoding="utf-8"?>
<!-- Generator: Adobe Illustrator 16.0.0, SVG Export Plug-In . SVG Version: 6.00 Build 0)  -->
<!DOCTYPE svg PUBLIC "-//W3C//DTD SVG 1.1//EN" "http://www.w3.org/Graphics/SVG/1.1/DTD/svg11.dtd">
<svg version="1.1" id="图层_1" xmlns="http://www.w3.org/2000/svg" xmlns:xlink="http://www.w3.org/1999/xlink" x="0px" y="0px"
	 width="100px" height="100px" viewBox="0 0 100 100" style="enable-background:new 0 0 100 100;" xml:space="preserve">
<style type="text/css">
<![CDATA[
	.st0{opacity:0;fill:#FFFFFF;}
	.st1{fill:#4E646D;}
	.st2{fill:url(#SVGID_1_);}
	.st3{fill:url(#SVGID_2_);}
	.st4{fill:url(#SVGID_3_);}
	.st5{fill:url(#SVGID_4_);}
	.st6{fill:#FFFFFF;}
]]>
</style>
<rect class="st0" width="100" height="100"/>
<g>
	
		<linearGradient id="SVGID_1_" gradientUnits="userSpaceOnUse" x1="256.0703" y1="-308.7871" x2="355.999" y2="-308.7871" gradientTransform="matrix(1 0 0 -1 -256 -244)">
		<stop  offset="0" style="stop-color:#3D4F5A"/>
		<stop  offset="0.5" style="stop-color:#607A88"/>
		<stop  offset="1" style="stop-color:#3D4F5A"/>
	</linearGradient>
	<path class="st2" d="M100,41.3v17.5c0,1.4-0.9,2.8-2.7,3.8L56.4,86.7c-3.6,2.1-9.3,2.1-12.9,0L2.7,62.6c-2-1.2-2.8-2.7-2.6-4.3
		V41.8c0.2,1.2,1.1,2.4,2.6,3.3l40.9,24.2c3.6,2.1,9.3,2.1,12.9,0l40.9-24.2C99.1,44,100,42.7,100,41.3z"/>
	
		<linearGradient id="SVGID_2_" gradientUnits="userSpaceOnUse" x1="256.001" y1="-285.2998" x2="355.999" y2="-285.2998" gradientTransform="matrix(1 0 0 -1 -256 -244)">
		<stop  offset="0" style="stop-color:#86A2B1"/>
		<stop  offset="0.5" style="stop-color:#A9BFCB"/>
		<stop  offset="1" style="stop-color:#86A2B1"/>
	</linearGradient>
	<path class="st3" d="M97.3,37.5c3.6,2.1,3.6,5.5,0,7.6L56.5,69.3c-3.6,2.1-9.3,2.1-12.9,0L2.7,45.1c-3.6-2.1-3.6-5.5,0-7.6
		l40.9-24.2c3.6-2.1,9.3-2.1,12.9,0L97.3,37.5z"/>
	
		<linearGradient id="SVGID_3_" gradientUnits="userSpaceOnUse" x1="263.499" y1="-298.8247" x2="348.3994" y2="-298.8247" gradientTransform="matrix(1 0 0 -1 -256 -244)">
		<stop  offset="0" style="stop-color:#3D4F5A"/>
		<stop  offset="0.5" style="stop-color:#607A88"/>
		<stop  offset="1" style="stop-color:#3D4F5A"/>
	</linearGradient>
	<path class="st4" d="M92.4,41.3v2c0,1.2-0.8,2.3-2.3,3.2L55.5,67c-3,1.8-7.9,1.8-11,0L9.8,46.5c-0.8-0.4-1.3-1-1.7-1.5
		c-0.4-0.6-0.6-1.1-0.6-1.7v-2l0,0c0,1.2,0.8,2.3,2.3,3.2L44.5,65c3,1.8,7.9,1.8,11,0l34.7-20.5C91.7,43.6,92.4,42.4,92.4,41.3
		L92.4,41.3z"/>
	
		<radialGradient id="SVGID_4_" cx="306" cy="-285.3003" r="34.8895" gradientTransform="matrix(1 0 0 -1 -256 -244)" gradientUnits="userSpaceOnUse">
		<stop  offset="0" style="stop-color:#C4D3DB"/>
		<stop  offset="1" style="stop-color:#7B9AA9"/>
	</radialGradient>
	<path class="st5" d="M90.2,38c3,1.8,3,4.7,0,6.5L55.5,65.1c-3,1.8-7.9,1.8-11,0L9.8,44.5c-3-1.8-3-4.7,0-6.5l34.7-20.5
		c3-1.8,7.9-1.8,11,0L90.2,38z"/>
	<path class="st1" d="M70.6,51.4l-0.7,0.3c-0.1-0.1-0.2-0.2-0.4-0.3l-10.9-6.5c-0.1-0.1-0.3-0.1-0.4-0.2c1.8-1.6,2.8-3.6,2.9-5.7h0
		v-1.8L61,37.4c-1.2-5.2-8.7-9.2-17.8-9.2c-9,0-16.5,4-17.8,9.1h-0.2V39h0c0.2,5.8,8.2,10.5,18,10.5c3.6,0,7-0.6,9.8-1.7
		c0.1,0.1,0.2,0.2,0.3,0.2l10.9,6.5c0.7,0.4,1.7,0.7,2.7,0.7c1,0,1.9-0.2,2.7-0.7c0.7-0.4,1.1-1,1.1-1.6l0,0V51.4z M43.2,46.2
		c-6.8,0-12.3-3.3-12.3-7.3s5.5-7.3,12.3-7.3c6.8,0,12.3,3.3,12.3,7.3S49.9,46.2,43.2,46.2z"/>
	<path class="st6" d="M69.5,49.8l-10.9-6.5c-0.1-0.1-0.3-0.1-0.4-0.2c1.8-1.7,2.9-3.7,2.9-5.8c0-5.9-8.1-10.7-18-10.7
		c-9.9,0-18,4.8-18,10.7c0,5.9,8.1,10.7,18,10.7c3.6,0,7-0.6,9.8-1.7c0.1,0.1,0.2,0.2,0.3,0.2L64.2,53c0.7,0.4,1.7,0.7,2.7,0.7
		c1,0,1.9-0.2,2.7-0.7C71,52.1,71,50.6,69.5,49.8 M43.2,44.6c-6.8,0-12.3-3.3-12.3-7.3s5.5-7.3,12.3-7.3c6.8,0,12.3,3.3,12.3,7.3
		S49.9,44.6,43.2,44.6"/>
</g>
</svg>
