<?xml version="1.0" encoding="utf-8"?>
<!-- Generator: Adobe Illustrator 16.0.0, SVG Export Plug-In . SVG Version: 6.00 Build 0)  -->
<!DOCTYPE svg PUBLIC "-//W3C//DTD SVG 1.1//EN" "http://www.w3.org/Graphics/SVG/1.1/DTD/svg11.dtd">
<svg version="1.1" id="图层_1" xmlns="http://www.w3.org/2000/svg" xmlns:xlink="http://www.w3.org/1999/xlink" x="0px" y="0px"
	 width="100px" height="100px" viewBox="0 0 100 100" style="enable-background:new 0 0 100 100;" xml:space="preserve">
<style type="text/css">
<![CDATA[
	.st0{fill:url(#SVGID_1_);}
	.st1{fill:url(#SVGID_2_);}
	.st2{fill:url(#SVGID_3_);}
	.st3{fill:url(#SVGID_4_);}
	.st4{fill:url(#SVGID_5_);}
	.st5{fill:url(#SVGID_6_);}
	.st6{fill:url(#SVGID_7_);}
	.st7{fill:url(#SVGID_8_);}
	.st8{fill:#6D8D9D;}
]]>
</style>
<g>
	<g>
		<g>
			<polygon class="st8" points="53.3,99.6 0,68.2 0,65.9 53.3,97.3 			"/>
			
				<linearGradient id="SVGID_1_" gradientUnits="userSpaceOnUse" x1="294.6738" y1="-333.9165" x2="317.2916" y2="-294.7416" gradientTransform="matrix(1 0 0 -1 -256 -245)">
				<stop  offset="0" style="stop-color:#98B2BF"/>
				<stop  offset="1" style="stop-color:#B7CAD5"/>
			</linearGradient>
			<polygon class="st0" points="0,65.9 46.6,41.2 100,72.7 53.3,97.3 			"/>
			
				<linearGradient id="SVGID_2_" gradientUnits="userSpaceOnUse" x1="332.6504" y1="-344.5625" x2="332.6504" y2="-317.6621" gradientTransform="matrix(1 0 0 -1 -256 -245)">
				<stop  offset="0" style="stop-color:#3D4F5A"/>
				<stop  offset="1" style="stop-color:#607A88"/>
			</linearGradient>
			<polygon class="st1" points="53.3,99.6 100,74.9 100,72.7 53.3,97.3 			"/>
		</g>
	</g>
	<g>
		
			<linearGradient id="SVGID_3_" gradientUnits="userSpaceOnUse" x1="287.4326" y1="-305.6479" x2="291.2168" y2="-305.6479" gradientTransform="matrix(1 0 0 -1 -256 -245)">
			<stop  offset="0" style="stop-color:#607A88"/>
			<stop  offset="1" style="stop-color:#3D4F5A"/>
		</linearGradient>
		<path class="st2" d="M31.4,61.2l3.8-2l-1.5,2.9l-1.1-0.7C32.1,61.2,31.7,61.1,31.4,61.2z"/>
		<g>
			
				<linearGradient id="SVGID_4_" gradientUnits="userSpaceOnUse" x1="286.5996" y1="-283.998" x2="314.7998" y2="-283.998" gradientTransform="matrix(1 0 0 -1 -256 -245)">
				<stop  offset="0" style="stop-color:#7B9AA9"/>
				<stop  offset="1" style="stop-color:#C4D3DB"/>
			</linearGradient>
			<path class="st3" d="M44.7,24.9c-7.8-4.6-14.1-2-14.1,5.8s6.3,17.8,14.1,22.4c7.8,4.6,14.1,2,14.1-5.8
				C58.8,39.6,52.5,29.5,44.7,24.9z"/>
			
				<linearGradient id="SVGID_5_" gradientUnits="userSpaceOnUse" x1="297.1621" y1="-265.7983" x2="304.2886" y2="-265.7983" gradientTransform="matrix(1 0 0 -1 -256 -245)">
				<stop  offset="0" style="stop-color:#7B9AA9"/>
				<stop  offset="1" style="stop-color:#C4D3DB"/>
			</linearGradient>
			<path class="st4" d="M44.7,17.2c-2-1.2-3.6-0.5-3.6,1.5s1.6,4.5,3.6,5.7c2,1.2,3.6,0.5,3.6-1.5S46.7,18.4,44.7,17.2z"/>
			
				<linearGradient id="SVGID_6_" gradientUnits="userSpaceOnUse" x1="282.7002" y1="-285.7998" x2="335.5596" y2="-285.7998" gradientTransform="matrix(1 0 0 -1 -256 -245)">
				<stop  offset="0" style="stop-color:#607A88"/>
				<stop  offset="1" style="stop-color:#3D4F5A"/>
			</linearGradient>
			<path class="st5" d="M79.5,44.9c0,4.3-1.2,7.9-3.4,10.4c-0.8,0.8-1.6,1.5-2.6,2.1l0,0c-0.1,0.1-0.2,0.1-0.4,0.2l-9,4.8l2.3,7.3
				l1.2,0.7c0.9,0.5,1.6,1.7,1.6,2.6c0,0.3-0.1,0.6-0.2,0.7c-0.1,0.1-0.2,0.2-0.4,0.2l-10.2,5.5l0,0c0.2-0.1,0.4-0.4,0.4-0.8
				c0-0.9-0.7-2.1-1.6-2.6L56,75.3l-3.7-11.5c1.6,0.4,3,0.6,4.5,0.6c3.6,0,6.7-1.2,8.8-3.6c2.2-2.4,3.4-6,3.4-10.4
				c0-3.3-0.6-6.9-1.9-10.6c-1.2-3.6-3-7.3-5.2-10.8c-2.2-3.6-4.8-6.8-7.7-9.8c-3-3-6.2-5.6-9.5-7.5S38.2,8.5,35.2,8
				c-2.9-0.5-5.5-0.3-7.7,0.7c-0.3,0.1-0.5,0.2-0.8,0.4l9.6-5.2c0.5-0.3,1.1-0.6,1.6-0.8c2.2-0.9,4.8-1.1,7.7-0.7
				c3,0.5,6.2,1.7,9.5,3.7c3.4,2,6.6,4.6,9.6,7.6c2.9,2.9,5.5,6.2,7.7,9.8c2.2,3.6,4,7.2,5.2,10.8C78.9,38.1,79.5,41.6,79.5,44.9z"
				/>
			
				<linearGradient id="SVGID_7_" gradientUnits="userSpaceOnUse" x1="276.3604" y1="-288.6875" x2="325.0605" y2="-288.6875" gradientTransform="matrix(1 0 0 -1 -256 -245)">
				<stop  offset="0" style="stop-color:#7B9AA9"/>
				<stop  offset="1" style="stop-color:#C4D3DB"/>
			</linearGradient>
			<path class="st6" d="M67.2,39.9c-1.2-3.6-3-7.3-5.2-10.8c-2.2-3.6-4.8-6.8-7.7-9.8c-3-3-6.2-5.6-9.5-7.5
				c-3.3-1.9-6.5-3.2-9.5-3.7c-2.9-0.5-5.5-0.3-7.7,0.7c-2.2,0.9-4,2.5-5.2,4.7c-1.3,2.3-1.9,5.1-1.9,8.4c0,3.3,0.6,6.9,1.9,10.6
				c1.2,3.6,3,7.3,5.2,10.8c2.2,3.6,4.8,6.8,7.7,9.8c0.7,0.7,1.4,1.4,2.2,2.1l-3.7,7l-1.1-0.7c-0.9-0.5-1.6-0.2-1.6,0.7
				s0.7,2.1,1.6,2.6L55.1,78l0,0l0,0l2.3,1.3c0.9,0.5,1.6,0.2,1.6-0.7c0-0.9-0.7-2.1-1.6-2.6l-1.2-0.7l-3.7-11.5
				c1.5,0.4,3,0.6,4.5,0.6c3.6,0,6.7-1.2,8.8-3.6c2.2-2.4,3.4-6,3.4-10.4C69.1,47.2,68.4,43.7,67.2,39.9z M44.8,17.5
				c1.7,1,3.1,3.2,3.1,4.9c0,1.7-1.4,2.2-3.1,1.3c-1.7-1-3.1-3.2-3.1-4.9C41.8,17,43.1,16.5,44.8,17.5z M44.7,51.9
				c-7.1-4.2-12.9-13.4-12.9-20.5c0-7.1,5.8-9.5,12.9-5.3c7.1,4.2,12.9,13.4,12.9,20.5S51.8,56.1,44.7,51.9z M44.7,29.4
				c-5.3-3.1-9.7-1.4-9.7,4c0.1,5.3,4.4,12.1,9.7,15.3c5.3,3.1,9.7,1.4,9.7-4C54.4,39.4,50.1,32.5,44.7,29.4z M44.8,20.7
				c0.1,0.1,0.2,0,0.2-0.1s-0.1-0.3-0.2-0.3c-0.1-0.1-0.2,0-0.2,0.1C44.6,20.5,44.7,20.7,44.8,20.7z M52.6,73.2L52.6,73.2L52.6,73.2
				L52.6,73.2z"/>
			
				<linearGradient id="SVGID_8_" gradientUnits="userSpaceOnUse" x1="291.0615" y1="-284.0483" x2="310.3887" y2="-284.0483" gradientTransform="matrix(1 0 0 -1 -256 -245)">
				<stop  offset="0" style="stop-color:#C4D3DB"/>
				<stop  offset="1" style="stop-color:#7B9AA9"/>
			</linearGradient>
			<path class="st7" d="M44.7,29.4c-5.3-3.1-9.7-1.4-9.7,4c0.1,5.3,4.4,12.1,9.7,15.3c5.3,3.1,9.7,1.4,9.7-4
				C54.4,39.4,50.1,32.5,44.7,29.4z"/>
		</g>
	</g>
</g>
</svg>
