<?xml version="1.0" encoding="utf-8"?>
<!-- Generator: Adobe Illustrator 16.0.0, SVG Export Plug-In . SVG Version: 6.00 Build 0)  -->
<!DOCTYPE svg PUBLIC "-//W3C//DTD SVG 1.1//EN" "http://www.w3.org/Graphics/SVG/1.1/DTD/svg11.dtd">
<svg version="1.1" id="图层_1" xmlns="http://www.w3.org/2000/svg" xmlns:xlink="http://www.w3.org/1999/xlink" x="0px" y="0px"
	 width="100px" height="130px" viewBox="0 -15 100 130" style="enable-background:new 0 -15 100 130;" xml:space="preserve">
<style type="text/css">
<![CDATA[
	.st0{fill:url(#SVGID_1_);}
	.st1{fill:url(#SVGID_2_);}
	.st2{fill:url(#SVGID_3_);}
	.st3{fill:url(#SVGID_4_);}
	.st4{fill:url(#SVGID_5_);}
	.st5{fill:url(#SVGID_6_);}
	.st6{fill:url(#SVGID_7_);}
	.st7{fill:url(#SVGID_8_);}
	.st8{fill:url(#SVGID_9_);}
	.st9{fill:#FFFFFF;}
	.st10{fill:#6D8D9D;}
	.st11{fill:url(#SVGID_10_);}
	.st12{fill:url(#SVGID_11_);}
	.st13{fill:url(#SVGID_12_);}
	.st14{fill:url(#SVGID_13_);}
	.st15{fill:url(#SVGID_14_);}
	.st16{fill:url(#SVGID_15_);}
	.st17{fill:url(#SVGID_16_);}
	.st18{fill:url(#SVGID_17_);}
	.st19{fill:url(#SVGID_18_);}
	.st20{fill:url(#SVGID_19_);}
	.st21{fill:url(#SVGID_20_);}
	.st22{fill:url(#SVGID_21_);}
	.st23{fill:url(#SVGID_22_);}
	.st24{fill:url(#SVGID_23_);}
	.st25{fill:url(#SVGID_24_);}
	.st26{fill:url(#SVGID_25_);}
	.st27{fill:url(#SVGID_26_);}
	.st28{fill:url(#SVGID_27_);}
	.st29{fill:url(#SVGID_28_);}
	.st30{fill:url(#SVGID_29_);}
	.st31{fill:url(#SVGID_30_);}
	.st32{fill:url(#SVGID_31_);}
	.st33{fill:url(#SVGID_32_);}
	.st34{fill:url(#SVGID_33_);}
	.st35{fill:url(#SVGID_34_);}
	.st36{fill:url(#SVGID_35_);}
	.st37{fill:url(#SVGID_36_);}
	.st38{fill:url(#SVGID_37_);}
	.st39{fill:url(#SVGID_38_);}
	.st40{fill:url(#SVGID_39_);}
	.st41{fill:url(#SVGID_40_);}
	.st42{fill:url(#SVGID_41_);}
	.st43{fill:url(#SVGID_42_);}
	.st44{fill:url(#SVGID_43_);}
	.st45{fill:url(#SVGID_44_);}
	.st46{fill:url(#SVGID_45_);}
	.st47{fill:url(#SVGID_46_);}
]]>
</style>
<g>
	<g>
		<g>
			<g>
				<polygon class="st10" points="33,104.2 7.6,89.3 7.6,18.2 33,33.1 				"/>
				
					<linearGradient id="SVGID_1_" gradientUnits="userSpaceOnUse" x1="292.25" y1="-280.0063" x2="321.8614" y2="-228.718" gradientTransform="matrix(1 0 0 -1 -256 -245)">
					<stop  offset="0" style="stop-color:#98B2BF"/>
					<stop  offset="1" style="stop-color:#B7CAD5"/>
				</linearGradient>
				<polygon class="st0" points="7.6,18.2 69,-14.5 94.4,0.5 33,33.1 				"/>
				
					<linearGradient id="SVGID_2_" gradientUnits="userSpaceOnUse" x1="319.7344" y1="-349.1504" x2="319.7344" y2="-245.5498" gradientTransform="matrix(1 0 0 -1 -256 -245)">
					<stop  offset="0" style="stop-color:#3D4F5A"/>
					<stop  offset="1" style="stop-color:#607A88"/>
				</linearGradient>
				<polygon class="st1" points="33,104.2 94.4,71.5 94.4,0.5 33,33.1 				"/>
			</g>
			<polygon class="st10" points="30.6,105.5 5.3,90.7 5.3,19.6 30.6,34.5 			"/>
			
				<linearGradient id="SVGID_3_" gradientUnits="userSpaceOnUse" x1="264.9336" y1="-278.9497" x2="282.9936" y2="-278.9497" gradientTransform="matrix(1 0 0 -1 -256 -245)">
				<stop  offset="0" style="stop-color:#C7D6DE"/>
				<stop  offset="1" style="stop-color:#97B1BE"/>
			</linearGradient>
			<polygon class="st2" points="27,43.4 8.9,32.7 8.9,24.4 27,35 			"/>
			
				<linearGradient id="SVGID_4_" gradientUnits="userSpaceOnUse" x1="265.4336" y1="-277.4502" x2="282.4916" y2="-277.4502" gradientTransform="matrix(1 0 0 -1 -256 -245)">
				<stop  offset="0" style="stop-color:#607A88"/>
				<stop  offset="1" style="stop-color:#3D4F5A"/>
			</linearGradient>
			<polygon class="st3" points="26.5,38.4 9.4,28.3 9.4,26.5 26.5,36.5 			"/>
			
				<linearGradient id="SVGID_5_" gradientUnits="userSpaceOnUse" x1="274.3066" y1="-272.4761" x2="275.2361" y2="-270.866" gradientTransform="matrix(1 0 0 -1 -256 -245)">
				<stop  offset="0" style="stop-color:#98B2BF"/>
				<stop  offset="1" style="stop-color:#B7CAD5"/>
			</linearGradient>
			<polygon class="st4" points="5.3,19.6 6.8,18.7 32.2,33.6 30.6,34.5 			"/>
			
				<linearGradient id="SVGID_6_" gradientUnits="userSpaceOnUse" x1="287.4336" y1="-350.5488" x2="287.4336" y2="-278.6499" gradientTransform="matrix(1 0 0 -1 -256 -245)">
				<stop  offset="0" style="stop-color:#3D4F5A"/>
				<stop  offset="1" style="stop-color:#607A88"/>
			</linearGradient>
			<polygon class="st5" points="30.6,105.5 32.2,104.7 32.2,33.6 30.6,34.5 			"/>
			<g>
				<g>
					<g>
						
							<linearGradient id="SVGID_7_" gradientUnits="userSpaceOnUse" x1="261.29" y1="-286.6499" x2="286.623" y2="-286.6499" gradientTransform="matrix(1 0 0 -1 -256 -245)">
							<stop  offset="0" style="stop-color:#98B2BF"/>
							<stop  offset="1" style="stop-color:#B7CAD5"/>
						</linearGradient>
						<polygon class="st6" points="30.6,50.1 5.3,35.2 5.3,33.1 30.6,48 						"/>
					</g>
					
						<linearGradient id="SVGID_8_" gradientUnits="userSpaceOnUse" x1="287.4336" y1="-295.1499" x2="287.4336" y2="-292.1421" gradientTransform="matrix(1 0 0 -1 -256 -245)">
						<stop  offset="0" style="stop-color:#98B2BF"/>
						<stop  offset="1" style="stop-color:#B7CAD5"/>
					</linearGradient>
					<polygon class="st7" points="30.6,50.1 32.2,49.2 32.2,47.1 30.6,48 					"/>
				</g>
			</g>
			<g>
				<g>
					<g>
						
							<linearGradient id="SVGID_9_" gradientUnits="userSpaceOnUse" x1="261.29" y1="-289.4492" x2="286.623" y2="-289.4492" gradientTransform="matrix(1 0 0 -1 -256 -245)">
							<stop  offset="0" style="stop-color:#98B2BF"/>
							<stop  offset="1" style="stop-color:#B7CAD5"/>
						</linearGradient>
						<polygon class="st8" points="30.6,52.9 5.3,38 5.3,35.9 30.6,50.8 						"/>
					</g>
					
						<linearGradient id="SVGID_10_" gradientUnits="userSpaceOnUse" x1="287.4336" y1="-297.9395" x2="287.4336" y2="-294.9322" gradientTransform="matrix(1 0 0 -1 -256 -245)">
						<stop  offset="0" style="stop-color:#98B2BF"/>
						<stop  offset="1" style="stop-color:#B7CAD5"/>
					</linearGradient>
					<polygon class="st11" points="30.6,52.9 32.2,52 32.2,49.9 30.6,50.8 					"/>
				</g>
			</g>
			
				<linearGradient id="SVGID_11_" gradientUnits="userSpaceOnUse" x1="267.0332" y1="-336.0498" x2="286.6328" y2="-336.0498" gradientTransform="matrix(1 0 0 -1 -256 -245)">
				<stop  offset="0" style="stop-color:#98B2BF"/>
				<stop  offset="1" style="stop-color:#B7CAD5"/>
			</linearGradient>
			<polygon class="st12" points="30.6,96.2 30.6,97.4 11,85.8 11,84.7 			"/>
			
				<linearGradient id="SVGID_12_" gradientUnits="userSpaceOnUse" x1="287.4336" y1="-342.4082" x2="287.4336" y2="-340.2588" gradientTransform="matrix(1 0 0 -1 -256 -245)">
				<stop  offset="0" style="stop-color:#98B2BF"/>
				<stop  offset="1" style="stop-color:#B7CAD5"/>
			</linearGradient>
			<polygon class="st13" points="30.6,97.4 32.2,96.4 32.2,95.3 30.6,96.2 			"/>
			
				<linearGradient id="SVGID_13_" gradientUnits="userSpaceOnUse" x1="267.0332" y1="-334.1992" x2="286.6328" y2="-334.1992" gradientTransform="matrix(1 0 0 -1 -256 -245)">
				<stop  offset="0" style="stop-color:#98B2BF"/>
				<stop  offset="1" style="stop-color:#B7CAD5"/>
			</linearGradient>
			<polygon class="st14" points="30.6,94.3 30.6,95.5 11,84 11,82.8 			"/>
			
				<linearGradient id="SVGID_14_" gradientUnits="userSpaceOnUse" x1="287.4336" y1="-340.5835" x2="287.4336" y2="-338.4355" gradientTransform="matrix(1 0 0 -1 -256 -245)">
				<stop  offset="0" style="stop-color:#98B2BF"/>
				<stop  offset="1" style="stop-color:#B7CAD5"/>
			</linearGradient>
			<polygon class="st15" points="30.6,95.5 32.2,94.7 32.2,93.4 30.6,94.3 			"/>
			
				<linearGradient id="SVGID_15_" gradientUnits="userSpaceOnUse" x1="267.0332" y1="-332.3994" x2="286.6328" y2="-332.3994" gradientTransform="matrix(1 0 0 -1 -256 -245)">
				<stop  offset="0" style="stop-color:#98B2BF"/>
				<stop  offset="1" style="stop-color:#B7CAD5"/>
			</linearGradient>
			<polygon class="st16" points="30.6,92.5 30.6,93.8 11,82.3 11,81 			"/>
			
				<linearGradient id="SVGID_16_" gradientUnits="userSpaceOnUse" x1="287.4336" y1="-338.7607" x2="287.4336" y2="-336.6104" gradientTransform="matrix(1 0 0 -1 -256 -245)">
				<stop  offset="0" style="stop-color:#98B2BF"/>
				<stop  offset="1" style="stop-color:#B7CAD5"/>
			</linearGradient>
			<polygon class="st17" points="30.6,93.8 32.2,92.8 32.2,91.7 30.6,92.5 			"/>
			
				<linearGradient id="SVGID_17_" gradientUnits="userSpaceOnUse" x1="267.0332" y1="-330.5498" x2="286.6328" y2="-330.5498" gradientTransform="matrix(1 0 0 -1 -256 -245)">
				<stop  offset="0" style="stop-color:#98B2BF"/>
				<stop  offset="1" style="stop-color:#B7CAD5"/>
			</linearGradient>
			<polygon class="st18" points="30.6,90.8 30.6,91.9 11,80.3 11,79.2 			"/>
			
				<linearGradient id="SVGID_18_" gradientUnits="userSpaceOnUse" x1="287.4336" y1="-336.9355" x2="287.4336" y2="-334.7881" gradientTransform="matrix(1 0 0 -1 -256 -245)">
				<stop  offset="0" style="stop-color:#98B2BF"/>
				<stop  offset="1" style="stop-color:#B7CAD5"/>
			</linearGradient>
			<polygon class="st19" points="30.6,91.9 32.2,91 32.2,89.8 30.6,90.8 			"/>
			
				<linearGradient id="SVGID_19_" gradientUnits="userSpaceOnUse" x1="267.0332" y1="-328.75" x2="286.6328" y2="-328.75" gradientTransform="matrix(1 0 0 -1 -256 -245)">
				<stop  offset="0" style="stop-color:#98B2BF"/>
				<stop  offset="1" style="stop-color:#B7CAD5"/>
			</linearGradient>
			<polygon class="st20" points="30.6,88.9 30.6,90.2 11,78.5 11,77.3 			"/>
			
				<linearGradient id="SVGID_20_" gradientUnits="userSpaceOnUse" x1="287.4336" y1="-335.1123" x2="287.4336" y2="-332.9609" gradientTransform="matrix(1 0 0 -1 -256 -245)">
				<stop  offset="0" style="stop-color:#98B2BF"/>
				<stop  offset="1" style="stop-color:#B7CAD5"/>
			</linearGradient>
			<polygon class="st21" points="30.6,90.2 32.2,89.2 32.2,87.9 30.6,88.8 			"/>
			
				<linearGradient id="SVGID_21_" gradientUnits="userSpaceOnUse" x1="267.0332" y1="-326.8994" x2="286.6328" y2="-326.8994" gradientTransform="matrix(1 0 0 -1 -256 -245)">
				<stop  offset="0" style="stop-color:#98B2BF"/>
				<stop  offset="1" style="stop-color:#B7CAD5"/>
			</linearGradient>
			<polygon class="st22" points="30.6,87 30.6,88.3 11,76.8 11,75.5 			"/>
			
				<linearGradient id="SVGID_22_" gradientUnits="userSpaceOnUse" x1="287.4336" y1="-333.2881" x2="287.4336" y2="-331.1397" gradientTransform="matrix(1 0 0 -1 -256 -245)">
				<stop  offset="0" style="stop-color:#98B2BF"/>
				<stop  offset="1" style="stop-color:#B7CAD5"/>
			</linearGradient>
			<polygon class="st23" points="30.6,88.3 32.2,87.3 32.2,86.2 30.6,87 			"/>
			
				<linearGradient id="SVGID_23_" gradientUnits="userSpaceOnUse" x1="267.0332" y1="-325.0996" x2="286.6328" y2="-325.0996" gradientTransform="matrix(1 0 0 -1 -256 -245)">
				<stop  offset="0" style="stop-color:#98B2BF"/>
				<stop  offset="1" style="stop-color:#B7CAD5"/>
			</linearGradient>
			<polygon class="st24" points="30.6,85.3 30.6,86.4 11,74.9 11,73.8 12,74.3 			"/>
			
				<linearGradient id="SVGID_24_" gradientUnits="userSpaceOnUse" x1="287.4336" y1="-331.4629" x2="287.4336" y2="-329.313" gradientTransform="matrix(1 0 0 -1 -256 -245)">
				<stop  offset="0" style="stop-color:#98B2BF"/>
				<stop  offset="1" style="stop-color:#B7CAD5"/>
			</linearGradient>
			<polygon class="st25" points="30.6,86.4 32.2,85.5 32.2,84.3 30.6,85.3 			"/>
			
				<linearGradient id="SVGID_25_" gradientUnits="userSpaceOnUse" x1="267.5342" y1="-319.9121" x2="267.5342" y2="-318.7022" gradientTransform="matrix(1 0 0 -1 -256 -245)">
				<stop  offset="0" style="stop-color:#3D4F5A"/>
				<stop  offset="1" style="stop-color:#607A88"/>
			</linearGradient>
			<polygon class="st26" points="12,74.3 11,74.9 11,73.8 			"/>
			
				<linearGradient id="SVGID_26_" gradientUnits="userSpaceOnUse" x1="267.5342" y1="-321.7412" x2="267.5342" y2="-320.5288" gradientTransform="matrix(1 0 0 -1 -256 -245)">
				<stop  offset="0" style="stop-color:#3D4F5A"/>
				<stop  offset="1" style="stop-color:#607A88"/>
			</linearGradient>
			<polygon class="st27" points="12,76.2 11,76.8 11,75.5 			"/>
			
				<linearGradient id="SVGID_27_" gradientUnits="userSpaceOnUse" x1="267.5342" y1="-323.5698" x2="267.5342" y2="-322.3599" gradientTransform="matrix(1 0 0 -1 -256 -245)">
				<stop  offset="0" style="stop-color:#3D4F5A"/>
				<stop  offset="1" style="stop-color:#607A88"/>
			</linearGradient>
			<polygon class="st28" points="12,77.9 11,78.5 11,77.3 			"/>
			
				<linearGradient id="SVGID_28_" gradientUnits="userSpaceOnUse" x1="267.5342" y1="-325.3989" x2="267.5342" y2="-324.1885" gradientTransform="matrix(1 0 0 -1 -256 -245)">
				<stop  offset="0" style="stop-color:#3D4F5A"/>
				<stop  offset="1" style="stop-color:#607A88"/>
			</linearGradient>
			<polygon class="st29" points="12,79.8 11,80.3 11,79.2 			"/>
			
				<linearGradient id="SVGID_29_" gradientUnits="userSpaceOnUse" x1="267.5342" y1="-327.2295" x2="267.5342" y2="-326.0171" gradientTransform="matrix(1 0 0 -1 -256 -245)">
				<stop  offset="0" style="stop-color:#3D4F5A"/>
				<stop  offset="1" style="stop-color:#607A88"/>
			</linearGradient>
			<polygon class="st30" points="12,81.7 11,82.3 11,81 			"/>
			
				<linearGradient id="SVGID_30_" gradientUnits="userSpaceOnUse" x1="267.5342" y1="-329.0562" x2="267.5342" y2="-327.8463" gradientTransform="matrix(1 0 0 -1 -256 -245)">
				<stop  offset="0" style="stop-color:#3D4F5A"/>
				<stop  offset="1" style="stop-color:#607A88"/>
			</linearGradient>
			<polygon class="st31" points="12,83.4 11,84 11,82.8 			"/>
			
				<linearGradient id="SVGID_31_" gradientUnits="userSpaceOnUse" x1="267.5342" y1="-330.8872" x2="267.5342" y2="-329.6768" gradientTransform="matrix(1 0 0 -1 -256 -245)">
				<stop  offset="0" style="stop-color:#3D4F5A"/>
				<stop  offset="1" style="stop-color:#607A88"/>
			</linearGradient>
			<polygon class="st32" points="12,85.3 11,85.8 11,84.7 			"/>
			<g>
				
					<linearGradient id="SVGID_32_" gradientUnits="userSpaceOnUse" x1="278.5518" y1="-336.1597" x2="285.0399" y2="-336.1597" gradientTransform="matrix(1 0.589 0 -1 -256 -433.8607)">
					<stop  offset="0" style="stop-color:#3D4F5A"/>
					<stop  offset="1" style="stop-color:#607A88"/>
				</linearGradient>
				<path class="st33" d="M29,70.3c0,1.8-1.5,2.4-3.2,1.3c-1.8-1.1-3.2-3.4-3.2-5.2s1.5-2.4,3.2-1.3C27.6,66.2,29,68.4,29,70.3z"/>
				
					<radialGradient id="SVGID_33_" cx="281.9717" cy="-336.3276" r="2.8743" gradientTransform="matrix(1 0.589 0 -1 -256 -433.8607)" gradientUnits="userSpaceOnUse">
					<stop  offset="0" style="stop-color:#B7CAD5"/>
					<stop  offset="1" style="stop-color:#98B2BF"/>
				</radialGradient>
				<path class="st34" d="M28.8,70.3c0,1.6-1.3,2.1-2.9,1.2s-2.9-3-2.9-4.6s1.3-2.1,2.9-1.2C27.5,66.7,28.8,68.7,28.8,70.3z"/>
			</g>
			<g>
				
					<linearGradient id="SVGID_34_" gradientUnits="userSpaceOnUse" x1="280.8184" y1="-341.5718" x2="282.7744" y2="-341.5718" gradientTransform="matrix(1 0.589 0 -1 -256 -433.8607)">
					<stop  offset="0" style="stop-color:#3D4F5A"/>
					<stop  offset="1" style="stop-color:#607A88"/>
				</linearGradient>
				<path class="st35" d="M26.7,74.3c0,0.5-0.4,0.7-1,0.4c-0.6-0.3-1-1-1-1.6c0-0.5,0.4-0.7,1-0.4C26.3,73,26.7,73.8,26.7,74.3z"/>
				
					<radialGradient id="SVGID_35_" cx="281.8506" cy="-341.605" r="0.866" gradientTransform="matrix(1 0.589 0 -1 -256 -433.8607)" gradientUnits="userSpaceOnUse">
					<stop  offset="0" style="stop-color:#B7CAD5"/>
					<stop  offset="1" style="stop-color:#98B2BF"/>
				</radialGradient>
				<path class="st36" d="M26.7,74.3c0,0.5-0.4,0.6-0.9,0.4c-0.5-0.3-0.9-0.9-0.9-1.4s0.4-0.6,0.9-0.4
					C26.3,73.2,26.7,73.8,26.7,74.3z"/>
			</g>
		</g>
		<g>
			<g>
				
					<linearGradient id="SVGID_36_" gradientUnits="userSpaceOnUse" x1="315.1963" y1="-355.0498" x2="341.708" y2="-355.0498" gradientTransform="matrix(1 0 0 -1 -256 -245)">
					<stop  offset="0" style="stop-color:#3D4F5A"/>
					<stop  offset="0.5" style="stop-color:#607A88"/>
					<stop  offset="1" style="stop-color:#3D4F5A"/>
				</linearGradient>
				<path class="st37" d="M85.7,105.7v1c0,4.3-5.9,7.8-13.3,7.8c-7.3,0-13.3-3.5-13.3-7.8v-1c0,4.3,5.9,7.8,13.3,7.8
					C79.7,113.4,85.7,109.9,85.7,105.7z"/>
				
					<linearGradient id="SVGID_37_" gradientUnits="userSpaceOnUse" x1="315.1973" y1="-350.6494" x2="341.7079" y2="-350.6494" gradientTransform="matrix(1 0 0 -1 -256 -245)">
					<stop  offset="0" style="stop-color:#86A2B1"/>
					<stop  offset="0.5" style="stop-color:#A9BFCB"/>
					<stop  offset="1" style="stop-color:#86A2B1"/>
				</linearGradient>
				<path class="st38" d="M85.7,105.7c0,4.3-5.9,7.8-13.3,7.8s-13.3-3.5-13.3-7.8c0-4.3,5.9-7.8,13.3-7.8S85.7,101.3,85.7,105.7z"/>
			</g>
			
				<linearGradient id="SVGID_38_" gradientUnits="userSpaceOnUse" x1="326.3096" y1="-420.6006" x2="334.4092" y2="-420.6006" gradientTransform="matrix(1 0.589 0 -1 -256 -512.683)">
				<stop  offset="0" style="stop-color:#3D4F5A"/>
				<stop  offset="0.5" style="stop-color:#607A88"/>
				<stop  offset="1" style="stop-color:#3D4F5A"/>
			</linearGradient>
			<polygon class="st39" points="78.4,107.8 70.3,103 70.3,97.3 78.4,101.9 			"/>
			
				<linearGradient id="SVGID_39_" gradientUnits="userSpaceOnUse" x1="322.959" y1="-424.3389" x2="331.0586" y2="-424.3389" gradientTransform="matrix(1 0.589 0 -1 -256 -512.683)">
				<stop  offset="0" style="stop-color:#3D4F5A"/>
				<stop  offset="1" style="stop-color:#607A88"/>
			</linearGradient>
			<polygon class="st40" points="75,109.5 66.9,104.8 66.9,98.9 75,103.8 			"/>
			
				<linearGradient id="SVGID_40_" gradientUnits="userSpaceOnUse" x1="331.0635" y1="-350.499" x2="334.416" y2="-350.499" gradientTransform="matrix(1 0 0 -1 -256 -245)">
				<stop  offset="0" style="stop-color:#3D4F5A"/>
				<stop  offset="0.9926" style="stop-color:#607A88"/>
			</linearGradient>
			<polygon class="st41" points="78.4,107.8 75,109.5 75,101.4 78.4,105.4 			"/>
		</g>
		
			<linearGradient id="SVGID_41_" gradientUnits="userSpaceOnUse" x1="308.334" y1="-405.375" x2="350.3506" y2="-405.375" gradientTransform="matrix(1 0.589 0 -1 -256 -512.683)">
			<stop  offset="0" style="stop-color:#7B9AA9"/>
			<stop  offset="0.5" style="stop-color:#C4D3DB"/>
			<stop  offset="1" style="stop-color:#7B9AA9"/>
		</linearGradient>
		<polygon class="st42" points="94.4,113.4 52.3,88.5 52.3,59.9 94.4,84.8 		"/>
		
			<linearGradient id="SVGID_42_" gradientUnits="userSpaceOnUse" x1="336.7305" y1="-427.2153" x2="318.3758" y2="-387.5981" gradientTransform="matrix(1 0.589 0 -1 -256 -512.683)">
			<stop  offset="0" style="stop-color:#7B9AA9"/>
			<stop  offset="0.35" style="stop-color:#C4D3DB"/>
			<stop  offset="1" style="stop-color:#7B9AA9"/>
		</linearGradient>
		<polygon class="st43" points="92.5,114.3 50.5,89.4 50.5,60.9 92.5,85.8 		"/>
		
			<linearGradient id="SVGID_43_" gradientUnits="userSpaceOnUse" x1="344.1504" y1="-360.9443" x2="321.9641" y2="-299.9882" gradientTransform="matrix(1 0 0 -1 -256 -245)">
			<stop  offset="0" style="stop-color:#7B9AA9"/>
			<stop  offset="0.35" style="stop-color:#C4D3DB"/>
			<stop  offset="1" style="stop-color:#7B9AA9"/>
		</linearGradient>
		<polygon class="st44" points="94.4,113.4 92.5,114.3 92.5,85.8 50.5,60.9 52.3,59.9 94.4,84.8 		"/>
		
			<linearGradient id="SVGID_44_" gradientUnits="userSpaceOnUse" x1="342.8779" y1="-358.5591" x2="312.7417" y2="-306.3616" gradientTransform="matrix(1 0 0 -1 -256 -245)">
			<stop  offset="0" style="stop-color:#32414A"/>
			<stop  offset="0.35" style="stop-color:#607A88"/>
			<stop  offset="1" style="stop-color:#32414A"/>
		</linearGradient>
		<polygon class="st45" points="52.4,63.8 53.1,64.8 53.1,88.7 89.9,110.4 90.5,111.4 90.5,86.3 		"/>
		<g>
			
				<linearGradient id="SVGID_45_" gradientUnits="userSpaceOnUse" x1="308.4336" y1="-345.0498" x2="346.5332" y2="-345.0498" gradientTransform="matrix(1 0 0 -1 -256 -245)">
				<stop  offset="0" style="stop-color:#32414A"/>
				<stop  offset="1" style="stop-color:#607A88"/>
			</linearGradient>
			<polygon class="st46" points="90.5,111.4 90.5,110.8 53.1,88.7 52.4,88.8 			"/>
			
				<linearGradient id="SVGID_46_" gradientUnits="userSpaceOnUse" x1="308.7832" y1="-333.8774" x2="308.7832" y2="-308.8286" gradientTransform="matrix(1 0 0 -1 -256 -245)">
				<stop  offset="0" style="stop-color:#32414A"/>
				<stop  offset="1" style="stop-color:#607A88"/>
			</linearGradient>
			<polygon class="st47" points="53.1,64.3 52.4,63.8 52.4,88.8 53.1,88.7 			"/>
		</g>
	</g>
	<g>
		<path class="st9" d="M71.5,97.3c-2.6-1.6-4.7-3.6-6.2-6.2c-1.5-2.6-2.3-5.3-2.3-8.3c0-3.1,0.8-5.2,2.4-6.1s3.8-0.6,6.5,1
			c2.5,1.4,4.4,3.5,5.9,6.2c1.5,2.7,2.3,5.5,2.3,8.5v1.1l-13.8-8c0.1,1.9,0.6,3.6,1.3,5c0.9,1.7,2.3,3.1,4.2,4.3
			c1.2,0.7,2.3,1,3.1,0.8c0.9-0.1,1.4-0.7,1.6-1.6l3.1,1.8c-0.5,1.8-1.4,2.8-2.8,3.1C75.4,99.3,73.7,98.7,71.5,97.3z M76.7,89.2
			c-0.1-1.8-0.5-3.4-1.3-4.8c-0.9-1.6-2.1-2.8-3.7-3.8c-1.7-1-3-1.1-4-0.5c-0.8,0.5-1.3,1.5-1.4,3L76.7,89.2z"/>
	</g>
</g>
</svg>
