<?xml version="1.0" encoding="utf-8"?>
<!-- Generator: Adobe Illustrator 16.0.0, SVG Export Plug-In . SVG Version: 6.00 Build 0)  -->
<!DOCTYPE svg PUBLIC "-//W3C//DTD SVG 1.1//EN" "http://www.w3.org/Graphics/SVG/1.1/DTD/svg11.dtd">
<svg version="1.1" id="图层_1" xmlns="http://www.w3.org/2000/svg" xmlns:xlink="http://www.w3.org/1999/xlink" x="0px" y="0px"
	 width="100px" height="110px" viewBox="0 0 100 110" style="enable-background:new 0 0 100 110;" xml:space="preserve">
<style type="text/css">
<![CDATA[
	.st0{fill:url(#SVGID_1_);}
	.st1{fill:url(#SVGID_2_);}
	.st2{fill:url(#SVGID_3_);}
	.st3{fill:url(#SVGID_4_);}
	.st4{fill:url(#SVGID_5_);}
	.st5{fill:url(#SVGID_6_);}
	.st6{fill:url(#SVGID_7_);}
	.st7{fill:url(#SVGID_8_);}
	.st8{fill:url(#SVGID_9_);}
	.st9{fill:#6D8C9C;}
	.st10{fill:url(#SVGID_10_);}
	.st11{fill:url(#SVGID_11_);}
	.st12{fill:url(#SVGID_12_);}
	.st13{fill:url(#SVGID_13_);}
	.st14{fill:url(#SVGID_14_);}
	.st15{fill:url(#SVGID_15_);}
	.st16{fill:url(#SVGID_16_);}
	.st17{fill:url(#SVGID_17_);}
	.st18{fill:url(#SVGID_18_);}
	.st19{fill:url(#SVGID_19_);}
	.st20{fill:url(#SVGID_20_);}
	.st21{fill:url(#SVGID_21_);}
	.st22{fill:url(#SVGID_22_);}
	.st23{fill:url(#SVGID_23_);}
	.st24{fill:url(#SVGID_24_);}
	.st25{fill:url(#SVGID_25_);}
	.st26{fill:url(#SVGID_26_);}
	.st27{fill:url(#SVGID_27_);}
	.st28{fill:url(#SVGID_28_);}
	.st29{fill:url(#SVGID_29_);}
	.st30{fill:url(#SVGID_30_);}
	.st31{fill:url(#SVGID_31_);}
	.st32{fill:url(#SVGID_32_);}
	.st33{fill:url(#SVGID_33_);}
	.st34{fill:url(#SVGID_34_);}
	.st35{fill:url(#SVGID_35_);}
	.st36{fill:url(#SVGID_36_);}
	.st37{fill:url(#SVGID_37_);}
	.st38{fill:url(#SVGID_38_);}
	.st39{fill:url(#SVGID_39_);}
]]>
</style>
<g>
	
		<linearGradient id="SVGID_1_" gradientUnits="userSpaceOnUse" x1="-499.6025" y1="253.8018" x2="-453.3722" y2="173.7284" gradientTransform="matrix(0.7071 0.7071 -0.7071 0.7071 537.0326 261.3816)">
		<stop  offset="0" style="stop-color:#B6C9D4"/>
		<stop  offset="1" style="stop-color:#97B1BE"/>
	</linearGradient>
	<polygon class="st0" points="55.8,104.5 0,71.5 42.1,46.7 97.9,79.7 	"/>
	<linearGradient id="SVGID_2_" gradientUnits="userSpaceOnUse" x1="69.042" y1="64.8896" x2="71.1027" y2="61.3205">
		<stop  offset="0" style="stop-color:#32414A"/>
		<stop  offset="0.35" style="stop-color:#607A87"/>
		<stop  offset="1" style="stop-color:#32414A"/>
	</linearGradient>
	<polygon class="st1" points="95.1,75.7 91.3,77.7 45,50.5 48.8,48.5 	"/>
	<g>
		<g>
			
				<linearGradient id="SVGID_3_" gradientUnits="userSpaceOnUse" x1="44.1548" y1="265.9395" x2="100" y2="265.9395" gradientTransform="matrix(1 0.589 0 1 0 -267.7553)">
				<stop  offset="0" style="stop-color:#7B99A8"/>
				<stop  offset="0.5" style="stop-color:#C3D2DA"/>
				<stop  offset="1" style="stop-color:#7B99A8"/>
			</linearGradient>
			<polygon class="st2" points="100,78.6 44.2,45.7 44.2,2.6 100,35.5 			"/>
			
				<linearGradient id="SVGID_4_" gradientUnits="userSpaceOnUse" x1="83.1338" y1="296.624" x2="56.8221" y2="239.8322" gradientTransform="matrix(1 0.589 0 1 0 -267.7553)">
				<stop  offset="0" style="stop-color:#7B99A8"/>
				<stop  offset="0.35" style="stop-color:#C3D2DA"/>
				<stop  offset="1" style="stop-color:#7B99A8"/>
			</linearGradient>
			<polygon class="st3" points="97.9,79.7 42.1,46.8 42.1,3.7 97.9,36.6 			"/>
			<linearGradient id="SVGID_5_" gradientUnits="userSpaceOnUse" x1="93.4795" y1="81.2998" x2="62.4278" y2="-4.014">
				<stop  offset="0" style="stop-color:#7B99A8"/>
				<stop  offset="0.35" style="stop-color:#C3D2DA"/>
				<stop  offset="1" style="stop-color:#7B99A8"/>
			</linearGradient>
			<polygon class="st4" points="100,78.6 97.9,79.7 97.9,36.6 42.1,3.7 44.2,2.6 100,35.5 			"/>
			<linearGradient id="SVGID_6_" gradientUnits="userSpaceOnUse" x1="91.7764" y1="78.6699" x2="48.852" y2="4.3228">
				<stop  offset="0" style="stop-color:#32414A"/>
				<stop  offset="0.35" style="stop-color:#607A87"/>
				<stop  offset="1" style="stop-color:#32414A"/>
			</linearGradient>
			<polygon class="st5" points="44.3,7 45,8.1 45,45.9 94.9,75.3 95.7,76.4 95.7,37.3 			"/>
			<linearGradient id="SVGID_7_" gradientUnits="userSpaceOnUse" x1="44.2632" y1="61.1387" x2="95.6895" y2="61.1387">
				<stop  offset="0" style="stop-color:#32414A"/>
				<stop  offset="1" style="stop-color:#607A87"/>
			</linearGradient>
			<polygon class="st6" points="95.7,76.4 95.7,75.8 45,45.9 44.3,46.1 			"/>
			<linearGradient id="SVGID_8_" gradientUnits="userSpaceOnUse" x1="44.6411" y1="46.1167" x2="44.6411" y2="6.9712">
				<stop  offset="0" style="stop-color:#32414A"/>
				<stop  offset="1" style="stop-color:#607A87"/>
			</linearGradient>
			<polygon class="st7" points="45,7.4 44.3,7 44.3,46.1 45,45.9 			"/>
		</g>
	</g>
	<g>
		
			<linearGradient id="SVGID_9_" gradientUnits="userSpaceOnUse" x1="78.3936" y1="-579.7114" x2="81.7073" y2="-585.451" gradientTransform="matrix(0.7071 0.7071 -0.7071 0.7071 -425.069 409.9919)">
			<stop  offset="0" style="stop-color:#32414A"/>
			<stop  offset="0.35" style="stop-color:#607A87"/>
			<stop  offset="1" style="stop-color:#32414A"/>
		</linearGradient>
		<polygon class="st8" points="44.7,56.8 39.9,53.9 42.3,52.5 47.1,55.4 		"/>
		
			<linearGradient id="SVGID_10_" gradientUnits="userSpaceOnUse" x1="85.4727" y1="-581.5278" x2="88.786" y2="-587.2667" gradientTransform="matrix(0.7071 0.7071 -0.7071 0.7071 -425.069 409.9919)">
			<stop  offset="0" style="stop-color:#32414A"/>
			<stop  offset="0.35" style="stop-color:#607A87"/>
			<stop  offset="1" style="stop-color:#32414A"/>
		</linearGradient>
		<polygon class="st10" points="51,60.5 46.2,57.7 48.6,56.2 53.4,59.1 		"/>
		
			<linearGradient id="SVGID_11_" gradientUnits="userSpaceOnUse" x1="92.5518" y1="-583.3428" x2="95.8654" y2="-589.0821" gradientTransform="matrix(0.7071 0.7071 -0.7071 0.7071 -425.069 409.9919)">
			<stop  offset="0" style="stop-color:#32414A"/>
			<stop  offset="0.35" style="stop-color:#607A87"/>
			<stop  offset="1" style="stop-color:#32414A"/>
		</linearGradient>
		<polygon class="st11" points="57.3,64.2 52.4,61.4 54.9,59.9 59.7,62.8 		"/>
		
			<linearGradient id="SVGID_12_" gradientUnits="userSpaceOnUse" x1="99.6328" y1="-585.1582" x2="102.9456" y2="-590.8961" gradientTransform="matrix(0.7071 0.7071 -0.7071 0.7071 -425.069 409.9919)">
			<stop  offset="0" style="stop-color:#32414A"/>
			<stop  offset="0.35" style="stop-color:#607A87"/>
			<stop  offset="1" style="stop-color:#32414A"/>
		</linearGradient>
		<polygon class="st12" points="63.6,68 58.7,65.1 61.1,63.7 66,66.5 		"/>
		
			<linearGradient id="SVGID_13_" gradientUnits="userSpaceOnUse" x1="106.71" y1="-586.9741" x2="110.0227" y2="-592.712" gradientTransform="matrix(0.7071 0.7071 -0.7071 0.7071 -425.069 409.9919)">
			<stop  offset="0" style="stop-color:#32414A"/>
			<stop  offset="0.35" style="stop-color:#607A87"/>
			<stop  offset="1" style="stop-color:#32414A"/>
		</linearGradient>
		<polygon class="st13" points="69.8,71.7 65,68.8 67.4,67.4 72.3,70.3 		"/>
		
			<linearGradient id="SVGID_14_" gradientUnits="userSpaceOnUse" x1="113.79" y1="-588.7891" x2="117.103" y2="-594.5273" gradientTransform="matrix(0.7071 0.7071 -0.7071 0.7071 -425.069 409.9919)">
			<stop  offset="0" style="stop-color:#32414A"/>
			<stop  offset="0.35" style="stop-color:#607A87"/>
			<stop  offset="1" style="stop-color:#32414A"/>
		</linearGradient>
		<polygon class="st14" points="76.1,75.4 71.3,72.5 73.7,71.1 78.6,74 		"/>
		
			<linearGradient id="SVGID_15_" gradientUnits="userSpaceOnUse" x1="120.8682" y1="-590.604" x2="124.182" y2="-596.3438" gradientTransform="matrix(0.7071 0.7071 -0.7071 0.7071 -425.069 409.9919)">
			<stop  offset="0" style="stop-color:#32414A"/>
			<stop  offset="0.35" style="stop-color:#607A87"/>
			<stop  offset="1" style="stop-color:#32414A"/>
		</linearGradient>
		<polygon class="st15" points="82.4,79.1 77.6,76.3 80,74.8 84.8,77.7 		"/>
		
			<linearGradient id="SVGID_16_" gradientUnits="userSpaceOnUse" x1="76.3877" y1="-573.3584" x2="81.0527" y2="-581.4385" gradientTransform="matrix(0.7071 0.7071 -0.7071 0.7071 -425.069 409.9919)">
			<stop  offset="0" style="stop-color:#32414A"/>
			<stop  offset="0.35" style="stop-color:#607A87"/>
			<stop  offset="1" style="stop-color:#32414A"/>
		</linearGradient>
		<polygon class="st16" points="38.9,60.2 34,57.4 38.9,54.5 43.7,57.4 		"/>
		
			<linearGradient id="SVGID_17_" gradientUnits="userSpaceOnUse" x1="83.4678" y1="-575.1743" x2="88.1328" y2="-583.2544" gradientTransform="matrix(0.7071 0.7071 -0.7071 0.7071 -425.069 409.9919)">
			<stop  offset="0" style="stop-color:#32414A"/>
			<stop  offset="0.35" style="stop-color:#607A87"/>
			<stop  offset="1" style="stop-color:#32414A"/>
		</linearGradient>
		<polygon class="st17" points="45.2,64 40.3,61.1 45.2,58.2 50,61.1 		"/>
		
			<linearGradient id="SVGID_18_" gradientUnits="userSpaceOnUse" x1="90.5469" y1="-576.9897" x2="95.2122" y2="-585.0703" gradientTransform="matrix(0.7071 0.7071 -0.7071 0.7071 -425.069 409.9919)">
			<stop  offset="0" style="stop-color:#32414A"/>
			<stop  offset="0.35" style="stop-color:#607A87"/>
			<stop  offset="1" style="stop-color:#32414A"/>
		</linearGradient>
		<polygon class="st18" points="51.5,67.7 46.6,64.8 51.5,62 56.3,64.8 		"/>
		
			<linearGradient id="SVGID_19_" gradientUnits="userSpaceOnUse" x1="97.627" y1="-578.8057" x2="102.2915" y2="-586.8849" gradientTransform="matrix(0.7071 0.7071 -0.7071 0.7071 -425.069 409.9919)">
			<stop  offset="0" style="stop-color:#32414A"/>
			<stop  offset="0.35" style="stop-color:#607A87"/>
			<stop  offset="1" style="stop-color:#32414A"/>
		</linearGradient>
		<polygon class="st19" points="57.7,71.4 52.9,68.5 57.7,65.7 62.6,68.5 		"/>
		
			<linearGradient id="SVGID_20_" gradientUnits="userSpaceOnUse" x1="104.7061" y1="-580.6201" x2="109.3706" y2="-588.6993" gradientTransform="matrix(0.7071 0.7071 -0.7071 0.7071 -425.069 409.9919)">
			<stop  offset="0" style="stop-color:#32414A"/>
			<stop  offset="0.35" style="stop-color:#607A87"/>
			<stop  offset="1" style="stop-color:#32414A"/>
		</linearGradient>
		<polygon class="st20" points="64,75.1 59.2,72.3 64,69.4 68.9,72.3 		"/>
		
			<linearGradient id="SVGID_21_" gradientUnits="userSpaceOnUse" x1="111.7852" y1="-582.4355" x2="116.4497" y2="-590.5148" gradientTransform="matrix(0.7071 0.7071 -0.7071 0.7071 -425.069 409.9919)">
			<stop  offset="0" style="stop-color:#32414A"/>
			<stop  offset="0.35" style="stop-color:#607A87"/>
			<stop  offset="1" style="stop-color:#32414A"/>
		</linearGradient>
		<polygon class="st21" points="70.3,78.8 65.5,76 70.3,73.1 75.2,76 		"/>
		
			<linearGradient id="SVGID_22_" gradientUnits="userSpaceOnUse" x1="74.7109" y1="-566.8179" x2="79.3755" y2="-574.8971" gradientTransform="matrix(0.7071 0.7071 -0.7071 0.7071 -425.069 409.9919)">
			<stop  offset="0" style="stop-color:#32414A"/>
			<stop  offset="0.35" style="stop-color:#607A87"/>
			<stop  offset="1" style="stop-color:#32414A"/>
		</linearGradient>
		<polygon class="st22" points="33.1,63.7 28.2,60.8 33.1,58 37.9,60.8 		"/>
		
			<linearGradient id="SVGID_23_" gradientUnits="userSpaceOnUse" x1="81.79" y1="-568.6333" x2="86.4551" y2="-576.7134" gradientTransform="matrix(0.7071 0.7071 -0.7071 0.7071 -425.069 409.9919)">
			<stop  offset="0" style="stop-color:#32414A"/>
			<stop  offset="0.35" style="stop-color:#607A87"/>
			<stop  offset="1" style="stop-color:#32414A"/>
		</linearGradient>
		<polygon class="st23" points="39.4,67.4 34.5,64.5 39.4,61.7 44.2,64.5 		"/>
		
			<linearGradient id="SVGID_24_" gradientUnits="userSpaceOnUse" x1="88.8682" y1="-570.4482" x2="93.5331" y2="-578.5281" gradientTransform="matrix(0.7071 0.7071 -0.7071 0.7071 -425.069 409.9919)">
			<stop  offset="0" style="stop-color:#32414A"/>
			<stop  offset="0.35" style="stop-color:#607A87"/>
			<stop  offset="1" style="stop-color:#32414A"/>
		</linearGradient>
		<polygon class="st24" points="45.6,71.1 40.8,68.3 45.6,65.4 50.5,68.3 		"/>
		
			<linearGradient id="SVGID_25_" gradientUnits="userSpaceOnUse" x1="95.9492" y1="-572.2627" x2="100.614" y2="-580.3423" gradientTransform="matrix(0.7071 0.7071 -0.7071 0.7071 -425.069 409.9919)">
			<stop  offset="0" style="stop-color:#32414A"/>
			<stop  offset="0.35" style="stop-color:#607A87"/>
			<stop  offset="1" style="stop-color:#32414A"/>
		</linearGradient>
		<polygon class="st25" points="51.9,74.8 47.1,72 51.9,69.1 56.8,72 		"/>
		
			<linearGradient id="SVGID_26_" gradientUnits="userSpaceOnUse" x1="103.0283" y1="-574.0781" x2="107.6938" y2="-582.1591" gradientTransform="matrix(0.7071 0.7071 -0.7071 0.7071 -425.069 409.9919)">
			<stop  offset="0" style="stop-color:#32414A"/>
			<stop  offset="0.35" style="stop-color:#607A87"/>
			<stop  offset="1" style="stop-color:#32414A"/>
		</linearGradient>
		<polygon class="st26" points="58.2,78.6 53.4,75.7 58.2,72.8 63.1,75.7 		"/>
		
			<linearGradient id="SVGID_27_" gradientUnits="userSpaceOnUse" x1="112.3701" y1="-574.5869" x2="122.8439" y2="-592.728" gradientTransform="matrix(0.7071 0.7071 -0.7071 0.7071 -425.069 409.9919)">
			<stop  offset="0" style="stop-color:#32414A"/>
			<stop  offset="0.35" style="stop-color:#607A87"/>
			<stop  offset="1" style="stop-color:#32414A"/>
		</linearGradient>
		<polygon class="st27" points="76.6,76.8 74.2,78.3 71.8,79.7 70.8,80.3 64.5,76.6 59.7,79.4 66,83.1 68.4,84.6 70.8,86 76.6,82.6 
			79,81.1 81.4,79.7 		"/>
		
			<linearGradient id="SVGID_28_" gradientUnits="userSpaceOnUse" x1="73.0332" y1="-560.2749" x2="77.6978" y2="-568.3541" gradientTransform="matrix(0.7071 0.7071 -0.7071 0.7071 -425.069 409.9919)">
			<stop  offset="0" style="stop-color:#32414A"/>
			<stop  offset="0.35" style="stop-color:#607A87"/>
			<stop  offset="1" style="stop-color:#32414A"/>
		</linearGradient>
		<polygon class="st28" points="27.3,67.1 22.4,64.3 27.3,61.4 32.1,64.3 		"/>
		
			<linearGradient id="SVGID_29_" gradientUnits="userSpaceOnUse" x1="80.1123" y1="-562.0908" x2="84.7773" y2="-570.1709" gradientTransform="matrix(0.7071 0.7071 -0.7071 0.7071 -425.069 409.9919)">
			<stop  offset="0" style="stop-color:#32414A"/>
			<stop  offset="0.35" style="stop-color:#607A87"/>
			<stop  offset="1" style="stop-color:#32414A"/>
		</linearGradient>
		<polygon class="st29" points="33.5,70.8 28.7,68 33.5,65.1 38.4,68 		"/>
		
			<linearGradient id="SVGID_30_" gradientUnits="userSpaceOnUse" x1="91.7158" y1="-561.2944" x2="101.4924" y2="-578.228" gradientTransform="matrix(0.7071 0.7071 -0.7071 0.7071 -425.069 409.9919)">
			<stop  offset="0" style="stop-color:#32414A"/>
			<stop  offset="0.35" style="stop-color:#607A87"/>
			<stop  offset="1" style="stop-color:#32414A"/>
		</linearGradient>
		<polygon class="st30" points="54.4,77.5 52.4,76.3 44.7,71.7 42.7,70.5 39.8,68.8 35,71.7 37.8,73.4 39.8,74.6 47.6,79.1 
			49.6,80.3 52.4,82 57.2,79.1 		"/>
		
			<linearGradient id="SVGID_31_" gradientUnits="userSpaceOnUse" x1="108.4297" y1="-569.353" x2="113.0942" y2="-577.4323" gradientTransform="matrix(0.7071 0.7071 -0.7071 0.7071 -425.069 409.9919)">
			<stop  offset="0" style="stop-color:#32414A"/>
			<stop  offset="0.35" style="stop-color:#607A87"/>
			<stop  offset="1" style="stop-color:#32414A"/>
		</linearGradient>
		<polygon class="st31" points="58.7,85.7 53.9,82.9 58.7,80 63.5,82.9 		"/>
		
			<linearGradient id="SVGID_32_" gradientUnits="userSpaceOnUse" x1="115.5088" y1="-571.168" x2="120.1733" y2="-579.2472" gradientTransform="matrix(0.7071 0.7071 -0.7071 0.7071 -425.069 409.9919)">
			<stop  offset="0" style="stop-color:#32414A"/>
			<stop  offset="0.35" style="stop-color:#607A87"/>
			<stop  offset="1" style="stop-color:#32414A"/>
		</linearGradient>
		<polygon class="st32" points="65,89.4 60.2,86.6 65,83.7 69.8,86.6 		"/>
	</g>
	<linearGradient id="SVGID_33_" gradientUnits="userSpaceOnUse" x1="53.8379" y1="99.4824" x2="99.8967" y2="87.141">
		<stop  offset="0" style="stop-color:#3D4F5A"/>
		<stop  offset="1" style="stop-color:#607A87"/>
	</linearGradient>
	<polygon class="st33" points="97.9,79.7 97.9,82.2 55.8,106.9 55.8,104.5 97.9,79.7 	"/>
	<linearGradient id="SVGID_34_" gradientUnits="userSpaceOnUse" x1="69.5166" y1="102.4492" x2="69.5166" y2="92.8672">
		<stop  offset="0" style="stop-color:#32414A"/>
		<stop  offset="1" style="stop-color:#32414A"/>
	</linearGradient>
	<polygon class="st34" points="76.9,92.9 76.9,93.7 62.1,102.4 62.1,101.6 76.9,92.9 	"/>
	<linearGradient id="SVGID_35_" gradientUnits="userSpaceOnUse" x1="80.9531" y1="92.3652" x2="80.9531" y2="89.4805">
		<stop  offset="0" style="stop-color:#32414A"/>
		<stop  offset="1" style="stop-color:#32414A"/>
	</linearGradient>
	<polygon class="st35" points="82.7,89.5 82.7,90.3 79.2,92.4 79.2,91.5 	"/>
	<linearGradient id="SVGID_36_" gradientUnits="userSpaceOnUse" x1="85.0459" y1="90.0293" x2="85.0459" y2="87.1445">
		<stop  offset="0" style="stop-color:#32414A"/>
		<stop  offset="1" style="stop-color:#32414A"/>
	</linearGradient>
	<polygon class="st36" points="86.8,87.1 86.8,88 83.3,90 83.3,89.2 	"/>
	<linearGradient id="SVGID_37_" gradientUnits="userSpaceOnUse" x1="-1.464844e-003" y1="71.542" x2="1.174117e-002" y2="71.5385">
		<stop  offset="0" style="stop-color:#B6C9D4"/>
		<stop  offset="1" style="stop-color:#97B1BE"/>
	</linearGradient>
	<polygon class="st37" points="0,71.5 0,71.5 0,71.5 	"/>
	<polygon class="st9" points="55.8,104.5 55.8,106.9 0,74 0,71.5 	"/>
	<linearGradient id="SVGID_38_" gradientUnits="userSpaceOnUse" x1="24.064" y1="81.7578" x2="45.9438" y2="81.7578">
		<stop  offset="0" style="stop-color:#32414A"/>
		<stop  offset="0.35" style="stop-color:#607A87"/>
		<stop  offset="1" style="stop-color:#32414A"/>
	</linearGradient>
	<path class="st38" d="M45.9,81.8L45.9,81.8L45.9,81.8c0-0.3-0.2-0.6-0.6-0.8l-8.9-5.3c-0.8-0.5-2-0.5-2.8,0l-8.9,5.3
		c-0.4,0.2-0.6,0.5-0.6,0.8v0.5l0.1-0.1c0.1,0.1,0.2,0.3,0.4,0.4l8.9,5.3c0.8,0.5,2,0.5,2.8,0l8.9-5.3c0.2-0.1,0.3-0.2,0.4-0.3
		c0,0,0,0,0,0c0,0,0.2,0,0.2,0V81.8C45.9,81.8,45.9,81.8,45.9,81.8z"/>
	<linearGradient id="SVGID_39_" gradientUnits="userSpaceOnUse" x1="24.064" y1="82.2422" x2="45.9438" y2="82.2422">
		<stop  offset="0" style="stop-color:#97B1BE"/>
		<stop  offset="1" style="stop-color:#B6C9D4"/>
	</linearGradient>
	<path class="st39" d="M36.4,88.4c-0.8,0.5-2,0.5-2.8,0l-8.9-5.3c-0.8-0.5-0.8-1.2,0-1.7l8.9-5.3c0.8-0.5,2-0.5,2.8,0l8.9,5.3
		c0.8,0.5,0.8,1.2,0,1.7L36.4,88.4z"/>
</g>
</svg>
