<?xml version="1.0" encoding="utf-8"?>
<!-- Generator: Adobe Illustrator 16.0.0, SVG Export Plug-In . SVG Version: 6.00 Build 0)  -->
<!DOCTYPE svg PUBLIC "-//W3C//DTD SVG 1.1//EN" "http://www.w3.org/Graphics/SVG/1.1/DTD/svg11.dtd">
<svg version="1.1" id="图层_1" xmlns="http://www.w3.org/2000/svg" xmlns:xlink="http://www.w3.org/1999/xlink" x="0px" y="0px"
	 width="100px" height="100px" viewBox="0 0 100 100" style="enable-background:new 0 0 100 100;" xml:space="preserve">
<style type="text/css">
<![CDATA[
	.st0{fill:url(#SVGID_1_);}
	.st1{fill:url(#SVGID_2_);}
	.st2{fill:url(#SVGID_3_);}
	.st3{fill:url(#SVGID_4_);}
	.st4{fill:url(#SVGID_5_);}
	.st5{fill:#FFFFFF;}
]]>
</style>
<g>
	
		<linearGradient id="SVGID_1_" gradientUnits="userSpaceOnUse" x1="256" y1="-304.8501" x2="356" y2="-304.8501" gradientTransform="matrix(1 0 0 -1 -256 -245)">
		<stop  offset="0" style="stop-color:#3D4F5A"/>
		<stop  offset="0.5" style="stop-color:#607A88"/>
		<stop  offset="1" style="stop-color:#3D4F5A"/>
	</linearGradient>
	<path class="st0" d="M96.2,48.4C88.7,37.6,70.8,30,50,30S11.4,37.6,3.8,48.4H0v13.5L0.1,62C1.9,77.5,23.5,89.7,50,89.7
		c27.6,0,50-13.4,50-29.9V48.4H96.2z"/>
	<g>
		
			<linearGradient id="SVGID_2_" gradientUnits="userSpaceOnUse" x1="256" y1="-295.6001" x2="356" y2="-295.6001" gradientTransform="matrix(1 0 0 -1 -256 -245)">
			<stop  offset="0" style="stop-color:#98B2BF"/>
			<stop  offset="1" style="stop-color:#B7CAD5"/>
		</linearGradient>
		<path class="st1" d="M50,20.7c-27.6,0-50,13.4-50,29.9c0,16.5,22.4,29.9,50,29.9c27.6,0,50-13.4,50-29.9
			C100,34.1,77.6,20.7,50,20.7z M50,46.8c3.5,0,6.3,1.7,6.3,3.8c0,2.1-2.8,3.7-6.3,3.7s-6.3-1.7-6.3-3.7
			C43.7,48.5,46.5,46.8,50,46.8z"/>
		
			<radialGradient id="SVGID_3_" cx="24.5889" cy="-295.5503" r="28.8201" gradientTransform="matrix(1.6742 0 0 -1 8.8328 -245)" gradientUnits="userSpaceOnUse">
			<stop  offset="0" style="stop-color:#C4D3DB"/>
			<stop  offset="1" style="stop-color:#7B9AA9"/>
		</radialGradient>
		<path class="st2" d="M50,21.7c-26.6,0-48.2,12.9-48.2,28.9c0,15.9,21.6,28.8,48.2,28.8c26.6,0,48.2-12.9,48.2-28.8
			C98.2,34.6,76.6,21.7,50,21.7z M50,54.3c-3.5,0-6.3-1.7-6.3-3.7c0-2.1,2.8-3.8,6.3-3.8s6.3,1.7,6.3,3.8
			C56.3,52.6,53.5,54.3,50,54.3z"/>
		
			<linearGradient id="SVGID_4_" gradientUnits="userSpaceOnUse" x1="290.7002" y1="-295.5005" x2="321.2509" y2="-295.5005" gradientTransform="matrix(1 0 0 -1 -256 -245)">
			<stop  offset="0" style="stop-color:#3D4F5A"/>
			<stop  offset="0.5" style="stop-color:#607A88"/>
			<stop  offset="1" style="stop-color:#3D4F5A"/>
		</linearGradient>
		<path class="st3" d="M50,41.4c-8.4,0-15.3,4.1-15.3,9.1s6.8,9.1,15.3,9.1c8.4,0,15.3-4.1,15.3-9.1S58.4,41.4,50,41.4z M50,54.3
			c-3.5,0-6.3-1.7-6.3-3.7c0-2.1,2.8-3.8,6.3-3.8s6.3,1.7,6.3,3.8C56.3,52.6,53.5,54.3,50,54.3z"/>
		<path class="st5" d="M50,43.7c-6.3,0-11.4,3.1-11.4,6.8c0,3.8,5.1,6.8,11.4,6.8s11.4-3,11.4-6.8C61.4,46.8,56.3,43.7,50,43.7z
			 M50,54.3c-3.5,0-6.3-1.7-6.3-3.7c0-2.1,2.8-3.8,6.3-3.8s6.3,1.7,6.3,3.8C56.3,52.6,53.5,54.3,50,54.3z"/>
		
			<linearGradient id="SVGID_5_" gradientUnits="userSpaceOnUse" x1="299.4268" y1="-295.5" x2="312.5693" y2="-295.5" gradientTransform="matrix(1 0 0 -1 -256 -245)">
			<stop  offset="0" style="stop-color:#3D4F5A"/>
			<stop  offset="0.5" style="stop-color:#607A88"/>
			<stop  offset="1" style="stop-color:#3D4F5A"/>
		</linearGradient>
		<path class="st4" d="M50,46.6c-3.6,0-6.6,1.8-6.6,3.9c0,2.2,2.9,3.9,6.6,3.9s6.6-1.8,6.6-3.9C56.6,48.4,53.6,46.6,50,46.6z
			 M50,54.3c-3.5,0-6.3-1.7-6.3-3.7c0-2.1,2.8-3.8,6.3-3.8s6.3,1.7,6.3,3.8C56.3,52.6,53.5,54.3,50,54.3z"/>
	</g>
</g>
</svg>
