<?xml version="1.0" encoding="utf-8"?>
<!-- Generator: Adobe Illustrator 16.0.0, SVG Export Plug-In . SVG Version: 6.00 Build 0)  -->
<!DOCTYPE svg PUBLIC "-//W3C//DTD SVG 1.1//EN" "http://www.w3.org/Graphics/SVG/1.1/DTD/svg11.dtd">
<svg version="1.1" id="图层_1" xmlns="http://www.w3.org/2000/svg" xmlns:xlink="http://www.w3.org/1999/xlink" x="0px" y="0px"
	 width="100px" height="120px" viewBox="0 -10 100 120" style="enable-background:new 0 -10 100 120;" xml:space="preserve">
<style type="text/css">
<![CDATA[
	.st0{fill:url(#SVGID_1_);}
	.st1{fill:url(#SVGID_2_);}
	.st2{fill:url(#SVGID_3_);}
	.st3{fill:url(#SVGID_4_);}
	.st4{fill:url(#SVGID_5_);}
	.st5{fill:url(#SVGID_6_);}
	.st6{fill:url(#SVGID_7_);}
	.st7{fill:url(#SVGID_8_);}
	.st8{fill:url(#SVGID_9_);}
	.st9{fill:#6D8D9D;}
	.st10{fill:url(#SVGID_10_);}
	.st11{fill:url(#SVGID_11_);}
	.st12{fill:url(#SVGID_12_);}
	.st13{fill:url(#SVGID_13_);}
	.st14{fill:url(#SVGID_14_);}
	.st15{fill:url(#SVGID_15_);}
	.st16{fill:url(#SVGID_16_);}
	.st17{fill:url(#SVGID_17_);}
	.st18{fill:url(#SVGID_18_);}
	.st19{fill:url(#SVGID_19_);}
	.st20{fill:url(#SVGID_20_);}
	.st21{fill:url(#SVGID_21_);}
	.st22{fill:url(#SVGID_22_);}
	.st23{fill:url(#SVGID_23_);}
	.st24{fill:url(#SVGID_24_);}
	.st25{fill:url(#SVGID_25_);}
	.st26{fill:url(#SVGID_26_);}
	.st27{fill:url(#SVGID_27_);}
	.st28{fill:url(#SVGID_28_);}
	.st29{fill:url(#SVGID_29_);}
	.st30{fill:url(#SVGID_30_);}
	.st31{fill:url(#SVGID_31_);}
	.st32{fill:url(#SVGID_32_);}
	.st33{fill:url(#SVGID_33_);}
	.st34{fill:url(#SVGID_34_);}
	.st35{fill:url(#SVGID_35_);}
	.st36{fill:url(#SVGID_36_);}
	.st37{fill:url(#SVGID_37_);}
	.st38{fill:url(#SVGID_38_);}
	.st39{fill:url(#SVGID_39_);}
]]>
</style>
<g>
	<g>
		<g>
			<polygon class="st9" points="30.2,108.5 4.8,93.6 4.8,22.6 30.2,37.5 			"/>
			
				<linearGradient id="SVGID_1_" gradientUnits="userSpaceOnUse" x1="289.3838" y1="-284.4116" x2="318.9948" y2="-233.1239" gradientTransform="matrix(1 0 0 -1 -256 -245)">
				<stop  offset="0" style="stop-color:#98B2BF"/>
				<stop  offset="1" style="stop-color:#B7CAD5"/>
			</linearGradient>
			<polygon class="st0" points="4.8,22.6 66.2,-10 91.6,4.9 30.2,37.5 			"/>
			
				<linearGradient id="SVGID_2_" gradientUnits="userSpaceOnUse" x1="316.9004" y1="-353.5" x2="316.9004" y2="-249.8994" gradientTransform="matrix(1 0 0 -1 -256 -245)">
				<stop  offset="0" style="stop-color:#3D4F5A"/>
				<stop  offset="1" style="stop-color:#607A88"/>
			</linearGradient>
			<polygon class="st1" points="30.2,108.5 91.6,75.9 91.6,4.9 30.2,37.5 			"/>
		</g>
		<polygon class="st9" points="27.8,110 2.5,95.1 2.5,24.1 27.8,39 		"/>
		
			<linearGradient id="SVGID_3_" gradientUnits="userSpaceOnUse" x1="262.0996" y1="-283.2998" x2="280.1606" y2="-283.2998" gradientTransform="matrix(1 0 0 -1 -256 -245)">
			<stop  offset="0" style="stop-color:#C7D6DE"/>
			<stop  offset="1" style="stop-color:#97B1BE"/>
		</linearGradient>
		<polygon class="st2" points="24.2,47.8 6.1,37.2 6.1,28.8 24.2,39.5 		"/>
		
			<linearGradient id="SVGID_4_" gradientUnits="userSpaceOnUse" x1="262.5996" y1="-281.8496" x2="279.6577" y2="-281.8496" gradientTransform="matrix(1 0 0 -1 -256 -245)">
			<stop  offset="0" style="stop-color:#607A88"/>
			<stop  offset="1" style="stop-color:#3D4F5A"/>
		</linearGradient>
		<polygon class="st3" points="23.7,42.8 6.6,32.7 6.6,30.9 23.7,41 		"/>
		
			<linearGradient id="SVGID_5_" gradientUnits="userSpaceOnUse" x1="271.4775" y1="-276.8682" x2="272.4073" y2="-275.2577" gradientTransform="matrix(1 0 0 -1 -256 -245)">
			<stop  offset="0" style="stop-color:#98B2BF"/>
			<stop  offset="1" style="stop-color:#B7CAD5"/>
		</linearGradient>
		<polygon class="st4" points="2.5,24.1 4,23.1 29.4,38 27.8,39 		"/>
		
			<linearGradient id="SVGID_6_" gradientUnits="userSpaceOnUse" x1="284.5996" y1="-355" x2="284.5996" y2="-283" gradientTransform="matrix(1 0 0 -1 -256 -245)">
			<stop  offset="0" style="stop-color:#3D4F5A"/>
			<stop  offset="1" style="stop-color:#607A88"/>
		</linearGradient>
		<polygon class="st5" points="27.8,110 29.4,109.1 29.4,38 27.8,39 		"/>
		<g>
			<g>
				<g>
					
						<linearGradient id="SVGID_7_" gradientUnits="userSpaceOnUse" x1="258.4561" y1="-291" x2="283.7899" y2="-291" gradientTransform="matrix(1 0 0 -1 -256 -245)">
						<stop  offset="0" style="stop-color:#98B2BF"/>
						<stop  offset="1" style="stop-color:#B7CAD5"/>
					</linearGradient>
					<polygon class="st6" points="27.8,54.5 2.5,39.6 2.5,37.5 27.8,52.5 					"/>
				</g>
				
					<linearGradient id="SVGID_8_" gradientUnits="userSpaceOnUse" x1="284.5996" y1="-299.54" x2="284.5996" y2="-296.5321" gradientTransform="matrix(1 0 0 -1 -256 -245)">
					<stop  offset="0" style="stop-color:#98B2BF"/>
					<stop  offset="1" style="stop-color:#B7CAD5"/>
				</linearGradient>
				<polygon class="st7" points="27.8,54.5 29.4,53.6 29.4,51.5 27.8,52.5 				"/>
			</g>
		</g>
		<g>
			<g>
				<g>
					
						<linearGradient id="SVGID_9_" gradientUnits="userSpaceOnUse" x1="258.4561" y1="-293.7998" x2="283.7899" y2="-293.7998" gradientTransform="matrix(1 0 0 -1 -256 -245)">
						<stop  offset="0" style="stop-color:#98B2BF"/>
						<stop  offset="1" style="stop-color:#B7CAD5"/>
					</linearGradient>
					<polygon class="st8" points="27.8,57.3 2.5,42.4 2.5,40.3 27.8,55.3 					"/>
				</g>
				
					<linearGradient id="SVGID_10_" gradientUnits="userSpaceOnUse" x1="284.5996" y1="-302.3311" x2="284.5996" y2="-299.3232" gradientTransform="matrix(1 0 0 -1 -256 -245)">
					<stop  offset="0" style="stop-color:#98B2BF"/>
					<stop  offset="1" style="stop-color:#B7CAD5"/>
				</linearGradient>
				<polygon class="st10" points="27.8,57.3 29.4,56.4 29.4,54.3 27.8,55.3 				"/>
			</g>
		</g>
		
			<linearGradient id="SVGID_11_" gradientUnits="userSpaceOnUse" x1="264.2002" y1="-340.3999" x2="283.7998" y2="-340.3999" gradientTransform="matrix(1 0 0 -1 -256 -245)">
			<stop  offset="0" style="stop-color:#98B2BF"/>
			<stop  offset="1" style="stop-color:#B7CAD5"/>
		</linearGradient>
		<polygon class="st11" points="27.8,100.6 27.8,101.8 8.2,90.3 8.2,89 		"/>
		
			<linearGradient id="SVGID_12_" gradientUnits="userSpaceOnUse" x1="284.5996" y1="-346.7998" x2="284.5996" y2="-344.6489" gradientTransform="matrix(1 0 0 -1 -256 -245)">
			<stop  offset="0" style="stop-color:#98B2BF"/>
			<stop  offset="1" style="stop-color:#B7CAD5"/>
		</linearGradient>
		<polygon class="st12" points="27.8,101.8 29.4,100.9 29.4,99.6 27.8,100.6 		"/>
		
			<linearGradient id="SVGID_13_" gradientUnits="userSpaceOnUse" x1="264.2002" y1="-338.6001" x2="283.7998" y2="-338.6001" gradientTransform="matrix(1 0 0 -1 -256 -245)">
			<stop  offset="0" style="stop-color:#98B2BF"/>
			<stop  offset="1" style="stop-color:#B7CAD5"/>
		</linearGradient>
		<polygon class="st13" points="27.8,98.8 27.8,100 8.2,88.4 8.2,87.2 		"/>
		
			<linearGradient id="SVGID_14_" gradientUnits="userSpaceOnUse" x1="284.5996" y1="-344.9727" x2="284.5996" y2="-342.8242" gradientTransform="matrix(1 0 0 -1 -256 -245)">
			<stop  offset="0" style="stop-color:#98B2BF"/>
			<stop  offset="1" style="stop-color:#B7CAD5"/>
		</linearGradient>
		<polygon class="st14" points="27.8,100 29.4,99 29.4,97.8 27.8,98.8 		"/>
		
			<linearGradient id="SVGID_15_" gradientUnits="userSpaceOnUse" x1="264.2002" y1="-336.8003" x2="283.7998" y2="-336.8003" gradientTransform="matrix(1 0 0 -1 -256 -245)">
			<stop  offset="0" style="stop-color:#98B2BF"/>
			<stop  offset="1" style="stop-color:#B7CAD5"/>
		</linearGradient>
		<polygon class="st15" points="27.8,96.9 27.8,98.2 8.2,86.6 8.2,85.4 		"/>
		
			<linearGradient id="SVGID_16_" gradientUnits="userSpaceOnUse" x1="284.5996" y1="-343.1504" x2="284.5996" y2="-341" gradientTransform="matrix(1 0 0 -1 -256 -245)">
			<stop  offset="0" style="stop-color:#98B2BF"/>
			<stop  offset="1" style="stop-color:#B7CAD5"/>
		</linearGradient>
		<polygon class="st16" points="27.8,98.2 29.4,97.2 29.4,96 27.8,96.9 		"/>
		
			<linearGradient id="SVGID_17_" gradientUnits="userSpaceOnUse" x1="264.2002" y1="-334.9497" x2="283.7998" y2="-334.9497" gradientTransform="matrix(1 0 0 -1 -256 -245)">
			<stop  offset="0" style="stop-color:#98B2BF"/>
			<stop  offset="1" style="stop-color:#B7CAD5"/>
		</linearGradient>
		<polygon class="st17" points="27.8,95.1 27.8,96.3 8.2,84.8 8.2,83.6 		"/>
		
			<linearGradient id="SVGID_18_" gradientUnits="userSpaceOnUse" x1="284.5996" y1="-341.3262" x2="284.5996" y2="-339.1777" gradientTransform="matrix(1 0 0 -1 -256 -245)">
			<stop  offset="0" style="stop-color:#98B2BF"/>
			<stop  offset="1" style="stop-color:#B7CAD5"/>
		</linearGradient>
		<polygon class="st18" points="27.8,96.3 29.4,95.4 29.4,94.2 27.8,95.1 		"/>
		
			<linearGradient id="SVGID_19_" gradientUnits="userSpaceOnUse" x1="264.2002" y1="-333.1001" x2="283.7998" y2="-333.1001" gradientTransform="matrix(1 0 0 -1 -256 -245)">
			<stop  offset="0" style="stop-color:#98B2BF"/>
			<stop  offset="1" style="stop-color:#B7CAD5"/>
		</linearGradient>
		<polygon class="st19" points="27.8,93.3 27.8,94.5 8.2,83 8.2,81.7 		"/>
		
			<linearGradient id="SVGID_20_" gradientUnits="userSpaceOnUse" x1="284.5996" y1="-339.5" x2="284.5996" y2="-337.3501" gradientTransform="matrix(1 0 0 -1 -256 -245)">
			<stop  offset="0" style="stop-color:#98B2BF"/>
			<stop  offset="1" style="stop-color:#B7CAD5"/>
		</linearGradient>
		<polygon class="st20" points="27.8,94.5 29.4,93.6 29.4,92.4 27.8,93.3 		"/>
		
			<linearGradient id="SVGID_21_" gradientUnits="userSpaceOnUse" x1="264.2002" y1="-331.3003" x2="283.7998" y2="-331.3003" gradientTransform="matrix(1 0 0 -1 -256 -245)">
			<stop  offset="0" style="stop-color:#98B2BF"/>
			<stop  offset="1" style="stop-color:#B7CAD5"/>
		</linearGradient>
		<polygon class="st21" points="27.8,91.5 27.8,92.7 8.2,81.1 8.2,79.9 		"/>
		
			<linearGradient id="SVGID_22_" gradientUnits="userSpaceOnUse" x1="284.5996" y1="-337.6777" x2="284.5996" y2="-335.5293" gradientTransform="matrix(1 0 0 -1 -256 -245)">
			<stop  offset="0" style="stop-color:#98B2BF"/>
			<stop  offset="1" style="stop-color:#B7CAD5"/>
		</linearGradient>
		<polygon class="st22" points="27.8,92.7 29.4,91.7 29.4,90.5 27.8,91.5 		"/>
		
			<linearGradient id="SVGID_23_" gradientUnits="userSpaceOnUse" x1="264.2002" y1="-329.5" x2="283.7998" y2="-329.5" gradientTransform="matrix(1 0 0 -1 -256 -245)">
			<stop  offset="0" style="stop-color:#98B2BF"/>
			<stop  offset="1" style="stop-color:#B7CAD5"/>
		</linearGradient>
		<polygon class="st23" points="27.8,89.6 27.8,90.9 8.2,79.3 8.2,78.1 9.2,78.7 		"/>
		
			<linearGradient id="SVGID_24_" gradientUnits="userSpaceOnUse" x1="284.5996" y1="-335.854" x2="284.5996" y2="-333.7051" gradientTransform="matrix(1 0 0 -1 -256 -245)">
			<stop  offset="0" style="stop-color:#98B2BF"/>
			<stop  offset="1" style="stop-color:#B7CAD5"/>
		</linearGradient>
		<polygon class="st24" points="27.8,90.9 29.4,89.9 29.4,88.7 27.8,89.6 		"/>
		
			<linearGradient id="SVGID_25_" gradientUnits="userSpaceOnUse" x1="264.7002" y1="-324.3027" x2="264.7002" y2="-323.0913" gradientTransform="matrix(1 0 0 -1 -256 -245)">
			<stop  offset="0" style="stop-color:#3D4F5A"/>
			<stop  offset="1" style="stop-color:#607A88"/>
		</linearGradient>
		<polygon class="st25" points="9.2,78.7 8.2,79.3 8.2,78.1 		"/>
		
			<linearGradient id="SVGID_26_" gradientUnits="userSpaceOnUse" x1="264.7002" y1="-326.1304" x2="264.7002" y2="-324.9203" gradientTransform="matrix(1 0 0 -1 -256 -245)">
			<stop  offset="0" style="stop-color:#3D4F5A"/>
			<stop  offset="1" style="stop-color:#607A88"/>
		</linearGradient>
		<polygon class="st26" points="9.2,80.5 8.2,81.1 8.2,79.9 		"/>
		
			<linearGradient id="SVGID_27_" gradientUnits="userSpaceOnUse" x1="264.7002" y1="-327.9609" x2="264.7002" y2="-326.75" gradientTransform="matrix(1 0 0 -1 -256 -245)">
			<stop  offset="0" style="stop-color:#3D4F5A"/>
			<stop  offset="1" style="stop-color:#607A88"/>
		</linearGradient>
		<polygon class="st27" points="9.2,82.3 8.2,83 8.2,81.8 		"/>
		
			<linearGradient id="SVGID_28_" gradientUnits="userSpaceOnUse" x1="264.7002" y1="-329.7891" x2="264.7002" y2="-328.5776" gradientTransform="matrix(1 0 0 -1 -256 -245)">
			<stop  offset="0" style="stop-color:#3D4F5A"/>
			<stop  offset="1" style="stop-color:#607A88"/>
		</linearGradient>
		<polygon class="st28" points="9.2,84.2 8.2,84.8 8.2,83.6 		"/>
		
			<linearGradient id="SVGID_29_" gradientUnits="userSpaceOnUse" x1="264.7002" y1="-331.6187" x2="264.7002" y2="-330.4088" gradientTransform="matrix(1 0 0 -1 -256 -245)">
			<stop  offset="0" style="stop-color:#3D4F5A"/>
			<stop  offset="1" style="stop-color:#607A88"/>
		</linearGradient>
		<polygon class="st29" points="9.2,86 8.2,86.6 8.2,85.4 		"/>
		
			<linearGradient id="SVGID_30_" gradientUnits="userSpaceOnUse" x1="264.7002" y1="-333.4478" x2="264.7002" y2="-332.2363" gradientTransform="matrix(1 0 0 -1 -256 -245)">
			<stop  offset="0" style="stop-color:#3D4F5A"/>
			<stop  offset="1" style="stop-color:#607A88"/>
		</linearGradient>
		<polygon class="st30" points="9.2,87.8 8.2,88.4 8.2,87.2 		"/>
		
			<linearGradient id="SVGID_31_" gradientUnits="userSpaceOnUse" x1="264.7002" y1="-335.2773" x2="264.7002" y2="-334.0659" gradientTransform="matrix(1 0 0 -1 -256 -245)">
			<stop  offset="0" style="stop-color:#3D4F5A"/>
			<stop  offset="1" style="stop-color:#607A88"/>
		</linearGradient>
		<polygon class="st31" points="9.2,89.7 8.2,90.3 8.2,89.1 		"/>
		<g>
			
				<linearGradient id="SVGID_32_" gradientUnits="userSpaceOnUse" x1="275.7197" y1="-342.2793" x2="282.207" y2="-342.2793" gradientTransform="matrix(1 0.589 0 -1 -256 -433.8607)">
				<stop  offset="0" style="stop-color:#3D4F5A"/>
				<stop  offset="1" style="stop-color:#607A88"/>
			</linearGradient>
			<path class="st32" d="M26.2,74.7c0,1.8-1.5,2.4-3.2,1.3c-1.8-1.1-3.2-3.4-3.2-5.2s1.5-2.4,3.2-1.3C24.8,70.6,26.2,72.9,26.2,74.7
				z"/>
			
				<radialGradient id="SVGID_33_" cx="279.1377" cy="-342.3857" r="2.875" gradientTransform="matrix(1 0.589 0 -1 -256 -433.8607)" gradientUnits="userSpaceOnUse">
				<stop  offset="0" style="stop-color:#B7CAD5"/>
				<stop  offset="1" style="stop-color:#98B2BF"/>
			</radialGradient>
			<path class="st33" d="M26,74.6c0,1.6-1.3,2.1-2.9,1.2c-1.6-0.9-2.9-3-2.9-4.6c0-1.6,1.3-2.1,2.9-1.2C24.7,71,26,73,26,74.6z"/>
		</g>
		<g>
			
				<linearGradient id="SVGID_34_" gradientUnits="userSpaceOnUse" x1="277.9844" y1="-347.6885" x2="279.9414" y2="-347.6885" gradientTransform="matrix(1 0.589 0 -1 -256 -433.8607)">
				<stop  offset="0" style="stop-color:#3D4F5A"/>
				<stop  offset="1" style="stop-color:#607A88"/>
			</linearGradient>
			<path class="st34" d="M23.9,78.7c0,0.5-0.4,0.7-1,0.4c-0.6-0.3-1-1-1-1.6c0-0.5,0.4-0.7,1-0.4C23.5,77.4,23.9,78.1,23.9,78.7z"/>
			
				<radialGradient id="SVGID_35_" cx="279.0166" cy="-347.6636" r="0.8665" gradientTransform="matrix(1 0.589 0 -1 -256 -433.8607)" gradientUnits="userSpaceOnUse">
				<stop  offset="0" style="stop-color:#B7CAD5"/>
				<stop  offset="1" style="stop-color:#98B2BF"/>
			</radialGradient>
			<path class="st35" d="M23.9,78.7c0,0.5-0.4,0.6-0.9,0.4c-0.5-0.3-0.9-0.9-0.9-1.4s0.4-0.6,0.9-0.4C23.5,77.6,23.9,78.2,23.9,78.7
				z"/>
		</g>
	</g>
	<g>
		
			<linearGradient id="SVGID_36_" gradientUnits="userSpaceOnUse" x1="295.7197" y1="-325.019" x2="324.4186" y2="-341.924" gradientTransform="matrix(1 0 0 -1 -256 -245)">
			<stop  offset="0" style="stop-color:#607A88"/>
			<stop  offset="1" style="stop-color:#3D4F5A"/>
		</linearGradient>
		<path class="st36" d="M67.6,95.7c0-7.1-5.8-16.3-12.9-20.5c-3.7-2.2-7-2.6-9.3-1.5l0,0l-0.2,0.1c-0.1,0.1-0.2,0.1-0.3,0.2
			l-2.4,1.3l0.2,0.7h0.2c-0.3,0.6-0.6,1.2-0.8,2l-1.4,1.2L40,82.7l1.1,5.4l4.1,7.1l4.6,4.4l5.9,3.4l3.7,0.7l1-0.7c0.3,0,0.6,0,0.8,0
			l0,0l0.6,0.7l2.8-1.5l0,0C66.4,101.1,67.6,98.9,67.6,95.7z M63.3,100.4c-2.1,1.3-5.2,1-8.7-1c-6.1-3.7-11.2-11.7-11.2-17.9
			c0-2.8,1-4.7,2.7-5.7h2.4l4.3,1.8l3.6,2.9l3.9,5l2.5,4.7l0.8,3.9l0.3,4L63.3,100.4z"/>
		
			<linearGradient id="SVGID_37_" gradientUnits="userSpaceOnUse" x1="302.9775" y1="-329.854" x2="314.7838" y2="-336.8083" gradientTransform="matrix(1 0 0 -1 -256 -245)">
			<stop  offset="0" style="stop-color:#607A88"/>
			<stop  offset="1" style="stop-color:#3D4F5A"/>
		</linearGradient>
		<path class="st37" d="M54.7,80.6L54.7,80.6c-1.3-0.7-2.3-1-3-0.6c0,0-0.1,0-0.1,0.1l0,0l-2.5,1.4L49,82l1.5,0.1
			c0,0.4,0.3,0.7,0.6,1L50,83.2l-0.5,1.3l0.4,0.5l2.5-1.4l0,0c0,0,0.1,0,0.1-0.1s0.1-0.2,0.1-0.4l1,0.9l1.3,1.7l0.3,1.2
			c-0.6,0.2-1.1,0.5-1.3,0.8c-0.2,0.4-0.3,0.9-0.3,1.7c0,0.1,0,0.2,0,0.5l-0.9,0.8l0.3,1.5l-2.2,1.2l2.7,4.1l2.4-1.3l0,0l0.1-0.1
			h0.1l0,0c0.2-0.2,0.3-0.5,0.3-0.9c0-0.5-0.2-1.1-0.5-1.6c-0.3-0.5-0.8-1-1.3-1.3c-0.1-0.1-0.3-0.1-0.4-0.2l1.4-0.8
			c0-0.7,0-1.1,0.1-1.3l1.9-1.1c0.1,0,0.2-0.1,0.3-0.1l0.1-0.1l0,0c0.2-0.1,0.4-0.2,0.5-0.4c0.3-0.3,0.4-0.8,0.4-1.4
			c0-1-0.4-2.2-1.2-3.4C57,82.4,56,81.4,54.7,80.6z"/>
	</g>
	<g>
		
			<linearGradient id="SVGID_38_" gradientUnits="userSpaceOnUse" x1="303.8389" y1="-530.29" x2="312.4282" y2="-530.29" gradientTransform="matrix(1 0.589 0 -1 -256 -622.0609)">
			<stop  offset="0" style="stop-color:#F6F8F9"/>
			<stop  offset="1" style="stop-color:#9EB6C3"/>
		</linearGradient>
		<path class="st38" d="M52.1,93.7c-0.5-0.3-1-0.4-1.3-0.2c-0.3,0.1-0.5,0.5-0.5,1s0.2,1,0.5,1.6c0.3,0.5,0.8,1,1.3,1.3
			c0.5,0.3,1,0.4,1.3,0.2c0.3-0.1,0.5-0.5,0.5-1s-0.2-1.1-0.5-1.6C53.1,94.4,52.6,94,52.1,93.7z M52.1,82c-1.3-0.7-2.3-0.9-3-0.6
			c-0.8,0.3-1.2,1.1-1.2,2.1s2,2,2.1,1.5s0.4-1.1,0.8-1.2c0.4-0.1,0.9,0,1.5,0.3c0.6,0.4,1.1,0.8,1.4,1.4c0.4,0.6,0.5,1.1,0.5,1.6
			c0,0.4-0.1,0.6-0.3,0.8c-0.1,0.1-0.5,0.3-1.2,0.5c-0.7,0.2-1.1,0.5-1.3,0.9c-0.2,0.4-0.3,0.9-0.3,1.7c0,0.1,0,0.3,0,0.6l2.1,1.2
			c0-0.7,0-1.2,0.2-1.4c0.1-0.2,0.4-0.4,0.9-0.6c0.9-0.3,1.5-0.7,1.8-1c0.3-0.3,0.4-0.8,0.4-1.4c0-1-0.4-2.2-1.2-3.4
			S53.4,82.8,52.1,82L52.1,82z"/>
		
			<linearGradient id="SVGID_39_" gradientUnits="userSpaceOnUse" x1="295.25" y1="-530.0898" x2="321.0137" y2="-530.0898" gradientTransform="matrix(1 0.589 0 -1 -256 -622.0609)">
			<stop  offset="0" style="stop-color:#F6F8F9"/>
			<stop  offset="1" style="stop-color:#9EB6C3"/>
		</linearGradient>
		<path class="st39" d="M52.1,76.6c-7.1-4.1-12.9-1.8-12.9,5.3c0,7.1,5.8,16.3,12.9,20.5c7.1,4.2,12.9,1.8,12.9-5.3
			C65,90,59.2,80.8,52.1,76.6z M52.1,100.8c-6.2-3.7-11.2-11.7-11.2-17.9c0-6.2,5.1-8.3,11.3-4.6S63.5,90,63.5,96.2
			C63.4,102.3,58.3,104.4,52.1,100.8z"/>
	</g>
</g>
</svg>
