<?xml version="1.0" encoding="utf-8"?>
<!-- Generator: Adobe Illustrator 16.0.0, SVG Export Plug-In . SVG Version: 6.00 Build 0)  -->
<!DOCTYPE svg PUBLIC "-//W3C//DTD SVG 1.1//EN" "http://www.w3.org/Graphics/SVG/1.1/DTD/svg11.dtd">
<svg version="1.1" id="图层_1" xmlns="http://www.w3.org/2000/svg" xmlns:xlink="http://www.w3.org/1999/xlink" x="0px" y="0px"
	 width="100px" height="100px" viewBox="0 0 100 100" style="enable-background:new 0 0 100 100;" xml:space="preserve">
<style type="text/css">
<![CDATA[
	.st0{fill:#4E646D;}
	.st1{fill:url(#SVGID_1_);}
	.st2{fill:url(#SVGID_2_);}
	.st3{fill:url(#SVGID_3_);}
	.st4{fill:url(#SVGID_4_);}
	.st5{fill:#FFFFFF;}
]]>
</style>
<g>
	
		<linearGradient id="SVGID_1_" gradientUnits="userSpaceOnUse" x1="512.0703" y1="759.6533" x2="612" y2="759.6533" gradientTransform="matrix(1 0 0 1 -512 -690)">
		<stop  offset="0" style="stop-color:#3D4F5A"/>
		<stop  offset="0.5" style="stop-color:#607A88"/>
		<stop  offset="1" style="stop-color:#3D4F5A"/>
	</linearGradient>
	<path class="st1" d="M100,46.2v17.5c0,1.4-0.9,2.8-2.7,3.8L56.4,91.6c-3.6,2.1-9.3,2.1-12.9,0L2.7,67.5c-2-1.2-2.8-2.7-2.6-4.3
		V46.7c0.2,1.2,1.1,2.4,2.6,3.3l40.9,24.2c3.6,2.1,9.3,2.1,12.9,0L97.4,50C99.1,48.9,100,47.6,100,46.2z"/>
	
		<linearGradient id="SVGID_2_" gradientUnits="userSpaceOnUse" x1="512" y1="736.166" x2="612" y2="736.166" gradientTransform="matrix(1 0 0 1 -512 -690)">
		<stop  offset="0" style="stop-color:#86A2B1"/>
		<stop  offset="0.5" style="stop-color:#A9BFCB"/>
		<stop  offset="1" style="stop-color:#86A2B1"/>
	</linearGradient>
	<path class="st2" d="M97.3,42.4c3.6,2.1,3.6,5.5,0,7.6L56.5,74.2c-3.6,2.1-9.3,2.1-12.9,0L2.7,50c-3.6-2.1-3.6-5.5,0-7.6l40.9-24.2
		c3.6-2.1,9.3-2.1,12.9,0L97.3,42.4z"/>
	
		<linearGradient id="SVGID_3_" gradientUnits="userSpaceOnUse" x1="519.5" y1="749.6914" x2="604.3994" y2="749.6914" gradientTransform="matrix(1 0 0 1 -512 -690)">
		<stop  offset="0" style="stop-color:#3D4F5A"/>
		<stop  offset="0.5" style="stop-color:#607A88"/>
		<stop  offset="1" style="stop-color:#3D4F5A"/>
	</linearGradient>
	<path class="st3" d="M92.4,46.2v2c0,1.2-0.8,2.3-2.3,3.2L55.5,71.9c-3,1.8-7.9,1.8-11,0L9.8,51.4c-0.8-0.4-1.3-1-1.7-1.5
		c-0.4-0.6-0.6-1.1-0.6-1.7v-2l0,0c0,1.2,0.8,2.3,2.3,3.2l34.7,20.5c3,1.8,7.9,1.8,11,0l34.7-20.5C91.7,48.5,92.4,47.3,92.4,46.2
		L92.4,46.2z"/>
	
		<radialGradient id="SVGID_4_" cx="562" cy="736.166" r="34.8895" gradientTransform="matrix(1 0 0 1 -512 -690)" gradientUnits="userSpaceOnUse">
		<stop  offset="0" style="stop-color:#C4D3DB"/>
		<stop  offset="1" style="stop-color:#7B9AA9"/>
	</radialGradient>
	<path class="st4" d="M90.2,42.9c3,1.8,3,4.7,0,6.5L55.5,70c-3,1.8-7.9,1.8-11,0L9.8,49.4c-3-1.8-3-4.7,0-6.5l34.7-20.5
		c3-1.8,7.9-1.8,11,0L90.2,42.9z"/>
	<g>
		<path class="st0" d="M52.9,53.8c-0.7-0.4-1.8-0.7-2.8-0.7s-2.1,0.3-2.8,0.7c0,0-0.1,0-0.1,0.1H46v1.6c0,0.6,0.4,1.2,1.2,1.7
			c0.7,0.4,1.8,0.7,2.8,0.7s2.1-0.3,2.8-0.7c0.7-0.4,1.2-1,1.2-1.7v-1.6h-1.1C52.9,53.8,52.9,53.8,52.9,53.8z"/>
		<path class="st0" d="M77.7,46.3C76.3,38,64.5,31.5,50,31.5s-26.4,6.6-27.6,15h-0.1v1.6l0,0C22.5,57,34.9,64.2,50,64.2
			c15.2,0,27.5-7.2,27.7-16.1l0,0V46.3L77.7,46.3z M50,62.1c-13.4,0-24.3-6.4-24.3-14.3c0-7.9,10.9-14.3,24.3-14.3
			s24.3,6.4,24.3,14.3C74.3,55.7,63.4,62.1,50,62.1z"/>
		<path class="st0" d="M59.3,41.5h-0.5c-0.4-0.6-1.1-1.2-2-1.7c-1.7-1-3.9-1.5-6.8-1.5l0,0c-2.7,0-4.9,0.5-6.5,1.5
			c-0.9,0.5-1.5,1.1-2,1.7h-0.3L40.8,42v1.3l0,0c-0.1,1.2,4.4,1,4.5,0.4c0.2-0.6,0.9-1.7,1.7-2.2c0.8-0.5,1.9-0.7,3.2-0.7
			c1.3,0,2.3,0.2,3.1,0.7s1.2,1,1.2,1.6c0,0.5-0.2,0.9-0.7,1.3c-0.3,0.2-1.1,0.7-2.6,1.5c-1.4,0.8-2.4,1.5-2.9,2.1
			c-0.5,0.6-0.7,1.4-0.7,2.4c0,0.1,0,0.4,0,0.8h4.5c0-0.9,0.1-1.5,0.3-1.9c0.3-0.4,0.9-0.8,1.9-1.4c2-1.1,3.3-2,3.9-2.6
			c0.6-0.6,0.9-1.3,0.9-2.1v-0.1v-1.6H59.3z"/>
	</g>
	<g>
		<path class="st5" d="M50,51.5c-1,0-2.1,0.3-2.8,0.7c-0.7,0.4-1.2,1-1.2,1.7c0,0.7,0.4,1.2,1.2,1.7c0.7,0.4,1.8,0.7,2.8,0.7
			s2.1-0.3,2.8-0.7s1.2-1,1.2-1.7c0-0.7-0.4-1.2-1.2-1.7C52.1,51.7,51.1,51.5,50,51.5z M50,36.7c-2.7,0-4.9,0.5-6.5,1.5
			c-1.6,1-2.7,2.2-2.7,3.5c-0.1,1.2,4.4,1,4.5,0.4c0.2-0.6,0.9-1.7,1.7-2.2c0.8-0.5,1.9-0.7,3.2-0.7c1.3,0,2.3,0.2,3.1,0.7
			s1.2,1,1.2,1.6c0,0.5-0.2,0.9-0.7,1.3c-0.3,0.2-1.1,0.8-2.6,1.5c-1.4,0.8-2.4,1.5-2.9,2.1c-0.5,0.6-0.7,1.4-0.7,2.4
			c0,0.1,0,0.4,0,0.8h4.5c0-0.9,0.1-1.5,0.3-1.9c0.3-0.3,0.9-0.8,1.9-1.4c2-1.1,3.3-2,3.9-2.6c0.6-0.6,0.9-1.3,0.9-2.1
			c0-1.3-0.8-2.4-2.5-3.4C55.1,37.2,52.8,36.7,50,36.7L50,36.7z"/>
		<path class="st5" d="M50,29.9c-15.3,0-27.7,7.3-27.7,16.3c0,9,12.4,16.3,27.7,16.3c15.3,0,27.7-7.3,27.7-16.3
			C77.8,37.2,65.3,29.9,50,29.9z M50,60.5c-13.4,0-24.3-6.4-24.3-14.3S36.6,31.9,50,31.9s24.3,6.4,24.3,14.3S63.4,60.5,50,60.5z"/>
	</g>
</g>
</svg>
