<?xml version="1.0" encoding="utf-8"?>
<!-- Generator: Adobe Illustrator 18.1.0, SVG Export Plug-In . SVG Version: 6.00 Build 0)  -->
<svg version="1.1" id="图层_1" xmlns="http://www.w3.org/2000/svg" xmlns:xlink="http://www.w3.org/1999/xlink" x="0px" y="0px"
	 width="40px" height="40px" viewBox="-12 -12 40 40" style="enable-background:new -12 -12 40 40;" xml:space="preserve">
<style type="text/css">
	.st0{fill:#03858E;}
	.st1{opacity:0.35;}
	.st2{opacity:0.24;fill:#FFFFFF;}
	.st3{fill:#FFFFFF;}
</style>
<g>
	<g>
		<path class="st0" d="M28,21.8c0,3.5-2.7,6.2-6.2,6.2H-5.7c-3.5,0-6.3-2.8-6.3-6.2V-5.7c0-3.5,2.9-6.3,6.3-6.3h27.5
			c3.5,0,6.2,2.8,6.2,6.3V21.8z"/>
	</g>
</g>
<g>
	<path class="st1" d="M28-5.8v27.5c0,3.4-2.8,6.3-6.3,6.3H-5.8c-2,0-3.7-0.9-4.9-2.3c1.1,0.9,2.4,1.4,3.9,1.4h27.5
		c3.4,0,6.3-2.8,6.3-6.3V-6.7c0-1.5-0.5-2.8-1.4-3.9C27.1-9.5,28-7.7,28-5.8z"/>
	<path class="st2" d="M26.6-9.7c-1.1-0.9-2.4-1.4-3.9-1.4H-4.8c-3.4,0-6.3,2.8-6.3,6.3v27.5c0,1.5,0.5,2.8,1.4,3.9
		c-1.4-1.1-2.3-2.9-2.3-4.9V-5.8c0-3.4,2.8-6.3,6.3-6.3h27.5C23.7-12,25.5-11.1,26.6-9.7z"/>
</g>
<g>
	<path class="st3" d="M-1.5,4h-2.2C-4.5,4-5,4.5-5,4.5l-5,6.8h2l1.5-2h2.8l-0.3,2h1.8c0,0,1.3-5.5,1.5-6.5S-1.5,4-1.5,4z M-3.3,8
		h-2.5l2-2.8h1.3L-3.3,8z"/>
	<path class="st3" d="M4.3,6H0.5C-0.8,6-1,7-1,7l-1,6c1.5,0,1.5-0.8,1.5-0.8l0.2-0.8c0,0,2.3,0,3.3,0s1.3-1.3,1.3-1.3s0.3-1.7,0.5-3
		S4.3,6,4.3,6z M2.8,10.8H0l0.8-4h2.7L2.8,10.8z"/>
	<path class="st3" d="M9.5,7.2L9,10.8H6.3C6.3,10.8,6.5,9,7,7S5.8,5.3,5.8,5.3S5.5,7.8,5,9.5c-0.3,1.7,0.5,1.7,0.5,1.7s1.7,0,3.5,0
		c1.3,0,1.5-1.3,1.5-1.3l0.8-4.5C9.8,5.5,9.5,7.2,9.5,7.2z"/>
	<path class="st3" d="M13.3,8c-0.3-0.8,0.3-1.3,0.3-1.3s2.5,0,3.3,0C17.5,6.8,18,6,18,6h-5c-2,0.8-1.5,3.3-1.5,3.3h3.8
		c0.3,0.8-0.3,1.3-0.3,1.3s-3,0-3.5,0s-1,0.8-1,0.8H16c0.8,0,1-3.3,1-3.3H13.3z"/>
	<path class="st3" d="M18.3,6l-1,5.2c1.5,0,1.8-1,1.8-1L19.8,6C19.5,6,18.3,6,18.3,6z"/>
	<polygon class="st3" points="20.3,4 18.5,4 18.3,5.3 19.8,5.3 	"/>
	<path class="st3" d="M20.8,5.5c-1.3,2.8-1.3,5.8-1.3,5.8H25l-0.8-0.8h-3c-0.3-0.8,0.5-4,0.5-4s2.8,0,3.5,0c0.7,0,0.5-1,0.5-1H20.8z
		"/>
</g>
</svg>
