<?xml version="1.0" encoding="utf-8"?>
<!-- Generator: Adobe Illustrator 18.1.0, SVG Export Plug-In . SVG Version: 6.00 Build 0)  -->
<svg version="1.1" id="图层_1" xmlns="http://www.w3.org/2000/svg" xmlns:xlink="http://www.w3.org/1999/xlink" x="0px" y="0px"
	 width="40px" height="40px" viewBox="-12 -12 40 40" style="enable-background:new -12 -12 40 40;" xml:space="preserve">
<style type="text/css">
	.st0{fill:#DA60BE;}
	.st1{fill:#FFFFFF;}
	.st2{opacity:0.35;}
	.st3{opacity:0.24;fill:#FFFFFF;}
</style>
<g>
	<path class="st0" d="M28,21.8c0,3.5-2.8,6.3-6.3,6.3H-5.8c-3.5,0-6.3-2.8-6.3-6.3V-5.8c0-3.5,2.8-6.3,6.3-6.3h27.5
		c3.5,0,6.3,2.8,6.3,6.3V21.8z"/>
	<g>
		<path class="st1" d="M11.7,16.2c-1-0.9-1-2.4-0.1-3.3c0,0,4.3-5.1,5.3-5.1V5H8.6C7.8,5,7,3.5,7,2.7V-5h-8.1C-1.9-5-3-5.3-3-4.5
			v23.3c0,0.8,1.1,2.2,1.9,2.2H15v-4.4c-1,0.2-0.9,0.3-1.3,0.3C13,16.9,12.2,16.7,11.7,16.2z M10,18H0v-2h10V18z M10,14H0v-2h10V14z
			 M10,10H0V8h10V10z"/>
		<path class="st1" d="M8,2.3v-7.2L17.2,4H9.1C8.3,4,8,3.1,8,2.3z"/>
		<path class="st1" d="M21.4,15.4c-0.3,0.3-0.6,0.4-1,0.4s-0.5-0.1-0.8-0.4L19,14.7v5.8c0,0.8-0.9,1.4-1.7,1.4c-0.2,0-0.5,0-0.7-0.1
			c-0.3-0.1-0.3-0.3-0.5-0.5c-0.2-0.2-0.1-0.5-0.1-0.8v-0.2v-4.5V15v-0.4L15.4,15l-0.4,0.3l-0.2,0.1c-0.3,0.3-0.7,0.4-1,0.4
			s-0.7-0.1-1-0.4c-0.5-0.5-0.6-1.4,0-2l2.3-2.3l2-2l2,2l2.3,2.3C22,14,22,14.9,21.4,15.4z"/>
	</g>
</g>
<g>
	<path class="st2" d="M28-5.8v27.5c0,3.4-2.8,6.3-6.3,6.3H-5.8c-2,0-3.7-0.9-4.9-2.3c1.1,0.9,2.4,1.4,3.9,1.4h27.5
		c3.4,0,6.3-2.8,6.3-6.3V-6.7c0-1.5-0.5-2.8-1.4-3.9C27.1-9.5,28-7.7,28-5.8z"/>
	<path class="st3" d="M26.6-9.7c-1.1-0.9-2.4-1.4-3.9-1.4H-4.8c-3.4,0-6.3,2.8-6.3,6.3v27.5c0,1.5,0.5,2.8,1.4,3.9
		c-1.4-1.1-2.3-2.9-2.3-4.9V-5.8c0-3.4,2.8-6.3,6.3-6.3h27.5C23.7-12,25.5-11.1,26.6-9.7z"/>
</g>
</svg>
