<?xml version="1.0" encoding="utf-8"?>
<!-- Generator: Adobe Illustrator 18.1.0, SVG Export Plug-In . SVG Version: 6.00 Build 0)  -->
<svg version="1.1" id="图层_1" xmlns="http://www.w3.org/2000/svg" xmlns:xlink="http://www.w3.org/1999/xlink" x="0px" y="0px"
	 width="40px" height="40px" viewBox="-12 -12 40 40" style="enable-background:new -12 -12 40 40;" xml:space="preserve">
<style type="text/css">
	.st0{fill:#7C76CE;}
	.st1{fill:#FFFFFF;}
	.st2{opacity:0.35;}
	.st3{opacity:0.24;fill:#FFFFFF;}
</style>
<g>
	<path class="st0" d="M28,21.8c0,3.5-2.8,6.3-6.3,6.3H-5.8c-3.5,0-6.3-2.8-6.3-6.3V-5.8c0-3.5,2.8-6.3,6.3-6.3h27.5
		c3.5,0,6.3,2.8,6.3,6.3V21.8z"/>
	<g>
		<g>
			<path class="st1" d="M-5.3,2.3c-0.1,0.6-0.3,1.1-0.6,1.5c-0.3,0.4-0.8,0.5-1.3,0.5c-0.6,0-1.1-0.2-1.4-0.7
				C-9,3.1-9.1,2.5-9.1,1.7c0-0.9,0.2-1.6,0.5-2.1s0.8-0.7,1.5-0.7c0.5,0,1,0.2,1.3,0.5c0.3,0.3,0.5,0.8,0.6,1.5h-1.1
				c0-0.3-0.1-0.5-0.2-0.6C-6.8,0.1-6.9,0-7.1,0c-0.3,0-0.5,0.1-0.6,0.4C-7.9,0.7-8,1-8,1.5c0,0.6,0.1,1,0.2,1.3
				C-7.7,3-7.4,3.2-7.1,3.2c0.2,0,0.4-0.1,0.5-0.2c0.1-0.2,0.2-0.4,0.2-0.7H-5.3z"/>
			<path class="st1" d="M-3.7,3.5c-0.4-0.5-0.6-1.1-0.6-2c0-0.8,0.2-1.5,0.6-2s0.9-0.7,1.6-0.7c0.7,0,1.2,0.2,1.6,0.7S0,0.8,0,1.6
				c0,0.8-0.2,1.5-0.6,2C-1,4-1.5,4.3-2.1,4.3C-2.8,4.3-3.3,4-3.7,3.5z M-1.4,2.7c0.2-0.3,0.3-0.7,0.3-1.2c0-0.5-0.1-0.9-0.3-1.2
				C-1.6,0.2-1.8,0-2.1,0c-0.3,0-0.6,0.1-0.7,0.4c-0.2,0.3-0.3,0.7-0.3,1.2c0,0.5,0.1,0.9,0.3,1.2C-2.7,3-2.5,3.1-2.1,3.1
				C-1.8,3.1-1.6,3-1.4,2.7z"/>
			<path class="st1" d="M1.2-1h0.5h0.5v0.8c0.1-0.1,0.1-0.3,0.2-0.4c0.3-0.4,0.6-0.6,1-0.6c0.4,0,0.7,0.1,0.9,0.4
				c0.1,0.1,0.2,0.3,0.2,0.4l0.1-0.2c0.2-0.4,0.6-0.6,1-0.6c0.4,0,0.8,0.1,1,0.4C7.1-0.4,7.2,0,7.2,0.5v3.6H6.7H6.1V0.8
				c0-0.3-0.1-0.5-0.2-0.6C5.9,0.1,5.7,0,5.5,0C5.3,0,5.1,0.1,5,0.3C4.8,0.5,4.8,0.7,4.8,1.1v3H4.2H3.7V0.9c0-0.3-0.1-0.5-0.2-0.7
				C3.4,0.1,3.2,0,3,0C2.8,0,2.6,0.1,2.5,0.3C2.4,0.5,2.3,0.7,2.3,1.1v3H1.8H1.2V-1z"/>
			<path class="st1" d="M8.7-1h0.5h0.5v0.8c0.1-0.1,0.1-0.3,0.2-0.4c0.3-0.4,0.6-0.6,1-0.6c0.4,0,0.7,0.1,0.9,0.4
				c0.1,0.1,0.2,0.3,0.2,0.4l0.1-0.2c0.2-0.4,0.6-0.6,1-0.6c0.4,0,0.8,0.1,1,0.4c0.3,0.3,0.4,0.7,0.4,1.2v3.6h-0.5h-0.6V0.8
				c0-0.3-0.1-0.5-0.2-0.6C13.3,0.1,13.2,0,13,0c-0.2,0-0.4,0.1-0.6,0.3c-0.1,0.2-0.2,0.4-0.2,0.8v3h-0.5h-0.6V0.9
				c0-0.3-0.1-0.5-0.2-0.7C10.9,0.1,10.7,0,10.5,0c-0.2,0-0.4,0.1-0.5,0.3C9.9,0.5,9.8,0.7,9.8,1.1v3H9.3H8.7V-1z"/>
			<path class="st1" d="M16.5,3.5c-0.4-0.5-0.6-1.1-0.6-2c0-0.8,0.2-1.5,0.6-2s0.9-0.7,1.6-0.7c0.7,0,1.2,0.2,1.6,0.7
				c0.4,0.5,0.6,1.1,0.6,2c0,0.8-0.2,1.5-0.6,2c-0.4,0.5-0.9,0.7-1.6,0.7C17.4,4.3,16.9,4,16.5,3.5z M18.8,2.7
				c0.2-0.3,0.3-0.7,0.3-1.2c0-0.5-0.1-0.9-0.3-1.2C18.7,0.2,18.4,0,18.1,0s-0.6,0.1-0.7,0.4c-0.2,0.3-0.3,0.7-0.3,1.2
				c0,0.5,0.1,0.9,0.3,1.2c0.2,0.3,0.4,0.4,0.7,0.4S18.7,3,18.8,2.7z"/>
			<path class="st1" d="M21.5-1H22h0.5v0.8l0.1-0.2c0.3-0.4,0.7-0.7,1.1-0.7c0.4,0,0.8,0.2,1.1,0.5c0.3,0.3,0.4,0.7,0.4,1.2v3.6
				h-0.5h-0.6V1c0-0.3-0.1-0.5-0.2-0.7C23.8,0.1,23.7,0,23.4,0c-0.3,0-0.5,0.1-0.7,0.3c-0.2,0.2-0.2,0.6-0.2,1v2.8H22h-0.6V-1z"/>
		</g>
		<g>
			<path class="st1" d="M-2,10.9c0-0.2-0.1-0.4-0.2-0.5c-0.1-0.1-0.3-0.2-0.6-0.2c-0.2,0-0.4,0-0.6,0.1c-0.1,0.1-0.2,0.2-0.2,0.4
				c0,0.1,0.1,0.2,0.2,0.3c0.1,0.1,0.4,0.2,0.7,0.3c0.8,0.2,1.3,0.4,1.6,0.7c0.3,0.3,0.4,0.6,0.4,1.1c0,0.6-0.2,1.1-0.6,1.4
				C-1.6,14.9-2.2,15-2.8,15c-0.7,0-1.2-0.2-1.6-0.5C-4.8,14.2-5,13.7-5,13.1h1.3c0,0.3,0.1,0.5,0.2,0.6c0.2,0.1,0.4,0.2,0.7,0.2
				c0.3,0,0.5-0.1,0.7-0.2c0.1-0.1,0.2-0.3,0.2-0.5c0-0.1-0.1-0.2-0.2-0.3c-0.2-0.1-0.4-0.2-0.9-0.3c-0.7-0.2-1.2-0.4-1.4-0.6
				c-0.3-0.2-0.4-0.6-0.4-1.1c0-0.6,0.2-1.1,0.5-1.4C-4,9.2-3.5,9-2.9,9c0.6,0,1.1,0.2,1.5,0.5c0.3,0.3,0.5,0.8,0.6,1.4H-2z"/>
			<path class="st1" d="M4.8,12.8c-0.1,0.7-0.3,1.2-0.7,1.6C3.7,14.8,3.2,15,2.6,15c-0.7,0-1.2-0.2-1.6-0.7
				c-0.4-0.5-0.6-1.2-0.6-2.1c0-1,0.2-1.8,0.6-2.4C1.4,9.3,2,9,2.7,9c0.6,0,1.1,0.2,1.4,0.5c0.3,0.4,0.6,0.9,0.6,1.6H3.5
				c0-0.3-0.1-0.5-0.3-0.7c-0.1-0.2-0.3-0.3-0.5-0.3c-0.3,0-0.5,0.1-0.7,0.4c-0.2,0.3-0.3,0.7-0.3,1.2c0,0.7,0.1,1.1,0.2,1.4
				c0.1,0.3,0.4,0.4,0.7,0.4c0.2,0,0.4-0.1,0.5-0.3c0.1-0.2,0.2-0.4,0.3-0.7H4.8z"/>
			<path class="st1" d="M6.1,9.2h0.6h0.6v1l0.2-0.3C7.8,9.3,8.1,9,8.6,9c0.1,0,0.2,0,0.3,0v1.5c-0.1,0-0.2,0-0.3,0
				c-0.4,0-0.7,0.1-0.9,0.3c-0.2,0.2-0.3,0.6-0.3,1v2.9H6.7H6.1V9.2z"/>
			<path class="st1" d="M10.1,9.2h0.6h0.6v5.7h-0.6h-0.6V9.2z M10.1,7.1h1.2v1.4h-1.2V7.1z"/>
			<path class="st1" d="M13.1,9.2h0.6h0.6V10l0.1-0.2C14.7,9.3,15.1,9,15.7,9c0.6,0,1,0.3,1.4,0.8c0.3,0.5,0.5,1.3,0.5,2.2
				c0,0.9-0.2,1.6-0.5,2.2c-0.3,0.5-0.8,0.8-1.4,0.8c-0.6,0-1-0.3-1.4-0.8l0-0.1v2.9h-0.6h-0.6V9.2z M15.3,13.8
				c0.3,0,0.6-0.1,0.8-0.4c0.2-0.3,0.3-0.7,0.3-1.3c0-0.6-0.1-1-0.3-1.3c-0.2-0.3-0.4-0.4-0.8-0.4c-0.3,0-0.6,0.1-0.8,0.4
				c-0.2,0.3-0.3,0.7-0.3,1.3c0,0.6,0.1,1,0.3,1.3C14.7,13.7,14.9,13.8,15.3,13.8z"/>
			<path class="st1" d="M21.1,14.9c-0.2,0-0.5,0-0.8,0c-0.4,0-0.7-0.1-0.9-0.3c-0.2-0.2-0.3-0.5-0.3-1v-3.4h-0.6V9.2h0.6V7.7h1.2
				v1.5h0.8v1.1h-0.8v3.1c0,0.2,0,0.3,0.1,0.3c0.1,0.1,0.2,0.1,0.4,0.1h0.3V14.9z"/>
		</g>
	</g>
</g>
<g>
	<path class="st2" d="M28-5.8v27.5c0,3.4-2.8,6.3-6.3,6.3H-5.8c-2,0-3.7-0.9-4.9-2.3c1.1,0.9,2.4,1.4,3.9,1.4h27.5
		c3.4,0,6.3-2.8,6.3-6.3V-6.7c0-1.5-0.5-2.8-1.4-3.9C27.1-9.5,28-7.7,28-5.8z"/>
	<path class="st3" d="M26.6-9.7c-1.1-0.9-2.4-1.4-3.9-1.4H-4.8c-3.4,0-6.3,2.8-6.3,6.3v27.5c0,1.5,0.5,2.8,1.4,3.9
		c-1.4-1.1-2.3-2.9-2.3-4.9V-5.8c0-3.4,2.8-6.3,6.3-6.3h27.5C23.7-12,25.5-11.1,26.6-9.7z"/>
</g>
</svg>
