<?xml version="1.0" encoding="utf-8"?>
<!-- Generator: Adobe Illustrator 18.1.0, SVG Export Plug-In . SVG Version: 6.00 Build 0)  -->
<svg version="1.1" id="图层_1" xmlns="http://www.w3.org/2000/svg" xmlns:xlink="http://www.w3.org/1999/xlink" x="0px" y="0px"
	 width="40px" height="40px" viewBox="-12 -12 40 40" style="enable-background:new -12 -12 40 40;" xml:space="preserve">
<style type="text/css">
	.st0{fill:#1CCCEC;}
	.st1{fill:#FFFFFF;}
	.st2{opacity:0.35;}
	.st3{opacity:0.24;fill:#FFFFFF;}
</style>
<g>
	<path class="st0" d="M28,21.8c0,3.5-2.7,6.3-6.2,6.3H-5.7c-3.5,0-6.3-2.8-6.3-6.3V-5.8c0-3.5,2.9-6.3,6.3-6.3h27.5
		c3.5,0,6.2,2.8,6.2,6.3V21.8z"/>
	<path class="st1" d="M23.7,18.6c0,0.8-0.7,1.5-1.5,1.5v0H-6.1v0c0,0,0,0,0,0c-0.8,0-1.5-0.7-1.5-1.5c0-0.3,0.1-0.6,0.2-0.8l0,0
		L6.8-5.3l0,0c0.3-0.4,0.7-0.7,1.2-0.7c0.5,0,1,0.3,1.3,0.7l0,0l14.2,23.1l0,0C23.7,18.1,23.7,18.3,23.7,18.6z M10,2.4
		c0-1.1-0.9-2-2-2c-1.1,0-2,0.9-2,2v7.4c0,1.1,0.9,2,2,2c1.1,0,2-0.9,2-2V2.4z M8.1,13.2c-1.1,0-2,0.9-2,2c0,1.1,0.9,2,2,2
		c1.1,0,2-0.9,2-2C10,14.1,9.1,13.2,8.1,13.2z"/>
</g>
<g>
	<path class="st2" d="M28-5.8v27.5c0,3.4-2.8,6.3-6.3,6.3H-5.8c-2,0-3.7-0.9-4.9-2.3c1.1,0.9,2.4,1.4,3.9,1.4h27.5
		c3.4,0,6.3-2.8,6.3-6.3V-6.7c0-1.5-0.5-2.8-1.4-3.9C27.1-9.5,28-7.7,28-5.8z"/>
	<path class="st3" d="M26.6-9.7c-1.1-0.9-2.4-1.4-3.9-1.4H-4.8c-3.4,0-6.3,2.8-6.3,6.3v27.5c0,1.5,0.5,2.8,1.4,3.9
		c-1.4-1.1-2.3-2.9-2.3-4.9V-5.8c0-3.4,2.8-6.3,6.3-6.3h27.5C23.7-12,25.5-11.1,26.6-9.7z"/>
</g>
</svg>
