<?xml version="1.0" encoding="utf-8"?>
<!-- Generator: Adobe Illustrator 18.1.0, SVG Export Plug-In . SVG Version: 6.00 Build 0)  -->
<svg version="1.1" id="图层_1" xmlns="http://www.w3.org/2000/svg" xmlns:xlink="http://www.w3.org/1999/xlink" x="0px" y="0px"
	 width="40px" height="40px" viewBox="-12 -12 40 40" style="enable-background:new -12 -12 40 40;" xml:space="preserve">
<style type="text/css">
	.st0{fill:#42C638;}
	.st1{fill:#FFFFFF;}
	.st2{opacity:0.35;}
	.st3{opacity:0.24;fill:#FFFFFF;}
</style>
<g>
	<path class="st0" d="M28,21.8c0,3.5-2.8,6.3-6.3,6.3H-5.8c-3.5,0-6.3-2.8-6.3-6.3V-5.8c0-3.5,2.8-6.3,6.3-6.3h27.5
		c3.5,0,6.3,2.8,6.3,6.3V21.8z"/>
	<path class="st1" d="M13,16v-1.5l-1.1-1.4C11.8,13,12,12.8,12,12.7V9H3v14h10v-5.3l-1-0.8V16H13z M19,2v-4.9L15.5-6H-3v29h5V8
		c0-0.3,0.1-1,0.4-1h10C12.8,7,13,7.6,13,8v4.4l1.6,1.4c0.1,0.1,0.4,0.3,0.4,0.4V23h4V4h-1V2H19z M1-1h-3v-4h3V-1z M3-1H2v-4h1V-1z
		 M5-1H4v-4h1V-1z M8-1H6v-4h2V-1z M10-1H9v-4h1V-1z M13-1h-2v-4h2V-1z M15-1h-1v-4h1V-1z M17,1h-1v-4h1V1z M12,12.7V9H3v14h10v-5.3
		l-1-0.8V16h1v-1.5l-1.1-1.4C11.8,13,12,12.8,12,12.7z M13,16v-1.5l-1.1-1.4C11.8,13,12,12.8,12,12.7V9H3v14h10v-5.3l-1-0.8V16H13z"
		/>
</g>
<g>
	<path class="st2" d="M28-5.8v27.5c0,3.4-2.8,6.3-6.3,6.3H-5.8c-2,0-3.7-0.9-4.9-2.3c1.1,0.9,2.4,1.4,3.9,1.4h27.5
		c3.4,0,6.3-2.8,6.3-6.3V-6.7c0-1.5-0.5-2.8-1.4-3.9C27.1-9.5,28-7.7,28-5.8z"/>
	<path class="st3" d="M26.6-9.7c-1.1-0.9-2.4-1.4-3.9-1.4H-4.8c-3.4,0-6.3,2.8-6.3,6.3v27.5c0,1.5,0.5,2.8,1.4,3.9
		c-1.4-1.1-2.3-2.9-2.3-4.9V-5.8c0-3.4,2.8-6.3,6.3-6.3h27.5C23.7-12,25.5-11.1,26.6-9.7z"/>
</g>
</svg>
