<?xml version="1.0" encoding="utf-8"?>
<!-- Generator: Adobe Illustrator 18.1.0, SVG Export Plug-In . SVG Version: 6.00 Build 0)  -->
<svg version="1.1" id="图层_1" xmlns="http://www.w3.org/2000/svg" xmlns:xlink="http://www.w3.org/1999/xlink" x="0px" y="0px"
	 width="128px" height="128px" viewBox="-56 -56 128 128" style="enable-background:new -56 -56 128 128;" xml:space="preserve">
<style type="text/css">
	.st0{fill:#42C638;}
	.st1{fill:#FFFFFF;}
	.st2{opacity:0.35;}
	.st3{opacity:0.24;fill:#FFFFFF;}
</style>
<g>
	<path class="st0" d="M72,52c0,11-9,20-20,20h-88c-11,0-20-9-20-20v-88c0-11,9-20,20-20h88c11,0,20,9,20,20V52z"/>
	<path class="st1" d="M55-9v-5h-7v-12.8c0-2.8-1.3-5.2-4.1-5.2H30v-7h-5v7h-5v-7h-5v7h-5v-7H5v7H0v-7h-5v7h-5v-7h-5v7h-11.1
		c-2.8,0-5.9,2.4-5.9,5.2V-14h-7v5h7v5h-7v5h7v5h-7v5h7v5h-7v5h7v5h-7v5h7v12.2c0,2.8,3.1,4.8,5.9,4.8H-15v7h5v-7h5v7h5v-7h5v7h5v-7
		h5v7h5v-7h5v7h5v-7h13.9c2.8,0,4.1-2.1,4.1-4.8V31h7v-5h-7v-5h7v-5h-7v-5h7V6h-7V1h7v-5h-7v-5H55z M6-13h1v-18h1v18h1v6H6V-13z
		 M6,23h3v6H8v18H7V29H6V23z M-3-31h1v4.8l6,6v7.2h1v6H2v-6h1v-6.8l-6-6V-31z M-13-31h1v5.8l12,10v2.2h1v6h-3v-6h1v-1.8l-12-10V-31z
		 M-31-12h7l10,12h1v-1h6v3h-6V1h-1.5l-10-12H-31V-12z M-31-2h5.9l6,6h6.1V3h6v3h-6V5h-6.5l-6-6H-31V-2z M-31,8h18V7h6v3h-6V9h-18V8
		z M-31,18h5.5l6-6h6.5v-1h6v3h-6v-1h-6.1l-6,6H-31V18z M-24,29h-7v-1h6.5l10-12h1.5v-1h6v3h-6v-1h-1L-24,29z M-12,41.2V47h-1v-6.2
		l12-10V29h-1v-6h3v6H0v2.2L-12,41.2z M4,29v7.2l-6,6V47h-1v-5.2l6-6V29H2v-6h3v6H4z M27-25.2V-31h1v6.2l-12,10v1.8h1v6h-3v-6h1
		v-2.2L27-25.2z M10-13h1v-7.2l6-6V-31h1v5.2l-6,6v6.8h1v6h-3V-13z M11,36.2V29h-1v-6h3v6h-1v6.8l6,6V47h-1v-4.8L11,36.2z M15,31.2
		V29h-1v-6h3v6h-1v1.8l12,10V47h-1v-5.8L15,31.2z M47,29h-5.5l-10-12H29v1h-6v-3h6v1h3l10,12h5V29z M47,19h-4.5l-6-6H29v1h-6v-3h6v1
		h7.9l6,6H47V19z M47,9H29v1h-6V7h6v1h18V9z M47-1h-4.1l-6,6H29v1h-6V3h6v1h7.5l6-6H47V-1z M47-11h-5L32,1h-3v1h-6v-3h6v1h2.5l10-12
		H47V-11z"/>
</g>
<g>
	<path class="st2" d="M72-36v88c0,11-9,20-20,20h-88c-6.3,0-11.9-2.9-15.5-7.5c3.4,2.8,7.8,4.5,12.5,4.5h88c11,0,20-9,20-20v-88
		c0-4.7-1.7-9.1-4.5-12.5C69.1-47.9,72-42.3,72-36z"/>
	<path class="st3" d="M67.5-48.5C64.1-51.3,59.7-53,55-53h-88c-11,0-20,9-20,20v88c0,4.7,1.7,9.1,4.5,12.5C-53.1,63.9-56,58.3-56,52
		v-88c0-11,9-20,20-20h88C58.3-56,63.9-53.1,67.5-48.5z"/>
</g>
</svg>
