<?xml version="1.0" encoding="utf-8"?>
<!-- Generator: Adobe Illustrator 18.1.0, SVG Export Plug-In . SVG Version: 6.00 Build 0)  -->
<svg version="1.1" id="图层_1" xmlns="http://www.w3.org/2000/svg" xmlns:xlink="http://www.w3.org/1999/xlink" x="0px" y="0px"
	 width="40px" height="40px" viewBox="-12 -12 40 40" style="enable-background:new -12 -12 40 40;" xml:space="preserve">
<style type="text/css">
	.st0{fill:#BD002A;}
	.st1{fill:#FFFFFF;}
	.st2{opacity:0.35;}
	.st3{opacity:0.24;fill:#FFFFFF;}
</style>
<g>
	<g>
		<path class="st0" d="M28,21.8c0,3.5-2.7,6.2-6.2,6.2H-5.7c-3.5,0-6.3-2.8-6.3-6.2V-5.7c0-3.5,2.9-6.3,6.3-6.3h27.5
			c3.5,0,6.2,2.8,6.2,6.3V21.8z"/>
	</g>
	<g>
		<path class="st1" d="M1.5,2.8H0.2v10.4h1.3v2.6h-6v-2.6h1.3V2.8h-1.3V0.2h6V2.8z"/>
		<path class="st1" d="M8.4,2.8H7.1v10.4h1.3v2.6h-6v-2.6h1.3V2.8H2.5V0.2h6V2.8z"/>
		<path class="st1" d="M10,11.9c1.3,1,2.7,1.6,4.3,1.6c0.9,0,1.6-0.2,2-0.5c0.5-0.3,0.7-0.7,0.7-1.2c0-0.4-0.2-0.8-0.5-1.2
			C16,10.2,15.1,9.7,13.5,9c-2.4-1-3.6-2.5-3.6-4.5c0-1.4,0.6-2.6,1.7-3.4C12.7,0.4,14.1,0,15.9,0c1.5,0,2.8,0.2,3.8,0.6v3.1
			c-1-0.7-2.3-1.1-3.7-1.1c-0.8,0-1.5,0.1-2,0.4c-0.5,0.3-0.7,0.7-0.7,1.2c0,0.4,0.2,0.8,0.5,1.1c0.3,0.3,1.2,0.8,2.5,1.4
			c1.5,0.7,2.6,1.4,3.2,2.1c0.6,0.7,0.9,1.6,0.9,2.6c0,1.5-0.5,2.6-1.6,3.4c-1.1,0.8-2.6,1.2-4.5,1.2c-1.8,0-3.2-0.3-4.4-0.9V11.9z"
			/>
	</g>
</g>
<g>
	<path class="st2" d="M28-5.8v27.5c0,3.4-2.8,6.3-6.3,6.3H-5.8c-2,0-3.7-0.9-4.9-2.3c1.1,0.9,2.4,1.4,3.9,1.4h27.5
		c3.4,0,6.3-2.8,6.3-6.3V-6.7c0-1.5-0.5-2.8-1.4-3.9C27.1-9.5,28-7.7,28-5.8z"/>
	<path class="st3" d="M26.6-9.7c-1.1-0.9-2.4-1.4-3.9-1.4H-4.8c-3.4,0-6.3,2.8-6.3,6.3v27.5c0,1.5,0.5,2.8,1.4,3.9
		c-1.4-1.1-2.3-2.9-2.3-4.9V-5.8c0-3.4,2.8-6.3,6.3-6.3h27.5C23.7-12,25.5-11.1,26.6-9.7z"/>
</g>
</svg>
