<?xml version="1.0" encoding="utf-8"?>
<!-- Generator: Adobe Illustrator 18.1.0, SVG Export Plug-In . SVG Version: 6.00 Build 0)  -->
<svg version="1.1" id="图层_1" xmlns="http://www.w3.org/2000/svg" xmlns:xlink="http://www.w3.org/1999/xlink" x="0px" y="0px"
	 width="40px" height="40px" viewBox="-12 -12 40 40" style="enable-background:new -12 -12 40 40;" xml:space="preserve">
<style type="text/css">
	.st0{fill:#0167B2;}
	.st1{fill-rule:evenodd;clip-rule:evenodd;fill:#FFFFFF;}
	.st2{opacity:0.35;}
	.st3{opacity:0.24;fill:#FFFFFF;}
</style>
<g>
	<path class="st0" d="M28,21.8c0,3.5-2.7,6.2-6.2,6.2H-5.7c-3.5,0-6.3-2.8-6.3-6.2V-5.7c0-3.5,2.9-6.3,6.3-6.3h27.5
		c3.5,0,6.2,2.8,6.2,6.3V21.8z"/>
	<g>
		<g>
			<path class="st1" d="M-4.3,17.8c-0.4,0-0.7,0-1,0c-0.1-0.3-0.3-0.5-0.4-0.8c-0.1-0.3-0.3-0.5-0.4-0.8c-0.1-0.3-0.3-0.5-0.4-0.8
				C-6.7,15.3-6.9,15-7,14.8c-0.1-0.2-0.3-0.5-0.4-0.8c0,0,0,0.1,0,0.1c0,0.1,0,0.1,0,0.2c0,1.1,0,2.2,0,3.3c0,0.1,0,0.1,0,0.2
				c0,0-0.1,0-0.1,0c-0.5,0-0.9,0-1.4,0c0,0,0,0,0,0c0,0,0-0.1,0-0.1c0,0,0-0.1,0-0.1c0-1.6,0-3.3,0-4.9c0-0.1,0-0.1,0-0.2
				c0,0,0.1,0,0.1,0c0.7,0,1.5,0,2.2,0c0,0,0,0,0.1,0c0,0,0.1,0.1,0.1,0.2c0.6,1,1.1,2,1.7,3c0,0.1,0.1,0.1,0.1,0.2
				c0.1,0,0.1-0.1,0.1-0.1c0.2-0.3,0.4-0.7,0.6-1c0.4-0.7,0.8-1.4,1.2-2.1c0,0,0.1-0.1,0.1-0.1c0.1,0,2.1,0,2.3,0c0,0,0,0.1,0,0.1
				c0,0,0,0.1,0,0.1c0,1.6,0,3.3,0,4.9c0,0.1,0,0.1,0,0.2c0,0-0.1,0-0.1,0c-0.4,0-0.9,0-1.3,0c0,0,0,0-0.1,0c0-0.1,0-0.1,0-0.2
				c0-0.8,0-1.5,0-2.3c0-0.4,0-0.7,0-1.1c0-0.1,0-0.1,0-0.2c-0.1,0-0.1,0-0.1,0.1c-0.2,0.3-0.4,0.7-0.6,1c-0.5,0.9-1,1.7-1.4,2.6
				C-4.2,17.7-4.3,17.8-4.3,17.8z"/>
			<path class="st1" d="M23.7,12.5c0.2,0,1.3,0,1.5,0c0,0,0,0.1,0,0.1c0,0,0,0.1,0,0.1c0,1.2,0,2.4,0,3.5c0,0.1,0,0.3,0,0.4
				c-0.2,0.7-0.8,1.2-1.5,1.2c-0.5,0-0.9,0-1.4,0c-0.7,0-1.5,0-2.2,0c-0.5,0-1-0.2-1.3-0.7c-0.2-0.3-0.3-0.6-0.3-0.9
				c0-1.2,0-2.4,0-3.6c0-0.1,0-0.1,0-0.1c0,0,0,0,0,0c0,0,0,0,0,0c0.4,0,0.8,0,1.3,0c0.1,0,0.1,0,0.2,0c0,0,0,0,0,0
				c0,0.1,0,0.1,0,0.2c0,0.5,0,1,0,1.4c0,0.5,0,1.1,0,1.6c0,0.1,0,0.2,0,0.3c0.1,0.4,0.4,0.6,0.7,0.6c0,0,0.1,0,0.1,0
				c0.7,0,1.3,0,2,0c0.1,0,0.1,0,0.2,0c0.4-0.1,0.6-0.4,0.6-0.7c0-0.1,0-0.1,0-0.2c0-1,0-1.9,0-2.9C23.7,12.6,23.7,12.5,23.7,12.5z"
				/>
			<path class="st1" d="M0.3,17.8c0-0.1,0-0.1,0-0.1C1.2,16,2.1,14.2,3,12.5c0,0,0,0,0,0c0,0,0,0,0,0c0,0,0.1,0,0.1,0
				c0.6,0,1.2,0,1.8,0c0.1,0,0.1,0.1,0.1,0.2c0.5,1,1.1,2,1.6,3c0.4,0.7,0.7,1.3,1.1,2c0,0.1,0.1,0.1,0.1,0.2c0,0,0,0-0.1,0
				c-1.4,0-2.8,0-4.2,0c0,0,0-0.1,0-0.1C3.8,17.4,4,17,4.2,16.6c0,0,0,0,0-0.1c0.1,0,0.3,0,0.4,0c0.1,0,0.3,0,0.4,0
				c0.1,0,0.3,0,0.4,0c0-0.1,0-0.1,0-0.1c-0.1-0.3-0.3-0.5-0.4-0.8c-0.3-0.6-0.6-1.2-0.9-1.8c0,0-0.1-0.1-0.1-0.1
				c-0.1,0-0.1,0-0.1,0.1c-0.1,0.3-0.3,0.5-0.4,0.8c-0.5,1-1,2-1.5,3c0,0.1-0.1,0.1-0.1,0.2C1.4,17.8,0.8,17.8,0.3,17.8z"/>
			<path class="st1" d="M12.8,16.5c0,0.4,0,0.8,0,1.2c0,0-0.1,0-0.1,0c-0.4,0-0.9,0-1.3,0c0,0,0,0-0.1,0c0-0.1,0-0.1,0-0.2
				c0-0.5,0-1,0-1.6c0-0.2,0-0.4,0-0.6c0-0.1,0-0.1,0-0.2c0.1,0,0.1,0,0.2,0c1.3,0,2.6,0,3.9,0c0.1,0,0.1,0,0.2,0
				c0.4,0,0.6-0.3,0.6-0.6c0-0.1,0-0.2,0-0.3c0-0.4-0.4-0.6-0.7-0.6c-0.1,0-0.1,0-0.2,0c-1.3,0-2.6,0-3.8,0c-0.1,0-0.1,0-0.2,0
				c0,0,0-0.1,0-0.1c0-0.4,0-1,0-1.1c0.1,0,0.1,0,0.2,0c0.8,0,1.6,0,2.4,0c0.7,0,1.5,0,2.2,0c0.5,0,0.9,0.2,1.2,0.5
				c0.3,0.3,0.4,0.7,0.4,1.1c0,0.3,0,0.6,0,0.9c0,0.8-0.6,1.5-1.4,1.6c-0.1,0-0.2,0-0.3,0c-1,0-1.9,0-2.9,0
				C13,16.5,12.9,16.5,12.8,16.5z"/>
			<path class="st1" d="M8.7,12.5c0.2,0,1.3,0,1.5,0c0,0,0,0,0,0c0,1.7,0,3.5,0,5.2c0,0,0,0,0,0c-0.1,0-1.3,0-1.5,0c0,0,0,0,0,0
				C8.7,16,8.7,14.3,8.7,12.5C8.7,12.5,8.7,12.5,8.7,12.5z"/>
			<path class="st1" d="M9.5,9.9c0.5,0,1,0.4,1,1c0,0.6-0.5,1-1,1c-0.5,0-1-0.4-1-1C8.5,10.3,9,9.9,9.5,9.9z"/>
		</g>
		<g>
			<path class="st1" d="M9.6,7.7c0-0.1,0-0.1,0-0.2c0-0.7,0-3.9,0-4.1c0,0,0.1,0,0.1,0c0.1,0,0.1,0,0.2,0c2.8,0,5.7,0,8.5,0
				c0.1,0,0.2,0,0.3,0c0,0.1,0,0.1,0,0.1c0,0,0,0.1,0,0.1c0,0.9,0,1.8,0,2.7c0,0.1,0,0.2,0,0.3c0,0.5-0.4,0.8-0.9,0.9
				c-0.2,0-0.3,0-0.5,0c-0.6,0-1.2,0-1.8,0c-1.9,0-3.8,0-5.7,0C9.7,7.7,9.7,7.7,9.6,7.7z M11.1,5c0.1,0.1,0.2,0,0.3,0
				c1.9,0,3.7,0,5.6,0C16.9,5,17,5,17,5c0,0,0.1,0,0.1,0c0-0.2,0-0.3,0-0.5c-0.1,0-0.2,0-0.3,0c-1.8,0-3.7,0-5.5,0
				c-0.1,0-0.1,0-0.2,0c0,0-0.1,0-0.1,0C11.1,4.7,11,4.8,11.1,5z M17.1,6C17,6,17,6,16.9,6c-1.8,0-3.7,0-5.5,0c-0.1,0-0.1,0-0.2,0
				c0,0-0.1,0-0.1,0c0,0.2,0,0.4,0,0.5c0.1,0,0.1,0,0.2,0c1.8,0,3.6,0,5.4,0c0.1,0,0.1,0,0.2,0c0.1,0,0.2-0.1,0.3-0.3
				C17.2,6.2,17.2,6.1,17.1,6z"/>
			<path class="st1" d="M19.3,1.9c0,0.2,0,0.8,0,1.1c0,0-0.1,0-0.1,0c-0.1,0-0.1,0-0.2,0c-3.3,0-6.5,0-9.8,0c-0.1,0-0.2,0-0.2,0
				c0-0.2,0-0.4,0-0.5c0-0.2,0-0.4,0-0.5c0,0,0.1,0,0.1,0c0.1,0,0.1,0,0.2,0c0.8,0,1.7,0,2.5,0c0.1,0,0.2,0,0.3,0c0-0.1,0-1.6,0-1.8
				c0,0-0.1,0-0.1,0c-0.1,0-0.1,0-0.2,0C10.9,0,10,0,9.2,0C9.2,0,9.1,0,9-0.1c0,0,0,0,0-0.1c0-0.3,0-0.9,0-1c0.1,0,0.1,0,0.2,0
				c0.5,0,1,0,1.5,0c0.1,0,0.1,0,0.2,0c-0.1-0.2-0.2-0.4-0.3-0.6c0,0,0.1,0,0.1,0c0.4,0,0.7,0,1.1,0c0,0,0.1,0,0.1,0
				c0.2,0,0.4,0.1,0.5,0.3c0.1,0.1,0.1,0.2,0.2,0.3c0.2,0,2.8,0,3,0c0.1-0.2,0.2-0.4,0.4-0.6c0.2,0,1.4,0,1.6,0c0,0,0,0.1,0,0.1
				c-0.1,0.1-0.1,0.3-0.2,0.4c0,0,0,0.1,0,0.1c0.1,0,0.1,0,0.2,0c0.5,0,1,0,1.5,0c0.1,0,0.1,0,0.2,0c0,0.2,0,0.3,0,0.5
				c0,0.2,0,0.4,0,0.5c-0.1,0-0.1,0-0.1,0c-0.2,0-0.4,0-0.6,0c-0.7,0-1.4,0-2.1,0c-0.1,0-0.1,0-0.2,0c0,0,0,0.1,0,0.1
				c0,0.5,0,1.1,0,1.6c0,0,0,0.1,0,0.1c0,0,0.1,0,0.1,0c0.1,0,0.1,0,0.2,0c0.8,0,1.7,0,2.5,0C19.1,1.8,19.2,1.8,19.3,1.9z M14.6,1.8
				c0-0.1,0-0.1,0-0.1c0-0.1,0-0.1,0-0.2c0-0.4,0-0.9,0-1.3c0-0.1,0-0.1,0-0.2c-0.2,0-0.9,0-1.1,0c0,0,0,0.1,0,0.1
				c0,0.5,0,1.1,0,1.6c0,0,0,0.1,0,0.1C13.9,1.8,14.2,1.8,14.6,1.8z"/>
			<path class="st1" d="M0.5,6.1C0.3,5.8,0.1,5.5,0,5.2c0,0,0,0,0,0c0,0,0.1,0,0.1,0c0.1,0,0.3,0,0.4,0c0.2,0,0.3-0.1,0.3-0.3
				c0-0.1,0-0.2,0-0.3c0-0.8,0-1.6,0-2.4c0-0.7,0-1.4,0-2.1c0-0.1,0-0.1,0-0.2c-0.1,0-0.1,0-0.1,0c-0.2,0-0.4,0-0.6,0
				c-0.1,0-0.1,0-0.2,0c0,0,0-0.1,0-0.1c0-0.3,0-0.6,0-1c0,0,0,0,0-0.1c0,0,0.1,0,0.1,0c0.1,0,0.1,0,0.2,0c2.2,0,4.4,0,6.6,0
				c0.1,0,0.2,0,0.3,0c0,0.1,0,0.2,0,0.4c0,0.1,0,0.2,0,0.4c0,0.1,0,0.2,0,0.4c-0.1,0-0.2,0-0.2,0c-0.9,0-1.8,0-2.7,0
				c-0.5,0-1,0-1.6,0c-0.1,0-0.1,0-0.2,0c0,0,0,0,0,0.1c0,0.3,0,0.5,0,0.8c0,0,0,0.1,0,0.1c0,0,0.1,0,0.1,0c0.1,0,0.1,0,0.2,0
				c1.3,0,2.6,0,3.9,0c0.1,0,0.2,0,0.2,0c0,0,0,0.1,0,0.1c0,0.2,0,0.4,0,0.5c0,1.1,0,2.2,0,3.2c0,0.1,0,0.2,0,0.4
				c0,0.2-0.1,0.3-0.2,0.5C6.5,5.8,6.3,6,6,6C5.9,6,5.9,6,5.8,6C5.3,6,4.7,6,4.2,6c0,0-0.1,0-0.1,0C4,5.9,3.6,5.3,3.5,5.1
				c0,0,0.1,0,0.1,0c0.3,0,0.6,0,0.9,0c0.1,0,0.3,0,0.4,0c0.1,0,0.1,0,0.2,0c0.1,0,0.2-0.1,0.3-0.3c0-0.1,0-0.1,0-0.2
				c0-0.8,0-1.6,0-2.4c0-0.1,0-0.1,0-0.2c-0.1-0.1-0.1,0-0.2,0c-0.3,0-0.7,0-1,0c-0.5,0-1,0-1.5,0c-0.1,0-0.2,0-0.2,0
				c0,0,0,0.1,0,0.1c0,0.1,0,0.1,0,0.2c0,0.9,0,1.8,0,2.7c0,0.1,0,0.2,0,0.3c0,0.2-0.1,0.3-0.2,0.5C2,5.9,1.8,6,1.5,6
				C1.2,6.1,0.9,6.1,0.5,6.1z"/>
			<path class="st1" d="M-1,7.1c-0.2,0.2-0.3,0.3-0.5,0.4c-0.1,0-0.2,0.1-0.4,0.1c-0.2,0-0.3,0-0.5,0C-2.6,7.3-2.8,7-3,6.7
				c0,0,0.1,0,0.1,0c0.1,0,0.2,0,0.3,0c0.4,0,0.5-0.3,0.5-0.6c0,0,0-0.1,0-0.1c0-1.2,0-2.5,0-3.7c0-0.1,0-0.2,0-0.2
				c-0.1,0-0.1,0-0.1,0c-0.2,0-0.4,0-0.6,0C-2.9,2-3,2-3,2c0,0,0-0.1,0-0.1c0-0.3,0-0.8,0-1c0.1,0,0.1,0,0.2,0c0.5,0,1,0,1.5,0
				c0.2,0,0.3,0,0.5,0c0.1,0,0.1,0,0.2,0c0,0,0,0.1,0,0.1c0,0.1,0,0.1,0,0.2c0,1.5,0,3,0,4.4c0,0.2,0,0.2,0.2,0.4
				c0.3,0.2,0.6,0.3,0.9,0.4c0.3,0.1,0.6,0.1,0.9,0.1c0.4,0,0.7,0,1.1,0c1.5,0,2.9,0,4.4,0c0.1,0,0.2,0,0.2,0c0,0.1,0,0.3,0,0.4
				c0,0.1,0,0.3,0,0.4c0,0.1,0,0.3,0,0.4c-0.1,0-0.1,0-0.2,0c-0.3,0-0.5,0-0.8,0c-1.7,0-3.4,0-5.1,0c-0.4,0-0.8-0.1-1.2-0.1
				c-0.3-0.1-0.6-0.2-0.9-0.4C-1,7.1-1,7.1-1,7.1z"/>
			<path class="st1" d="M-0.6,0.2c-0.5,0-1.1,0-1.6,0c0,0-0.1-0.1-0.1-0.1c-0.3-0.5-0.6-1-0.8-1.5c0,0,0-0.1,0-0.1
				c0.1,0,0.1,0,0.1,0c0.4,0,0.7,0,1.1,0c0.1,0,0.1,0,0.2,0c0.2,0,0.3,0.1,0.4,0.2c0,0,0,0.1,0.1,0.1c0.2,0.4,0.4,0.8,0.7,1.2
				C-0.6,0.1-0.6,0.1-0.6,0.2z"/>
			<path class="st1" d="M11.7,1.5c-0.1,0-0.1,0-0.2,0c-0.3,0-0.7,0-1,0c0,0-0.1,0-0.1,0c-0.2,0-0.4-0.1-0.5-0.3
				C9.7,0.9,9.5,0.6,9.4,0.3c0,0,0,0,0.1,0c0.5,0,1,0,1.6,0C11.2,0.7,11.4,1.1,11.7,1.5z"/>
			<path class="st1" d="M18.7,0.3c0,0,0,0.1,0,0.1c-0.1,0.2-0.3,0.5-0.4,0.7c-0.1,0.2-0.3,0.3-0.5,0.3c-0.1,0-0.2,0-0.4,0
				c-0.3,0-0.5,0-0.8,0c0,0-0.1,0-0.1,0c0,0,0-0.1,0-0.1c0.2-0.4,0.4-0.7,0.6-1.1C17.5,0.3,18.6,0.3,18.7,0.3z"/>
		</g>
	</g>
</g>
<g>
	<path class="st2" d="M28-5.8v27.5c0,3.4-2.8,6.3-6.3,6.3H-5.8c-2,0-3.7-0.9-4.9-2.3c1.1,0.9,2.4,1.4,3.9,1.4h27.5
		c3.4,0,6.3-2.8,6.3-6.3V-6.7c0-1.5-0.5-2.8-1.4-3.9C27.1-9.5,28-7.7,28-5.8z"/>
	<path class="st3" d="M26.6-9.7c-1.1-0.9-2.4-1.4-3.9-1.4H-4.8c-3.4,0-6.3,2.8-6.3,6.3v27.5c0,1.5,0.5,2.8,1.4,3.9
		c-1.4-1.1-2.3-2.9-2.3-4.9V-5.8c0-3.4,2.8-6.3,6.3-6.3h27.5C23.7-12,25.5-11.1,26.6-9.7z"/>
</g>
</svg>
