<?xml version="1.0" encoding="utf-8"?>
<!-- Generator: Adobe Illustrator 18.1.0, SVG Export Plug-In . SVG Version: 6.00 Build 0)  -->
<svg version="1.1" id="图层_1" xmlns="http://www.w3.org/2000/svg" xmlns:xlink="http://www.w3.org/1999/xlink" x="0px" y="0px"
	 width="40px" height="40px" viewBox="-12 -12 40 40" style="enable-background:new -12 -12 40 40;" xml:space="preserve">
<style type="text/css">
	.st0{fill:#B80029;}
	.st1{fill:#FFFFFF;}
	.st2{opacity:0.35;}
	.st3{opacity:0.24;fill:#FFFFFF;}
</style>
<g>
	<path class="st0" d="M28,21.8c0,3.4-2.8,6.2-6.2,6.2H-5.8c-3.4,0-6.2-2.8-6.2-6.2V-5.8c0-3.4,2.8-6.2,6.2-6.2h27.7
		c3.4,0,6.2,2.8,6.2,6.2V21.8z"/>
	<g>
		<g>
			<path class="st1" d="M1,7.6c0,0.4-0.3,0.7-0.7,0.7l0,0C0,8.2-0.3,7.9-0.3,7.6V0.3c0-0.4,0.3-0.7,0.7-0.7l0,0C0.7-0.4,1-0.1,1,0.3
				V7.6z"/>
			<path class="st1" d="M16.2,7.6c0,0.4-0.3,0.7-0.7,0.7l0,0c-0.4,0-0.7-0.3-0.7-0.7V0.3c0-0.4,0.3-0.7,0.7-0.7l0,0
				c0.4,0,0.7,0.3,0.7,0.7V7.6z"/>
			<path class="st1" d="M-7,6.5C-7,6.8-7.2,7-7.5,7l0,0C-7.8,7-8,6.8-8,6.5v-2C-8,4.2-7.8,4-7.5,4l0,0C-7.2,4-7,4.2-7,4.5V6.5z"/>
			<path class="st1" d="M8,6.5C8,6.8,7.8,7,7.5,7l0,0C7.2,7,7,6.8,7,6.5v-2C7,4.2,7.2,4,7.5,4l0,0C7.8,4,8,4.2,8,4.5V6.5z"/>
			<path class="st1" d="M24,6.5C24,6.8,23.8,7,23.5,7l0,0C23.2,7,23,6.8,23,6.5v-2C23,4.2,23.2,4,23.5,4l0,0C23.8,4,24,4.2,24,4.5
				V6.5z"/>
			<path class="st1" d="M-3,6.5C-3,6.8-3.2,7-3.5,7l0,0C-3.8,7-4,6.8-4,6.5v-4C-4,2.2-3.8,2-3.5,2l0,0C-3.2,2-3,2.2-3,2.5V6.5z"/>
			<path class="st1" d="M4,6.5C4,6.8,3.8,7,3.5,7l0,0C3.2,7,3,6.8,3,6.5v-4C3,2.2,3.2,2,3.5,2l0,0C3.8,2,4,2.2,4,2.5V6.5z"/>
			<path class="st1" d="M12,6.5C12,6.8,11.8,7,11.5,7l0,0C11.2,7,11,6.8,11,6.5v-4C11,2.2,11.2,2,11.5,2l0,0C11.8,2,12,2.2,12,2.5
				V6.5z"/>
			<path class="st1" d="M19,6.5C19,6.8,18.8,7,18.5,7l0,0C18.2,7,18,6.8,18,6.5v-4C18,2.2,18.2,2,18.5,2l0,0C18.8,2,19,2.2,19,2.5
				V6.5z"/>
		</g>
		<g>
			<path class="st1" d="M-1,10.8v1.5c0,0-0.3-0.4-0.9-0.4c-0.6,0-1.6,0.5-1.6,1.5c0,1,0.9,1.4,1.6,1.4c0.7,0,0.9-0.3,0.9-0.3v1.5
				c0,0-4,0.9-4-2.7C-5,9.9-1,10.8-1,10.8z"/>
			<path class="st1" d="M14,10.8v1.5c0,0-0.5-0.4-1.1-0.4c-0.6,0-1.7,0.5-1.7,1.5c0,1,1,1.4,1.7,1.4c0.7,0,1.1-0.3,1.1-0.3v1.5
				c0,0-4,0.9-4-2.7C10,9.9,14,10.8,14,10.8z"/>
			<rect x="1" y="11" class="st1" width="1" height="5"/>
			<path class="st1" d="M7,10.8v1.2c0,0-1.5-0.6-1.5,0.2c0,0.8,2.2,0.4,2.2,2.4c0,2-2.7,1.7-3.7,1.5v-1.2c0,0,2.6,0.7,2.6-0.3
				c0-1-2.6-0.2-2.6-2.3C4,10.1,7,10.8,7,10.8z"/>
			<path class="st1" d="M18.1,10.7c-1.6,0-2.9,1-2.9,2.8c0,1.7,1.6,2.8,2.9,2.8c1.3,0,2.8-1.2,2.8-2.8
				C20.9,11.9,19.7,10.7,18.1,10.7z M18.1,14.9c-0.7,0-1.5-0.5-1.5-1.5c0-0.9,0.7-1.5,1.5-1.5c0.8,0,1.5,0.7,1.5,1.5
				C19.6,14.3,18.8,14.9,18.1,14.9z"/>
		</g>
	</g>
</g>
<g>
	<path class="st2" d="M27.9-5.7v27.4c0,3.4-2.8,6.2-6.2,6.2H-5.7c-1.9,0-3.7-0.9-4.8-2.3c1.1,0.9,2.4,1.4,3.9,1.4h27.4
		c3.4,0,6.2-2.8,6.2-6.2V-6.6c0-1.5-0.5-2.8-1.4-3.9C27-9.4,27.9-7.6,27.9-5.7z"/>
	<path class="st3" d="M26.5-9.6c-1.1-0.9-2.4-1.4-3.9-1.4H-4.8C-8.2-11-11-8.2-11-4.8v27.4c0,1.5,0.5,2.8,1.4,3.9
		c-1.4-1.1-2.3-2.9-2.3-4.8V-5.7c0-3.4,2.8-6.2,6.2-6.2h27.4C23.6-11.9,25.4-11,26.5-9.6z"/>
</g>
</svg>
