<?xml version="1.0" encoding="utf-8"?>
<!-- Generator: Adobe Illustrator 18.1.0, SVG Export Plug-In . SVG Version: 6.00 Build 0)  -->
<svg version="1.1" id="图层_1" xmlns="http://www.w3.org/2000/svg" xmlns:xlink="http://www.w3.org/1999/xlink" x="0px" y="0px"
	 width="40px" height="40px" viewBox="-12 -12 40 40" style="enable-background:new -12 -12 40 40;" xml:space="preserve">
<style type="text/css">
	.st0{fill:#B9012A;}
	.st1{fill-rule:evenodd;clip-rule:evenodd;fill:#FFFFFF;}
	.st2{opacity:0.35;}
	.st3{opacity:0.24;fill:#FFFFFF;}
</style>
<g>
	<path class="st0" d="M28,21.7c0,3.5-2.8,6.3-6.3,6.3H-5.8c-3.5,0-6.3-2.8-6.3-6.3V-5.8c0-3.5,2.8-6.3,6.3-6.3h27.5
		c3.5,0,6.3,2.8,6.3,6.3V21.7z"/>
	<g>
		<g>
			<path class="st1" d="M-5.9,11.8c-0.5,0-0.9,0-1.4,0c-0.3,0-0.6-0.1-0.8-0.4c-0.8-0.8-1.2-1.9-1.2-3.4c0-1.5,0.3-2.7,1.1-3.5
				c0.2-0.2,0.6-0.4,0.8-0.4c0.9-0.1,1.7,0,2.6,0c0.9,0,1.5,0.7,2,2c0.4,1.3,0.4,3.3-0.3,4.5c-0.4,0.7-0.8,1.1-1.4,1.1
				C-5,11.8-5.4,11.8-5.9,11.8C-5.9,11.8-5.9,11.8-5.9,11.8z M-5.9,5.7C-5.9,5.7-5.9,5.7-5.9,5.7c-0.5,0-0.9,0-1.4,0
				c-0.1,0-0.2,0-0.3,0.1c-0.6,0.5-0.9,1.3-0.9,2.4c0,1.1,0.7,2.4,1.5,2.3c0.8-0.1,1.5,0,2.3,0c0.1,0,0.2,0,0.3-0.1
				c0.8-0.4,1.3-1.8,1-3.3C-3.6,6.3-4,5.6-4.6,5.7C-5,5.7-5.5,5.7-5.9,5.7z"/>
			<path class="st1" d="M21.8,7.3c0.5,0,1,0,1.6,0c0.1,0,0.2,0.1,0.3,0.2c0,0.1,0,0.3-0.1,0.5c-0.2,0.6-0.4,0.8-0.9,0.8
				c-0.9-0.1-1.7,0-2.6,0c-0.3,0-0.4,0.2-0.2,0.6c0.3,0.7,0.7,1.1,1.2,1.1c0.9,0,1.7,0,2.6,0c0.2,0,0.3,0.1,0.2,0.5
				c0,0.1-0.1,0.2-0.1,0.3c-0.1,0.5-0.3,0.6-0.7,0.6c-0.7,0-1.4,0-2.2,0c-0.5,0-0.8-0.2-1.2-0.6C19,10.3,18.7,8,19,6.7
				c0.1-0.4,0.3-0.9,0.5-1.3c0.4-0.8,0.9-1.1,1.5-1.1c0.9,0,1.7,0,2.6,0c0.4,0,0.4,0.2,0.3,0.7c-0.2,0.6-0.5,0.8-0.8,0.8
				c-0.7,0-1.3,0-2,0c-0.4,0-0.9,0.5-1,1.2c-0.1,0.3,0,0.5,0.2,0.5C20.7,7.3,21.3,7.3,21.8,7.3C21.8,7.3,21.8,7.3,21.8,7.3z"/>
			<path class="st1" d="M-0.7,8.2C-0.6,8.1-0.6,8-0.5,8c0.4,0,0.7,0,1.1,0c0.3,0,0.7,0,1,0c0.3,0,0.6-0.6,0.7-1.1
				c0-0.3-0.2-1-0.4-1.2C1.7,5.7,1.6,5.7,1.6,5.7c-0.8,0-1.6,0-2.4,0C-1,5.6-1.1,5.8-1.2,6c0,0.1,0,0.3,0,0.4c0,1.6,0,3.1,0,4.7
				c0,0.2-0.1,0.6-0.1,0.7c-0.2,0.1-0.4,0-0.6,0c0,0-0.1-0.2-0.1-0.3c0-2.3,0-4.5,0-6.8c0-0.4,0.2-0.4,0.3-0.4c0.3,0,0.6,0,0.9,0
				c0.8,0,1.6,0,2.4,0C2.3,4.2,2.7,5,3,5.9c0.3,1.2,0,2.3-0.6,3C2.2,9.2,2,9.3,1.8,9.4C1.5,9.5,1.5,9.7,1.7,10
				c0.3,0.5,0.6,0.9,0.9,1.4c0.1,0.1,0.1,0.2,0.1,0.3c-0.1,0-0.1,0.1-0.2,0.1c0,0,0,0,0,0c-0.8,0-0.8,0-1.4-0.9
				c-0.5-0.8-1-1.6-1.6-2.4C-0.6,8.4-0.6,8.3-0.7,8.2z"/>
			<path class="st1" d="M8.7,11.8c-0.4,0-0.5,0-0.7-0.6c-0.1-0.5-0.4-0.8-0.7-0.7c-0.4,0-0.8,0-1.2,0c-0.5,0.1-0.7-0.2-0.9-0.9
				c0-0.1-0.1-0.3-0.2-0.4C5,9.4,4.9,9.5,4.8,9.7c-0.2,0.6-0.4,1.2-0.6,1.8c-0.1,0.2-0.2,0.4-0.4,0.4c-0.1,0-0.3,0-0.4,0
				c-0.1,0-0.2,0-0.3-0.1c0-0.1,0-0.3,0.1-0.4c0.3-0.9,0.6-1.7,1-2.6C4.6,7.5,5,6.4,5.4,5.3c0.1-0.2,0.1-0.4,0.2-0.6
				C5.9,4,6.5,4,6.7,4.7c0.5,1.5,1.1,3,1.6,4.5c0.3,0.7,0.5,1.4,0.8,2.1c0,0.1,0.1,0.3,0.1,0.4c-0.1,0-0.2,0.1-0.3,0.1
				C8.9,11.8,8.8,11.8,8.7,11.8z M5.1,9.1c0.6,0,1.2,0,1.8,0c0.2,0,0.3-0.2,0.2-0.5C6.9,7.9,6.6,7.1,6.4,6.4C6.3,6.1,6.2,6.1,6,6.4
				C6,6.4,6,6.5,5.9,6.6C5.7,7.2,5.5,7.8,5.3,8.5C5.2,8.6,5.2,8.9,5.1,9.1z"/>
			<path class="st1" d="M12.2,4.2c0.5,0,0.9,0,1.4,0c0.1,0,0.2,0.1,0.3,0.2c0,0.1,0,0.3-0.1,0.4c0,0.1-0.1,0.3-0.1,0.4
				c-0.1,0.3-0.3,0.5-0.5,0.5c-0.7,0-1.4,0-2.2,0c-0.2,0-0.3,0.1-0.5,0.2c-0.7,0.7-1,1.7-0.7,2.9c0.2,0.9,0.7,1.7,1.4,1.7
				c0.8,0,1.7,0,2.5,0c0.2,0,0.3,0.2,0.2,0.5c-0.1,0.2-0.1,0.4-0.2,0.6c-0.1,0.1-0.2,0.3-0.3,0.3c-0.9,0-1.8,0-2.7,0
				c-0.6,0-1-0.7-1.4-1.4C9,9.6,8.8,8.7,8.8,7.7c0.1-1.2,0.4-2.3,1.1-3c0.3-0.3,0.6-0.4,1-0.5C11.3,4.2,11.8,4.2,12.2,4.2z"/>
			<path class="st1" d="M14.4,7.8c0-1,0-2,0-3c0-0.4,0.1-0.6,0.4-0.6c0.4,0,0.5,0.2,0.5,0.9c0,1.6,0,3.2,0,4.8
				c0,0.5,0.1,0.6,0.4,0.6c1,0,2,0,3,0c0.1,0,0.2,0.1,0.3,0.1c0,0.2-0.1,0.4-0.1,0.5c0,0.1-0.1,0.2-0.1,0.3
				c-0.1,0.1-0.2,0.3-0.3,0.3c-1.2,0-2.4,0-3.5,0c-0.3,0-0.5-0.3-0.5-0.8C14.4,9.9,14.4,8.9,14.4,7.8C14.4,7.8,14.4,7.8,14.4,7.8z"
				/>
			<path class="st1" d="M24.4,5.1c0-0.5,0.2-0.9,0.4-0.9c0.3,0,0.5,0.4,0.5,0.8c0,0.5-0.2,0.8-0.4,0.8C24.6,5.8,24.4,5.6,24.4,5.1z"
				/>
		</g>
	</g>
</g>
<g>
	<path class="st2" d="M28-5.8v27.5c0,3.4-2.8,6.3-6.3,6.3H-5.8c-2,0-3.7-0.9-4.9-2.3c1.1,0.9,2.4,1.4,3.9,1.4h27.5
		c3.4,0,6.3-2.8,6.3-6.3V-6.7c0-1.5-0.5-2.8-1.4-3.9C27.1-9.5,28-7.7,28-5.8z"/>
	<path class="st3" d="M26.6-9.7c-1.1-0.9-2.4-1.4-3.9-1.4H-4.8c-3.4,0-6.3,2.8-6.3,6.3v27.5c0,1.5,0.5,2.8,1.4,3.9
		c-1.4-1.1-2.3-2.9-2.3-4.9V-5.8c0-3.4,2.8-6.3,6.3-6.3h27.5C23.7-12,25.5-11.1,26.6-9.7z"/>
</g>
</svg>
