<?xml version="1.0" encoding="utf-8"?>
<!-- Generator: Adobe Illustrator 18.1.0, SVG Export Plug-In . SVG Version: 6.00 Build 0)  -->
<svg version="1.1" id="图层_1" xmlns="http://www.w3.org/2000/svg" xmlns:xlink="http://www.w3.org/1999/xlink" x="0px" y="0px"
	 width="60px" height="60px" viewBox="10 -10 60 60" style="enable-background:new 10 -10 60 60;" xml:space="preserve">
<style type="text/css">
	.st0{fill:url(#SVGID_1_);}
	.st1{fill:url(#SVGID_2_);}
	.st2{fill:url(#SVGID_3_);}
	.st3{fill:#A1A0A3;}
	.st4{fill:#686776;}
	.st5{fill:url(#SVGID_4_);}
	.st6{fill:url(#SVGID_5_);}
	.st7{fill:url(#SVGID_6_);}
	.st8{fill:url(#SVGID_7_);}
	.st9{fill:url(#SVGID_8_);}
	.st10{fill:url(#SVGID_9_);}
	.st11{fill:url(#SVGID_10_);}
	.st12{fill:url(#SVGID_11_);}
	.st13{fill:url(#SVGID_12_);}
	.st14{fill:url(#SVGID_13_);}
	.st15{fill:#D5D6D6;}
	.st16{fill:#BABABA;}
	.st17{fill:url(#SVGID_14_);}
</style>
<g>
	<g id="图层_6_11_">
		
			<linearGradient id="SVGID_1_" gradientUnits="userSpaceOnUse" x1="356.6501" y1="284.6" x2="405.45" y2="284.6" gradientTransform="matrix(1 0 0 1 -341 -244)">
			<stop  offset="0" style="stop-color:#AFB2B2"/>
			<stop  offset="1" style="stop-color:#5E5F60"/>
		</linearGradient>
		<polygon class="st0" points="15.7,42.1 26.7,36.7 52.7,32.7 64.5,33.2 42.2,48.5 		"/>
	</g>
	<g id="图层_3_11_">
		
			<linearGradient id="SVGID_2_" gradientUnits="userSpaceOnUse" x1="356.6501" y1="265.1" x2="383.2995" y2="265.1" gradientTransform="matrix(1 0 0 1 -341 -244)">
			<stop  offset="0" style="stop-color:#44434D"/>
			<stop  offset="1" style="stop-color:#393940"/>
		</linearGradient>
		<polygon class="st1" points="15.7,-3.9 42.4,-0.9 42.4,46.1 15.7,39.8 		"/>
		
			<linearGradient id="SVGID_3_" gradientUnits="userSpaceOnUse" x1="383.3029" y1="263.75" x2="405.2776" y2="263.75" gradientTransform="matrix(1 0 0 1 -341 -244)">
			<stop  offset="0" style="stop-color:#000000"/>
			<stop  offset="1" style="stop-color:#393940"/>
		</linearGradient>
		<polygon class="st2" points="64.3,-6.6 64.3,30.8 42.4,46.1 42.4,-0.9 		"/>
		<g>
			<polyline class="st3" points="45.5,5.7 46.4,5.7 59.6,0 45.5,5.7 			"/>
			<g>
				<polygon class="st4" points="45.5,4.2 45.5,5.7 64.3,-1.9 64.3,-2.9 				"/>
			</g>
		</g>
		<g>
			<polyline class="st3" points="45.5,11.4 46.4,11.4 59.6,5.7 45.5,11.4 			"/>
			<g>
				<polygon class="st4" points="45.5,9.9 45.5,11.4 64.3,3.8 64.3,2.8 				"/>
			</g>
		</g>
		<g>
			<polyline class="st3" points="45.5,16.5 46.4,16.5 59.6,10.8 45.5,16.5 			"/>
			<g>
				<polygon class="st4" points="45.5,15 45.5,16.5 64.3,8.9 64.3,7.9 				"/>
			</g>
		</g>
		<g>
			<polyline class="st3" points="45.5,22.3 46.4,22.3 59.6,16.6 45.5,22.3 			"/>
			<g>
				<polygon class="st4" points="45.5,20.8 45.5,22.3 64.3,14.7 64.3,13.8 				"/>
			</g>
		</g>
		
			<radialGradient id="SVGID_4_" cx="370.5091" cy="284.7593" r="1.0569" gradientTransform="matrix(1 0 0 1 -341 -244)" gradientUnits="userSpaceOnUse">
			<stop  offset="0" style="stop-color:#060046"/>
			<stop  offset="0.3506" style="stop-color:#2C4F93"/>
			<stop  offset="0.5339" style="stop-color:#60BCFF"/>
			<stop  offset="0.8526" style="stop-color:#03009B"/>
		</radialGradient>
		<circle class="st5" cx="29.6" cy="40.8" r="1.1"/>
		
			<radialGradient id="SVGID_5_" cx="373.6165" cy="285.3066" r="1.0571" gradientTransform="matrix(1 0 0 1 -341 -244)" gradientUnits="userSpaceOnUse">
			<stop  offset="0" style="stop-color:#060046"/>
			<stop  offset="0.3506" style="stop-color:#2C4F93"/>
			<stop  offset="0.5339" style="stop-color:#60BCFF"/>
			<stop  offset="0.8526" style="stop-color:#03009B"/>
		</radialGradient>
		<circle class="st6" cx="32.7" cy="41.3" r="1.1"/>
		
			<radialGradient id="SVGID_6_" cx="376.8977" cy="285.8169" r="1.0559" gradientTransform="matrix(1 0 0 1 -341 -244)" gradientUnits="userSpaceOnUse">
			<stop  offset="0" style="stop-color:#060046"/>
			<stop  offset="0.3506" style="stop-color:#2C4F93"/>
			<stop  offset="0.5339" style="stop-color:#60BCFF"/>
			<stop  offset="0.8526" style="stop-color:#03009B"/>
		</radialGradient>
		<circle class="st7" cx="35.9" cy="41.8" r="1.1"/>
	</g>
	<g id="图层_4_11_">
		<g>
			
				<linearGradient id="SVGID_7_" gradientUnits="userSpaceOnUse" x1="356.7501" y1="252.7" x2="383.1798" y2="252.7" gradientTransform="matrix(1 0 0 1 -341 -244)">
				<stop  offset="0" style="stop-color:#000000"/>
				<stop  offset="0.3944" style="stop-color:#222226"/>
				<stop  offset="0.5896" style="stop-color:#2C2C31"/>
				<stop  offset="0.5936" style="stop-color:#71C6FF"/>
				<stop  offset="1" style="stop-color:#0055D4"/>
			</linearGradient>
			<polygon class="st8" points="15.8,6 42.2,10.1 42.2,11.4 15.8,7.7 			"/>
			
				<linearGradient id="SVGID_8_" gradientUnits="userSpaceOnUse" x1="356.7501" y1="258.1" x2="383.1798" y2="258.1" gradientTransform="matrix(1 0 0 1 -341 -244)">
				<stop  offset="0" style="stop-color:#000000"/>
				<stop  offset="0.3944" style="stop-color:#222226"/>
				<stop  offset="0.5896" style="stop-color:#2C2C31"/>
				<stop  offset="0.5936" style="stop-color:#71C6FF"/>
				<stop  offset="1" style="stop-color:#0055D4"/>
			</linearGradient>
			<polygon class="st9" points="15.8,11.4 42.2,15.5 42.2,16.8 15.8,13.1 			"/>
			
				<linearGradient id="SVGID_9_" gradientUnits="userSpaceOnUse" x1="356.7501" y1="263.2" x2="383.1798" y2="263.2" gradientTransform="matrix(1 0 0 1 -341 -244)">
				<stop  offset="0" style="stop-color:#000000"/>
				<stop  offset="0.3944" style="stop-color:#222226"/>
				<stop  offset="0.5896" style="stop-color:#2C2C31"/>
				<stop  offset="0.5936" style="stop-color:#71C6FF"/>
				<stop  offset="1" style="stop-color:#0055D4"/>
			</linearGradient>
			<polygon class="st10" points="15.8,16.5 42.2,20.6 42.2,21.9 15.8,18.2 			"/>
			
				<linearGradient id="SVGID_10_" gradientUnits="userSpaceOnUse" x1="356.7501" y1="247.4" x2="383.1798" y2="247.4" gradientTransform="matrix(1 0 0 1 -341 -244)">
				<stop  offset="0" style="stop-color:#000000"/>
				<stop  offset="0.3944" style="stop-color:#222226"/>
				<stop  offset="0.5896" style="stop-color:#2C2C31"/>
				<stop  offset="0.5936" style="stop-color:#71C6FF"/>
				<stop  offset="1" style="stop-color:#0055D4"/>
			</linearGradient>
			<polygon class="st11" points="15.8,0.7 42.2,4.8 42.2,6.1 15.8,2.4 			"/>
		</g>
		
			<linearGradient id="SVGID_11_" gradientUnits="userSpaceOnUse" x1="356.6501" y1="287.7" x2="383.2995" y2="287.7" gradientTransform="matrix(1 0 0 1 -341 -244)">
			<stop  offset="0" style="stop-color:#7CCDFF"/>
			<stop  offset="0.3625" style="stop-color:#2C4F93"/>
			<stop  offset="1" style="stop-color:#3F77BA"/>
			<stop  offset="1" style="stop-color:#60BCFF"/>
		</linearGradient>
		<polyline class="st12" points="15.7,39.8 42.4,46.1 42.4,47.6 15.7,40.8 15.7,39.8 		"/>
	</g>
	<g id="图层_5_11_">
		
			<linearGradient id="SVGID_12_" gradientUnits="userSpaceOnUse" x1="383.3029" y1="283.2" x2="405.2776" y2="283.2" gradientTransform="matrix(1 0 0 1 -341 -244)">
			<stop  offset="0" style="stop-color:#79E4FF"/>
			<stop  offset="0.494" style="stop-color:#0500F9"/>
			<stop  offset="1" style="stop-color:#60BCFF"/>
		</linearGradient>
		<polygon class="st13" points="42.4,46.1 64.3,30.8 64.3,32.3 42.4,47.6 		"/>
		
			<linearGradient id="SVGID_13_" gradientUnits="userSpaceOnUse" x1="356.55" y1="237.85" x2="405.2805" y2="237.85" gradientTransform="matrix(1 0 0 1 -341 -244)">
			<stop  offset="0" style="stop-color:#888888"/>
			<stop  offset="1" style="stop-color:#BCBCBC"/>
		</linearGradient>
		<polygon class="st14" points="15.6,-5.1 38.4,-10 64.4,-7.9 42.4,-2.3 		"/>
		<polygon class="st15" points="15.7,-5.1 15.7,-3.8 42.4,-0.9 42.4,-2.3 		"/>
		<polygon class="st16" points="64.3,-8 64.3,-6.6 42.4,-0.9 42.4,-2.3 		"/>
		<polygon class="st16" points="42.2,48.5 42.2,50 64.5,34.6 64.5,33.2 		"/>
		<polygon class="st16" points="15.7,42.1 15.7,43.1 42.2,50 42.2,48.5 		"/>
	</g>
	<g id="图层_8_11_">
		
			<linearGradient id="SVGID_14_" gradientUnits="userSpaceOnUse" x1="367.7766" y1="266.55" x2="383.3029" y2="266.55" gradientTransform="matrix(1 0 0 1 -341 -244)">
			<stop  offset="0" style="stop-color:#FFFFFF;stop-opacity:0.2"/>
			<stop  offset="1" style="stop-color:#FFFFFF;stop-opacity:0.1"/>
		</linearGradient>
		<polygon class="st17" points="26.8,-2.5 42.4,-0.9 42.4,47.6 26.8,43.7 		"/>
	</g>
</g>
</svg>
