<?xml version="1.0" encoding="utf-8"?>
<!-- Generator: Adobe Illustrator 18.1.0, SVG Export Plug-In . SVG Version: 6.00 Build 0)  -->
<svg version="1.1" id="图层_1" xmlns="http://www.w3.org/2000/svg" xmlns:xlink="http://www.w3.org/1999/xlink" x="0px" y="0px"
	 width="40px" height="40px" viewBox="-12 -12 40 40" style="enable-background:new -12 -12 40 40;" xml:space="preserve">
<style type="text/css">
	.st0{fill:#7C76CE;}
	.st1{fill:#FFFFFF;}
	.st2{opacity:0.35;}
	.st3{opacity:0.24;fill:#FFFFFF;}
</style>
<g>
	<path class="st0" d="M28,21.8c0,3.5-2.7,6.2-6.2,6.2H-5.7c-3.5,0-6.3-2.8-6.3-6.2V-5.7c0-3.5,2.9-6.3,6.3-6.3h27.5
		c3.5,0,6.2,2.8,6.2,6.3V21.8z"/>
	<g>
		<g>
			<path class="st1" d="M-4.8-0.4h0.7H-2c0.7,0,1.2,0.2,1.6,0.6c0.4,0.4,0.5,1,0.5,1.9c0,0.8-0.2,1.4-0.6,1.8
				c-0.4,0.5-0.9,0.7-1.5,0.7h-1.5v2.8h-0.7h-0.7V-0.4z M-3.5,3.3h1.3c0.3,0,0.5-0.1,0.7-0.3c0.1-0.2,0.2-0.5,0.2-0.9
				c0-0.4-0.1-0.7-0.2-0.9C-1.6,1.1-1.9,1-2.2,1h-1.3V3.3z"/>
			<path class="st1" d="M2.3,6.5c-0.6-0.7-0.8-1.7-0.8-3c0-1.3,0.3-2.3,0.8-3c0.6-0.7,1.3-1.1,2.3-1.1c1,0,1.7,0.4,2.3,1.1
				c0.6,0.7,0.8,1.7,0.8,3c0,1.3-0.3,2.3-0.8,3C6.2,7.3,5.5,7.7,4.5,7.7C3.6,7.7,2.8,7.3,2.3,6.5z M5.8,5.5c0.3-0.5,0.5-1.2,0.5-2
				c0-0.8-0.2-1.5-0.5-2C5.5,1,5.1,0.8,4.5,0.8C4,0.8,3.6,1,3.2,1.5C2.9,2,2.8,2.7,2.8,3.5c0,0.8,0.2,1.5,0.5,2C3.6,6,4,6.3,4.5,6.3
				C5.1,6.3,5.5,6,5.8,5.5z"/>
			<path class="st1" d="M9.2-0.4h0.7h2.4c0.7,0,1.3,0.2,1.7,0.6c0.4,0.4,0.6,0.9,0.6,1.6c0,0.7-0.2,1.2-0.6,1.6
				c-0.1,0.1-0.2,0.2-0.4,0.3c0.1,0,0.1,0.1,0.2,0.1c0.4,0.3,0.6,0.8,0.6,1.6v0.9c0,0.3,0,0.6,0.1,0.7c0,0.1,0.1,0.2,0.2,0.3v0.2
				h-1.5c0-0.1-0.1-0.4-0.1-0.6c0-0.3,0-0.5,0-0.8l0-0.4c0-0.4-0.1-0.7-0.2-0.9c-0.1-0.2-0.4-0.3-0.7-0.3h-1.5v3.1H9.9H9.2V-0.4z
				 M10.6,3.1h1.5c0.3,0,0.6-0.1,0.8-0.3c0.2-0.2,0.3-0.4,0.3-0.8c0-0.4-0.1-0.6-0.2-0.8C12.8,1.1,12.5,1,12.2,1h-1.6V3.1z"/>
			<path class="st1" d="M17.6,1h-1.9V0.3v-0.7h5.2v0.7V1H19v6.5h-0.7h-0.7V1z"/>
		</g>
		<g>
			<path class="st1" d="M-7.1,16.5h-0.4H-8v-5.7h0.7h0.7l0.9,4.5h0l0.8-4.5h0.7h0.7v5.7H-4h-0.5v-4.7h0l-0.9,4.7h-0.5h-0.5l-0.9-4.8
				h0V16.5z"/>
			<path class="st1" d="M-1.8,15.8c-0.4-0.5-0.6-1.3-0.6-2.2c0-0.9,0.2-1.6,0.6-2.2c0.4-0.5,0.9-0.8,1.6-0.8c0.7,0,1.2,0.3,1.6,0.8
				c0.4,0.5,0.6,1.3,0.6,2.2c0,0.9-0.2,1.6-0.6,2.2c-0.4,0.5-0.9,0.8-1.6,0.8C-0.9,16.6-1.4,16.3-1.8,15.8z M0.7,15.1
				c0.2-0.4,0.3-0.8,0.3-1.4c0-0.6-0.1-1.1-0.3-1.4c-0.2-0.4-0.5-0.5-0.9-0.5c-0.4,0-0.7,0.2-0.9,0.5c-0.2,0.4-0.3,0.8-0.3,1.4
				c0,0.6,0.1,1.1,0.3,1.4c0.2,0.4,0.5,0.5,0.9,0.5S0.5,15.4,0.7,15.1z"/>
			<path class="st1" d="M4.1,16.5H3.6H3.2v-5.7h0.5h0.5L6,14.7v-3.9h0.5H7v5.7H6.5H6l-1.9-4.1V16.5z"/>
			<path class="st1" d="M8.2,10.8h0.5h0.5v5.7H8.7H8.2V10.8z"/>
			<path class="st1" d="M11.5,11.8h-1.4v-0.5v-0.5h3.8v0.5v0.5h-1.4v4.7H12h-0.5V11.8z"/>
			<path class="st1" d="M15.2,15.8c-0.4-0.5-0.6-1.3-0.6-2.2c0-0.9,0.2-1.6,0.6-2.2c0.4-0.5,0.9-0.8,1.6-0.8c0.7,0,1.2,0.3,1.6,0.8
				c0.4,0.5,0.6,1.3,0.6,2.2c0,0.9-0.2,1.6-0.6,2.2c-0.4,0.5-0.9,0.8-1.6,0.8C16.2,16.6,15.6,16.3,15.2,15.8z M17.8,15.1
				c0.2-0.4,0.3-0.8,0.3-1.4c0-0.6-0.1-1.1-0.3-1.4c-0.2-0.4-0.5-0.5-0.9-0.5c-0.4,0-0.7,0.2-0.9,0.5c-0.2,0.4-0.3,0.8-0.3,1.4
				c0,0.6,0.1,1.1,0.3,1.4c0.2,0.4,0.5,0.5,0.9,0.5C17.2,15.6,17.5,15.4,17.8,15.1z"/>
			<path class="st1" d="M20.3,10.8h0.5h1.7c0.5,0,0.9,0.1,1.2,0.4c0.3,0.3,0.4,0.7,0.4,1.2c0,0.5-0.1,0.9-0.4,1.2
				c-0.1,0.1-0.2,0.2-0.3,0.2c0,0,0.1,0,0.1,0.1c0.3,0.2,0.5,0.6,0.5,1.2v0.6c0,0.2,0,0.4,0,0.5c0,0.1,0.1,0.2,0.2,0.2v0.1h-1.1
				c0-0.1-0.1-0.3-0.1-0.4c0-0.2,0-0.4,0-0.6l0-0.3c0-0.3,0-0.5-0.1-0.7c-0.1-0.1-0.3-0.2-0.5-0.2h-1.1v2.2h-0.5h-0.5V10.8z
				 M21.2,13.3h1.1c0.3,0,0.4-0.1,0.6-0.2c0.1-0.1,0.2-0.3,0.2-0.6c0-0.3-0.1-0.5-0.2-0.6c-0.1-0.1-0.3-0.2-0.5-0.2h-1.2V13.3z"/>
		</g>
	</g>
</g>
<g>
	<path class="st2" d="M28-5.8v27.5c0,3.4-2.8,6.3-6.3,6.3H-5.8c-2,0-3.7-0.9-4.9-2.3c1.1,0.9,2.4,1.4,3.9,1.4h27.5
		c3.4,0,6.3-2.8,6.3-6.3V-6.7c0-1.5-0.5-2.8-1.4-3.9C27.1-9.5,28-7.7,28-5.8z"/>
	<path class="st3" d="M26.6-9.7c-1.1-0.9-2.4-1.4-3.9-1.4H-4.8c-3.4,0-6.3,2.8-6.3,6.3v27.5c0,1.5,0.5,2.8,1.4,3.9
		c-1.4-1.1-2.3-2.9-2.3-4.9V-5.8c0-3.4,2.8-6.3,6.3-6.3h27.5C23.7-12,25.5-11.1,26.6-9.7z"/>
</g>
</svg>
