<?xml version="1.0" encoding="utf-8"?>
<!-- Generator: Adobe Illustrator 18.1.0, SVG Export Plug-In . SVG Version: 6.00 Build 0)  -->
<svg version="1.1" id="图层_1" xmlns="http://www.w3.org/2000/svg" xmlns:xlink="http://www.w3.org/1999/xlink" x="0px" y="0px"
	 width="128px" height="128px" viewBox="-56 -56 128 128" style="enable-background:new -56 -56 128 128;" xml:space="preserve">
<style type="text/css">
	.st0{fill:#BB002B;}
	.st1{fill:#FFFFFF;}
	.st2{opacity:0.35;}
	.st3{opacity:0.24;fill:#FFFFFF;}
</style>
<g>
	<path class="st0" d="M72,52c0,11-8.8,20-19.8,20h-88c-11,0-20.2-8.9-20.2-20v-88c0-11,9.2-20,20.2-20h88c11,0,19.8,9,19.8,20V52z"
		/>
	<g>
		<g>
			<path class="st1" d="M22.1-23.2c-2.5-0.3-5-9.7-5-9.7c-1.8,0.5-16.3,4.8-10.7,8.5c9.4,6.3,9,18.9-4.9,29.4
				C-18,19.9,20.8,24.1,21.4,23.2C31,7,26.5-4.9,26.5-4.9s11.3-3.7,21-5.1C48.8-10.2,41.9-20.4,22.1-23.2L22.1-23.2L22.1-23.2z
				 M37.4-17.4c0,0-7,1.9-10.2,3.6c0,0,1.8-5.6,1.7-6.6C29-20.4,35.9-18.4,37.4-17.4L37.4-17.4L37.4-17.4z M25.7-13.8
				c0,0-3.2-1.9-4.3-2.2l6.8-4.4C28.1-20.4,28.1-18,25.7-13.8L25.7-13.8L25.7-13.8z M20-2.9l5.7,3.4c-0.8,0.8-6.3,3.4-6.3,3.4
				C20.2,2,20-2.9,20-2.9L20-2.9L20-2.9z M20.9-3.2l5-1.7c0.5,1.7,0.3,4.6,0.3,4.6C24.7-0.8,20.9-3.2,20.9-3.2L20.9-3.2L20.9-3.2z
				 M9,8.1c0,0,4.4-7.5,4.3-8.4c0,0,0.5,2.1,3.8,5C17.1,4.8,14.7,6.4,9,8.1L9,8.1L9,8.1z M16.8,6.2c0,0-0.9,4.1-3,7.3
				c0,0-3.1-1.3-5.4-4.2C8.4,9.3,15.9,6.8,16.8,6.2L16.8,6.2L16.8,6.2z M18.2-15.2c0,0-2.5,2.4-4.1,3.9c0,0-0.1-5.3-0.4-5.5
				C13.7-16.9,16.8-16.1,18.2-15.2L18.2-15.2z M14.2-18.4l4.3-3.7c0,0,1.1,1.2,0.8,5.5C19.3-16.7,15.4-18.2,14.2-18.4L14.2-18.4
				L14.2-18.4z M18.8-14.1c0,0-0.7,3.5-2.4,5.7c0,0-1.6-1.4-2.3-1.8C14.2-10.2,18.4-13.7,18.8-14.1L18.8-14.1L18.8-14.1z M16-6.1
				c0,0,1.2,0.8,1.1,2.7c0,0-8.1,3.7-9.3,4.5C7.7,1.2,15.5-5.3,16-6.1L16-6.1z M14.2-0.6l4.4-1.8c0,0,0.6,3-0.8,6.4
				C17.8,3.9,15.5,2.6,14.2-0.6L14.2-0.6L14.2-0.6z M18.2-3.7c0,0-0.5-3.3-1.1-3.8c0,0,2.8-1.4,7-3.8C24.1-11.3,18.8-4.5,18.2-3.7
				L18.2-3.7z M18.5-9.5c0,0,1.5-4.3,1.5-5.2l4.1,2.2L18.5-9.5z M26.8-20.6c-0.5,0.2-6.8,3.7-6.8,3.7c1-3-0.7-5.3-0.7-5.3L26.8-20.6
				L26.8-20.6z M20-23.4l-4.5-0.7l3.3-2.1L20-23.4z M10.1-29.1c0.4-0.3,6.8-3.2,6.8-3.2s1.8,4.5,1.2,4.5
				C17.5-27.7,9.7-28.7,10.1-29.1L10.1-29.1L10.1-29.1z M18.2-26.9l-4.1,2.5h-1c0,0-3.7-3.8-3.9-4.2C9.3-28.5,17.2-26.7,18.2-26.9
				L18.2-26.9L18.2-26.9z M8.5-28.1l2.8,3.3c0,0-4.4-1-4.8-1.4C6.2-26.5,8.5-28.1,8.5-28.1L8.5-28.1z M8-24.4l2.8,1l1,3.4
				C11.9-20,9.2-23.5,8-24.4L8-24.4L8-24.4z M11.6-23.4l6.2,0.9L13.1-19C13.1-19.8,11.6-23.4,11.6-23.4L11.6-23.4L11.6-23.4z
				 M13.4-8.4c0,0,1.1,0.3,1.6,1c0,0-1.9,1.7-3.4,2.6C11.6-4.8,13.3-7.9,13.4-8.4L13.4-8.4z M9.5-2.2c0,0,2.4-2.2,5.2-3.4L7,1.2
				L9.5-2.2L9.5-2.2z M11.2,0.5c0,0-1.9,5.3-3.7,7.2c0,0-0.8-1-1-4.8C6.5,2.8,10.4,0.8,11.2,0.5L11.2,0.5L11.2,0.5z M4.9,3.5
				c0,0-0.1,2.1,1.3,5.3c0,0-7.2,2.3-8.4,2.3C-2.2,11.1-1.4,6.6,4.9,3.5L4.9,3.5z M-2.2,11.7c2.1,0,8.1-1.7,8.1-1.7
				c-0.3,1.2-4.8,7-4.8,7C-2.5,14.6-2.2,11.7-2.2,11.7L-2.2,11.7L-2.2,11.7z M1.5,17.4l5.4-7c0,0,2.4,2.3,5,3.7L1.8,17.8L1.5,17.4
				L1.5,17.4z M2.4,17.9l10.2-2.8L9,20.7C9,20.7,4.8,20.1,2.4,17.9L2.4,17.9L2.4,17.9z M14.2,15.1c0,0,4.3,1.9,8.7,1.9
				c0,0-10.3,4-13.3,4.1C9.5,21.2,14.2,15.5,14.2,15.1L14.2,15.1L14.2,15.1z M20.9,23c0,0-7.2-0.6-9.3-1.8c0,0,6.3-1.2,11.5-3.4
				C23.1,17.8,21.5,22.2,20.9,23L20.9,23L20.9,23z M23.1,16.7c0,0-7.2-1.3-8.4-2.6c0,0,10-4.1,10.4-4.8
				C25.1,9.3,24.3,15.2,23.1,16.7L23.1,16.7L23.1,16.7z M15.3,12.8l3.2-6.8c0,0,4.8,2.5,6.5,2.9C25.1,8.8,16.9,12.8,15.3,12.8
				L15.3,12.8L15.3,12.8z M25.4,8.1c-2.9-0.7-6-3.1-6-3.1c1.4-0.4,6.8-3.6,6.8-3.6C26.6,4.9,25.4,8.1,25.4,8.1L25.4,8.1z M19.7-4.3
				c0,0,5.7-6.3,6-7.1c0,0,3.5,1.7,4.8,3.6C30.5-7.7,21.2-4.8,19.7-4.3L19.7-4.3z M27.2-12.9c0,0,9.9-3.7,10.8-3.8
				c0,0-2.4,4.6-6.5,8.6C31.6-8.1,29.3-11.7,27.2-12.9L27.2-12.9L27.2-12.9z M33.3-8.4c0,0,4.9-5.7,5.9-8.2c0,0,6.5,4.3,7.5,6.3
				C46.6-10.4,35.8-9.5,33.3-8.4L33.3-8.4L33.3-8.4z"/>
		</g>
		<g>
			<path class="st1" d="M-37.7,27.3H-38h-0.4v-5.7h0.6h0.6l1.6,4.9l1.6-4.9h0.6h0.6v5.7h-0.4h-0.4v-4.9h0l-1.6,4.9h-0.4H-36
				l-1.6-4.8h0V27.3z"/>
			<path class="st1" d="M-31.8,21.5h0.7v0.8h-0.7V21.5z M-31.8,23.1h0.4h0.4v4.2h-0.4h-0.4V23.1z"/>
			<path class="st1" d="M-26.8,25.8c-0.1,0.5-0.3,0.9-0.6,1.2c-0.3,0.3-0.7,0.4-1.2,0.4c-0.6,0-1-0.2-1.3-0.6
				c-0.3-0.4-0.5-0.9-0.5-1.6c0-0.7,0.2-1.2,0.5-1.6c0.3-0.4,0.8-0.6,1.4-0.6c0.5,0,0.9,0.1,1.2,0.4c0.3,0.3,0.5,0.7,0.5,1.1h-0.7
				c0-0.3-0.1-0.5-0.3-0.7c-0.2-0.2-0.4-0.2-0.7-0.2c-0.4,0-0.6,0.1-0.8,0.4c-0.2,0.3-0.3,0.7-0.3,1.2c0,0.5,0.1,0.9,0.3,1.2
				c0.2,0.3,0.5,0.4,0.8,0.4c0.3,0,0.5-0.1,0.7-0.3c0.2-0.2,0.3-0.4,0.4-0.7H-26.8z"/>
			<path class="st1" d="M-26,23.1h0.3h0.3v0.7c0.1-0.1,0.1-0.2,0.2-0.3c0.3-0.4,0.6-0.5,1-0.5c0.1,0,0.1,0,0.2,0v0.7l-0.1,0
				c-0.4,0-0.7,0.1-0.9,0.3c-0.2,0.2-0.3,0.6-0.3,1v2.2h-0.4H-26V23.1z"/>
			<path class="st1" d="M-23.1,26.8c-0.4-0.4-0.5-0.9-0.5-1.6c0-0.7,0.2-1.2,0.5-1.6c0.4-0.4,0.8-0.6,1.4-0.6c0.6,0,1.1,0.2,1.4,0.6
				c0.4,0.4,0.5,0.9,0.5,1.6c0,0.7-0.2,1.2-0.5,1.6c-0.4,0.4-0.8,0.6-1.4,0.6C-22.3,27.4-22.7,27.2-23.1,26.8z M-20.8,26.3
				c0.2-0.3,0.3-0.7,0.3-1.2c0-0.5-0.1-0.9-0.3-1.2c-0.2-0.3-0.5-0.4-0.9-0.4c-0.4,0-0.7,0.1-0.9,0.4c-0.2,0.3-0.3,0.7-0.3,1.2
				c0,0.5,0.1,0.9,0.3,1.2c0.2,0.3,0.5,0.4,0.9,0.4C-21.3,26.8-21,26.6-20.8,26.3z"/>
			<path class="st1" d="M-16.6,24.3c0-0.2-0.1-0.4-0.3-0.5c-0.2-0.1-0.4-0.2-0.7-0.2c-0.3,0-0.5,0.1-0.7,0.2
				c-0.2,0.1-0.2,0.3-0.2,0.4c0,0.1,0.1,0.3,0.2,0.3c0.1,0.1,0.3,0.2,0.6,0.2l0.7,0.2c0.4,0.1,0.7,0.2,0.9,0.4
				c0.2,0.2,0.3,0.4,0.3,0.7c0,0.4-0.1,0.7-0.4,1c-0.3,0.2-0.7,0.4-1.2,0.4c-0.6,0-1-0.1-1.3-0.3c-0.3-0.2-0.4-0.6-0.5-1.1h0.7
				c0,0.3,0.1,0.5,0.3,0.6c0.2,0.1,0.4,0.2,0.8,0.2c0.3,0,0.6-0.1,0.7-0.2c0.2-0.1,0.2-0.3,0.2-0.5c0-0.1-0.1-0.3-0.2-0.3
				c-0.1-0.1-0.3-0.2-0.6-0.2l-0.7-0.2c-0.4-0.1-0.7-0.2-0.8-0.4c-0.2-0.2-0.3-0.4-0.3-0.7c0-0.4,0.1-0.7,0.4-0.9
				c0.3-0.2,0.7-0.3,1.1-0.3c0.5,0,0.9,0.1,1.2,0.4c0.3,0.2,0.4,0.6,0.5,1H-16.6z"/>
			<path class="st1" d="M-14.7,26.8c-0.4-0.4-0.5-0.9-0.5-1.6c0-0.7,0.2-1.2,0.5-1.6c0.4-0.4,0.8-0.6,1.4-0.6c0.6,0,1.1,0.2,1.4,0.6
				c0.4,0.4,0.5,0.9,0.5,1.6c0,0.7-0.2,1.2-0.5,1.6c-0.4,0.4-0.8,0.6-1.4,0.6C-13.8,27.4-14.3,27.2-14.7,26.8z M-12.4,26.3
				c0.2-0.3,0.3-0.7,0.3-1.2c0-0.5-0.1-0.9-0.3-1.2c-0.2-0.3-0.5-0.4-0.9-0.4c-0.4,0-0.7,0.1-0.9,0.4c-0.2,0.3-0.3,0.7-0.3,1.2
				c0,0.5,0.1,0.9,0.3,1.2c0.2,0.3,0.5,0.4,0.9,0.4C-12.9,26.8-12.6,26.6-12.4,26.3z"/>
			<path class="st1" d="M-9.6,23.7v3.6H-10h-0.4v-3.6h-0.6v-0.6h0.6v-0.7c0-0.3,0.1-0.5,0.3-0.7c0.2-0.2,0.5-0.2,0.8-0.2l0.3,0v0.6
				l-0.3,0c-0.1,0-0.2,0-0.3,0.1c-0.1,0.1-0.1,0.2-0.1,0.4v0.5h0.7v0.6H-9.6z"/>
			<path class="st1" d="M-6.7,27.3c-0.2,0-0.4,0.1-0.5,0.1c-0.3,0-0.5-0.1-0.7-0.2C-8,27-8.1,26.8-8.1,26.4v-2.8h-0.6v-0.6h0.6v-1.2
				h0.7v1.2h0.7v0.6h-0.7v2.8c0,0.1,0,0.2,0.1,0.2c0.1,0.1,0.2,0.1,0.3,0.1h0.2V27.3z"/>
		</g>
		<g>
			<g>
				<path class="st1" d="M-3.8,22.7c0.2,0.2,0.4,0.5,0.4,0.9c0,0.3-0.1,0.6-0.4,0.9c-0.2,0.2-0.5,0.4-0.9,0.4
					c-0.3,0-0.6-0.1-0.9-0.4C-5.8,24.1-6,23.9-6,23.5c0-0.3,0.1-0.6,0.4-0.9c0.2-0.2,0.5-0.4,0.9-0.4C-4.4,22.3-4.1,22.4-3.8,22.7z
					 M-4,22.8c-0.2-0.2-0.4-0.3-0.7-0.3c-0.3,0-0.5,0.1-0.7,0.3c-0.2,0.2-0.3,0.4-0.3,0.7c0,0.3,0.1,0.5,0.3,0.7
					c0.2,0.2,0.4,0.3,0.7,0.3c0.3,0,0.5-0.1,0.7-0.3c0.2-0.2,0.3-0.4,0.3-0.7C-3.7,23.2-3.8,23-4,22.8z M-5.3,22.8h0.1h0.5
					c0.2,0,0.3,0,0.4,0.1c0.1,0.1,0.1,0.2,0.1,0.3c0,0.1,0,0.2-0.1,0.3c-0.1,0.1-0.1,0.1-0.2,0.1l0.4,0.6h-0.1h-0.1l-0.4-0.6l-0.2,0
					v0.6h-0.1h-0.1V22.8z M-5,23.4h0.3c0.1,0,0.2,0,0.2-0.1c0,0,0.1-0.1,0.1-0.2c0-0.1,0-0.1-0.1-0.2c0,0-0.1,0-0.2,0H-5V23.4z"/>
			</g>
		</g>
		<g>
			<path class="st1" d="M14.6,44.8c-1.5,0-2.7-0.5-3.6-1.4c-0.9-1-1.3-2.3-1.3-4c0-1.8,0.5-3.2,1.4-4.3c0.9-1.1,2.2-1.6,3.7-1.6
				c1.4,0,2.5,0.5,3.4,1.6c0.9,1,1.3,2.4,1.3,4.1l0,0.6h-7.9c0.1,1.1,0.3,1.9,0.7,2.5c0.5,0.7,1.3,1,2.4,1c0.7,0,1.3-0.2,1.8-0.6
				c0.5-0.4,0.8-0.9,0.9-1.5h1.8c-0.3,1.2-0.8,2.1-1.6,2.7C16.9,44.5,15.9,44.8,14.6,44.8z M17.7,38.4c-0.1-1-0.3-1.8-0.7-2.3
				c-0.5-0.6-1.2-0.9-2.2-0.9c-1,0-1.7,0.4-2.3,1.1c-0.4,0.6-0.7,1.3-0.8,2.2H17.7z"/>
			<path class="st1" d="M22,33.8h0.9h0.9v1.8c0.2-0.3,0.3-0.5,0.5-0.8c0.7-0.9,1.5-1.4,2.5-1.4c0.2,0,0.3,0,0.5,0.1v1.9l-0.4,0
				c-1,0-1.7,0.3-2.3,0.9c-0.5,0.6-0.8,1.4-0.8,2.5v5.8h-0.9H22V33.8z"/>
			<path class="st1" d="M27.4,33.8h1.1h1.1l2.9,8.8h0l3-8.8h1h1l-4,10.8h-1h-1L27.4,33.8z"/>
			<path class="st1" d="M43.2,44.8c-1.5,0-2.7-0.5-3.6-1.4c-0.9-1-1.3-2.3-1.3-4c0-1.8,0.5-3.2,1.4-4.3c0.9-1.1,2.2-1.6,3.7-1.6
				c1.4,0,2.5,0.5,3.4,1.6c0.9,1,1.3,2.4,1.3,4.1l0,0.6h-7.9c0.1,1.1,0.3,1.9,0.7,2.5c0.5,0.7,1.3,1,2.4,1c0.7,0,1.3-0.2,1.8-0.6
				c0.5-0.4,0.8-0.9,0.9-1.5H48c-0.3,1.2-0.8,2.1-1.6,2.7C45.5,44.5,44.5,44.8,43.2,44.8z M46.3,38.4c-0.1-1-0.3-1.8-0.7-2.3
				c-0.5-0.6-1.2-0.9-2.2-0.9c-1,0-1.7,0.4-2.3,1.1c-0.4,0.6-0.7,1.3-0.8,2.2H46.3z"/>
			<path class="st1" d="M50.6,33.8h0.9h0.9v1.8c0.2-0.3,0.3-0.5,0.5-0.8c0.7-0.9,1.5-1.4,2.5-1.4c0.2,0,0.3,0,0.5,0.1v1.9l-0.4,0
				c-1,0-1.7,0.3-2.3,0.9c-0.5,0.6-0.8,1.4-0.8,2.5v5.8h-0.9h-0.9V33.8z"/>
		</g>
		<g>
			<path class="st1" d="M8,29.1v2.3c0,0-1-0.9-3.1-0.9S2.1,32,2.1,32.9c0,2.9,6.7,3.8,6.7,7.7C8.8,44.5,4,45.8,0,44v-2.3
				c1,0.9,6.8,3.6,6.8-0.9c0-3.7-6.8-2.9-6.8-8.1C0.1,27.7,7,28.7,8,29.1z"/>
		</g>
		<g>
			<path class="st1" d="M-32,29.1v2.3c0,0-0.7-0.9-2.7-0.9c-2,0-2.6,1.6-2.6,2.4c0,2.9,7,3.8,7,7.7c0,3.9-5.6,5.2-8.6,3.4v-2.3
				c0,0.9,6.7,3.6,6.7-0.9c0-3.7-7.2-2.9-7.2-8.1C-39.5,27.7-33,28.7-32,29.1z"/>
		</g>
		<g>
			<path class="st1" d="M-21.9,28.8c-3.4,0-7.3,2.4-7.3,8c0,5.7,3.9,8,7.3,8c3.5,0,7.5-1.9,7.5-8C-14.4,30.7-18.4,28.8-21.9,28.8z
				 M-21.9,43.2c-2.5,0-5.4-2.3-5.4-6.5c0-4.1,2.9-6.5,5.4-6.5c2.6,0,5.5,2,5.5,6.5C-16.4,41.3-19.3,43.2-21.9,43.2z"/>
		</g>
		<g>
			<polygon class="st1" points="-20.1,44 -16.4,49 -18.8,49 -22.7,44 			"/>
		</g>
		<g>
			<polygon class="st1" points="-13,29 -11,29 -11,43 -5,43 -5,44 -13,44 			"/>
		</g>
	</g>
</g>
<g>
	<path class="st2" d="M72-36v88c0,11-9,20-20,20h-88c-6.3,0-11.9-2.9-15.5-7.5c3.4,2.8,7.8,4.5,12.5,4.5h88c11,0,20-9,20-20v-88
		c0-4.7-1.7-9.1-4.5-12.5C69.1-47.9,72-42.3,72-36z"/>
	<path class="st3" d="M67.5-48.5C64.1-51.3,59.7-53,55-53h-88c-11,0-20,9-20,20v88c0,4.7,1.7,9.1,4.5,12.5C-53.1,63.9-56,58.3-56,52
		v-88c0-11,9-20,20-20h88C58.3-56,63.9-53.1,67.5-48.5z"/>
</g>
</svg>
