<?xml version="1.0" encoding="utf-8"?>
<!-- Generator: Adobe Illustrator 18.1.0, SVG Export Plug-In . SVG Version: 6.00 Build 0)  -->
<svg version="1.1" id="图层_1" xmlns="http://www.w3.org/2000/svg" xmlns:xlink="http://www.w3.org/1999/xlink" x="0px" y="0px"
	 width="60px" height="60px" viewBox="10 -10 60 60" style="enable-background:new 10 -10 60 60;" xml:space="preserve">
<style type="text/css">
	.st0{fill:#8E9597;}
	.st1{fill:url(#SVGID_1_);}
	.st2{fill:url(#SVGID_2_);}
	.st3{fill:url(#SVGID_3_);}
	.st4{fill:#FFFFFF;}
	.st5{fill:#EAE9E8;}
	.st6{opacity:0.56;fill:#20181F;enable-background:new    ;}
	.st7{fill:none;stroke:#FFFFFF;stroke-width:1.4384;stroke-miterlimit:10;}
	.st8{fill:none;stroke:#231815;stroke-width:1.4384;stroke-miterlimit:10;}
	.st9{fill:#231815;}
	.st10{fill:none;stroke:url(#SVGID_4_);stroke-width:1.4384;stroke-miterlimit:10;}
	.st11{fill:url(#SVGID_5_);}
	.st12{fill:url(#SVGID_6_);}
	.st13{fill:none;stroke:url(#SVGID_7_);stroke-width:1.4384;stroke-miterlimit:10;}
	.st14{fill:url(#SVGID_8_);}
</style>
<g>
	<g>
		<g>
			<path class="st0" d="M53.4-8H26.5C18.5-8,12-1.5,12,6.5v27c0,8,6.5,14.5,14.5,14.5h27c8,0,14.5-6.5,14.5-14.5v-27
				C67.9-1.5,61.4-8,53.4-8z"/>
			
				<linearGradient id="SVGID_1_" gradientUnits="userSpaceOnUse" x1="20.5519" y1="38.6413" x2="83.079" y2="-22.3037" gradientTransform="matrix(0.6667 0 0 -0.6667 6.6667 26.6667)">
				<stop  offset="0" style="stop-color:#ABB0B1"/>
				<stop  offset="0.1758" style="stop-color:#FDFDFF"/>
				<stop  offset="0.2267" style="stop-color:#EAEBED"/>
				<stop  offset="0.3756" style="stop-color:#B5BABB"/>
				<stop  offset="0.4485" style="stop-color:#A1A7A8"/>
				<stop  offset="0.5425" style="stop-color:#A6ACAD"/>
				<stop  offset="0.6592" style="stop-color:#B6BABA"/>
				<stop  offset="0.7874" style="stop-color:#CFD0CF"/>
				<stop  offset="0.8061" style="stop-color:#D3D4D3"/>
				<stop  offset="1" style="stop-color:#8F9697"/>
			</linearGradient>
			<path class="st1" d="M53.4-7.4H26.5c-7.7,0-13.9,6.2-13.9,13.9v27c0,7.7,6.2,13.9,13.9,13.9h27c7.7,0,13.9-6.2,13.9-13.9v-27
				C67.3-1.2,61.1-7.4,53.4-7.4z"/>
			
				<linearGradient id="SVGID_2_" gradientUnits="userSpaceOnUse" x1="77.558" y1="-20.0011" x2="21.8414" y2="40.3402" gradientTransform="matrix(0.6667 0 0 -0.6667 6.6667 26.6667)">
				<stop  offset="0" style="stop-color:#FDFDFF"/>
				<stop  offset="0.1151" style="stop-color:#E1E3E4"/>
				<stop  offset="0.2899" style="stop-color:#BEC1C2"/>
				<stop  offset="0.4665" style="stop-color:#A2A6A7"/>
				<stop  offset="0.6434" style="stop-color:#8E9394"/>
				<stop  offset="0.821" style="stop-color:#828889"/>
				<stop  offset="1" style="stop-color:#7E8485"/>
			</linearGradient>
			<path class="st2" d="M63.9,32.4c0,6.4-5.2,11.5-11.5,11.5H27.5c-6.4,0-11.5-5.2-11.5-11.5V7.6c0-6.4,5.2-11.5,11.5-11.5h24.7
				c6.4,0,11.5,5.2,11.5,11.5L63.9,32.4L63.9,32.4z"/>
			
				<linearGradient id="SVGID_3_" gradientUnits="userSpaceOnUse" x1="22.8328" y1="37.7924" x2="76.1515" y2="-16.7031" gradientTransform="matrix(0.6667 0 0 -0.6667 6.6667 26.6667)">
				<stop  offset="0" style="stop-color:#ABB0B1"/>
				<stop  offset="0.1758" style="stop-color:#FDFDFF"/>
				<stop  offset="0.2267" style="stop-color:#EAEBED"/>
				<stop  offset="0.3756" style="stop-color:#B5BABB"/>
				<stop  offset="0.4485" style="stop-color:#A1A7A8"/>
				<stop  offset="0.5425" style="stop-color:#A6ACAD"/>
				<stop  offset="0.6592" style="stop-color:#B6BABA"/>
				<stop  offset="0.7874" style="stop-color:#CFD0CF"/>
				<stop  offset="0.8061" style="stop-color:#D3D4D3"/>
				<stop  offset="1" style="stop-color:#8F9697"/>
			</linearGradient>
			<path class="st3" d="M63.6,32.2c0,6.3-5.1,11.4-11.4,11.4H27.7c-6.2,0-11.4-5.1-11.4-11.4V7.7c0-6.3,5.1-11.4,11.4-11.4h24.5
				c6.3,0,11.4,5.1,11.4,11.4L63.6,32.2z"/>
			<path class="st4" d="M17,32.3L16.9,8.4c0-6.3,4.8-11.5,11.3-11.5l23.9-0.1c2.6,0,4.8,0.9,5.8,1.5c-1.1-1-3.5-1.7-6-1.7H28.1
				C22-3.4,16.7,1.8,16.7,7.9v23.9c0,4.2,2.3,8,5.8,9.9C19.2,39.8,17,36.3,17,32.3z"/>
			<path class="st4" d="M13,34V6.3c0-7.4,5.6-13.2,13-13.2L53.6-7c3,0,5.6,1,6.8,1.8c-1.2-1.2-4.1-2-7-2H25.8
				c-7.1,0-13.2,5.9-13.2,13.1v27.7c0,4.9,2.7,9.3,6.6,11.5C15.6,42.7,13,38.7,13,34z"/>
			<path class="st5" d="M66.7,5.9v27.5c0,7.4-5.6,13.2-13,13.2l-27.5,0.1c-3,0-5.6-1-6.7-1.8c1.2,1.2,4.1,2.1,7,2.1h27.4
				c7.1,0,13.1-5.9,13.1-13V6.3c0-4.8-2.6-9.2-6.6-11.4C64-2.8,66.7,1.2,66.7,5.9z"/>
			<path class="st6" d="M62.9,7.7L63,31.6c0,6.3-4.8,11.5-11.3,11.5l-23.9,0.1c-2.6,0-4.8-0.9-5.8-1.5c1.1,1,3.5,1.7,6,1.7h23.8
				c6.1,0,11.4-5.2,11.4-11.3v-24c0-4.2-2.3-8-5.8-9.9C60.7,0.2,62.9,3.7,62.9,7.7z"/>
		</g>
	</g>
	<g>
		<line class="st7" x1="41.2" y1="10.1" x2="41.2" y2="21.1"/>
		<path class="st4" d="M33.9,37.8h-6.6c-1.4,0-2.6-1.2-2.6-2.6v-6.6c0-1.4,1.2-2.6,2.6-2.6h6.6c1.4,0,2.6,1.2,2.6,2.6v6.6
			C36.5,36.7,35.3,37.8,33.9,37.8z"/>
		<path class="st4" d="M55.2,37.8h-6.6c-1.4,0-2.6-1.2-2.6-2.6v-6.6c0-1.4,1.2-2.6,2.6-2.6h6.6c1.4,0,2.6,1.2,2.6,2.6v6.6
			C57.8,36.7,56.7,37.8,55.2,37.8z"/>
		<polyline class="st7" points="30.5,26 30.5,21.1 52,21.1 52,26 		"/>
		<path class="st4" d="M44.5,16.1h-6.6c-1.4,0-2.6-1.2-2.6-2.6V6.9c0-1.4,1.2-2.6,2.6-2.6h6.6c1.4,0,2.6,1.2,2.6,2.6v6.6
			C47.2,14.9,45.9,16.1,44.5,16.1z"/>
	</g>
	<g>
		<line class="st8" x1="40.3" y1="9.2" x2="40.3" y2="20.1"/>
		<path class="st9" d="M32.9,36.9h-6.6c-1.4,0-2.6-1.2-2.6-2.6v-6.6c0-1.4,1.2-2.6,2.6-2.6h6.6c1.4,0,2.6,1.2,2.6,2.6v6.6
			C35.5,35.7,34.3,36.9,32.9,36.9z"/>
		<path class="st9" d="M54.3,36.9h-6.6c-1.4,0-2.6-1.2-2.6-2.6v-6.6c0-1.4,1.2-2.6,2.6-2.6h6.6c1.4,0,2.6,1.2,2.6,2.6v6.6
			C56.9,35.7,55.7,36.9,54.3,36.9z"/>
		<polyline class="st8" points="29.5,25.1 29.5,20.1 51,20.1 51,25.1 		"/>
		<path class="st9" d="M43.5,15.1h-6.6c-1.4,0-2.6-1.2-2.6-2.6V5.9c0-1.4,1.2-2.6,2.6-2.6h6.6c1.4,0,2.6,1.2,2.6,2.6v6.6
			C46.2,14,45,15.1,43.5,15.1z"/>
	</g>
	<polygon class="st9" points="52,20.1 51.5,19.6 51.2,20.3 51.7,20.4 	"/>
	<polygon class="st4" points="52.5,20.6 52,20.1 51.7,20.8 52,20.8 	"/>
	<g>
		
			<linearGradient id="SVGID_4_" gradientUnits="userSpaceOnUse" x1="50.4316" y1="17.3356" x2="51.8699" y2="17.3356" gradientTransform="matrix(0.6667 0 0 -0.6667 6.6667 26.6667)">
			<stop  offset="0" style="stop-color:#949393"/>
			<stop  offset="0.2696" style="stop-color:#7C7C7D"/>
			<stop  offset="0.7478" style="stop-color:#56575B"/>
			<stop  offset="1" style="stop-color:#48494E"/>
		</linearGradient>
		<line class="st10" x1="40.8" y1="9.6" x2="40.8" y2="20.6"/>
		
			<linearGradient id="SVGID_5_" gradientUnits="userSpaceOnUse" x1="26.2402" y1="-7.1884" x2="43.98" y2="-7.1884" gradientTransform="matrix(0.6667 0 0 -0.6667 6.6667 26.6667)">
			<stop  offset="0" style="stop-color:#949393"/>
			<stop  offset="0.2696" style="stop-color:#7C7C7D"/>
			<stop  offset="0.7478" style="stop-color:#56575B"/>
			<stop  offset="1" style="stop-color:#48494E"/>
		</linearGradient>
		<path class="st11" d="M33.4,37.4h-6.6c-1.4,0-2.6-1.2-2.6-2.6v-6.6c0-1.4,1.2-2.6,2.6-2.6h6.6c1.4,0,2.6,1.2,2.6,2.6v6.6
			C36,36.2,34.8,37.4,33.4,37.4z"/>
		
			<linearGradient id="SVGID_6_" gradientUnits="userSpaceOnUse" x1="58.3215" y1="-7.1884" x2="76.0614" y2="-7.1884" gradientTransform="matrix(0.6667 0 0 -0.6667 6.6667 26.6667)">
			<stop  offset="0" style="stop-color:#949393"/>
			<stop  offset="0.2696" style="stop-color:#7C7C7D"/>
			<stop  offset="0.7478" style="stop-color:#56575B"/>
			<stop  offset="1" style="stop-color:#48494E"/>
		</linearGradient>
		<path class="st12" d="M54.8,37.4h-6.6c-1.4,0-2.6-1.2-2.6-2.6v-6.6c0-1.4,1.2-2.6,2.6-2.6h6.6c1.4,0,2.6,1.2,2.6,2.6v6.6
			C57.4,36.2,56.2,37.4,54.8,37.4z"/>
		
			<linearGradient id="SVGID_7_" gradientUnits="userSpaceOnUse" x1="34.3909" y1="5.7568" x2="67.9106" y2="5.7568" gradientTransform="matrix(0.6667 0 0 -0.6667 6.6667 26.6667)">
			<stop  offset="0" style="stop-color:#949393"/>
			<stop  offset="0.2696" style="stop-color:#7C7C7D"/>
			<stop  offset="0.7478" style="stop-color:#56575B"/>
			<stop  offset="1" style="stop-color:#48494E"/>
		</linearGradient>
		<polyline class="st13" points="30,25.6 30,20.6 51.5,20.6 51.5,25.6 		"/>
		
			<linearGradient id="SVGID_8_" gradientUnits="userSpaceOnUse" x1="42.2809" y1="25.4623" x2="60.0207" y2="25.4623" gradientTransform="matrix(0.6667 0 0 -0.6667 6.6667 26.6667)">
			<stop  offset="0" style="stop-color:#949393"/>
			<stop  offset="0.2696" style="stop-color:#7C7C7D"/>
			<stop  offset="0.7478" style="stop-color:#56575B"/>
			<stop  offset="1" style="stop-color:#48494E"/>
		</linearGradient>
		<path class="st14" d="M44,15.6h-6.6c-1.4,0-2.6-1.2-2.6-2.6V6.4c0-1.4,1.2-2.6,2.6-2.6H44c1.4,0,2.6,1.2,2.6,2.6V13
			C46.7,14.4,45.5,15.6,44,15.6z"/>
	</g>
</g>
</svg>
