<?xml version="1.0" encoding="utf-8"?>
<!-- Generator: Adobe Illustrator 18.1.0, SVG Export Plug-In . SVG Version: 6.00 Build 0)  -->
<svg version="1.1" id="图层_1" xmlns="http://www.w3.org/2000/svg" xmlns:xlink="http://www.w3.org/1999/xlink" x="0px" y="0px"
	 width="40px" height="40px" viewBox="-12 -12 40 40" style="enable-background:new -12 -12 40 40;" xml:space="preserve">
<style type="text/css">
	.st0{fill:#FFB630;}
	.st1{fill:#FFFFFF;}
	.st2{opacity:0.35;}
	.st3{opacity:0.24;fill:#FFFFFF;}
</style>
<g>
	<path class="st0" d="M28,21.8c0,3.5-2.7,6.2-6.2,6.2H-5.7c-3.5,0-6.3-2.8-6.3-6.2V-5.7c0-3.5,2.9-6.3,6.3-6.3h27.5
		c3.5,0,6.2,2.8,6.2,6.3V21.8z"/>
	<g>
		<path class="st1" d="M4.5-0.3l0.4-1c0.3-0.7,0.8-1,1.5-0.9c0.7,0.3,1,0.8,0.9,1.5L7.2-0.3h9.2c0.6,0.1,0.9,0.5,0.9,1.2
			c-0.1,0.8-0.4,1.2-0.9,1.3H6.5L5.7,4.3h11.4c0.6,0.1,1,0.5,1,1.2c-0.1,0.7-0.4,1.1-1,1.2h-12L4.5,8.5C4.4,8.9,4.4,9,4.7,9H15
			c0.7,0,1.2,0.3,1.4,0.8c0.2,0.6,0.1,1.1-0.4,1.6c-1,1-2.5,2.2-4.4,3.6c0.4,0.1,0.9,0.2,1.6,0.3c0.5,0.2,0.9,0.3,1.2,0.3
			c0.9,0.3,1.3,0.8,1.2,1.6c-0.2,0.7-0.8,1-1.8,0.8c-4.4-1.2-7.9-2-10.5-2.4c-0.8-0.2-1.2-0.7-1.1-1.5c0.2-0.7,0.7-1,1.5-0.9
			C4,13.4,4.7,13.5,6,13.7c1.3,0.2,2,0.4,2.3,0.4c1.5-1,2.6-1.8,3.2-2.3c0.2-0.1,0.3-0.2,0.3-0.3c0-0.1-0.1-0.1-0.3-0.1H3
			c-1.4,0-1.9-0.6-1.5-1.8l0.9-2.9H-1C-1.6,6.7-1.9,6.3-2,5.5C-1.9,4.8-1.6,4.4-1,4.3h4.2l0.7-2.1h-3.9c-0.6-0.1-1-0.5-1-1.3
			c0.1-0.7,0.4-1.1,1-1.2H4.5z"/>
	</g>
</g>
<g>
	<path class="st2" d="M28-5.8v27.5c0,3.4-2.8,6.3-6.3,6.3H-5.8c-2,0-3.7-0.9-4.9-2.3c1.1,0.9,2.4,1.4,3.9,1.4h27.5
		c3.4,0,6.3-2.8,6.3-6.3V-6.7c0-1.5-0.5-2.8-1.4-3.9C27.1-9.5,28-7.7,28-5.8z"/>
	<path class="st3" d="M26.6-9.7c-1.1-0.9-2.4-1.4-3.9-1.4H-4.8c-3.4,0-6.3,2.8-6.3,6.3v27.5c0,1.5,0.5,2.8,1.4,3.9
		c-1.4-1.1-2.3-2.9-2.3-4.9V-5.8c0-3.4,2.8-6.3,6.3-6.3h27.5C23.7-12,25.5-11.1,26.6-9.7z"/>
</g>
</svg>
