<?xml version="1.0" encoding="utf-8"?>
<!-- Generator: Adobe Illustrator 18.1.0, SVG Export Plug-In . SVG Version: 6.00 Build 0)  -->
<svg version="1.1" id="图层_1" xmlns="http://www.w3.org/2000/svg" xmlns:xlink="http://www.w3.org/1999/xlink" x="0px" y="0px"
	 width="40px" height="40px" viewBox="-12 -12 40 40" style="enable-background:new -12 -12 40 40;" xml:space="preserve">
<style type="text/css">
	.st0{fill:#7C76CE;}
	.st1{fill:#FFFFFF;}
	.st2{opacity:0.35;}
	.st3{opacity:0.24;fill:#FFFFFF;}
</style>
<g>
	<path class="st0" d="M28,21.8c0,3.5-2.7,6.2-6.2,6.2H-5.7c-3.5,0-6.3-2.8-6.3-6.2V-5.7c0-3.5,2.9-6.3,6.3-6.3h27.5
		c3.5,0,6.2,2.8,6.2,6.3V21.8z"/>
	<g>
		<path class="st1" d="M2.7,9.4c0,1.1-0.3,1.9-1,2.5c-0.7,0.6-1.6,0.9-2.9,0.9c-1.2,0-2.2-0.3-2.9-0.9c-0.7-0.6-1-1.4-1-2.5V3.2h1h1
			v6.1c0,0.6,0.2,1.1,0.5,1.4c0.3,0.3,0.8,0.5,1.4,0.5S0,11,0.3,10.7c0.3-0.3,0.5-0.8,0.5-1.4V3.2h1h1V9.4z"/>
		<path class="st1" d="M4.7,3.2h1h3.5c1.1,0,1.9,0.2,2.5,0.7c0.6,0.4,0.8,1.1,0.8,2c0,0.8-0.3,1.5-0.8,1.9c-0.2,0.1-0.4,0.3-0.6,0.4
			c0.1,0,0.2,0.1,0.3,0.1c0.6,0.4,0.9,1,0.9,1.9v1.1c0,0.4,0,0.7,0.1,0.8c0.1,0.2,0.2,0.3,0.3,0.3v0.2h-2.2
			c-0.1-0.2-0.1-0.4-0.2-0.7c0-0.3-0.1-0.6-0.1-0.9l0-0.5c0-0.5-0.1-0.9-0.3-1.1C9.8,9,9.4,8.9,8.9,8.9H6.7v3.7h-1h-1V3.2z M6.7,7.3
			H9c0.5,0,0.9-0.1,1.2-0.3c0.3-0.2,0.4-0.5,0.4-1c0-0.4-0.1-0.8-0.3-1C10,4.9,9.6,4.8,9.1,4.8H6.7V7.3z"/>
		<path class="st1" d="M14.3,12.6V3.2h1h1v7.8h4.8v0.8v0.8H14.3z"/>
	</g>
</g>
<g>
	<path class="st2" d="M28-5.8v27.5c0,3.4-2.8,6.3-6.3,6.3H-5.8c-2,0-3.7-0.9-4.9-2.3c1.1,0.9,2.4,1.4,3.9,1.4h27.5
		c3.4,0,6.3-2.8,6.3-6.3V-6.7c0-1.5-0.5-2.8-1.4-3.9C27.1-9.5,28-7.7,28-5.8z"/>
	<path class="st3" d="M26.6-9.7c-1.1-0.9-2.4-1.4-3.9-1.4H-4.8c-3.4,0-6.3,2.8-6.3,6.3v27.5c0,1.5,0.5,2.8,1.4,3.9
		c-1.4-1.1-2.3-2.9-2.3-4.9V-5.8c0-3.4,2.8-6.3,6.3-6.3h27.5C23.7-12,25.5-11.1,26.6-9.7z"/>
</g>
</svg>
