<?xml version="1.0" encoding="utf-8"?>
<!-- Generator: Adobe Illustrator 18.1.0, SVG Export Plug-In . SVG Version: 6.00 Build 0)  -->
<svg version="1.1" id="图层_1" xmlns="http://www.w3.org/2000/svg" xmlns:xlink="http://www.w3.org/1999/xlink" x="0px" y="0px"
	 width="40px" height="40px" viewBox="-12 -12 40 40" style="enable-background:new -12 -12 40 40;" xml:space="preserve">
<style type="text/css">
	.st0{fill:#0070D3;}
	.st1{opacity:0.55;fill-rule:evenodd;clip-rule:evenodd;fill:#FFFFFF;}
	.st2{fill-rule:evenodd;clip-rule:evenodd;fill:#FFFFFF;}
	.st3{fill-rule:evenodd;clip-rule:evenodd;fill:#0070D3;}
	.st4{opacity:0.35;}
	.st5{opacity:0.24;fill:#FFFFFF;}
</style>
<g>
	<path class="st0" d="M28,21.8c0,3.5-2.8,6.3-6.3,6.3H-5.8c-3.5,0-6.3-2.8-6.3-6.3V-5.8c0-3.5,2.8-6.3,6.3-6.3h27.5
		c3.5,0,6.3,2.8,6.3,6.3V21.8z"/>
	<g>
		<g>
			<g>
				<path class="st1" d="M23.7,4.3c-1-0.4-2-0.4-3.1-0.3c-1.8,0.2-3.6,0.7-5.3,1.5c0.1,0.4,0.3,0.7,0.4,1.1c0.2,0.9,0.3,1.9,0.3,2.9
					C16,9.6,16,9.8,16,10c-0.1,0.3-0.1,0.6-0.2,0.9c-0.3,1.2-0.7,2.2-1.4,3.2l0,0c-0.2,0.2-0.3,0.4-0.5,0.6
					c-0.1,0.1-0.3,0.3-0.4,0.4c0,0-0.1,0.1-0.1,0.1c-0.1,0.1-0.3,0.2-0.4,0.4l0,0l0,0c-0.8,0.7-1.7,1.3-2.7,1.7
					c-0.1,0-0.2,0.1-0.3,0.1c-0.1,0-0.1,0-0.2,0c-0.1,0-0.2,0-0.2,0.1c0.1,0,0.1,0,0.2,0l0,0c0.1,0,0.1,0,0.2-0.1h0
					c0.1,0,0.3,0,0.4-0.1l0,0c0.3,0,0.5-0.1,0.7-0.2c2.4-0.8,4.7-1.8,6.8-3.2c2.1-1.4,4.1-3,5.6-5c0.6-0.8,1.1-1.6,1.3-2.6
					C25,5.5,24.6,4.7,23.7,4.3z"/>
				<path class="st2" d="M16,9.4C16,9.6,16,9.8,16,10c-0.1,0.3-0.1,0.6-0.2,0.9c-0.3,1.2-0.7,2.2-1.4,3.2c-0.2,0.2-0.3,0.4-0.4,0.6
					c-0.1,0.1-0.3,0.3-0.4,0.4c0,0-0.1,0.1-0.1,0.1c-0.1,0.1-0.3,0.3-0.4,0.4c-0.8,0.7-1.7,1.3-2.7,1.7c-0.1,0-0.2,0.1-0.3,0.1
					c-0.1,0-0.1,0-0.2,0c-0.1,0-0.2,0-0.2,0.1c-0.5,0.1-1.1,0.3-1.6,0.3c-2.1,0.2-4-0.2-5.8-1.3c-2.4-1.5-3.8-3.6-4.2-6.3
					C-2.3,8.1-1.8,6-0.6,4.1c0.1-0.1,0.2-0.2,0.4-0.2c1.5,0,3,0,4.5,0c0.3,0,0.5-0.1,0.8-0.3c0.1-0.1,0.3-0.2,0.4-0.4c0,0,0,0,0-0.1
					H0.1c0-0.1,0.1-0.2,0.1-0.3c1.9-2.1,4.3-3.2,7.2-3.1C9.9,0,12,1,13.6,2.8c0.7,0.7,1.2,1.5,1.6,2.4c0,0.1,0.1,0.1,0.1,0.2
					c0.1,0.4,0.3,0.8,0.4,1.1C15.9,7.5,16.1,8.4,16,9.4z"/>
				<path class="st2" d="M-6.2,11.6c0.2-0.5,0.3-1,0.5-1.6C-5.3,8.9-5,7.8-4.6,6.7c0.1-0.2,0-0.3-0.1-0.4c-1.3-1-2.7-1.9-4-2.9
					c-0.1,0-0.1-0.1-0.2-0.2c0.1-0.1,0.2,0,0.3,0c1.6,0,3.2,0,4.9,0c0.3,0,0.3,0,0.2,0.3c-0.1,0.3-0.2,0.3-0.5,0.3
					c-0.9,0-1.7,0-2.6,0c-0.1,0-0.2,0-0.3,0c0.4,0.3,0.8,0.6,1.2,0.9c0.6,0.4,1.2,0.9,1.8,1.3c0.1,0.1,0.2,0.2,0.1,0.4
					c-0.5,1.4-1,2.9-1.4,4.3c-0.1,0.2-0.2,0.4-0.4,0.5C-5.8,11.4-6,11.5-6.2,11.6C-6.1,11.6-6.2,11.6-6.2,11.6z"/>
				<path class="st2" d="M-1.7-2c0.3,0.8,0.5,1.6,0.8,2.3C-0.7,1.2-0.4,2-0.1,2.9C-0.1,3.1,0,3.3-0.2,3.4c-0.1,0.1-0.2,0.3-0.3,0.3
					c-0.1,0-0.1-0.2-0.2-0.4C-1.1,2-1.6,0.6-2-0.8c0-0.1-0.1-0.2,0-0.4C-1.9-1.5-1.9-1.7-1.7-2C-1.8-2-1.7-2-1.7-2z"/>
				<g>
					<g>
						<g>
							<path class="st3" d="M1.4,9.8C1.1,8.9,0.8,8,0.5,7.1c-0.1-0.2,0-0.3,0.1-0.4c0.4-0.3,0.4-0.3,0.6,0.2c0.5,1.5,0.9,3,1.4,4.5
								c0,0.1,0.1,0.2,0,0.3c-0.1,0-0.2,0-0.2-0.1c-1.4-1-2.8-2-4.1-3c-0.2-0.1-0.2-0.2,0-0.3c0.5-0.3,0.5-0.3,1,0
								c0.6,0.5,1.2,0.9,1.9,1.4C1.2,9.8,1.3,9.8,1.4,9.8C1.3,9.8,1.4,9.8,1.4,9.8z"/>
						</g>
						<g>
							<path class="st3" d="M4.4,5.1c0.1-0.2,0.1-0.4,0.3-0.6C5,4.1,5.4,4.2,5.6,4.6C5.8,5,5.9,5.5,6.1,5.9c0.1,0.2,0.1,0.5,0.4,0.3
								c0.1,0,0.1,0.1,0,0.1C6.3,6.5,6,6.7,5.7,6.9c0,0-0.1,0-0.1,0c0,0,0-0.1,0-0.1c0.2-0.2,0.2-0.4,0.1-0.6
								C5.6,5.9,5.4,5.5,5.3,5.1C5.2,5,5.2,4.8,5,4.8C4.8,4.8,4.8,4.9,4.7,5C4.5,5.3,4.4,5.5,4.6,5.8C4.7,6.1,4.8,6.5,5,6.9
								C5,7,5.1,7.2,5.3,7.1c0,0,0.1,0,0.1,0c0,0,0,0.1,0,0.1C5.1,7.4,4.9,7.6,4.6,7.8c0,0-0.1,0-0.1,0c0,0,0-0.1,0-0.1
								c0.2-0.1,0.2-0.3,0.1-0.5C4.4,6.7,4.2,6.3,4.1,5.8C4,5.7,3.9,5.5,3.8,5.7c0,0-0.1,0.1-0.1,0c0,0,0-0.1,0-0.1
								C3.8,5.4,3.9,5.1,4.1,5C4.3,4.8,4.3,5,4.3,5.1C4.4,5.1,4.4,5.2,4.4,5.1z"/>
						</g>
						<g>
							<path class="st3" d="M8,4.9C7.9,5.1,7.8,5.4,7.7,5.5C7.4,5.9,7,5.9,6.8,5.5C6.6,5,6.5,4.6,6.3,4.2C6.2,4,6.2,3.7,5.9,3.9
								c0,0-0.1,0-0.1,0c0,0,0-0.1,0-0.1C6,3.6,6.2,3.5,6.4,3.3c0.1-0.1,0.1,0.1,0.2,0.1c0.2,0.5,0.3,0.9,0.5,1.4
								C7.1,5,7.2,5.3,7.4,5.3c0.3,0,0.3-0.2,0.4-0.4c0.1-0.2,0.1-0.4,0-0.6C7.7,3.9,7.6,3.5,7.4,3.2C7.4,3,7.3,2.9,7.1,3
								C7,3,7,3,7,3c0,0,0-0.1,0-0.1c0.2-0.1,0.3-0.3,0.5-0.4c0.1-0.1,0.2,0,0.2,0.1C7.9,3.1,8.1,3.5,8.2,4c0,0.1,0.1,0.2,0.1,0.3
								c0.1,0.1,0.1,0.3,0.3,0.1c0,0,0.1-0.1,0.1,0c0,0,0,0.1,0,0.1C8.6,4.7,8.5,4.9,8.3,5.1C8.1,5.3,8.2,5,8.1,5C8,4.9,8,4.8,8,4.9
								z"/>
						</g>
						<g>
							<g>
								<path class="st3" d="M4,7.4c0-0.1,0-0.2-0.1-0.2c-0.1,0-0.1,0.1-0.1,0.2c0,0.1,0,0.1,0,0.2C3.7,7.9,3.5,8.2,3.2,8.2
									C2.9,8.3,2.7,8.1,2.5,7.7C2.4,7.6,2.4,7.5,2.6,7.4c0.3-0.2,0.7-0.5,1-0.7c0.1-0.1,0.1-0.1,0.1-0.2C3.6,6,3.1,5.8,2.8,6
									C2.6,6,2.4,6.2,2.3,6.4C1.8,7,1.9,8.1,2.4,8.6c0.3,0.3,0.8,0.3,1.1,0C3.9,8.3,4,7.9,4,7.5C4,7.5,4,7.4,4,7.4z M2.3,7.3
									c-0.1,0,0-0.2-0.1-0.2c0-0.2,0.1-0.4,0.2-0.6c0.2-0.2,0.4-0.2,0.6,0c0.1,0.1,0.2,0.3,0,0.4C2.8,6.9,2.7,7,2.5,7.1
									C2.5,7.2,2.4,7.3,2.3,7.3z"/>
							</g>
						</g>
						<g>
							<path class="st3" d="M9.4,3C9.3,3,9.1,3,8.9,3C8.7,3,8.5,2.9,8.5,2.7C8.2,2.2,8.5,1.6,9,1.4c0.1,0,0.2,0,0.3-0.2
								c0.1-0.2,0.2-0.1,0.2,0c0.1,0.2,0.1,0.3,0.2,0.5c0,0.1,0,0.1,0,0.2C9.6,2,9.6,1.9,9.5,1.8c-0.3-0.3-0.6-0.3-0.8,0
								C8.5,2.1,8.7,2.4,9,2.4c0.2,0,0.3,0,0.5,0c0.6-0.1,0.9,0.3,0.8,0.8C10.2,3.6,10,4,9.6,4.1C9.5,4.2,9.3,4.2,9.2,4.4
								c0,0.1-0.1,0-0.1,0C9,4.1,8.9,3.9,8.9,3.7c0-0.1,0-0.1,0-0.2c0.1,0,0.1,0,0.1,0.1c0,0,0.1,0.1,0.1,0.1c0.2,0.2,0.4,0.2,0.6,0
								C9.9,3.7,10,3.5,10,3.2C9.9,3,9.7,3,9.4,3z"/>
						</g>
					</g>
				</g>
				<path class="st2" d="M8,4.9C8,4.9,8,4.8,8,4.9c0.1-0.1,0.1,0,0.1,0C8,4.9,8,4.9,8,4.9z"/>
				<path class="st2" d="M4.4,5.1C4.4,5.2,4.4,5.2,4.4,5.1c-0.1,0.1-0.1,0-0.1-0.1C4.4,5.1,4.4,5.1,4.4,5.1z"/>
			</g>
		</g>
	</g>
</g>
<g>
	<path class="st4" d="M28-5.8v27.5c0,3.4-2.8,6.3-6.3,6.3H-5.8c-2,0-3.7-0.9-4.9-2.3c1.1,0.9,2.4,1.4,3.9,1.4h27.5
		c3.4,0,6.3-2.8,6.3-6.3V-6.7c0-1.5-0.5-2.8-1.4-3.9C27.1-9.5,28-7.7,28-5.8z"/>
	<path class="st5" d="M26.6-9.7c-1.1-0.9-2.4-1.4-3.9-1.4H-4.8c-3.4,0-6.3,2.8-6.3,6.3v27.5c0,1.5,0.5,2.8,1.4,3.9
		c-1.4-1.1-2.3-2.9-2.3-4.9V-5.8c0-3.4,2.8-6.3,6.3-6.3h27.5C23.7-12,25.5-11.1,26.6-9.7z"/>
</g>
</svg>
