<?xml version="1.0" encoding="utf-8"?>
<!-- Generator: Adobe Illustrator 18.1.0, SVG Export Plug-In . SVG Version: 6.00 Build 0)  -->
<svg version="1.1" id="图层_1" xmlns="http://www.w3.org/2000/svg" xmlns:xlink="http://www.w3.org/1999/xlink" x="0px" y="0px"
	 width="40px" height="40px" viewBox="-12 -12 40 40" style="enable-background:new -12 -12 40 40;" xml:space="preserve">
<style type="text/css">
	.st0{fill:#1F5FA3;}
	.st1{fill:#FFFFFF;}
	.st2{opacity:0.35;}
	.st3{opacity:0.24;fill:#FFFFFF;}
</style>
<g>
	<path class="st0" d="M28,21.8c0,3.5-2.7,6.2-6.2,6.2H-5.7c-3.5,0-6.3-2.8-6.3-6.2V-5.7c0-3.5,2.9-6.3,6.3-6.3h27.5
		c3.5,0,6.2,2.8,6.2,6.3V21.8z"/>
	<path class="st1" d="M5.5,8C4.3,7.4,3.1,7.1,2.1,7.1c-0.1,0-0.3,0-0.4,0C0.2,7.2-1.1,7.6-1.9,7.9C-2.1,7.9-2.3,8-2.6,8.1l-2.2,7.8
		c1.5-0.6,2.9-0.8,4.2-0.8c2,0,3.5,0.8,4.7,1.5c0.6-2,2-6.7,2.4-8.1C6.1,8.3,5.8,8.2,5.5,8L5.5,8z M8.4,10l-2.3,7.9
		c0.7,0.4,2.9,1.6,4.7,1.6c1.4,0,3-0.4,4.8-1.1l2.2-7.6c-1.5,0.5-2.9,0.7-4.2,0.7C11.2,11.5,9.5,10.7,8.4,10L8.4,10z M2.5,4.4
		c1.9,0,3.4,0.8,4.5,1.5L9.4-2C8.9-2.3,7.6-3,6.7-3.2C6.1-3.4,5.4-3.4,4.7-3.4c-1.3,0-2.7,0.3-4.3,1l-2.2,7.8
		C-0.2,4.7,1.2,4.4,2.5,4.4C2.5,4.4,2.5,4.4,2.5,4.4L2.5,4.4z M20.8,0.1C19.3,0.7,17.9,1,16.5,1c-2.3,0-4-0.8-5.1-1.6l-2.3,8
		c1.5,1,3.2,1.5,5,1.5c1.4,0,2.9-0.3,4.4-1l0-0.1l0.1,0L20.8,0.1L20.8,0.1z"/>
</g>
<g>
	<path class="st2" d="M28-5.8v27.5c0,3.4-2.8,6.3-6.3,6.3H-5.8c-2,0-3.7-0.9-4.9-2.3c1.1,0.9,2.4,1.4,3.9,1.4h27.5
		c3.4,0,6.3-2.8,6.3-6.3V-6.7c0-1.5-0.5-2.8-1.4-3.9C27.1-9.5,28-7.7,28-5.8z"/>
	<path class="st3" d="M26.6-9.7c-1.1-0.9-2.4-1.4-3.9-1.4H-4.8c-3.4,0-6.3,2.8-6.3,6.3v27.5c0,1.5,0.5,2.8,1.4,3.9
		c-1.4-1.1-2.3-2.9-2.3-4.9V-5.8c0-3.4,2.8-6.3,6.3-6.3h27.5C23.7-12,25.5-11.1,26.6-9.7z"/>
</g>
</svg>
