<?xml version="1.0" encoding="utf-8"?>
<!-- Generator: Adobe Illustrator 16.0.0, SVG Export Plug-In . SVG Version: 6.00 Build 0)  -->
<!DOCTYPE svg PUBLIC "-//W3C//DTD SVG 1.1//EN" "http://www.w3.org/Graphics/SVG/1.1/DTD/svg11.dtd">
<svg version="1.1" id="图层_1" xmlns="http://www.w3.org/2000/svg" xmlns:xlink="http://www.w3.org/1999/xlink" x="0px" y="0px"
	 width="100px" height="100px" viewBox="0 0 100 100" style="enable-background:new 0 0 100 100;" xml:space="preserve">
<style type="text/css">
<![CDATA[
	.st0{opacity:0;fill:#FFFFFF;}
	.st1{fill:url(#SVGID_1_);}
]]>
</style>
<rect class="st0" width="100" height="100"/>
<linearGradient id="SVGID_1_" gradientUnits="userSpaceOnUse" x1="50.0005" y1="90.1416" x2="50.0005" y2="9.8589">
	<stop  offset="0" style="stop-color:#64ED33"/>
	<stop  offset="1" style="stop-color:#DBF9F3"/>
</linearGradient>
<path class="st1" d="M90.1,30V20H9.9V30H90.1z M90.1,80V50H9.9v30H90.1z M90.1,9.9c2.8,0,5.2,1,7,2.9c1.9,2,2.8,4.3,2.8,7.2V80
	c0,2.8-0.9,5.2-2.8,7.2c-1.9,2-4.2,2.9-7,2.9H9.9c-2.8,0-5.2-1-7-2.9C0.9,85.3,0,82.9,0,80V20c0-2.8,0.9-5.2,2.8-7.2
	c1.9-2,4.2-2.9,7-2.9H90.1z"/>
</svg>
