<?xml version="1.0" encoding="utf-8"?>
<!-- Generator: Adobe Illustrator 16.0.0, SVG Export Plug-In . SVG Version: 6.00 Build 0)  -->
<!DOCTYPE svg PUBLIC "-//W3C//DTD SVG 1.1//EN" "http://www.w3.org/Graphics/SVG/1.1/DTD/svg11.dtd">
<svg version="1.1" id="图层_1" xmlns="http://www.w3.org/2000/svg" xmlns:xlink="http://www.w3.org/1999/xlink" x="0px" y="0px"
	 width="100px" height="100px" viewBox="0 0 100 100" style="enable-background:new 0 0 100 100;" xml:space="preserve">
<style type="text/css">
<![CDATA[
	.st0{opacity:0;fill:#FFFFFF;}
	.st1{fill:url(#SVGID_1_);}
]]>
</style>
<rect class="st0" width="100" height="100"/>
<g>
	<linearGradient id="SVGID_1_" gradientUnits="userSpaceOnUse" x1="50.0005" y1="90.8496" x2="50.0005" y2="9.1504">
		<stop  offset="0" style="stop-color:#64ED33"/>
		<stop  offset="1" style="stop-color:#DBF9F3"/>
	</linearGradient>
	<path class="st1" d="M54.6,41.1c-0.8-0.7-1.9-1-3.5-1h-7.6v8h7.3c1.6,0,2.9-0.3,3.7-1c0.8-0.7,1.2-1.7,1.2-3
		C55.8,42.7,55.4,41.7,54.6,41.1z M54.6,41.1c-0.8-0.7-1.9-1-3.5-1h-7.6v8h7.3c1.6,0,2.9-0.3,3.7-1c0.8-0.7,1.2-1.7,1.2-3
		C55.8,42.7,55.4,41.7,54.6,41.1z M97.3,11.8c-1.8-1.8-3.9-2.7-6.5-2.7H9.1c-2.5,0-4.7,0.9-6.5,2.7S0,15.8,0,18.3v63.4
		c0,2.4,0.9,4.5,2.7,6.4c1.8,1.8,3.9,2.8,6.5,2.8h81.7c2.6,0,4.7-0.9,6.5-2.8c1.8-1.8,2.7-4,2.7-6.4V18.3
		C100,15.8,99.1,13.6,97.3,11.8z M32.1,65.1h-23V34.9h22.3v5.4h-16v6.4h14.8v5.2H15.4v7.9h16.7V65.1z M62.6,65.1h-7
		c-0.2-0.3-0.3-1-0.4-2C55,62,55,60.9,55,59.7l0-2.8c0-1.4-0.4-2.3-1.2-2.9c-0.8-0.6-2.1-0.9-3.9-0.9h-6.3v12h-6.3V34.9h15.3
		c2.9,0,5.2,0.8,7,2.3c1.8,1.5,2.6,3.6,2.6,6.1c0,2.9-1,5-2.9,6.4c-0.5,0.4-1.1,0.7-1.8,0.9c0.4,0.1,0.7,0.3,1,0.5
		c1.7,1,2.6,2.8,2.7,5.2l0.1,5c0,1,0.1,1.7,0.3,2.1c0.2,0.4,0.5,0.8,1,1V65.1z M88.2,51.8c-1.8,1.7-4.4,2.5-7.9,2.5
		c-2.4,0-4.6,0-6.3,0v10.8h-6.3V34.9h12.7c3.4,0,6.1,0.8,7.9,2.4c1.8,1.6,2.7,4,2.7,7.1C90.9,47.6,90,50.1,88.2,51.8z M79.3,40.1H74
		v9h5.3c1.8,0,3.1-0.4,4-1.2c0.9-0.8,1.3-2,1.3-3.5c0-1.4-0.4-2.5-1.3-3.3C82.4,40.4,81,40.1,79.3,40.1z M51.1,40.1h-7.6v8h7.3
		c1.6,0,2.9-0.3,3.7-1c0.8-0.7,1.2-1.7,1.2-3c0-1.3-0.4-2.3-1.2-3C53.8,40.4,52.7,40.1,51.1,40.1z"/>
</g>
</svg>
