<?xml version="1.0" encoding="utf-8"?>
<!-- Generator: Adobe Illustrator 16.0.0, SVG Export Plug-In . SVG Version: 6.00 Build 0)  -->
<!DOCTYPE svg PUBLIC "-//W3C//DTD SVG 1.1//EN" "http://www.w3.org/Graphics/SVG/1.1/DTD/svg11.dtd">
<svg version="1.1" id="图层_1" xmlns="http://www.w3.org/2000/svg" xmlns:xlink="http://www.w3.org/1999/xlink" x="0px" y="0px"
	 width="100px" height="100px" viewBox="0 0 100 100" style="enable-background:new 0 0 100 100;" xml:space="preserve">
<style type="text/css">
<![CDATA[
	.st0{opacity:0;fill:#FFFFFF;}
	.st1{fill:url(#SVGID_1_);}
]]>
</style>
<rect class="st0" width="100" height="100"/>
<linearGradient id="SVGID_1_" gradientUnits="userSpaceOnUse" x1="50.0005" y1="84.0908" x2="50.0005" y2="15.9097">
	<stop  offset="0" style="stop-color:#64ED33"/>
	<stop  offset="1" style="stop-color:#DBF9F3"/>
</linearGradient>
<path class="st1" d="M4.5,25h90.9v4.5H4.5V25L4.5,25z M0,84.1h100v-50H0V84.1z M51.8,61c-0.3-0.3-0.8-0.6-1.4-1
	c-0.6-0.4-1.4-0.8-2.4-1.2c-2-0.9-3.3-1.7-3.9-2.5c-1-1.1-1.5-2.5-1.5-4c0-0.7,0.1-1.4,0.4-2.1s0.6-1.2,1-1.7s1-1,1.7-1.3
	c0.7-0.4,1.4-0.7,2.2-0.9v-3h2.7v3c1.2,0.2,2.2,0.6,3,1.2c0.8,0.6,1.5,1.5,2.2,2.8l-3,1.7c-0.9-1.6-2.1-2.5-3.5-2.5
	c-0.9,0-1.7,0.3-2.3,0.8c-0.6,0.5-0.9,1.2-0.9,2c0,0.7,0.2,1.3,0.7,1.8c0.5,0.5,1.4,1,2.9,1.7c1.2,0.6,2.3,1.1,3.1,1.6
	c0.8,0.5,1.4,1,1.8,1.4c1.2,1.3,1.7,2.8,1.7,4.6c0,1.8-0.5,3.3-1.6,4.6c-1,1.3-2.4,2.2-4.2,2.7v3.2h-2.7v-3.1c-2-0.3-3.6-1-4.6-2.1
	c-1.1-1.1-1.8-2.7-2.3-4.9l3.4-0.7c0.5,1.6,1,2.7,1.7,3.3c0.7,0.6,1.6,1,2.8,1c1.1,0,2.1-0.4,2.8-1.1c0.8-0.7,1.1-1.7,1.1-2.8
	C52.8,62.4,52.5,61.6,51.8,61z M9.1,15.9h81.8v4.5H9.1V15.9z"/>
</svg>
