<?xml version="1.0" encoding="utf-8"?>
<!-- Generator: Adobe Illustrator 16.0.0, SVG Export Plug-In . SVG Version: 6.00 Build 0)  -->
<!DOCTYPE svg PUBLIC "-//W3C//DTD SVG 1.1//EN" "http://www.w3.org/Graphics/SVG/1.1/DTD/svg11.dtd">
<svg version="1.1" id="图层_1" xmlns="http://www.w3.org/2000/svg" xmlns:xlink="http://www.w3.org/1999/xlink" x="0px" y="0px"
	 width="100px" height="100px" viewBox="0 0 100 100" style="enable-background:new 0 0 100 100;" xml:space="preserve">
<style type="text/css">
<![CDATA[
	.st0{opacity:0;fill:#FFFFFF;}
	.st1{fill:url(#SVGID_1_);}
]]>
</style>
<rect class="st0" width="100" height="100"/>
<linearGradient id="SVGID_1_" gradientUnits="userSpaceOnUse" x1="50.0005" y1="100" x2="50.0005" y2="4.882813e-004">
	<stop  offset="0" style="stop-color:#64ED33"/>
	<stop  offset="1" style="stop-color:#DBF9F3"/>
</linearGradient>
<path class="st1" d="M100,50c0-27.6-22.4-50-50-50S0,22.4,0,50c0,27.6,22.4,50,50,50S100,77.6,100,50z M47.3,49.4
	c-2.2-6.3-5-2.8-5.7-4.5c-1.3-3.2-9.4-10.1-8.2-14.5c0.9-3.4-8-6.2-12.4-2.4c1.7-2.1,1.7-10.8,6.4-9.9c3.8,0.8,6.3-0.9,8.7-0.6
	c4.6,0.6,2.6,1.7,6.9,2.8c2.4,0.6,7.6-2.2,11.3-1c1,0.3,2,1.9,0.8,3.6c-1,1.4-6.3,1.3-4.3,3c1.7,1.4,4.7,4,7.3,4.5
	c2.6,0.5-0.2-5.9,2.2-6.6c2.4-0.7,10.8,6,9.7,6.6c-2.5,1.5,3.6,1.8,2.6,2.8c-0.4,0.4-7.4-2.4-7.8-1.4c-1.3,2.8,2.5,0.9,1.7,3.1
	c-0.2,0.6-1.6,0.1-2.3,0.7c-1.9,1.6-4.2,4.1-4.7,4.4c-2.3,2-0.8,3.1-1.5,3.8c-0.7,0.6-1.6-1.9-2.2-1.4c-2.1,1.7-5.5,1.1-5.5,2.5
	s3.5,1.4,4.7,2c1.6,0.8,0.9,2.5,1.3,2.5c2.6,0,4.9,4.4,4.9,4.4s1.8,1.7,4.5,1.5c7.1-0.6,7.3,4.3,7.3,4.3c2.6-0.8,6.4,1.6,4.9,2.8
	c-3.1,2.4-3,6.2-3,6.2c-2,1.5-13,10.2-11.7,13.4c-1.3,1.8,0.2,3.7-1.3,4.7c-2.5,1.5-6.2-5.1-3.1-5.9c-0.5-0.6-1.1-1.7,0-3.5
	c0.5-0.8,0.3-5.2,0.6-9.9c-12.9-9.4,0.2-12.5-2.4-14c-0.8-0.5-2.3-2.6-4.9-3.1C50.1,50,47.7,51.3,47.3,49.4z"/>
</svg>
