<?xml version="1.0" encoding="utf-8"?>
<!-- Generator: Adobe Illustrator 16.0.0, SVG Export Plug-In . SVG Version: 6.00 Build 0)  -->
<!DOCTYPE svg PUBLIC "-//W3C//DTD SVG 1.1//EN" "http://www.w3.org/Graphics/SVG/1.1/DTD/svg11.dtd">
<svg version="1.1" id="图层_1" xmlns="http://www.w3.org/2000/svg" xmlns:xlink="http://www.w3.org/1999/xlink" x="0px" y="0px"
	 width="100px" height="100px" viewBox="0 0 100 100" style="enable-background:new 0 0 100 100;" xml:space="preserve">
<style type="text/css">
<![CDATA[
	.st0{opacity:0;fill:#FFFFFF;}
	.st1{fill:url(#SVGID_1_);}
]]>
</style>
<rect class="st0" width="100" height="100"/>
<linearGradient id="SVGID_1_" gradientUnits="userSpaceOnUse" x1="50.0005" y1="100" x2="50.0005" y2="4.882813e-004">
	<stop  offset="0" style="stop-color:#64ED33"/>
	<stop  offset="1" style="stop-color:#DBF9F3"/>
</linearGradient>
<path class="st1" d="M54.9,64.3c4.2-1.3,7.4-4.4,9.4-9.4H100c-1.3,12-6,22.3-14.2,30.8c-8.2,8.5-18.5,13.2-30.9,14.3V64.3z
	 M64.3,45.1c-1.9-5-5-8.1-9.4-9.4V0c12.4,1.1,22.7,5.9,30.9,14.3C94,22.8,98.7,33,100,45.1H64.3z M45.1,35.7c-2.7,1.1-5,3-7,5.6
	C36,44,35,46.9,35,50c0,3.1,1,6,3.1,8.7c2,2.7,4.4,4.5,7,5.6V100c-12.7-1.3-23.4-6.7-32-16.2C4.3,74.3,0,63,0,50
	c0-13,4.3-24.3,13-33.8C21.7,6.7,32.4,1.3,45.1,0V35.7z"/>
</svg>
