<?xml version="1.0" encoding="utf-8"?>
<!-- Generator: Adobe Illustrator 16.0.0, SVG Export Plug-In . SVG Version: 6.00 Build 0)  -->
<!DOCTYPE svg PUBLIC "-//W3C//DTD SVG 1.1//EN" "http://www.w3.org/Graphics/SVG/1.1/DTD/svg11.dtd">
<svg version="1.1" id="图层_1" xmlns="http://www.w3.org/2000/svg" xmlns:xlink="http://www.w3.org/1999/xlink" x="0px" y="0px"
	 width="100px" height="100px" viewBox="0 0 100 100" style="enable-background:new 0 0 100 100;" xml:space="preserve">
<style type="text/css">
<![CDATA[
	.st0{opacity:0;fill:#FFFFFF;}
	.st1{fill:url(#SVGID_1_);}
]]>
</style>
<rect class="st0" width="100" height="100"/>
<linearGradient id="SVGID_1_" gradientUnits="userSpaceOnUse" x1="50.0005" y1="100.0029" x2="50.0005" y2="-2.441406e-003">
	<stop  offset="0" style="stop-color:#64ED33"/>
	<stop  offset="1" style="stop-color:#DBF9F3"/>
</linearGradient>
<path class="st1" d="M90,40c-4.3,0-8,2.8-9.4,6.7h-9.2c-0.5-3.5-1.9-6.7-3.9-9.4l6.5-6.5c1.3,0.6,2.8,1,4.3,1c2.7,0,5.2-1,7.1-2.9
	c3.9-3.9,3.9-10.2,0-14.1c-3.8-3.8-10.4-3.8-14.1,0c-3.1,3.1-3.7,7.6-1.9,11.3l-6.5,6.5c-2.7-2-5.9-3.4-9.4-3.9v-9.2
	C57.2,18,60,14.3,60,10c0-5.5-4.5-10-10-10c-5.5,0-10,4.5-10,10c0,4.3,2.8,8,6.7,9.4v9.2c-3.5,0.5-6.7,1.9-9.4,3.9L30.7,26
	c1.8-3.7,1.1-8.3-1.9-11.3c-3.8-3.8-10.4-3.8-14.1,0c-3.9,3.9-3.9,10.2,0,14.1c1.9,1.9,4.4,2.9,7.1,2.9c1.5,0,3-0.4,4.3-1l6.5,6.5
	c-2,2.7-3.4,5.9-3.9,9.4h-9.2C18,42.8,14.3,40,10,40C4.5,40,0,44.5,0,50c0,5.5,4.5,10,10,10c4.3,0,8-2.8,9.4-6.7h9.2
	c0.5,3.5,1.9,6.7,3.9,9.4L26,69.3c-3.7-1.7-8.4-1.1-11.3,1.9c-3.9,3.9-3.9,10.2,0,14.1c1.9,1.9,4.4,2.9,7.1,2.9s5.2-1,7.1-2.9
	c3.1-3.1,3.7-7.6,1.9-11.3l6.5-6.5c2.7,2,5.9,3.4,9.4,3.9v9.2C42.8,82,40,85.7,40,90c0,5.5,4.5,10,10,10c5.5,0,10-4.5,10-10
	c0-4.3-2.8-8-6.7-9.4v-9.2c3.5-0.5,6.7-1.9,9.4-3.9l6.5,6.5c-1.8,3.7-1.1,8.3,1.9,11.3c1.9,1.9,4.4,2.9,7.1,2.9c2.7,0,5.2-1,7.1-2.9
	c3.9-3.9,3.9-10.2,0-14.1c-3-3-7.6-3.6-11.3-1.9l-6.6-6.6c2-2.7,3.4-5.9,3.9-9.4h9.2C82,57.2,85.7,60,90,60c5.5,0,10-4.5,10-10
	C100,44.5,95.5,40,90,40z"/>
</svg>
