<?xml version="1.0" encoding="utf-8"?>
<!-- Generator: Adobe Illustrator 16.0.0, SVG Export Plug-In . SVG Version: 6.00 Build 0)  -->
<!DOCTYPE svg PUBLIC "-//W3C//DTD SVG 1.1//EN" "http://www.w3.org/Graphics/SVG/1.1/DTD/svg11.dtd">
<svg version="1.1" id="图层_1" xmlns="http://www.w3.org/2000/svg" xmlns:xlink="http://www.w3.org/1999/xlink" x="0px" y="0px"
	 width="100px" height="100px" viewBox="0 0 100 100" style="enable-background:new 0 0 100 100;" xml:space="preserve">
<style type="text/css">
<![CDATA[
	.st0{opacity:0;fill:#FFFFFF;}
	.st1{fill:url(#SVGID_1_);}
	.st2{fill:url(#SVGID_2_);}
	.st3{fill:url(#SVGID_3_);}
	.st4{fill:url(#SVGID_4_);}
	.st5{fill:url(#SVGID_5_);}
	.st6{fill:url(#SVGID_6_);}
	.st7{fill:url(#SVGID_7_);}
]]>
</style>
<rect class="st0" width="100" height="100"/>
<g>
	<linearGradient id="SVGID_1_" gradientUnits="userSpaceOnUse" x1="7.707" y1="49.2305" x2="7.707" y2="33.084">
		<stop  offset="0" style="stop-color:#64ED33"/>
		<stop  offset="1" style="stop-color:#DBF9F3"/>
	</linearGradient>
	<rect y="33.1" class="st1" width="15.4" height="16.1"/>
	<linearGradient id="SVGID_2_" gradientUnits="userSpaceOnUse" x1="45.6919" y1="49.2305" x2="45.6919" y2="33.084">
		<stop  offset="0" style="stop-color:#64ED33"/>
		<stop  offset="1" style="stop-color:#DBF9F3"/>
	</linearGradient>
	<polygon class="st2" points="63.3,47.7 62.4,49.2 25.5,49.2 25.5,33.1 65.9,33.1 65.9,45.1 	"/>
	<linearGradient id="SVGID_3_" gradientUnits="userSpaceOnUse" x1="20.2769" y1="72.6465" x2="20.2769" y2="56.9336">
		<stop  offset="0" style="stop-color:#64ED33"/>
		<stop  offset="1" style="stop-color:#DBF9F3"/>
	</linearGradient>
	<rect y="56.9" class="st3" width="40.6" height="15.7"/>
	<linearGradient id="SVGID_4_" gradientUnits="userSpaceOnUse" x1="54.959" y1="72.6465" x2="54.959" y2="56.9336">
		<stop  offset="0" style="stop-color:#64ED33"/>
		<stop  offset="1" style="stop-color:#DBF9F3"/>
	</linearGradient>
	<path class="st4" d="M59.3,72.6h-8.6V56.9h8.6c0,0-1.5,0-1.7,7.9C57.4,72.6,59.3,72.6,59.3,72.6z"/>
	<linearGradient id="SVGID_5_" gradientUnits="userSpaceOnUse" x1="7.707" y1="94.8311" x2="7.707" y2="79.8564">
		<stop  offset="0" style="stop-color:#64ED33"/>
		<stop  offset="1" style="stop-color:#DBF9F3"/>
	</linearGradient>
	<rect y="79.9" class="st5" width="15.4" height="15"/>
	<linearGradient id="SVGID_6_" gradientUnits="userSpaceOnUse" x1="45.6919" y1="94.8311" x2="45.6919" y2="79.8564">
		<stop  offset="0" style="stop-color:#64ED33"/>
		<stop  offset="1" style="stop-color:#DBF9F3"/>
	</linearGradient>
	<polygon class="st6" points="65.9,94.8 25.5,94.8 25.5,79.9 60.9,79.9 62.6,84.3 65.9,91.9 	"/>
	<linearGradient id="SVGID_7_" gradientUnits="userSpaceOnUse" x1="81.1191" y1="93.5361" x2="81.1191" y2="5.1694">
		<stop  offset="0" style="stop-color:#64ED33"/>
		<stop  offset="1" style="stop-color:#DBF9F3"/>
	</linearGradient>
	<path class="st7" d="M81.7,31.2c0,0,4.4,7-3.9,14.2c0,0-8.3,8.4-2.8,14.6c0,0,9.5,9.4,15.6-5.7c0,0,3.7-6.3-5-25.7
		c0,0-9-14.8,3.9-23.5c0,0-8.6,9.1-1.5,17.4c0,0,23.1,23.7,5,50.1c0,0-9.3,14.2-21.4,20.9c0,0-12-18.7-8.8-34.4
		c0,0,0.4-9.1,11.9-16.5C74.7,42.7,81.3,38.4,81.7,31.2z"/>
</g>
</svg>
