<?xml version="1.0" encoding="utf-8"?>
<!-- Generator: Adobe Illustrator 16.0.0, SVG Export Plug-In . SVG Version: 6.00 Build 0)  -->
<!DOCTYPE svg PUBLIC "-//W3C//DTD SVG 1.1//EN" "http://www.w3.org/Graphics/SVG/1.1/DTD/svg11.dtd">
<svg version="1.1" id="图层_1" xmlns="http://www.w3.org/2000/svg" xmlns:xlink="http://www.w3.org/1999/xlink" x="0px" y="0px"
	 width="100px" height="100px" viewBox="0 0 100 100" style="enable-background:new 0 0 100 100;" xml:space="preserve">
<style type="text/css">
<![CDATA[
	.st0{opacity:0;fill:#FFFFFF;}
	.st1{fill:url(#SVGID_1_);}
]]>
</style>
<rect class="st0" width="100" height="100"/>
<linearGradient id="SVGID_1_" gradientUnits="userSpaceOnUse" x1="50.0005" y1="100" x2="50.0005" y2="4.882813e-004">
	<stop  offset="0" style="stop-color:#64ED33"/>
	<stop  offset="1" style="stop-color:#DBF9F3"/>
</linearGradient>
<path class="st1" d="M31.3,89.5l5.7-5.5l15.8,15.8L50,100c-13,0-24.3-4.4-33.9-13.3S1.2,67,0.2,54.1h6.3c0.8,7.8,3.4,14.8,7.8,21.1
	S24.3,86.2,31.3,89.5L31.3,89.5z M61.7,88.3l26.6-26.6l-50-50L11.7,38.3L61.7,88.3z M42.6,7.2l50.2,50.2c1.3,1.2,2,2.6,2,4.3
	s-0.7,3.2-2,4.5L66.2,92.8c-1.2,1.3-2.6,2-4.3,2c-1.7,0-3.2-0.7-4.5-2L7.2,42.6c-1.3-1.2-2-2.6-2-4.3c0-1.7,0.7-3.2,2-4.5L33.8,7.2
	c1.2-1.3,2.6-2,4.3-2C39.8,5.3,41.3,5.9,42.6,7.2L42.6,7.2z M68.8,10.5L63.1,16L47.3,0.2L50,0c13,0,24.3,4.4,33.9,13.3
	S98.8,33,99.8,45.9h-6.3c-0.8-7.8-3.4-14.8-7.8-21.1S75.7,13.8,68.8,10.5z"/>
</svg>
