<?xml version="1.0" encoding="utf-8"?>
<!-- Generator: Adobe Illustrator 18.1.0, SVG Export Plug-In . SVG Version: 6.00 Build 0)  -->
<svg version="1.1" id="图层_1" xmlns="http://www.w3.org/2000/svg" xmlns:xlink="http://www.w3.org/1999/xlink" x="0px" y="0px"
	 width="18px" height="18px" viewBox="0 0 18 18" style="enable-background:new 0 0 18 18;" xml:space="preserve">
<style type="text/css">
	.st0{fill:#8E9597;}
	.st1{fill:url(#SVGID_1_);}
	.st2{fill:url(#SVGID_2_);}
	.st3{fill:url(#SVGID_3_);}
	.st4{fill:#5D5D5D;}
	.st5{fill:#818687;}
	.st6{fill:#FFFFFF;}
	.st7{fill:url(#SVGID_4_);}
	.st8{fill:#231815;}
</style>
<g>
	<path class="st0" d="M9.5,11.9c0.1,0.2,0.2,0.3,0.2,0.6c0,0.3-0.1,0.5-0.3,0.7c-0.2,0.2-0.4,0.3-0.7,0.3c-0.3,0-0.6-0.1-0.8-0.3
		c0,0,0,0,0,0c0,0,0,0,0,0c0,0-0.1-0.1-0.1-0.1l0,0c-0.1-0.2-0.2-0.3-0.2-0.6c0-0.3,0.1-0.5,0.3-0.7c0.2-0.2,0.5-0.3,0.7-0.3
		c0.3,0,0.5,0.1,0.7,0.3l0,0C9.4,11.8,9.4,11.8,9.5,11.9C9.5,11.8,9.5,11.8,9.5,11.9C9.5,11.9,9.5,11.9,9.5,11.9z"/>
	<path class="st0" d="M11.3,6.5c0,0.1,0,0.1,0,0.2c0,0.2,0,0.3,0,0.4c0,0.1,0,0.2-0.1,0.3c0,0.1-0.1,0.3-0.2,0.4
		c-0.1,0.2-0.3,0.4-0.5,0.7c-0.1,0.1-0.2,0.2-0.3,0.3c-0.1,0-0.1,0.1-0.2,0.1C9.9,9,9.8,9.1,9.7,9.2c0,0-0.1,0.1-0.1,0.1
		C9.5,9.4,9.5,9.5,9.4,9.5c0,0.1-0.1,0.1-0.1,0.1c0,0,0,0.1-0.1,0.1c-0.1,0.1-0.1,0.3-0.1,0.4c0,0,0,0.1,0,0.1c0,0.1,0,0.2,0.1,0.3
		c0,0,0,0.1,0.1,0.1H7.9c0,0,0-0.1,0-0.1c0,0,0-0.1,0-0.1c0-0.2-0.1-0.4-0.1-0.6c0-0.2,0-0.4,0.1-0.6c0-0.1,0-0.1,0.1-0.2
		c0,0,0,0,0,0C8,9.1,8.1,8.9,8.2,8.8c0.1-0.1,0.1-0.1,0.2-0.2c0.1-0.1,0.1-0.1,0.2-0.2c0.1-0.1,0.2-0.1,0.3-0.2c0,0,0.1-0.1,0.1-0.1
		C9,8,9.1,7.9,9.2,7.9c0.1-0.1,0.1-0.2,0.2-0.3c0-0.1,0.1-0.2,0.1-0.2c0,0,0,0,0,0c0-0.1,0-0.1,0-0.2c0-0.1,0-0.2,0-0.3
		c0,0,0-0.1,0-0.1c0,0,0-0.1,0-0.1c0,0,0,0,0-0.1c0,0,0,0,0,0c0,0,0,0,0-0.1c0,0,0-0.1-0.1-0.1c0,0,0,0,0-0.1l0,0
		c0,0-0.1-0.1-0.1-0.1c0,0,0,0,0,0c0,0,0,0,0,0c0,0,0,0-0.1,0c0,0,0,0-0.1,0C9,6.2,9,6.1,8.9,6.1c0,0,0,0-0.1,0c0,0-0.1,0-0.1,0
		c0,0-0.1,0-0.1,0c0,0-0.1,0-0.1,0c-0.2,0-0.4,0-0.6,0.1c-0.2,0-0.3,0.1-0.5,0.2C7.3,6.4,7.2,6.5,7,6.6C6.9,6.6,6.9,6.7,6.8,6.8
		c0,0-0.1,0.1-0.1,0.1V5.2C7.3,4.8,8,4.6,8.8,4.6c0.8,0,1.4,0.2,1.9,0.6h0c0.1,0.1,0.2,0.1,0.2,0.2c0,0,0,0,0,0c0,0,0.1,0.1,0.1,0.1
		c0,0.1,0.1,0.1,0.1,0.2c0,0.1,0.1,0.1,0.1,0.2c0,0,0,0.1,0.1,0.2c0,0,0,0,0,0.1c0,0.1,0,0.1,0,0.2c0,0,0,0,0,0
		C11.3,6.3,11.3,6.4,11.3,6.5z"/>
	<path class="st0" d="M9,1C4.6,1,1,4.6,1,9c0,4.4,3.6,8,8,8c4.4,0,8-3.6,8-8C17,4.6,13.4,1,9,1z M15.2,9c0,3.4-2.8,6.2-6.2,6.2
		c-3.4,0-6.2-2.8-6.2-6.2c0-3.4,2.8-6.2,6.2-6.2C12.4,2.8,15.2,5.6,15.2,9z"/>
	<linearGradient id="SVGID_1_" gradientUnits="userSpaceOnUse" x1="8.0633" y1="11.8063" x2="9.3117" y2="13.0823">
		<stop  offset="0" style="stop-color:#ABB0B1"/>
		<stop  offset="0.1758" style="stop-color:#FDFDFF"/>
		<stop  offset="0.2267" style="stop-color:#EAEBED"/>
		<stop  offset="0.3756" style="stop-color:#B5BABB"/>
		<stop  offset="0.4485" style="stop-color:#A1A7A8"/>
		<stop  offset="0.5425" style="stop-color:#A6ACAD"/>
		<stop  offset="0.6592" style="stop-color:#B6BABA"/>
		<stop  offset="0.7874" style="stop-color:#CFD0CF"/>
		<stop  offset="0.8061" style="stop-color:#D3D4D3"/>
		<stop  offset="1" style="stop-color:#8F9697"/>
	</linearGradient>
	<path class="st1" d="M9.5,11.9c0.1,0.2,0.2,0.3,0.2,0.6c0,0.3-0.1,0.5-0.3,0.7c-0.2,0.2-0.4,0.3-0.7,0.3c-0.3,0-0.6-0.1-0.8-0.3
		c0,0,0,0,0,0c0,0,0,0,0,0c0,0-0.1-0.1-0.1-0.1l0,0c-0.1-0.2-0.2-0.3-0.2-0.6c0-0.3,0.1-0.5,0.3-0.7c0.2-0.2,0.5-0.3,0.7-0.3
		c0.3,0,0.5,0.1,0.7,0.3l0,0C9.4,11.8,9.4,11.8,9.5,11.9C9.5,11.8,9.5,11.8,9.5,11.9C9.5,11.9,9.5,11.9,9.5,11.9z"/>
	<linearGradient id="SVGID_2_" gradientUnits="userSpaceOnUse" x1="6.7851" y1="5.4454" x2="10.4625" y2="9.204">
		<stop  offset="0" style="stop-color:#ABB0B1"/>
		<stop  offset="0.1758" style="stop-color:#FDFDFF"/>
		<stop  offset="0.2267" style="stop-color:#EAEBED"/>
		<stop  offset="0.3756" style="stop-color:#B5BABB"/>
		<stop  offset="0.4485" style="stop-color:#A1A7A8"/>
		<stop  offset="0.5425" style="stop-color:#A6ACAD"/>
		<stop  offset="0.6592" style="stop-color:#B6BABA"/>
		<stop  offset="0.7874" style="stop-color:#CFD0CF"/>
		<stop  offset="0.8061" style="stop-color:#D3D4D3"/>
		<stop  offset="1" style="stop-color:#8F9697"/>
	</linearGradient>
	<path class="st2" d="M11.3,6.5c0,0.1,0,0.1,0,0.2c0,0.2,0,0.3,0,0.4c0,0.1,0,0.2-0.1,0.3c0,0.1-0.1,0.3-0.2,0.4
		c-0.1,0.2-0.3,0.4-0.5,0.7c-0.1,0.1-0.2,0.2-0.3,0.3c-0.1,0-0.1,0.1-0.2,0.1C9.9,9,9.8,9.1,9.7,9.2c0,0-0.1,0.1-0.1,0.1
		C9.5,9.4,9.5,9.5,9.4,9.5c0,0.1-0.1,0.1-0.1,0.1c0,0,0,0.1-0.1,0.1c-0.1,0.1-0.1,0.3-0.1,0.4c0,0,0,0.1,0,0.1c0,0.1,0,0.2,0.1,0.3
		c0,0,0,0.1,0.1,0.1H7.9c0,0,0-0.1,0-0.1c0,0,0-0.1,0-0.1c0-0.2-0.1-0.4-0.1-0.6c0-0.2,0-0.4,0.1-0.6c0-0.1,0-0.1,0.1-0.2
		c0,0,0,0,0,0C8,9.1,8.1,8.9,8.2,8.8c0.1-0.1,0.1-0.1,0.2-0.2c0.1-0.1,0.1-0.1,0.2-0.2c0.1-0.1,0.2-0.1,0.3-0.2c0,0,0.1-0.1,0.1-0.1
		C9,8,9.1,7.9,9.2,7.9c0.1-0.1,0.1-0.2,0.2-0.3c0-0.1,0.1-0.2,0.1-0.2c0,0,0,0,0,0c0-0.1,0-0.1,0-0.2c0-0.1,0-0.2,0-0.3
		c0,0,0-0.1,0-0.1c0,0,0-0.1,0-0.1c0,0,0,0,0-0.1c0,0,0,0,0,0c0,0,0,0,0-0.1c0,0,0-0.1-0.1-0.1c0,0,0,0,0-0.1l0,0
		c0,0-0.1-0.1-0.1-0.1c0,0,0,0,0,0c0,0,0,0,0,0c0,0,0,0-0.1,0c0,0,0,0-0.1,0C9,6.2,9,6.1,8.9,6.1c0,0,0,0-0.1,0c0,0-0.1,0-0.1,0
		c0,0-0.1,0-0.1,0c0,0-0.1,0-0.1,0c-0.2,0-0.4,0-0.6,0.1c-0.2,0-0.3,0.1-0.5,0.2C7.3,6.4,7.2,6.5,7,6.6C6.9,6.6,6.9,6.7,6.8,6.8
		c0,0-0.1,0.1-0.1,0.1V5.2C7.3,4.8,8,4.6,8.8,4.6c0.8,0,1.4,0.2,1.9,0.6h0c0.1,0.1,0.2,0.1,0.2,0.2c0,0,0,0,0,0c0,0,0.1,0.1,0.1,0.1
		c0,0.1,0.1,0.1,0.1,0.2c0,0.1,0.1,0.1,0.1,0.2c0,0,0,0.1,0.1,0.2c0,0,0,0,0,0.1c0,0.1,0,0.1,0,0.2c0,0,0,0,0,0
		C11.3,6.3,11.3,6.4,11.3,6.5z"/>
	<linearGradient id="SVGID_3_" gradientUnits="userSpaceOnUse" x1="4.1159" y1="4.006" x2="13.7204" y2="13.8225">
		<stop  offset="0" style="stop-color:#ABB0B1"/>
		<stop  offset="0.1758" style="stop-color:#FDFDFF"/>
		<stop  offset="0.2267" style="stop-color:#EAEBED"/>
		<stop  offset="0.3756" style="stop-color:#B5BABB"/>
		<stop  offset="0.4485" style="stop-color:#A1A7A8"/>
		<stop  offset="0.5425" style="stop-color:#A6ACAD"/>
		<stop  offset="0.6592" style="stop-color:#B6BABA"/>
		<stop  offset="0.7874" style="stop-color:#CFD0CF"/>
		<stop  offset="0.8061" style="stop-color:#D3D4D3"/>
		<stop  offset="1" style="stop-color:#8F9697"/>
	</linearGradient>
	<path class="st3" d="M9.1,1.3C9,1.3,9,1.3,9.1,1.3c-0.1,0-0.1,0-0.1,0c-2.1,0-4,0.9-5.4,2.3C2.1,4.9,1.3,6.9,1.3,9
		c0,2.1,0.9,4.1,2.3,5.5c1.4,1.4,3.3,2.3,5.4,2.3c0,0,0,0,0.1,0c0,0,0,0,0.1,0c4.2,0,7.7-3.5,7.7-7.7C16.7,4.7,13.3,1.3,9.1,1.3z
		 M9,15.2c-3.4,0-6.2-2.8-6.2-6.2c0-3.4,2.8-6.2,6.2-6.2c3.4,0,6.2,2.8,6.2,6.2C15.2,12.4,12.4,15.2,9,15.2z"/>
	<path class="st4" d="M9.5,11.9c0.1,0.2,0.2,0.3,0.2,0.6c0,0.3-0.1,0.5-0.3,0.7c-0.2,0.2-0.4,0.3-0.7,0.3c-0.3,0-0.6-0.1-0.8-0.3
		c0,0,0,0,0,0c0,0,0,0,0,0c0,0-0.1-0.1-0.1-0.1l0,0c-0.1-0.2-0.2-0.3-0.2-0.6c0-0.3,0.1-0.5,0.3-0.7c0.2-0.2,0.5-0.3,0.7-0.3
		c0.3,0,0.5,0.1,0.7,0.3l0,0C9.4,11.8,9.4,11.8,9.5,11.9C9.5,11.8,9.5,11.8,9.5,11.9C9.5,11.9,9.5,11.9,9.5,11.9z"/>
	<path class="st4" d="M11.3,6.7c0,0.2,0,0.3,0,0.4c0,0.1,0,0.2-0.1,0.3c0,0.1-0.1,0.3-0.2,0.4c-0.1,0.2-0.3,0.4-0.5,0.7
		c-0.1,0.1-0.2,0.2-0.3,0.3c-0.1,0-0.1,0.1-0.2,0.1C9.9,9,9.8,9.1,9.7,9.2c0,0-0.1,0.1-0.1,0.1C9.5,9.4,9.5,9.5,9.4,9.5
		c0,0.1-0.1,0.1-0.1,0.1c0,0,0,0.1-0.1,0.1c-0.1,0.1-0.1,0.3-0.1,0.4c0,0,0,0.1,0,0.1c0,0.1,0,0.2,0.1,0.3c0,0,0,0.1,0.1,0.1H7.9
		c0,0,0-0.1,0-0.1c0,0,0-0.1,0-0.1c0-0.2-0.1-0.4-0.1-0.6c0-0.2,0-0.4,0.1-0.6c0-0.1,0-0.1,0.1-0.2c0,0,0,0,0,0
		C8,9.1,8.1,8.9,8.2,8.8c0.1-0.1,0.1-0.1,0.2-0.2c0.1-0.1,0.1-0.1,0.2-0.2c0.1-0.1,0.2-0.1,0.3-0.2c0,0,0.1-0.1,0.1-0.1
		C9,8,9.1,7.9,9.2,7.9c0.1-0.1,0.1-0.2,0.2-0.3c0-0.1,0.1-0.2,0.1-0.2c0,0,0,0,0,0c0-0.1,0-0.1,0-0.2c0-0.1,0-0.2,0-0.3
		c0,0,0-0.1,0-0.1c0,0,0-0.1,0-0.1c0,0,0,0,0-0.1c0,0,0,0,0,0c0,0,0,0,0-0.1c0,0,0-0.1-0.1-0.1c0,0,0,0,0-0.1l0,0
		c0,0-0.1-0.1-0.1-0.1c0,0,0,0,0,0c0,0,0,0,0,0c0,0,0,0-0.1,0c0,0,0,0-0.1,0C9,6.2,9,6.1,8.9,6.1c0,0,0,0-0.1,0c0,0-0.1,0-0.1,0
		c0,0-0.1,0-0.1,0c0,0-0.1,0-0.1,0c-0.2,0-0.4,0-0.6,0.1c-0.2,0-0.3,0.1-0.5,0.2C7.3,6.4,7.2,6.5,7,6.6C6.9,6.6,6.9,6.7,6.8,6.8
		c0,0-0.1,0.1-0.1,0.1V5.2C7.3,4.8,8,4.6,8.8,4.6c0.8,0,1.4,0.2,1.9,0.6h0c0.1,0.1,0.2,0.1,0.2,0.2c0,0,0,0,0,0c0,0,0.1,0.1,0.1,0.1
		c0,0.1,0.1,0.1,0.1,0.2c0,0.1,0.1,0.1,0.1,0.2c0,0,0,0.1,0.1,0.2c0,0,0,0,0,0.1c0,0.1,0,0.1,0,0.2c0,0,0,0,0,0c0,0.1,0,0.1,0,0.2
		C11.3,6.6,11.3,6.6,11.3,6.7z"/>
	<path class="st5" d="M16.7,9c0,4.3-3.5,7.7-7.7,7.7c0,0,0,0-0.1,0c4.3,0,7.7-3.5,7.7-7.7c0-4.3-3.4-7.7-7.7-7.7c0,0,0,0,0.1,0
		C13.3,1.3,16.7,4.7,16.7,9z"/>
	<path class="st6" d="M9.1,16.7C9,16.7,9,16.7,9.1,16.7c-4.3,0-7.8-3.5-7.8-7.7c0-4.3,3.5-7.7,7.7-7.7c0,0,0,0,0.1,0
		C4.8,1.3,1.4,4.7,1.4,9C1.4,13.3,4.8,16.7,9.1,16.7z"/>
	<g>
		<linearGradient id="SVGID_4_" gradientUnits="userSpaceOnUse" x1="6.6739" y1="8.9987" x2="11.3288" y2="8.9987">
			<stop  offset="0" style="stop-color:#FDFDFF"/>
			<stop  offset="0.3045" style="stop-color:#D8DADC"/>
			<stop  offset="0.7714" style="stop-color:#A3A9AA"/>
			<stop  offset="1" style="stop-color:#8F9697"/>
		</linearGradient>
		<path class="st7" d="M9.5,11.9C9.5,11.9,9.5,11.9,9.5,11.9C9.5,11.8,9.5,11.8,9.5,11.9c-0.1-0.1-0.1-0.1-0.1-0.1l0,0
			c-0.2-0.2-0.4-0.3-0.7-0.3c-0.3,0-0.5,0.1-0.7,0.3c-0.2,0.2-0.3,0.4-0.3,0.7c0,0.2,0.1,0.4,0.2,0.6l0,0c0,0,0.1,0.1,0.1,0.1
			c0,0,0,0,0,0c0.2,0.2,0.5,0.3,0.8,0.3c0.3,0,0.5-0.1,0.7-0.3c0.2-0.2,0.3-0.4,0.3-0.7C9.7,12.2,9.7,12,9.5,11.9z M11.3,6.5
			c0-0.1,0-0.1,0-0.2c0,0,0,0,0,0c0-0.1,0-0.1,0-0.2c0,0,0,0,0-0.1c0-0.1,0-0.1-0.1-0.2c0-0.1-0.1-0.1-0.1-0.2
			c0-0.1-0.1-0.1-0.1-0.2c0-0.1-0.1-0.1-0.1-0.1c0,0,0,0,0,0c-0.1-0.1-0.1-0.1-0.2-0.2h0c-0.5-0.4-1.1-0.6-1.9-0.6
			C8,4.6,7.3,4.8,6.7,5.2v1.7c0,0,0.1-0.1,0.1-0.1C6.9,6.7,6.9,6.6,7,6.6c0.1-0.1,0.3-0.2,0.5-0.3c0.2-0.1,0.3-0.1,0.5-0.2
			c0.2-0.1,0.4-0.1,0.6-0.1c0,0,0.1,0,0.1,0c0,0,0.1,0,0.1,0c0,0,0.1,0,0.1,0c0,0,0,0,0.1,0c0.1,0,0.1,0,0.2,0.1c0,0,0,0,0.1,0
			c0,0,0,0,0.1,0c0,0,0,0,0,0c0,0,0,0,0,0c0,0,0.1,0.1,0.1,0.1l0,0c0,0,0,0,0,0.1c0,0,0,0.1,0.1,0.1c0,0,0,0,0,0.1c0,0,0,0,0,0
			c0,0,0,0,0,0.1c0,0,0,0.1,0,0.1c0,0,0,0.1,0,0.1c0,0.1,0,0.2,0,0.3c0,0.1,0,0.1,0,0.2c0,0,0,0,0,0c0,0.1-0.1,0.2-0.1,0.2
			c0,0.1-0.1,0.2-0.2,0.3C9.1,7.9,9,8,9,8.1c0,0-0.1,0.1-0.1,0.1C8.8,8.3,8.7,8.3,8.6,8.4C8.5,8.5,8.5,8.5,8.4,8.6
			C8.3,8.7,8.3,8.7,8.2,8.8C8.1,8.9,8,9.1,7.9,9.3c0,0,0,0,0,0c0,0.1-0.1,0.1-0.1,0.2c-0.1,0.2-0.1,0.4-0.1,0.6c0,0.2,0,0.4,0.1,0.6
			c0,0,0,0.1,0,0.1c0,0,0,0.1,0,0.1h1.5c0,0,0-0.1-0.1-0.1c0-0.1-0.1-0.2-0.1-0.3c0,0,0-0.1,0-0.1c0-0.1,0-0.3,0.1-0.4
			c0,0,0-0.1,0.1-0.1c0,0,0.1-0.1,0.1-0.1c0-0.1,0.1-0.1,0.1-0.2c0,0,0.1-0.1,0.1-0.1C9.8,9.1,9.9,9,10.1,8.9c0.1,0,0.1-0.1,0.2-0.1
			c0.1-0.1,0.2-0.2,0.3-0.3c0.2-0.2,0.4-0.4,0.5-0.7c0.1-0.1,0.1-0.3,0.2-0.4c0-0.1,0.1-0.2,0.1-0.3c0-0.1,0-0.3,0-0.4
			C11.3,6.6,11.3,6.6,11.3,6.5z"/>
	</g>
	<path class="st8" d="M9.5,11.9C9.5,11.9,9.5,11.8,9.5,11.9c-0.2-0.2-0.5-0.2-0.7-0.2c-0.3,0-0.5,0.1-0.7,0.3
		c-0.2,0.2-0.3,0.4-0.3,0.7c0,0.2,0.1,0.3,0.2,0.5c0,0,0,0,0.1,0.1c0,0,0,0,0,0c0,0,0,0,0,0c0,0-0.1-0.1-0.1-0.1l0,0
		c-0.1-0.2-0.2-0.3-0.2-0.6c0-0.3,0.1-0.5,0.3-0.7c0.2-0.2,0.5-0.3,0.7-0.3c0.3,0,0.5,0.1,0.7,0.3l0,0C9.4,11.8,9.4,11.8,9.5,11.9
		C9.5,11.8,9.5,11.8,9.5,11.9C9.5,11.9,9.5,11.9,9.5,11.9z"/>
	<path class="st8" d="M10.8,5.3C10.8,5.3,10.8,5.3,10.8,5.3C10.8,5.3,10.8,5.3,10.8,5.3c-0.5-0.4-1.2-0.6-2-0.6
		c-0.8,0-1.5,0.2-2.1,0.6v1.5c0,0-0.1,0.1-0.1,0.1V5.2C7.3,4.8,8,4.6,8.8,4.6c0.8,0,1.4,0.2,1.9,0.6h0c0,0,0.1,0,0.1,0.1
		c0,0,0,0,0,0C10.8,5.3,10.8,5.3,10.8,5.3z"/>
	<path class="st8" d="M9.7,7.1c0,0.2-0.1,0.5-0.2,0.7C9.3,8,9.1,8.2,8.7,8.5c-0.6,0.5-0.9,1-0.9,1.7c0,0.2,0,0.3,0.1,0.5
		c0,0,0,0.1,0,0.1H7.9c0,0,0-0.1,0-0.1c0,0,0-0.1,0-0.1c0-0.2-0.1-0.4-0.1-0.6c0-0.2,0-0.4,0.1-0.6c0-0.1,0-0.1,0.1-0.2c0,0,0,0,0,0
		C8,9.1,8.1,8.9,8.2,8.8c0.1-0.1,0.1-0.1,0.2-0.2c0.1-0.1,0.1-0.1,0.2-0.2c0.1-0.1,0.2-0.2,0.3-0.2c0,0,0.1-0.1,0.1-0.1
		C9,8,9.1,7.9,9.2,7.9c0.1-0.1,0.1-0.2,0.2-0.3c0-0.1,0.1-0.2,0.1-0.2c0,0,0,0,0,0c0-0.1,0-0.1,0-0.2c0-0.1,0-0.2,0-0.3
		c0,0,0-0.1,0-0.1c0,0,0-0.1,0-0.1c0,0,0,0,0-0.1c0,0,0,0,0,0c0,0,0,0,0-0.1c0,0,0-0.1-0.1-0.1c0,0,0,0,0-0.1c0,0,0,0,0,0
		C9.6,6.6,9.7,6.8,9.7,7.1z"/>
	<g>
		<path class="st6" d="M9.2,6.2C9,6,8.7,6,8.4,6C7.9,6,7.3,6.1,6.8,6.5c0,0-0.1,0.1-0.1,0.1v0.2c0,0,0.1-0.1,0.1-0.1
			C6.9,6.7,6.9,6.6,7,6.6c0.1-0.1,0.3-0.2,0.5-0.3c0.2-0.1,0.3-0.1,0.5-0.2c0.2,0,0.4-0.1,0.6-0.1c0,0,0.1,0,0.1,0c0,0,0.1,0,0.1,0
			c0,0,0.1,0,0.1,0c0,0,0,0,0.1,0C9,6.1,9,6.2,9.2,6.2C9.1,6.2,9.2,6.2,9.2,6.2C9.2,6.3,9.2,6.3,9.2,6.2C9.2,6.3,9.2,6.2,9.2,6.2z
			 M11.3,6.5c0-0.1,0-0.1,0-0.2c0,0,0,0,0,0c0-0.1,0-0.1,0-0.2c0,0,0,0,0-0.1c0-0.1,0-0.1-0.1-0.2c0-0.1-0.1-0.1-0.1-0.2
			c0-0.1-0.1-0.1-0.1-0.2c0-0.1-0.1-0.1-0.1-0.1c0,0,0,0,0,0l0,0c0,0-0.1-0.1-0.1-0.1c0,0,0,0,0,0.1c0.3,0.3,0.4,0.8,0.4,1.3
			c0,0.4-0.1,0.8-0.3,1.1c-0.2,0.3-0.5,0.7-1,1.1C9.6,9.1,9.3,9.4,9.2,9.5c-0.1,0.2-0.1,0.4-0.1,0.6c0,0.2,0,0.4,0.1,0.6H7.8
			c0,0,0,0,0,0c0,0,0,0.1,0,0.1h1.5c0,0,0-0.1-0.1-0.1c0-0.1-0.1-0.2-0.1-0.3c0,0,0-0.1,0-0.1c0-0.1,0-0.3,0.1-0.4
			c0,0,0-0.1,0.1-0.1c0,0,0.1-0.1,0.1-0.1c0-0.1,0.1-0.1,0.1-0.2c0,0,0.1-0.1,0.1-0.1C9.8,9.1,9.9,9,10.1,8.9c0.1,0,0.1-0.1,0.2-0.1
			c0.1-0.1,0.2-0.2,0.3-0.3c0.2-0.2,0.4-0.4,0.5-0.7c0.1-0.1,0.1-0.3,0.2-0.4c0-0.1,0-0.2,0.1-0.3c0-0.1,0-0.3,0-0.4
			C11.3,6.6,11.3,6.6,11.3,6.5z M9.5,11.9C9.5,11.9,9.5,11.9,9.5,11.9C9.5,11.8,9.5,11.8,9.5,11.9c-0.1-0.1-0.1-0.1-0.1-0.1
			C9.4,11.8,9.5,11.8,9.5,11.9c0,0.1,0.1,0.3,0.1,0.5c0,0.3-0.1,0.5-0.3,0.7c-0.2,0.2-0.4,0.3-0.7,0.3c-0.3,0-0.5-0.1-0.7-0.2
			c0,0,0,0-0.1,0c0,0,0.1,0.1,0.1,0.1c0,0,0,0,0,0c0.2,0.2,0.5,0.3,0.8,0.3c0.3,0,0.5-0.1,0.7-0.3c0.2-0.2,0.3-0.4,0.3-0.7
			C9.7,12.2,9.7,12,9.5,11.9z"/>
	</g>
</g>
</svg>
