<?xml version="1.0" encoding="utf-8"?>
<!-- Generator: Adobe Illustrator 18.1.0, SVG Export Plug-In . SVG Version: 6.00 Build 0)  -->
<svg version="1.1" id="图层_1" xmlns="http://www.w3.org/2000/svg" xmlns:xlink="http://www.w3.org/1999/xlink" x="0px" y="0px"
	 width="18px" height="18px" viewBox="0 0 18 18" style="enable-background:new 0 0 18 18;" xml:space="preserve">
<style type="text/css">
	.st0{fill:#50A550;}
	.st1{fill:url(#SVGID_1_);}
	.st2{fill:url(#SVGID_2_);}
	.st3{fill:#5D5D5D;}
	.st4{fill:#498E49;}
	.st5{fill:url(#SVGID_3_);}
	.st6{fill:#FFFFFF;}
	.st7{fill:#2E492E;}
</style>
<g>
	<polygon class="st0" points="12.7,4.6 12.6,4.7 9.9,13.4 8.7,13.4 8.6,13.3 6.5,9.2 5.3,9.2 5.3,8.2 7.6,8.2 7.7,8.3 7.7,8.3 
		9.3,11.6 9.3,11.5 9.3,11.5 10,9.2 11.4,4.6 	"/>
	<path class="st0" d="M9,1C4.6,1,1,4.6,1,9s3.6,8,8,8c4.4,0,8-3.6,8-8S13.4,1,9,1z M9,15.2c-3.4,0-6.2-2.8-6.2-6.2S5.6,2.8,9,2.8
		c3.4,0,6.2,2.8,6.2,6.2S12.4,15.2,9,15.2z"/>
	<linearGradient id="SVGID_1_" gradientUnits="userSpaceOnUse" x1="7.9015" y1="6.1499" x2="12.2128" y2="10.5564">
		<stop  offset="0" style="stop-color:#5CB85C"/>
		<stop  offset="0.1758" style="stop-color:#B0D1B0"/>
		<stop  offset="0.2083" style="stop-color:#A5CEA5"/>
		<stop  offset="0.3696" style="stop-color:#70BE70"/>
		<stop  offset="0.4485" style="stop-color:#5CB85C"/>
		<stop  offset="0.5175" style="stop-color:#61BA61"/>
		<stop  offset="0.6032" style="stop-color:#71BE71"/>
		<stop  offset="0.6977" style="stop-color:#8AC68A"/>
		<stop  offset="0.7979" style="stop-color:#ADD0AD"/>
		<stop  offset="0.8061" style="stop-color:#B0D1B0"/>
		<stop  offset="1" style="stop-color:#5CB85C"/>
	</linearGradient>
	<polygon class="st1" points="12.7,4.6 12.6,4.7 9.9,13.4 8.7,13.4 8.6,13.3 6.5,9.2 5.3,9.2 5.3,8.2 7.6,8.2 7.7,8.3 7.7,8.3 
		9.3,11.6 9.3,11.5 9.3,11.5 10,9.2 11.4,4.6 	"/>
	<linearGradient id="SVGID_2_" gradientUnits="userSpaceOnUse" x1="4.1152" y1="4.0078" x2="13.718" y2="13.8225">
		<stop  offset="0" style="stop-color:#5CB85C"/>
		<stop  offset="0.1758" style="stop-color:#B0D1B0"/>
		<stop  offset="0.2083" style="stop-color:#A5CEA5"/>
		<stop  offset="0.3696" style="stop-color:#70BE70"/>
		<stop  offset="0.4485" style="stop-color:#5CB85C"/>
		<stop  offset="0.5175" style="stop-color:#61BA61"/>
		<stop  offset="0.6032" style="stop-color:#71BE71"/>
		<stop  offset="0.6977" style="stop-color:#8AC68A"/>
		<stop  offset="0.7979" style="stop-color:#ADD0AD"/>
		<stop  offset="0.8061" style="stop-color:#B0D1B0"/>
		<stop  offset="1" style="stop-color:#5CB85C"/>
	</linearGradient>
	<path class="st2" d="M9.1,1.3C9,1.3,9,1.3,9.1,1.3c-0.1,0-0.1,0-0.1,0c-2.1,0-4,0.9-5.4,2.3C2.1,4.9,1.3,6.9,1.3,9
		c0,1.6,0.5,3.1,1.3,4.3l0,0c0.2,0.3,0.4,0.6,0.7,0.9c0.2,0.2,0.3,0.4,0.5,0.5c0.3,0.2,0.6,0.5,0.9,0.7c0,0,0,0,0,0
		c1.2,0.8,2.7,1.3,4.3,1.3H9c2.1,0,4-0.9,5.4-2.3c1.4-1.4,2.3-3.3,2.3-5.5C16.7,4.7,13.3,1.3,9.1,1.3z M9,15.2
		c-3.4,0-6.2-2.8-6.2-6.2S5.6,2.8,9,2.8c3.4,0,6.2,2.8,6.2,6.2S12.4,15.2,9,15.2z"/>
	<polygon class="st3" points="12.7,4.6 12.6,4.7 9.9,13.4 8.7,13.4 8.6,13.3 6.5,9.2 5.3,9.2 5.3,8.2 7.6,8.2 7.7,8.3 7.7,8.3 
		9.3,11.6 9.3,11.5 9.3,11.5 10,9.2 11.4,4.6 	"/>
	<path class="st4" d="M16.7,9c0,4.3-3.5,7.7-7.7,7.7c0,0,0,0-0.1,0c4.3,0,7.7-3.5,7.7-7.7c0-4.3-3.4-7.7-7.7-7.7c0,0,0,0,0.1,0
		C13.3,1.3,16.7,4.7,16.7,9z"/>
	<g>
		<linearGradient id="SVGID_3_" gradientUnits="userSpaceOnUse" x1="5.3136" y1="9" x2="12.6891" y2="9">
			<stop  offset="0" style="stop-color:#B0D1B0"/>
			<stop  offset="0.1192" style="stop-color:#A5CEA5"/>
			<stop  offset="0.7107" style="stop-color:#70BE70"/>
			<stop  offset="1" style="stop-color:#5CB85C"/>
		</linearGradient>
		<path class="st5" d="M11.4,4.6L10,9.2l-0.7,2.2v0l0,0.1L7.7,8.3L7.6,8.2H5.3v0.9h1.2l2.1,4.1l0.1,0.1h1.3l2.7-8.7l0-0.1H11.4z"/>
	</g>
	<g>
		<path class="st6" d="M12.5,4.6l0,0.1l-2.7,8.5H8.6l0.1,0.1h1.3l2.7-8.7l0-0.1H12.5z M6.4,9H5.3v0.1h1.2L6.4,9z"/>
	</g>
	<g>
		<path class="st7" d="M11.4,4.6L10,9.2l-0.7,2.2v0l0.1,0.2l2.1-7h1.1l0-0.1H11.4z M7.6,8.2H5.3v0.9h0.1V8.3h2.2L7.6,8.2z"/>
	</g>
	<path class="st6" d="M9.1,16.7C9,16.7,9,16.7,9.1,16.7c-4.3,0-7.8-3.5-7.8-7.7c0-4.3,3.5-7.7,7.7-7.7c0,0,0,0,0.1,0
		C4.8,1.3,1.4,4.7,1.4,9C1.4,13.3,4.8,16.7,9.1,16.7z"/>
</g>
</svg>
