<?xml version="1.0" encoding="utf-8"?>
<!-- Generator: Adobe Illustrator 18.1.0, SVG Export Plug-In . SVG Version: 6.00 Build 0)  -->
<svg version="1.1" id="图层_1" xmlns="http://www.w3.org/2000/svg" xmlns:xlink="http://www.w3.org/1999/xlink" x="0px" y="0px"
	 width="60px" height="60px" viewBox="10 -10 60 60" style="enable-background:new 10 -10 60 60;" xml:space="preserve">
<style type="text/css">
	.st0{fill:url(#SVGID_1_);}
	.st1{fill:url(#SVGID_2_);}
	.st2{fill:url(#SVGID_3_);}
	.st3{fill:url(#SVGID_4_);}
	.st4{fill:url(#SVGID_5_);}
	.st5{fill:url(#SVGID_6_);}
	.st6{fill:url(#SVGID_7_);}
	.st7{fill:url(#SVGID_8_);}
	.st8{fill:#697179;}
	.st9{fill:url(#SVGID_9_);}
	.st10{opacity:0.2;fill:#054E65;enable-background:new    ;}
	.st11{fill:url(#SVGID_10_);}
	.st12{opacity:0.2;fill:url(#SVGID_11_);enable-background:new    ;}
	.st13{fill:url(#SVGID_12_);}
	.st14{fill:url(#SVGID_13_);}
	.st15{fill:url(#SVGID_14_);}
	.st16{fill:url(#SVGID_15_);}
	.st17{opacity:0.39;fill:url(#SVGID_16_);enable-background:new    ;}
	.st18{opacity:0.51;fill:#00567B;enable-background:new    ;}
	.st19{opacity:0.23;fill:#FFFFFF;enable-background:new    ;}
	.st20{opacity:0.51;fill:#FFFFFF;enable-background:new    ;}
	.st21{opacity:0.37;fill:#FFFFFF;enable-background:new    ;}
	.st22{opacity:0.26;fill:#FFFFFF;enable-background:new    ;}
	.st23{opacity:0.21;fill:#FFFFFF;enable-background:new    ;}
	.st24{opacity:0.21;fill:#221E1F;enable-background:new    ;}
	.st25{opacity:0.57;fill:url(#SVGID_17_);enable-background:new    ;}
	.st26{opacity:0.29;fill:url(#SVGID_18_);enable-background:new    ;}
	.st27{opacity:0.3;fill:url(#SVGID_19_);enable-background:new    ;}
	.st28{opacity:0.22;fill:url(#SVGID_20_);enable-background:new    ;}
	.st29{fill:url(#SVGID_21_);}
	.st30{opacity:0.17;fill:#221E1F;enable-background:new    ;}
	.st31{fill:url(#SVGID_22_);}
	.st32{fill:url(#SVGID_23_);}
	.st33{fill:url(#SVGID_24_);}
	.st34{fill:#1D5C76;}
	.st35{opacity:0.15;fill:#221E1F;enable-background:new    ;}
	.st36{fill:url(#SVGID_25_);}
	.st37{fill:#386A84;}
	.st38{fill:url(#SVGID_26_);}
	.st39{opacity:0.57;fill:url(#SVGID_27_);enable-background:new    ;}
	.st40{fill:url(#SVGID_28_);}
	.st41{opacity:0.76;fill:url(#SVGID_29_);enable-background:new    ;}
	.st42{fill:url(#SVGID_30_);}
	.st43{opacity:0.48;fill:#FFFFFF;enable-background:new    ;}
	.st44{opacity:0.28;fill:#FFFFFF;enable-background:new    ;}
</style>
<g>
	<g>
		<g>
			
				<linearGradient id="SVGID_1_" gradientUnits="userSpaceOnUse" x1="1824.3282" y1="34.6206" x2="1823.7145" y2="20.9423" gradientTransform="matrix(-1 0 0 -1 1872.9414 40)">
				<stop  offset="0" style="stop-color:#878E96"/>
				<stop  offset="0.9944" style="stop-color:#9FA6B1"/>
			</linearGradient>
			<polygon class="st0" points="48.6,-0.3 49.4,0.3 49.4,27.8 48.6,28.4 			"/>
			
				<linearGradient id="SVGID_2_" gradientUnits="userSpaceOnUse" x1="1826.9889" y1="19.9063" x2="1826.5852" y2="36.6577" gradientTransform="matrix(-1 0 0 -1 1872.9414 40)">
				<stop  offset="0" style="stop-color:#E5E7EB"/>
				<stop  offset="0.6809" style="stop-color:#93ABBF"/>
				<stop  offset="1" style="stop-color:#7192AD"/>
			</linearGradient>
			<polygon class="st1" points="46.1,2.1 46.3,1.7 46.3,1.7 46.1,24.5 46.1,24.5 45.8,24.2 			"/>
			<g>
				<g>
					
						<linearGradient id="SVGID_3_" gradientUnits="userSpaceOnUse" x1="1825.4375" y1="7.9686" x2="1851.1049" y2="8.4529" gradientTransform="matrix(-1 0 0 -1 1872.9414 40)">
						<stop  offset="5.618000e-003" style="stop-color:#9DA4AE"/>
						<stop  offset="0.9888" style="stop-color:#DEE0E5"/>
					</linearGradient>
					<polygon class="st2" points="46.9,29.6 30.8,28.2 24.5,31.3 24.4,32.2 40.5,35.4 					"/>
					
						<linearGradient id="SVGID_4_" gradientUnits="userSpaceOnUse" x1="1837.29" y1="8.49" x2="1837.1185" y2="11.2766" gradientTransform="matrix(-1 0 0 -1 1872.9414 40)">
						<stop  offset="0" style="stop-color:#7A8393"/>
						<stop  offset="0.9944" style="stop-color:#A8AEB5"/>
					</linearGradient>
					<polygon class="st3" points="41.7,29.2 37.1,32.8 29.7,31.7 35.1,28.5 					"/>
					
						<linearGradient id="SVGID_5_" gradientUnits="userSpaceOnUse" x1="1832.5198" y1="11.2185" x2="1832.4028" y2="13.1193" gradientTransform="matrix(-1 0 0 -1 1872.9414 40)">
						<stop  offset="0" style="stop-color:#7A8393"/>
						<stop  offset="0.9944" style="stop-color:#A8AEB5"/>
					</linearGradient>
					<polygon class="st4" points="41,29.7 41.7,29.2 40.1,26.7 39.2,26.9 					"/>
					
						<linearGradient id="SVGID_6_" gradientUnits="userSpaceOnUse" x1="1837.2953" y1="11.9457" x2="1827.3311" y2="11.8869" gradientTransform="matrix(-1 0 0 -1 1872.9414 40)">
						<stop  offset="0" style="stop-color:#C4C9D3"/>
						<stop  offset="0.9831" style="stop-color:#949CA4"/>
					</linearGradient>
					<polygon class="st5" points="31.4,26.4 33.5,28.8 41.1,29.7 39.2,26.9 					"/>
					
						<linearGradient id="SVGID_7_" gradientUnits="userSpaceOnUse" x1="1827.9155" y1="8.5219" x2="1831.9785" y2="5.4821" gradientTransform="matrix(-1 0 0 -1 1872.9414 40)">
						<stop  offset="0" style="stop-color:#7A8393"/>
						<stop  offset="0.9944" style="stop-color:#A8AEB5"/>
					</linearGradient>
					<polygon class="st6" points="46.9,29.6 40.5,34.1 40.5,35.4 46.9,30.8 					"/>
					
						<linearGradient id="SVGID_8_" gradientUnits="userSpaceOnUse" x1="1840.4908" y1="5.5461" x2="1840.4252" y2="8.2725" gradientTransform="matrix(-1 0 0 -1 1872.9414 40)">
						<stop  offset="0.2747" style="stop-color:#A5B8CB"/>
						<stop  offset="1" style="stop-color:#7192AD"/>
					</linearGradient>
					<polygon class="st7" points="40.5,34.1 24.5,31.3 24.4,32.2 40.5,35.4 					"/>
					<polygon class="st8" points="29.7,31.7 34.2,29.4 40.5,30.1 41,29.7 33.7,29.1 					"/>
					
						<linearGradient id="SVGID_9_" gradientUnits="userSpaceOnUse" x1="1831.5861" y1="9.9469" x2="1840.8505" y2="10.1217" gradientTransform="matrix(-1 0 0 -1 1872.9414 40)">
						<stop  offset="5.618000e-003" style="stop-color:#899097"/>
						<stop  offset="0.9888" style="stop-color:#C4C9D2"/>
					</linearGradient>
					<polygon class="st9" points="33.4,28.8 33,30.2 39.2,31.1 41.1,29.6 					"/>
				</g>
				<polygon class="st10" points="31.9,26.8 32.4,27.5 40.2,28.3 41,28 40.5,27.4 				"/>
			</g>
			<g>
				
					<linearGradient id="SVGID_10_" gradientUnits="userSpaceOnUse" x1="1829.4642" y1="-0.9328" x2="1848.2452" y2="8.1067" gradientTransform="matrix(-1 0 0 -1 1872.9414 40)">
					<stop  offset="0.1798" style="stop-color:#BDC2CA"/>
					<stop  offset="1" style="stop-color:#E1E3E7"/>
				</linearGradient>
				<path class="st11" d="M43,39.9l-32.4-4.5c0,0-1.2,0-0.3-1.2l7.2-4.2L49,33.2L43,39.9z"/>
				
					<linearGradient id="SVGID_11_" gradientUnits="userSpaceOnUse" x1="1860.4974" y1="5.5895" x2="1830.9996" y2="0.2951" gradientTransform="matrix(-1 0 0 -1 1872.9414 40)">
					<stop  offset="0" style="stop-color:#B2B2B2"/>
					<stop  offset="0.1215" style="stop-color:#ADADAD"/>
					<stop  offset="0.2752" style="stop-color:#9D9D9D"/>
					<stop  offset="0.4463" style="stop-color:#838383"/>
					<stop  offset="0.6301" style="stop-color:#5F5F5F"/>
					<stop  offset="0.8217" style="stop-color:#313131"/>
					<stop  offset="1" style="stop-color:#000000"/>
				</linearGradient>
				<path class="st12" d="M43.8,39.1l-0.7,0.8l-32.9-4.5c0,0-0.6-0.3,0.1-1.3l33.3,4.5L43.8,39.1z"/>
				
					<linearGradient id="SVGID_12_" gradientUnits="userSpaceOnUse" x1="1825.5745" y1="4.4526" x2="1829.7423" y2="1.3343" gradientTransform="matrix(-1 0 0 -1 1872.9414 40)">
					<stop  offset="0" style="stop-color:#7A8393"/>
					<stop  offset="0.9944" style="stop-color:#9299A0"/>
				</linearGradient>
				<path class="st13" d="M49,33.2l-0.1,1.3L43,39.9c0,0-0.3-0.9,0.2-1.4L49,33.2z"/>
			</g>
			
				<linearGradient id="SVGID_13_" gradientUnits="userSpaceOnUse" x1="1838.7416" y1="28.0088" x2="1839.2091" y2="15.9083" gradientTransform="matrix(-1 0 0 -1 1872.9414 40)">
				<stop  offset="0.1798" style="stop-color:#BCC2CF"/>
				<stop  offset="0.8202" style="stop-color:#E1E3E7"/>
				<stop  offset="1" style="stop-color:#E1E3E7"/>
			</linearGradient>
			<polygon class="st14" points="48.6,-0.3 48.6,28.4 19.3,25.7 19.6,-0.1 			"/>
			<g>
				
					<linearGradient id="SVGID_14_" gradientUnits="userSpaceOnUse" x1="1826.6254" y1="38.292" x2="1826.6254" y2="38.292" gradientTransform="matrix(-1 0 0 -1 1872.9414 40)">
					<stop  offset="0" style="stop-color:#E5E7EB"/>
					<stop  offset="0.6809" style="stop-color:#93ABBF"/>
					<stop  offset="1" style="stop-color:#7192AD"/>
				</linearGradient>
				<polygon class="st15" points="46.3,1.7 46.3,1.7 46.3,1.7 				"/>
				
					<radialGradient id="SVGID_15_" cx="1838.9712" cy="17.0125" r="23.513" gradientTransform="matrix(-1 0 0 -1 1872.9414 40)" gradientUnits="userSpaceOnUse">
					<stop  offset="0" style="stop-color:#00B4F0"/>
					<stop  offset="1" style="stop-color:#008ACE"/>
				</radialGradient>
				<polygon class="st16" points="21.7,22.4 21.7,2.1 21.7,2.1 46.1,2.1 46.1,2.1 45.8,24.2 45.8,24.2 				"/>
			</g>
		</g>
		
			<linearGradient id="SVGID_16_" gradientUnits="userSpaceOnUse" x1="1839.0753" y1="26.3685" x2="1839.0753" y2="33.7114" gradientTransform="matrix(-1 0 0 -1 1872.9414 40)">
			<stop  offset="0.1538" style="stop-color:#71CFF4"/>
			<stop  offset="0.9944" style="stop-color:#FFFFFF"/>
		</linearGradient>
		<path class="st17" d="M45.3,6.7l0.1-3.8H22.3v8.4c0,0,6.8-0.4,10.5-2.3S45.3,6.7,45.3,6.7z"/>
		<polygon class="st18" points="45.8,24.2 46.1,2.1 21.7,2.1 21.7,2.4 45.8,2.4 45.5,24.1 		"/>
		<polygon class="st19" points="40.1,28.3 41,29.7 33.4,28.8 40.8,29.5 		"/>
		<polygon class="st20" points="46.1,2.1 45.8,24.2 21.7,22.4 46.2,24.6 		"/>
		<polygon class="st21" points="48.6,-0.3 19.6,-0.1 19.3,25.7 19.9,0.2 		"/>
		<polygon class="st22" points="42.9,32.4 46.7,29.6 41.7,29.2 46.1,29.8 		"/>
		<polygon class="st23" points="41.7,29.2 38.1,32 38.3,32.1 41.8,29.2 		"/>
		<polygon class="st21" points="17.5,30 10.3,34.2 42.9,38.6 11.6,33.9 		"/>
		<path class="st24" d="M49.4,0.3c0,0-3.1,0-3.1,1.5l0.1,26.4l2.8,0.5L49.4,0.3z"/>
		
			<linearGradient id="SVGID_17_" gradientUnits="userSpaceOnUse" x1="1830.7622" y1="18.392" x2="1850.8622" y2="18.392" gradientTransform="matrix(-1 0 0 -1 1872.9414 40)">
			<stop  offset="0.2308" style="stop-color:#D8DFE6"/>
			<stop  offset="1" style="stop-color:#EEF0F2"/>
		</linearGradient>
		<path class="st25" d="M42.2,23.6l-20.1-1.8l0.1-2.2c0,0-0.4,1.9,2.9,2C28.4,21.7,42.2,23.6,42.2,23.6z"/>
		
			<linearGradient id="SVGID_18_" gradientUnits="userSpaceOnUse" x1="1831.3425" y1="4.6834" x2="1849.4263" y2="5.7612" gradientTransform="matrix(-1 0 0 -1 1872.9414 40)">
			<stop  offset="0" style="stop-color:#7A8393"/>
			<stop  offset="0.9944" style="stop-color:#949AA1"/>
		</linearGradient>
		<polygon class="st26" points="42.3,37.4 45,34.9 23.8,32.2 20.3,34.6 		"/>
		
			<linearGradient id="SVGID_19_" gradientUnits="userSpaceOnUse" x1="1829.5796" y1="6.6744" x2="1845.6722" y2="7.6336" gradientTransform="matrix(-1 0 0 -1 1872.9414 40)">
			<stop  offset="0" style="stop-color:#7A8393"/>
			<stop  offset="0.9944" style="stop-color:#949AA1"/>
		</linearGradient>
		<polygon class="st27" points="45.4,34.4 46.3,33.7 25.6,31.3 24.5,31.9 		"/>
		
			<linearGradient id="SVGID_20_" gradientUnits="userSpaceOnUse" x1="1851.9526" y1="6.9178" x2="1858.0428" y2="7.2808" gradientTransform="matrix(-1 0 0 -1 1872.9414 40)">
			<stop  offset="0" style="stop-color:#7A8393"/>
			<stop  offset="0.9944" style="stop-color:#949AA1"/>
		</linearGradient>
		<polygon class="st28" points="18.5,34.3 22.2,32 17.6,31.5 13.8,33.7 		"/>
		<g>
			
				<linearGradient id="SVGID_21_" gradientUnits="userSpaceOnUse" x1="1815.8694" y1="11.2267" x2="1814.139" y2="39.3443" gradientTransform="matrix(-1 0 0 -1 1872.9414 40)">
				<stop  offset="0" style="stop-color:#BCC2CF"/>
				<stop  offset="0.2584" style="stop-color:#CDD2E0"/>
				<stop  offset="1" style="stop-color:#E1E3E9"/>
			</linearGradient>
			<path class="st29" d="M47.9,38V2c0,0-0.3-0.9,1.9-1.3l8.5-2.2l11.4,0.7l-5.3,2.2c-1.8,0.2-2.2,2.5-2.2,2.5v32.3
				c0.1,1.8,0.3,2.5,0.3,2.5l-0.3,1.1c-0.1-0.3-0.2-1.2-0.2-1.2l2.3,0.2l-1.6,1.8c0,0-0.4,1-3.6,0.9L50,40.3
				C50.2,40.4,47.9,39.9,47.9,38z"/>
			<g>
				<path class="st30" d="M49.9,39.7l9.2,1.2c1.3,0.1,2.1-0.1,2.7-0.3l0,0c0.1,0,0.3-0.1,0.4-0.2c0.5-0.2,0.5-0.5,0.5-0.5l1.6-1.8
					l0,0l4.2-4.8c0.9-1,1.3-1.8,1.4-2.3v0.1c0,0,0.2,1-1.4,3l-4.1,4.8l0,0l-1.6,1.8c0,0-0.1,0.2-0.5,0.5c-0.1,0.1-0.2,0.1-0.3,0.1
					l0,0c-0.5,0.2-1.3,0.3-2.6,0.3l-9-1.2c0,0-1.8-0.4-2.2-1.8C48.8,39.4,49.9,39.7,49.9,39.7z"/>
			</g>
			
				<linearGradient id="SVGID_22_" gradientUnits="userSpaceOnUse" x1="1813.8164" y1="30.5765" x2="1813.8164" y2="39.2175" gradientTransform="matrix(-1 0 0 -1 1872.9414 40)">
				<stop  offset="5.618000e-003" style="stop-color:#8FA6BB"/>
				<stop  offset="1" style="stop-color:#91A7B8"/>
			</linearGradient>
			<path class="st31" d="M50.8,0.6l8-2.1l9.4,0.3c0,0,0.6-0.2,0.7,0.4l-2.7,1l-4.3,1.7c0,0-0.5,0.2-0.5,0.4
				c-0.1,0.2-0.3,0.1-0.3,0.8v35.6c0,0-0.2,1.6-2.2,1.6l-8-1c0,0-1.4,0-1.5-1.8V2.1C49.3,2.1,49,1,50.8,0.6z"/>
			
				<linearGradient id="SVGID_23_" gradientUnits="userSpaceOnUse" x1="1814.0815" y1="41.0159" x2="1814.0815" y2="38.3355" gradientTransform="matrix(-1 0 0 -1 1872.9414 40)">
				<stop  offset="0.6067" style="stop-color:#5FABFF"/>
				<stop  offset="1" style="stop-color:#357C9D"/>
			</linearGradient>
			<path class="st32" d="M52,2.7c2,0.3,7.5-0.5,7.5-0.8C59.6,1.3,60,1,60,1l7-2.2c0,0,0.2-0.2-0.9-0.2l-5.7-0.2c0,0-0.3-0.1-1,0.2
				L51,1C51,1,49.8,2.4,52,2.7z"/>
			
				<linearGradient id="SVGID_24_" gradientUnits="userSpaceOnUse" x1="1817.8271" y1="33.721" x2="1817.8271" y2="10.4437" gradientTransform="matrix(-1 0 0 -1 1872.9414 40)">
				<stop  offset="0.6067" style="stop-color:#5FABFF"/>
				<stop  offset="1" style="stop-color:#357C9D"/>
			</linearGradient>
			<path class="st33" d="M59.6,1.8l0.1,36.1c0,0,0.1,1.3-0.9,1.4l-7.3-1c0,0-1.1-0.2-1-1.7l0.1-34.3c0,0-0.1-1.2,0.7-1.2L59,1.4
				C59,1.4,59.5,1.1,59.6,1.8z"/>
			<polygon class="st34" points="58.3,5.8 58.3,6.5 51.7,6.2 51.7,5.6 			"/>
			<path class="st35" d="M54.6,32.8c1.2,0,2.2,1,2.2,2.1c0,1.2-1,2.1-2.2,2.1s-2.2-1-2.2-2.1C52.4,33.7,53.4,32.8,54.6,32.8z"/>
			
				<linearGradient id="SVGID_25_" gradientUnits="userSpaceOnUse" x1="1808.4982" y1="0.9456" x2="1806.6002" y2="27.5167" gradientTransform="matrix(-1 0 0 -1 1872.9414 40)">
				<stop  offset="5.618000e-003" style="stop-color:#9198A0"/>
				<stop  offset="0.9888" style="stop-color:#BDC2CC"/>
			</linearGradient>
			<path class="st36" d="M63.2,1.6l6.4-2.5C69.7-0.8,70-0.7,70-0.1V31c0,0,0.2,1-1.5,3l-5.7,6.7c0,0-0.1,0.3-0.9,0.6V4.8
				C61.8,2,63.2,1.6,63.2,1.6z"/>
			<path class="st37" d="M69,1.4c0,0.5,0.1,0.9,0.3,0.9c0.2,0,0.3-0.4,0.3-0.9s-0.1-0.9-0.3-0.9C69.2,0.5,69,0.9,69,1.4z"/>
			<ellipse class="st37" cx="63.5" cy="4" rx="0.3" ry="0.9"/>
			<ellipse class="st37" cx="69.3" cy="29.5" rx="0.3" ry="0.9"/>
			<path class="st37" d="M63.2,35.9c0,0.5,0.1,0.9,0.3,0.9s0.3-0.4,0.3-0.9S63.7,35,63.5,35S63.2,35.4,63.2,35.9z"/>
			
				<linearGradient id="SVGID_26_" gradientUnits="userSpaceOnUse" x1="1806.3253" y1="41.092" x2="1806.3253" y2="41.092" gradientTransform="matrix(-1 0 0 -1 1872.9414 40)">
				<stop  offset="0" style="stop-color:#15539B"/>
				<stop  offset="0.9944" style="stop-color:#008ACE"/>
			</linearGradient>
			<path class="st38" d="M66.6-1.1"/>
			
				<linearGradient id="SVGID_27_" gradientUnits="userSpaceOnUse" x1="1811.0815" y1="38.392" x2="1823.1948" y2="38.392" gradientTransform="matrix(-1 0 0 -1 1872.9414 40)">
				<stop  offset="0.2308" style="stop-color:#D8DFE6"/>
				<stop  offset="1" style="stop-color:#EEF0F2"/>
			</linearGradient>
			<path class="st39" d="M60.8,2.3c0.2-0.3,0.5-0.6,1-0.7c0,0-0.4-0.4-0.9-0.6L50.7,0.9c0,0-1,0.3-1.1,0.7c0,0,10.3,0.4,10.6,0.4
				C60.6,2,60.8,2.3,60.8,2.3z"/>
			
				<radialGradient id="SVGID_28_" cx="1817.8253" cy="6.392" r="0" gradientTransform="matrix(-1 0 0 -1 1872.9414 40)" gradientUnits="userSpaceOnUse">
				<stop  offset="0" style="stop-color:#E5E7EB"/>
				<stop  offset="0.233" style="stop-color:#CFD7DF"/>
				<stop  offset="0.7168" style="stop-color:#95ADC0"/>
				<stop  offset="1" style="stop-color:#7192AD"/>
			</radialGradient>
			<path class="st40" d="M55.1,33.6"/>
			<g>
				
					<linearGradient id="SVGID_29_" gradientUnits="userSpaceOnUse" x1="1818.2253" y1="3.3201" x2="1818.2253" y2="7.2665" gradientTransform="matrix(-1 0 0 -1 1872.9414 40)">
					<stop  offset="0" style="stop-color:#6F86A1"/>
					<stop  offset="0.9888" style="stop-color:#87A2B7"/>
				</linearGradient>
				<path class="st41" d="M52.5,34.5c0,1.2,1,2.1,2.2,2.1s2.2-1,2.2-2.1c0-1.2-1-2.1-2.2-2.1C53.4,32.4,52.5,33.4,52.5,34.5z"/>
				
					<linearGradient id="SVGID_30_" gradientUnits="userSpaceOnUse" x1="1817.3425" y1="6.5946" x2="1819.3969" y2="4.2898" gradientTransform="matrix(-1 0 0 -1 1872.9414 40)">
					<stop  offset="0" style="stop-color:#D7DDE3"/>
					<stop  offset="0.2459" style="stop-color:#BAC8D5"/>
					<stop  offset="0.5659" style="stop-color:#99B0C5"/>
				</linearGradient>
				<circle class="st42" cx="54.6" cy="34.5" r="1.7"/>
			</g>
			<polygon class="st43" points="58.3,6.5 58.3,5.8 51.7,5.6 58.4,5.6 			"/>
			<path class="st44" d="M54,33.9c0,0.3,0.4,0.6,0.8,0.6c0.5,0,0.8-0.3,0.8-0.6s-0.4-0.6-0.8-0.6C54.3,33.3,54,33.6,54,33.9z"/>
		</g>
		<path class="st34" d="M50.6,8.7v2.2l9.1,0.4V9.1L50.6,8.7z M50.7,8.9l8.8,0.3v2l-8.8-0.4V8.9z"/>
	</g>
</g>
</svg>
