<?xml version="1.0" encoding="utf-8"?>
<!-- Generator: Adobe Illustrator 18.1.0, SVG Export Plug-In . SVG Version: 6.00 Build 0)  -->
<svg version="1.1" id="图层_1" xmlns="http://www.w3.org/2000/svg" xmlns:xlink="http://www.w3.org/1999/xlink" x="0px" y="0px"
	 width="60px" height="60px" viewBox="10 -10 60 60" style="enable-background:new 10 -10 60 60;" xml:space="preserve">
<style type="text/css">
	.st0{opacity:0.2;fill:url(#SVGID_1_);enable-background:new    ;}
	.st1{opacity:0.2;fill:url(#SVGID_2_);enable-background:new    ;}
	.st2{opacity:0.2;fill:url(#SVGID_3_);enable-background:new    ;}
	.st3{opacity:0.2;fill:url(#SVGID_4_);enable-background:new    ;}
	.st4{fill:url(#SVGID_5_);}
	.st5{fill:url(#SVGID_6_);}
	.st6{fill:url(#SVGID_7_);}
	.st7{opacity:0.46;fill:#1B84C8;enable-background:new    ;}
	.st8{fill:#3E809C;}
	.st9{fill:url(#SVGID_8_);}
	.st10{fill:url(#SVGID_9_);}
	.st11{fill:url(#SVGID_10_);}
	.st12{fill:url(#SVGID_11_);}
	.st13{fill:url(#SVGID_12_);}
	.st14{fill:url(#SVGID_13_);}
	.st15{fill:url(#SVGID_14_);}
	.st16{fill:url(#SVGID_15_);}
	.st17{fill:url(#SVGID_16_);}
	.st18{fill:url(#SVGID_17_);}
	.st19{fill:#7590A8;}
	.st20{fill:url(#SVGID_18_);}
	.st21{fill:url(#SVGID_19_);}
	.st22{fill:url(#SVGID_20_);}
	.st23{fill:url(#SVGID_21_);}
	.st24{fill:url(#SVGID_22_);}
</style>
<g>
	
		<linearGradient id="SVGID_1_" gradientUnits="userSpaceOnUse" x1="50.0001" y1="-11.3286" x2="50.0001" y2="30.0043" gradientTransform="matrix(0.6667 0 0 -0.6667 6.6667 26.6667)">
		<stop  offset="0" style="stop-color:#040000"/>
		<stop  offset="0.9939" style="stop-color:#040000;stop-opacity:0"/>
	</linearGradient>
	<path class="st0" d="M67.4,31.4C67.3,31.4,67.3,31.4,67.4,31.4H12.5c-0.8,0-1.8-0.4-2.3-1.2c-0.3-0.5-0.4-1.4,0.5-2.6
		c0.1-0.1,12.7-17.3,13.1-17.7c0.2-0.2,1.1-1.2,2.4-1.2h11.7c0.5-0.1,1.2-0.2,1.9-0.2c0.7,0,1.3,0.1,1.9,0.2h12.1
		c1.3,0,2.3,1,2.4,1.2c0.4,0.5,13.2,17.9,13.3,18.1c0.5,0.7,0.7,1.3,0.5,2c-0.2,0.8-0.8,1.2-1.2,1.3C68.1,31.4,67.6,31.4,67.4,31.4z
		"/>
	
		<linearGradient id="SVGID_2_" gradientUnits="userSpaceOnUse" x1="49.9409" y1="-10.8791" x2="49.9409" y2="29.5858" gradientTransform="matrix(0.6667 0 0 -0.6667 6.6667 26.6667)">
		<stop  offset="0" style="stop-color:#040000"/>
		<stop  offset="0.9939" style="stop-color:#040000;stop-opacity:0"/>
	</linearGradient>
	<path class="st1" d="M67.4,31.2C67.3,31.2,67.3,31.2,67.4,31.2H12.5c-0.7,0-1.7-0.3-2.1-1.1c-0.2-0.5-0.3-1.3,0.5-2.4
		C11,27.5,23.6,10.5,24,10c0.2-0.2,1.1-1.1,2.2-1.1H38c0.5-0.1,1.1-0.2,1.8-0.2s1.3,0.1,1.8,0.2h12.1c1.2,0,2.1,1,2.2,1.1
		c0.4,0.5,13.2,17.9,13.3,18c0.4,0.6,0.6,1.2,0.5,1.8c-0.2,0.7-0.7,1-1,1.2C68.1,31.1,67.6,31.2,67.4,31.2z"/>
	
		<linearGradient id="SVGID_3_" gradientUnits="userSpaceOnUse" x1="49.9488" y1="-10.4296" x2="49.9488" y2="29.1673" gradientTransform="matrix(0.6667 0 0 -0.6667 6.6667 26.6667)">
		<stop  offset="0" style="stop-color:#040000"/>
		<stop  offset="0.9939" style="stop-color:#040000;stop-opacity:0"/>
	</linearGradient>
	<path class="st2" d="M67.4,30.9C67.3,30.9,67.3,30.9,67.4,30.9H12.5c-0.7,0-1.5-0.3-1.8-1c-0.2-0.4-0.3-1.1,0.5-2.1
		c0.1-0.2,12.7-17.3,13.1-17.7c0.2-0.2,1-1,2.1-1H38C38.5,9.1,39.1,9,39.8,9s1.3,0.1,1.8,0.2h12.1c1.1,0,1.9,0.9,2,1
		c0.4,0.5,13.2,17.9,13.3,18c0.4,0.6,0.5,1.1,0.4,1.6c-0.1,0.6-0.6,0.9-0.9,1C68,30.9,67.5,30.9,67.4,30.9z"/>
	
		<linearGradient id="SVGID_4_" gradientUnits="userSpaceOnUse" x1="50.0252" y1="-9.9801" x2="50.0252" y2="28.7488" gradientTransform="matrix(0.6667 0 0 -0.6667 6.6667 26.6667)">
		<stop  offset="0" style="stop-color:#040000"/>
		<stop  offset="0.9939" style="stop-color:#040000;stop-opacity:0"/>
	</linearGradient>
	<path class="st3" d="M55.5,10.3c-0.1-0.1-0.9-0.9-1.9-0.9H42.1h-0.6c-0.4-0.1-1.1-0.2-1.8-0.2s-1.3,0.1-1.8,0.2h-0.2H26.2
		c-1,0-1.8,0.8-1.9,0.9C24,10.8,11.4,27.7,11.3,28c-1.4,2,0.3,2.7,1.2,2.7h54.8c0,0,0,0,0.1,0c0.2,0,0.6,0,1-0.2
		c0.6-0.3,1.3-1,0.4-2.2C68.6,28,55.8,10.8,55.5,10.3z"/>
	<g>
		
			<linearGradient id="SVGID_5_" gradientUnits="userSpaceOnUse" x1="49.8775" y1="24.5881" x2="49.8775" y2="26.8494" gradientTransform="matrix(0.6667 0 0 -0.6667 6.6667 26.6667)">
			<stop  offset="0" style="stop-color:#416483"/>
			<stop  offset="0.5455" style="stop-color:#5A7894"/>
			<stop  offset="1" style="stop-color:#7590A8"/>
		</linearGradient>
		<polygon class="st4" points="42.2,10.3 37.7,10.3 37.8,9.4 42.1,9.4 		"/>
		
			<linearGradient id="SVGID_6_" gradientUnits="userSpaceOnUse" x1="49.8775" y1="25.5412" x2="49.8775" y2="22.2105" gradientTransform="matrix(0.6667 0 0 -0.6667 6.6667 26.6667)">
			<stop  offset="0" style="stop-color:#30ADE4"/>
			<stop  offset="1" style="stop-color:#2066B0"/>
		</linearGradient>
		<polygon class="st5" points="37.8,10.1 37.9,9.7 42,9.7 42.1,10.1 		"/>
		
			<linearGradient id="SVGID_7_" gradientUnits="userSpaceOnUse" x1="49.9524" y1="25.4175" x2="49.9524" y2="24.5361" gradientTransform="matrix(0.6667 0 0 -0.6667 6.6667 26.6667)">
			<stop  offset="0" style="stop-color:#A9DAE2"/>
			<stop  offset="1" style="stop-color:#459FD5"/>
		</linearGradient>
		<polygon class="st6" points="38,9.9 38,9.8 41.9,9.8 42,9.9 		"/>
		<path class="st7" d="M67.4,30.2C67.3,30.2,67.3,30.2,67.4,30.2c-0.1,0-54.9,0-54.9,0c-0.9,0-1.9-0.5-1.9-1.7c0-0.3,0-0.5,0-0.8
			c0-1.4-0.1-2.6,1.2-4.5c2-3.1,9.9-12.6,10.2-13c0.1-0.1,0.9-0.9,1.9-0.9h14l-0.1,0.8h4.5l-0.1-0.8h14c1,0,1.8,0.8,1.9,0.9
			c0.3,0.4,8.2,9.9,10.2,13c1.2,1.9,1.2,3.1,1.2,4.5c0,0.2,0,0.5,0,0.8c0,0.7-0.3,1.2-0.9,1.5C68,30.2,67.5,30.2,67.4,30.2
			L67.4,30.2z"/>
		<path class="st8" d="M69.3,27.7c0,0.2,0,0.5,0,0.8c0,0.7-0.3,1.2-0.9,1.5c-0.4,0.2-0.8,0.2-1,0.2h-0.1H12.5
			c-0.9,0-1.9-0.5-1.9-1.7c0-0.3,0-0.5,0-0.8c0-0.2,0-0.3,0-0.5c0,0.3,0,0.6,0,1c0,0.2,0,0.5,0,0.8c0,1.2,0.9,1.7,1.9,1.7h54.8
			c0,0,0,0,0.1,0c0.2,0,0.6,0,1-0.2c0.6-0.3,0.9-0.8,0.9-1.5c0-0.3,0-0.5,0-0.8c0-0.3,0-0.6,0-1C69.3,27.4,69.3,27.6,69.3,27.7z"/>
		
			<linearGradient id="SVGID_8_" gradientUnits="userSpaceOnUse" x1="49.9524" y1="-9.3381" x2="49.9524" y2="10.5449" gradientTransform="matrix(0.6667 0 0 -0.6667 6.6667 26.6667)">
			<stop  offset="0" style="stop-color:#FFFFFF"/>
			<stop  offset="1" style="stop-color:#71C6D5;stop-opacity:0"/>
		</linearGradient>
		<path class="st9" d="M69.3,27.3c0,0.2,0,0.5,0,0.8c0,0.7-0.3,1.2-0.9,1.5c-0.4,0.2-0.8,0.2-1,0.2h-0.1H12.5
			c-0.9,0-1.9-0.5-1.9-1.7c0-0.3,0-0.5,0-0.8c0-0.2,0-0.3,0-0.5c0,0.3,0,0.6,0,1c0,0.2,0,0.5,0,0.8c0,1.2,0.9,1.7,1.9,1.7h54.8
			c0,0,0,0,0.1,0c0.2,0,0.6,0,1-0.2c0.6-0.3,0.9-0.8,0.9-1.5c0-0.3,0-0.5,0-0.8c0-0.3,0-0.6,0-1C69.3,26.9,69.3,27.1,69.3,27.3z"/>
		
			<linearGradient id="SVGID_9_" gradientUnits="userSpaceOnUse" x1="49.837" y1="-3.9096" x2="49.837" y2="25.2373" gradientTransform="matrix(0.6667 0 0 -0.6667 6.6667 26.6667)">
			<stop  offset="0" style="stop-color:#416483"/>
			<stop  offset="0.1333" style="stop-color:#AAB9C7"/>
			<stop  offset="0.2121" style="stop-color:#E5E8EB"/>
			<stop  offset="0.2764" style="stop-color:#D2D9E0"/>
			<stop  offset="0.4121" style="stop-color:#B1BFCC"/>
			<stop  offset="0.5513" style="stop-color:#97AABC"/>
			<stop  offset="0.6935" style="stop-color:#849CB1"/>
			<stop  offset="0.8405" style="stop-color:#7993AA"/>
			<stop  offset="1" style="stop-color:#7590A8"/>
		</linearGradient>
		<path class="st10" d="M67.7,23.3c-2.1-3.1-10.2-13-10.2-13S56.8,9.6,56,9.6H42.7l0.1,0.8h-5.7l0.1-0.8H23.8
			c-0.8,0-1.5,0.8-1.5,0.8s-8.1,9.9-10.2,13c-1.4,2.1-1.1,3.3-1.1,5c0,1.3,1.4,1.2,1.4,1.2h54.8c0,0,1.4,0.1,1.4-1.2
			C68.8,26.6,69.1,25.3,67.7,23.3z"/>
		
			<linearGradient id="SVGID_10_" gradientUnits="userSpaceOnUse" x1="49.8837" y1="27.3944" x2="49.8837" y2="15.3418" gradientTransform="matrix(0.6667 0 0 -0.6667 6.6667 26.6667)">
			<stop  offset="0" style="stop-color:#FFFFFF"/>
			<stop  offset="1" style="stop-color:#FFFFFF;stop-opacity:0"/>
		</linearGradient>
		<path class="st11" d="M58.7,11.9c-0.7-0.9-1.2-1.4-1.2-1.4S56.8,9.7,56,9.7H42.7l0.1,0.8h-5.7l0.1-0.8H23.8
			c-0.8,0-1.5,0.8-1.5,0.8s-0.5,0.6-1.2,1.5c-0.4,0.5,17.1-0.7,25.8-0.7C54.8,11.3,59,12.2,58.7,11.9z"/>
		
			<linearGradient id="SVGID_11_" gradientUnits="userSpaceOnUse" x1="49.3533" y1="6.1242" x2="49.3533" y2="18.1773" gradientTransform="matrix(0.6667 0 0 -0.6667 6.6667 26.6667)">
			<stop  offset="0" style="stop-color:#3071B7"/>
			<stop  offset="0.9939" style="stop-color:#1D2C67"/>
		</linearGradient>
		<polygon class="st12" points="19.6,22.5 59.5,22.5 52.6,12.7 26.5,12.7 		"/>
		
			<linearGradient id="SVGID_12_" gradientUnits="userSpaceOnUse" x1="61.9345" y1="26.3905" x2="61.9345" y2="6.0589" gradientTransform="matrix(0.6667 0 0 -0.6667 6.6667 26.6667)">
			<stop  offset="0" style="stop-color:#A9DAE2"/>
			<stop  offset="1" style="stop-color:#30A0D2;stop-opacity:0"/>
		</linearGradient>
		<polygon class="st13" points="51,22 58.5,22 52.4,13.1 37.4,13.1 		"/>
		
			<linearGradient id="SVGID_13_" gradientUnits="userSpaceOnUse" x1="32.2788" y1="26.3905" x2="32.2788" y2="6.0589" gradientTransform="matrix(0.6667 0 0 -0.6667 6.6667 26.6667)">
			<stop  offset="0" style="stop-color:#A9DAE2"/>
			<stop  offset="1" style="stop-color:#30A0D2;stop-opacity:0"/>
		</linearGradient>
		<polygon class="st14" points="28.2,13.1 26.8,13.1 20.6,22 35.8,22 		"/>
		<g>
			
				<linearGradient id="SVGID_14_" gradientUnits="userSpaceOnUse" x1="49.3533" y1="5.9433" x2="49.3533" y2="20.7006" gradientTransform="matrix(0.6667 0 0 -0.6667 6.6667 26.6667)">
				<stop  offset="0" style="stop-color:#416483"/>
				<stop  offset="1" style="stop-color:#CFD6DF"/>
			</linearGradient>
			<path class="st15" d="M59.7,22.6H19.4l7-10.1h26.3L59.7,22.6z M19.9,22.4h39.4l-6.7-9.7H26.6L19.9,22.4z"/>
		</g>
		
			<linearGradient id="SVGID_15_" gradientUnits="userSpaceOnUse" x1="49.9524" y1="-0.6313" x2="49.9524" y2="12.6653" gradientTransform="matrix(0.6667 0 0 -0.6667 6.6667 26.6667)">
			<stop  offset="0" style="stop-color:#FFFFFF"/>
			<stop  offset="1" style="stop-color:#FFFFFF;stop-opacity:0"/>
		</linearGradient>
		<path class="st16" d="M14,20.9c-0.7,1-1.3,1.8-1.7,2.4c-0.7,1.1-1,1.9-1.1,2.7h57.5c0-0.4-0.1-0.7-0.3-1.1
			c-0.2-0.5-15.7,0.6-33.7-0.1C16.3,24,14.3,20.4,14,20.9z"/>
		<g>
			
				<linearGradient id="SVGID_16_" gradientUnits="userSpaceOnUse" x1="41.7147" y1="23.0352" x2="41.7147" y2="26.2278" gradientTransform="matrix(0.6667 0 0 -0.6667 6.6667 26.6667)">
				<stop  offset="0" style="stop-color:#416483"/>
				<stop  offset="0.5455" style="stop-color:#5A7894"/>
				<stop  offset="1" style="stop-color:#7590A8"/>
			</linearGradient>
			<polygon class="st17" points="36.6,11.1 32.2,11.1 32.6,9.9 36.8,9.9 			"/>
			
				<linearGradient id="SVGID_17_" gradientUnits="userSpaceOnUse" x1="41.7147" y1="23.9211" x2="41.7147" y2="25.9486" gradientTransform="matrix(0.6667 0 0 -0.6667 6.6667 26.6667)">
				<stop  offset="0" style="stop-color:#E5E8EB"/>
				<stop  offset="8.156449e-002" style="stop-color:#D2D9E0"/>
				<stop  offset="0.2539" style="stop-color:#B1BFCC"/>
				<stop  offset="0.4305" style="stop-color:#97AABC"/>
				<stop  offset="0.6109" style="stop-color:#849CB1"/>
				<stop  offset="0.7976" style="stop-color:#7993AA"/>
				<stop  offset="1" style="stop-color:#7590A8"/>
			</linearGradient>
			<polygon class="st18" points="32.5,10.7 32.8,10 36.5,10 36.4,10.7 			"/>
			<polygon class="st19" points="36.4,11 36.5,10.3 36.5,10 36.4,10.7 			"/>
			
				<linearGradient id="SVGID_18_" gradientUnits="userSpaceOnUse" x1="41.6398" y1="24.0501" x2="41.6398" y2="23.4009" gradientTransform="matrix(0.6667 0 0 -0.6667 6.6667 26.6667)">
				<stop  offset="0" style="stop-color:#A0B3C3"/>
				<stop  offset="1" style="stop-color:#7590A8"/>
			</linearGradient>
			<polygon class="st20" points="32.5,10.7 32.5,11 36.4,11 36.4,10.7 			"/>
		</g>
		<g>
			
				<linearGradient id="SVGID_19_" gradientUnits="userSpaceOnUse" x1="89.1465" y1="23.0352" x2="89.1465" y2="26.2278" gradientTransform="matrix(-0.6667 0 0 -0.6667 104.8411 26.6667)">
				<stop  offset="0" style="stop-color:#416483"/>
				<stop  offset="0.5455" style="stop-color:#5A7894"/>
				<stop  offset="1" style="stop-color:#7590A8"/>
			</linearGradient>
			<polygon class="st21" points="43.3,11.1 47.8,11.1 47.3,9.9 43.1,9.9 			"/>
			
				<linearGradient id="SVGID_20_" gradientUnits="userSpaceOnUse" x1="89.2214" y1="23.9211" x2="89.2214" y2="25.9486" gradientTransform="matrix(-0.6667 0 0 -0.6667 104.8411 26.6667)">
				<stop  offset="0" style="stop-color:#E5E8EB"/>
				<stop  offset="8.156449e-002" style="stop-color:#D2D9E0"/>
				<stop  offset="0.2539" style="stop-color:#B1BFCC"/>
				<stop  offset="0.4305" style="stop-color:#97AABC"/>
				<stop  offset="0.6109" style="stop-color:#849CB1"/>
				<stop  offset="0.7976" style="stop-color:#7993AA"/>
				<stop  offset="1" style="stop-color:#7590A8"/>
			</linearGradient>
			<polygon class="st22" points="47.4,10.7 47.1,10 43.4,10 43.5,10.7 			"/>
			<polygon class="st19" points="43.5,11 43.4,10.3 43.4,10 43.5,10.7 			"/>
			
				<linearGradient id="SVGID_21_" gradientUnits="userSpaceOnUse" x1="89.1465" y1="24.0501" x2="89.1465" y2="23.4009" gradientTransform="matrix(-0.6667 0 0 -0.6667 104.8411 26.6667)">
				<stop  offset="0" style="stop-color:#A0B3C3"/>
				<stop  offset="1" style="stop-color:#7590A8"/>
			</linearGradient>
			<polygon class="st23" points="47.4,10.7 47.4,11 43.5,11 43.5,10.7 			"/>
		</g>
		
			<radialGradient id="SVGID_22_" cx="50.8166" cy="54.5802" r="1.9457" gradientTransform="matrix(1.2527 0 0 -0.332 -23.8877 27.9517)" gradientUnits="userSpaceOnUse">
			<stop  offset="0" style="stop-color:#A9DAE2"/>
			<stop  offset="1" style="stop-color:#30A0D2;stop-opacity:0"/>
		</radialGradient>
		<ellipse class="st24" cx="39.8" cy="9.9" rx="2.4" ry="0.6"/>
	</g>
</g>
</svg>
