<?xml version="1.0" encoding="utf-8"?>
<!-- Generator: Adobe Illustrator 18.1.0, SVG Export Plug-In . SVG Version: 6.00 Build 0)  -->
<svg version="1.1" id="图层_1" xmlns="http://www.w3.org/2000/svg" xmlns:xlink="http://www.w3.org/1999/xlink" x="0px" y="0px"
	 width="40px" height="40px" viewBox="-12 -12 40 40" style="enable-background:new -12 -12 40 40;" xml:space="preserve">
<style type="text/css">
	.st0{fill:#FF0000;}
	.st1{fill-rule:evenodd;clip-rule:evenodd;fill:#FFFFFF;}
	.st2{opacity:0.35;}
	.st3{opacity:0.24;fill:#FFFFFF;}
</style>
<g>
	<path class="st0" d="M28,21.8c0,3.5-2.7,6.2-6.2,6.2H-5.7c-3.5,0-6.3-2.8-6.3-6.2V-5.7c0-3.5,2.9-6.3,6.3-6.3h27.5
		c3.5,0,6.2,2.8,6.2,6.3V21.8z"/>
	<g>
		<g>
			<path class="st1" d="M-9.7,17.3c0-1.9,0-3.7,0-5.5c0.9,0,1.9,0,2.8,0c0.6,0,1,0.4,1.1,1c0.2,0.7,0,1.1-0.7,1.6
				c0.8,0.5,1.1,1,0.9,1.8c-0.2,0.7-0.7,1.1-1.7,1.1C-8.1,17.3-8.9,17.3-9.7,17.3z M-8.7,16.4c0.5,0,0.9,0,1.4,0
				c0.4,0,0.8-0.3,0.8-0.7c0-0.5-0.3-0.8-0.8-0.8c-0.4,0-0.9,0-1.4,0C-8.7,15.4-8.7,15.9-8.7,16.4z M-8.7,14c0.5,0,0.9,0,1.4,0
				c0.4,0,0.6-0.3,0.6-0.7c0-0.4-0.2-0.7-0.6-0.7c-0.4,0-0.9,0-1.3,0C-8.7,13.1-8.7,13.5-8.7,14z"/>
			<path class="st1" d="M-1.1,14.9c0.3,0.8,0.6,1.5,0.9,2.3c-0.9,0.3-1,0.2-1.3-0.6c-0.2-0.4-0.3-0.8-0.5-1.2C-2,15.2-2.3,15-2.5,15
				c-1.2,0-1-0.1-1,0.9c0,0.4,0,0.9,0,1.3c-0.4,0-0.6,0-1,0c0-1.8,0-3.6,0-5.5c1,0,2-0.1,3,0c0.6,0,1.1,0.4,1.3,1.1
				C0,13.7-0.2,14.2-1.1,14.9z M-3.5,12.6c0,0.5,0,0.9,0,1.3c0,0.1,0.2,0.3,0.3,0.3c0.4,0,0.9,0,1.3,0c0.4-0.1,0.7-0.3,0.7-0.8
				c0-0.5-0.3-0.8-0.8-0.8C-2.4,12.5-2.9,12.6-3.5,12.6z"/>
			<path class="st1" d="M16.7,17.3c0-1.9,0-3.7,0-5.6c0.9,0,1.7-0.1,2.5,0c1.2,0.2,2,1.3,2,2.6c0,1.4-0.7,2.5-2,2.8
				C18.4,17.3,17.6,17.3,16.7,17.3z M17.7,16.4c1.1,0.2,1.7,0,2.1-0.7c0.5-0.7,0.4-2-0.1-2.7c-0.4-0.6-1.1-0.7-2-0.5
				C17.7,13.9,17.7,15.1,17.7,16.4z"/>
			<path class="st1" d="M5.5,14.7c-0.2,0.5-0.3,1.2-0.7,1.8c-0.9,1.4-2.9,1.3-3.7-0.1c-0.6-1.1-0.6-2.3-0.1-3.4
				c0.4-0.9,1.2-1.3,2.1-1.2c1,0.1,1.6,0.6,2,1.5C5.3,13.6,5.4,14,5.5,14.7z M1.7,14.5c0.1,0.5,0.2,0.9,0.3,1.4
				c0.2,0.4,0.5,0.7,1,0.7c0.5,0,0.9-0.2,1.1-0.7c0.3-0.9,0.3-1.8,0-2.7c-0.2-0.4-0.5-0.7-1-0.7c-0.5,0-0.9,0.2-1,0.7
				C1.9,13.6,1.8,14,1.7,14.5z"/>
			<path class="st1" d="M15.9,17.2c-1,0.1-1.1,0.1-1.3-0.8c-0.1-0.4-0.3-0.6-0.7-0.5c-0.1,0-0.3,0-0.4,0c-1.1,0-1.1,0-1.4,1
				c-0.2,0.6-0.6,0.3-1,0.3c0.1-0.2,0.1-0.3,0.1-0.5c0.5-1.5,1-3.1,1.5-4.6c0.1-0.4,0.4-0.5,0.7-0.5c0.3,0,0.7-0.1,0.8,0.4
				C14.7,13.8,15.3,15.5,15.9,17.2z M12.6,15.1c0.5,0,1,0,1.5,0c-0.2-0.8-0.5-1.5-0.8-2.3C13,13.7,12.8,14.4,12.6,15.1z"/>
			<path class="st1" d="M25.3,14.9c-0.6,0-1.3,0-2,0c0,0.5,0,1,0,1.5c0.8,0,1.6,0,2.5,0c0,0.3,0,0.6,0,0.9c-1,0-2,0-3,0
				c-0.2,0-0.3,0-0.5,0c0-1.8,0-3.7,0-5.5c1.2,0,2.3,0,3.5,0c0,0.3,0,0.5,0,0.8c-0.8,0-1.6,0-2.5,0c0,0.5,0,0.9,0,1.5
				c0.6,0,1.3,0,2,0C25.3,14.3,25.3,14.6,25.3,14.9z"/>
			<path class="st1" d="M9.6,15.4c0.3,0,0.6,0.1,0.8,0.1c0,0.9-0.5,1.6-1.3,1.8c-0.9,0.3-1.8,0-2.3-0.6c-0.9-1-0.9-3.1-0.1-4.2
				c0.5-0.7,1.4-1,2.3-0.8c0.8,0.2,1.3,0.9,1.4,1.9c-0.3,0-0.5,0.1-0.8,0.1c-0.1-0.2-0.1-0.4-0.2-0.6c-0.2-0.4-0.5-0.7-1-0.7
				c-0.3,0.1-0.8,0.3-0.9,0.6c-0.4,0.8-0.4,1.7-0.1,2.6c0.2,0.4,0.4,0.8,1,0.8c0.5,0,0.8-0.3,1-0.8C9.5,15.6,9.6,15.5,9.6,15.4z"/>
		</g>
		<g>
			<path class="st1" d="M0.7,8.4c2-2,4.3-3.6,7-4.7c-2.8-1-5-2.6-7-4.7C0.9-1,1-1,1.2-1c3.2,0,6.5,0,9.7,0c1.2,0,2.1,0.5,2.5,1.6
				c0.5,1.1,0.2,2.1-0.6,3c0,0-0.1,0.1,0,0c0.3,0.6,0.6,1.1,0.8,1.6c0.4,1.7-0.8,3.2-2.6,3.2c-3.4,0-6.7,0-10.1,0
				C0.9,8.4,0.9,8.4,0.7,8.4z M4.4,0.3c0.1,0.1,0.1,0.1,0.1,0.2c1.2,0.8,2.4,1.6,3.7,2C9.1,2.7,10,2.9,10.9,3
				c0.7,0.1,1.3-0.6,1.3-1.3c0-0.7-0.5-1.3-1.3-1.3C8.8,0.3,6.6,0.3,4.4,0.3z M4.5,7.1c0.1,0,0.1,0,0.2,0c2,0,4,0,6,0
				c0.9,0,1.5-0.6,1.5-1.4c0-0.8-0.7-1.4-1.6-1.3C8.3,4.5,6.3,5.7,4.5,7.1z"/>
			<circle class="st1" cx="14.5" cy="-0.5" r="0.9"/>
		</g>
	</g>
</g>
<g>
	<path class="st2" d="M28-5.8v27.5c0,3.4-2.8,6.3-6.3,6.3H-5.8c-2,0-3.7-0.9-4.9-2.3c1.1,0.9,2.4,1.4,3.9,1.4h27.5
		c3.4,0,6.3-2.8,6.3-6.3V-6.7c0-1.5-0.5-2.8-1.4-3.9C27.1-9.5,28-7.7,28-5.8z"/>
	<path class="st3" d="M26.6-9.7c-1.1-0.9-2.4-1.4-3.9-1.4H-4.8c-3.4,0-6.3,2.8-6.3,6.3v27.5c0,1.5,0.5,2.8,1.4,3.9
		c-1.4-1.1-2.3-2.9-2.3-4.9V-5.8c0-3.4,2.8-6.3,6.3-6.3h27.5C23.7-12,25.5-11.1,26.6-9.7z"/>
</g>
</svg>
