<?xml version="1.0" encoding="utf-8"?>
<!-- Generator: Adobe Illustrator 18.1.0, SVG Export Plug-In . SVG Version: 6.00 Build 0)  -->
<svg version="1.1" id="图层_1" xmlns="http://www.w3.org/2000/svg" xmlns:xlink="http://www.w3.org/1999/xlink" x="0px" y="0px"
	 width="40px" height="40px" viewBox="-12 -12 40 40" style="enable-background:new -12 -12 40 40;" xml:space="preserve">
<style type="text/css">
	.st0{fill:#DA60BE;}
	.st1{fill:#FFFFFF;}
	.st2{opacity:0.35;}
	.st3{opacity:0.24;fill:#FFFFFF;}
</style>
<g>
	<path class="st0" d="M28,21.8c0,3.5-2.8,6.3-6.3,6.3H-5.8c-3.5,0-6.3-2.8-6.3-6.3V-5.8c0-3.5,2.8-6.3,6.3-6.3h27.5
		c3.5,0,6.3,2.8,6.3,6.3V21.8z"/>
	<g>
		<g>
			<path class="st1" d="M-5.2,2.7c-0.1,0.6-0.3,1.1-0.6,1.5c-0.3,0.4-0.8,0.5-1.3,0.5c-0.6,0-1.1-0.2-1.4-0.7
				C-8.9,3.6-9.1,3-9.1,2.2c0-0.9,0.2-1.6,0.5-2.1c0.3-0.5,0.8-0.7,1.5-0.7c0.5,0,1,0.2,1.3,0.5c0.3,0.3,0.5,0.8,0.6,1.5h-1.1
				c0-0.3-0.1-0.5-0.2-0.6c-0.1-0.2-0.3-0.2-0.5-0.2c-0.3,0-0.5,0.1-0.6,0.4C-7.9,1.1-7.9,1.5-7.9,2c0,0.6,0.1,1,0.2,1.3
				c0.1,0.3,0.4,0.4,0.7,0.4c0.2,0,0.4-0.1,0.5-0.2C-6.5,3.2-6.4,3-6.4,2.7H-5.2z"/>
			<path class="st1" d="M-3.7,4C-4,3.5-4.2,2.9-4.2,2.1c0-0.8,0.2-1.5,0.6-2c0.4-0.5,0.9-0.7,1.6-0.7c0.7,0,1.2,0.2,1.6,0.7
				C-0.2,0.6,0,1.2,0,2.1C0,2.9-0.2,3.5-0.5,4s-0.9,0.7-1.6,0.7C-2.8,4.7-3.3,4.5-3.7,4z M-1.4,3.2C-1.2,3-1.1,2.6-1.1,2.1
				c0-0.5-0.1-0.9-0.3-1.2c-0.2-0.3-0.4-0.4-0.7-0.4c-0.3,0-0.6,0.1-0.7,0.4C-3,1.2-3.1,1.5-3.1,2.1C-3.1,2.6-3,3-2.9,3.2
				c0.2,0.3,0.4,0.4,0.7,0.4C-1.8,3.6-1.5,3.5-1.4,3.2z"/>
			<path class="st1" d="M1.3-0.5h0.5h0.5v0.8C2.3,0.2,2.4,0.1,2.5,0c0.3-0.4,0.6-0.6,1-0.6c0.4,0,0.7,0.1,0.9,0.4
				C4.5-0.1,4.6,0,4.7,0.2L4.8,0c0.2-0.4,0.6-0.6,1-0.6c0.4,0,0.8,0.1,1,0.4C7.1,0.1,7.2,0.5,7.2,1v3.6H6.7H6.1V1.3
				C6.1,1,6.1,0.8,6,0.7C5.9,0.6,5.7,0.5,5.5,0.5C5.3,0.5,5.1,0.6,5,0.8C4.9,0.9,4.8,1.2,4.8,1.6v3H4.2H3.7V1.4
				c0-0.3-0.1-0.5-0.2-0.7C3.4,0.6,3.3,0.5,3,0.5c-0.2,0-0.4,0.1-0.5,0.3C2.4,0.9,2.3,1.2,2.3,1.6v3H1.8H1.3V-0.5z"/>
			<path class="st1" d="M8.7-0.5h0.5h0.5v0.8C9.8,0.2,9.9,0.1,9.9,0c0.3-0.4,0.6-0.6,1-0.6c0.4,0,0.7,0.1,0.9,0.4
				C12-0.1,12.1,0,12.1,0.2L12.3,0c0.2-0.4,0.6-0.6,1-0.6c0.4,0,0.8,0.1,1,0.4c0.3,0.3,0.4,0.7,0.4,1.2v3.6h-0.5h-0.6V1.3
				c0-0.3-0.1-0.5-0.2-0.6c-0.1-0.1-0.2-0.2-0.4-0.2c-0.2,0-0.4,0.1-0.6,0.3c-0.1,0.2-0.2,0.4-0.2,0.8v3h-0.5h-0.6V1.4
				c0-0.3-0.1-0.5-0.2-0.7c-0.1-0.2-0.3-0.2-0.5-0.2c-0.2,0-0.4,0.1-0.5,0.3C9.9,0.9,9.8,1.2,9.8,1.6v3H9.2H8.7V-0.5z"/>
			<path class="st1" d="M16.5,4c-0.4-0.5-0.6-1.1-0.6-1.9c0-0.8,0.2-1.5,0.6-2c0.4-0.5,0.9-0.7,1.6-0.7c0.7,0,1.2,0.2,1.6,0.7
				c0.4,0.5,0.6,1.1,0.6,2c0,0.8-0.2,1.5-0.6,1.9c-0.4,0.5-0.9,0.7-1.6,0.7C17.4,4.7,16.9,4.5,16.5,4z M18.8,3.2C19,3,19,2.6,19,2.1
				c0-0.5-0.1-0.9-0.3-1.2c-0.2-0.3-0.4-0.4-0.7-0.4c-0.3,0-0.6,0.1-0.7,0.4C17.1,1.2,17,1.5,17,2.1c0,0.5,0.1,0.9,0.3,1.2
				c0.2,0.3,0.4,0.4,0.7,0.4C18.4,3.6,18.6,3.5,18.8,3.2z"/>
			<path class="st1" d="M21.4-0.5h0.5h0.5v0.8L22.6,0c0.3-0.4,0.7-0.7,1.1-0.7c0.4,0,0.8,0.2,1.1,0.5c0.3,0.3,0.4,0.7,0.4,1.2v3.6
				h-0.5h-0.6V1.4c0-0.3-0.1-0.5-0.2-0.7c-0.1-0.2-0.3-0.2-0.5-0.2c-0.3,0-0.5,0.1-0.7,0.3c-0.2,0.2-0.2,0.6-0.2,1v2.8H22h-0.6V-0.5
				z"/>
		</g>
		<g>
			<path class="st1" d="M-9.1,9.4h0.5h0.5v0.8L-8,10c0.3-0.5,0.7-0.7,1.3-0.7c0.5,0,1,0.2,1.3,0.7c0.3,0.5,0.5,1.2,0.5,2
				c0,0.8-0.2,1.5-0.5,2c-0.3,0.5-0.7,0.7-1.3,0.7c-0.5,0-0.9-0.2-1.2-0.7l0-0.1v2.7h-0.6h-0.6V9.4z M-7.1,13.6
				c0.3,0,0.6-0.1,0.7-0.4c0.2-0.3,0.2-0.7,0.2-1.2c0-0.5-0.1-0.9-0.2-1.2c-0.2-0.3-0.4-0.4-0.7-0.4c-0.3,0-0.5,0.1-0.7,0.4
				C-8,11.1-8,11.5-8,12c0,0.5,0.1,0.9,0.2,1.2C-7.6,13.5-7.4,13.6-7.1,13.6z"/>
			<path class="st1" d="M-3.7,9.4h0.5h0.5v0.9l0.1-0.3c0.3-0.5,0.6-0.7,1-0.7c0.1,0,0.2,0,0.2,0v1.4c-0.1,0-0.2,0-0.3,0
				c-0.4,0-0.6,0.1-0.8,0.3c-0.2,0.2-0.3,0.5-0.3,1v2.7h-0.6h-0.6V9.4z"/>
			<path class="st1" d="M0.2,14c-0.4-0.5-0.6-1.2-0.6-2c0-0.8,0.2-1.5,0.6-2c0.4-0.5,0.9-0.7,1.6-0.7C2.5,9.3,3,9.5,3.4,10
				C3.8,10.5,4,11.2,4,12c0,0.8-0.2,1.5-0.6,2c-0.4,0.5-0.9,0.7-1.6,0.7C1.1,14.7,0.6,14.5,0.2,14z M2.6,13.2
				c0.2-0.3,0.3-0.7,0.3-1.2c0-0.5-0.1-0.9-0.3-1.2c-0.2-0.3-0.4-0.4-0.8-0.4c-0.3,0-0.6,0.1-0.8,0.4c-0.2,0.3-0.3,0.7-0.3,1.2
				c0,0.5,0.1,0.9,0.3,1.2c0.2,0.3,0.4,0.4,0.8,0.4C2.1,13.6,2.4,13.5,2.6,13.2z"/>
			<path class="st1" d="M7.2,14.6c-0.2,0-0.4,0-0.7,0c-0.4,0-0.7-0.1-0.9-0.3c-0.2-0.2-0.3-0.5-0.3-0.9v-3.1H4.8v-1h0.6V8h1.1v1.4
				h0.7v1H6.5v2.9c0,0.2,0,0.2,0.1,0.3c0.1,0,0.2,0.1,0.4,0.1h0.2V14.6z"/>
			<path class="st1" d="M8.7,14c-0.4-0.5-0.6-1.2-0.6-2c0-0.8,0.2-1.5,0.6-2c0.4-0.5,0.9-0.7,1.6-0.7c0.7,0,1.2,0.2,1.6,0.7
				c0.4,0.5,0.6,1.2,0.6,2c0,0.8-0.2,1.5-0.6,2c-0.4,0.5-0.9,0.7-1.6,0.7C9.7,14.7,9.1,14.5,8.7,14z M11.1,13.2
				c0.2-0.3,0.3-0.7,0.3-1.2c0-0.5-0.1-0.9-0.3-1.2c-0.2-0.3-0.4-0.4-0.8-0.4c-0.3,0-0.6,0.1-0.8,0.4c-0.2,0.3-0.3,0.7-0.3,1.2
				c0,0.5,0.1,0.9,0.3,1.2c0.2,0.3,0.4,0.4,0.8,0.4C10.7,13.6,10.9,13.5,11.1,13.2z"/>
			<path class="st1" d="M17.5,12.7c-0.1,0.6-0.3,1.1-0.6,1.5c-0.4,0.4-0.8,0.6-1.3,0.6c-0.6,0-1.1-0.2-1.4-0.7
				c-0.3-0.5-0.5-1.1-0.5-1.9c0-0.9,0.2-1.6,0.5-2.1c0.4-0.5,0.9-0.8,1.5-0.8c0.6,0,1,0.2,1.3,0.5c0.3,0.3,0.5,0.8,0.6,1.5h-1.1
				c0-0.3-0.1-0.5-0.2-0.6c-0.1-0.2-0.3-0.2-0.5-0.2c-0.3,0-0.5,0.1-0.7,0.4c-0.2,0.3-0.2,0.6-0.2,1.1c0,0.6,0.1,1,0.2,1.3
				c0.1,0.3,0.4,0.4,0.7,0.4c0.2,0,0.4-0.1,0.5-0.2c0.1-0.2,0.2-0.4,0.2-0.7H17.5z"/>
			<path class="st1" d="M19.1,14c-0.4-0.5-0.6-1.2-0.6-2c0-0.8,0.2-1.5,0.6-2c0.4-0.5,0.9-0.7,1.6-0.7c0.7,0,1.2,0.2,1.6,0.7
				c0.4,0.5,0.6,1.2,0.6,2c0,0.8-0.2,1.5-0.6,2c-0.4,0.5-0.9,0.7-1.6,0.7C20,14.7,19.4,14.5,19.1,14z M21.4,13.2
				c0.2-0.3,0.3-0.7,0.3-1.2c0-0.5-0.1-0.9-0.3-1.2c-0.2-0.3-0.4-0.4-0.8-0.4c-0.3,0-0.6,0.1-0.8,0.4c-0.2,0.3-0.3,0.7-0.3,1.2
				c0,0.5,0.1,0.9,0.3,1.2c0.2,0.3,0.4,0.4,0.8,0.4C21,13.6,21.2,13.5,21.4,13.2z"/>
			<path class="st1" d="M24.1,7.6h0.6h0.6v7h-0.6h-0.6V7.6z"/>
		</g>
	</g>
</g>
<g>
	<path class="st2" d="M28-5.8v27.5c0,3.4-2.8,6.3-6.3,6.3H-5.8c-2,0-3.7-0.9-4.9-2.3c1.1,0.9,2.4,1.4,3.9,1.4h27.5
		c3.4,0,6.3-2.8,6.3-6.3V-6.7c0-1.5-0.5-2.8-1.4-3.9C27.1-9.5,28-7.7,28-5.8z"/>
	<path class="st3" d="M26.6-9.7c-1.1-0.9-2.4-1.4-3.9-1.4H-4.8c-3.4,0-6.3,2.8-6.3,6.3v27.5c0,1.5,0.5,2.8,1.4,3.9
		c-1.4-1.1-2.3-2.9-2.3-4.9V-5.8c0-3.4,2.8-6.3,6.3-6.3h27.5C23.7-12,25.5-11.1,26.6-9.7z"/>
</g>
</svg>
