<?xml version="1.0" encoding="utf-8"?>
<!-- Generator: Adobe Illustrator 18.1.0, SVG Export Plug-In . SVG Version: 6.00 Build 0)  -->
<svg version="1.1" id="图层_1" xmlns="http://www.w3.org/2000/svg" xmlns:xlink="http://www.w3.org/1999/xlink" x="0px" y="0px"
	 width="40px" height="40px" viewBox="-12 -12 40 40" style="enable-background:new -12 -12 40 40;" xml:space="preserve">
<style type="text/css">
	.st0{fill:#E05E80;}
	.st1{fill:#FFFFFF;}
	.st2{opacity:0.35;}
	.st3{opacity:0.24;fill:#FFFFFF;}
</style>
<g>
	<g>
		<path class="st0" d="M28,21.8c0,3.5-2.8,6.3-6.3,6.3H-5.8c-3.5,0-6.3-2.8-6.3-6.3V-5.8c0-3.5,2.8-6.3,6.3-6.3h27.5
			c3.5,0,6.3,2.8,6.3,6.3V21.8z"/>
		<g>
			<g>
				<path class="st1" d="M-3.9,14.6c-0.1,0.7-0.3,1.2-0.7,1.6c-0.4,0.4-0.8,0.6-1.4,0.6c-0.7,0-1.2-0.3-1.6-0.8
					c-0.4-0.6-0.6-1.3-0.6-2.2c0-0.9,0.2-1.7,0.6-2.2c0.4-0.6,0.9-0.8,1.6-0.8c0.6,0,1,0.2,1.4,0.6c0.4,0.4,0.6,0.9,0.7,1.5h-1
					c0-0.3-0.1-0.6-0.3-0.8c-0.2-0.2-0.4-0.3-0.7-0.3c-0.4,0-0.7,0.2-0.9,0.5c-0.2,0.4-0.3,0.9-0.3,1.5c0,0.6,0.1,1.1,0.3,1.5
					c0.2,0.4,0.5,0.5,0.9,0.5c0.3,0,0.5-0.1,0.7-0.3c0.2-0.2,0.3-0.5,0.3-0.8H-3.9z"/>
				<path class="st1" d="M-2.3,15.9c-0.4-0.6-0.6-1.3-0.6-2.2c0-0.9,0.2-1.7,0.6-2.2c0.4-0.6,1-0.8,1.7-0.8c0.7,0,1.3,0.3,1.7,0.8
					c0.4,0.6,0.6,1.3,0.6,2.2c0,0.9-0.2,1.7-0.6,2.2c-0.4,0.6-1,0.8-1.7,0.8C-1.3,16.8-1.9,16.5-2.3,15.9z M0.3,15.2
					c0.2-0.4,0.4-0.9,0.4-1.5c0-0.6-0.1-1.1-0.3-1.5c-0.2-0.4-0.5-0.5-0.9-0.5c-0.4,0-0.7,0.2-0.9,0.5c-0.2,0.4-0.3,0.9-0.3,1.5
					c0,0.6,0.1,1.1,0.3,1.5c0.2,0.4,0.5,0.5,0.9,0.5C-0.2,15.7,0.1,15.5,0.3,15.2z"/>
				<path class="st1" d="M3.8,16.6H3.3H2.9v-5.8h0.7h0.7l0.9,4.6h0L6,10.8h0.7h0.7v5.8H7H6.6v-4.9h0l-0.9,4.9H5.2H4.7l-0.9-4.9h0
					V16.6z"/>
				<path class="st1" d="M9.7,16.6H9.3H8.8v-5.8h0.7h0.7l0.9,4.6h0l0.8-4.6h0.7h0.7v5.8H13h-0.5v-4.9h0l-0.9,4.9h-0.5h-0.5l-0.9-4.9
					h0V16.6z"/>
				<path class="st1" d="M15.2,15.9c-0.4-0.6-0.6-1.3-0.6-2.2c0-0.9,0.2-1.7,0.6-2.2c0.4-0.6,1-0.8,1.7-0.8c0.7,0,1.3,0.3,1.7,0.8
					c0.4,0.6,0.6,1.3,0.6,2.2c0,0.9-0.2,1.7-0.6,2.2c-0.4,0.6-1,0.8-1.7,0.8C16.2,16.8,15.6,16.5,15.2,15.9z M17.8,15.2
					c0.2-0.4,0.4-0.9,0.4-1.5c0-0.6-0.1-1.1-0.3-1.5c-0.2-0.4-0.5-0.5-0.9-0.5c-0.4,0-0.7,0.2-0.9,0.5c-0.2,0.4-0.3,0.9-0.3,1.5
					c0,0.6,0.1,1.1,0.3,1.5c0.2,0.4,0.5,0.5,0.9,0.5C17.3,15.7,17.6,15.5,17.8,15.2z"/>
				<path class="st1" d="M21.3,16.6h-0.5h-0.5v-5.8h0.5h0.5l1.9,4v-4h0.5h0.5v5.8h-0.5h-0.5l-2-4.2V16.6z"/>
			</g>
		</g>
	</g>
	<g>
		<path class="st1" d="M1-0.7h0.7h0.7V5c0,0.9-0.2,1.5-0.5,1.9C1.5,7.3,1,7.5,0.3,7.5c-0.7,0-1.3-0.2-1.6-0.6
			c-0.3-0.4-0.5-1.1-0.5-2.1V4.3h1.3v0.5c0,0.5,0.1,0.8,0.2,1.1C-0.2,6.1,0,6.2,0.2,6.2c0.3,0,0.5-0.1,0.6-0.3C0.9,5.7,1,5.4,1,5
			V-0.7z"/>
		<path class="st1" d="M5.5,7.3H4.9H4.3v-8.1h1h1l1.2,6.4h0l1.2-6.4h1h1v8.1H10H9.4V0.6h0L8.1,7.3H7.5H6.8L5.5,0.5h0V7.3z"/>
		<path class="st1" d="M14.1,3.2l-2-4h0.8h0.8l1.2,2.6l1.2-2.6h0.8h0.8l-2,3.9l2.2,4.2H17h-0.8l-1.3-2.7l-1.3,2.7h-0.8H12L14.1,3.2z
			"/>
	</g>
</g>
<g>
	<path class="st2" d="M28-5.8v27.5c0,3.4-2.8,6.3-6.3,6.3H-5.8c-2,0-3.7-0.9-4.9-2.3c1.1,0.9,2.4,1.4,3.9,1.4h27.5
		c3.4,0,6.3-2.8,6.3-6.3V-6.7c0-1.5-0.5-2.8-1.4-3.9C27.1-9.5,28-7.7,28-5.8z"/>
	<path class="st3" d="M26.6-9.7c-1.1-0.9-2.4-1.4-3.9-1.4H-4.8c-3.4,0-6.3,2.8-6.3,6.3v27.5c0,1.5,0.5,2.8,1.4,3.9
		c-1.4-1.1-2.3-2.9-2.3-4.9V-5.8c0-3.4,2.8-6.3,6.3-6.3h27.5C23.7-12,25.5-11.1,26.6-9.7z"/>
</g>
</svg>
