<?xml version="1.0" encoding="utf-8"?>
<!-- Generator: Adobe Illustrator 18.1.0, SVG Export Plug-In . SVG Version: 6.00 Build 0)  -->
<svg version="1.1" id="图层_1" xmlns="http://www.w3.org/2000/svg" xmlns:xlink="http://www.w3.org/1999/xlink" x="0px" y="0px"
	 width="40px" height="40px" viewBox="-12 -12 40 40" style="enable-background:new -12 -12 40 40;" xml:space="preserve">
<style type="text/css">
	.st0{fill:#1763AA;}
	.st1{fill:#FFFFFF;}
	.st2{opacity:0.35;}
	.st3{opacity:0.24;fill:#FFFFFF;}
</style>
<g>
	<path class="st0" d="M28,21.8c0,3.5-2.8,6.3-6.3,6.3H-5.8c-3.5,0-6.3-2.8-6.3-6.3V-5.8c0-3.5,2.8-6.3,6.3-6.3h27.5
		c3.5,0,6.3,2.8,6.3,6.3V21.8z"/>
	<g>
		<g>
			<path class="st1" d="M-0.4,2c-0.4-1.7-1.8-2.9-3.5-2.9c-2.3,0-3.6,0-3.6,0l-0.2,1h2.6c0,0,0,0,0.1,0c0,0,0,0,0,0c0,0,0,0,0.1,0
				c0,0,0,0,0.1,0c0,0,0,0,0.1,0c0.1,0,0.1,0,0.2,0c0,0,0,0,0,0c0,0,0,0,0.1,0c0,0,0,0,0,0c0,0,0,0,0.1,0c0,0,0,0,0,0c0,0,0,0,0.1,0
				c0,0,0,0,0.1,0c0,0,0,0,0.1,0c0.1,0,0.1,0,0.1,0c0,0,0,0,0.1,0c0,0,0,0,0.1,0c0,0,0,0,0.1,0c0,0,0,0,0.1,0c0,0,0,0,0.1,0
				c0,0,0,0,0.1,0c0,0,0,0,0,0c0,0,0,0,0.1,0c0,0,0,0,0.1,0c0,0,0,0,0.1,0c0,0,0,0,0,0c0,0,0,0,0.1,0c0,0,0,0,0.1,0c0,0,0,0,0,0
				c0,0,0,0,0.1,0c0,0,0,0,0,0C-3.2,0.7-3.1,0.8-3,0.9c0.6,0.7,0.8,1.7,0.5,3c-0.5,2.2-2,2.8-3.6,2.8h-0.8l1.1-5.8h-2L-9,6.7l-0.2,1
				c0,0,2.8,0,4,0c1.1,0,4-0.7,4.7-3.6c0.1-0.4,0.2-0.9,0.2-1.3C-0.3,2.5-0.4,2.2-0.4,2z"/>
			<path class="st1" d="M6.3,0.6C5.6,2,5.5,3.2,5.4,3.8C4,4.6,1.9,4.4,1.9,4.4L1.2,7.7h-2l1.3-6.8h2L2,3.6C2,3.6,4,4,4.2,2
				c0.1-1.1-0.4-1.7-0.8-1.7c-0.4,0-0.4,0-0.4,0l-2.4,0l0.2-1c0,0,2.3,0,3.3,0C4.8-0.8,6.1-0.2,6.3,0.6z"/>
			<path class="st1" d="M6.2,4C6.2,4,6-1.5,11.7-4c5.7-2.5,9.8,2.4,10.3,3.5c0,0-6-6.6-12,1C10,0.6,7.2,0.9,6.2,4z"/>
			<polygon class="st1" points="22.2,-0.4 22.6,0 23.1,-0.2 22.8,0.3 23.2,0.8 22.6,0.6 22.3,1.1 22.2,0.5 21.7,0.4 22.2,0.1 			"/>
			<path class="st1" d="M10.4,3.3c0.4,0,0.8,0,0.8,0l0.1-0.5h-0.8c0.2-1,0.4-1.8,0.4-1.8L9.3,1.6c0,0-0.1,0.5-0.2,1.1H8.5L8.3,3.3
				c0.1,0,0.3,0.1,0.7,0.1C8.7,4.5,8.4,5.8,8.4,6c0,0.3-0.2,1.2,0.3,1.5c0.5,0.4,1.8-0.1,1.8-0.1l0-0.3c-1,0.2-0.7-0.6-0.6-1.1
				C9.9,5.6,10.2,4.5,10.4,3.3z"/>
			<path class="st1" d="M15.5,5.1c0,0,0.7-2.7-1.6-2.5c-2.3,0.2-2.7,1.9-2.8,2.5s-0.2,3.6,3.6,2.1L15,6.6c0,0-2.7,1.5-2.4-1.5H15.5z
				 M13.9,3c0.8,0.1,0.3,1.7,0.3,1.7l-1.5-0.1C12.7,4.6,13.1,2.9,13.9,3z"/>
			<path class="st1" d="M20.7,3c0,0-2.4-1.4-4.2,0.8c-1.7,2.2,0,4.9,3.1,3.4l0.3-0.7h-0.2c0,0-2.7,1.4-2.3-1.5
				c0.4-2.7,2.6-2.5,2.5-1.1L20,4.2L20.7,3z"/>
			<path class="st1" d="M24.1,2.7c-0.8-0.1-1.6,0.4-2,0.8l0.4-1.9L22,1.6l-0.3-0.9h-0.4l-1.4,7h1.4l0.2-1.2c0.2-1,0.5-2.2,0.6-2.5
				c0.3-0.4,1-0.5,1.2-0.4c0.2,0.2,0.3,0.8,0.1,1.7c-0.2,0.9-0.5,2.3-0.5,2.3h1.4c0,0,0.6-2.9,0.7-3.3C25.2,4,25.4,2.8,24.1,2.7z"/>
		</g>
		<g>
			<path class="st1" d="M1.8,20.7v-6.1h4.3v0.5v0.5h-3v1.4h2.7v0.5v0.5H3.1v2.6H2.5H1.8z"/>
			<path class="st1" d="M8.2,20.7l-1.7-6.1h0.7h0.7l1,4.4h0l0.9-4.4h0.7H11l0.9,4.4h0l1-4.4h0.6h0.6l-1.7,6.1h-0.6h-0.6l-1-4.8l0,0
				l-1,4.8H8.8H8.2z"/>
		</g>
	</g>
</g>
<g>
	<path class="st2" d="M28-5.8v27.5c0,3.4-2.8,6.3-6.3,6.3H-5.8c-2,0-3.7-0.9-4.9-2.3c1.1,0.9,2.4,1.4,3.9,1.4h27.5
		c3.4,0,6.3-2.8,6.3-6.3V-6.7c0-1.5-0.5-2.8-1.4-3.9C27.1-9.5,28-7.7,28-5.8z"/>
	<path class="st3" d="M26.6-9.7c-1.1-0.9-2.4-1.4-3.9-1.4H-4.8c-3.4,0-6.3,2.8-6.3,6.3v27.5c0,1.5,0.5,2.8,1.4,3.9
		c-1.4-1.1-2.3-2.9-2.3-4.9V-5.8c0-3.4,2.8-6.3,6.3-6.3h27.5C23.7-12,25.5-11.1,26.6-9.7z"/>
</g>
</svg>
