<?xml version="1.0" encoding="utf-8"?>
<!-- Generator: Adobe Illustrator 18.1.0, SVG Export Plug-In . SVG Version: 6.00 Build 0)  -->
<svg version="1.1" id="图层_1" xmlns="http://www.w3.org/2000/svg" xmlns:xlink="http://www.w3.org/1999/xlink" x="0px" y="0px"
	 width="40px" height="40px" viewBox="-12 -12 40 40" style="enable-background:new -12 -12 40 40;" xml:space="preserve">
<style type="text/css">
	.st0{fill:#528EEC;}
	.st1{fill:#FFFFFF;}
	.st2{opacity:0.35;}
	.st3{opacity:0.24;fill:#FFFFFF;}
</style>
<g>
	<path class="st0" d="M28,21.8c0,3.5-2.8,6.3-6.3,6.3H-5.8c-3.5,0-6.3-2.8-6.3-6.3V-5.8c0-3.5,2.8-6.3,6.3-6.3h27.5
		c3.5,0,6.3,2.8,6.3,6.3V21.8z"/>
	<g>
		<path class="st1" d="M-2-6v28h20V-6H-2z M16.3-5.6c0.4,0,0.8,0.4,0.8,0.8c0,0.4-0.4,0.8-0.8,0.8c-0.4,0-0.8-0.4-0.8-0.8
			C15.5-5.2,15.8-5.6,16.3-5.6z M-0.6-5.6c0.4,0,0.8,0.4,0.8,0.8C0.2-4.4-0.2-4-0.6-4C-1-4-1.4-4.4-1.4-4.8C-1.4-5.2-1-5.6-0.6-5.6z
			 M-0.6,21.6c-0.4,0-0.8-0.4-0.8-0.8c0-0.4,0.4-0.8,0.8-0.8c0.4,0,0.8,0.4,0.8,0.8C0.2,21.2-0.2,21.6-0.6,21.6z M16.3,21.6
			c-0.4,0-0.8-0.4-0.8-0.8c0-0.4,0.4-0.8,0.8-0.8c0.4,0,0.8,0.4,0.8,0.8C17.1,21.2,16.7,21.6,16.3,21.6z M13.8,10.3
			c-1,0.7,3.2,2.5,3.2,2.5v4.9L14,21H1.9L-1,17.8v-7.1c0,0,2.2-1.5,1.6-2.3l0,0c-1-1.5-1.4-3.2-1.4-5.1C-0.8,2.2-1,1.1,0,0.1v0
			c0-0.6-0.6-2.2-0.4-2.9c0.2-0.7,1.7-2,2.6-2c0.5,0,0.8,0.3,1,0.6c1.4-0.9,3.1-1.5,4.9-1.5c5,0,9.1,4,9.1,9
			C17.1,6.1,15.9,8.7,13.8,10.3z"/>
		<polygon class="st1" points="15,14 15,17.3 14.4,19 10,19 10,15 11.4,14 		"/>
		<path class="st1" d="M1.7,11.7c-0.8,0-1.5,0.6-1.5,1.4s0,3.8,0,3.8L3.3,20h3.5c0,0,1.6-1,1.6-2.4s-0.9-1-0.9-1S5,18.5,3.5,16.5
			S3,13.3,3,12.7S2.2,11.7,1.7,11.7z"/>
		<path class="st1" d="M8.1-4.6C3.7-4.6,0.2-1,0.2,3.3c0,3.4,2.2,6.4,5.3,7.4L9.3,7c0,0,1.1-0.7,1.7,0s0.4,1.5,0.4,1.5L10,10.9
			c3.4-0.9,5.9-4,5.9-7.6C15.9-1,12.4-4.6,8.1-4.6z M8.1,6.2c-1.6,0-2.9-1.3-2.9-2.9c0-1.6,1.3-2.9,2.9-2.9c1.6,0,2.9,1.3,2.9,2.9
			C10.9,4.9,9.7,6.2,8.1,6.2z"/>
		<path class="st1" d="M10,8c0.3,0.2,0,0.8,0,0.8l-3.3,6.8c0,0-1,0.9-2,0s-0.3-1.9-0.3-1.9l5.1-5.4L10,8z"/>
		<circle class="st1" cx="8.1" cy="3.3" r="1.2"/>
	</g>
</g>
<g>
	<path class="st2" d="M28-5.8v27.5c0,3.4-2.8,6.3-6.3,6.3H-5.8c-2,0-3.7-0.9-4.9-2.3c1.1,0.9,2.4,1.4,3.9,1.4h27.5
		c3.4,0,6.3-2.8,6.3-6.3V-6.7c0-1.5-0.5-2.8-1.4-3.9C27.1-9.5,28-7.7,28-5.8z"/>
	<path class="st3" d="M26.6-9.7c-1.1-0.9-2.4-1.4-3.9-1.4H-4.8c-3.4,0-6.3,2.8-6.3,6.3v27.5c0,1.5,0.5,2.8,1.4,3.9
		c-1.4-1.1-2.3-2.9-2.3-4.9V-5.8c0-3.4,2.8-6.3,6.3-6.3h27.5C23.7-12,25.5-11.1,26.6-9.7z"/>
</g>
</svg>
