<?xml version="1.0" encoding="utf-8"?>
<!-- Generator: Adobe Illustrator 18.1.0, SVG Export Plug-In . SVG Version: 6.00 Build 0)  -->
<svg version="1.1" id="图层_1" xmlns="http://www.w3.org/2000/svg" xmlns:xlink="http://www.w3.org/1999/xlink" x="0px" y="0px"
	 width="128px" height="128px" viewBox="-56 -56 128 128" style="enable-background:new -56 -56 128 128;" xml:space="preserve">
<style type="text/css">
	.st0{fill:#15ABE5;}
	.st1{fill:#FFFFFF;}
	.st2{fill:#5D5D5D;}
	.st3{opacity:0.35;}
	.st4{opacity:0.24;fill:#FFFFFF;}
</style>
<g>
	<path class="st0" d="M72,52c0,11-9,20-20,20h-88c-11,0-20-9-20-20v-88c0-11,9-20,20-20h88c11,0,20,9,20,20V52z"/>
	<g>
		<rect x="-1" y="19" class="st1" width="11" height="6"/>
		<path class="st1" d="M-8,14v25h25V14H-8z M13,34H8v2H1v-2h-5v-2h5v-2h2v-4h-5v-8h13v8H6v4h2v2h5V34z M-8,14v25h25V14H-8z M13,34H8
			v2H1v-2h-5v-2h5v-2h2v-4h-5v-8h13v8H6v4h2v2h5V34z M-8,14v25h25V14H-8z M13,34H8v2H1v-2h-5v-2h5v-2h2v-4h-5v-8h13v8H6v4h2v2h5V34z
			 M-8,14v25h25V14H-8z M13,34H8v2H1v-2h-5v-2h5v-2h2v-4h-5v-8h13v8H6v4h2v2h5V34z M-8,14v25h25V14H-8z M13,34H8v2H1v-2h-5v-2h5v-2
			h2v-4h-5v-8h13v8H6v4h2v2h5V34z M-8,14v25h25V14H-8z M13,34H8v2H1v-2h-5v-2h5v-2h2v-4h-5v-8h13v8H6v4h2v2h5V34z M3-32v11h11v-11H3
			z M-8,14v25h25V14H-8z M13,34H8v2H1v-2h-5v-2h5v-2h2v-4h-5v-8h13v8H6v4h2v2h5V34z M-8,14v25h25V14H-8z M13,34H8v2H1v-2h-5v-2h5v-2
			h2v-4h-5v-8h13v8H6v4h2v2h5V34z M3-32v11h11v-11H3z M3-32v11h11v-11H3z M-8,14v25h25V14H-8z M13,34H8v2H1v-2h-5v-2h5v-2h2v-4h-5
			v-8h13v8H6v4h2v2h5V34z M-8,14v25h25V14H-8z M13,34H8v2H1v-2h-5v-2h5v-2h2v-4h-5v-8h13v8H6v4h2v2h5V34z M3-32v11h11v-11H3z
			 M-13-40v86h35v-86H-13z M14.7-38.2c0.9,0,1.7,0.8,1.7,1.7c0,0.9-0.8,1.7-1.7,1.7S13-35.6,13-36.5C13-37.4,13.8-38.2,14.7-38.2z
			 M1-34h15v15H1V-34z M10-6h6V4h-6V-6z M9.1-10.9c-0.9,0-1.6-0.7-1.6-1.6c0-0.9,0.7-1.6,1.6-1.6c0.9,0,1.6,0.7,1.6,1.6
			C10.7-11.6,10-10.9,9.1-10.9z M6.7,1c0,1.3-1.1,2.4-2.4,2.4C3,3.5,1.9,2.4,1.9,1c0-1.3,1.1-2.4,2.4-2.4C5.7-1.4,6.7-0.3,6.7,1z
			 M-5.3-38.2c0.9,0,1.7,0.8,1.7,1.7c0,0.9-0.8,1.7-1.7,1.7S-7-35.6-7-36.5C-7-37.4-6.2-38.2-5.3-38.2z M-3.5-13c0,1.7-1.3,3-3,3
			c-1.6,0-3-1.3-3-3c0-1.7,1.4-3,3-3C-4.8-16-3.5-14.6-3.5-13z M-11-30h6v10h-6V-30z M-11-7h10v6h-10V-7z M19,41h-29V12h29V41z
			 M17,14H-8v25h25V14z M13,34H8v2H1v-2h-5v-2h5v-2h2v-4h-5v-8h13v8H6v4h2v2h5V34z M3-21h11v-11H3V-21z M3-32v11h11v-11H3z M-8,14
			v25h25V14H-8z M13,34H8v2H1v-2h-5v-2h5v-2h2v-4h-5v-8h13v8H6v4h2v2h5V34z M-8,14v25h25V14H-8z M13,34H8v2H1v-2h-5v-2h5v-2h2v-4h-5
			v-8h13v8H6v4h2v2h5V34z M3-32v11h11v-11H3z M-8,14v25h25V14H-8z M13,34H8v2H1v-2h-5v-2h5v-2h2v-4h-5v-8h13v8H6v4h2v2h5V34z M-8,14
			v25h25V14H-8z M13,34H8v2H1v-2h-5v-2h5v-2h2v-4h-5v-8h13v8H6v4h2v2h5V34z M-8,14v25h25V14H-8z M13,34H8v2H1v-2h-5v-2h5v-2h2v-4h-5
			v-8h13v8H6v4h2v2h5V34z M-8,14v25h25V14H-8z M13,34H8v2H1v-2h-5v-2h5v-2h2v-4h-5v-8h13v8H6v4h2v2h5V34z M-8,14v25h25V14H-8z
			 M13,34H8v2H1v-2h-5v-2h5v-2h2v-4h-5v-8h13v8H6v4h2v2h5V34z M-8,14v25h25V14H-8z M13,34H8v2H1v-2h-5v-2h5v-2h2v-4h-5v-8h13v8H6v4
			h2v2h5V34z"/>
		<g>
			<polygon class="st1" points="-25,56 -27,56 -27,48 42,48 42,50 -25,50 			"/>
		</g>
		<polygon class="st1" points="26,-34 26,-33 30,-33 30,-32 26,-32 26,-31 30,-31 30,-29 26,-29 26,-28 30,-28 30,-27 26,-27 
			26,-26 30,-26 30,-25 26,-25 26,-23 30,-23 30,-22 26,-22 26,-21 30,-21 30,-20 26,-20 26,-19 30,-19 30,-18 26,-18 26,-16 
			30,-16 30,-15 26,-15 26,-14 30,-14 30,-13 26,-13 26,-12 30,-12 30,-11 27,-11 27,-9 30,-9 30,-8 26,-8 26,-7 30,-7 30,-6 26,-6 
			26,-5 30,-5 30,-4 26,-4 26,-2 30,-2 30,-1 26,-1 26,0 30,0 30,1 26,1 26,2 30,2 30,3 26,3 26,5 30,5 30,6 26,6 26,7 30,7 30,8 
			26,8 26,9 30,9 30,10 26,10 26,12 30,12 30,13 26,13 26,14 30,14 30,15 26,15 26,16 30,16 30,17 26,17 26,19 30,19 30,20 26,20 
			26,21 30,21 30,22 26,22 26,23 30,23 30,24 26,24 26,26 30,26 30,27 26,27 26,28 30,28 30,29 26,29 26,30 30,30 30,31 26,31 
			26,33 30,33 30,34 24,34 24,-36 30,-36 30,-34 		"/>
		<rect x="3" y="-32" class="st2" width="11" height="11"/>
		<rect x="3" y="-32" class="st1" width="11" height="11"/>
		<rect x="-1" y="19" class="st2" width="11" height="6"/>
		<path class="st2" d="M-8,14v25h25V14H-8z M13,34H8v2H1v-2h-5v-2h5v-2h2v-4h-5v-8h13v8H6v4h2v2h5V34z"/>
		<rect x="-1" y="19" class="st1" width="11" height="6"/>
		<path class="st1" d="M-8,14v25h25V14H-8z M13,34H8v2H1v-2h-5v-2h5v-2h2v-4h-5v-8h13v8H6v4h2v2h5V34z"/>
		<rect x="-1" y="19" class="st2" width="11" height="6"/>
		<rect x="-1" y="19" class="st1" width="11" height="6"/>
	</g>
</g>
<g>
	<path class="st3" d="M72-36v88c0,11-9,20-20,20h-88c-6.3,0-11.9-2.9-15.5-7.5c3.4,2.8,7.8,4.5,12.5,4.5h88c11,0,20-9,20-20v-88
		c0-4.7-1.7-9.1-4.5-12.5C69.1-47.9,72-42.3,72-36z"/>
	<path class="st4" d="M67.5-48.5C64.1-51.3,59.7-53,55-53h-88c-11,0-20,9-20,20v88c0,4.7,1.7,9.1,4.5,12.5C-53.1,63.9-56,58.3-56,52
		v-88c0-11,9-20,20-20h88C58.3-56,63.9-53.1,67.5-48.5z"/>
</g>
</svg>
