<?xml version="1.0" encoding="utf-8"?>
<!-- Generator: Adobe Illustrator 18.1.0, SVG Export Plug-In . SVG Version: 6.00 Build 0)  -->
<svg version="1.1" id="图层_1" xmlns="http://www.w3.org/2000/svg" xmlns:xlink="http://www.w3.org/1999/xlink" x="0px" y="0px"
	 width="40px" height="40px" viewBox="-12 -12 40 40" style="enable-background:new -12 -12 40 40;" xml:space="preserve">
<style type="text/css">
	.st0{fill:#1F5FA3;}
	.st1{fill:#FFFFFF;}
	.st2{opacity:0.35;}
	.st3{opacity:0.24;fill:#FFFFFF;}
</style>
<g>
	<path class="st0" d="M28,21.8c0,3.5-2.7,6.2-6.1,6.2H-5.6c-3.5,0-6.4-2.8-6.4-6.2V-5.7c0-3.5,2.9-6.3,6.4-6.3h27.5
		c3.5,0,6.1,2.8,6.1,6.3V21.8z"/>
	<g>
		<g>
			<g>
				<g>
					<path class="st1" d="M-0.1,18.5l-0.5,2.7h-6.7v-0.3c0.4,0,0.6-0.1,0.7-0.1c0.2-0.1,0.3-0.3,0.3-0.6v-5.5c0-0.3-0.1-0.5-0.3-0.6
						c-0.1-0.1-0.4-0.1-0.7-0.1v-0.3h4.1v0.3c-0.5,0-0.8,0.1-0.9,0.2c-0.2,0.1-0.3,0.4-0.3,0.8v5.4c0,0.3,0.1,0.5,0.3,0.5
						c0.1,0,0.4,0.1,0.7,0.1c0.8,0,1.4-0.2,1.8-0.6c0.4-0.3,0.8-0.9,1-1.7H-0.1z"/>
					<path class="st1" d="M3.7,21.2h-3v-0.3c0.4-0.1,0.7-0.3,0.7-0.6v-3.4c0-0.2-0.1-0.4-0.4-0.4v-0.3l2.1-0.4v4.5
						c0,0.4,0.2,0.6,0.6,0.6V21.2z M3.2,14.3c0,0.3-0.1,0.5-0.3,0.7c-0.2,0.2-0.4,0.3-0.7,0.3c-0.3,0-0.5-0.1-0.7-0.3
						c-0.2-0.2-0.3-0.4-0.3-0.7c0-0.7,0.3-1,1-1c0.3,0,0.5,0.1,0.7,0.3C3.1,13.8,3.2,14,3.2,14.3z"/>
					<path class="st1" d="M10.7,21.2H7.8v-0.3c0.4,0,0.6-0.2,0.6-0.6v-2.8c0-0.6-0.2-0.9-0.6-0.9c-0.3,0-0.7,0.2-0.9,0.5
						c-0.1,0.1-0.1,0.1-0.1,0.2v3.1c0,0.3,0.2,0.5,0.6,0.6v0.3H4.5v-0.3c0.3-0.1,0.4-0.1,0.5-0.2c0.1-0.1,0.2-0.2,0.2-0.5v-3.4
						c0-0.2-0.1-0.3-0.4-0.4v-0.3l2-0.4v0.9c0.4-0.6,0.9-0.9,1.6-0.9c0.5,0,0.9,0.2,1.2,0.5c0.3,0.3,0.4,0.7,0.4,1.2v2.9
						c0,0.4,0.2,0.6,0.6,0.6V21.2z"/>
					<path class="st1" d="M17.2,21c-0.5,0-0.9,0.1-1.2,0.1c-0.4,0.1-0.8,0.2-1.1,0.3v-0.7c-0.6,0.5-1.1,0.7-1.6,0.7
						s-0.9-0.1-1.2-0.4c-0.3-0.3-0.4-0.7-0.4-1.2v-2.9c0-0.2-0.1-0.3-0.4-0.4v-0.3l2-0.4v4c0,0.5,0.2,0.8,0.6,0.8
						c0.3,0,0.6-0.2,1-0.5v-3.3c0-0.2-0.1-0.3-0.4-0.4v-0.3l2-0.4V20c0,0.3,0.2,0.6,0.7,0.6V21z"/>
					<path class="st1" d="M23.6,21.2h-3v-0.3c0.4,0,0.5-0.1,0.5-0.1c0,0-0.3-0.5-0.9-1.4l-0.8,0.9c-0.1,0.1-0.2,0.2-0.2,0.3
						c0,0.1,0.2,0.2,0.6,0.3v0.3h-2v-0.3c0.3,0,0.6-0.2,0.9-0.5l1.1-1.4l-1.4-2.2c-0.2-0.3-0.4-0.4-0.7-0.5v-0.3h3.1v0.3
						c-0.4,0-0.6,0.1-0.6,0.2c0,0.1,0.3,0.5,0.8,1.3l0.8-0.9c0.1-0.1,0.1-0.2,0.1-0.3c0-0.1-0.1-0.2-0.2-0.2c0,0-0.1,0-0.4,0v-0.3h2
						v0.3c-0.3,0-0.6,0.2-0.8,0.4l-1.2,1.4l1.8,2.6c0.1,0.1,0.2,0.2,0.4,0.2V21.2z"/>
				</g>
				<g>
					<g>
						<path class="st1" d="M11.9,12.5c-0.3,0-0.6-0.1-0.8-0.2c-0.3-0.1-0.4-0.3-0.4-0.4c-0.1-0.2-0.2-0.3-0.7-0.3
							c-0.5,0-0.9,0-1.4,0c-0.4,0-0.8,0-1.2,0c-0.8,0-1.1,0.3-1.5,0.5c-0.3,0.2-0.5,0.4-1,0.4c-0.3,0-0.7-0.1-1.1-0.3
							c-0.4-0.1-1-0.3-1.6-0.5c-0.2,0-0.4-0.1-0.6-0.1c-0.7-0.1-1.3-0.2-1.4-0.5c-0.1-0.3,0-0.5,0.1-0.8c0.1-0.2,0.1-0.3,0.1-0.4
							c0-0.2,0-0.4-0.1-0.6c-0.1-0.4-0.2-0.7,0-0.9C0.5,8.2,0.7,8.2,1,8.2c0.2,0,0.4,0,0.6-0.1c0.4-0.2,0.5-0.3,0.5-0.8V6.9l0.1,0.4
							c0.2,0.5,0,0.9-0.4,1.1C1.6,8.5,1.3,8.6,0.9,8.5c-0.2,0-0.3,0-0.4,0.1c-0.1,0.1,0,0.3,0.1,0.5c0,0.1,0.1,0.1,0.1,0.2
							c0.1,0.2,0.2,0.3,0.2,0.6c0,0.2-0.1,0.3-0.2,0.5c-0.1,0.2-0.2,0.3-0.2,0.5c0,0.1,0.1,0.2,0.3,0.2c0.2,0.1,0.5,0.1,0.8,0.2
							c0.3,0.1,0.7,0.1,1.1,0.2c0.3,0.1,0.5,0.1,0.8,0.2c0.5,0.2,1,0.3,1.4,0.3c0.4-0.1,0.7-0.2,0.8-0.5c0.3-0.6-0.3-1.5-0.4-1.6
							C4.3,8.2,3.4,6.9,2.8,6.9C2.7,6.9,2.6,7,2.5,7c-0.1,0.1-0.1,0-0.2,0C2.2,6.9,2.2,6.6,2.2,6.5c0-0.4,0.2-0.7,0.4-1
							C2.7,5.4,2.8,5.2,2.8,5C2.9,4.8,3,4.6,3.1,4.4c0.3-0.8,0.6-1.6,1.1-2c0.7-0.9,1.2-1.5,1.3-1.9C5.3-0.5,5.3-1.7,5.3-2.5
							c0-1.1,0.2-2,1.4-2.6c0.3-0.1,0.6-0.2,1.1-0.2h0c0.8,0,1.6,0.2,2,0.6c0.9,0.6,1.4,1.9,1.3,2.7c0,0.6,0.1,1.3,0.3,2.1
							c0.3,0.8,0.6,1.4,1.4,2.1c0.8,0.8,1.5,2.4,1.7,3.5c0.1,0.8,0,1.3-0.1,1.5c-0.1,0.1-0.1,0.1-0.2,0.1c-0.1,0-0.2,0.1-0.3,0.3
							c-0.2,0.3-0.6,0.7-1.2,0.7l0,0c0,0,0,0-0.1,0c-0.6,0-0.8-0.3-0.9-0.6c0-0.1-0.1-0.1-0.1-0.2c-0.1-0.2-0.2-0.3-0.3-0.3
							c-0.1,0-0.2,0.2-0.3,0.4C11,8,11,8.4,11.1,8.7c0.2,0.6,0.1,1.3,0,1.9c-0.1,0.4,0,0.7,0.2,1c0.2,0.2,0.4,0.3,0.7,0.3
							c0.3,0,0.6-0.1,0.9-0.3c0.8-0.6,1-0.7,2.1-1.1c0.8-0.3,1-0.5,1-0.6c0-0.2-0.3-0.3-0.8-0.5c-0.3-0.1-0.6-0.4-0.7-0.9
							c-0.1-0.4,0-0.8,0.1-0.9l0.1-0.1l0,0.1c0.1,1.1,0.6,1.4,0.9,1.5c0,0,0.1,0,0.1,0.1c0.3,0.2,0.5,0.4,0.5,0.6
							c0,0.5-0.8,0.8-1.4,1.1c-0.1,0-0.2,0.1-0.3,0.1c-0.6,0.3-1.3,0.9-1.7,1.2C12.6,12.4,12.3,12.5,11.9,12.5z M8.9,11.4
							c0.3,0,0.6,0,1,0c0.6,0,0.7,0.2,0.8,0.4c0.1,0.1,0.2,0.3,0.4,0.4c0.2,0.1,0.5,0.1,0.8,0.1c0.4,0,0.7-0.1,0.8-0.2
							c0.3-0.2,1.1-0.9,1.7-1.2c0.1,0,0.2-0.1,0.3-0.1c0.5-0.2,1.4-0.6,1.4-1c0-0.2-0.1-0.3-0.4-0.5c0,0-0.1,0-0.1-0.1
							c-0.3-0.2-0.9-0.4-1-1.4c0,0.1-0.1,0.4,0,0.6c0,0.2,0.2,0.6,0.6,0.8C15.7,9.4,16,9.6,16,9.9c0,0.3-0.3,0.5-1,0.7
							c-1,0.3-1.2,0.4-2,1.1c-0.3,0.2-0.6,0.4-1,0.4c-0.3,0-0.6-0.1-0.8-0.3c-0.2-0.2-0.3-0.6-0.2-1.1c0.1-0.7,0.2-1.3,0-1.9
							c-0.1-0.3-0.1-0.7-0.1-1c0.1-0.3,0.2-0.5,0.4-0.5c0.1,0,0.3,0.1,0.4,0.3c0,0.1,0.1,0.1,0.1,0.2C12,8,12.1,8.2,12.6,8.2
							c0,0,0,0,0.1,0l0,0c0.6,0,0.9-0.4,1.1-0.7c0.1-0.2,0.2-0.3,0.4-0.3c0,0,0.1,0,0.1-0.1c0.1-0.2,0.3-0.7,0.1-1.4
							c-0.2-1.1-0.9-2.7-1.6-3.5C12,1.5,11.6,0.9,11.4,0c-0.3-0.8-0.4-1.5-0.3-2.1c0.1-0.8-0.4-2-1.2-2.6C9.3-5,8.6-5.2,7.8-5.2l0,0
							C7.3-5.2,7-5.1,6.7-5C5.6-4.4,5.4-3.6,5.4-2.5c0,0.9,0,2,0.2,3.1l0,0l0,0C5.4,1,4.8,1.9,4.2,2.5c-0.5,0.4-0.8,1.2-1.1,2
							C3.1,4.7,3,4.9,2.9,5.1C2.9,5.3,2.8,5.4,2.7,5.6C2.5,5.8,2.4,6.1,2.4,6.5c0,0.3,0,0.5,0.1,0.5c0,0,0,0,0,0
							c0.1-0.1,0.2-0.1,0.4-0.1c0.7,0,1.5,1.2,2.7,2.9c0.1,0.1,0.7,1.1,0.4,1.8C5.8,11.8,5.5,12,5,12c-0.4,0-0.9-0.1-1.4-0.3
							c-0.3-0.1-0.5-0.2-0.8-0.2c-0.4-0.1-0.8-0.2-1.1-0.2c-0.3-0.1-0.6-0.1-0.8-0.2c-0.3-0.1-0.4-0.2-0.4-0.3
							c0-0.2,0.1-0.3,0.2-0.5c0.1-0.1,0.2-0.3,0.2-0.4c0-0.2-0.1-0.4-0.1-0.5c0-0.1-0.1-0.1-0.1-0.2c-0.1-0.3-0.2-0.5,0-0.6
							C0.5,8.4,0.7,8.4,1,8.4c0.3,0,0.6,0,0.8-0.1C2,8.2,2.1,8,2.1,7.7C2.1,7.9,1.9,8,1.6,8.2C1.4,8.3,1.2,8.3,1,8.3
							c-0.2,0-0.4,0-0.6,0.1c-0.2,0.1-0.1,0.4,0,0.7c0.1,0.2,0.1,0.5,0.1,0.7c0,0.2-0.1,0.3-0.2,0.5c-0.1,0.2-0.2,0.5-0.1,0.7
							c0.1,0.3,0.7,0.4,1.4,0.5c0.2,0,0.4,0.1,0.6,0.1c0.7,0.1,1.2,0.3,1.6,0.5c0.4,0.1,0.8,0.3,1.1,0.3c0.4,0,0.6-0.1,0.9-0.3
							c0.3-0.2,0.7-0.5,1.5-0.5c0.4,0,0.8,0,1.2,0C8.7,11.4,8.8,11.4,8.9,11.4z M6.3,11.6v-0.1c0-0.7-0.2-0.9-0.4-1.2
							C5.8,10.1,5.7,10,5.6,9.8l0-0.1l0.1,0c0.3,0,0.5-0.2,0.5-0.4c0.1-0.2,0-0.4-0.1-0.5C6,8.7,5.7,8.5,5.4,8.3
							C4.9,7.9,4.2,7.4,4,7.2C3.9,7.1,3.9,7,3.8,7C3.7,6.9,3.6,6.8,3.5,6.7C3.4,6.4,3,5.6,3.4,5c0,0,0-0.1,0.1-0.1h0l0,0
							c0,0,0,0.1,0,0.2c-0.1,0.6,0,1.1,0.2,1.3C3.9,6.6,4,6.6,4,6.6c0,0,0,0,0.1-0.1c0.1-0.2,0.1-0.4,0-0.7c0-0.2,0-0.4,0-0.6
							C4.2,4.6,4.9,3.2,5.3,3C5,2.5,5.3,2,5.5,1.6C5.7,1.3,5.9,1,5.9,0.7c0-0.1,0-0.1,0-0.2c0,0,0,0,0.1,0c0.1,0,0.2,0.1,0.3,0.3
							c0.2,0.2,0.4,0.5,0.6,0.6C7.2,1.7,7.5,1.4,8,1.1C8.2,1,8.5,0.8,8.8,0.6l0.1,0C9,0.5,9.2,0.4,9.2,0.4c0,0,0-0.1-0.1-0.1
							c-0.1,0-0.3,0.1-0.6,0.2C8.2,0.8,7.8,1,7.3,1C6.9,1,6.8,1,6.6,0.8C6.4,0.6,6.4,0.6,6.4,0.5c0-0.1,0.1-0.1,0.2,0
							c0.1,0,0.3,0,0.4,0c0.1,0,0.2,0,0.3,0c0.3,0,0.4-0.1,0.6-0.2l0.1,0c0.1,0,0.2-0.1,0.3-0.1c0,0,0.1,0,0.1,0
							c-0.1,0-0.3,0.1-0.4,0.1c-0.1,0-0.1,0-0.1,0C7.7,0.3,7.4,0.4,6.9,0.4c-0.4,0-0.6-0.1-0.7-0.3C6.1,0,6.1-0.1,5.9-0.2
							c-0.1,0-0.1-0.1-0.1-0.2c0-0.1,0.1-0.3,0.2-0.4c0,0,0.1-0.1,0.2-0.1C6.2-0.9,6.4-1,6.4-1.1c0,0,0.2-0.2,0.3-0.3
							c0-0.1,0-0.4-0.1-0.6C6.6-2,6.5-2.1,6.5-2.1l0,0C6.3-2.1,6.2-2,6.2-2C6.1-1.9,6.1-1.8,6.1-1.6c0,0.2,0.2,0.4,0.2,0.4
							c0.1,0,0.1,0.1,0.1,0.1c0,0.1-0.1,0.2-0.2,0.3c-0.1,0-0.1,0-0.2-0.1C5.9-1.1,5.7-1.6,5.8-1.8c0-0.3,0.2-0.9,0.7-0.9
							c0.4,0,0.7,0.5,0.7,1.3c0,0,0.1,0,0.2,0c0.1,0,0.1,0,0.2,0c0.1,0,0.2,0,0.3,0.1c0,0,0,0,0,0c0-0.2-0.1-0.7,0.2-1.1
							c0.2-0.2,0.4-0.3,0.8-0.4l0,0l0,0c0.4,0.1,0.8,0.2,1,1.1l0,0l0,0c0,0,0,0.1,0,0.2c0,0.2,0,0.5-0.2,0.6C9.4-0.9,9.3-0.9,9.2-1
							c0-0.1,0-0.1,0.1-0.3c0.1-0.1,0-0.4-0.1-0.6C9.1-2.1,8.9-2.1,8.7-2.1c-0.2,0-0.3,0.2-0.4,0.4c-0.1,0.3,0,0.5,0,0.6
							c0.1,0,0.2,0.1,0.3,0.1C8.9-1,9.1-0.9,9.2-0.9c0.3,0,0.4,0.1,0.5,0.2c0.1,0.1,0,0.3,0,0.5c0,0.2-0.1,0.4-0.1,0.6
							c0,0.2,0.1,0.4,0.3,0.5c0.2,0.3,0.5,0.6,0.8,1.7c0,0,0,0,0,0c0.1,0.1,0.5,0.4,0.8,1.6c0.1,0.5,0.1,0.9,0.1,1.2
							c0,0.6,0,0.8,0.4,0.8c0.2,0,0.4-0.1,0.5-0.4c0.3-1-0.3-2.2-0.6-2.7c-0.2-0.4-0.5-0.7-0.6-0.8l0.1-0.1c0.5,0.3,1.1,1.2,1.3,1.8
							l0.1,0.2c0.2,0.7,0.2,1,0,1.8l0,0c0.3,0.1,0.5,0.3,0.5,0.5v0.1l-0.1-0.1c-0.2-0.1-0.5-0.2-0.8-0.2c-0.2,0-0.8,0-0.9,0.6l0,0.1
							l-0.1,0c-0.2,0-0.4,0-0.5,0.2c-0.3,0.4-0.2,1-0.1,1.6c0,0.3,0.1,0.6,0.1,0.8c0,0.3-0.1,0.7-0.2,1c0,0.2-0.1,0.4-0.1,0.6l0,0.1
							l-0.1,0c-0.1,0-0.2,0-0.3-0.1c-0.1-0.1,0-0.3,0-0.5c0-0.1,0-0.1,0.1-0.2c0.1-0.2,0.2-0.5,0.2-0.7c0-0.4-0.1-0.5-0.1-0.5
							c0,0-0.1,0-0.3,0.3c-0.4,0.6-1.3,0.8-1.9,0.9c-0.9,0.1-1.5,0-1.8-0.4c-0.1-0.1-0.2,0-0.2,0c0,0,0,0,0,0.1
							c0,0.1,0.1,0.1,0.2,0.2c0.1,0.2,0.2,0.5,0.2,0.7C6.6,11.4,6.5,11.4,6.3,11.6L6.3,11.6z M5.8,9.8C5.9,10,5.9,10.1,6,10.2
							c0.2,0.3,0.4,0.5,0.4,1.2c0.1,0,0.1-0.1,0.1-0.2c0.1-0.2-0.1-0.4-0.1-0.6c-0.1-0.1-0.1-0.2-0.2-0.2c-0.1-0.1-0.1-0.1-0.1-0.2
							c0,0,0.2-0.1,0.3-0.1c0.1,0,0.1,0,0.2,0.1c0.3,0.3,0.9,0.4,1.7,0.3c0.6-0.1,1.4-0.3,1.8-0.8c0.2-0.3,0.3-0.4,0.4-0.3
							c0.1,0,0.1,0.1,0.1,0.6c0,0.3-0.1,0.5-0.2,0.8c0,0.1,0,0.1-0.1,0.2c0,0.1-0.1,0.3,0,0.4c0,0,0.1,0,0.1,0.1
							c0-0.2,0.1-0.4,0.1-0.6c0.1-0.3,0.1-0.7,0.2-1c0-0.2,0-0.5-0.1-0.7c-0.1-0.6-0.2-1.3,0.2-1.7C11.1,7.1,11.2,7,11.4,7
							c0-0.3,0.2-0.5,0.5-0.5c-0.4,0-0.4-0.4-0.4-0.9c0-0.3,0-0.8-0.1-1.2c-0.3-1.2-0.6-1.4-0.7-1.5c0,0-0.1,0-0.1-0.1l0,0
							C10.3,1.7,10,1.3,9.8,1.1C9.7,0.9,9.6,0.7,9.5,0.5c0-0.2,0-0.4,0.1-0.6c0-0.2,0.1-0.3,0-0.4C9.6-0.6,9.4-0.7,9.2-0.7
							C9.1-0.8,8.9-0.9,8.7-1C8.6-1,8.4-1.1,8.4-1.1c-0.1,0-0.2-0.2-0.2-0.5c0-0.3,0.2-0.7,0.5-0.7C9-2.3,9.2-2.1,9.3-2
							c0.1,0.2,0.2,0.5,0.1,0.7C9.3-1.2,9.3-1.1,9.3-1.1c0,0,0.1,0.1,0.3,0c0.1,0,0.1-0.3,0.1-0.5c0-0.1,0-0.2,0-0.2
							C9.5-2.5,9.2-2.6,8.8-2.7c-0.3,0-0.6,0.1-0.7,0.3C7.9-2.1,7.9-1.6,8-1.4c0,0.1,0,0.1,0,0.2C8-1.2,8-1.2,8-1.2C8.1-1.1,8-1,8-1
							c0,0,0,0,0,0l0,0c-0.1,0-0.1,0-0.1-0.1c0,0-0.1-0.1-0.1,0l0-0.1c0.1,0,0.1,0,0.2,0c-0.1,0-0.2,0-0.3,0c-0.1,0-0.1,0-0.2,0
							c-0.1,0-0.3,0-0.3,0c0,0,0,0,0-0.1c0-0.7-0.2-1.1-0.6-1.2c0,0,0,0,0,0C6-2.6,5.9-2,5.9-1.8C5.9-1.5,6.1-1,6.2-1
							c0,0,0.1-0.1,0.1-0.1c0,0,0,0,0,0C6.1-1.1,6-1.4,5.9-1.6c0-0.1,0-0.3,0.1-0.4c0.1-0.1,0.2-0.1,0.4-0.1l0,0
							c0.2,0,0.3,0.2,0.4,0.4c0,0.2,0.1,0.5,0,0.5c0,0,0,0,0,0c0,0,0.1,0,0.1,0v0.1c-0.1,0-0.2,0.1-0.2,0.1l0,0.1c0,0-0.1,0-0.1,0
							c0,0,0-0.1,0-0.1c0,0,0,0,0,0c0,0,0,0,0,0C6.6-1.1,6.6-1,6.5-1C6.5-0.9,6.3-0.8,6.2-0.7C6.1-0.7,6.1-0.7,6-0.6
							C5.9-0.5,5.9-0.4,5.9-0.4c0,0,0,0.1,0,0.1C6.1-0.2,6.2-0.1,6.3,0c0.1,0.1,0.2,0.2,0.6,0.3c0.4,0,0.8-0.1,1.1-0.1
							c0,0,0.1,0,0.1,0c0.3-0.1,0.8-0.2,1-0.4c0.1-0.1,0.2-0.1,0.2-0.1c0,0,0.1,0,0.1,0c0.1,0,0.1,0.1,0.1,0.2c0,0,0,0.2-0.3,0.2
							C9,0.1,8.7,0.2,8.5,0.3c-0.1,0-0.2,0.1-0.3,0.1L8,0.4C7.8,0.5,7.7,0.6,7.4,0.6c-0.1,0-0.2,0-0.3,0c-0.2,0-0.3,0-0.4,0
							c0,0,0,0-0.1,0c0,0,0.1,0.1,0.1,0.1c0.1,0.1,0.3,0.2,0.7,0.2c0.4,0,0.9-0.3,1.2-0.4C8.8,0.3,9,0.2,9.2,0.2
							c0.1,0,0.2,0.1,0.2,0.2c0,0.1-0.2,0.2-0.5,0.4l-0.1,0C8.5,0.9,8.3,1.1,8,1.2C7.7,1.5,7.4,1.7,7.1,1.7c-0.1,0-0.2,0-0.3-0.1
							C6.6,1.5,6.4,1.2,6.2,0.9C6.1,0.9,6,0.7,6,0.7c0,0,0,0,0,0c0,0.3-0.2,0.6-0.4,0.9C5.4,2.1,5.1,2.5,5.4,3l0,0.1l-0.1,0
							c-0.3,0.1-1,1.5-1.1,2.2c0,0.2,0,0.4,0,0.6c0,0.3,0,0.5-0.1,0.7C4.1,6.7,4.1,6.8,4,6.8l0,0c-0.1,0-0.2-0.1-0.3-0.2
							C3.5,6.3,3.3,5.8,3.4,5.2C3.2,5.8,3.5,6.4,3.6,6.6c0.1,0.1,0.2,0.2,0.3,0.3C3.9,6.9,4,7,4.1,7.1C4.3,7.3,5,7.8,5.5,8.2
							c0.3,0.2,0.6,0.5,0.7,0.6c0.2,0.2,0.2,0.4,0.2,0.7C6.3,9.6,6.1,9.8,5.8,9.8z M12.4,6.4c0.2,0,0.4,0,0.6,0.1
							c-0.1-0.1-0.2-0.1-0.3-0.1l-0.1-0.1l0-0.1c0.3-0.8,0.2-1.1,0-1.8l-0.1-0.2c-0.1-0.4-0.4-0.9-0.7-1.3C11.9,3,12,3.1,12,3.2
							c0.3,0.5,0.9,1.7,0.6,2.8C12.6,6.2,12.4,6.3,12.4,6.4C12.4,6.4,12.4,6.4,12.4,6.4z M9.3-0.3C9.2-0.3,9.2-0.3,9.3-0.3
							C9.1-0.2,9-0.1,8.9-0.1c0.1,0,0.2-0.1,0.3-0.1C9.3-0.2,9.3-0.2,9.3-0.3C9.3-0.3,9.3-0.3,9.3-0.3C9.3-0.3,9.3-0.3,9.3-0.3z
							 M6.6-1.4c-0.1,0-0.1,0-0.1,0c0-0.1,0-0.1,0-0.2c0,0,0-0.1,0-0.1l0,0c-0.1,0-0.1-0.1-0.1-0.1C6.3-2,6.4-2,6.5-2
							C6.6-2,6.8-1.7,6.6-1.4C6.7-1.4,6.7-1.4,6.6-1.4z M9.1-1.5L9.1-1.5L9.1-1.5C9-1.7,8.9-1.8,8.9-1.8C8.8-1.9,8.8-1.9,8.8-2
							c0,0,0-0.1,0.1-0.1l0,0c0.1,0,0.1,0,0.2,0.1c0.1,0.1,0.1,0.2,0.1,0.3C9.2-1.6,9.2-1.6,9.1-1.5C9.1-1.5,9.1-1.5,9.1-1.5z"/>
					</g>
					<path class="st1" d="M7.1-1.4c0,0-0.1-1.2-0.7-1.3c-0.6,0-0.9,1.2-0.3,1.7L6.3-1l0-0.1L6.3-1.2l-0.1,0L6.1-1.4L6-1.8l0.2-0.3
						l0.3,0l0.2,0.2l0.1,0.3l0,0.2L6.7-1.2L6.6-1.1L6.5-1L6.2-0.8L6-0.6L5.9-0.4c0,0,0.1,0.2,0.1,0.2c0,0,0.3,0.2,0.3,0.2l0.3,0.3
						l0.4,0.1l0.6-0.1l0.6-0.1L8.6,0l0.3-0.1l0.2-0.2l0.1-0.1l0.1,0l0,0.1L9.3-0.1L9.1,0L8.6,0.1L8,0.4L7.4,0.6l-0.9,0l0.1,0.2
						l0.4,0.2l0.2,0c0,0,0.7,0,1.4-0.5c0.8-0.5,0.6,0,0.6,0c-0.1,0-1.4,0.9-1.4,0.9S7,2,6.6,1.4C6.2,0.7,6,0.6,6,0.6
						c0,0-0.1,0.5-0.1,0.6c0,0-0.9,1.2-0.5,1.8c0,0-1.3,1.5-1.2,3.2L3.8,6.7c0,0-0.8-0.2-0.8-1.3V5.1l0.1,0c0,0-0.1,0.6,0.2,1.3
						c0.3,0.6,0.9,0.9,1,1.1C4.5,7.7,6,8.6,6.1,8.8c0,0.1,0.4,0.4,0.1,0.7S5.7,9.8,5.7,9.8l0.4,0.6c0,0,0.3,0.7,0.2,1
						c-0.1,0.3,0.2-0.1,0.2-0.1s0.3-0.4-0.3-1.1l0.2-0.1c0,0,0.5,0.3,0.7,0.3s2.5,0.2,3-0.8c0,0,0.3-0.4,0.4-0.3s0.1,1.1-0.1,1.3
						c-0.1,0.2-0.2,0.7,0.2,0.7c0,0,0.3-1.1,0.2-2.2c0-1.2-0.4-1.8,0.6-2c0,0,0.3-1.1,1.8-0.4L13,6.5l-0.4-0.2c0,0,0.4-0.8,0-1.8
						c-0.3-1.1-0.6-1.5-1-1.7c0,0,0.7,1.3,0.8,1.7c0.1,0.4,0.3,0.7,0,1.7c0,0-0.6,0.7-0.9,0c0,0-0.1-1.9-0.4-2.4
						c-0.2-0.6-0.5-0.9-0.5-0.9S10.3,1.5,9.9,1C9.5,0.5,9.5,0.1,9.7-0.4c0,0,0-0.3-0.6-0.4L8.4-1.2c0,0-0.3-1,0.4-1
						c0.8,0,0.5,0.8,0.5,0.8S9.2-1.1,9.3-1c0.1,0,0.4,0,0.4-0.1c0-0.2,0-0.8,0-0.8s-0.3-0.9-1-0.8c-0.7,0.1-0.9,0.7-0.9,1
						c0,0.3,0,0.4,0,0.4L7.1-1.4z"/>
					<polygon class="st1" points="2.3,7 2.7,6.9 3,6.8 3.8,7.4 5,8.9 5.9,10.5 5.9,11.6 5.5,11.9 4.7,12 3.4,11.7 2.7,11.5 
						1.8,11.4 1.2,11.2 0.5,11 0.5,10.4 0.8,10 0.7,9.7 0.5,9.2 0.4,8.7 0.8,8.5 1.1,8.5 1.5,8.4 1.8,8.3 2,8.2 2.1,8 2,7.7 2,7.3 
											"/>
					<path class="st1" d="M2.1,6.9c0,0,0.2-0.4,0.7-0.2C3.2,6.9,3.3,7,3.3,7s1.8,2.3,2.3,2.7c0.4,0.4,1.1,1.4,0.7,1.8
						c-0.4,0.5-0.7,0.5-0.7,0.5l-0.5,0.3L4,12.2l-0.6-0.3l-0.8-0.2l-0.8-0.2l-1,0l-0.8-0.5l0.1-0.5l0.3-0.5l0-0.7L0.2,8.7l0.4-0.4
						l0.5,0l0.4-0.1l0.3-0.1l0.3-0.3l0.2-0.2L2.2,7.3L2.1,6.9z"/>
					<path class="st1" d="M14.7,7.5c0-0.5-0.5-0.3-0.5-0.3l-0.6,0.9l-1.1,0.2l-0.7-0.7l-0.1-0.5L10.7,7l-0.2,1.8l0.1,1.9L10.3,11
						c0,0-0.1,0.3,0.2,0.5c0.1,0.1,0.3,0.4,0.4,0.5c0.2,0.2,0.3,0.3,0.3,0.3l1,0.1l0.7-0.3l0.9-0.8l1-0.4l0.8-0.6l0.5-0.3V9.5
						l-0.3-0.2l-0.7-0.5l-0.3-0.6l-0.1-0.5L14.7,7.5z"/>
				</g>
			</g>
			<path class="st1" d="M15.8,9.4l0.3,0.2l0.1,0.3L16,10.1l-0.4,0.3l-0.7,0.3c0,0-0.1-0.4-0.1-0.5c0,0,0.7-0.7,0.7-0.7L15.8,9.4z"/>
		</g>
		<polygon class="st0" points="7.9,0.3 9.1,-0.2 9.1,-0.1 8,0.3 		"/>
	</g>
</g>
<g>
	<path class="st2" d="M28-5.8v27.5c0,3.4-2.8,6.3-6.3,6.3H-5.8c-2,0-3.7-0.9-4.9-2.3c1.1,0.9,2.4,1.4,3.9,1.4h27.5
		c3.4,0,6.3-2.8,6.3-6.3V-6.7c0-1.5-0.5-2.8-1.4-3.9C27.1-9.5,28-7.7,28-5.8z"/>
	<path class="st3" d="M26.6-9.7c-1.1-0.9-2.4-1.4-3.9-1.4H-4.8c-3.4,0-6.3,2.8-6.3,6.3v27.5c0,1.5,0.5,2.8,1.4,3.9
		c-1.4-1.1-2.3-2.9-2.3-4.9V-5.8c0-3.4,2.8-6.3,6.3-6.3h27.5C23.7-12,25.5-11.1,26.6-9.7z"/>
</g>
</svg>
