<?xml version="1.0" encoding="utf-8"?>
<!-- Generator: Adobe Illustrator 18.1.0, SVG Export Plug-In . SVG Version: 6.00 Build 0)  -->
<svg version="1.1" id="图层_1" xmlns="http://www.w3.org/2000/svg" xmlns:xlink="http://www.w3.org/1999/xlink" x="0px" y="0px"
	 width="40px" height="40px" viewBox="-12 -12 40 40" style="enable-background:new -12 -12 40 40;" xml:space="preserve">
<style type="text/css">
	.st0{fill:#E58D26;}
	.st1{fill:#FFFFFF;}
	.st2{opacity:0.35;}
	.st3{opacity:0.24;fill:#FFFFFF;}
</style>
<g>
	<path class="st0" d="M28,21.8c0,3.5-2.7,6.2-6.2,6.2H-5.7c-3.5,0-6.3-2.8-6.3-6.2V-5.7c0-3.5,2.9-6.3,6.3-6.3h27.5
		c3.5,0,6.2,2.8,6.2,6.3V21.8z"/>
	<path class="st1" d="M15.4,1.6l-0.2-0.4C15.1,1,15,1,14.9,0.8h0v0c0.1,0,0.2,0,0.4,0c0.1,0.1,0.2,0.1,0.2,0.2c0,0.1,0,0.1,0.1,0.2
		C15.6,1.3,15.5,1.5,15.4,1.6L15.4,1.6L15.4,1.6z M24.2,10.3c-0.3-0.2-0.7-0.3-1-0.5c-0.2-0.1-0.4-0.3-0.5-0.4
		c-0.2-0.1-0.3-0.4-0.5-0.5c-0.1-0.1-0.1-0.2-0.1-0.3c0-0.2,0.2-0.2,0.4-0.2c0.5-0.2,1-0.3,1.7-0.2c0-0.2-0.4-0.4-0.6-0.5
		c-0.3-0.2-0.6-0.4-0.9-0.6C22.4,7,22.1,6.9,22,6.9c-0.2-0.1-0.8-0.2-0.9-0.4c-0.3-0.3-0.4-0.7-0.6-1.1c-0.2-0.4-0.4-0.8-0.6-1.2
		c-0.1-0.2-0.1-0.4-0.2-0.6C19,2.3,18.1,1.3,17,0.6c-0.4-0.2-0.8-0.4-1.2-0.6c-0.3-0.1-0.6,0-0.8-0.1h-0.2c-0.2,0-0.3-0.2-0.4-0.3
		c-0.3-0.2-0.5-0.3-0.8-0.4c-0.1,0-0.4-0.2-0.5-0.1c-0.1,0-0.1,0-0.1,0.1c-0.1,0.1,0,0.3,0,0.4C13-0.1,13.1,0,13.3,0.3
		c0.1,0.2,0.3,0.4,0.4,0.7c0.2,0.5,0.3,1,0.5,1.5c0.1,0.2,0.2,0.4,0.3,0.5c0.1,0.1,0.3,0.2,0.3,0.4c0.1,0.2-0.2,0.7-0.2,0.9
		c-0.2,0.7-0.2,1.7,0.1,2.3C14.9,6.8,15,7,15.2,7.1c0,0,0,0,0,0c0.1-0.5,0.1-0.9,0.2-1.3c0.1-0.2,0.3-0.4,0.4-0.6
		C16,5.3,16,5.4,16.1,5.5c0.1,0.3,0.2,0.6,0.4,0.8c0.3,0.5,0.6,1.1,1,1.6c0.1,0.2,0.3,0.4,0.5,0.5C17.9,8.5,18,8.5,18,8.6h0v0
		c-0.3-0.1-0.4-0.4-0.6-0.5C17,7.8,16.6,7.4,16.3,7L16,6.3v0c0,0.1,0,0.1-0.1,0.2c-0.1,0.4,0,0.9-0.4,1.1C15,7.7,14.7,7.2,14.6,7
		c-0.4-0.7-0.6-1.9-0.3-2.9c0.1-0.2,0.1-0.5,0.2-0.6c0-0.2-0.1-0.2-0.2-0.3c-0.1-0.2-0.2-0.3-0.3-0.5c-0.2-0.4-0.3-0.8-0.5-1.1
		c-0.1-0.2-0.1-0.3-0.1-0.4c-0.1-0.2-0.3-0.4-0.4-0.6c-0.2-0.3-0.8-0.8-0.5-1.4c0.4-0.9,1.6-0.2,2.1,0.1c0.1,0.1,0.3,0.2,0.4,0.3
		l0.6,0c0.4,0.1,0.8,0.2,1.1,0.4c1.5,0.9,2.4,1.7,3.3,3.2c0.2,0.3,0.3,0.6,0.4,1c0.2,0.5,0.5,1,0.7,1.5c0.1,0.2,0.2,0.5,0.4,0.7
		c0.1,0.1,0.2,0.1,0.3,0.2c0.3,0.1,0.6,0.3,0.9,0.4c0.5,0.3,1,0.7,1.4,1.1c0.2,0.1,0.3,0.3,0.4,0.5v0.1c-0.1,0-0.3,0.1-0.4,0.1
		c-0.3,0.1-0.6,0.1-0.9,0.1c-0.2,0-0.4,0.1-0.6,0.1l0,0c0.1,0.3,0.7,0.6,1,0.8c0.3,0.2,0.7,0.5,0.9,0.9l0.3,0.3
		c0.1,0.1,0.1,0.2,0.1,0.3v0c-0.1,0-0.2-0.1-0.3-0.2C24.6,10.6,24.4,10.5,24.2,10.3L24.2,10.3z M13.5,9.4h2.1c0.1,0,0.2,0,0.3,0
		c0.9,0.1,1.4,0.5,1.4,1.2v2.6c0,0.5-0.2,0.8-0.7,1l1.1,1h-1.3l-0.9-0.8l-0.9,0.1h-1.2c-0.2,0-0.4,0-0.7-0.1
		c-0.7-0.2-1.1-0.6-1.1-1.2v-2.6c0-0.7,0.5-1.1,1.4-1.2C13.3,9.4,13.4,9.4,13.5,9.4L13.5,9.4z M13,13.2c0,0,0,0.1,0,0.1
		c0.1,0.3,0.4,0.5,0.8,0.5h1L13.9,13h1.3l0.8,0.7c0.2-0.1,0.3-0.2,0.3-0.4c0,0,0-0.1,0-0.1v-2.5c0,0,0-0.1,0-0.1
		c-0.1-0.3-0.4-0.5-0.8-0.5h-1.7c-0.5,0-0.8,0.2-0.8,0.6V13.2L13,13.2z M7.8,10.2c-0.4,0-0.5,0.1-0.6,0.3c0,0,0,0.1,0,0.1v0.5
		c0,0,0,0.1,0,0.1c0.1,0.3,0.3,0.4,0.7,0.4h1.4c0.3,0,0.7,0.1,1,0.2c0.5,0.2,0.8,0.5,0.8,0.8v0.8c0,0.4-0.2,0.7-0.7,0.9
		c-0.3,0.1-0.7,0.2-1,0.2H6.1v-0.7h3.1c0,0,0.1,0,0.1,0c0.2,0,0.4-0.1,0.5-0.2c0.1-0.1,0.2-0.2,0.2-0.3v-0.7c0-0.1,0-0.1-0.1-0.2
		c-0.1-0.1-0.3-0.2-0.6-0.2c0,0-0.1,0-0.1,0H7.9c-0.1,0-0.2,0-0.3,0c-1-0.1-1.5-0.5-1.5-1v-0.6c0-0.6,0.3-0.9,1-1.1
		c0.2-0.1,0.5-0.1,0.9-0.1h3.2v0.7H7.9C7.9,10.2,7.8,10.2,7.8,10.2L7.8,10.2z M3.4,16.1h-3.5v-0.7c0,0,3.5,0,3.6,0
		c0.7-0.1,0.6-0.4,0.6-0.6v-0.3H1.7c-1.1,0-1.8-0.5-1.8-1c0-0.1,0-2.5,0-2.5H1v2.4c0,0.1,0,0.4,0.7,0.5c0.3,0,2.4,0,2.4,0V11h1.1
		c0,0,0,3.9,0,4C5.2,15.9,4,16.1,3.4,16.1L3.4,16.1z M-2.2,10.2L-3.9,14c-0.2,0.5-0.5,0.6-1,0.6c-0.6,0-0.8-0.2-1-0.6l-1.7-3.8v4.4
		h-1.1v-4.4c0-0.4,0.2-0.6,0.5-0.7c0.9-0.3,1.4,0,1.7,0.5l1.7,3.8l1.7-3.8C-3,9.4-2.5,9.2-1.6,9.4c0.4,0.1,0.5,0.3,0.5,0.7v4.4h-1.1
		V10.2z M19.2,13.3c0,0.4,0.2,0.6,0.9,0.6H23v0.7h-2.9c-0.1,0-0.2,0-0.3,0c-1.2-0.1-1.7-0.5-1.7-1.3V9.4h1.1V13.3L19.2,13.3z"/>
</g>
<g>
	<path class="st2" d="M28-5.8v27.5c0,3.4-2.8,6.3-6.3,6.3H-5.8c-2,0-3.7-0.9-4.9-2.3c1.1,0.9,2.4,1.4,3.9,1.4h27.5
		c3.4,0,6.3-2.8,6.3-6.3V-6.7c0-1.5-0.5-2.8-1.4-3.9C27.1-9.5,28-7.7,28-5.8z"/>
	<path class="st3" d="M26.6-9.7c-1.1-0.9-2.4-1.4-3.9-1.4H-4.8c-3.4,0-6.3,2.8-6.3,6.3v27.5c0,1.5,0.5,2.8,1.4,3.9
		c-1.4-1.1-2.3-2.9-2.3-4.9V-5.8c0-3.4,2.8-6.3,6.3-6.3h27.5C23.7-12,25.5-11.1,26.6-9.7z"/>
</g>
</svg>
