<?xml version="1.0" encoding="utf-8"?>
<!-- Generator: Adobe Illustrator 18.1.0, SVG Export Plug-In . SVG Version: 6.00 Build 0)  -->
<svg version="1.1" id="图层_1" xmlns="http://www.w3.org/2000/svg" xmlns:xlink="http://www.w3.org/1999/xlink" x="0px" y="0px"
	 width="40px" height="40px" viewBox="-12 -12 40 40" style="enable-background:new -12 -12 40 40;" xml:space="preserve">
<style type="text/css">
	.st0{fill:#C20029;}
	.st1{fill:#FFFFFF;}
	.st2{opacity:0.35;}
	.st3{opacity:0.24;fill:#FFFFFF;}
</style>
<g>
	<path class="st0" d="M28,21.8c0,3.5-2.7,6.2-6.2,6.2H-5.7c-3.5,0-6.3-2.8-6.3-6.2V-5.7c0-3.5,2.9-6.3,6.3-6.3h27.5
		c3.5,0,6.2,2.8,6.2,6.3V21.8z"/>
	<g>
		<path class="st1" d="M6.3-4.1c0,0-2-0.1-3.2,1.5C1.8-0.9,2.7,1.6,3.3,2.9c0.6,1.3,3.8,6.3,3.9,6.4c0.1,0.1,0.3,0.1,0.3,0
			c0-0.1,0.4-7.3,0.1-9.1C7.2-1.6,6.4-3.9,6.3-4.1z M-0.6-0.7c-0.2,0-1.8,1.6-2,3.2C-2.7,4.1-2,5.1-0.1,6.4c1.9,1.3,6.4,3.8,6.5,3.6
			c0.1-0.2-1.8-3.5-3.3-5.8C1.6,1.8-0.3-0.7-0.6-0.7z M0,13.9c1.4,0.6,3.5-0.8,4.1-1.2c0.5-0.4,1.6-1.2,1.6-1.2l-7.8,0.2
			C-2.1,11.7-1.3,13.3,0,13.9L0,13.9z M0.2,7.6C-1.2,6.9-4,5.3-4.1,5.4c-0.1,0-0.5,2,0.4,3.5c0.9,1.5,2.6,2,3.4,2.1
			c0.9,0.1,6.2,0.1,6.1,0C5.8,10.8,1.6,8.3,0.2,7.6z M13.1-2.5c-1.3-1.6-3.2-1.5-3.2-1.5c-0.1,0.2-1,2.5-1.3,4.2
			C8.3,2,8.7,9.2,8.7,9.3c0,0.1,0.1,0.1,0.3,0c0.1-0.1,3.3-5.1,3.9-6.4S14.4-0.9,13.1-2.5L13.1-2.5z M20.2,5.4c-0.1,0-3,1.6-4.4,2.3
			c-1.4,0.7-5.5,3.2-5.6,3.3c0,0.1,5.2,0.2,6.1,0c0.8-0.1,2.5-0.6,3.4-2.1C20.8,7.4,20.4,5.4,20.2,5.4L20.2,5.4z M12,12.7
			c0.6,0.4,2.7,1.8,4.1,1.2c1.4-0.6,2.1-2.1,2.1-2.1l-7.8-0.2C10.4,11.5,11.4,12.3,12,12.7L12,12.7z M18.7,2.5
			c-0.1-1.6-1.8-3.2-2-3.2c-0.2,0-2.2,2.5-3.7,4.9C11.5,6.5,9.7,9.8,9.8,10c0.1,0.2,4.6-2.3,6.5-3.6C18.2,5.1,18.8,4.1,18.7,2.5z"/>
		<path class="st1" d="M1.3,16.1v2.3c0,0.2,0,0.3,0,0.4c0,0.1,0.1,0.2,0.2,0.3c0.2,0.2,0.4,0.2,0.7,0.2c0.2,0,0.3,0,0.5-0.1
			c0.1-0.1,0.2-0.2,0.3-0.3C3,19,3.1,18.8,3.1,18.5v-2.3h0.8v2.3c0,0.3,0,0.6-0.1,0.8c-0.1,0.2-0.2,0.4-0.3,0.5
			c-0.3,0.3-0.7,0.4-1.3,0.4c-0.6,0-1-0.1-1.3-0.4c-0.1-0.1-0.2-0.3-0.3-0.5c-0.1-0.2-0.1-0.4-0.1-0.7v-2.4H1.3L1.3,16.1z M4.4,20.1
			L6,16.1h1l1.6,3.9h-1l-0.4-0.9H5.7l-0.4,0.9H4.4z M6.5,17.1l-0.6,1.4H7L6.5,17.1z M9.4,16.1l0.9,3l0.8-3h0.9l0.8,3l0.9-3h0.9
			l-1.3,3.9h-1l-0.8-2.8l-0.8,2.8H9.8l-1.3-3.9H9.4z M18.3,16.1v0.7h-1.1c-0.3,0-0.5,0-0.6,0.1c-0.1,0-0.2,0.1-0.3,0.2
			c-0.1,0.1-0.1,0.2-0.1,0.2c0,0.1,0,0.2-0.1,0.4h2.2v0.7h-2.2c0,0.3,0.1,0.6,0.3,0.7c0.2,0.1,0.5,0.2,0.9,0.2h1v0.7h-1.1
			c-0.3,0-0.6,0-0.8-0.1c-0.3-0.1-0.6-0.2-0.8-0.5c-0.3-0.4-0.4-0.9-0.4-1.5c0-0.7,0.2-1.2,0.6-1.6c0.1-0.1,0.3-0.2,0.5-0.3
			c0.2,0,0.4-0.1,0.7-0.1H18.3z M19.3,20.1v-3.9h0.8v3.9H19.3z M-0.4,16.1V20h-0.9v-1.6H-3V20H-4v-3.9H-3v1.6h1.7v-1.6H-0.4
			L-0.4,16.1z"/>
	</g>
</g>
<g>
	<path class="st2" d="M28-5.8v27.5c0,3.4-2.8,6.3-6.3,6.3H-5.8c-2,0-3.7-0.9-4.9-2.3c1.1,0.9,2.4,1.4,3.9,1.4h27.5
		c3.4,0,6.3-2.8,6.3-6.3V-6.7c0-1.5-0.5-2.8-1.4-3.9C27.1-9.5,28-7.7,28-5.8z"/>
	<path class="st3" d="M26.6-9.7c-1.1-0.9-2.4-1.4-3.9-1.4H-4.8c-3.4,0-6.3,2.8-6.3,6.3v27.5c0,1.5,0.5,2.8,1.4,3.9
		c-1.4-1.1-2.3-2.9-2.3-4.9V-5.8c0-3.4,2.8-6.3,6.3-6.3h27.5C23.7-12,25.5-11.1,26.6-9.7z"/>
</g>
</svg>
