<?xml version="1.0" encoding="utf-8"?>
<!-- Generator: Adobe Illustrator 18.1.0, SVG Export Plug-In . SVG Version: 6.00 Build 0)  -->
<svg version="1.1" id="图层_1" xmlns="http://www.w3.org/2000/svg" xmlns:xlink="http://www.w3.org/1999/xlink" x="0px" y="0px"
	 width="40px" height="40px" viewBox="-12 -12 40 40" style="enable-background:new -12 -12 40 40;" xml:space="preserve">
<style type="text/css">
	.st0{fill:#7C76CE;}
	.st1{fill:#FFFFFF;}
	.st2{opacity:0.35;}
	.st3{opacity:0.24;fill:#FFFFFF;}
</style>
<g>
	<path class="st0" d="M28,21.8c0,3.5-2.7,6.2-6.2,6.2H-5.7c-3.5,0-6.3-2.8-6.3-6.2V-5.7c0-3.5,2.9-6.3,6.3-6.3h27.5
		c3.5,0,6.2,2.8,6.2,6.3V21.8z"/>
	<g>
		<path class="st1" d="M-4.3,4h0.7h2.4c0.8,0,1.3,0.2,1.7,0.7s0.6,1.1,0.6,1.9C1.2,7.3,1,8,0.6,8.4s-1,0.7-1.7,0.7h-1.7V12h-0.7
			h-0.8V4z M-2.8,7.7h1.5c0.3,0,0.6-0.1,0.8-0.3c0.2-0.2,0.2-0.5,0.2-0.9c0-0.4-0.1-0.7-0.3-0.9C-0.7,5.5-1,5.4-1.4,5.4h-1.4V7.7z"
			/>
		<path class="st1" d="M2.8,4h0.7h0.8V12H3.6H2.8V4z"/>
		<path class="st1" d="M7.7,12H7H6.3V4h0.8h0.8l2.8,5.6V4h0.7h0.7V12h-0.7h-0.7L7.7,6.2V12z"/>
		<path class="st1" d="M17.1,12.3c-1,0-1.9-0.4-2.5-1.1S13.8,9.3,13.8,8c0-1.3,0.3-2.3,1-3.1c0.6-0.8,1.5-1.1,2.6-1.1
			c0.8,0,1.5,0.2,2.1,0.7c0.6,0.5,0.9,1.2,1,2h-1.5c-0.1-0.4-0.3-0.7-0.6-0.9c-0.3-0.3-0.6-0.4-1-0.4c-0.6,0-1.2,0.3-1.5,0.8
			c-0.4,0.5-0.6,1.2-0.6,2.1c0,0.9,0.2,1.6,0.5,2.1c0.4,0.5,0.9,0.7,1.6,0.7h0c0.6,0,1-0.3,1.3-0.8c0.2-0.3,0.3-0.6,0.4-1h-1.7V7.7
			h3V12h-1l-0.2-1l0,0.1C18.7,11.9,18,12.3,17.1,12.3L17.1,12.3z"/>
	</g>
</g>
<g>
	<path class="st2" d="M28-5.8v27.5c0,3.4-2.8,6.3-6.3,6.3H-5.8c-2,0-3.7-0.9-4.9-2.3c1.1,0.9,2.4,1.4,3.9,1.4h27.5
		c3.4,0,6.3-2.8,6.3-6.3V-6.7c0-1.5-0.5-2.8-1.4-3.9C27.1-9.5,28-7.7,28-5.8z"/>
	<path class="st3" d="M26.6-9.7c-1.1-0.9-2.4-1.4-3.9-1.4H-4.8c-3.4,0-6.3,2.8-6.3,6.3v27.5c0,1.5,0.5,2.8,1.4,3.9
		c-1.4-1.1-2.3-2.9-2.3-4.9V-5.8c0-3.4,2.8-6.3,6.3-6.3h27.5C23.7-12,25.5-11.1,26.6-9.7z"/>
</g>
</svg>
