<?xml version="1.0" encoding="utf-8"?>
<!-- Generator: Adobe Illustrator 18.1.0, SVG Export Plug-In . SVG Version: 6.00 Build 0)  -->
<svg version="1.1" id="图层_1" xmlns="http://www.w3.org/2000/svg" xmlns:xlink="http://www.w3.org/1999/xlink" x="0px" y="0px"
	 width="40px" height="40px" viewBox="-12 -12 40 40" style="enable-background:new -12 -12 40 40;" xml:space="preserve">
<style type="text/css">
	.st0{fill:#FF8630;}
	.st1{fill:#FFFFFF;}
	.st2{opacity:0.35;}
	.st3{opacity:0.24;fill:#FFFFFF;}
</style>
<g>
	<path class="st0" d="M28,21.8c0,3.5-2.7,6.2-6.2,6.2H-5.7c-3.5,0-6.3-2.8-6.3-6.2V-5.7c0-3.5,2.9-6.3,6.3-6.3h27.5
		c3.5,0,6.2,2.8,6.2,6.3V21.8z"/>
	<g>
		<path class="st1" d="M-4.2,6.7c0-0.3-0.1-0.6-0.3-0.8c-0.2-0.2-0.4-0.3-0.8-0.3c-0.3,0-0.6,0.1-0.7,0.2C-6.2,6-6.3,6.2-6.3,6.5
			C-6.3,6.7-6.2,6.8-6,7c0.2,0.1,0.5,0.2,0.9,0.3c0.8,0.2,1.4,0.5,1.7,0.8C-3,8.4-2.9,8.8-2.9,9.4c0,0.7-0.2,1.2-0.6,1.6
			c-0.4,0.4-0.9,0.6-1.6,0.6c-0.7,0-1.3-0.2-1.7-0.6c-0.4-0.4-0.6-0.9-0.6-1.7h1.1c0,0.4,0.1,0.6,0.3,0.8c0.2,0.2,0.5,0.3,0.9,0.3
			c0.3,0,0.6-0.1,0.8-0.2C-4.1,10-4,9.8-4,9.5C-4,9.3-4.1,9.1-4.3,9c-0.2-0.1-0.6-0.3-1.1-0.4c-0.7-0.2-1.2-0.4-1.5-0.7
			c-0.3-0.3-0.4-0.7-0.4-1.3c0-0.7,0.2-1.2,0.6-1.5c0.4-0.4,0.9-0.6,1.5-0.6C-4.6,4.5-4,4.7-3.7,5C-3.3,5.4-3.1,6-3,6.7H-4.2z"/>
		<path class="st1" d="M-0.5,8.9l-1.9-4.2h0.7h0.7l1.2,3l0,0l1.1-3h0.6h0.6L0.6,8.8v2.5H0h-0.6V8.9z"/>
		<path class="st1" d="M3.1,4.6h0.6h2c0.6,0,1,0.2,1.3,0.5c0.3,0.3,0.5,0.7,0.5,1.3c0,0.5-0.2,0.9-0.5,1.2C7,7.7,6.9,7.7,6.8,7.8
			C6.9,7.8,7.1,7.9,7.2,8c0.4,0.3,0.5,0.8,0.5,1.4c0,0.6-0.2,1.1-0.5,1.5c-0.4,0.4-0.8,0.5-1.4,0.5h-2H3.1V4.6z M4.2,7.3h1.3
			c0.3,0,0.5-0.1,0.6-0.2C6.3,7,6.4,6.8,6.4,6.5c0-0.3-0.1-0.5-0.2-0.6C6.1,5.9,5.8,5.8,5.5,5.8H4.2V7.3z M4.2,10.2h1.5
			c0.3,0,0.5-0.1,0.6-0.2c0.1-0.1,0.2-0.4,0.2-0.7c0-0.3-0.1-0.5-0.2-0.7C6.2,8.5,5.9,8.4,5.6,8.4H4.2V10.2z"/>
		<path class="st1" d="M10.2,4.6h0.7h0.7l2,6.7h-0.6h-0.6L11.9,10H9.8l-0.4,1.4H8.8H8.2L10.2,4.6z M10.1,8.8h1.4l-0.7-2.7h0
			L10.1,8.8z"/>
		<path class="st1" d="M17.2,6.7c0-0.3-0.1-0.6-0.3-0.8c-0.2-0.2-0.4-0.3-0.8-0.3c-0.3,0-0.6,0.1-0.7,0.2c-0.2,0.2-0.3,0.4-0.3,0.6
			c0,0.2,0.1,0.4,0.2,0.5c0.2,0.1,0.5,0.2,0.9,0.3c0.8,0.2,1.4,0.5,1.7,0.8c0.3,0.3,0.5,0.7,0.5,1.3c0,0.7-0.2,1.2-0.6,1.6
			c-0.4,0.4-0.9,0.6-1.6,0.6c-0.7,0-1.3-0.2-1.7-0.6c-0.4-0.4-0.6-0.9-0.6-1.7h1.1c0,0.4,0.1,0.6,0.3,0.8c0.2,0.2,0.5,0.3,0.9,0.3
			c0.3,0,0.6-0.1,0.8-0.2c0.2-0.2,0.3-0.4,0.3-0.6c0-0.2-0.1-0.4-0.3-0.6c-0.2-0.1-0.6-0.3-1.1-0.4c-0.7-0.2-1.2-0.4-1.5-0.7
			C14.2,7.6,14,7.1,14,6.6c0-0.7,0.2-1.2,0.6-1.5c0.4-0.4,0.9-0.6,1.5-0.6c0.7,0,1.2,0.2,1.6,0.6c0.4,0.4,0.6,0.9,0.6,1.6H17.2z"/>
		<path class="st1" d="M19.3,11.4V4.6h4.1v0.6v0.6h-2.9v1.4h2.7v0.6v0.6h-2.7v1.7h3v0.6v0.6H19.3z"/>
	</g>
</g>
<g>
	<path class="st2" d="M28-5.8v27.5c0,3.4-2.8,6.3-6.3,6.3H-5.8c-2,0-3.7-0.9-4.9-2.3c1.1,0.9,2.4,1.4,3.9,1.4h27.5
		c3.4,0,6.3-2.8,6.3-6.3V-6.7c0-1.5-0.5-2.8-1.4-3.9C27.1-9.5,28-7.7,28-5.8z"/>
	<path class="st3" d="M26.6-9.7c-1.1-0.9-2.4-1.4-3.9-1.4H-4.8c-3.4,0-6.3,2.8-6.3,6.3v27.5c0,1.5,0.5,2.8,1.4,3.9
		c-1.4-1.1-2.3-2.9-2.3-4.9V-5.8c0-3.4,2.8-6.3,6.3-6.3h27.5C23.7-12,25.5-11.1,26.6-9.7z"/>
</g>
</svg>
