<?xml version="1.0" encoding="utf-8"?>
<!-- Generator: Adobe Illustrator 18.1.0, SVG Export Plug-In . SVG Version: 6.00 Build 0)  -->
<svg version="1.1" id="图层_1" xmlns="http://www.w3.org/2000/svg" xmlns:xlink="http://www.w3.org/1999/xlink" x="0px" y="0px"
	 width="40px" height="40px" viewBox="-12 -12 40 40" style="enable-background:new -12 -12 40 40;" xml:space="preserve">
<style type="text/css">
	.st0{fill:#FFB630;}
	.st1{fill:#FFFFFF;}
	.st2{opacity:0.35;}
	.st3{opacity:0.24;fill:#FFFFFF;}
</style>
<g>
	<path class="st0" d="M28,21.8c0,3.5-2.7,6.2-6.2,6.2H-5.7c-3.5,0-6.3-2.8-6.3-6.2V-5.7c0-3.5,2.9-6.3,6.3-6.3h27.5
		c3.5,0,6.2,2.8,6.2,6.3V21.8z"/>
	<g>
		<g>
			<path class="st1" d="M-1.1,7.3L-3-0.7h0.7h0.7l1.1,5.9h0l0.9-5.9h0.7h0.7l1,5.9h0L4-0.7h0.7h0.7L3.6,7.3H2.9H2.2L1.2,0.9h0
				l-1,6.4h-0.6H-1.1z"/>
			<path class="st1" d="M6.8,7.3v-8.1h4.9V0v0.7H8.2v1.7h3.2v0.7v0.7H8.2v2.1h3.6v0.7v0.7H6.8z"/>
			<path class="st1" d="M13.5-0.7h0.7h2.4c0.7,0,1.2,0.2,1.6,0.5c0.4,0.4,0.6,0.9,0.6,1.5c0,0.6-0.2,1.1-0.6,1.5
				C18.1,2.9,18.1,2.9,18,3c0.2,0.1,0.3,0.2,0.4,0.3C18.8,3.6,19,4.2,19,4.9c0,0.8-0.2,1.3-0.6,1.8c-0.4,0.4-1,0.7-1.7,0.7h-2.5
				h-0.7V-0.7z M14.9,2.4h1.6c0.3,0,0.6-0.1,0.8-0.2c0.2-0.1,0.3-0.4,0.3-0.7c0-0.3-0.1-0.5-0.3-0.7c-0.2-0.1-0.5-0.2-0.9-0.2h-1.5
				V2.4z M14.9,5.9h1.8c0.3,0,0.6-0.1,0.7-0.3s0.2-0.4,0.2-0.8c0-0.4-0.1-0.6-0.3-0.8c-0.2-0.2-0.5-0.3-0.8-0.3h-1.6V5.9z"/>
		</g>
		<g>
			<path class="st1" d="M-4.7,12.5c0-0.3-0.1-0.5-0.3-0.7c-0.2-0.2-0.4-0.2-0.7-0.2c-0.3,0-0.5,0.1-0.6,0.2
				c-0.2,0.1-0.2,0.3-0.2,0.5c0,0.2,0.1,0.3,0.2,0.4c0.1,0.1,0.4,0.2,0.8,0.3c0.7,0.2,1.2,0.4,1.5,0.7c0.3,0.3,0.4,0.6,0.4,1.1
				c0,0.6-0.2,1-0.5,1.4c-0.3,0.3-0.8,0.5-1.4,0.5c-0.6,0-1.1-0.2-1.5-0.5c-0.3-0.3-0.5-0.8-0.5-1.5h1c0,0.3,0.1,0.5,0.3,0.7
				c0.2,0.2,0.4,0.2,0.8,0.2c0.3,0,0.5-0.1,0.7-0.2c0.2-0.1,0.3-0.3,0.3-0.5c0-0.2-0.1-0.4-0.3-0.5c-0.2-0.1-0.5-0.2-1-0.4
				c-0.6-0.2-1.1-0.4-1.3-0.6c-0.2-0.2-0.4-0.6-0.4-1.1c0-0.6,0.2-1,0.5-1.3c0.3-0.3,0.8-0.5,1.3-0.5c0.6,0,1,0.2,1.4,0.5
				c0.3,0.3,0.5,0.8,0.5,1.4H-4.7z"/>
			<path class="st1" d="M-2.5,16.6v-5.8h3.5v0.5v0.5h-2.5V13h2.3v0.5v0.5h-2.3v1.5h2.6v0.5v0.5H-2.5z"/>
			<path class="st1" d="M2.4,10.8h0.5h1.8c0.5,0,1,0.1,1.2,0.4c0.3,0.3,0.4,0.7,0.4,1.2c0,0.5-0.1,0.9-0.4,1.2
				c-0.1,0.1-0.2,0.2-0.3,0.2c0,0,0.1,0.1,0.1,0.1c0.3,0.2,0.5,0.6,0.5,1.2v0.7c0,0.2,0,0.4,0,0.5c0,0.1,0.1,0.2,0.2,0.2v0.1H5.3
				c0-0.1-0.1-0.3-0.1-0.5c0-0.2,0-0.4,0-0.6l0-0.3c0-0.3,0-0.6-0.2-0.7c-0.1-0.1-0.3-0.2-0.5-0.2H3.4v2.3H2.9H2.4V10.8z M3.4,13.4
				h1.1c0.3,0,0.5-0.1,0.6-0.2c0.1-0.1,0.2-0.3,0.2-0.6c0-0.3-0.1-0.5-0.2-0.6c-0.1-0.1-0.3-0.2-0.5-0.2H3.4V13.4z"/>
			<path class="st1" d="M7.2,10.8h0.5h0.5l1,4.5h0l1-4.5h0.5h0.5l-1.6,5.8H9.3H8.8L7.2,10.8z"/>
			<path class="st1" d="M12.4,10.8h0.5h0.5v5.8h-0.5h-0.5V10.8z"/>
			<path class="st1" d="M18.8,14.6c-0.1,0.7-0.3,1.2-0.7,1.6c-0.4,0.4-0.8,0.6-1.4,0.6c-0.7,0-1.2-0.3-1.6-0.8
				c-0.4-0.6-0.6-1.3-0.6-2.2c0-0.9,0.2-1.7,0.6-2.2c0.4-0.6,0.9-0.8,1.6-0.8c0.6,0,1,0.2,1.4,0.6c0.4,0.4,0.6,0.9,0.7,1.5h-1
				c0-0.3-0.1-0.6-0.3-0.8c-0.2-0.2-0.4-0.3-0.7-0.3c-0.4,0-0.7,0.2-0.9,0.5c-0.2,0.4-0.3,0.9-0.3,1.5c0,0.6,0.1,1.1,0.3,1.5
				c0.2,0.4,0.5,0.5,0.9,0.5c0.3,0,0.5-0.1,0.7-0.3c0.2-0.2,0.3-0.5,0.3-0.8H18.8z"/>
			<path class="st1" d="M19.9,16.6v-5.8h3.5v0.5v0.5h-2.5V13h2.3v0.5v0.5h-2.3v1.5h2.6v0.5v0.5H19.9z"/>
		</g>
	</g>
</g>
<g>
	<path class="st2" d="M28-5.8v27.5c0,3.4-2.8,6.3-6.3,6.3H-5.8c-2,0-3.7-0.9-4.9-2.3c1.1,0.9,2.4,1.4,3.9,1.4h27.5
		c3.4,0,6.3-2.8,6.3-6.3V-6.7c0-1.5-0.5-2.8-1.4-3.9C27.1-9.5,28-7.7,28-5.8z"/>
	<path class="st3" d="M26.6-9.7c-1.1-0.9-2.4-1.4-3.9-1.4H-4.8c-3.4,0-6.3,2.8-6.3,6.3v27.5c0,1.5,0.5,2.8,1.4,3.9
		c-1.4-1.1-2.3-2.9-2.3-4.9V-5.8c0-3.4,2.8-6.3,6.3-6.3h27.5C23.7-12,25.5-11.1,26.6-9.7z"/>
</g>
</svg>
