<?xml version="1.0" encoding="utf-8"?>
<!-- Generator: Adobe Illustrator 16.0.0, SVG Export Plug-In . SVG Version: 6.00 Build 0)  -->
<!DOCTYPE svg PUBLIC "-//W3C//DTD SVG 1.1//EN" "http://www.w3.org/Graphics/SVG/1.1/DTD/svg11.dtd">
<svg version="1.1" id="图层_1" xmlns="http://www.w3.org/2000/svg" xmlns:xlink="http://www.w3.org/1999/xlink" x="0px" y="0px"
	 width="100px" height="100px" viewBox="0 0 100 100" style="enable-background:new 0 0 100 100;" xml:space="preserve">
<style type="text/css">
<![CDATA[
	.st0{fill:#4E646D;}
	.st1{fill:url(#SVGID_1_);}
	.st2{fill:url(#SVGID_2_);}
	.st3{fill:url(#SVGID_3_);}
	.st4{fill:url(#SVGID_4_);}
	.st5{fill:url(#SVGID_5_);}
	.st6{fill:url(#SVGID_6_);}
	.st7{fill:#FFFFFF;}
]]>
</style>
<g>
	<g>
		<linearGradient id="SVGID_1_" gradientUnits="userSpaceOnUse" x1="2.8135" y1="55.4922" x2="90.0342" y2="55.4922">
			<stop  offset="0" style="stop-color:#3D4F5A"/>
			<stop  offset="0.5" style="stop-color:#607A87"/>
			<stop  offset="1" style="stop-color:#3D4F5A"/>
		</linearGradient>
		<path class="st1" d="M90,35v15.2C90,64.4,70.5,76,46.4,76C22.3,76,2.8,64.4,2.8,50.2V35c0,14.2,19.5,25.8,43.6,25.8
			C70.5,60.8,90,49.3,90,35z"/>
		<linearGradient id="SVGID_2_" gradientUnits="userSpaceOnUse" x1="2.8145" y1="35.0068" x2="90.0342" y2="35.0068">
			<stop  offset="0" style="stop-color:#85A1B0"/>
			<stop  offset="0.5" style="stop-color:#A8BECA"/>
			<stop  offset="1" style="stop-color:#85A1B0"/>
		</linearGradient>
		<ellipse class="st2" cx="46.4" cy="35" rx="43.6" ry="25.8"/>
		<linearGradient id="SVGID_3_" gradientUnits="userSpaceOnUse" x1="9.3413" y1="47.2188" x2="83.5088" y2="47.2188">
			<stop  offset="0" style="stop-color:#3D4F5A"/>
			<stop  offset="0.5" style="stop-color:#607A87"/>
			<stop  offset="1" style="stop-color:#3D4F5A"/>
		</linearGradient>
		<path class="st3" d="M83.5,36.7c0,12.1-16.6,21.9-37.1,21.9c-20.5,0-37.1-9.8-37.1-21.9c0-0.3,0-0.6,0-0.8
			c0.7,11.7,17,21.1,37.1,21.1c20,0,36.3-9.4,37.1-21.1C83.5,36.1,83.5,36.4,83.5,36.7z"/>
		<radialGradient id="SVGID_4_" cx="46.4238" cy="35.0073" r="30.4655" gradientUnits="userSpaceOnUse">
			<stop  offset="0" style="stop-color:#C3D2DA"/>
			<stop  offset="1" style="stop-color:#7B99A8"/>
		</radialGradient>
		<ellipse class="st4" cx="46.4" cy="35" rx="37.1" ry="21.9"/>
		<g>
			<polygon class="st0" points="39.2,36.8 37.5,37.8 37.2,38.9 39.4,38.9 42,36.1 42.3,35 41.5,35.5 39.4,33.3 39.2,33.3 39.3,33.1 
				37.5,32.2 37.2,33.3 38.9,35.1 38.1,35.5 36,33.3 35.8,33.3 35.9,33.1 34.1,32.2 33.8,33.3 35.5,35.1 34.7,35.5 32.6,33.3 
				32.4,33.3 32.6,33.1 30.7,32.2 30.4,33.3 30.4,33.3 32.1,35.1 31.3,35.5 29.2,33.3 21.3,33.3 21.3,31.6 14.7,35.5 13.9,35 
				13.6,36.1 21.3,40.7 21.5,39.5 21.3,39.4 21.3,38.9 29.2,38.9 31.9,36.1 31.9,36.1 32.2,35.1 33.1,36.1 32.5,36.8 30.7,37.8 
				30.4,38.9 30.4,38.9 32.6,38.9 35.3,36.1 35.3,36.1 35.5,35.1 36.5,36.1 35.8,36.8 34.1,37.8 33.8,38.9 36,38.9 38.7,36.1 
				38.7,36.1 38.9,35.1 39.9,36.1 			"/>
			<path class="st0" d="M53.8,29.2l0.3-1.1h-3.2v-2.3l0.3-1.1l-0.3,0v-0.1l-3.6-1.2l3.6,0.5l0.3-1.1l-0.3,0v-0.1l-3.6-1.2l3.6,0.5
				l0.3-1.1l-0.3,0v-0.1l-3.6-1.2l3.6,0.5l0.3-1.1l-0.3,0v-0.1l-4.7-1.6l-2.3,0.8l-2.2-0.3l-0.3,1.1v1.3l0.2-0.1l-0.2,0.8h0h0v1.3
				l0.2-0.1l-0.2,0.8h0l0,0v1.3l0.2-0.1l-0.2,0.8l0,0l0,0V28h-2.6l-0.3,1.1l7.7,4.5L53.8,29.2z M44.1,18.8l1.5,0.2l-1.8,0.6
				l-1.5-0.2L44.1,18.8z M44.1,20.8l1.5,0.2l-1.8,0.6l-1.5-0.2L44.1,20.8z M43.9,23.6l-1.5-0.2l1.8-0.6l1.5,0.2L43.9,23.6z"/>
			<polygon class="st0" points="46.1,38.5 40.4,42 38.8,42 38.5,43.1 41.4,43.1 41.4,47.8 41.6,47.8 41.4,48.5 41.4,48.5 41.4,48.5 
				41.4,49.8 41.6,49.8 41.4,50.5 41.4,51.8 41.6,51.8 41.4,52.5 41.4,53.8 46.1,55.4 50.9,53.8 51.2,52.7 50.9,52.6 50.9,52.5 
				50.6,52.6 49.1,52.4 50.9,51.8 51.2,50.7 50.9,50.6 50.9,50.5 50.6,50.6 49.1,50.4 50.9,49.8 50.9,49.8 51.2,48.7 50.9,48.6 
				50.9,48.5 50.6,48.6 49.1,48.4 50.9,47.8 50.9,47.8 51.2,46.7 50.9,46.6 50.9,43.1 53.8,43.1 54.1,42 51.9,42 			"/>
			<polygon class="st0" points="76.6,34.8 76.6,34.9 71.9,32.1 72.2,31.6 71.3,30.5 71,31.6 71,33.3 63.1,33.3 61.2,35.3 60.7,35 
				60.4,36.1 60.4,36.1 61.8,37.6 59.2,36.1 61.9,33.3 62.1,32.2 60.7,32.9 60.7,33.3 59.7,33.3 57.8,35.3 57.3,35 57,36.1 57,36.1 
				58.5,37.6 55.8,36.1 58.5,33.3 58.8,32.2 57.1,32.9 57.1,33.3 56.3,33.3 54.4,35.3 53.9,35 53.6,36.1 55.1,37.6 52.4,36.1 
				55.1,33.3 55.4,32.2 53.5,32.7 53.3,33.3 52.9,33.3 51,35.3 50.5,35 50.3,36.1 52.9,38.9 55.1,38.9 55.4,37.9 56.3,38.9 
				58.5,38.9 58.5,38.9 58.5,38.9 58.7,37.9 59.7,38.9 61.9,38.9 61.9,38.9 61.9,38.9 62.1,37.9 63.1,38.9 71,38.9 71,40.7 
				78.7,36.1 79,35 			"/>
		</g>
		<g>
			<g>
				<polygon class="st7" points="60.7,35 63.3,32.2 71.3,32.2 71.3,30.5 79,35 71.3,39.5 71.3,37.8 63.3,37.8 				"/>
				<polygon class="st7" points="60,32.2 62.1,32.2 59.5,35 62.1,37.8 60,37.8 57.3,35 				"/>
				<polygon class="st7" points="56.6,32.2 58.8,32.2 56.1,35 58.8,37.8 56.6,37.8 53.9,35 				"/>
				<polygon class="st7" points="53.2,32.2 55.4,32.2 52.7,35 55.4,37.8 53.2,37.8 50.5,35 				"/>
			</g>
			<g>
				<polygon class="st7" points="32.2,35 29.5,37.8 21.5,37.8 21.5,39.5 13.9,35 21.5,30.5 21.5,32.2 29.5,32.2 				"/>
				<polygon class="st7" points="32.9,37.8 30.7,37.8 33.4,35 30.7,32.2 32.9,32.2 35.6,35 				"/>
				<polygon class="st7" points="36.3,37.8 34.1,37.8 36.8,35 34.1,32.2 36.3,32.2 38.9,35 				"/>
				<polygon class="st7" points="39.6,37.8 37.5,37.8 40.1,35 37.5,32.2 39.6,32.2 42.3,35 				"/>
			</g>
			<g>
				<polygon class="st7" points="46.4,21.8 41.7,23.3 41.7,28 38.8,28 46.4,32.6 54.1,28 51.2,28 51.2,23.3 				"/>
				<polygon class="st7" points="41.7,21.3 41.7,22.6 46.4,21 51.2,22.6 51.2,21.3 46.4,19.8 				"/>
				<polygon class="st7" points="41.7,19.3 41.7,20.6 46.4,19 51.2,20.6 51.2,19.3 46.4,17.8 				"/>
				<polygon class="st7" points="41.7,17.3 41.7,18.6 46.4,17 51.2,18.6 51.2,17.3 46.4,15.8 				"/>
			</g>
			<g>
				<polygon class="st7" points="46.4,48.3 51.2,46.7 51.2,42 54.1,42 46.4,37.4 38.8,42 41.7,42 41.7,46.7 				"/>
				<polygon class="st7" points="51.2,48.7 51.2,47.4 46.4,49 41.7,47.4 41.7,48.7 46.4,50.3 				"/>
				<polygon class="st7" points="51.2,50.7 51.2,49.4 46.4,51 41.7,49.4 41.7,50.7 46.4,52.3 				"/>
				<polygon class="st7" points="51.2,52.7 51.2,51.4 46.4,53 41.7,51.4 41.7,52.7 46.4,54.3 				"/>
			</g>
		</g>
	</g>
	<g>
		
			<image style="overflow:visible;opacity:0.25;enable-background:new    ;" width="100" height="70" xlink:href="topo/新建文件夹/cloud/C9E7EB1D.png"  transform="matrix(0.5941 0 0 0.5941 39.5879 50.9458)">
		</image>
		<g>
			<g>
				
					<linearGradient id="SVGID_5_" gradientUnits="userSpaceOnUse" x1="617.9541" y1="-615.5693" x2="617.9541" y2="-645.4355" gradientTransform="matrix(1 0 0 -1 -548.6602 -558.96)">
					<stop  offset="4.000000e-003" style="stop-color:#FFFFFF"/>
					<stop  offset="1" style="stop-color:#999998"/>
				</linearGradient>
				<path class="st5" d="M54.4,66.3c0,0-8.4,1.3-9.4,9.4c0,0-0.5,8.5,9,10.7h32.3c0,0,7.3-0.3,7.3-8.6c0,0,0.4-8.6-6.8-8.9
					c0,0-2.1-8.2-10.6-5.8c0,0-3.5-7.2-11.2-6.5C65.1,56.7,56.2,56.3,54.4,66.3z"/>
				
					<linearGradient id="SVGID_6_" gradientUnits="userSpaceOnUse" x1="617.9824" y1="-616.478" x2="617.9824" y2="-645.8568" gradientTransform="matrix(1 0 0 -1 -548.6602 -558.96)">
					<stop  offset="0" style="stop-color:#EBEBEB"/>
					<stop  offset="1" style="stop-color:#D9D9D9"/>
				</linearGradient>
				<path class="st6" d="M54.7,67.1c0,0-8.3,1.2-9.3,9.3c0,0-0.5,8.3,8.8,10.5H86c0,0,7.2-0.3,7.2-8.5c0,0,0.4-8.4-6.7-8.7
					c0,0-2.1-8.1-10.4-5.7c0,0-3.4-7.1-10.9-6.4C65.1,57.5,56.4,57.2,54.7,67.1z"/>
			</g>
		</g>
	</g>
</g>
</svg>
