<?xml version="1.0" encoding="utf-8"?>
<!-- Generator: Adobe Illustrator 16.0.0, SVG Export Plug-In . SVG Version: 6.00 Build 0)  -->
<!DOCTYPE svg PUBLIC "-//W3C//DTD SVG 1.1//EN" "http://www.w3.org/Graphics/SVG/1.1/DTD/svg11.dtd">
<svg version="1.1" id="图层_1" xmlns="http://www.w3.org/2000/svg" xmlns:xlink="http://www.w3.org/1999/xlink" x="0px" y="0px"
	 width="44px" height="44px" viewBox="0 0 44 44" style="enable-background:new 0 0 44 44;" xml:space="preserve">
<style type="text/css">
<![CDATA[
	.st0{opacity:0;fill:#FFFFFF;}
	.st1{fill:#EFC41A;}
	.st2{fill:#FFFFFF;}
]]>
</style>
<rect class="st0" width="44" height="44"/>
<g>
	<path class="st1" d="M41.9,41.2H2.1c-1.6,0-2.6-1.7-1.8-3.1L20.2,3.9c0.8-1.4,2.8-1.4,3.6,0L43.7,38C44.5,39.4,43.5,41.2,41.9,41.2
		z"/>
	<path class="st2" d="M22.1,29.4c-0.9,0-1.7-0.8-1.7-1.7V14.3c0-0.9,0.8-1.7,1.7-1.7c0.9,0,1.7,0.8,1.7,1.7v13.5
		C23.8,28.6,23.1,29.4,22.1,29.4z"/>
	<path class="st2" d="M22.1,36.1c-0.4,0-0.9-0.2-1.2-0.5c-0.3-0.3-0.5-0.8-0.5-1.2c0-0.4,0.2-0.9,0.5-1.2c0.6-0.6,1.7-0.6,2.4,0
		c0.3,0.3,0.5,0.8,0.5,1.2c0,0.4-0.2,0.9-0.5,1.2C23,35.9,22.6,36.1,22.1,36.1z"/>
</g>
</svg>
