<?xml version="1.0" encoding="utf-8"?>
<!-- Generator: Adobe Illustrator 16.0.0, SVG Export Plug-In . SVG Version: 6.00 Build 0)  -->
<!DOCTYPE svg PUBLIC "-//W3C//DTD SVG 1.1//EN" "http://www.w3.org/Graphics/SVG/1.1/DTD/svg11.dtd">
<svg version="1.1" id="图层_1" xmlns="http://www.w3.org/2000/svg" xmlns:xlink="http://www.w3.org/1999/xlink" x="0px" y="0px"
	 width="60px" height="60px" viewBox="0 0 60 60" style="enable-background:new 0 0 60 60;" xml:space="preserve">
<style type="text/css">
<![CDATA[
	.st0{opacity:0;fill:#FFFFFF;}
	.st1{fill-rule:evenodd;clip-rule:evenodd;}
	.st2{fill-rule:evenodd;clip-rule:evenodd;fill:url(#SVGID_10_);}
	.st3{fill-rule:evenodd;clip-rule:evenodd;fill:url(#SVGID_11_);}
	.st4{fill-rule:evenodd;clip-rule:evenodd;fill:url(#SVGID_12_);}
	.st5{fill-rule:evenodd;clip-rule:evenodd;fill:url(#SVGID_1_);}
	.st6{fill-rule:evenodd;clip-rule:evenodd;fill:url(#SVGID_2_);}
	.st7{fill-rule:evenodd;clip-rule:evenodd;fill:url(#SVGID_3_);}
	.st8{fill-rule:evenodd;clip-rule:evenodd;fill:url(#SVGID_4_);}
	.st9{fill-rule:evenodd;clip-rule:evenodd;fill:url(#SVGID_5_);}
	.st10{fill-rule:evenodd;clip-rule:evenodd;fill:url(#SVGID_6_);}
	.st11{fill-rule:evenodd;clip-rule:evenodd;fill:url(#SVGID_7_);}
	.st12{fill-rule:evenodd;clip-rule:evenodd;fill:url(#SVGID_8_);}
	.st13{fill-rule:evenodd;clip-rule:evenodd;fill:url(#SVGID_9_);}
]]>
</style>
<rect class="st0" width="60" height="60"/>
<g>
	
		<linearGradient id="SVGID_1_" gradientUnits="userSpaceOnUse" x1="-21.5962" y1="552.5693" x2="-21.5962" y2="494.124" gradientTransform="matrix(0.7608 0 0 0.7608 48.1145 -368.1594)">
		<stop  offset="1.000000e-002" style="stop-color:#6F7687"/>
		<stop  offset="0.99" style="stop-color:#A4ABB8"/>
	</linearGradient>
	<path class="st5" d="M5.7,7.8h51.9c1.3,0,2.4,1.1,2.4,2.4v28.2v9.1c0,3.6-24.4,4.7-28.3,4.7c-3.9,0-28.3-1.1-28.3-4.7v-8.9V10.3
		C3.4,9,4.4,7.8,5.7,7.8L5.7,7.8z"/>
	<linearGradient id="SVGID_2_" gradientUnits="userSpaceOnUse" x1="31.6836" y1="51.6982" x2="31.6836" y2="15.6874">
		<stop  offset="0" style="stop-color:#777B87"/>
		<stop  offset="1" style="stop-color:#E4E6F0"/>
	</linearGradient>
	<path class="st6" d="M59.6,45.3v2.1c0,3.6-24.1,4.6-28,4.6s-28-1-28-4.6c0-1.3,0-0.7,0-2C7.5,51,51.5,52.9,59.6,45.3L59.6,45.3z"/>
	<linearGradient id="SVGID_3_" gradientUnits="userSpaceOnUse" x1="31.6953" y1="51.2246" x2="31.6739" y2="8.0308">
		<stop  offset="0" style="stop-color:#B7BCC9"/>
		<stop  offset="1" style="stop-color:#D6D9E8"/>
	</linearGradient>
	<path class="st7" d="M6,8h51.3c1.3,0,2.3,1,2.3,2.3v27.9v8.3c0,3.6-24.1,4.6-28,4.6s-28-1-28-4.6v-8.1V10.4C3.7,9.1,4.8,8,6,8L6,8z
		"/>
	
		<linearGradient id="SVGID_4_" gradientUnits="userSpaceOnUse" x1="46.2959" y1="864.415" x2="68.9263" y2="856.1782" gradientTransform="matrix(0.2229 -0.1523 0.1467 0.2146 -132.8584 -134.7023)">
		<stop  offset="0" style="stop-color:#8D919C"/>
		<stop  offset="1" style="stop-color:#8B8D99"/>
	</linearGradient>
	<polygon class="st8" points="8.7,37.7 3.7,41.1 3.7,44.6 8.7,41.2 8.7,37.7 	"/>
	<polygon class="st1" points="8.4,12.4 55,12.4 55,42.7 8.4,42.7 8.4,12.4 	"/>
	
		<linearGradient id="SVGID_5_" gradientUnits="userSpaceOnUse" x1="-31.8965" y1="528.4033" x2="-31.8965" y2="490.1191" gradientTransform="matrix(0.7749 0 0 0.7749 56.3941 -367.0854)">
		<stop  offset="0" style="stop-color:#222833"/>
		<stop  offset="1" style="stop-color:#4E5966"/>
	</linearGradient>
	<polygon class="st9" points="8.7,12.7 54.7,12.7 54.7,42.4 8.7,42.4 8.7,12.7 	"/>
	
		<linearGradient id="SVGID_6_" gradientUnits="userSpaceOnUse" x1="85.5342" y1="894.0938" x2="131.6183" y2="828.2787" gradientTransform="matrix(0.2229 -0.1523 0.1467 0.2146 -126.751 -138.8619)">
		<stop  offset="7.000000e-002" style="stop-color:#171D26"/>
		<stop  offset="0.93" style="stop-color:#2B323B"/>
	</linearGradient>
	<polygon class="st10" points="34.3,20.3 8.7,37.7 8.7,41.2 35.9,22.7 39,18.7 34.3,20.3 	"/>
	<linearGradient id="SVGID_7_" gradientUnits="userSpaceOnUse" x1="31.7949" y1="49.1152" x2="31.6772" y2="8.0436">
		<stop  offset="0" style="stop-color:#B7BCC9"/>
		<stop  offset="1" style="stop-color:#F7F8FC"/>
	</linearGradient>
	<path class="st11" d="M6,8h51.3c1.3,0,2.3,1,2.3,2.3c-1-1-2.5-1.3-10.4-1.3L11.9,9c-6.5,0-7.7,0.4-8.2,1.3C3.7,9.1,4.8,8,6,8L6,8z"
		/>
	
		<linearGradient id="SVGID_8_" gradientUnits="userSpaceOnUse" x1="2345.9424" y1="3037.9209" x2="2345.9424" y2="3025.7129" gradientTransform="matrix(3.350000e-002 -2.290000e-002 2.290000e-002 3.350000e-002 -109.599 -29.3459)">
		<stop  offset="0" style="stop-color:#8497AB"/>
		<stop  offset="0.4972" style="stop-color:#656A71"/>
		<stop  offset="1" style="stop-color:#C2CEE0"/>
	</linearGradient>
	<polygon class="st12" points="39,18.2 37.7,18.7 38,19.1 39,18.2 	"/>
	
		<linearGradient id="SVGID_9_" gradientUnits="userSpaceOnUse" x1="177.2803" y1="867.543" x2="177.2803" y2="856.251" gradientTransform="matrix(0.2148 -0.1468 0.1468 0.2148 -128.5024 -139.1944)">
		<stop  offset="0" style="stop-color:#748393"/>
		<stop  offset="0.2528" style="stop-color:#656A71"/>
		<stop  offset="0.7472" style="stop-color:#E4E4E4"/>
		<stop  offset="1" style="stop-color:#C2CEE0"/>
	</linearGradient>
	<polygon class="st13" points="37.8,18.5 33.6,19.8 33.5,19.9 35.1,22.2 35.3,22.2 38.2,19.1 37.8,18.5 	"/>
	
		<linearGradient id="SVGID_10_" gradientUnits="userSpaceOnUse" x1="90.2793" y1="867.8145" x2="90.2793" y2="856.0635" gradientTransform="matrix(0.2229 -0.1523 0.1467 0.2146 -127.707 -139.6193)">
		<stop  offset="5.617980e-003" style="stop-color:#354758"/>
		<stop  offset="0.2528" style="stop-color:#141B23"/>
		<stop  offset="0.3989" style="stop-color:#171D23"/>
		<stop  offset="0.8034" style="stop-color:#B8C0CB"/>
		<stop  offset="1" style="stop-color:#6E798B"/>
	</linearGradient>
	<polygon class="st2" points="33.6,19.8 2.5,41 4.1,43.4 35.3,22.2 33.6,19.8 	"/>
	<linearGradient id="SVGID_11_" gradientUnits="userSpaceOnUse" x1="2.5205" y1="43.8271" x2="1.5021" y2="42.3278">
		<stop  offset="0" style="stop-color:#354758"/>
		<stop  offset="0.1854" style="stop-color:#141B23"/>
		<stop  offset="0.3539" style="stop-color:#171D23"/>
		<stop  offset="0.764" style="stop-color:#B8C0CB"/>
		<stop  offset="1" style="stop-color:#6E798B"/>
	</linearGradient>
	<polygon class="st3" points="3,41.3 0,43.3 1,44.8 4,42.8 3,41.3 	"/>
	<linearGradient id="SVGID_12_" gradientUnits="userSpaceOnUse" x1="10.6597" y1="38.96" x2="9.0082" y2="36.5283">
		<stop  offset="0" style="stop-color:#8497AB"/>
		<stop  offset="0.2416" style="stop-color:#616871"/>
		<stop  offset="0.3989" style="stop-color:#656A71"/>
		<stop  offset="0.8034" style="stop-color:#F9F9F9"/>
		<stop  offset="1" style="stop-color:#C2CEE0"/>
	</linearGradient>
	<polygon class="st4" points="15.5,32.1 2.5,41 4.1,43.4 17.2,34.5 15.5,32.1 	"/>
</g>
</svg>
