<?xml version="1.0" encoding="utf-8"?>
<!-- Generator: Adobe Illustrator 16.0.0, SVG Export Plug-In . SVG Version: 6.00 Build 0)  -->
<!DOCTYPE svg PUBLIC "-//W3C//DTD SVG 1.1//EN" "http://www.w3.org/Graphics/SVG/1.1/DTD/svg11.dtd">
<svg version="1.1" id="图层_1" xmlns="http://www.w3.org/2000/svg" xmlns:xlink="http://www.w3.org/1999/xlink" x="0px" y="0px"
	 width="60px" height="60px" viewBox="0 0 60 60" style="enable-background:new 0 0 60 60;" xml:space="preserve">
<style type="text/css">
<![CDATA[
	.st0{opacity:0.59;fill:#FFFFFF;}
	.st1{opacity:0;fill:#FFFFFF;}
	.st2{opacity:0.68;fill:url(#SVGID_18_);}
	.st3{fill:#4D4D4D;}
	.st4{opacity:0.25;}
	.st5{opacity:0.28;fill:#FFB0BF;}
	.st6{opacity:0.35;fill:#FFB0BF;}
	.st7{opacity:0.61;fill:url(#SVGID_8_);}
	.st8{fill:url(#SVGID_1_);}
	.st9{fill:url(#SVGID_2_);}
	.st10{fill:url(#SVGID_3_);}
	.st11{fill:url(#SVGID_4_);}
	.st12{fill:url(#SVGID_5_);}
	.st13{fill:url(#SVGID_7_);}
	.st14{fill:#FFFFFF;}
	.st15{opacity:0.68;fill:url(#SVGID_6_);}
	.st16{opacity:0.61;fill:url(#SVGID_20_);}
	.st17{opacity:0.19;fill:#FFFFFF;}
	.st18{fill:#3D3D3D;}
	.st19{fill:url(#SVGID_10_);}
	.st20{fill:url(#SVGID_11_);}
	.st21{fill:url(#SVGID_12_);}
	.st22{fill:url(#SVGID_13_);}
	.st23{fill:url(#SVGID_14_);}
	.st24{fill:url(#SVGID_15_);}
	.st25{fill:url(#SVGID_16_);}
	.st26{fill:url(#SVGID_17_);}
	.st27{fill:url(#SVGID_19_);}
	.st28{fill:url(#SVGID_22_);}
	.st29{fill:url(#SVGID_23_);}
	.st30{fill:url(#SVGID_24_);}
	.st31{fill:url(#SVGID_25_);}
	.st32{opacity:0.5;fill:url(#SVGID_21_);}
	.st33{opacity:0.5;fill:url(#SVGID_9_);}
]]>
</style>
<rect class="st1" width="60" height="60"/>
<g>
	<g>
		<g>
			<g>
				<g>
					
						<linearGradient id="SVGID_1_" gradientUnits="userSpaceOnUse" x1="315.9551" y1="1603.6387" x2="316.1978" y2="1606.5503" gradientTransform="matrix(0.5219 0.8531 -0.8531 0.5219 1210.7662 -1092.2637)">
						<stop  offset="0" style="stop-color:#6E6E6E"/>
						<stop  offset="1" style="stop-color:#969696"/>
					</linearGradient>
					<polygon class="st8" points="2.4,9.1 4.3,20.7 11.2,20.5 7.5,8.5 					"/>
					
						<linearGradient id="SVGID_2_" gradientUnits="userSpaceOnUse" x1="339.8115" y1="1580.9355" x2="330.4847" y2="1586.7649" gradientTransform="matrix(0.5219 0.8531 -0.8531 0.5219 1210.7662 -1092.2637)">
						<stop  offset="0" style="stop-color:#872B00"/>
						<stop  offset="0.9838" style="stop-color:#8C4200"/>
					</linearGradient>
					<path class="st9" d="M40.4,10.3l-0.1-0.1l-9.4,1.2l-5.2-2.9l-10-3.5l-3.7,2.9l2.5,15.5l3.9-0.2l22.2-0.7l3.5-1.9
						c-0.3-1.1-1-5.4-0.6-5.9C42.7,10.9,38.9,13.1,40.4,10.3z"/>
					
						<linearGradient id="SVGID_3_" gradientUnits="userSpaceOnUse" x1="-222.4751" y1="889.6768" x2="-227.8146" y2="892.4207" gradientTransform="matrix(0.8184 0.5746 -0.5746 0.8184 710.5657 -586.0018)">
						<stop  offset="0" style="stop-color:#FF5C26"/>
						<stop  offset="0.9772" style="stop-color:#CD5C4A"/>
						<stop  offset="0.9892" style="stop-color:#CC5C4A"/>
					</linearGradient>
					<polygon class="st10" points="15.8,4.8 12,7.6 14.3,23.1 18.4,20.7 					"/>
					
						<linearGradient id="SVGID_4_" gradientUnits="userSpaceOnUse" x1="321.2803" y1="1605.0977" x2="325.9021" y2="1602.8049" gradientTransform="matrix(0.5219 0.8531 -0.8531 0.5219 1210.7662 -1092.2637)">
						<stop  offset="1.621620e-002" style="stop-color:#6E6E6E"/>
						<stop  offset="1" style="stop-color:#404040"/>
					</linearGradient>
					<polygon class="st11" points="14.3,21.4 4.1,21.2 6.6,19.5 17.1,19.6 					"/>
					<polygon class="st3" points="12.3,9.5 2.2,9.2 4.5,7.2 14.7,7.6 					"/>
					
						<linearGradient id="SVGID_5_" gradientUnits="userSpaceOnUse" x1="322.8105" y1="1595.1895" x2="313.9729" y2="1603.4933" gradientTransform="matrix(0.5219 0.8531 -0.8531 0.5219 1210.7662 -1092.2637)">
						<stop  offset="0" style="stop-color:#ACACB4"/>
						<stop  offset="0.2063" style="stop-color:#B8B8BF"/>
						<stop  offset="0.6919" style="stop-color:#D1D1D4"/>
						<stop  offset="0.9892" style="stop-color:#DADADC"/>
					</linearGradient>
					<polygon class="st12" points="4.4,7.2 6.6,19.5 17.1,19.6 14.8,7.6 					"/>
					
						<linearGradient id="SVGID_6_" gradientUnits="userSpaceOnUse" x1="-228.6016" y1="890.4277" x2="-227.155" y2="900.2197" gradientTransform="matrix(0.8184 0.5746 -0.5746 0.8184 710.5657 -586.0018)">
						<stop  offset="0" style="stop-color:#FFFFFF"/>
						<stop  offset="1" style="stop-color:#000000"/>
					</linearGradient>
					<polygon class="st15" points="5,10.8 14.8,19.6 6.6,19.5 					"/>
					<polygon class="st0" points="9.2,14.4 10,17.9 13,18.1 12.3,14.4 					"/>
					<polygon class="st18" points="9.2,14.6 9.9,18 12.8,18.1 12.1,14.6 					"/>
					<polygon class="st0" points="8.3,8.9 9,12.2 11.8,12.4 11.1,9 					"/>
					<polygon class="st18" points="8.3,9.1 8.9,12.3 11.6,12.4 11,9.1 					"/>
					<g>
						
							<linearGradient id="SVGID_7_" gradientUnits="userSpaceOnUse" x1="-49.5938" y1="1201.8291" x2="-48.325" y2="1200.2534" gradientTransform="matrix(0.7157 0.6984 -0.6984 0.7157 877.1522 -811.0617)">
							<stop  offset="5.405410e-003" style="stop-color:#A09DA7"/>
							<stop  offset="5.738580e-002" style="stop-color:#A5A3AC"/>
							<stop  offset="0.4686" style="stop-color:#CCCACD"/>
							<stop  offset="0.7952" style="stop-color:#E4E3E2"/>
							<stop  offset="0.9946" style="stop-color:#EDECEA"/>
						</linearGradient>
						<path class="st13" d="M6.6,19.5L4.4,7.2L2,9l2.2,12.2L6.6,19.5z M2.6,9.2L4,8.1l2,11.1l-1.5,1L2.6,9.2z"/>
					</g>
					<polygon class="st17" points="4.4,7.2 4.4,7.2 6.4,19.4 4.2,21.2 4.3,21.2 6.6,19.7 16.8,19.8 17,19.6 6.7,19.4 					"/>
					<polygon class="st17" points="4.4,7.2 4.4,7.2 6.4,19.4 4.1,21.1 4.3,21.2 6.6,19.8 16.8,19.8 17,19.5 6.8,19.3 					"/>
					<polygon class="st17" points="4.4,7.2 4.4,7.2 6.5,19.5 4.2,21.2 4.3,21.2 6.6,19.6 16.9,19.7 17.1,19.6 6.6,19.5 					"/>
					<polyline class="st17" points="4.4,7.3 4.2,7.3 6.5,19.5 					"/>
					
						<linearGradient id="SVGID_8_" gradientUnits="userSpaceOnUse" x1="325.4229" y1="1598.4893" x2="326.9744" y2="1602.6266" gradientTransform="matrix(0.5219 0.8531 -0.8531 0.5219 1210.7662 -1092.2637)">
						<stop  offset="0.5" style="stop-color:#363852"/>
						<stop  offset="1" style="stop-color:#6E5273"/>
					</linearGradient>
					<path class="st7" d="M17.1,19.6l-0.8,2.2c0,0-0.1,0.2,0.2,0.3l-2.1,1.1c0,0-0.2,0-0.3-0.6L14,21.4l0.3,0L17.1,19.6z"/>
					
						<linearGradient id="SVGID_9_" gradientUnits="userSpaceOnUse" x1="314.2119" y1="1604.9717" x2="314.0421" y2="1607.8092" gradientTransform="matrix(0.5219 0.8531 -0.8531 0.5219 1210.7662 -1092.2637)">
						<stop  offset="0.5" style="stop-color:#363852"/>
						<stop  offset="1" style="stop-color:#6E5273"/>
					</linearGradient>
					<polygon class="st33" points="4,8.1 3.3,8.6 3.5,9.2 5.4,19.6 6,19.2 					"/>
					
						<linearGradient id="SVGID_10_" gradientUnits="userSpaceOnUse" x1="-195.1099" y1="875.0557" x2="-232.7069" y2="891.2958" gradientTransform="matrix(0.8184 0.5746 -0.5746 0.8184 710.5657 -586.0018)">
						<stop  offset="0" style="stop-color:#E60F00"/>
						<stop  offset="0.9892" style="stop-color:#E33B1C"/>
					</linearGradient>
					<polygon class="st19" points="15.7,4.9 18.3,20.7 36,20.6 41.6,20.5 44.1,20.4 44.9,19.6 45.2,18.5 42.9,9.3 42.1,8.4 41,7.7 
						40.2,7.6 28.6,6.3 					"/>
					
						<linearGradient id="SVGID_11_" gradientUnits="userSpaceOnUse" x1="-227.0425" y1="883.3389" x2="-192.2728" y2="880.7202" gradientTransform="matrix(0.8184 0.5746 -0.5746 0.8184 710.5657 -586.0018)">
						<stop  offset="1.621620e-002" style="stop-color:#3883DA"/>
						<stop  offset="6.313195e-002" style="stop-color:#3789E0"/>
						<stop  offset="0.2721" style="stop-color:#33A2F7"/>
						<stop  offset="0.4" style="stop-color:#31ABFF"/>
						<stop  offset="1" style="stop-color:#73D9FF"/>
					</linearGradient>
					<polygon class="st20" points="17.8,6.5 20,19.3 42.1,19.3 39.6,8.6 					"/>
					<g>
						<path class="st14" d="M26.4,9.5l0.2,5c0,0.6,0,1,0,1.2c0,0.2-0.2,0.5-0.4,0.7c-0.2,0.2-0.5,0.4-0.9,0.5C25,17,24.5,17.1,24,17
							c-0.6,0-1-0.1-1.5-0.3c-0.4-0.2-0.8-0.4-1-0.6c-0.2-0.2-0.5-0.6-0.6-0.9c0-0.3-0.3-0.7-0.4-1.6l-0.2-4.4l2.8,0.2l0.2,5.6
							c0,0.3,0,0.5,0.1,0.6c0,0.1,0.1,0.1,0.3,0.2c0.2,0,0.2,0,0.3-0.1c0-0.1,0.1-0.3,0-0.7L24,9.4L26.4,9.5z"/>
						<path class="st14" d="M32.6,12.1L30.3,12l0-0.6c0-0.3,0-0.4-0.1-0.5c-0.1-0.1-0.2-0.1-0.3-0.1c-0.1,0-0.3,0-0.3,0.1
							c-0.1,0.1-0.1,0.2-0.1,0.4c0,0.2,0.1,0.4,0.1,0.6c0.1,0.1,0.3,0.3,0.7,0.5c1.1,0.6,1.8,1,2.1,1.4c0.3,0.3,0.4,0.9,0.5,1.6
							c0,0.5,0,0.9-0.2,1.2c-0.1,0.2-0.4,0.4-0.9,0.6c-0.4,0.1-0.9,0.2-1.5,0.2c-0.6,0-1.2-0.2-1.7-0.4c-0.5-0.2-0.8-0.5-0.9-0.8
							c-0.2-0.3-0.2-0.8-0.3-1.3l0-0.5l2.2,0.1l0,0.9c0,0.3,0,0.5,0.1,0.5c0.1,0.1,0.2,0.1,0.3,0.1c0.2,0,0.3,0,0.4-0.1
							c0.1-0.1,0.1-0.2,0.1-0.4c0-0.4-0.1-0.7-0.3-0.9c-0.2-0.1-0.5-0.4-1.2-0.7c-0.6-0.4-1-0.6-1.2-0.8c-0.2-0.2-0.4-0.4-0.5-0.6
							c-0.1-0.3-0.2-0.6-0.2-1c0-0.6,0.1-1,0.2-1.2c0.2-0.3,0.5-0.4,0.9-0.6c0.4-0.1,0.9-0.2,1.5-0.1c0.6,0,1.2,0.1,1.6,0.3
							c0.4,0.2,0.7,0.4,0.9,0.7c0.2,0.3,0.2,0.7,0.3,1.3L32.6,12.1z"/>
						<path class="st14" d="M33.4,9.9l2.4,0.1c0.8,0,1.3,0.1,1.7,0.2c0.4,0.1,0.7,0.3,1,0.6c0.2,0.3,0.4,0.8,0.4,1.4
							c0,0.4-0.1,0.7-0.2,0.9c-0.2,0.2-0.5,0.3-1,0.3c0.6,0.1,0.9,0.3,1.2,0.6c0.2,0.2,0.3,0.6,0.3,1.1l0,0.7c0,0.5,0,0.9-0.2,1.1
							c-0.1,0.2-0.4,0.4-0.7,0.5c-0.3,0.1-0.9,0.1-1.9,0l-2.8-0.1L33.4,9.9z M35.9,11.3l0.1,1.7c0.1,0,0.2,0,0.2,0
							c0.2,0,0.4,0,0.4-0.1c0.1-0.1,0.1-0.4,0.1-0.8c0-0.2,0-0.4-0.1-0.5c-0.1-0.1-0.1-0.2-0.2-0.2S36.1,11.3,35.9,11.3z M36,14.1
							l0.1,2.1c0.3,0,0.6,0,0.6-0.1c0.1-0.1,0.1-0.3,0.1-0.6l0-0.7c0-0.3-0.1-0.5-0.1-0.6C36.6,14.2,36.3,14.2,36,14.1z"/>
					</g>
					
						<linearGradient id="SVGID_12_" gradientUnits="userSpaceOnUse" x1="-205.0903" y1="874.8711" x2="-198.8594" y2="874.8711" gradientTransform="matrix(0.8184 0.5746 -0.5746 0.8184 710.5657 -586.0018)">
						<stop  offset="0" style="stop-color:#872B00"/>
						<stop  offset="0.9838" style="stop-color:#8C4200"/>
					</linearGradient>
					<path class="st21" d="M44,17c0.1,0.4-0.2,0.7-0.6,0.8l0,0c-0.4,0.1-0.7-0.2-0.8-0.6l-1.5-6.3c-0.1-0.4,0.2-0.7,0.6-0.8l0,0
						c0.4-0.1,0.7,0.2,0.8,0.6L44,17z"/>
					<polygon class="st5" points="15.2,5.3 15.6,4.9 16.3,4.9 18.6,20.3 44.5,20.1 44.1,20.4 43.3,20.9 18.4,21.1 14.5,23.3 
						14.3,23.1 14.2,22.8 17.9,20.5 					"/>
					<polygon class="st6" points="15.5,5.1 15.6,4.9 16,4.9 18.5,20.6 44.3,20.3 44.1,20.4 43.7,20.7 18.4,20.9 14.5,23.3 
						14.3,23.1 14.2,22.8 18.1,20.6 					"/>
				</g>
				<path class="st4" d="M39.8,7.6l-4.4-0.3l-7,13.2l-4.6,2.4l8.7-0.2l6.1-0.1l2.4-0.2l3-1.6c0,0,1.3-1,1.3-2.2l-2.3-9.1
					C42.9,9.3,41.5,7.7,39.8,7.6z"/>
			</g>
			<g>
				
					<linearGradient id="SVGID_13_" gradientUnits="userSpaceOnUse" x1="204.3008" y1="726.6152" x2="204.6043" y2="730.2563" gradientTransform="matrix(0.9173 0.3983 -0.3983 0.9173 117.9115 -702.4003)">
					<stop  offset="0" style="stop-color:#6E6E6E"/>
					<stop  offset="1" style="stop-color:#969696"/>
				</linearGradient>
				<polygon class="st22" points="6.9,44 17.2,54.5 24.1,49.4 11.8,39.7 				"/>
				
					<linearGradient id="SVGID_14_" gradientUnits="userSpaceOnUse" x1="234.1406" y1="698.2168" x2="222.4749" y2="705.5079" gradientTransform="matrix(0.9173 0.3983 -0.3983 0.9173 117.9115 -702.4003)">
					<stop  offset="0" style="stop-color:#872B00"/>
					<stop  offset="0.9838" style="stop-color:#8C4200"/>
				</linearGradient>
				<path class="st23" d="M46.6,17.9l-0.2-0.1l-8.8,8.1l-7.5,0.7l-12.7,3.6l-1.8,5.6l13.7,14.1l3.9-3l22.3-16.7l2.2-4.5
					c-1.1-0.8-4.9-4.8-4.9-5.6C49.4,16.9,47.1,21.9,46.6,17.9z"/>
				<linearGradient id="SVGID_15_" gradientUnits="userSpaceOnUse" x1="25.8628" y1="38.5957" x2="19.1856" y2="42.0271">
					<stop  offset="0" style="stop-color:#FF5C26"/>
					<stop  offset="0.9772" style="stop-color:#CD5C4A"/>
					<stop  offset="0.9892" style="stop-color:#CC5C4A"/>
				</linearGradient>
				<polygon class="st24" points="17.5,30 15.6,35.5 29.1,49.8 31.6,44.4 				"/>
				
					<linearGradient id="SVGID_16_" gradientUnits="userSpaceOnUse" x1="210.96" y1="728.4365" x2="216.7404" y2="725.569" gradientTransform="matrix(0.9173 0.3983 -0.3983 0.9173 117.9115 -702.4003)">
					<stop  offset="1.621620e-002" style="stop-color:#6E6E6E"/>
					<stop  offset="1" style="stop-color:#404040"/>
				</linearGradient>
				<polygon class="st25" points="28,48 17.4,55.2 18.7,51.6 29.5,44.2 				"/>
				<polygon class="st3" points="17.3,37.3 6.8,44.2 7.7,40.5 18.5,33.6 				"/>
				
					<linearGradient id="SVGID_17_" gradientUnits="userSpaceOnUse" x1="212.875" y1="716.0469" x2="201.8203" y2="726.4338" gradientTransform="matrix(0.9173 0.3983 -0.3983 0.9173 117.9115 -702.4003)">
					<stop  offset="0" style="stop-color:#ACACB4"/>
					<stop  offset="0.2063" style="stop-color:#B8B8BF"/>
					<stop  offset="0.6919" style="stop-color:#D1D1D4"/>
					<stop  offset="0.9892" style="stop-color:#DADADC"/>
				</linearGradient>
				<polygon class="st26" points="7.6,40.6 18.7,51.6 29.5,44.2 18.5,33.6 				"/>
				<linearGradient id="SVGID_18_" gradientUnits="userSpaceOnUse" x1="18.2007" y1="39.5371" x2="20.0093" y2="51.7798">
					<stop  offset="0" style="stop-color:#FFFFFF"/>
					<stop  offset="1" style="stop-color:#000000"/>
				</linearGradient>
				<polygon class="st2" points="10.8,43.8 27.1,45.8 18.7,51.6 				"/>
				<polygon class="st0" points="17.7,44.5 21,47.5 24.2,45.6 20.8,42.3 				"/>
				<polygon class="st18" points="17.8,44.7 21,47.7 24,45.7 20.8,42.6 				"/>
				<polygon class="st0" points="12.8,39.6 15.9,42.4 18.9,40.6 15.8,37.6 				"/>
				<polygon class="st18" points="12.9,39.7 15.9,42.6 18.7,40.7 15.7,37.8 				"/>
				<g>
					
						<linearGradient id="SVGID_19_" gradientUnits="userSpaceOnUse" x1="56.0547" y1="324.8398" x2="57.6416" y2="322.869" gradientTransform="matrix(0.9871 0.1603 -0.1603 0.9871 7.3923 -280.0915)">
						<stop  offset="5.405410e-003" style="stop-color:#A09DA7"/>
						<stop  offset="5.738580e-002" style="stop-color:#A5A3AC"/>
						<stop  offset="0.4686" style="stop-color:#CCCACD"/>
						<stop  offset="0.7952" style="stop-color:#E4E3E2"/>
						<stop  offset="0.9946" style="stop-color:#EDECEA"/>
					</linearGradient>
					<path class="st27" d="M18.6,51.6l-11-11l-1.2,3.6l11,10.9L18.6,51.6z M7.1,44l0.7-2.1l10,10l-0.7,2.1L7.1,44z"/>
				</g>
				<polygon class="st17" points="7.6,40.6 7.6,40.7 18.5,51.7 17.4,55.2 17.6,55.1 18.8,51.9 29.4,44.5 29.4,44.2 18.7,51.4 				
					"/>
				<polygon class="st17" points="7.6,40.6 7.6,40.7 18.3,51.7 17.3,55 17.6,55.1 18.9,52 29.3,44.7 29.4,44.1 18.7,51.3 				"/>
				<polygon class="st17" points="7.6,40.6 7.6,40.7 18.5,51.7 17.4,55.2 17.6,55.1 18.7,51.8 29.4,44.4 29.5,44.2 18.7,51.6 				
					"/>
				<polyline class="st17" points="7.6,40.7 7.5,40.9 18.5,51.7 				"/>
				
					<linearGradient id="SVGID_20_" gradientUnits="userSpaceOnUse" x1="216.1426" y1="720.1719" x2="218.0837" y2="725.3481" gradientTransform="matrix(0.9173 0.3983 -0.3983 0.9173 117.9115 -702.4003)">
					<stop  offset="0.5" style="stop-color:#363852"/>
					<stop  offset="1" style="stop-color:#6E5273"/>
				</linearGradient>
				<path class="st16" d="M29.5,44.2l0.8,2.9c0,0,0,0.3,0.4,0.2l-1.3,2.6c0,0-0.2,0.2-0.7-0.4l-1-1.1l0.3-0.2L29.5,44.2z"/>
				
					<linearGradient id="SVGID_21_" gradientUnits="userSpaceOnUse" x1="202.1201" y1="728.2793" x2="201.9077" y2="731.8296" gradientTransform="matrix(0.9173 0.3983 -0.3983 0.9173 117.9115 -702.4003)">
					<stop  offset="0.5" style="stop-color:#363852"/>
					<stop  offset="1" style="stop-color:#6E5273"/>
				</linearGradient>
				<polygon class="st32" points="7.8,41.8 7.5,42.8 8.1,43.4 17.5,52.6 17.9,51.8 				"/>
				<linearGradient id="SVGID_22_" gradientUnits="userSpaceOnUse" x1="60.0889" y1="20.3091" x2="13.0664" y2="40.6206">
					<stop  offset="0" style="stop-color:#E60F00"/>
					<stop  offset="0.9892" style="stop-color:#E33B1C"/>
				</linearGradient>
				<polygon class="st28" points="17.5,30.1 31.6,44.4 49.5,31.6 55.3,27.5 57.7,25.6 58,24.2 57.4,22.8 48.5,15.1 47,14.7 
					45.4,14.9 44.6,15.3 31.7,22.3 				"/>
				<linearGradient id="SVGID_23_" gradientUnits="userSpaceOnUse" x1="20.1514" y1="30.6685" x2="63.6356" y2="27.3935">
					<stop  offset="1.621620e-002" style="stop-color:#3883DA"/>
					<stop  offset="6.313195e-002" style="stop-color:#3789E0"/>
					<stop  offset="0.2721" style="stop-color:#33A2F7"/>
					<stop  offset="0.4" style="stop-color:#31ABFF"/>
					<stop  offset="1" style="stop-color:#73D9FF"/>
				</linearGradient>
				<polygon class="st29" points="20.8,30.2 32.2,41.8 54.9,25.9 44.6,16.8 				"/>
				<g>
					<path class="st14" d="M31.8,27.2l3.8,5c0.4,0.6,0.7,1,0.8,1.2c0.1,0.3,0.2,0.6,0.1,1c-0.1,0.4-0.2,0.8-0.5,1.1
						c-0.3,0.4-0.7,0.7-1.2,1.1c-0.6,0.4-1.2,0.6-1.7,0.8c-0.6,0.1-1,0.2-1.4,0.1c-0.4-0.1-1-0.3-1.2-0.5c-0.2-0.2-0.9-0.5-1.5-1.4
						l-3.3-4.4l3-1.9l4.2,5.6c0.2,0.3,0.4,0.5,0.5,0.6c0.1,0.1,0.2,0,0.4,0c0.2-0.1,0.2-0.2,0.2-0.3c0-0.1-0.2-0.4-0.5-0.8l-4.2-5.5
						L31.8,27.2z"/>
					<path class="st14" d="M39.9,25.4l-2.4,1.5l-0.4-0.6c-0.2-0.3-0.3-0.4-0.5-0.4c-0.1,0-0.2,0-0.4,0.1c-0.2,0.1-0.2,0.2-0.2,0.4
						c0,0.1,0.1,0.3,0.2,0.5c0.2,0.2,0.4,0.4,0.6,0.5c0.2,0.1,0.5,0.1,1.1,0c1.5-0.2,2.6-0.2,3.1-0.1c0.5,0.1,1.1,0.6,1.6,1.3
						c0.4,0.5,0.6,1,0.6,1.3c0,0.4-0.1,0.8-0.5,1.2c-0.3,0.5-0.8,0.9-1.4,1.3c-0.7,0.4-1.3,0.7-2,0.8c-0.6,0.1-1.1,0.1-1.5-0.2
						c-0.4-0.2-0.8-0.6-1.2-1.2l-0.4-0.5l2.4-1.5l0.7,0.9c0.2,0.3,0.4,0.4,0.5,0.5c0.1,0,0.3,0,0.4-0.1c0.2-0.1,0.3-0.2,0.3-0.4
						c0-0.2-0.1-0.3-0.2-0.5c-0.3-0.4-0.6-0.7-0.9-0.7c-0.3,0-0.8,0-1.7,0.1c-0.9,0.1-1.5,0.1-1.8,0.1c-0.3,0-0.6-0.1-1-0.3
						c-0.3-0.2-0.6-0.5-0.9-0.9c-0.4-0.6-0.7-1.1-0.7-1.4c0-0.4,0.1-0.8,0.5-1.2c0.3-0.4,0.8-0.8,1.4-1.2c0.7-0.4,1.3-0.7,1.9-0.8
						c0.6-0.1,1.1-0.1,1.4,0c0.3,0.2,0.7,0.5,1.2,1.1L39.9,25.4z"/>
					<path class="st14" d="M39.2,22.5l2.6-1.6c0.8-0.5,1.5-0.8,1.9-1c0.5-0.2,1-0.2,1.4-0.1c0.5,0.1,1,0.5,1.4,1.2
						c0.3,0.4,0.5,0.8,0.4,1.1c-0.1,0.3-0.3,0.6-0.8,1.1c0.7-0.3,1.2-0.4,1.6-0.2c0.4,0.1,0.8,0.4,1.1,0.9l0.5,0.7
						c0.4,0.5,0.6,0.9,0.6,1.3s-0.1,0.7-0.3,1c-0.3,0.3-0.9,0.8-1.9,1.4l-3,1.9L39.2,22.5z M42.8,22.2l1.3,1.7
						c0.1-0.1,0.2-0.1,0.3-0.2c0.3-0.2,0.4-0.3,0.4-0.4c0-0.1-0.2-0.4-0.5-0.9c-0.2-0.2-0.3-0.4-0.5-0.4c-0.1-0.1-0.2-0.1-0.4,0
						C43.2,21.9,43,22,42.8,22.2z M44.9,25l1.6,2.1c0.4-0.2,0.6-0.4,0.6-0.6c0-0.1-0.1-0.4-0.3-0.7l-0.5-0.7
						c-0.2-0.3-0.4-0.5-0.6-0.5C45.6,24.7,45.3,24.8,44.9,25z"/>
				</g>
				<radialGradient id="SVGID_24_" cx="50.6318" cy="20.939" r="4.1177" gradientUnits="userSpaceOnUse">
					<stop  offset="0" style="stop-color:#300F00"/>
					<stop  offset="0.9892" style="stop-color:#8F3D39"/>
				</radialGradient>
				<path class="st30" d="M55.2,22.1c0.3,0.3,0.3,0.9,0,1.2l0,0c-0.3,0.3-0.9,0.3-1.2,0L47.8,18c-0.3-0.3-0.3-0.9,0-1.2l0,0
					c0.3-0.3,0.9-0.2,1.2,0.2L55.2,22.1z"/>
				<polygon class="st5" points="17.3,30.9 17.5,30.2 18.2,29.7 31.6,43.8 57.9,25 57.7,25.6 57.3,26.6 31.9,44.8 29.5,49.8 
					29.1,49.8 28.9,49.5 31,44.6 				"/>
				<polygon class="st6" points="17.4,30.5 17.5,30.2 17.8,29.9 31.6,44.2 57.8,25.3 57.7,25.6 57.5,26.1 31.7,44.6 29.5,49.8 
					29.1,49.8 28.9,49.5 31.2,44.5 				"/>
			</g>
		</g>
		
			<radialGradient id="SVGID_25_" cx="62.127" cy="1981.0293" r="2.5859" gradientTransform="matrix(0.4663 -0.8846 -0.8846 -0.4663 1748.6179 1009.819)" gradientUnits="userSpaceOnUse">
			<stop  offset="0" style="stop-color:#FFFFFF"/>
			<stop  offset="1" style="stop-color:#000000"/>
		</radialGradient>
		<polygon class="st31" points="27.6,32.3 25.3,31.4 24.1,33.3 24.8,31.1 22.8,29.9 25,30.7 26.1,28.8 25.6,30.9 		"/>
	</g>
</g>
</svg>
