<?xml version="1.0" encoding="utf-8"?>
<!-- Generator: Adobe Illustrator 18.1.0, SVG Export Plug-In . SVG Version: 6.00 Build 0)  -->
<svg version="1.1" id="图层_1" xmlns="http://www.w3.org/2000/svg" xmlns:xlink="http://www.w3.org/1999/xlink" x="0px" y="0px"
	 viewBox="0 0 60 60" enable-background="new 0 0 60 60" xml:space="preserve">
<g>
	<linearGradient id="SVGID_1_" gradientUnits="userSpaceOnUse" x1="30" y1="44.2903" x2="30" y2="16.6939">
		<stop  offset="0" style="stop-color:#040000"/>
		<stop  offset="0.9939" style="stop-color:#040000;stop-opacity:0"/>
	</linearGradient>
	<path opacity="0.2" fill="url(#SVGID_1_)" d="M57.5,41.5c-0.1,0-0.1,0-0.1,0l-54.9,0c-0.8,0-1.8-0.4-2.3-1.2
		c-0.3-0.5-0.4-1.4,0.5-2.6c0.1-0.1,12.7-17.3,13.1-17.7c0.2-0.2,1.1-1.2,2.4-1.2h11.7c0.5-0.1,1.2-0.2,1.9-0.2
		c0.7,0,1.3,0.1,1.9,0.2h12.1c1.3,0,2.3,1,2.4,1.2c0.4,0.5,13.2,17.9,13.3,18.1c0.5,0.7,0.7,1.3,0.5,2c-0.2,0.8-0.8,1.2-1.2,1.3
		C58.2,41.5,57.7,41.5,57.5,41.5z"/>
	<linearGradient id="SVGID_2_" gradientUnits="userSpaceOnUse" x1="30.0003" y1="43.9902" x2="30.0003" y2="16.9733">
		<stop  offset="0" style="stop-color:#040000"/>
		<stop  offset="0.9939" style="stop-color:#040000;stop-opacity:0"/>
	</linearGradient>
	<path opacity="0.2" fill="url(#SVGID_2_)" d="M57.5,41.3C57.4,41.3,57.4,41.3,57.5,41.3h-55c-0.7,0-1.7-0.3-2.1-1.1
		c-0.2-0.5-0.3-1.3,0.5-2.4C1,37.6,13.6,20.5,14,20c0.2-0.2,1.1-1.1,2.2-1.1H28c0.5-0.1,1.1-0.2,1.8-0.2c0.7,0,1.3,0.1,1.8,0.2h12.1
		c1.2,0,2.1,1,2.2,1.1c0.4,0.5,13.2,17.9,13.3,18c0.4,0.6,0.6,1.2,0.5,1.8c-0.2,0.7-0.7,1-1,1.2C58.2,41.2,57.7,41.3,57.5,41.3z"/>
	<linearGradient id="SVGID_3_" gradientUnits="userSpaceOnUse" x1="30.0004" y1="43.6901" x2="30.0004" y2="17.2527">
		<stop  offset="0" style="stop-color:#040000"/>
		<stop  offset="0.9939" style="stop-color:#040000;stop-opacity:0"/>
	</linearGradient>
	<path opacity="0.2" fill="url(#SVGID_3_)" d="M57.5,41C57.4,41,57.4,41,57.5,41h-55c-0.7,0-1.5-0.3-1.8-1c-0.2-0.4-0.3-1.1,0.5-2.1
		c0.1-0.2,12.7-17.3,13.1-17.7c0.2-0.2,1-1,2.1-1H28c0.5-0.1,1.1-0.2,1.8-0.2c0.7,0,1.3,0.1,1.8,0.2h12.1c1.1,0,1.9,0.9,2,1
		c0.4,0.5,13.2,17.9,13.3,18c0.4,0.6,0.5,1.1,0.4,1.6c-0.1,0.6-0.6,0.9-0.9,1C58.1,41,57.6,41,57.5,41z"/>
	<linearGradient id="SVGID_4_" gradientUnits="userSpaceOnUse" x1="29.9994" y1="43.39" x2="29.9994" y2="17.5321">
		<stop  offset="0" style="stop-color:#040000"/>
		<stop  offset="0.9939" style="stop-color:#040000;stop-opacity:0"/>
	</linearGradient>
	<path opacity="0.2" fill="url(#SVGID_4_)" d="M45.6,20.3c-0.1-0.1-0.9-0.9-1.9-0.9H32.1h-0.6c-0.4-0.1-1.1-0.2-1.8-0.2
		c-0.7,0-1.3,0.1-1.8,0.2h-0.2H16.2c-1,0-1.8,0.8-1.9,0.9C14,20.8,1.4,37.8,1.3,38.1c-1.4,2,0.3,2.7,1.2,2.7c0,0,54.9,0,54.9,0
		s0,0,0.1,0c0.2,0,0.6,0,1-0.2c0.6-0.3,1.3-1,0.4-2.2C58.7,38.1,45.9,20.8,45.6,20.3z"/>
	<g>
		<linearGradient id="SVGID_5_" gradientUnits="userSpaceOnUse" x1="29.9702" y1="20.3101" x2="29.9702" y2="18.8003">
			<stop  offset="0" style="stop-color:#416483"/>
			<stop  offset="0.5455" style="stop-color:#5A7894"/>
			<stop  offset="1" style="stop-color:#7590A8"/>
		</linearGradient>
		<polygon fill="url(#SVGID_5_)" points="32.2,20.3 27.7,20.3 27.8,19.4 32.1,19.4 		"/>
		<linearGradient id="SVGID_6_" gradientUnits="userSpaceOnUse" x1="29.987" y1="19.6737" x2="29.987" y2="21.8975">
			<stop  offset="0" style="stop-color:#30ADE4"/>
			<stop  offset="1" style="stop-color:#2066B0"/>
		</linearGradient>
		<polygon fill="url(#SVGID_6_)" points="27.8,20.1 27.9,19.7 32,19.7 32.1,20.1 		"/>
		<linearGradient id="SVGID_7_" gradientUnits="userSpaceOnUse" x1="29.9829" y1="19.7563" x2="29.9829" y2="20.3448">
			<stop  offset="0" style="stop-color:#A9DAE2"/>
			<stop  offset="1" style="stop-color:#459FD5"/>
		</linearGradient>
		<polygon fill="url(#SVGID_7_)" points="28,19.9 28,19.8 31.9,19.8 32,19.9 		"/>
		<path opacity="0.46" fill="#1B84C8" d="M57.5,40.3C57.4,40.3,57.4,40.3,57.5,40.3c-0.1,0-55,0-55,0c-0.9,0-1.9-0.5-1.9-1.7
			c0-0.3,0-0.5,0-0.8c0-1.4-0.1-2.6,1.2-4.5c2-3.1,9.9-12.6,10.2-13c0.1-0.1,0.9-0.9,1.9-0.9h14l-0.1,0.8h4.5l-0.1-0.8h14
			c1,0,1.8,0.8,1.9,0.9c0.3,0.4,8.2,9.9,10.2,13c1.2,1.9,1.2,3.1,1.2,4.5c0,0.2,0,0.5,0,0.8c0,0.7-0.3,1.2-0.9,1.5
			C58.1,40.3,57.6,40.3,57.5,40.3L57.5,40.3z"/>
		<path fill="#3E809C" d="M59.4,37.8c0,0.2,0,0.5,0,0.8c0,0.7-0.3,1.2-0.9,1.5c-0.4,0.2-0.8,0.2-1,0.2c0,0-0.1,0-0.1,0
			s-54.9,0-54.9,0c-0.9,0-1.9-0.5-1.9-1.7c0-0.3,0-0.5,0-0.8c0-0.2,0-0.3,0-0.5c0,0.3,0,0.6,0,1c0,0.2,0,0.5,0,0.8
			c0,1.2,0.9,1.7,1.9,1.7c0,0,54.9,0,54.9,0s0,0,0.1,0c0.2,0,0.6,0,1-0.2c0.6-0.3,0.9-0.8,0.9-1.5c0-0.3,0-0.5,0-0.8
			c0-0.3,0-0.6,0-1C59.4,37.5,59.4,37.7,59.4,37.8z"/>
		<linearGradient id="SVGID_8_" gradientUnits="userSpaceOnUse" x1="29.97" y1="42.9613" x2="29.97" y2="29.6862">
			<stop  offset="0" style="stop-color:#FFFFFF"/>
			<stop  offset="1" style="stop-color:#71C6D5;stop-opacity:0"/>
		</linearGradient>
		<path fill="url(#SVGID_8_)" d="M59.4,37.4c0,0.2,0,0.5,0,0.8c0,0.7-0.3,1.2-0.9,1.5c-0.4,0.2-0.8,0.2-1,0.2c0,0-0.1,0-0.1,0
			s-54.9,0-54.9,0c-0.9,0-1.9-0.5-1.9-1.7c0-0.3,0-0.5,0-0.8c0-0.2,0-0.3,0-0.5c0,0.3,0,0.6,0,1c0,0.2,0,0.5,0,0.8
			c0,1.2,0.9,1.7,1.9,1.7c0,0,54.9,0,54.9,0s0,0,0.1,0c0.2,0,0.6,0,1-0.2c0.6-0.3,0.9-0.8,0.9-1.5c0-0.3,0-0.5,0-0.8
			c0-0.3,0-0.6,0-1C59.4,37,59.4,37.2,59.4,37.4z"/>
		<linearGradient id="SVGID_9_" gradientUnits="userSpaceOnUse" x1="29.97" y1="39.3369" x2="29.97" y2="19.8766">
			<stop  offset="0" style="stop-color:#416483"/>
			<stop  offset="0.1333" style="stop-color:#AAB9C7"/>
			<stop  offset="0.2121" style="stop-color:#E5E8EB"/>
			<stop  offset="0.2764" style="stop-color:#D2D9E0"/>
			<stop  offset="0.4121" style="stop-color:#B1BFCC"/>
			<stop  offset="0.5513" style="stop-color:#97AABC"/>
			<stop  offset="0.6935" style="stop-color:#849CB1"/>
			<stop  offset="0.8405" style="stop-color:#7993AA"/>
			<stop  offset="1" style="stop-color:#7590A8"/>
		</linearGradient>
		<path fill="url(#SVGID_9_)" d="M57.8,33.4c-2.1-3.1-10.2-13-10.2-13s-0.7-0.8-1.5-0.8H32.7l0.1,0.8h-5.7l0.1-0.8H13.8
			c-0.8,0-1.5,0.8-1.5,0.8s-8.1,9.9-10.2,13c-1.4,2.1-1.1,3.3-1.1,5c0,1.3,1.4,1.2,1.4,1.2h54.9c0,0,1.4,0.1,1.4-1.2
			C58.9,36.7,59.2,35.4,57.8,33.4z"/>
		<linearGradient id="SVGID_10_" gradientUnits="userSpaceOnUse" x1="29.9477" y1="18.4364" x2="29.9477" y2="26.4835">
			<stop  offset="0" style="stop-color:#FFFFFF"/>
			<stop  offset="1" style="stop-color:#FFFFFF;stop-opacity:0"/>
		</linearGradient>
		<path fill="url(#SVGID_10_)" d="M48.8,21.9c-0.7-0.9-1.2-1.4-1.2-1.4s-0.7-0.8-1.5-0.8H32.7l0.1,0.8h-5.7l0.1-0.8H13.8
			c-0.8,0-1.5,0.8-1.5,0.8s-0.5,0.6-1.2,1.5c-0.4,0.5,17.1-0.7,25.8-0.7C44.9,21.3,49.1,22.2,48.8,21.9z"/>
		<linearGradient id="SVGID_11_" gradientUnits="userSpaceOnUse" x1="29.6061" y1="32.6377" x2="29.6061" y2="24.5903">
			<stop  offset="0" style="stop-color:#3071B7"/>
			<stop  offset="0.9939" style="stop-color:#1D2C67"/>
		</linearGradient>
		<polygon fill="url(#SVGID_11_)" points="9.6,32.6 49.6,32.6 42.7,22.7 16.5,22.7 		"/>
		<linearGradient id="SVGID_12_" gradientUnits="userSpaceOnUse" x1="37.9984" y1="19.1067" x2="37.9984" y2="32.6813">
			<stop  offset="0" style="stop-color:#A9DAE2"/>
			<stop  offset="1" style="stop-color:#30A0D2;stop-opacity:0"/>
		</linearGradient>
		<polygon fill="url(#SVGID_12_)" points="41,32.1 48.6,32.1 42.5,23.1 27.4,23.1 		"/>
		<linearGradient id="SVGID_13_" gradientUnits="userSpaceOnUse" x1="18.2034" y1="19.1067" x2="18.2034" y2="32.6813">
			<stop  offset="0" style="stop-color:#A9DAE2"/>
			<stop  offset="1" style="stop-color:#30A0D2;stop-opacity:0"/>
		</linearGradient>
		<polygon fill="url(#SVGID_13_)" points="18.2,23.1 16.8,23.1 10.6,32.1 25.8,32.1 		"/>
		<g>
			<linearGradient id="SVGID_14_" gradientUnits="userSpaceOnUse" x1="29.6061" y1="32.7585" x2="29.6061" y2="22.9056">
				<stop  offset="0" style="stop-color:#416483"/>
				<stop  offset="1" style="stop-color:#CFD6DF"/>
			</linearGradient>
			<path fill="url(#SVGID_14_)" d="M49.8,32.7H9.4l7-10.1h26.3L49.8,32.7z M9.9,32.5h39.5l-6.7-9.7H16.6L9.9,32.5z"/>
		</g>
		<linearGradient id="SVGID_15_" gradientUnits="userSpaceOnUse" x1="29.97" y1="37.1481" x2="29.97" y2="28.2705">
			<stop  offset="0" style="stop-color:#FFFFFF"/>
			<stop  offset="1" style="stop-color:#FFFFFF;stop-opacity:0"/>
		</linearGradient>
		<path fill="url(#SVGID_15_)" d="M4,31c-0.7,1-1.3,1.8-1.7,2.4c-0.7,1.1-1,1.9-1.1,2.7h57.6c0-0.4-0.1-0.7-0.3-1.1
			c-0.2-0.5-15.7,0.6-33.8-0.1C6.3,34.1,4.3,30.5,4,31z"/>
		<g>
			<linearGradient id="SVGID_16_" gradientUnits="userSpaceOnUse" x1="24.4756" y1="21.3469" x2="24.4756" y2="19.2153">
				<stop  offset="0" style="stop-color:#416483"/>
				<stop  offset="0.5455" style="stop-color:#5A7894"/>
				<stop  offset="1" style="stop-color:#7590A8"/>
			</linearGradient>
			<polygon fill="url(#SVGID_16_)" points="26.6,21.1 22.2,21.1 22.6,19.9 26.8,19.9 			"/>
			<linearGradient id="SVGID_17_" gradientUnits="userSpaceOnUse" x1="24.5103" y1="20.7554" x2="24.5103" y2="19.4017">
				<stop  offset="0" style="stop-color:#E5E8EB"/>
				<stop  offset="8.156449e-002" style="stop-color:#D2D9E0"/>
				<stop  offset="0.2539" style="stop-color:#B1BFCC"/>
				<stop  offset="0.4305" style="stop-color:#97AABC"/>
				<stop  offset="0.6109" style="stop-color:#849CB1"/>
				<stop  offset="0.7976" style="stop-color:#7993AA"/>
				<stop  offset="1" style="stop-color:#7590A8"/>
			</linearGradient>
			<polygon fill="url(#SVGID_17_)" points="22.5,20.7 22.8,20 26.5,20 26.4,20.7 			"/>
			<polygon fill="#7590A8" points="26.4,21 26.5,20.3 26.5,20 26.4,20.7 			"/>
			<linearGradient id="SVGID_18_" gradientUnits="userSpaceOnUse" x1="24.4615" y1="20.6693" x2="24.4615" y2="21.1027">
				<stop  offset="0" style="stop-color:#A0B3C3"/>
				<stop  offset="1" style="stop-color:#7590A8"/>
			</linearGradient>
			<polygon fill="url(#SVGID_18_)" points="22.5,20.7 22.5,21 26.4,21 26.4,20.7 			"/>
		</g>
		<g>
			
				<linearGradient id="SVGID_19_" gradientUnits="userSpaceOnUse" x1="71.8222" y1="21.3469" x2="71.8222" y2="19.2153" gradientTransform="matrix(-1 0 0 1 107.2617 0)">
				<stop  offset="0" style="stop-color:#416483"/>
				<stop  offset="0.5455" style="stop-color:#5A7894"/>
				<stop  offset="1" style="stop-color:#7590A8"/>
			</linearGradient>
			<polygon fill="url(#SVGID_19_)" points="33.3,21.1 37.8,21.1 37.3,19.9 33.1,19.9 			"/>
			
				<linearGradient id="SVGID_20_" gradientUnits="userSpaceOnUse" x1="71.8568" y1="20.7554" x2="71.8568" y2="19.4017" gradientTransform="matrix(-1 0 0 1 107.2617 0)">
				<stop  offset="0" style="stop-color:#E5E8EB"/>
				<stop  offset="8.156449e-002" style="stop-color:#D2D9E0"/>
				<stop  offset="0.2539" style="stop-color:#B1BFCC"/>
				<stop  offset="0.4305" style="stop-color:#97AABC"/>
				<stop  offset="0.6109" style="stop-color:#849CB1"/>
				<stop  offset="0.7976" style="stop-color:#7993AA"/>
				<stop  offset="1" style="stop-color:#7590A8"/>
			</linearGradient>
			<polygon fill="url(#SVGID_20_)" points="37.4,20.7 37.1,20 33.4,20 33.5,20.7 			"/>
			<polygon fill="#7590A8" points="33.5,21 33.4,20.3 33.4,20 33.5,20.7 			"/>
			
				<linearGradient id="SVGID_21_" gradientUnits="userSpaceOnUse" x1="71.8082" y1="20.6693" x2="71.8082" y2="21.1027" gradientTransform="matrix(-1 0 0 1 107.2617 0)">
				<stop  offset="0" style="stop-color:#A0B3C3"/>
				<stop  offset="1" style="stop-color:#7590A8"/>
			</linearGradient>
			<polygon fill="url(#SVGID_21_)" points="37.4,20.7 37.4,21 33.5,21 33.5,20.7 			"/>
		</g>
		
			<radialGradient id="SVGID_22_" cx="30.8941" cy="-4.3006" r="1.2995" gradientTransform="matrix(1.879 0 0 0.498 -28.2515 22.0076)" gradientUnits="userSpaceOnUse">
			<stop  offset="0" style="stop-color:#A9DAE2"/>
			<stop  offset="1" style="stop-color:#30A0D2;stop-opacity:0"/>
		</radialGradient>
		<ellipse fill="url(#SVGID_22_)" cx="29.8" cy="19.9" rx="2.4" ry="0.6"/>
	</g>
</g>
</svg>
