<?xml version="1.0" encoding="utf-8"?>
<!-- Generator: Adobe Illustrator 18.1.0, SVG Export Plug-In . SVG Version: 6.00 Build 0)  -->
<svg version="1.1" id="图层_1" xmlns="http://www.w3.org/2000/svg" xmlns:xlink="http://www.w3.org/1999/xlink" x="0px" y="0px"
	 width="40px" height="40px" viewBox="0 0 40 40" style="enable-background:new 0 0 40 40;" xml:space="preserve">
<style type="text/css">
	.st0{fill:url(#SVGID_1_);}
	.st1{fill:url(#SVGID_2_);}
	.st2{fill:url(#SVGID_3_);}
	.st3{fill:url(#SVGID_4_);}
	.st4{fill:url(#SVGID_5_);}
	.st5{fill:url(#SVGID_6_);}
	.st6{fill:url(#SVGID_7_);}
	.st7{fill:url(#SVGID_8_);}
</style>
<g>
	
		<linearGradient id="SVGID_1_" gradientUnits="userSpaceOnUse" x1="0" y1="10" x2="60" y2="10" gradientTransform="matrix(0.6667 0 0 -0.6667 0 26.6667)">
		<stop  offset="0" style="stop-color:#B9BBBD"/>
		<stop  offset="3.208770e-002" style="stop-color:#B6B8BA"/>
		<stop  offset="5.619587e-002" style="stop-color:#ADAEB1"/>
		<stop  offset="8.827712e-002" style="stop-color:#9D9EA1"/>
		<stop  offset="0.1241" style="stop-color:#C1C1C2"/>
		<stop  offset="0.1924" style="stop-color:#F0F0F0"/>
		<stop  offset="0.2083" style="stop-color:#FBFBFB"/>
		<stop  offset="0.2247" style="stop-color:#FFFFFF"/>
		<stop  offset="0.3015" style="stop-color:#EEEEEF"/>
		<stop  offset="0.3853" style="stop-color:#E3E3E4"/>
		<stop  offset="0.4775" style="stop-color:#DFE0E1"/>
		<stop  offset="0.7191" style="stop-color:#FFFFFF"/>
		<stop  offset="0.779" style="stop-color:#FDFDFD"/>
		<stop  offset="0.8065" style="stop-color:#F6F5F5"/>
		<stop  offset="0.8258" style="stop-color:#EBEAEA"/>
		<stop  offset="0.927" style="stop-color:#797A7D"/>
		<stop  offset="1" style="stop-color:#BEC0C1"/>
	</linearGradient>
	<path class="st0" d="M33.7,40H6.3C2.8,40,0,37.2,0,33.7V6.3C0,2.8,2.8,0,6.3,0h27.5C37.2,0,40,2.8,40,6.3v27.5
		C40,37.2,37.2,40,33.7,40z"/>
	<g>
		
			<linearGradient id="SVGID_2_" gradientUnits="userSpaceOnUse" x1="3.1446" y1="10.5112" x2="16.5964" y2="10.5112" gradientTransform="matrix(0.6667 0 0 -0.6667 0 26.6667)">
			<stop  offset="0" style="stop-color:#050505"/>
			<stop  offset="1" style="stop-color:#1E1E21"/>
		</linearGradient>
		<path class="st1" d="M10.5,16H8.1c-0.8,0-1.2,0.6-1.2,0.6l-4.9,6.7h2l1.5-2h2.9l-0.5,2h1.7c0,0,1.2-5.4,1.4-6.5S10.5,16,10.5,16z
			 M8.7,20H6.3l2.1-2.7h1.1L8.7,20z"/>
		
			<linearGradient id="SVGID_3_" gradientUnits="userSpaceOnUse" x1="14.9637" y1="7.8297" x2="25.3233" y2="7.8297" gradientTransform="matrix(0.6667 0 0 -0.6667 0 26.6667)">
			<stop  offset="0" style="stop-color:#050505"/>
			<stop  offset="1" style="stop-color:#1E1E21"/>
		</linearGradient>
		<path class="st2" d="M16.1,18h-3.5c-1.3,0-1.5,1.1-1.5,1.1L10,24.9c1.6,0,1.6-0.8,1.6-0.8l0.2-0.8c0,0,2.2,0,3.3,0
			s1.3-1.3,1.3-1.3s0.3-1.8,0.6-3.1S16.1,18,16.1,18z M14.7,22.7h-2.7l0.9-4h2.7L14.7,22.7z"/>
		
			<linearGradient id="SVGID_4_" gradientUnits="userSpaceOnUse" x1="25.4033" y1="9.5093" x2="34.9907" y2="9.5093" gradientTransform="matrix(0.6667 0 0 -0.6667 0 26.6667)">
			<stop  offset="0" style="stop-color:#050505"/>
			<stop  offset="1" style="stop-color:#1E1E21"/>
		</linearGradient>
		<path class="st3" d="M21.5,19.1l-0.5,3.5h-2.7c0,0,0.3-1.7,0.7-3.7c0.4-1.9-1.3-1.7-1.3-1.7s-0.3,2.4-0.7,4.2
			c-0.4,1.7,0.5,1.8,0.5,1.8s1.8,0,3.4,0c1.3,0,1.5-1.3,1.5-1.3l0.9-4.5C21.9,17.5,21.5,19.1,21.5,19.1z"/>
		
			<linearGradient id="SVGID_5_" gradientUnits="userSpaceOnUse" x1="33.9" y1="9" x2="44.5677" y2="9" gradientTransform="matrix(0.6667 0 0 -0.6667 0 26.6667)">
			<stop  offset="0" style="stop-color:#050505"/>
			<stop  offset="1" style="stop-color:#1E1E21"/>
		</linearGradient>
		<path class="st4" d="M25.1,20c-0.3-0.7,0.1-1.3,0.1-1.3s2.5,0,3.2,0c0.7,0,1.2-0.7,1.2-0.7h-5c-1.6,0.7-1.1,3.3-1.1,3.3h3.7
			c0.1,0.7-0.3,1.3-0.3,1.3s-2.9,0-3.4,0c-0.5,0-1,0.7-1,0.7h5.5c0.7,0,0.9-3.3,0.9-3.3H25.1z"/>
		
			<linearGradient id="SVGID_6_" gradientUnits="userSpaceOnUse" x1="43.5406" y1="9.05" x2="47.3841" y2="9.05" gradientTransform="matrix(0.6667 0 0 -0.6667 0 26.6667)">
			<stop  offset="0" style="stop-color:#050505"/>
			<stop  offset="1" style="stop-color:#1E1E21"/>
		</linearGradient>
		<path class="st5" d="M30.1,18l-1.1,5.3c1.6,0,1.8-1,1.8-1l0.7-4.3C31.6,18,30.1,18,30.1,18z"/>
		
			<linearGradient id="SVGID_7_" gradientUnits="userSpaceOnUse" x1="45.2858" y1="15" x2="48.2273" y2="15" gradientTransform="matrix(0.6667 0 0 -0.6667 0 26.6667)">
			<stop  offset="0" style="stop-color:#050505"/>
			<stop  offset="1" style="stop-color:#1E1E21"/>
		</linearGradient>
		<polygon class="st6" points="32.1,16 30.5,16 30.2,17.3 31.8,17.3 		"/>
		
			<linearGradient id="SVGID_8_" gradientUnits="userSpaceOnUse" x1="47.0695" y1="9.4" x2="56.8556" y2="9.4" gradientTransform="matrix(0.6667 0 0 -0.6667 0 26.6667)">
			<stop  offset="0" style="stop-color:#050505"/>
			<stop  offset="1" style="stop-color:#1E1E21"/>
		</linearGradient>
		<path class="st7" d="M32.7,17.5c-1.3,2.7-1.3,5.9-1.3,5.9h5.5l-0.7-0.7h-3.1c-0.3-0.7,0.5-4,0.5-4s2.9,0,3.5,0s0.7-1.2,0.7-1.2
			H32.7z"/>
	</g>
</g>
</svg>
