<?xml version="1.0" encoding="utf-8"?>
<!-- Generator: Adobe Illustrator 18.1.0, SVG Export Plug-In . SVG Version: 6.00 Build 0)  -->
<svg version="1.1" id="图层_1" xmlns="http://www.w3.org/2000/svg" xmlns:xlink="http://www.w3.org/1999/xlink" x="0px" y="0px"
	 width="16px" height="16px" viewBox="0 0 16 16" style="enable-background:new 0 0 16 16;" xml:space="preserve">
<style type="text/css">
	.st0{fill:url(#SVGID_1_);}
	.st1{fill:url(#SVGID_2_);}
	.st2{fill:url(#SVGID_3_);}
	.st3{fill:url(#SVGID_4_);}
	.st4{fill:url(#SVGID_5_);}
	.st5{fill:url(#SVGID_6_);}
</style>
<g>
	
		<linearGradient id="SVGID_1_" gradientUnits="userSpaceOnUse" x1="0" y1="-14" x2="60" y2="-14" gradientTransform="matrix(0.2667 0 0 -0.2667 0 4.2667)">
		<stop  offset="0" style="stop-color:#B9BBBD"/>
		<stop  offset="3.208770e-002" style="stop-color:#B6B8BA"/>
		<stop  offset="5.619587e-002" style="stop-color:#ADAEB1"/>
		<stop  offset="8.827712e-002" style="stop-color:#9D9EA1"/>
		<stop  offset="0.1241" style="stop-color:#C1C1C2"/>
		<stop  offset="0.1924" style="stop-color:#F0F0F0"/>
		<stop  offset="0.2083" style="stop-color:#FBFBFB"/>
		<stop  offset="0.2247" style="stop-color:#FFFFFF"/>
		<stop  offset="0.3015" style="stop-color:#EEEEEF"/>
		<stop  offset="0.3853" style="stop-color:#E3E3E4"/>
		<stop  offset="0.4775" style="stop-color:#DFE0E1"/>
		<stop  offset="0.7191" style="stop-color:#FFFFFF"/>
		<stop  offset="0.779" style="stop-color:#FDFDFD"/>
		<stop  offset="0.8065" style="stop-color:#F6F5F5"/>
		<stop  offset="0.8258" style="stop-color:#EBEAEA"/>
		<stop  offset="0.927" style="stop-color:#797A7D"/>
		<stop  offset="1" style="stop-color:#BEC0C1"/>
	</linearGradient>
	<path class="st0" d="M13.5,16h-11C1.1,16,0,14.9,0,13.5v-11C0,1.1,1.1,0,2.5,0h11C14.9,0,16,1.1,16,2.5v11C16,14.9,14.9,16,13.5,16
		z"/>
	<g>
		
			<linearGradient id="SVGID_2_" gradientUnits="userSpaceOnUse" x1="5" y1="-14" x2="14.7039" y2="-14" gradientTransform="matrix(0.2667 0 0 -0.2667 0 4.2667)">
			<stop  offset="0" style="stop-color:#050505"/>
			<stop  offset="1" style="stop-color:#1E1E21"/>
		</linearGradient>
		<path class="st1" d="M2.3,6.3h0.3h0.3l1,3.3H3.6H3.3L3.1,9h-1L1.9,9.7H1.6H1.3L2.3,6.3z M2.3,8.4H3L2.6,7.1l0,0L2.3,8.4z"/>
		
			<linearGradient id="SVGID_3_" gradientUnits="userSpaceOnUse" x1="16.0491" y1="-14.05" x2="24.5855" y2="-14.05" gradientTransform="matrix(0.2667 0 0 -0.2667 0 4.2667)">
			<stop  offset="0" style="stop-color:#050505"/>
			<stop  offset="1" style="stop-color:#1E1E21"/>
		</linearGradient>
		<path class="st2" d="M4.3,6.3h0.3h1c0.3,0,0.5,0.1,0.7,0.2C6.4,6.7,6.5,7,6.5,7.3S6.4,7.8,6.3,8C6.2,8,6.2,8.1,6.1,8.1
			c0,0,0.1,0,0.1,0.1c0.2,0.1,0.3,0.3,0.3,0.7v0.4c0,0.1,0,0.2,0,0.3c0,0.1,0.1,0.1,0.1,0.1v0.1H5.9c0-0.1,0-0.2-0.1-0.3
			c0-0.1,0-0.2,0-0.3V8.9c0-0.2,0-0.3-0.1-0.4C5.7,8.4,5.6,8.4,5.5,8.4H4.8v1.3H4.5H4.3V6.3z M4.9,7.8h0.6c0.2,0,0.3,0,0.3-0.1
			c0.1-0.1,0.1-0.2,0.1-0.3c0-0.2,0-0.3-0.1-0.3C5.8,6.9,5.7,6.9,5.5,6.9H4.8L4.9,7.8L4.9,7.8z"/>
		
			<linearGradient id="SVGID_4_" gradientUnits="userSpaceOnUse" x1="26.3029" y1="-14.05" x2="34.8393" y2="-14.05" gradientTransform="matrix(0.2667 0 0 -0.2667 0 4.2667)">
			<stop  offset="0" style="stop-color:#050505"/>
			<stop  offset="1" style="stop-color:#1E1E21"/>
		</linearGradient>
		<path class="st3" d="M7,6.3h0.3h1c0.3,0,0.5,0.1,0.7,0.2C9.2,6.7,9.3,7,9.3,7.3S9.2,7.8,9,8C9,8,8.9,8.1,8.9,8.1
			c0,0,0.1,0,0.1,0.1c0.2,0.1,0.3,0.3,0.3,0.7v0.4c0,0.1,0,0.2,0,0.3c0,0.1,0.1,0.1,0.1,0.1v0.1H8.7c0-0.1,0-0.2-0.1-0.3
			c0-0.1,0-0.2,0-0.3V8.9c0-0.2,0-0.3-0.1-0.4S8.4,8.4,8.2,8.4H7.6v1.3H7.3H7L7,6.3L7,6.3z M7.6,7.8h0.6c0.2,0,0.3,0,0.3-0.1
			c0.1-0.1,0.1-0.2,0.1-0.3c0-0.2,0-0.3-0.1-0.3C8.5,6.9,8.4,6.9,8.2,6.9H7.5L7.6,7.8L7.6,7.8z"/>
		
			<linearGradient id="SVGID_5_" gradientUnits="userSpaceOnUse" x1="35.7614" y1="-14" x2="45.4653" y2="-14" gradientTransform="matrix(0.2667 0 0 -0.2667 0 4.2667)">
			<stop  offset="0" style="stop-color:#050505"/>
			<stop  offset="1" style="stop-color:#1E1E21"/>
		</linearGradient>
		<path class="st4" d="M10.5,6.3h0.3h0.3l1,3.3h-0.3h-0.3L11.3,9h-1l-0.2,0.7H9.8H9.5L10.5,6.3z M10.5,8.4h0.7l-0.3-1.3l0,0
			L10.5,8.4z"/>
		
			<linearGradient id="SVGID_6_" gradientUnits="userSpaceOnUse" x1="45.9475" y1="-14.05" x2="55" y2="-14.05" gradientTransform="matrix(0.2667 0 0 -0.2667 0 4.2667)">
			<stop  offset="0" style="stop-color:#050505"/>
			<stop  offset="1" style="stop-color:#1E1E21"/>
		</linearGradient>
		<path class="st5" d="M13.2,8.4l-1-2.1h0.3h0.3l0.6,1.5l0,0L14,6.3h0.3h0.3l-0.9,2.1v1.3h-0.3h-0.3L13.2,8.4L13.2,8.4z"/>
	</g>
</g>
</svg>
