<?xml version="1.0" encoding="utf-8"?>
<!-- Generator: Adobe Illustrator 18.1.0, SVG Export Plug-In . SVG Version: 6.00 Build 0)  -->
<svg version="1.1" id="图层_1" xmlns="http://www.w3.org/2000/svg" xmlns:xlink="http://www.w3.org/1999/xlink" x="0px" y="0px"
	 width="16px" height="16px" viewBox="0 0 16 16" style="enable-background:new 0 0 16 16;" xml:space="preserve">
<style type="text/css">
	.st0{fill:url(#SVGID_1_);}
	.st1{fill:url(#SVGID_2_);}
	.st2{fill:url(#SVGID_3_);}
	.st3{fill:url(#SVGID_4_);}
	.st4{fill:url(#SVGID_5_);}
	.st5{fill:url(#SVGID_6_);}
	.st6{fill:url(#SVGID_7_);}
	.st7{fill:url(#SVGID_8_);}
	.st8{fill:url(#SVGID_9_);}
	.st9{fill:url(#SVGID_10_);}
</style>
<g>
	
		<linearGradient id="SVGID_1_" gradientUnits="userSpaceOnUse" x1="0" y1="-14" x2="60" y2="-14" gradientTransform="matrix(0.2667 0 0 -0.2667 0 4.2667)">
		<stop  offset="0" style="stop-color:#B9BBBD"/>
		<stop  offset="3.208770e-002" style="stop-color:#B6B8BA"/>
		<stop  offset="5.619587e-002" style="stop-color:#ADAEB1"/>
		<stop  offset="8.827712e-002" style="stop-color:#9D9EA1"/>
		<stop  offset="0.1241" style="stop-color:#C1C1C2"/>
		<stop  offset="0.1924" style="stop-color:#F0F0F0"/>
		<stop  offset="0.2083" style="stop-color:#FBFBFB"/>
		<stop  offset="0.2247" style="stop-color:#FFFFFF"/>
		<stop  offset="0.3015" style="stop-color:#EEEEEF"/>
		<stop  offset="0.3853" style="stop-color:#E3E3E4"/>
		<stop  offset="0.4775" style="stop-color:#DFE0E1"/>
		<stop  offset="0.7191" style="stop-color:#FFFFFF"/>
		<stop  offset="0.779" style="stop-color:#FDFDFD"/>
		<stop  offset="0.8065" style="stop-color:#F6F5F5"/>
		<stop  offset="0.8258" style="stop-color:#EBEAEA"/>
		<stop  offset="0.927" style="stop-color:#797A7D"/>
		<stop  offset="1" style="stop-color:#BEC0C1"/>
	</linearGradient>
	<path class="st0" d="M13.5,16h-11C1.1,16,0,14.9,0,13.5v-11C0,1.1,1.1,0,2.5,0h11C14.9,0,16,1.1,16,2.5v11C16,14.9,14.9,16,13.5,16
		z"/>
	<g>
		<g>
			
				<linearGradient id="SVGID_2_" gradientUnits="userSpaceOnUse" x1="5" y1="-23.1778" x2="10.7961" y2="-23.1778" gradientTransform="matrix(0.2667 0 0 -0.2667 0 4.2667)">
				<stop  offset="0" style="stop-color:#050505"/>
				<stop  offset="1" style="stop-color:#1E1E21"/>
			</linearGradient>
			<path class="st1" d="M1.3,11.5c0-0.7,0-1.4,0-2.1c0.3,0,0.7,0,1,0c0.2,0,0.3,0.2,0.4,0.4c0.1,0.2,0,0.4-0.3,0.6
				c0.3,0.2,0.4,0.4,0.3,0.7c-0.1,0.3-0.3,0.4-0.6,0.4C1.9,11.5,1.7,11.5,1.3,11.5z M1.7,11.2c0.2,0,0.3,0,0.5,0
				c0.2,0,0.3-0.1,0.3-0.3c0-0.2-0.1-0.3-0.3-0.3c-0.2,0-0.3,0-0.5,0C1.7,10.8,1.7,11,1.7,11.2z M1.7,10.3c0.2,0,0.3,0,0.5,0
				c0.2,0,0.2-0.1,0.2-0.3c0-0.2-0.1-0.3-0.2-0.3c-0.2,0-0.3,0-0.5,0C1.7,9.9,1.7,10.1,1.7,10.3z"/>
			
				<linearGradient id="SVGID_3_" gradientUnits="userSpaceOnUse" x1="12.3949" y1="-23.2353" x2="18.4863" y2="-23.2353" gradientTransform="matrix(0.2667 0 0 -0.2667 0 4.2667)">
				<stop  offset="0" style="stop-color:#050505"/>
				<stop  offset="1" style="stop-color:#1E1E21"/>
			</linearGradient>
			<path class="st2" d="M4.6,10.6c0.1,0.3,0.2,0.6,0.3,0.9c-0.3,0.1-0.4,0.1-0.5-0.2c-0.1-0.2-0.1-0.3-0.2-0.5
				c0-0.1-0.1-0.1-0.2-0.1c-0.5,0-0.3,0-0.4,0.3c0,0.2,0,0.3,0,0.5c-0.1,0-0.2,0-0.4,0c0-0.7,0-1.4,0-2.1c0.4,0,0.7,0,1.1,0
				c0.2,0,0.4,0.2,0.5,0.4C5,10.2,4.9,10.3,4.6,10.6z M3.7,9.7c0,0.2,0,0.3,0,0.5c0,0.1,0.1,0.1,0.1,0.1c0.2,0,0.3,0,0.5,0
				c0.2,0,0.3-0.1,0.3-0.3c0-0.2-0.1-0.3-0.3-0.3C4.1,9.7,3.9,9.7,3.7,9.7z"/>
			
				<linearGradient id="SVGID_4_" gradientUnits="userSpaceOnUse" x1="42.1547" y1="-23.1778" x2="48.5106" y2="-23.1778" gradientTransform="matrix(0.2667 0 0 -0.2667 0 4.2667)">
				<stop  offset="0" style="stop-color:#050505"/>
				<stop  offset="1" style="stop-color:#1E1E21"/>
			</linearGradient>
			<path class="st3" d="M11.3,11.5c0-0.7,0-1.4,0-2.1c0.3,0,0.6,0,0.9,0c0.5,0.1,0.7,0.5,0.7,1c0,0.5-0.3,1-0.7,1
				C11.9,11.5,11.6,11.5,11.3,11.5z M11.6,11.1c0.4,0.1,0.6,0,0.8-0.2c0.2-0.3,0.2-0.7,0-1c-0.2-0.2-0.4-0.3-0.7-0.2
				C11.6,10.2,11.6,10.7,11.6,11.1z"/>
			
				<linearGradient id="SVGID_5_" gradientUnits="userSpaceOnUse" x1="19.5407" y1="-23.227" x2="26.3835" y2="-23.227" gradientTransform="matrix(0.2667 0 0 -0.2667 0 4.2667)">
				<stop  offset="0" style="stop-color:#050505"/>
				<stop  offset="1" style="stop-color:#1E1E21"/>
			</linearGradient>
			<path class="st4" d="M7,10.5C7,10.7,6.9,11,6.8,11.2c-0.3,0.5-1.1,0.5-1.4-0.1c-0.2-0.4-0.2-0.9,0-1.3c0.2-0.3,0.5-0.5,0.8-0.5
				c0.4,0,0.6,0.2,0.7,0.6C7,10.1,7,10.3,7,10.5z M5.6,10.4c0,0.2,0.1,0.3,0.1,0.5c0.1,0.2,0.2,0.3,0.4,0.3s0.3-0.1,0.4-0.3
				c0.1-0.3,0.1-0.7,0-1C6.5,9.8,6.3,9.7,6.1,9.7c-0.2,0-0.3,0.1-0.4,0.2C5.7,10.1,5.7,10.3,5.6,10.4z"/>
			
				<linearGradient id="SVGID_6_" gradientUnits="userSpaceOnUse" x1="34.1" y1="-23.1901" x2="40.9895" y2="-23.1901" gradientTransform="matrix(0.2667 0 0 -0.2667 0 4.2667)">
				<stop  offset="0" style="stop-color:#050505"/>
				<stop  offset="1" style="stop-color:#1E1E21"/>
			</linearGradient>
			<path class="st5" d="M10.9,11.5c-0.4,0-0.4,0.1-0.5-0.3C10.4,11,10.3,11,10.2,11c-0.1,0-0.1,0-0.2,0c-0.4,0-0.4,0-0.5,0.4
				c-0.1,0.2-0.2,0.1-0.4,0.1c0-0.1,0-0.1,0.1-0.2c0.2-0.6,0.4-1.1,0.6-1.7C9.8,9.4,9.8,9.4,10,9.4c0.1,0,0.2,0,0.3,0.2
				C10.5,10.2,10.7,10.8,10.9,11.5z M9.7,10.7c0.2,0,0.4,0,0.6,0c-0.1-0.3-0.2-0.6-0.3-0.9C9.9,10.1,9.8,10.4,9.7,10.7z"/>
			
				<linearGradient id="SVGID_7_" gradientUnits="userSpaceOnUse" x1="50.0363" y1="-23.2" x2="55" y2="-23.2" gradientTransform="matrix(0.2667 0 0 -0.2667 0 4.2667)">
				<stop  offset="0" style="stop-color:#050505"/>
				<stop  offset="1" style="stop-color:#1E1E21"/>
			</linearGradient>
			<path class="st6" d="M14.5,10.6c-0.2,0-0.5,0-0.7,0c0,0.2,0,0.4,0,0.6c0.3,0,0.6,0,0.9,0c0,0.1,0,0.2,0,0.3c-0.4,0-0.8,0-1.1,0
				c-0.1,0-0.1,0-0.2,0c0-0.7,0-1.4,0-2.1c0.5,0,0.9,0,1.3,0c0,0.1,0,0.2,0,0.3c-0.3,0-0.6,0-0.9,0c0,0.2,0,0.3,0,0.6
				c0.2,0,0.5,0,0.7,0C14.5,10.4,14.5,10.5,14.5,10.6z"/>
			
				<linearGradient id="SVGID_8_" gradientUnits="userSpaceOnUse" x1="27.3798" y1="-23.1382" x2="33.4099" y2="-23.1382" gradientTransform="matrix(0.2667 0 0 -0.2667 0 4.2667)">
				<stop  offset="0" style="stop-color:#050505"/>
				<stop  offset="1" style="stop-color:#1E1E21"/>
			</linearGradient>
			<path class="st7" d="M8.6,10.7c0.1,0,0.2,0,0.3,0c0,0.3-0.2,0.6-0.5,0.7c-0.3,0.1-0.7,0-0.9-0.2c-0.3-0.4-0.3-1.2-0.1-1.6
				C7.7,9.4,8,9.3,8.4,9.4c0.3,0.1,0.5,0.3,0.5,0.7c-0.1,0-0.2,0-0.3,0c0-0.1-0.1-0.1-0.1-0.2C8.4,9.8,8.3,9.6,8.2,9.7
				C8,9.7,7.9,9.8,7.8,9.9c-0.2,0.3-0.1,0.6,0,1c0.1,0.2,0.2,0.3,0.3,0.3c0.2,0,0.3-0.1,0.4-0.3C8.6,10.9,8.6,10.8,8.6,10.7z"/>
		</g>
		<g>
			
				<linearGradient id="SVGID_9_" gradientUnits="userSpaceOnUse" x1="19.6735" y1="-7.9222" x2="37.8564" y2="-7.9222" gradientTransform="matrix(0.2667 0 0 -0.2667 0 4.2667)">
				<stop  offset="0" style="stop-color:#050505"/>
				<stop  offset="1" style="stop-color:#1E1E21"/>
			</linearGradient>
			<path class="st8" d="M5.3,8.1C6,7.4,6.9,6.8,7.9,6.4C6.9,6,6,5.4,5.3,4.6c0.1,0,0.1,0,0.2,0c1.2,0,2.4,0,3.7,0
				c0.5,0,0.8,0.2,1,0.6c0.2,0.4,0.1,0.8-0.2,1.1c0,0,0,0,0,0C9.9,6.6,10,6.7,10.1,7c0.1,0.6-0.3,1.2-1,1.2c-1.3,0-2.5,0-3.8,0
				C5.3,8.2,5.3,8.2,5.3,8.1z M6.6,5.1C6.7,5.1,6.7,5.2,6.6,5.1c0.5,0.3,0.9,0.6,1.4,0.8c0.3,0.1,0.6,0.2,1,0.2
				c0.3,0,0.5-0.2,0.5-0.5c0-0.3-0.2-0.5-0.5-0.5C8.3,5.1,7.5,5.1,6.6,5.1z M6.7,7.7C6.7,7.7,6.7,7.7,6.7,7.7c0.8,0,1.6,0,2.3,0
				c0.3,0,0.6-0.2,0.6-0.5S9.3,6.6,9,6.7C8.1,6.7,7.4,7.1,6.7,7.7z"/>
			
				<linearGradient id="SVGID_10_" gradientUnits="userSpaceOnUse" x1="37.8351" y1="-2" x2="40.3269" y2="-2" gradientTransform="matrix(0.2667 0 0 -0.2667 0 4.2667)">
				<stop  offset="0" style="stop-color:#050505"/>
				<stop  offset="1" style="stop-color:#1E1E21"/>
			</linearGradient>
			<circle class="st9" cx="10.4" cy="4.8" r="0.3"/>
		</g>
	</g>
</g>
</svg>
