<?xml version="1.0" encoding="utf-8"?>
<!-- Generator: Adobe Illustrator 16.0.0, SVG Export Plug-In . SVG Version: 6.00 Build 0)  -->
<!DOCTYPE svg PUBLIC "-//W3C//DTD SVG 1.1//EN" "http://www.w3.org/Graphics/SVG/1.1/DTD/svg11.dtd">
<svg version="1.1" id="图层_1" xmlns="http://www.w3.org/2000/svg" xmlns:xlink="http://www.w3.org/1999/xlink" x="0px" y="0px"
	 width="110px" height="80px" viewBox="0 0 110 80" style="enable-background:new 0 0 110 80;" xml:space="preserve">
<style type="text/css">
<![CDATA[
	.st0{opacity:0;fill:#FFFFFF;}
	.st1{fill:url(#SVGID_1_);}
	.st2{fill:url(#SVGID_2_);}
]]>
</style>
<rect class="st0" width="110" height="80"/>
<g>
	
		<image style="overflow:visible;opacity:0.25;" width="100" height="70" xlink:href="C9E7EB1D.png"  transform="matrix(1 0 0 1 5 5)">
	</image>
	<g>
		<g>
			
				<linearGradient id="SVGID_1_" gradientUnits="userSpaceOnUse" x1="327.6602" y1="309.4482" x2="327.6602" y2="359.7451" gradientTransform="matrix(1 0 0 1 -272.6602 -294.96)">
				<stop  offset="4.000000e-003" style="stop-color:#FFFFFF"/>
				<stop  offset="1" style="stop-color:#999998"/>
			</linearGradient>
			<path class="st1" d="M30,30.9c0,0-14.2,2.2-15.9,15.9c0,0-0.9,14.3,15.1,18h54.4c0,0,12.3-0.5,12.3-14.5c0,0,0.7-14.4-11.5-14.9
				c0,0-3.6-13.8-17.8-9.8c0,0-5.9-12.1-18.8-11C47.9,14.6,32.9,14,30,30.9z"/>
			
				<linearGradient id="SVGID_2_" gradientUnits="userSpaceOnUse" x1="327.6602" y1="311.0205" x2="327.6602" y2="360.4707" gradientTransform="matrix(1 0 0 1 -272.6602 -294.96)">
				<stop  offset="0" style="stop-color:#EBEBEB"/>
				<stop  offset="1" style="stop-color:#D9D9D9"/>
			</linearGradient>
			<path class="st2" d="M30.5,32.2c0,0-14,2.1-15.6,15.6c0,0-0.9,14,14.8,17.7h53.4c0,0,12.1-0.5,12.1-14.3c0,0,0.7-14.2-11.3-14.6
				c0,0-3.5-13.6-17.5-9.6c0,0-5.8-11.9-18.4-10.8C48,16.1,33.3,15.5,30.5,32.2z"/>
		</g>
	</g>
</g>
</svg>
