<?xml version="1.0" encoding="utf-8"?>
<!-- Generator: Adobe Illustrator 18.1.0, SVG Export Plug-In . SVG Version: 6.00 Build 0)  -->
<svg version="1.1" id="图层_1" xmlns="http://www.w3.org/2000/svg" xmlns:xlink="http://www.w3.org/1999/xlink" x="0px" y="0px"
	 width="16px" height="16px" viewBox="0 0 16 16" style="enable-background:new 0 0 16 16;" xml:space="preserve">
<style type="text/css">
	.st0{fill:url(#SVGID_1_);}
	.st1{fill:url(#SVGID_2_);}
	.st2{fill:url(#SVGID_3_);}
	.st3{fill:url(#SVGID_4_);}
	.st4{fill:url(#SVGID_5_);}
	.st5{fill:url(#SVGID_6_);}
	.st6{fill:url(#SVGID_7_);}
	.st7{fill:url(#SVGID_8_);}
	.st8{fill:url(#SVGID_9_);}
	.st9{fill:url(#SVGID_10_);}
	.st10{fill:url(#SVGID_11_);}
	.st11{fill:url(#SVGID_12_);}
	.st12{fill:url(#SVGID_13_);}
</style>
<g>
	
		<linearGradient id="SVGID_1_" gradientUnits="userSpaceOnUse" x1="0" y1="-14" x2="60" y2="-14" gradientTransform="matrix(0.2667 0 0 -0.2667 0 4.2667)">
		<stop  offset="0" style="stop-color:#B9BBBD"/>
		<stop  offset="3.208770e-002" style="stop-color:#B6B8BA"/>
		<stop  offset="5.619587e-002" style="stop-color:#ADAEB1"/>
		<stop  offset="8.827712e-002" style="stop-color:#9D9EA1"/>
		<stop  offset="0.1241" style="stop-color:#C1C1C2"/>
		<stop  offset="0.1924" style="stop-color:#F0F0F0"/>
		<stop  offset="0.2083" style="stop-color:#FBFBFB"/>
		<stop  offset="0.2247" style="stop-color:#FFFFFF"/>
		<stop  offset="0.3015" style="stop-color:#EEEEEF"/>
		<stop  offset="0.3853" style="stop-color:#E3E3E4"/>
		<stop  offset="0.4775" style="stop-color:#DFE0E1"/>
		<stop  offset="0.7191" style="stop-color:#FFFFFF"/>
		<stop  offset="0.779" style="stop-color:#FDFDFD"/>
		<stop  offset="0.8065" style="stop-color:#F6F5F5"/>
		<stop  offset="0.8258" style="stop-color:#EBEAEA"/>
		<stop  offset="0.927" style="stop-color:#797A7D"/>
		<stop  offset="1" style="stop-color:#BEC0C1"/>
	</linearGradient>
	<path class="st0" d="M13.5,16h-11C1.1,16,0,14.9,0,13.5v-11C0,1.1,1.1,0,2.5,0h11C14.9,0,16,1.1,16,2.5v11C16,14.9,14.9,16,13.5,16
		z"/>
	<g>
		<g>
			
				<linearGradient id="SVGID_2_" gradientUnits="userSpaceOnUse" x1="5" y1="-4.6" x2="10.6099" y2="-4.6" gradientTransform="matrix(0.2667 0 0 -0.2667 0 4.2667)">
				<stop  offset="0" style="stop-color:#050505"/>
				<stop  offset="1" style="stop-color:#1E1E21"/>
			</linearGradient>
			<path class="st1" d="M2.8,5.8c0,0.2-0.1,0.4-0.2,0.6C2.5,6.5,2.3,6.5,2.1,6.5c-0.2,0-0.4-0.1-0.5-0.3C1.4,6.1,1.3,5.9,1.3,5.6
				c0-0.3,0.1-0.6,0.2-0.8c0.1-0.2,0.3-0.3,0.6-0.3c0.2,0,0.4,0.1,0.5,0.2C2.7,4.8,2.8,5,2.9,5.2H2.4C2.4,5.1,2.3,5,2.3,5
				C2.3,4.9,2.2,4.9,2.1,4.9C2,4.9,1.9,4.9,1.9,5C1.8,5.1,1.8,5.3,1.8,5.5c0,0.2,0,0.4,0.1,0.5S2,6.1,2.2,6.1c0.1,0,0.1,0,0.2-0.1
				C2.4,6,2.4,5.9,2.5,5.8C2.5,5.8,2.8,5.8,2.8,5.8z"/>
			
				<linearGradient id="SVGID_3_" gradientUnits="userSpaceOnUse" x1="12.0561" y1="-4.65" x2="18.2786" y2="-4.65" gradientTransform="matrix(0.2667 0 0 -0.2667 0 4.2667)">
				<stop  offset="0" style="stop-color:#050505"/>
				<stop  offset="1" style="stop-color:#1E1E21"/>
			</linearGradient>
			<path class="st2" d="M3.4,6.3C3.3,6.1,3.2,5.8,3.2,5.5c0-0.3,0.1-0.6,0.2-0.8c0.1-0.2,0.3-0.3,0.6-0.3c0.3,0,0.5,0.1,0.6,0.3
				c0.2,0.2,0.2,0.5,0.2,0.8c0,0.3-0.1,0.6-0.2,0.7C4.5,6.5,4.3,6.6,4.1,6.6C3.8,6.6,3.6,6.5,3.4,6.3z M4.3,5.9
				c0.1-0.1,0.1-0.2,0.1-0.5c0-0.2,0-0.3-0.1-0.5C4.3,4.9,4.2,4.9,4.1,4.9C3.9,4.9,3.8,4.9,3.8,5C3.7,5.1,3.7,5.3,3.7,5.5
				s0,0.3,0.1,0.5c0.1,0.1,0.2,0.2,0.3,0.2C4.2,6.1,4.3,6.1,4.3,5.9z"/>
			
				<linearGradient id="SVGID_4_" gradientUnits="userSpaceOnUse" x1="20.0719" y1="-4.45" x2="28.7935" y2="-4.45" gradientTransform="matrix(0.2667 0 0 -0.2667 0 4.2667)">
				<stop  offset="0" style="stop-color:#050505"/>
				<stop  offset="1" style="stop-color:#1E1E21"/>
			</linearGradient>
			<path class="st3" d="M5.4,4.5h0.2h0.2v0.3c0-0.1,0.1-0.1,0.1-0.2C6,4.5,6.1,4.5,6.3,4.5c0.2,0,0.3,0.1,0.4,0.2
				c0.1,0.1,0.1,0.1,0.1,0.2l0.1-0.1C6.9,4.5,7,4.5,7.2,4.5c0.2,0,0.3,0.1,0.4,0.2s0.2,0.3,0.2,0.5v1.4H7.5H7.3V5.2
				c0-0.1,0-0.2-0.1-0.2c0-0.1-0.1-0.1-0.2-0.1c-0.1,0-0.2,0-0.2,0.1C6.8,5,6.7,5.1,6.7,5.3v1.2H6.5H6.3V5.2c0-0.1,0-0.2-0.1-0.3
				C6.2,4.9,6.2,4.8,6.1,4.8c-0.1,0-0.2,0-0.2,0.1C5.8,5,5.8,5.1,5.8,5.2v1.2H5.6H5.4L5.4,4.5L5.4,4.5z"/>
			
				<linearGradient id="SVGID_5_" gradientUnits="userSpaceOnUse" x1="30.934" y1="-4.45" x2="39.6555" y2="-4.45" gradientTransform="matrix(0.2667 0 0 -0.2667 0 4.2667)">
				<stop  offset="0" style="stop-color:#050505"/>
				<stop  offset="1" style="stop-color:#1E1E21"/>
			</linearGradient>
			<path class="st4" d="M8.2,4.5h0.2h0.2v0.3c0-0.1,0.1-0.1,0.1-0.2C8.9,4.5,9,4.5,9.1,4.5c0.2,0,0.3,0.1,0.4,0.2
				c0.1,0.1,0.1,0.1,0.1,0.2l0.1-0.1c0.1-0.2,0.2-0.2,0.4-0.2c0.2,0,0.3,0.1,0.4,0.2c0.1,0.1,0.2,0.3,0.2,0.5v1.4h-0.2h-0.2V5.2
				c0-0.1,0-0.2-0.1-0.2c0-0.1-0.1-0.1-0.2-0.1c-0.1,0-0.2,0-0.2,0.1S9.7,5.1,9.7,5.3v1.2H9.5H9.3V5.2c0-0.1,0-0.2-0.1-0.3
				C9.1,4.9,9.1,4.8,9,4.8c-0.1,0-0.2,0-0.2,0.1C8.8,5,8.7,5.1,8.7,5.2v1.2H8.5H8.3L8.2,4.5L8.2,4.5z"/>
			
				<linearGradient id="SVGID_6_" gradientUnits="userSpaceOnUse" x1="41.4622" y1="-4.65" x2="47.6855" y2="-4.65" gradientTransform="matrix(0.2667 0 0 -0.2667 0 4.2667)">
				<stop  offset="0" style="stop-color:#050505"/>
				<stop  offset="1" style="stop-color:#1E1E21"/>
			</linearGradient>
			<path class="st5" d="M11.3,6.3c-0.2-0.2-0.2-0.4-0.2-0.7c0-0.3,0.1-0.6,0.2-0.8c0.2-0.2,0.3-0.3,0.6-0.3s0.5,0.1,0.6,0.3
				c0.2,0.2,0.2,0.5,0.2,0.8c0,0.3-0.1,0.6-0.2,0.7c-0.2,0.2-0.3,0.3-0.6,0.3S11.4,6.5,11.3,6.3z M12.2,5.9c0.1-0.1,0.1-0.2,0.1-0.5
				c0-0.2,0-0.3-0.1-0.5c-0.1-0.1-0.2-0.2-0.3-0.2S11.7,4.9,11.6,5c-0.1,0.1-0.1,0.3-0.1,0.5s0,0.3,0.1,0.5c0.1,0.1,0.2,0.2,0.3,0.2
				S12.1,6.1,12.2,5.9z"/>
			
				<linearGradient id="SVGID_7_" gradientUnits="userSpaceOnUse" x1="49.4989" y1="-4.55" x2="55" y2="-4.55" gradientTransform="matrix(0.2667 0 0 -0.2667 0 4.2667)">
				<stop  offset="0" style="stop-color:#050505"/>
				<stop  offset="1" style="stop-color:#1E1E21"/>
			</linearGradient>
			<path class="st6" d="M13.2,4.5h0.2h0.2v0.3l0.1-0.1c0.1-0.2,0.3-0.3,0.5-0.3c0.2,0,0.3,0.1,0.4,0.2c0.1,0.1,0.2,0.3,0.2,0.5v1.4
				h-0.2h-0.2V5.3c0-0.1,0-0.2-0.1-0.3c-0.1-0.1-0.1-0.1-0.2-0.1c-0.1,0-0.2,0.1-0.3,0.1c-0.1,0.1-0.1,0.2-0.1,0.4v1.1h-0.2h-0.2
				L13.2,4.5L13.2,4.5z"/>
		</g>
		<g>
			
				<linearGradient id="SVGID_8_" gradientUnits="userSpaceOnUse" x1="10.9872" y1="-19.95" x2="17.2496" y2="-19.95" gradientTransform="matrix(0.2667 0 0 -0.2667 0 4.2667)">
				<stop  offset="0" style="stop-color:#050505"/>
				<stop  offset="1" style="stop-color:#1E1E21"/>
			</linearGradient>
			<path class="st7" d="M4.1,9.1C4.1,9,4.1,9,4,8.9C3.9,8.9,3.9,8.8,3.8,8.8c-0.1,0-0.2,0-0.2,0.1S3.5,9,3.5,9c0,0.1,0,0.1,0.1,0.1
				c0.1,0,0.1,0.1,0.3,0.1c0.3,0.1,0.5,0.2,0.6,0.3C4.6,9.7,4.6,9.8,4.6,10c0,0.2-0.1,0.4-0.2,0.6c-0.1,0.1-0.3,0.2-0.6,0.2
				s-0.5-0.1-0.6-0.2C3,10.4,2.9,10.2,2.9,10h0.5c0,0.1,0,0.2,0.1,0.2c0.1,0.1,0.2,0.1,0.3,0.1s0.2,0,0.2-0.1
				c0.1-0.1,0.1-0.1,0.1-0.2c0-0.1,0-0.1-0.1-0.1C4,9.9,3.9,9.8,3.7,9.8C3.4,9.7,3.2,9.7,3.1,9.6C3,9.5,3,9.3,3,9.1
				C3,8.9,3,8.7,3.1,8.6c0.1-0.1,0.3-0.2,0.6-0.2s0.4,0.1,0.6,0.2s0.2,0.3,0.2,0.5L4.1,9.1L4.1,9.1z"/>
			
				<linearGradient id="SVGID_9_" gradientUnits="userSpaceOnUse" x1="18.9275" y1="-19.95" x2="25.2029" y2="-19.95" gradientTransform="matrix(0.2667 0 0 -0.2667 0 4.2667)">
				<stop  offset="0" style="stop-color:#050505"/>
				<stop  offset="1" style="stop-color:#1E1E21"/>
			</linearGradient>
			<path class="st8" d="M6.7,9.9c0,0.3-0.1,0.5-0.3,0.6c-0.2,0.2-0.3,0.2-0.6,0.2c-0.3,0-0.5-0.1-0.6-0.3C5.1,10.3,5.1,10,5.1,9.7
				c0-0.4,0.1-0.7,0.2-0.9c0.2-0.2,0.4-0.3,0.6-0.3c0.2,0,0.4,0.1,0.6,0.2C6.6,8.8,6.7,9,6.7,9.3H6.2c0-0.1-0.1-0.2-0.1-0.3
				C6.1,9,6,8.9,5.9,8.9C5.8,8.9,5.7,9,5.7,9.1C5.6,9.2,5.5,9.3,5.5,9.5c0,0.3,0,0.5,0.1,0.6c0.1,0.1,0.2,0.2,0.3,0.2
				c0.1,0,0.2,0,0.2-0.1c0.1-0.1,0.1-0.2,0.1-0.3C6.2,9.9,6.7,9.9,6.7,9.9z"/>
			
				<linearGradient id="SVGID_10_" gradientUnits="userSpaceOnUse" x1="27.1933" y1="-19.75" x2="31.1532" y2="-19.75" gradientTransform="matrix(0.2667 0 0 -0.2667 0 4.2667)">
				<stop  offset="0" style="stop-color:#050505"/>
				<stop  offset="1" style="stop-color:#1E1E21"/>
			</linearGradient>
			<path class="st9" d="M7.3,8.5h0.2h0.2v0.4l0.1-0.1c0.1-0.2,0.3-0.3,0.4-0.3c0,0,0.1,0,0.1,0V9C8.3,9,8.2,9,8.2,9
				C8,9,7.9,9,7.8,9.1S7.7,9.3,7.7,9.5v1.1H7.5H7.3V8.5z"/>
			
				<linearGradient id="SVGID_11_" gradientUnits="userSpaceOnUse" x1="33.03" y1="-18.35" x2="34.8193" y2="-18.35" gradientTransform="matrix(0.2667 0 0 -0.2667 0 4.2667)">
				<stop  offset="0" style="stop-color:#050505"/>
				<stop  offset="1" style="stop-color:#1E1E21"/>
			</linearGradient>
			<path class="st10" d="M8.8,8.5H9h0.2v2.2H9H8.8V8.5z M8.8,7.7h0.5v0.5H8.8V7.7z"/>
			
				<linearGradient id="SVGID_12_" gradientUnits="userSpaceOnUse" x1="37.267" y1="-21.4" x2="43.867" y2="-21.4" gradientTransform="matrix(0.2667 0 0 -0.2667 0 4.2667)">
				<stop  offset="0" style="stop-color:#050505"/>
				<stop  offset="1" style="stop-color:#1E1E21"/>
			</linearGradient>
			<path class="st11" d="M9.9,8.5h0.2h0.2v0.3l0.1-0.1c0.1-0.2,0.3-0.3,0.5-0.3s0.4,0.1,0.5,0.3c0.1,0.2,0.2,0.5,0.2,0.9
				c0,0.3-0.1,0.6-0.2,0.9c-0.1,0.2-0.3,0.3-0.5,0.3s-0.4-0.1-0.5-0.3l0,0v1.1h-0.2H9.9C9.9,11.5,9.9,8.5,9.9,8.5z M10.8,10.2
				c0.1,0,0.2-0.1,0.3-0.2c0.1-0.1,0.1-0.3,0.1-0.5c0-0.2,0-0.4-0.1-0.5C11,9,10.9,8.9,10.8,8.9c-0.1,0-0.2,0.1-0.3,0.2
				c-0.1,0.1-0.1,0.3-0.1,0.5c0,0.2,0,0.4,0.1,0.5C10.6,10.2,10.7,10.2,10.8,10.2z"/>
			
				<linearGradient id="SVGID_13_" gradientUnits="userSpaceOnUse" x1="45.1895" y1="-18.8" x2="49.0128" y2="-18.8" gradientTransform="matrix(0.2667 0 0 -0.2667 0 4.2667)">
				<stop  offset="0" style="stop-color:#050505"/>
				<stop  offset="1" style="stop-color:#1E1E21"/>
			</linearGradient>
			<path class="st12" d="M13.1,10.7c-0.1,0-0.2,0-0.3,0c-0.2,0-0.3,0-0.4-0.1c-0.1-0.1-0.1-0.2-0.1-0.4V8.9h-0.2V8.5h0.2V7.9h0.5
				v0.6h0.3v0.4h-0.3v1.2c0,0.1,0,0.1,0,0.1c0,0,0.1,0,0.2,0h0.1V10.7z"/>
		</g>
	</g>
</g>
</svg>
