<?xml version="1.0" encoding="utf-8"?>
<!-- Generator: Adobe Illustrator 18.1.0, SVG Export Plug-In . SVG Version: 6.00 Build 0)  -->
<svg version="1.1" id="图层_1" xmlns="http://www.w3.org/2000/svg" xmlns:xlink="http://www.w3.org/1999/xlink" x="0px" y="0px"
	 width="16px" height="16px" viewBox="0 0 16 16" style="enable-background:new 0 0 16 16;" xml:space="preserve">
<style type="text/css">
	.st0{fill:url(#SVGID_1_);}
	.st1{fill:url(#SVGID_2_);}
	.st2{fill:url(#SVGID_3_);}
	.st3{fill:url(#SVGID_4_);}
	.st4{fill:url(#SVGID_5_);}
	.st5{fill:url(#SVGID_6_);}
	.st6{fill:url(#SVGID_7_);}
	.st7{fill:url(#SVGID_8_);}
	.st8{fill:url(#SVGID_9_);}
	.st9{fill:url(#SVGID_10_);}
	.st10{fill:url(#SVGID_11_);}
</style>
<g>
	
		<linearGradient id="SVGID_1_" gradientUnits="userSpaceOnUse" x1="0" y1="-14" x2="60" y2="-14" gradientTransform="matrix(0.2667 0 0 -0.2667 0 4.2667)">
		<stop  offset="0" style="stop-color:#B9BBBD"/>
		<stop  offset="3.208770e-002" style="stop-color:#B6B8BA"/>
		<stop  offset="5.619587e-002" style="stop-color:#ADAEB1"/>
		<stop  offset="8.827712e-002" style="stop-color:#9D9EA1"/>
		<stop  offset="0.1241" style="stop-color:#C1C1C2"/>
		<stop  offset="0.1924" style="stop-color:#F0F0F0"/>
		<stop  offset="0.2083" style="stop-color:#FBFBFB"/>
		<stop  offset="0.2247" style="stop-color:#FFFFFF"/>
		<stop  offset="0.3015" style="stop-color:#EEEEEF"/>
		<stop  offset="0.3853" style="stop-color:#E3E3E4"/>
		<stop  offset="0.4775" style="stop-color:#DFE0E1"/>
		<stop  offset="0.7191" style="stop-color:#FFFFFF"/>
		<stop  offset="0.779" style="stop-color:#FDFDFD"/>
		<stop  offset="0.8065" style="stop-color:#F6F5F5"/>
		<stop  offset="0.8258" style="stop-color:#EBEAEA"/>
		<stop  offset="0.927" style="stop-color:#797A7D"/>
		<stop  offset="1" style="stop-color:#BEC0C1"/>
	</linearGradient>
	<path class="st0" d="M13.5,16h-11C1.1,16,0,14.9,0,13.5v-11C0,1.1,1.1,0,2.5,0h11C14.9,0,16,1.1,16,2.5v11C16,14.9,14.9,16,13.5,16
		z"/>
	<g>
		<g>
			
				<linearGradient id="SVGID_2_" gradientUnits="userSpaceOnUse" x1="5" y1="-7.25" x2="17.8662" y2="-7.25" gradientTransform="matrix(0.2667 0 0 -0.2667 0 4.2667)">
				<stop  offset="0" style="stop-color:#050505"/>
				<stop  offset="1" style="stop-color:#1E1E21"/>
			</linearGradient>
			<path class="st1" d="M4.7,5.7C4.6,5,4,4.5,3.4,4.5c-0.9,0-1.4,0-1.4,0L1.9,4.9h1h0c0,0,0,0,0,0h0h0h0c0,0,0.1,0,0.1,0
				c0,0,0,0,0,0h0l0,0h0l0,0h0h0h0c0,0,0,0,0.1,0h0h0h0h0h0h0l0,0h0h0h0l0,0h0h0l0,0h0c0,0,0,0,0,0C3.7,5,3.8,5,3.8,5.1
				C4,5.4,4.1,5.8,4,6.2C3.8,7.1,3.2,7.3,2.6,7.3H2.2l0.4-2.2H1.8L1.4,7.3L1.3,7.9c0,0,1.1,0,1.5,0c0.4,0,1.6-0.3,1.8-1.4
				c0.1-0.2,0.1-0.3,0.1-0.5C4.8,5.9,4.7,5.8,4.7,5.7z"/>
			
				<linearGradient id="SVGID_3_" gradientUnits="userSpaceOnUse" x1="17.2141" y1="-7.486" x2="27.5239" y2="-7.486" gradientTransform="matrix(0.2667 0 0 -0.2667 0 4.2667)">
				<stop  offset="0" style="stop-color:#050505"/>
				<stop  offset="1" style="stop-color:#1E1E21"/>
			</linearGradient>
			<path class="st2" d="M7.3,5.1C7.1,5.7,7,6.1,7,6.4C6.4,6.7,5.6,6.6,5.6,6.6L5.4,7.9H4.6l0.5-2.6h0.8l-0.2,1c0,0,0.8,0.2,0.9-0.6
				C6.6,5.3,6.4,5,6.2,5C6.1,5,6.1,5,6.1,5H5.2l0.1-0.4c0,0,0.9,0,1.3,0C6.7,4.6,7.3,4.8,7.3,5.1z"/>
			
				<linearGradient id="SVGID_4_" gradientUnits="userSpaceOnUse" x1="27.2996" y1="-1.8471" x2="50.4" y2="-1.8471" gradientTransform="matrix(0.2667 0 0 -0.2667 0 4.2667)">
				<stop  offset="0" style="stop-color:#050505"/>
				<stop  offset="1" style="stop-color:#1E1E21"/>
			</linearGradient>
			<path class="st3" d="M7.3,6.4c0,0-0.1-2.1,2.2-3.1s3.8,0.9,4,1.4c0,0-2.3-2.6-4.7,0.4C8.8,5.1,7.7,5.3,7.3,6.4z"/>
			
				<linearGradient id="SVGID_5_" gradientUnits="userSpaceOnUse" x1="49.9199" y1="-2.9" x2="52.0808" y2="-2.9" gradientTransform="matrix(0.2667 0 0 -0.2667 0 4.2667)">
				<stop  offset="0" style="stop-color:#050505"/>
				<stop  offset="1" style="stop-color:#1E1E21"/>
			</linearGradient>
			<polygon class="st4" points="13.5,4.7 13.7,4.9 13.9,4.8 13.8,5 13.9,5.2 13.7,5.1 13.5,5.3 13.5,5.1 13.3,5 13.5,5 			"/>
			
				<linearGradient id="SVGID_6_" gradientUnits="userSpaceOnUse" x1="30.3968" y1="-8.5616" x2="34.8108" y2="-8.5616" gradientTransform="matrix(0.2667 0 0 -0.2667 0 4.2667)">
				<stop  offset="0" style="stop-color:#050505"/>
				<stop  offset="1" style="stop-color:#1E1E21"/>
			</linearGradient>
			<path class="st5" d="M8.9,6.2c0.2,0,0.3,0,0.3,0l0.1-0.2H9C9,5.6,9.1,5.3,9.1,5.3L8.5,5.5c0,0,0,0.2-0.1,0.4H8.2L8.1,6.2
				c0,0,0.1,0,0.3,0c-0.1,0.5-0.2,1-0.2,1c0,0.1-0.1,0.5,0.1,0.6c0.2,0.2,0.7-0.1,0.7-0.1l0-0.1C8.6,7.7,8.7,7.4,8.7,7.1
				C8.7,7.1,8.9,6.6,8.9,6.2z"/>
			
				<linearGradient id="SVGID_7_" gradientUnits="userSpaceOnUse" x1="34.4065" y1="-9.8404" x2="41.0744" y2="-9.8404" gradientTransform="matrix(0.2667 0 0 -0.2667 0 4.2667)">
				<stop  offset="0" style="stop-color:#050505"/>
				<stop  offset="1" style="stop-color:#1E1E21"/>
			</linearGradient>
			<path class="st6" d="M10.9,6.9c0,0,0.3-1.1-0.6-1s-1,0.7-1.1,1c-0.1,0.2-0.1,1.4,1.4,0.8l0.1-0.2c0,0-1.1,0.6-0.9-0.6H10.9z
				 M10.3,6.1c0.3,0.1,0.1,0.6,0.1,0.6L9.8,6.7C9.8,6.7,10,6,10.3,6.1z"/>
			
				<linearGradient id="SVGID_8_" gradientUnits="userSpaceOnUse" x1="41.3328" y1="-9.8676" x2="48.4234" y2="-9.8676" gradientTransform="matrix(0.2667 0 0 -0.2667 0 4.2667)">
				<stop  offset="0" style="stop-color:#050505"/>
				<stop  offset="1" style="stop-color:#1E1E21"/>
			</linearGradient>
			<path class="st7" d="M12.9,6.1c0,0-0.9-0.6-1.6,0.3c-0.7,0.9,0,1.9,1.2,1.3l0.1-0.3h-0.1c0,0-1,0.6-0.9-0.6c0.2-1,1-1,1-0.4
				l0.1,0.1L12.9,6.1z"/>
			
				<linearGradient id="SVGID_9_" gradientUnits="userSpaceOnUse" x1="47.4315" y1="-8.35" x2="55" y2="-8.35" gradientTransform="matrix(0.2667 0 0 -0.2667 0 4.2667)">
				<stop  offset="0" style="stop-color:#050505"/>
				<stop  offset="1" style="stop-color:#1E1E21"/>
			</linearGradient>
			<path class="st8" d="M14.2,5.9c-0.3,0-0.6,0.2-0.8,0.3l0.1-0.7l-0.2,0l-0.1-0.3h-0.1l-0.5,2.7h0.5l0.1-0.5c0.1-0.4,0.2-0.9,0.2-1
				c0.1-0.2,0.4-0.2,0.5-0.2c0.1,0.1,0.1,0.3,0.1,0.7c-0.1,0.3-0.2,0.9-0.2,0.9h0.5c0,0,0.2-1.1,0.3-1.3C14.7,6.4,14.7,6,14.2,5.9z"
				/>
		</g>
		<g>
			
				<linearGradient id="SVGID_10_" gradientUnits="userSpaceOnUse" x1="21.02" y1="-28.05" x2="27.2886" y2="-28.05" gradientTransform="matrix(0.2667 0 0 -0.2667 0 4.2667)">
				<stop  offset="0" style="stop-color:#050505"/>
				<stop  offset="1" style="stop-color:#1E1E21"/>
			</linearGradient>
			<path class="st9" d="M5.6,12.9v-2.3h1.7v0.2V11H6.1v0.5h1v0.2v0.2h-1v1H5.9L5.6,12.9L5.6,12.9z"/>
			
				<linearGradient id="SVGID_11_" gradientUnits="userSpaceOnUse" x1="27.7796" y1="-28" x2="38.9798" y2="-28" gradientTransform="matrix(0.2667 0 0 -0.2667 0 4.2667)">
				<stop  offset="0" style="stop-color:#050505"/>
				<stop  offset="1" style="stop-color:#1E1E21"/>
			</linearGradient>
			<path class="st10" d="M8.1,12.9l-0.7-2.3h0.3h0.3l0.4,1.7l0,0l0.3-1.7h0.3h0.3l0.3,1.7l0,0l0.4-1.7h0.2h0.3l-0.7,2.3H9.5H9.3
				l-0.4-1.8l0,0l-0.3,1.8H8.3H8.1z"/>
		</g>
	</g>
</g>
</svg>
