<?xml version="1.0" encoding="utf-8"?>
<!-- Generator: Adobe Illustrator 18.1.0, SVG Export Plug-In . SVG Version: 6.00 Build 0)  -->
<svg version="1.1" id="图层_1" xmlns="http://www.w3.org/2000/svg" xmlns:xlink="http://www.w3.org/1999/xlink" x="0px" y="0px"
	 width="16px" height="16px" viewBox="0 0 16 16" style="enable-background:new 0 0 16 16;" xml:space="preserve">
<style type="text/css">
	.st0{fill:url(#SVGID_1_);}
	.st1{fill:url(#SVGID_2_);}
	.st2{fill:url(#SVGID_3_);}
	.st3{fill:url(#SVGID_4_);}
	.st4{fill:url(#SVGID_5_);}
	.st5{fill:url(#SVGID_6_);}
	.st6{fill:url(#SVGID_7_);}
</style>
<g>
	
		<linearGradient id="SVGID_1_" gradientUnits="userSpaceOnUse" x1="0" y1="-14" x2="60" y2="-14" gradientTransform="matrix(0.2667 0 0 -0.2667 0 4.2667)">
		<stop  offset="0" style="stop-color:#B9BBBD"/>
		<stop  offset="3.208770e-002" style="stop-color:#B6B8BA"/>
		<stop  offset="5.619587e-002" style="stop-color:#ADAEB1"/>
		<stop  offset="8.827712e-002" style="stop-color:#9D9EA1"/>
		<stop  offset="0.1241" style="stop-color:#C1C1C2"/>
		<stop  offset="0.1924" style="stop-color:#F0F0F0"/>
		<stop  offset="0.2083" style="stop-color:#FBFBFB"/>
		<stop  offset="0.2247" style="stop-color:#FFFFFF"/>
		<stop  offset="0.3015" style="stop-color:#EEEEEF"/>
		<stop  offset="0.3853" style="stop-color:#E3E3E4"/>
		<stop  offset="0.4775" style="stop-color:#DFE0E1"/>
		<stop  offset="0.7191" style="stop-color:#FFFFFF"/>
		<stop  offset="0.779" style="stop-color:#FDFDFD"/>
		<stop  offset="0.8065" style="stop-color:#F6F5F5"/>
		<stop  offset="0.8258" style="stop-color:#EBEAEA"/>
		<stop  offset="0.927" style="stop-color:#797A7D"/>
		<stop  offset="1" style="stop-color:#BEC0C1"/>
	</linearGradient>
	<path class="st0" d="M13.5,16h-11C1.1,16,0,14.9,0,13.5v-11C0,1.1,1.1,0,2.5,0h11C14.9,0,16,1.1,16,2.5v11C16,14.9,14.9,16,13.5,16
		z"/>
	<g>
		
			<linearGradient id="SVGID_2_" gradientUnits="userSpaceOnUse" x1="9.5" y1="-8.4" x2="50.3643" y2="-8.4" gradientTransform="matrix(0.2667 0 0 -0.2667 0 4.2667)">
			<stop  offset="0" style="stop-color:#050505"/>
			<stop  offset="1" style="stop-color:#1E1E21"/>
		</linearGradient>
		<path class="st1" d="M8,2.2c-3,0-5.4,2.4-5.4,5.4c0,1.2,0.4,2.2,1,3.1c0.6-0.9,1.7-0.9,1.7-0.9c-0.5,0-1.9-2.1-1.9-2.1
			s0.3-1,0.1-1.7s0.2-1.4,0.3-1.4c0.1,0,0.1,0.2,0.2,0.4C4,5.4,4.5,5.3,4.8,5.4C5.1,5.4,5,5.1,5.4,5C5.8,5,6,5.6,6,5.6
			c0,0.1,0.7,0,0.7,0l0.1,1C5.8,7.7,6.1,7.9,6,8.2C6,8.6,5,8.4,5,8.5c0,0.1-0.2,0.7-0.2,0.7c0.6-0.2,1,0.2,1,0.2s0.3-0.8,1.4-1.4
			s2.9-0.3,3-0.5c0.1-0.2,0.4-0.3,0.4-0.7c-0.1-0.4-0.2-1.9-0.1-1.9s1-0.5,0.9-0.6C11.3,4.4,11,3.7,11,3.7c1.1,0.1,1.8,2.9,1.8,2.9
			c0,0.1-0.1,1.4-0.3,0.8c-0.2-0.6-0.9-0.6-0.9-0.6v1.7h1.6c0.1-0.3,0.1-0.6,0.1-1C13.4,4.6,11,2.2,8,2.2z M7.2,5
			C7.1,5.3,7.1,5,6.7,4.6c-0.4-0.4-0.3,0-0.6,0.1C5.9,4.8,5.4,4.5,5.4,4.2c0-0.3,0.4-0.1,0.7,0C6.5,4.3,6.7,3.8,7,3.7
			c0,0,0.4,0.5,0.4,0.7C7.4,4.6,7.3,4.8,7.2,5z M10.3,4c-0.2,0.2-0.1,0.2-0.1,0.3c0,0.2,0,0.2,0,0.5c0,0.3,0,0.2-0.1,0.5
			c-0.1,0.3,0,0-0.1,0S9.9,5.1,9.9,4.9c0-0.2-0.1-0.1,0-0.1c0.1-0.1-0.2-0.3-0.2-0.3s-0.2,0-0.3,0c-0.1,0-0.3-0.2-0.2-0.2
			c0-0.1,0-0.2,0-0.2S9.4,4,9.7,3.8c0.3-0.2,0-0.4,0-0.5c0-0.1-0.2-0.2-0.2-0.2S9.2,3.2,8.9,3.5c0,0-0.3,0-0.6,0c0,0,0,0.1,0,0
			c0-0.1,0.1-0.2,0.1-0.4c-0.1-0.2-0.1-0.2,0-0.4c0,0,0.6,0,0.7,0c0.1,0,0.6,0.1,1,0.2c0.4,0.1,0.3,0.2,0.2,0.5
			c-0.1,0.3,0.2,0.2,0.2,0.4C10.3,3.9,10.5,3.8,10.3,4z M13.3,8.9L13.3,8.9L13.3,8.9L13.3,8.9z"/>
		
			<linearGradient id="SVGID_3_" gradientUnits="userSpaceOnUse" x1="44" y1="-27.5" x2="50" y2="-27.5" gradientTransform="matrix(0.2667 0 0 -0.2667 0 4.2667)">
			<stop  offset="0" style="stop-color:#050505"/>
			<stop  offset="1" style="stop-color:#1E1E21"/>
		</linearGradient>
		<path class="st2" d="M13.3,11.7L13.3,11.7c0,0.2-0.1,0.3-0.3,0.3h-1.3v-0.8H13C13.3,11.2,13.3,11.5,13.3,11.7z"/>
		
			<linearGradient id="SVGID_4_" gradientUnits="userSpaceOnUse" x1="44" y1="-19" x2="50" y2="-19" gradientTransform="matrix(0.2667 0 0 -0.2667 0 4.2667)">
			<stop  offset="0" style="stop-color:#050505"/>
			<stop  offset="1" style="stop-color:#1E1E21"/>
		</linearGradient>
		<path class="st3" d="M13.3,9.4L13.3,9.4c0,0.2-0.1,0.5-0.3,0.5h-1.3V8.8H13C13.3,8.8,13.3,9.2,13.3,9.4z"/>
		
			<linearGradient id="SVGID_5_" gradientUnits="userSpaceOnUse" x1="40.2353" y1="-23.7" x2="44.1216" y2="-23.7" gradientTransform="matrix(0.2667 0 0 -0.2667 0 4.2667)">
			<stop  offset="0" style="stop-color:#050505"/>
			<stop  offset="1" style="stop-color:#1E1E21"/>
		</linearGradient>
		<path class="st4" d="M11.3,13.6L11.3,13.6c-0.3,0-0.5-0.2-0.5-0.5V8.1c0-0.3,0.2-0.5,0.5-0.5l0,0c0.3,0,0.5,0.2,0.5,0.5v5
			C11.8,13.4,11.5,13.6,11.3,13.6z"/>
		
			<linearGradient id="SVGID_6_" gradientUnits="userSpaceOnUse" x1="23.6603" y1="-23.5" x2="38" y2="-23.5" gradientTransform="matrix(0.2667 0 0 -0.2667 0 4.2667)">
			<stop  offset="0" style="stop-color:#050505"/>
			<stop  offset="1" style="stop-color:#1E1E21"/>
		</linearGradient>
		<path class="st5" d="M10.1,8.3v4.5H8.5c-1.2,0-2.2-0.9-2.2-2.2C6.3,10,6.5,9.4,6.9,9c0.4-0.4,1-0.7,1.6-0.7H10.1z"/>
		
			<linearGradient id="SVGID_7_" gradientUnits="userSpaceOnUse" x1="10.4621" y1="-29.1366" x2="22" y2="-29.1366" gradientTransform="matrix(0.2667 0 0 -0.2667 0 4.2667)">
			<stop  offset="0" style="stop-color:#050505"/>
			<stop  offset="1" style="stop-color:#1E1E21"/>
		</linearGradient>
		<path class="st6" d="M5.3,10.1v0.2c-0.3,0-1.4,0.1-1.9,0.9c-0.6,0.8-0.6,1.3-0.6,1.7c0,0.3,0.1,1.3,0.7,1c0.6-0.3-0.3-0.8,0-1.6
			c0.3-0.9,1.3-1.4,1.9-1.5v0.4h0.5v-0.5v-0.2v-0.4H5.3z"/>
	</g>
</g>
</svg>
