<?xml version="1.0" encoding="utf-8"?>
<!-- Generator: Adobe Illustrator 18.1.0, SVG Export Plug-In . SVG Version: 6.00 Build 0)  -->
<svg version="1.1" id="图层_1" xmlns="http://www.w3.org/2000/svg" xmlns:xlink="http://www.w3.org/1999/xlink" x="0px" y="0px"
	 width="16px" height="16px" viewBox="0 0 16 16" style="enable-background:new 0 0 16 16;" xml:space="preserve">
<style type="text/css">
	.st0{fill:url(#SVGID_1_);}
	.st1{fill:url(#SVGID_2_);}
	.st2{fill:url(#SVGID_3_);}
	.st3{fill:url(#SVGID_4_);}
</style>
<g>
	
		<linearGradient id="SVGID_1_" gradientUnits="userSpaceOnUse" x1="0" y1="-14" x2="60" y2="-14" gradientTransform="matrix(0.2667 0 0 -0.2667 0 4.2667)">
		<stop  offset="0" style="stop-color:#B9BBBD"/>
		<stop  offset="3.208770e-002" style="stop-color:#B6B8BA"/>
		<stop  offset="5.619587e-002" style="stop-color:#ADAEB1"/>
		<stop  offset="8.827712e-002" style="stop-color:#9D9EA1"/>
		<stop  offset="0.1241" style="stop-color:#C1C1C2"/>
		<stop  offset="0.1924" style="stop-color:#F0F0F0"/>
		<stop  offset="0.2083" style="stop-color:#FBFBFB"/>
		<stop  offset="0.2247" style="stop-color:#FFFFFF"/>
		<stop  offset="0.3015" style="stop-color:#EEEEEF"/>
		<stop  offset="0.3853" style="stop-color:#E3E3E4"/>
		<stop  offset="0.4775" style="stop-color:#DFE0E1"/>
		<stop  offset="0.7191" style="stop-color:#FFFFFF"/>
		<stop  offset="0.779" style="stop-color:#FDFDFD"/>
		<stop  offset="0.8065" style="stop-color:#F6F5F5"/>
		<stop  offset="0.8258" style="stop-color:#EBEAEA"/>
		<stop  offset="0.927" style="stop-color:#797A7D"/>
		<stop  offset="1" style="stop-color:#BEC0C1"/>
	</linearGradient>
	<path class="st0" d="M13.5,16h-11C1.1,16,0,14.9,0,13.5v-11C0,1.1,1.1,0,2.5,0h11C14.9,0,16,1.1,16,2.5v11C16,14.9,14.9,16,13.5,16
		z"/>
	<g>
		
			<linearGradient id="SVGID_2_" gradientUnits="userSpaceOnUse" x1="8" y1="-14" x2="21.9596" y2="-14" gradientTransform="matrix(0.2667 0 0 -0.2667 0 4.2667)">
			<stop  offset="0" style="stop-color:#050505"/>
			<stop  offset="1" style="stop-color:#1E1E21"/>
		</linearGradient>
		<path class="st1" d="M5.8,9.5c-0.3,0-0.7,0-1,0c0,0,0-0.1,0-0.1c0-0.4,0-0.8,0-1.2c0-0.1,0-0.1-0.1-0.1c-0.5,0-1.1,0-1.6,0
			c0,0,0,0-0.1,0c0,0.4,0,0.9,0,1.3c-0.3,0-0.7,0-1,0c0-1,0-1.9,0-2.9c0.3,0,0.7,0,1,0c0,0,0,0.1,0,0.1c0,0.3,0,0.6,0,1
			c0,0.1,0,0.1,0.1,0.1c0.5,0,1,0,1.6,0c0.1,0,0.1,0,0.1-0.1c0-0.3,0-0.6,0-1c0,0,0-0.1,0-0.1c0,0,0.1,0,0.1,0c0.3,0,0.6,0,0.9,0
			c0.1,0,0.1,0,0.1,0.1C5.8,7.6,5.8,8.5,5.8,9.5C5.9,9.4,5.8,9.4,5.8,9.5z"/>
		
			<linearGradient id="SVGID_3_" gradientUnits="userSpaceOnUse" x1="37.6239" y1="-14" x2="52" y2="-14" gradientTransform="matrix(0.2667 0 0 -0.2667 0 4.2667)">
			<stop  offset="0" style="stop-color:#050505"/>
			<stop  offset="1" style="stop-color:#1E1E21"/>
		</linearGradient>
		<path class="st2" d="M13.9,6.5c0,0.2,0,0.3,0,0.5c0,0,0,0-0.1,0c-0.2,0-0.5,0-0.7,0c-0.3,0-0.6,0-0.9,0c-0.2,0-0.5,0.1-0.7,0.2
			c-0.3,0.2-0.3,0.6-0.3,0.9c0,0.2,0.1,0.4,0.3,0.6C11.7,8.9,11.9,9,12.1,9c0.6,0,1.1,0,1.7,0c0.1,0,0.1,0,0.1,0.1
			c0,0.1,0,0.3,0,0.4c0,0-0.1,0-0.1,0c-0.6,0-1.1,0-1.7,0c-0.3,0-0.6,0-0.9-0.1C10.4,9.2,10,8.6,10,7.9c0-0.2,0.1-0.4,0.1-0.5
			c0.1-0.3,0.4-0.5,0.7-0.6c0.3-0.1,0.7-0.2,1-0.2C12.5,6.5,13.1,6.5,13.9,6.5C13.8,6.5,13.8,6.5,13.9,6.5z"/>
		
			<linearGradient id="SVGID_4_" gradientUnits="userSpaceOnUse" x1="23.1364" y1="-14" x2="36.4795" y2="-14" gradientTransform="matrix(0.2667 0 0 -0.2667 0 4.2667)">
			<stop  offset="0" style="stop-color:#050505"/>
			<stop  offset="1" style="stop-color:#1E1E21"/>
		</linearGradient>
		<path class="st3" d="M8.9,7.9C9,7.9,9,8,9.1,8c0.1,0,0.2,0.1,0.3,0.1c0.2,0.1,0.3,0.3,0.3,0.6c0,0.1,0,0.2-0.1,0.2
			C9.6,9.2,9.4,9.3,9.1,9.4C8.9,9.4,8.7,9.4,8.6,9.4c-0.8,0-1.6,0-2.4,0c0,0,0,0-0.1,0c0-0.1,0-0.2,0-0.3c0,0,0.1,0,0.1,0
			c0.6,0,1.1,0,1.7,0c0.1,0,0.2,0,0.3,0C8.6,9,8.7,8.7,8.6,8.5C8.6,8.3,8.5,8.3,8.4,8.2C8.3,8.2,8.1,8.2,8,8.2c-0.4,0-0.9,0-1.3,0
			c0,0-0.1,0-0.1,0c0-0.1,0-0.3,0-0.4c0,0,0.1,0,0.1,0c0.4,0,0.9,0,1.3,0c0.1,0,0.2,0,0.3,0c0.2-0.1,0.3-0.2,0.3-0.3S8.5,7.1,8.3,7
			C8.2,7,8.1,6.9,8,6.9c-0.5,0-1.1,0-1.6,0c0,0-0.1,0-0.1,0c0-0.1,0-0.2,0-0.4c0.1,0,0.2,0,0.2,0c0.6,0,1.3,0,1.9,0
			c0.3,0,0.6,0.1,0.8,0.2C9.4,6.8,9.6,7,9.6,7.2c0,0.3-0.1,0.5-0.4,0.6C9.1,7.8,9,7.9,8.9,7.9z"/>
	</g>
</g>
</svg>
