<?xml version="1.0" encoding="utf-8"?>
<!-- Generator: Adobe Illustrator 18.1.0, SVG Export Plug-In . SVG Version: 6.00 Build 0)  -->
<svg version="1.1" id="图层_1" xmlns="http://www.w3.org/2000/svg" xmlns:xlink="http://www.w3.org/1999/xlink" x="0px" y="0px"
	 width="16px" height="16px" viewBox="0 0 16 16" style="enable-background:new 0 0 16 16;" xml:space="preserve">
<style type="text/css">
	.st0{fill:url(#SVGID_1_);}
	.st1{fill:url(#SVGID_2_);}
	.st2{fill:url(#SVGID_3_);}
	.st3{fill:url(#SVGID_4_);}
	.st4{fill:url(#SVGID_5_);}
	.st5{fill:url(#SVGID_6_);}
	.st6{fill:url(#SVGID_7_);}
	.st7{fill:url(#SVGID_8_);}
	.st8{fill:url(#SVGID_9_);}
	.st9{fill:url(#SVGID_10_);}
	.st10{fill:url(#SVGID_11_);}
	.st11{fill:url(#SVGID_12_);}
	.st12{fill:url(#SVGID_13_);}
</style>
<g>
	
		<linearGradient id="SVGID_1_" gradientUnits="userSpaceOnUse" x1="0" y1="-14" x2="60" y2="-14" gradientTransform="matrix(0.2667 0 0 -0.2667 0 4.2667)">
		<stop  offset="0" style="stop-color:#B9BBBD"/>
		<stop  offset="3.208770e-002" style="stop-color:#B6B8BA"/>
		<stop  offset="5.619587e-002" style="stop-color:#ADAEB1"/>
		<stop  offset="8.827712e-002" style="stop-color:#9D9EA1"/>
		<stop  offset="0.1241" style="stop-color:#C1C1C2"/>
		<stop  offset="0.1924" style="stop-color:#F0F0F0"/>
		<stop  offset="0.2083" style="stop-color:#FBFBFB"/>
		<stop  offset="0.2247" style="stop-color:#FFFFFF"/>
		<stop  offset="0.3015" style="stop-color:#EEEEEF"/>
		<stop  offset="0.3853" style="stop-color:#E3E3E4"/>
		<stop  offset="0.4775" style="stop-color:#DFE0E1"/>
		<stop  offset="0.7191" style="stop-color:#FFFFFF"/>
		<stop  offset="0.779" style="stop-color:#FDFDFD"/>
		<stop  offset="0.8065" style="stop-color:#F6F5F5"/>
		<stop  offset="0.8258" style="stop-color:#EBEAEA"/>
		<stop  offset="0.927" style="stop-color:#797A7D"/>
		<stop  offset="1" style="stop-color:#BEC0C1"/>
	</linearGradient>
	<path class="st0" d="M13.5,16h-11C1.1,16,0,14.9,0,13.5v-11C0,1.1,1.1,0,2.5,0h11C14.9,0,16,1.1,16,2.5v11C16,14.9,14.9,16,13.5,16
		z"/>
	<g>
		
			<linearGradient id="SVGID_2_" gradientUnits="userSpaceOnUse" x1="25" y1="-21.5" x2="31" y2="-21.5" gradientTransform="matrix(0.2667 0 0 -0.2667 0 4.2667)">
			<stop  offset="0" style="stop-color:#050505"/>
			<stop  offset="1" style="stop-color:#1E1E21"/>
		</linearGradient>
		<rect x="6.7" y="9.6" class="st1" width="1.6" height="0.8"/>
		
			<linearGradient id="SVGID_3_" gradientUnits="userSpaceOnUse" x1="19" y1="-11.5" x2="37" y2="-11.5" gradientTransform="matrix(0.2667 0 0 -0.2667 0 4.2667)">
			<stop  offset="0" style="stop-color:#050505"/>
			<stop  offset="1" style="stop-color:#1E1E21"/>
		</linearGradient>
		<path class="st2" d="M5.6,8.8v3.5h3.5V8.8H5.6z M8.5,11.7H8V12H6.9v-0.3H6.4v-0.3h0.5v-0.5h0.3v-0.5H6.7V9.3h1.6v1.1H7.7v0.5H8
			v0.5h0.5V11.7z M5.6,8.8v3.5h3.5V8.8H5.6z M8.5,11.7H8V12H6.9v-0.3H6.4v-0.3h0.5v-0.5h0.3v-0.5H6.7V9.3h1.6v1.1H7.7v0.5H8v0.5h0.5
			V11.7z M5.6,8.8v3.5h3.5V8.8H5.6z M8.5,11.7H8V12H6.9v-0.3H6.4v-0.3h0.5v-0.5h0.3v-0.5H6.7V9.3h1.6v1.1H7.7v0.5H8v0.5h0.5V11.7z
			 M5.6,8.8v3.5h3.5V8.8H5.6z M8.5,11.7H8V12H6.9v-0.3H6.4v-0.3h0.5v-0.5h0.3v-0.5H6.7V9.3h1.6v1.1H7.7v0.5H8v0.5h0.5V11.7z
			 M5.6,8.8v3.5h3.5V8.8H5.6z M8.5,11.7H8V12H6.9v-0.3H6.4v-0.3h0.5v-0.5h0.3v-0.5H6.7V9.3h1.6v1.1H7.7v0.5H8v0.5h0.5V11.7z
			 M5.6,8.8v3.5h3.5V8.8H5.6z M8.5,11.7H8V12H6.9v-0.3H6.4v-0.3h0.5v-0.5h0.3v-0.5H6.7V9.3h1.6v1.1H7.7v0.5H8v0.5h0.5V11.7z
			 M7.2,2.4V4h1.6V2.4H7.2z M5.6,8.8v3.5h3.5V8.8H5.6z M8.5,11.7H8V12H6.9v-0.3H6.4v-0.3h0.5v-0.5h0.3v-0.5H6.7V9.3h1.6v1.1H7.7v0.5
			H8v0.5h0.5V11.7z M5.6,8.8v3.5h3.5V8.8H5.6z M8.5,11.7H8V12H6.9v-0.3H6.4v-0.3h0.5v-0.5h0.3v-0.5H6.7V9.3h1.6v1.1H7.7v0.5H8v0.5
			h0.5V11.7z M7.2,2.4V4h1.6V2.4H7.2z M7.2,2.4V4h1.6V2.4H7.2z M5.6,8.8v3.5h3.5V8.8H5.6z M8.5,11.7H8V12H6.9v-0.3H6.4v-0.3h0.5
			v-0.5h0.3v-0.5H6.7V9.3h1.6v1.1H7.7v0.5H8v0.5h0.5V11.7z M5.6,8.8v3.5h3.5V8.8H5.6z M8.5,11.7H8V12H6.9v-0.3H6.4v-0.3h0.5v-0.5
			h0.3v-0.5H6.7V9.3h1.6v1.1H7.7v0.5H8v0.5h0.5V11.7z M7.2,2.4V4h1.6V2.4H7.2z M5.1,1.3v12h4.8v-12H5.1z M9,1.6
			c0.1,0,0.2,0.1,0.2,0.2S9.1,2.1,9,2.1S8.7,2,8.7,1.8C8.8,1.7,8.9,1.6,9,1.6z M6.9,2.1h2.1v2.1H6.9V2.1z M8.3,6.1h0.8v1.3H8.3V6.1z
			 M8.2,5.4C8.1,5.4,8,5.3,8,5.1C8,5,8.1,4.9,8.2,4.9S8.4,5,8.4,5.1C8.5,5.3,8.3,5.4,8.2,5.4z M7.9,7c0,0.2-0.2,0.3-0.3,0.3
			C7.4,7.4,7.2,7.2,7.2,7c0-0.2,0.2-0.3,0.3-0.3C7.7,6.7,7.9,6.9,7.9,7z M6.2,1.6c0.1,0,0.2,0.1,0.2,0.2S6.3,2.1,6.2,2.1
			C6.1,2.1,6,2,6,1.8C6,1.7,6.1,1.6,6.2,1.6z M6.5,5.1c0,0.2-0.2,0.4-0.4,0.4S5.6,5.3,5.6,5.1s0.2-0.4,0.4-0.4
			C6.3,4.7,6.5,4.9,6.5,5.1z M5.3,2.7h0.8V4H5.3V2.7z M5.3,5.9h1.3v0.8H5.3V5.9z M9.3,12.5h-4v-4h4V12.5z M9.1,8.8H5.6v3.5h3.5V8.8z
			 M8.5,11.7H8V12H6.9v-0.3H6.4v-0.3h0.5v-0.5h0.3v-0.5H6.7V9.3h1.6v1.1H7.7v0.5H8v0.5h0.5V11.7z M7.2,4h1.6V2.4H7.2V4z M7.2,2.4V4
			h1.6V2.4H7.2z M5.6,8.8v3.5h3.5V8.8H5.6z M8.5,11.7H8V12H6.9v-0.3H6.4v-0.3h0.5v-0.5h0.3v-0.5H6.7V9.3h1.6v1.1H7.7v0.5H8v0.5h0.5
			V11.7z M5.6,8.8v3.5h3.5V8.8H5.6z M8.5,11.7H8V12H6.9v-0.3H6.4v-0.3h0.5v-0.5h0.3v-0.5H6.7V9.3h1.6v1.1H7.7v0.5H8v0.5h0.5V11.7z
			 M7.2,2.4V4h1.6V2.4H7.2z M5.6,8.8v3.5h3.5V8.8H5.6z M8.5,11.7H8V12H6.9v-0.3H6.4v-0.3h0.5v-0.5h0.3v-0.5H6.7V9.3h1.6v1.1H7.7v0.5
			H8v0.5h0.5V11.7z M5.6,8.8v3.5h3.5V8.8H5.6z M8.5,11.7H8V12H6.9v-0.3H6.4v-0.3h0.5v-0.5h0.3v-0.5H6.7V9.3h1.6v1.1H7.7v0.5H8v0.5
			h0.5V11.7z M5.6,8.8v3.5h3.5V8.8H5.6z M8.5,11.7H8V12H6.9v-0.3H6.4v-0.3h0.5v-0.5h0.3v-0.5H6.7V9.3h1.6v1.1H7.7v0.5H8v0.5h0.5
			V11.7z M5.6,8.8v3.5h3.5V8.8H5.6z M8.5,11.7H8V12H6.9v-0.3H6.4v-0.3h0.5v-0.5h0.3v-0.5H6.7V9.3h1.6v1.1H7.7v0.5H8v0.5h0.5V11.7z
			 M5.6,8.8v3.5h3.5V8.8H5.6z M8.5,11.7H8V12H6.9v-0.3H6.4v-0.3h0.5v-0.5h0.3v-0.5H6.7V9.3h1.6v1.1H7.7v0.5H8v0.5h0.5V11.7z
			 M5.6,8.8v3.5h3.5V8.8H5.6z M8.5,11.7H8V12H6.9v-0.3H6.4v-0.3h0.5v-0.5h0.3v-0.5H6.7V9.3h1.6v1.1H7.7v0.5H8v0.5h0.5V11.7z"/>
		<g>
			
				<linearGradient id="SVGID_4_" gradientUnits="userSpaceOnUse" x1="12" y1="-37" x2="47" y2="-37" gradientTransform="matrix(0.2667 0 0 -0.2667 0 4.2667)">
				<stop  offset="0" style="stop-color:#050505"/>
				<stop  offset="1" style="stop-color:#1E1E21"/>
			</linearGradient>
			<polygon class="st3" points="3.5,14.7 3.2,14.7 3.2,13.6 12.5,13.6 12.5,13.9 3.5,13.9 			"/>
		</g>
		
			<linearGradient id="SVGID_5_" gradientUnits="userSpaceOnUse" x1="38" y1="-9.5" x2="41.5" y2="-9.5" gradientTransform="matrix(0.2667 0 0 -0.2667 0 4.2667)">
			<stop  offset="0" style="stop-color:#050505"/>
			<stop  offset="1" style="stop-color:#1E1E21"/>
		</linearGradient>
		<polygon class="st4" points="10.4,2.1 10.4,2.4 11.1,2.4 11.1,2.4 10.4,2.4 10.4,2.7 10.9,2.7 10.9,2.9 10.5,2.9 10.5,2.9 
			10.9,2.9 10.9,3.2 10.5,3.2 10.5,3.2 10.9,3.2 10.9,3.5 10.4,3.5 10.4,3.7 11.1,3.7 11.1,3.7 10.4,3.7 10.4,4 11.1,4 11.1,4 
			10.4,4 10.4,4.3 11.1,4.3 11.1,4.3 10.4,4.3 10.4,4.8 11.1,4.8 11.1,4.8 10.4,4.8 10.4,5.1 11.1,5.1 11.1,5.1 10.4,5.1 10.4,5.3 
			11.1,5.3 11.1,5.3 10.7,5.3 10.7,5.6 10.9,5.6 10.9,5.9 10.5,5.9 10.5,5.9 10.9,5.9 10.9,6.1 10.5,6.1 10.5,6.1 10.9,6.1 
			10.9,6.4 10.4,6.4 10.4,6.7 11.1,6.7 11.1,6.7 10.4,6.7 10.4,6.9 11.1,6.9 11.1,6.9 10.4,6.9 10.4,7.2 11.1,7.2 11.1,7.2 
			10.4,7.2 10.4,7.5 10.9,7.5 10.9,7.7 10.5,7.7 10.5,7.7 10.9,7.7 10.9,8 10.4,8 10.4,8.3 11.1,8.3 11.1,8.3 10.4,8.3 10.4,8.5 
			10.9,8.5 10.9,8.8 10.5,8.8 10.5,8.8 10.9,8.8 10.9,9.1 10.5,9.1 10.5,9.1 10.9,9.1 10.9,9.3 10.4,9.3 10.4,9.6 11.1,9.6 
			11.1,9.6 10.4,9.6 10.4,9.9 11.1,9.9 11.1,9.9 10.4,9.9 10.4,10.1 11.1,10.1 11.1,10.1 10.4,10.1 10.4,10.4 10.9,10.4 10.9,10.7 
			10.5,10.7 10.5,10.7 10.9,10.7 10.9,10.9 10.5,10.9 10.5,10.9 10.9,10.9 10.9,11.2 10.4,11.2 10.4,11.5 10.9,11.5 10.9,11.7 
			10.1,11.7 10.1,1.9 10.9,1.9 10.9,2.1 		"/>
		
			<linearGradient id="SVGID_6_" gradientUnits="userSpaceOnUse" x1="27" y1="4" x2="33" y2="4" gradientTransform="matrix(0.2667 0 0 -0.2667 0 4.2667)">
			<stop  offset="0" style="stop-color:#050505"/>
			<stop  offset="1" style="stop-color:#1E1E21"/>
		</linearGradient>
		<rect x="7.2" y="2.4" class="st5" width="1.6" height="1.6"/>
		
			<linearGradient id="SVGID_7_" gradientUnits="userSpaceOnUse" x1="27" y1="4" x2="33" y2="4" gradientTransform="matrix(0.2667 0 0 -0.2667 0 4.2667)">
			<stop  offset="0" style="stop-color:#050505"/>
			<stop  offset="1" style="stop-color:#1E1E21"/>
		</linearGradient>
		<rect x="7.2" y="2.4" class="st6" width="1.6" height="1.6"/>
		
			<linearGradient id="SVGID_8_" gradientUnits="userSpaceOnUse" x1="25" y1="-21.5" x2="31" y2="-21.5" gradientTransform="matrix(0.2667 0 0 -0.2667 0 4.2667)">
			<stop  offset="0" style="stop-color:#050505"/>
			<stop  offset="1" style="stop-color:#1E1E21"/>
		</linearGradient>
		<rect x="6.7" y="9.6" class="st7" width="1.6" height="0.8"/>
		
			<linearGradient id="SVGID_9_" gradientUnits="userSpaceOnUse" x1="21" y1="-23.5" x2="34" y2="-23.5" gradientTransform="matrix(0.2667 0 0 -0.2667 0 4.2667)">
			<stop  offset="0" style="stop-color:#050505"/>
			<stop  offset="1" style="stop-color:#1E1E21"/>
		</linearGradient>
		<path class="st8" d="M5.6,8.8v3.5h3.5V8.8H5.6z M8.5,11.7H8V12H6.9v-0.3H6.4v-0.3h0.5v-0.5h0.3v-0.5H6.7V9.3h1.6v1.1H7.7v0.5H8
			v0.5h0.5V11.7z"/>
		
			<linearGradient id="SVGID_10_" gradientUnits="userSpaceOnUse" x1="25" y1="-21.5" x2="31" y2="-21.5" gradientTransform="matrix(0.2667 0 0 -0.2667 0 4.2667)">
			<stop  offset="0" style="stop-color:#050505"/>
			<stop  offset="1" style="stop-color:#1E1E21"/>
		</linearGradient>
		<rect x="6.7" y="9.6" class="st9" width="1.6" height="0.8"/>
		
			<linearGradient id="SVGID_11_" gradientUnits="userSpaceOnUse" x1="21" y1="-23.5" x2="34" y2="-23.5" gradientTransform="matrix(0.2667 0 0 -0.2667 0 4.2667)">
			<stop  offset="0" style="stop-color:#050505"/>
			<stop  offset="1" style="stop-color:#1E1E21"/>
		</linearGradient>
		<path class="st10" d="M5.6,8.8v3.5h3.5V8.8H5.6z M8.5,11.7H8V12H6.9v-0.3H6.4v-0.3h0.5v-0.5h0.3v-0.5H6.7V9.3h1.6v1.1H7.7v0.5H8
			v0.5h0.5V11.7z"/>
		
			<linearGradient id="SVGID_12_" gradientUnits="userSpaceOnUse" x1="25" y1="-21.5" x2="31" y2="-21.5" gradientTransform="matrix(0.2667 0 0 -0.2667 0 4.2667)">
			<stop  offset="0" style="stop-color:#050505"/>
			<stop  offset="1" style="stop-color:#1E1E21"/>
		</linearGradient>
		<rect x="6.7" y="9.6" class="st11" width="1.6" height="0.8"/>
		
			<linearGradient id="SVGID_13_" gradientUnits="userSpaceOnUse" x1="25" y1="-21.5" x2="31" y2="-21.5" gradientTransform="matrix(0.2667 0 0 -0.2667 0 4.2667)">
			<stop  offset="0" style="stop-color:#050505"/>
			<stop  offset="1" style="stop-color:#1E1E21"/>
		</linearGradient>
		<rect x="6.7" y="9.6" class="st12" width="1.6" height="0.8"/>
	</g>
</g>
</svg>
