<?xml version="1.0" encoding="utf-8"?>
<!-- Generator: Adobe Illustrator 18.1.0, SVG Export Plug-In . SVG Version: 6.00 Build 0)  -->
<svg version="1.1" id="图层_1" xmlns="http://www.w3.org/2000/svg" xmlns:xlink="http://www.w3.org/1999/xlink" x="0px" y="0px"
	 width="16px" height="16px" viewBox="0 0 16 16" style="enable-background:new 0 0 16 16;" xml:space="preserve">
<style type="text/css">
	.st0{fill:url(#SVGID_1_);}
	.st1{fill:url(#SVGID_2_);}
	.st2{fill:url(#SVGID_3_);}
	.st3{fill:url(#SVGID_4_);}
	.st4{fill:url(#SVGID_5_);}
	.st5{fill:url(#SVGID_6_);}
	.st6{fill:url(#SVGID_7_);}
	.st7{fill:url(#SVGID_8_);}
	.st8{fill:url(#SVGID_9_);}
	.st9{fill:url(#SVGID_10_);}
	.st10{fill:url(#SVGID_11_);}
	.st11{fill:url(#SVGID_12_);}
	.st12{fill:url(#SVGID_13_);}
	.st13{fill:url(#SVGID_14_);}
	.st14{fill:url(#SVGID_15_);}
	.st15{fill:url(#SVGID_16_);}
	.st16{fill:url(#SVGID_17_);}
	.st17{fill:url(#SVGID_18_);}
	.st18{fill:url(#SVGID_19_);}
	.st19{fill:url(#SVGID_20_);}
	.st20{fill:url(#SVGID_21_);}
	.st21{fill:url(#SVGID_22_);}
	.st22{fill:url(#SVGID_23_);}
	.st23{fill:url(#SVGID_24_);}
	.st24{fill:url(#SVGID_25_);}
	.st25{fill:url(#SVGID_26_);}
	.st26{fill:url(#SVGID_27_);}
	.st27{fill:url(#SVGID_28_);}
	.st28{fill:url(#SVGID_29_);}
	.st29{fill:url(#SVGID_30_);}
	.st30{fill:url(#SVGID_31_);}
	.st31{fill:url(#SVGID_32_);}
	.st32{fill:url(#SVGID_33_);}
	.st33{fill:url(#SVGID_34_);}
	.st34{fill:url(#SVGID_35_);}
	.st35{fill:url(#SVGID_36_);}
	.st36{fill:url(#SVGID_37_);}
	.st37{fill:url(#SVGID_38_);}
	.st38{fill:url(#SVGID_39_);}
	.st39{fill:url(#SVGID_40_);}
	.st40{fill:url(#SVGID_41_);}
	.st41{fill:url(#SVGID_42_);}
	.st42{fill:url(#SVGID_43_);}
	.st43{fill:url(#SVGID_44_);}
</style>
<g>
	
		<linearGradient id="SVGID_1_" gradientUnits="userSpaceOnUse" x1="0" y1="-14" x2="60" y2="-14" gradientTransform="matrix(0.2667 0 0 -0.2667 0 4.2667)">
		<stop  offset="0" style="stop-color:#B9BBBD"/>
		<stop  offset="3.208770e-002" style="stop-color:#B6B8BA"/>
		<stop  offset="5.619587e-002" style="stop-color:#ADAEB1"/>
		<stop  offset="8.827712e-002" style="stop-color:#9D9EA1"/>
		<stop  offset="0.1241" style="stop-color:#C1C1C2"/>
		<stop  offset="0.1924" style="stop-color:#F0F0F0"/>
		<stop  offset="0.2083" style="stop-color:#FBFBFB"/>
		<stop  offset="0.2247" style="stop-color:#FFFFFF"/>
		<stop  offset="0.3015" style="stop-color:#EEEEEF"/>
		<stop  offset="0.3853" style="stop-color:#E3E3E4"/>
		<stop  offset="0.4775" style="stop-color:#DFE0E1"/>
		<stop  offset="0.7191" style="stop-color:#FFFFFF"/>
		<stop  offset="0.779" style="stop-color:#FDFDFD"/>
		<stop  offset="0.8065" style="stop-color:#F6F5F5"/>
		<stop  offset="0.8258" style="stop-color:#EBEAEA"/>
		<stop  offset="0.927" style="stop-color:#797A7D"/>
		<stop  offset="1" style="stop-color:#BEC0C1"/>
	</linearGradient>
	<path class="st0" d="M13.5,16h-11C1.1,16,0,14.9,0,13.5v-11C0,1.1,1.1,0,2.5,0h11C14.9,0,16,1.1,16,2.5v11C16,14.9,14.9,16,13.5,16
		z"/>
	<g>
		<g>
			
				<linearGradient id="SVGID_2_" gradientUnits="userSpaceOnUse" x1="12.3513" y1="-26.75" x2="18.0327" y2="-26.75" gradientTransform="matrix(0.2667 0 0 -0.2667 0 4.2667)">
				<stop  offset="0" style="stop-color:#050505"/>
				<stop  offset="1" style="stop-color:#1E1E21"/>
			</linearGradient>
			<path class="st1" d="M3.3,10.5h0.2h0.6c0.2,0,0.4,0.1,0.6,0.2c0.1,0.1,0.2,0.3,0.2,0.6c0,0.3-0.1,0.5-0.2,0.7
				c-0.1,0.2-0.3,0.2-0.6,0.2H3.5H3.3L3.3,10.5L3.3,10.5z M3.7,12H4c0.2,0,0.3-0.1,0.3-0.2c0.1-0.1,0.1-0.3,0.1-0.5
				c0-0.2,0-0.3-0.1-0.4c-0.1-0.1-0.2-0.1-0.3-0.1H3.7C3.7,10.8,3.7,12,3.7,12z"/>
			
				<linearGradient id="SVGID_3_" gradientUnits="userSpaceOnUse" x1="18.7446" y1="-26.8" x2="24.2446" y2="-26.8" gradientTransform="matrix(0.2667 0 0 -0.2667 0 4.2667)">
				<stop  offset="0" style="stop-color:#050505"/>
				<stop  offset="1" style="stop-color:#1E1E21"/>
			</linearGradient>
			<path class="st2" d="M6.1,11c0-0.1-0.1-0.2-0.1-0.2c-0.1-0.1-0.2-0.1-0.3-0.1s-0.2,0-0.2,0.1c-0.1,0.1-0.1,0.1-0.1,0.2
				c0,0.1,0,0.1,0.1,0.1s0.2,0.1,0.3,0.1c0.3,0.1,0.4,0.1,0.5,0.2c0.1,0.1,0.1,0.2,0.1,0.4c0,0.2-0.1,0.3-0.2,0.4
				c-0.1,0.1-0.3,0.2-0.5,0.2s-0.4-0.1-0.5-0.2C5.1,12.1,5,12,5,11.8h0.3c0,0.1,0,0.2,0.1,0.2c0.1,0.1,0.2,0.1,0.3,0.1S5.9,12,6,12
				c0.1,0,0.1-0.1,0.1-0.2s0-0.1-0.1-0.2c-0.1,0-0.2-0.1-0.3-0.1c-0.3-0.1-0.5-0.1-0.6-0.2C5.1,11.3,5,11.2,5,11
				c0-0.2,0.1-0.3,0.2-0.4c0.1-0.1,0.3-0.2,0.5-0.2s0.4,0.1,0.5,0.2c0.1,0.1,0.2,0.2,0.2,0.4C6.4,11,6.1,11,6.1,11z"/>
			
				<linearGradient id="SVGID_4_" gradientUnits="userSpaceOnUse" x1="27.4441" y1="-26.85" x2="32.009" y2="-26.85" gradientTransform="matrix(0.2667 0 0 -0.2667 0 4.2667)">
				<stop  offset="0" style="stop-color:#050505"/>
				<stop  offset="1" style="stop-color:#1E1E21"/>
			</linearGradient>
			<path class="st3" d="M8.5,11.7c0,0.2-0.1,0.3-0.2,0.5c-0.1,0.1-0.3,0.2-0.5,0.2c-0.2,0-0.3-0.1-0.4-0.1S7.3,12,7.3,11.8h0.3
				c0,0.1,0,0.1,0.1,0.2c0.1,0.1,0.1,0.1,0.2,0.1C8,12.1,8,12,8.1,12c0.1-0.1,0.1-0.1,0.1-0.2c0-0.1,0-0.2-0.1-0.2
				C8,11.4,8,11.4,7.9,11.4c-0.1,0-0.1,0-0.1,0c-0.1,0-0.1,0.1-0.1,0.1l-0.3,0l0.1-1h1v0.3H7.7l-0.1,0.4c0.1-0.1,0.2-0.1,0.3-0.1
				c0.2,0,0.3,0.1,0.4,0.2C8.5,11.4,8.5,11.5,8.5,11.7z"/>
			
				<linearGradient id="SVGID_5_" gradientUnits="userSpaceOnUse" x1="32.6832" y1="-26.8595" x2="37.2703" y2="-26.8595" gradientTransform="matrix(0.2667 0 0 -0.2667 0 4.2667)">
				<stop  offset="0" style="stop-color:#050505"/>
				<stop  offset="1" style="stop-color:#1E1E21"/>
			</linearGradient>
			<path class="st4" d="M8.9,12.1c-0.1-0.2-0.2-0.4-0.2-0.7c0-0.3,0.1-0.5,0.2-0.7s0.2-0.2,0.5-0.2s0.4,0.1,0.5,0.2
				c0.1,0.2,0.2,0.4,0.2,0.7l0,0c0,0.3-0.1,0.5-0.2,0.7c-0.1,0.2-0.3,0.2-0.5,0.2C9.1,12.3,9,12.3,8.9,12.1z M9.5,11.9
				c0-0.1,0.1-0.2,0.1-0.5s0-0.4-0.1-0.5c0-0.1-0.1-0.1-0.2-0.1S9.2,10.9,9.1,11c0,0.1-0.1,0.3-0.1,0.5c0,0.2,0,0.4,0.1,0.5
				s0.1,0.1,0.2,0.1S9.5,12,9.5,11.9z"/>
			
				<linearGradient id="SVGID_6_" gradientUnits="userSpaceOnUse" x1="37.8127" y1="-26.7" x2="42.3413" y2="-26.7" gradientTransform="matrix(0.2667 0 0 -0.2667 0 4.2667)">
				<stop  offset="0" style="stop-color:#050505"/>
				<stop  offset="1" style="stop-color:#1E1E21"/>
			</linearGradient>
			<path class="st5" d="M11.3,11.1c0,0.1,0,0.2-0.1,0.3c-0.1,0.1-0.2,0.2-0.3,0.3s-0.3,0.2-0.3,0.3l0,0h0.8v0.3h-1.2l0,0
				c0-0.2,0.1-0.3,0.1-0.4c0.1-0.1,0.2-0.2,0.5-0.4c0.1-0.1,0.2-0.1,0.2-0.2c0.1-0.1,0.1-0.1,0.1-0.2s0-0.1-0.1-0.2
				c-0.1-0.1-0.1-0.1-0.2-0.1s-0.1,0-0.2,0.1c-0.1,0.1-0.1,0.1-0.1,0.2h-0.3c0-0.2,0.1-0.3,0.2-0.5c0.1-0.1,0.2-0.2,0.5-0.2
				c0.2,0,0.3,0.1,0.4,0.2C11.2,10.8,11.3,10.9,11.3,11.1z"/>
			
				<linearGradient id="SVGID_7_" gradientUnits="userSpaceOnUse" x1="43.0604" y1="-26.8595" x2="47.6483" y2="-26.8595" gradientTransform="matrix(0.2667 0 0 -0.2667 0 4.2667)">
				<stop  offset="0" style="stop-color:#050505"/>
				<stop  offset="1" style="stop-color:#1E1E21"/>
			</linearGradient>
			<path class="st6" d="M11.6,12.1c-0.1-0.2-0.2-0.4-0.2-0.7c0-0.3,0.1-0.5,0.2-0.7s0.2-0.2,0.5-0.2s0.4,0.1,0.5,0.2
				c0.1,0.2,0.2,0.4,0.2,0.7l0,0c0,0.3-0.1,0.5-0.2,0.7c-0.1,0.2-0.3,0.2-0.5,0.2C11.9,12.3,11.7,12.3,11.6,12.1z M12.3,11.9
				c0-0.1,0.1-0.2,0.1-0.5s0-0.4-0.1-0.5c0-0.1-0.1-0.1-0.2-0.1s-0.2,0.1-0.2,0.1c0,0.1-0.1,0.3-0.1,0.5c0,0.2,0,0.4,0.1,0.5
				c0,0.1,0.1,0.1,0.2,0.1C12.2,12.1,12.2,12,12.3,11.9z"/>
		</g>
		<g>
			
				<linearGradient id="SVGID_8_" gradientUnits="userSpaceOnUse" x1="34.922" y1="-5.3929" x2="49.5454" y2="-5.3929" gradientTransform="matrix(0.2667 0 0 -0.2667 0 4.2667)">
				<stop  offset="0" style="stop-color:#050505"/>
				<stop  offset="1" style="stop-color:#1E1E21"/>
			</linearGradient>
			<path class="st7" d="M11.3,5.8c0-0.1,0-0.1,0.1-0.2c0,0,0.1-0.1,0.1-0.1c0.6,0,1.1,0,1.7,0c0.1,0,0.1,0,0.1,0.1
				c0,0.2,0,0.2-0.2,0.2s-0.4,0-0.7,0c-0.1,0-0.1,0-0.1-0.1c0-0.1,0-0.1,0-0.1h0c0,0.1,0,0.1-0.1,0.1c0,0.1-0.1,0.1-0.1,0.1
				c-0.5,0-1,0-1.6,0c-0.1,0-0.1,0-0.1-0.1c0-0.1,0-0.1-0.1-0.1c0,0.1,0,0.1,0,0.1c0,0.1,0,0.1-0.1,0.1c-0.3,0-0.6,0-0.8,0
				c-0.1,0-0.1,0-0.1-0.1c0-0.3-0.1-0.2,0.2-0.2c0.5,0,1,0,1.5,0c0.1,0,0.1,0,0.2,0.1C11.2,5.7,11.2,5.8,11.3,5.8
				C11.3,5.8,11.3,5.8,11.3,5.8z"/>
			
				<linearGradient id="SVGID_9_" gradientUnits="userSpaceOnUse" x1="17.796" y1="-0.6405" x2="31.3" y2="-0.6405" gradientTransform="matrix(0.2667 0 0 -0.2667 0 4.2667)">
				<stop  offset="0" style="stop-color:#050505"/>
				<stop  offset="1" style="stop-color:#1E1E21"/>
			</linearGradient>
			<path class="st8" d="M8.3,4.6c-0.1,0-0.2,0-0.3,0c-1.1,0-2.1,0-3.2,0c-0.1,0-0.1,0-0.1-0.1c0-0.2,0-0.2,0.2-0.2
				c1.1,0,2.1,0,3.2,0c0.1,0,0.2,0,0.2,0.1C8.3,4.5,8.3,4.5,8.3,4.6z"/>
			
				<linearGradient id="SVGID_10_" gradientUnits="userSpaceOnUse" x1="17.8136" y1="-12.3405" x2="31.2732" y2="-12.3405" gradientTransform="matrix(0.2667 0 0 -0.2667 0 4.2667)">
				<stop  offset="0" style="stop-color:#050505"/>
				<stop  offset="1" style="stop-color:#1E1E21"/>
			</linearGradient>
			<path class="st9" d="M6.6,7.4c0.6,0,1.1,0,1.7,0c0.1,0,0.1,0,0.1,0.1C8.3,7.7,8.3,7.7,8.1,7.7c-1.1,0-2.1,0-3.2,0
				c-0.1,0-0.1,0-0.1-0.1c0-0.2,0-0.2,0.2-0.2C5.5,7.4,6,7.4,6.6,7.4z"/>
			
				<linearGradient id="SVGID_11_" gradientUnits="userSpaceOnUse" x1="17.8122" y1="-14.6983" x2="29.8961" y2="-14.6983" gradientTransform="matrix(0.2667 0 0 -0.2667 0 4.2667)">
				<stop  offset="0" style="stop-color:#050505"/>
				<stop  offset="1" style="stop-color:#1E1E21"/>
			</linearGradient>
			<path class="st10" d="M8,8C7.8,8.2,7.5,8.3,7.3,8.3c-0.2,0-0.3,0-0.5,0c-0.6,0-1.3,0-1.9,0c-0.1,0-0.1,0-0.1-0.1
				C4.7,8,4.7,8,4.9,8c1,0,1.9,0,2.9,0C7.9,8,7.9,8,8,8z"/>
			
				<linearGradient id="SVGID_12_" gradientUnits="userSpaceOnUse" x1="17.8165" y1="1.7" x2="29.8165" y2="1.7" gradientTransform="matrix(0.2667 0 0 -0.2667 0 4.2667)">
				<stop  offset="0" style="stop-color:#050505"/>
				<stop  offset="1" style="stop-color:#1E1E21"/>
			</linearGradient>
			<path class="st11" d="M7.9,4C7.9,4,7.8,4,7.7,4C6.8,4,5.8,4,4.9,4C4.7,4,4.7,4,4.7,3.8c0-0.2,0-0.2,0.2-0.2c0.7,0,1.4,0,2.2,0
				c0.2,0,0.5,0,0.7,0.2C7.8,3.9,7.9,3.9,7.9,4C7.9,3.9,7.9,3.9,7.9,4z"/>
			
				<linearGradient id="SVGID_13_" gradientUnits="userSpaceOnUse" x1="20.2497" y1="-7.7" x2="30.7042" y2="-7.7" gradientTransform="matrix(0.2667 0 0 -0.2667 0 4.2667)">
				<stop  offset="0" style="stop-color:#050505"/>
				<stop  offset="1" style="stop-color:#1E1E21"/>
			</linearGradient>
			<path class="st12" d="M8.2,6.5c-0.9,0-1.8,0-2.7,0c-0.1,0-0.1,0-0.1-0.1c0-0.2,0-0.2,0.2-0.2c0.7,0,1.4,0,2.1,0
				c0.1,0,0.2,0,0.2,0.1C8.1,6.3,8.1,6.4,8.2,6.5z"/>
			
				<linearGradient id="SVGID_14_" gradientUnits="userSpaceOnUse" x1="20.2507" y1="-5.35" x2="30.6853" y2="-5.35" gradientTransform="matrix(0.2667 0 0 -0.2667 0 4.2667)">
				<stop  offset="0" style="stop-color:#050505"/>
				<stop  offset="1" style="stop-color:#1E1E21"/>
			</linearGradient>
			<path class="st13" d="M8.2,5.5C8.1,5.7,8,5.7,7.9,5.8c0,0-0.1,0-0.1,0c-0.8,0-1.6,0-2.3,0c-0.1,0-0.1,0-0.1-0.1
				c0-0.2,0-0.2,0.2-0.2C6.5,5.5,7.3,5.5,8.2,5.5C8.1,5.5,8.1,5.5,8.2,5.5z"/>
			
				<linearGradient id="SVGID_15_" gradientUnits="userSpaceOnUse" x1="8" y1="1.75" x2="16.5419" y2="1.75" gradientTransform="matrix(0.2667 0 0 -0.2667 0 4.2667)">
				<stop  offset="0" style="stop-color:#050505"/>
				<stop  offset="1" style="stop-color:#1E1E21"/>
			</linearGradient>
			<path class="st14" d="M3.3,3.7c0.3,0,0.7,0,1,0c0.1,0,0.1,0,0.1,0.1c0,0.2,0,0.2-0.2,0.2c-0.6,0-1.3,0-1.9,0
				c-0.1,0-0.1,0-0.1-0.1c0-0.2,0-0.2,0.2-0.2C2.6,3.7,3,3.7,3.3,3.7z"/>
			
				<linearGradient id="SVGID_16_" gradientUnits="userSpaceOnUse" x1="8" y1="-12.4" x2="16.5396" y2="-12.4" gradientTransform="matrix(0.2667 0 0 -0.2667 0 4.2667)">
				<stop  offset="0" style="stop-color:#050505"/>
				<stop  offset="1" style="stop-color:#1E1E21"/>
			</linearGradient>
			<path class="st15" d="M3.3,7.4c0.3,0,0.7,0,1,0c0.1,0,0.1,0,0.1,0.1c0,0.2,0,0.2-0.2,0.2c-0.7,0-1.3,0-2,0c-0.1,0-0.1,0-0.1-0.1
				c0-0.2,0-0.2,0.2-0.2C2.6,7.4,3,7.4,3.3,7.4z"/>
			
				<linearGradient id="SVGID_17_" gradientUnits="userSpaceOnUse" x1="8.0046" y1="-0.65" x2="16.5426" y2="-0.65" gradientTransform="matrix(0.2667 0 0 -0.2667 0 4.2667)">
				<stop  offset="0" style="stop-color:#050505"/>
				<stop  offset="1" style="stop-color:#1E1E21"/>
			</linearGradient>
			<path class="st16" d="M3.3,4.6c-0.3,0-0.7,0-1,0c-0.1,0-0.1,0-0.1-0.1c0-0.2,0-0.2,0.2-0.2c0.6,0,1.3,0,1.9,0
				c0.1,0,0.1,0,0.1,0.1c0,0.2,0,0.2-0.2,0.2C3.9,4.6,3.6,4.6,3.3,4.6z"/>
			
				<linearGradient id="SVGID_18_" gradientUnits="userSpaceOnUse" x1="8" y1="-14.65" x2="16.5409" y2="-14.65" gradientTransform="matrix(0.2667 0 0 -0.2667 0 4.2667)">
				<stop  offset="0" style="stop-color:#050505"/>
				<stop  offset="1" style="stop-color:#1E1E21"/>
			</linearGradient>
			<path class="st17" d="M3.3,8c0.3,0,0.7,0,1,0c0.1,0,0.1,0,0.1,0.1c0,0.2,0,0.2-0.2,0.2c-0.7,0-1.3,0-2,0c-0.1,0-0.1,0-0.1-0.1
				C2.1,8,2.1,8,2.3,8C2.6,8,3,8,3.3,8L3.3,8z"/>
			
				<linearGradient id="SVGID_19_" gradientUnits="userSpaceOnUse" x1="32.4915" y1="-0.65" x2="40.5595" y2="-0.65" gradientTransform="matrix(0.2667 0 0 -0.2667 0 4.2667)">
				<stop  offset="0" style="stop-color:#050505"/>
				<stop  offset="1" style="stop-color:#1E1E21"/>
			</linearGradient>
			<path class="st18" d="M10.8,4.6C10.8,4.6,10.8,4.6,10.8,4.6c-0.7,0-1.4,0-2,0c-0.1,0-0.1,0-0.1-0.1c0-0.2,0-0.2,0.2-0.2
				c0.6,0,1.2,0,1.8,0c0.1,0,0.1,0,0.1,0.1C10.7,4.5,10.8,4.5,10.8,4.6z"/>
			
				<linearGradient id="SVGID_20_" gradientUnits="userSpaceOnUse" x1="43.9166" y1="-0.7" x2="52" y2="-0.7" gradientTransform="matrix(0.2667 0 0 -0.2667 0 4.2667)">
				<stop  offset="0" style="stop-color:#050505"/>
				<stop  offset="1" style="stop-color:#1E1E21"/>
			</linearGradient>
			<path class="st19" d="M11.7,4.6c0-0.1,0.1-0.2,0.1-0.3c0,0,0.1,0,0.1,0c0.6,0,1.3,0,1.9,0c0.1,0,0.1,0,0.1,0.1
				c0,0.2,0,0.2-0.2,0.2c-0.6,0-1.2,0-1.8,0C11.8,4.6,11.8,4.6,11.7,4.6z"/>
			
				<linearGradient id="SVGID_21_" gradientUnits="userSpaceOnUse" x1="32.4917" y1="1.75" x2="39.7167" y2="1.75" gradientTransform="matrix(0.2667 0 0 -0.2667 0 4.2667)">
				<stop  offset="0" style="stop-color:#050505"/>
				<stop  offset="1" style="stop-color:#1E1E21"/>
			</linearGradient>
			<path class="st20" d="M10.6,3.9C10.6,3.9,10.5,3.9,10.6,3.9c-0.7,0-1.2,0-1.8,0c-0.1,0-0.1,0-0.1-0.1c0-0.2,0-0.2,0.2-0.2
				c0.5,0,1,0,1.5,0c0.1,0,0.1,0,0.1,0.1C10.5,3.8,10.6,3.9,10.6,3.9z"/>
			
				<linearGradient id="SVGID_22_" gradientUnits="userSpaceOnUse" x1="44.7859" y1="1.65" x2="51.9858" y2="1.65" gradientTransform="matrix(0.2667 0 0 -0.2667 0 4.2667)">
				<stop  offset="0" style="stop-color:#050505"/>
				<stop  offset="1" style="stop-color:#1E1E21"/>
			</linearGradient>
			<path class="st21" d="M11.9,4C11.9,3.9,11.9,3.9,11.9,4C12,3.7,12,3.7,12.3,3.7c0.5,0,1,0,1.4,0c0.1,0,0.1,0,0.1,0.1
				c0,0.2,0,0.2-0.2,0.2c-0.5,0-1,0-1.6,0C12.1,4,12,4,11.9,4z"/>
			
				<linearGradient id="SVGID_23_" gradientUnits="userSpaceOnUse" x1="34.9145" y1="-3.05" x2="41.3913" y2="-3.05" gradientTransform="matrix(0.2667 0 0 -0.2667 0 4.2667)">
				<stop  offset="0" style="stop-color:#050505"/>
				<stop  offset="1" style="stop-color:#1E1E21"/>
			</linearGradient>
			<path class="st22" d="M11,5.2c-0.1,0-0.1,0-0.1,0c-0.5,0-1,0-1.5,0c-0.1,0-0.1,0-0.1-0.1c0-0.1,0-0.1,0-0.2c0,0,0.1,0,0.1,0
				c0.5,0,1,0,1.4,0C10.9,4.9,11,5,11,5C11,5.1,11,5.1,11,5.2z"/>
			
				<linearGradient id="SVGID_24_" gradientUnits="userSpaceOnUse" x1="43.0848" y1="-3" x2="49.5509" y2="-3" gradientTransform="matrix(0.2667 0 0 -0.2667 0 4.2667)">
				<stop  offset="0" style="stop-color:#050505"/>
				<stop  offset="1" style="stop-color:#1E1E21"/>
			</linearGradient>
			<path class="st23" d="M11.5,5.2c0-0.1,0.1-0.2,0.1-0.3c0,0,0.1-0.1,0.1-0.1c0.5,0,1,0,1.5,0c0.1,0,0.1,0,0.1,0.1
				c0,0.2,0,0.2-0.2,0.2c-0.5,0-0.9,0-1.4,0C11.6,5.2,11.5,5.2,11.5,5.2z"/>
			
				<linearGradient id="SVGID_25_" gradientUnits="userSpaceOnUse" x1="32.4939" y1="-12.3" x2="38.5449" y2="-12.3" gradientTransform="matrix(0.2667 0 0 -0.2667 0 4.2667)">
				<stop  offset="0" style="stop-color:#050505"/>
				<stop  offset="1" style="stop-color:#1E1E21"/>
			</linearGradient>
			<path class="st24" d="M9.5,7.7c-0.2,0-0.5,0-0.7,0c-0.1,0-0.1,0-0.1-0.1c0-0.2,0-0.2,0.2-0.2c0.4,0,0.9,0,1.3,0
				c0.1,0,0.1,0,0.1,0.1c0,0.2,0,0.2-0.2,0.2C9.9,7.7,9.7,7.7,9.5,7.7z"/>
			
				<linearGradient id="SVGID_26_" gradientUnits="userSpaceOnUse" x1="32.5" y1="-14.8" x2="38.541" y2="-14.8" gradientTransform="matrix(0.2667 0 0 -0.2667 0 4.2667)">
				<stop  offset="0" style="stop-color:#050505"/>
				<stop  offset="1" style="stop-color:#1E1E21"/>
			</linearGradient>
			<path class="st25" d="M9.5,8.3c-0.2,0-0.5,0-0.7,0c-0.1,0-0.1,0-0.1-0.1c0-0.2,0-0.2,0.2-0.2c0.4,0,0.9,0,1.3,0
				c0.1,0,0.1,0,0.1,0.1c0,0.2,0,0.2-0.2,0.2C9.9,8.3,9.7,8.3,9.5,8.3z"/>
			
				<linearGradient id="SVGID_27_" gradientUnits="userSpaceOnUse" x1="45.9191" y1="-14.6875" x2="51.9846" y2="-14.6875" gradientTransform="matrix(0.2667 0 0 -0.2667 0 4.2667)">
				<stop  offset="0" style="stop-color:#050505"/>
				<stop  offset="1" style="stop-color:#1E1E21"/>
			</linearGradient>
			<path class="st26" d="M13,8.3c-0.2,0-0.5,0-0.7,0c-0.1,0-0.1,0-0.1-0.1c0-0.2,0-0.2,0.2-0.2c0.4,0,0.9,0,1.3,0
				c0.1,0,0.1,0,0.1,0.1c0,0.2,0,0.2-0.2,0.2C13.5,8.3,13.3,8.3,13,8.3L13,8.3z"/>
			
				<linearGradient id="SVGID_28_" gradientUnits="userSpaceOnUse" x1="45.9214" y1="-12.4" x2="51.9806" y2="-12.4" gradientTransform="matrix(0.2667 0 0 -0.2667 0 4.2667)">
				<stop  offset="0" style="stop-color:#050505"/>
				<stop  offset="1" style="stop-color:#1E1E21"/>
			</linearGradient>
			<path class="st27" d="M13,7.7c-0.2,0-0.5,0-0.7,0c-0.1,0-0.1,0-0.1-0.1c0-0.2,0-0.2,0.2-0.2c0.4,0,0.9,0,1.3,0
				c0.1,0,0.1,0,0.1,0.1c0,0.2,0,0.2-0.2,0.2C13.5,7.7,13.3,7.7,13,7.7z"/>
			
				<linearGradient id="SVGID_29_" gradientUnits="userSpaceOnUse" x1="39.3619" y1="-7.7" x2="45.0875" y2="-7.7" gradientTransform="matrix(0.2667 0 0 -0.2667 0 4.2667)">
				<stop  offset="0" style="stop-color:#050505"/>
				<stop  offset="1" style="stop-color:#1E1E21"/>
			</linearGradient>
			<path class="st28" d="M12,6.2L12,6.2c-0.1,0.3-0.1,0.3-0.4,0.3c-0.3,0-0.6,0-0.9,0c-0.1,0-0.1,0-0.1-0.1c0-0.1-0.1-0.2-0.1-0.2
				C11,6.2,11.5,6.2,12,6.2z"/>
			
				<linearGradient id="SVGID_30_" gradientUnits="userSpaceOnUse" x1="34.9109" y1="-7.7" x2="38.5435" y2="-7.7" gradientTransform="matrix(0.2667 0 0 -0.2667 0 4.2667)">
				<stop  offset="0" style="stop-color:#050505"/>
				<stop  offset="1" style="stop-color:#1E1E21"/>
			</linearGradient>
			<path class="st29" d="M9.8,6.5c-0.1,0-0.3,0-0.4,0c-0.1,0-0.1,0-0.1-0.1c0-0.2,0-0.2,0.2-0.2c0.2,0,0.4,0,0.6,0
				c0.1,0,0.1,0,0.1,0.1c0,0.2,0,0.2-0.2,0.2C10,6.5,9.9,6.5,9.8,6.5L9.8,6.5z"/>
			
				<linearGradient id="SVGID_31_" gradientUnits="userSpaceOnUse" x1="45.92" y1="-7.7" x2="49.546" y2="-7.7" gradientTransform="matrix(0.2667 0 0 -0.2667 0 4.2667)">
				<stop  offset="0" style="stop-color:#050505"/>
				<stop  offset="1" style="stop-color:#1E1E21"/>
			</linearGradient>
			<path class="st30" d="M12.7,6.2c0.1,0,0.3,0,0.4,0c0.1,0,0.1,0,0.1,0.1c0,0.2,0,0.2-0.2,0.2c-0.2,0-0.4,0-0.6,0
				c-0.1,0-0.1,0-0.1-0.1c0-0.2,0-0.2,0.2-0.2C12.6,6.2,12.6,6.2,12.7,6.2z"/>
			
				<linearGradient id="SVGID_32_" gradientUnits="userSpaceOnUse" x1="27.5833" y1="-9.95" x2="31.4406" y2="-9.95" gradientTransform="matrix(0.2667 0 0 -0.2667 0 4.2667)">
				<stop  offset="0" style="stop-color:#050505"/>
				<stop  offset="1" style="stop-color:#1E1E21"/>
			</linearGradient>
			<path class="st31" d="M7.4,6.8c0.1,0,0.2,0,0.2,0c0.2,0,0.5,0,0.7,0c0.1,0,0.1,0,0.1,0.1c0,0,0,0,0,0c0.1,0.2,0.1,0.2-0.2,0.2
				c-0.2,0-0.5,0-0.7,0C7.4,7.1,7.3,7,7.3,7C7.4,6.9,7.4,6.9,7.4,6.8z"/>
			
				<linearGradient id="SVGID_33_" gradientUnits="userSpaceOnUse" x1="27.5659" y1="-2.95" x2="31.454" y2="-2.95" gradientTransform="matrix(0.2667 0 0 -0.2667 0 4.2667)">
				<stop  offset="0" style="stop-color:#050505"/>
				<stop  offset="1" style="stop-color:#1E1E21"/>
			</linearGradient>
			<path class="st32" d="M8.4,4.9c0,0.1,0,0.2-0.1,0.2c0,0-0.1,0.1-0.1,0.1c-0.3,0-0.6,0-0.9,0c-0.1,0-0.1,0-0.1-0.1
				c0-0.2,0-0.2,0.2-0.2c0.2,0,0.5,0,0.7,0C8.3,4.9,8.3,4.9,8.4,4.9z"/>
			
				<linearGradient id="SVGID_34_" gradientUnits="userSpaceOnUse" x1="10.4481" y1="-7.7" x2="14.0487" y2="-7.7" gradientTransform="matrix(0.2667 0 0 -0.2667 0 4.2667)">
				<stop  offset="0" style="stop-color:#050505"/>
				<stop  offset="1" style="stop-color:#1E1E21"/>
			</linearGradient>
			<path class="st33" d="M3.7,6.2c0,0.1,0,0.2,0,0.3c0,0,0,0.1-0.1,0.1c-0.3,0-0.5,0-0.8,0c-0.1,0-0.1,0-0.1-0.1
				c0-0.2,0-0.2,0.2-0.2C3.3,6.2,3.5,6.2,3.7,6.2z"/>
			
				<linearGradient id="SVGID_35_" gradientUnits="userSpaceOnUse" x1="40.1771" y1="-10.05" x2="44.2982" y2="-10.05" gradientTransform="matrix(0.2667 0 0 -0.2667 0 4.2667)">
				<stop  offset="0" style="stop-color:#050505"/>
				<stop  offset="1" style="stop-color:#1E1E21"/>
			</linearGradient>
			<path class="st34" d="M11.8,6.8c0,0.1-0.1,0.2-0.1,0.2c0,0-0.1,0.1-0.1,0.1c-0.3,0-0.5,0-0.8,0c0,0-0.1,0-0.1-0.1
				c0-0.1-0.1-0.2-0.1-0.2C11.1,6.8,11.4,6.8,11.8,6.8z"/>
			
				<linearGradient id="SVGID_36_" gradientUnits="userSpaceOnUse" x1="20.2499" y1="-3" x2="23.872" y2="-3" gradientTransform="matrix(0.2667 0 0 -0.2667 0 4.2667)">
				<stop  offset="0" style="stop-color:#050505"/>
				<stop  offset="1" style="stop-color:#1E1E21"/>
			</linearGradient>
			<path class="st35" d="M5.4,4.9c0.1,0,0.2,0,0.3,0c0.2,0,0.4,0,0.6,0c0.1,0,0.1,0,0.1,0.1c0,0.3,0.1,0.2-0.2,0.2
				c-0.2,0-0.5,0-0.7,0c-0.1,0-0.1,0-0.1-0.1C5.4,5.1,5.4,5,5.4,4.9z"/>
			
				<linearGradient id="SVGID_37_" gradientUnits="userSpaceOnUse" x1="20.2512" y1="-9.9082" x2="23.8705" y2="-9.9082" gradientTransform="matrix(0.2667 0 0 -0.2667 0 4.2667)">
				<stop  offset="0" style="stop-color:#050505"/>
				<stop  offset="1" style="stop-color:#1E1E21"/>
			</linearGradient>
			<path class="st36" d="M5.9,6.8c0.1,0,0.3,0,0.4,0c0.1,0,0.1,0,0.1,0.1c0,0.3,0,0.2-0.2,0.2c-0.2,0-0.4,0-0.7,0
				C5.4,7.1,5.4,7,5.4,7c0-0.2,0-0.2,0.2-0.2C5.7,6.8,5.8,6.8,5.9,6.8z"/>
			
				<linearGradient id="SVGID_38_" gradientUnits="userSpaceOnUse" x1="34.9183" y1="-10" x2="38.5382" y2="-10" gradientTransform="matrix(0.2667 0 0 -0.2667 0 4.2667)">
				<stop  offset="0" style="stop-color:#050505"/>
				<stop  offset="1" style="stop-color:#1E1E21"/>
			</linearGradient>
			<path class="st37" d="M9.8,6.8c0.1,0,0.3,0,0.4,0c0.1,0,0.1,0,0.1,0.1c0,0.3,0,0.2-0.2,0.2c-0.2,0-0.4,0-0.7,0
				c-0.1,0-0.1,0-0.1-0.1c0-0.2,0-0.2,0.2-0.2C9.6,6.8,9.7,6.8,9.8,6.8L9.8,6.8z"/>
			
				<linearGradient id="SVGID_39_" gradientUnits="userSpaceOnUse" x1="45.9207" y1="-9.9082" x2="49.5432" y2="-9.9082" gradientTransform="matrix(0.2667 0 0 -0.2667 0 4.2667)">
				<stop  offset="0" style="stop-color:#050505"/>
				<stop  offset="1" style="stop-color:#1E1E21"/>
			</linearGradient>
			<path class="st38" d="M12.7,6.8c0.1,0,0.3,0,0.4,0c0.1,0,0.1,0,0.1,0.1c0,0.3,0,0.2-0.2,0.2c-0.2,0-0.4,0-0.7,0
				c-0.1,0-0.1,0-0.1-0.1c0-0.2,0-0.2,0.2-0.2C12.5,6.8,12.6,6.8,12.7,6.8z"/>
			
				<linearGradient id="SVGID_40_" gradientUnits="userSpaceOnUse" x1="10.481" y1="-3.0418" x2="14.0535" y2="-3.0418" gradientTransform="matrix(0.2667 0 0 -0.2667 0 4.2667)">
				<stop  offset="0" style="stop-color:#050505"/>
				<stop  offset="1" style="stop-color:#1E1E21"/>
			</linearGradient>
			<path class="st39" d="M3.3,5.2c-0.1,0-0.3,0-0.4,0c-0.1,0-0.1,0-0.1-0.1c0-0.3,0-0.2,0.2-0.2c0.2,0,0.4,0,0.7,0
				c0.1,0,0.1,0,0.1,0.1c0,0.2,0,0.2-0.2,0.2C3.4,5.2,3.4,5.2,3.3,5.2z"/>
			
				<linearGradient id="SVGID_41_" gradientUnits="userSpaceOnUse" x1="10.4737" y1="-9.9517" x2="14.0491" y2="-9.9517" gradientTransform="matrix(0.2667 0 0 -0.2667 0 4.2667)">
				<stop  offset="0" style="stop-color:#050505"/>
				<stop  offset="1" style="stop-color:#1E1E21"/>
			</linearGradient>
			<path class="st40" d="M3.3,6.8c0.1,0,0.3,0,0.4,0c0.1,0,0.1,0,0.1,0.1c0,0.2,0,0.2-0.2,0.2c-0.2,0-0.4,0-0.6,0
				C2.8,7.1,2.8,7,2.8,7c0-0.2,0-0.2,0.2-0.2C3.1,6.8,3.2,6.8,3.3,6.8L3.3,6.8z"/>
			
				<linearGradient id="SVGID_42_" gradientUnits="userSpaceOnUse" x1="10.4373" y1="-5.35" x2="14.0544" y2="-5.35" gradientTransform="matrix(0.2667 0 0 -0.2667 0 4.2667)">
				<stop  offset="0" style="stop-color:#050505"/>
				<stop  offset="1" style="stop-color:#1E1E21"/>
			</linearGradient>
			<path class="st41" d="M3.7,5.8c-0.3,0-0.6,0-0.9,0C2.7,5.5,2.7,5.5,3,5.5c0.2,0,0.4,0,0.6,0c0.1,0,0.1,0,0.1,0.1
				C3.7,5.7,3.7,5.8,3.7,5.8z"/>
			
				<linearGradient id="SVGID_43_" gradientUnits="userSpaceOnUse" x1="41" y1="-12.35" x2="43.4757" y2="-12.35" gradientTransform="matrix(0.2667 0 0 -0.2667 0 4.2667)">
				<stop  offset="0" style="stop-color:#050505"/>
				<stop  offset="1" style="stop-color:#1E1E21"/>
			</linearGradient>
			<path class="st42" d="M10.9,7.4c0.2,0,0.4,0,0.7,0c0,0.1-0.1,0.2-0.1,0.2c0,0-0.1,0-0.1,0.1c-0.1,0-0.2,0-0.3,0
				c0,0-0.1,0-0.1-0.1C11,7.6,11,7.5,10.9,7.4z"/>
			
				<linearGradient id="SVGID_44_" gradientUnits="userSpaceOnUse" x1="41.8257" y1="-14.65" x2="42.6567" y2="-14.65" gradientTransform="matrix(0.2667 0 0 -0.2667 0 4.2667)">
				<stop  offset="0" style="stop-color:#050505"/>
				<stop  offset="1" style="stop-color:#1E1E21"/>
			</linearGradient>
			<path class="st43" d="M11.3,8.3c0-0.1-0.1-0.2-0.1-0.3c0.1,0,0.1,0,0.2,0C11.3,8.1,11.3,8.2,11.3,8.3C11.3,8.3,11.3,8.3,11.3,8.3
				z"/>
		</g>
	</g>
</g>
</svg>
