<?xml version="1.0" encoding="utf-8"?>
<!-- Generator: Adobe Illustrator 18.1.0, SVG Export Plug-In . SVG Version: 6.00 Build 0)  -->
<svg version="1.1" id="图层_1" xmlns="http://www.w3.org/2000/svg" xmlns:xlink="http://www.w3.org/1999/xlink" x="0px" y="0px"
	 width="16px" height="16px" viewBox="0 0 16 16" style="enable-background:new 0 0 16 16;" xml:space="preserve">
<style type="text/css">
	.st0{fill:url(#SVGID_1_);}
	.st1{fill:url(#SVGID_2_);}
	.st2{fill:url(#SVGID_3_);}
	.st3{fill:url(#SVGID_4_);}
	.st4{fill:url(#SVGID_5_);}
	.st5{fill:url(#SVGID_6_);}
	.st6{fill:url(#SVGID_7_);}
	.st7{fill:url(#SVGID_8_);}
	.st8{fill:url(#SVGID_9_);}
	.st9{fill:url(#SVGID_10_);}
	.st10{fill:url(#SVGID_11_);}
	.st11{fill:url(#SVGID_12_);}
	.st12{fill:url(#SVGID_13_);}
	.st13{fill:url(#SVGID_14_);}
</style>
<g>
	
		<linearGradient id="SVGID_1_" gradientUnits="userSpaceOnUse" x1="0" y1="-14" x2="60" y2="-14" gradientTransform="matrix(0.2667 0 0 -0.2667 0 4.2667)">
		<stop  offset="0" style="stop-color:#B9BBBD"/>
		<stop  offset="3.208770e-002" style="stop-color:#B6B8BA"/>
		<stop  offset="5.619587e-002" style="stop-color:#ADAEB1"/>
		<stop  offset="8.827712e-002" style="stop-color:#9D9EA1"/>
		<stop  offset="0.1241" style="stop-color:#C1C1C2"/>
		<stop  offset="0.1924" style="stop-color:#F0F0F0"/>
		<stop  offset="0.2083" style="stop-color:#FBFBFB"/>
		<stop  offset="0.2247" style="stop-color:#FFFFFF"/>
		<stop  offset="0.3015" style="stop-color:#EEEEEF"/>
		<stop  offset="0.3853" style="stop-color:#E3E3E4"/>
		<stop  offset="0.4775" style="stop-color:#DFE0E1"/>
		<stop  offset="0.7191" style="stop-color:#FFFFFF"/>
		<stop  offset="0.779" style="stop-color:#FDFDFD"/>
		<stop  offset="0.8065" style="stop-color:#F6F5F5"/>
		<stop  offset="0.8258" style="stop-color:#EBEAEA"/>
		<stop  offset="0.927" style="stop-color:#797A7D"/>
		<stop  offset="1" style="stop-color:#BEC0C1"/>
	</linearGradient>
	<path class="st0" d="M13.5,16h-11C1.1,16,0,14.9,0,13.5v-11C0,1.1,1.1,0,2.5,0h11C14.9,0,16,1.1,16,2.5v11C16,14.9,14.9,16,13.5,16
		z"/>
	<g>
		<g>
			
				<linearGradient id="SVGID_2_" gradientUnits="userSpaceOnUse" x1="8" y1="-23.05" x2="18.8936" y2="-23.05" gradientTransform="matrix(0.2667 0 0 -0.2667 0 4.2667)">
				<stop  offset="0" style="stop-color:#050505"/>
				<stop  offset="1" style="stop-color:#1E1E21"/>
			</linearGradient>
			<path class="st1" d="M3.8,11.4c-0.1,0-0.2,0-0.3,0c-0.1-0.1-0.1-0.2-0.1-0.3c-0.1-0.1-0.1-0.2-0.1-0.3C3.1,10.7,3,10.6,3,10.6
				c-0.1-0.1-0.1-0.2-0.1-0.3c-0.1-0.1-0.1-0.2-0.2-0.3c0,0,0,0,0,0c0,0,0,0,0,0.1c0,0.4,0,0.7,0,1.1c0,0,0,0.1,0,0.1h0
				c-0.2,0-0.3,0-0.5,0c0,0,0,0,0,0v0c0,0,0,0,0-0.1c0-0.6,0-1.1,0-1.7c0,0,0-0.1,0-0.1h0c0.2,0,0.5,0,0.7,0c0,0,0,0,0,0
				c0,0,0,0,0,0.1c0.2,0.3,0.4,0.7,0.6,1c0,0,0,0,0,0.1c0,0,0,0,0-0.1c0.1-0.1,0.1-0.2,0.2-0.3C3.9,10,4.1,9.8,4.2,9.5
				c0,0,0,0,0-0.1c0.1,0,0.7,0,0.8,0v0c0,0,0,0,0,0.1c0,0.6,0,1.1,0,1.7c0,0,0,0.1,0,0.1h0c-0.2,0-0.3,0-0.5,0h0c0,0,0-0.1,0-0.1
				c0-0.3,0-0.5,0-0.8c0-0.1,0-0.3,0-0.4c0,0,0,0,0-0.1c0,0,0,0,0,0c-0.1,0.1-0.1,0.2-0.2,0.3C4.2,10.7,4,11,3.8,11.4
				C3.8,11.3,3.8,11.3,3.8,11.4z"/>
			
				<linearGradient id="SVGID_3_" gradientUnits="userSpaceOnUse" x1="43.4233" y1="-23.2" x2="52" y2="-23.2" gradientTransform="matrix(0.2667 0 0 -0.2667 0 4.2667)">
				<stop  offset="0" style="stop-color:#050505"/>
				<stop  offset="1" style="stop-color:#1E1E21"/>
			</linearGradient>
			<path class="st2" d="M13.3,9.5c0.1,0,0.4,0,0.5,0v0c0,0,0,0,0,0.1c0,0.4,0,0.8,0,1.2c0,0.1,0,0.1,0,0.2c-0.1,0.2-0.3,0.4-0.5,0.4
				c-0.2,0-0.3,0-0.5,0c-0.3,0-0.5,0-0.8,0c-0.2,0-0.3-0.1-0.4-0.2c-0.1-0.1-0.1-0.2-0.1-0.3c0-0.4,0-0.8,0-1.3c0,0,0,0,0-0.1l0,0
				l0,0c0.1,0,0.3,0,0.4,0c0,0,0,0,0.1,0c0,0,0,0,0,0c0,0,0,0,0,0.1c0,0.2,0,0.3,0,0.5c0,0.2,0,0.4,0,0.5c0,0,0,0.1,0,0.1
				c0,0.1,0.1,0.2,0.2,0.2h0c0.2,0,0.5,0,0.7,0c0,0,0.1,0,0.1,0c0.1,0,0.2-0.1,0.2-0.2c0,0,0-0.1,0-0.1C13.3,10.2,13.3,9.9,13.3,9.5
				C13.3,9.6,13.3,9.5,13.3,9.5z"/>
			
				<linearGradient id="SVGID_4_" gradientUnits="userSpaceOnUse" x1="19.9468" y1="-23.25" x2="29.7743" y2="-23.25" gradientTransform="matrix(0.2667 0 0 -0.2667 0 4.2667)">
				<stop  offset="0" style="stop-color:#050505"/>
				<stop  offset="1" style="stop-color:#1E1E21"/>
			</linearGradient>
			<path class="st3" d="M5.3,11.4C5.3,11.3,5.3,11.3,5.3,11.4c0.3-0.6,0.6-1.2,1-1.8l0,0l0,0c0,0,0,0,0.1,0c0.2,0,0.4,0,0.6,0
				c0,0,0,0,0.1,0.1c0.2,0.3,0.4,0.7,0.6,1c0.1,0.2,0.2,0.5,0.4,0.7c0,0,0,0,0,0.1h0c-0.5,0-1,0-1.4,0c0,0,0,0,0,0
				c0.1-0.1,0.1-0.2,0.2-0.4c0,0,0,0,0,0c0.1,0,0.1,0,0.1,0c0.1,0,0.1,0,0.1,0C7,11,7,11,7.1,11c0,0,0,0,0-0.1C7,10.8,7,10.7,7,10.6
				c-0.1-0.2-0.2-0.4-0.3-0.6c0,0,0,0,0-0.1c0,0,0,0,0,0c-0.1,0.1-0.1,0.2-0.1,0.3c-0.2,0.3-0.3,0.7-0.5,1c0,0,0,0,0,0.1
				C5.7,11.4,5.5,11.4,5.3,11.4z"/>
			
				<linearGradient id="SVGID_5_" gradientUnits="userSpaceOnUse" x1="34.1391" y1="-23.2" x2="42.3993" y2="-23.2" gradientTransform="matrix(0.2667 0 0 -0.2667 0 4.2667)">
				<stop  offset="0" style="stop-color:#050505"/>
				<stop  offset="1" style="stop-color:#1E1E21"/>
			</linearGradient>
			<path class="st4" d="M9.6,10.9c0,0.1,0,0.3,0,0.4h0c-0.2,0-0.3,0-0.5,0h0c0,0,0-0.1,0-0.1c0-0.2,0-0.3,0-0.5c0-0.1,0-0.1,0-0.2
				c0,0,0,0,0-0.1c0,0,0.1,0,0.1,0c0.5,0,0.9,0,1.3,0c0,0,0,0,0.1,0c0.1,0,0.2-0.1,0.2-0.2c0,0,0-0.1,0-0.1c0-0.1-0.1-0.2-0.2-0.2
				c0,0,0,0-0.1,0c-0.4,0-0.9,0-1.3,0c0,0-0.1,0-0.1,0c0,0,0,0,0,0c0-0.1,0-0.3,0-0.4c0,0,0.1,0,0.1,0c0.3,0,0.5,0,0.8,0
				c0.2,0,0.5,0,0.7,0c0.2,0,0.3,0.1,0.4,0.2c0.1,0.1,0.2,0.2,0.2,0.4c0,0.1,0,0.2,0,0.3c0,0.3-0.2,0.5-0.5,0.5c0,0-0.1,0-0.1,0
				c-0.3,0-0.7,0-1,0C9.7,10.9,9.7,10.9,9.6,10.9z"/>
			
				<linearGradient id="SVGID_6_" gradientUnits="userSpaceOnUse" x1="30.847" y1="-23.15" x2="32.7931" y2="-23.15" gradientTransform="matrix(0.2667 0 0 -0.2667 0 4.2667)">
				<stop  offset="0" style="stop-color:#050505"/>
				<stop  offset="1" style="stop-color:#1E1E21"/>
			</linearGradient>
			<path class="st5" d="M8.2,9.5c0.1,0,0.5,0,0.5,0c0,0,0,0,0,0c0,0.6,0,1.2,0,1.8c0,0,0,0,0,0c-0.1,0-0.5,0-0.5,0c0,0,0,0,0,0
				C8.2,10.7,8.2,10.1,8.2,9.5C8.2,9.5,8.2,9.5,8.2,9.5z"/>
			
				<linearGradient id="SVGID_7_" gradientUnits="userSpaceOnUse" x1="30.5132" y1="-17.7" x2="33.1314" y2="-17.7" gradientTransform="matrix(0.2667 0 0 -0.2667 0 4.2667)">
				<stop  offset="0" style="stop-color:#050505"/>
				<stop  offset="1" style="stop-color:#1E1E21"/>
			</linearGradient>
			<path class="st6" d="M8.5,8.6c0.2,0,0.3,0.1,0.3,0.3S8.7,9.3,8.5,9.3C8.3,9.3,8.1,9.2,8.1,9C8.1,8.8,8.3,8.6,8.5,8.6z"/>
		</g>
		<g>
			
				<linearGradient id="SVGID_8_" gradientUnits="userSpaceOnUse" x1="31.8802" y1="-10.85" x2="43.6249" y2="-10.85" gradientTransform="matrix(0.2667 0 0 -0.2667 0 4.2667)">
				<stop  offset="0" style="stop-color:#050505"/>
				<stop  offset="1" style="stop-color:#1E1E21"/>
			</linearGradient>
			<path class="st7" d="M8.5,7.9C8.5,7.9,8.5,7.9,8.5,7.9c0-0.3,0-1.4,0-1.5h0c0,0,0.1,0,0.1,0c1,0,1.9,0,2.9,0c0,0,0.1,0,0.1,0
				c0,0,0,0,0,0.1c0,0,0,0,0,0.1c0,0.3,0,0.6,0,0.9c0,0,0,0.1,0,0.1c0,0.2-0.2,0.3-0.3,0.3c-0.1,0-0.1,0-0.2,0c-0.2,0-0.4,0-0.6,0
				C9.9,7.9,9.2,7.9,8.5,7.9C8.6,7.9,8.5,7.9,8.5,7.9z M9,7C9.1,7,9.1,7,9,7c0.7,0,1.4,0,2,0c0,0,0,0,0.1,0h0c0-0.1,0-0.1,0-0.2
				c0,0-0.1,0-0.1,0c-0.6,0-1.3,0-1.9,0c0,0-0.1,0-0.1,0h0C9,6.9,9,6.9,9,7z M11.1,7.3C11.1,7.3,11,7.3,11.1,7.3c-0.7,0-1.3,0-2,0
				c0,0,0,0-0.1,0h0c0,0.1,0,0.1,0,0.2c0,0,0.1,0,0.1,0c0.6,0,1.3,0,1.9,0c0,0,0,0,0.1,0c0.1,0,0.1-0.1,0.1-0.1
				C11.1,7.4,11.1,7.4,11.1,7.3z"/>
			
				<linearGradient id="SVGID_9_" gradientUnits="userSpaceOnUse" x1="31.1004" y1="-4.5278" x2="44.4081" y2="-4.5278" gradientTransform="matrix(0.2667 0 0 -0.2667 0 4.2667)">
				<stop  offset="0" style="stop-color:#050505"/>
				<stop  offset="1" style="stop-color:#1E1E21"/>
			</linearGradient>
			<path class="st8" d="M11.8,5.9c0,0.1,0,0.3,0,0.4h0c0,0,0,0-0.1,0c-1.1,0-2.2,0-3.4,0c0,0-0.1,0-0.1,0c0-0.1,0-0.1,0-0.2
				c0-0.1,0-0.1,0-0.2c0,0,0,0,0.1,0s0.1,0,0.1,0c0.3,0,0.6,0,0.9,0c0,0,0.1,0,0.1,0c0-0.1,0-0.5,0-0.6h0c0,0-0.1,0-0.1,0
				c-0.3,0-0.6,0-0.9,0c0,0-0.1,0-0.1,0v0c0-0.1,0-0.3,0-0.3c0,0,0.1,0,0.1,0c0.2,0,0.3,0,0.5,0c0,0,0.1,0,0.1,0
				c0-0.1-0.1-0.1-0.1-0.2c0,0,0,0,0,0c0.1,0,0.2,0,0.4,0h0c0.1,0,0.1,0,0.2,0.1c0,0,0.1,0.1,0.1,0.1c0.1,0,1,0,1,0
				c0.1-0.1,0.1-0.1,0.1-0.2c0.1,0,0.5,0,0.6,0v0c0,0.1-0.1,0.1-0.1,0.1c0,0,0,0,0,0.1c0,0,0.1,0,0.1,0c0.2,0,0.3,0,0.5,0
				c0,0,0.1,0,0.1,0c0,0.1,0,0.1,0,0.2c0,0.1,0,0.1,0,0.2c0,0,0,0-0.1,0c-0.1,0-0.1,0-0.2,0c-0.2,0-0.5,0-0.7,0c0,0-0.1,0-0.1,0
				c0,0,0,0,0,0c0,0.2,0,0.4,0,0.6v0c0,0,0,0,0.1,0c0,0,0.1,0,0.1,0C11.2,5.9,11.5,5.9,11.8,5.9C11.8,5.9,11.8,5.9,11.8,5.9z
				 M10.2,5.9C10.2,5.9,10.2,5.9,10.2,5.9c0-0.1,0-0.1,0-0.1c0-0.2,0-0.3,0-0.5c0,0,0-0.1,0-0.1c-0.1,0-0.3,0-0.4,0c0,0,0,0,0,0.1
				c0,0.2,0,0.4,0,0.5c0,0,0,0,0,0.1C10,5.9,10.1,5.9,10.2,5.9z"/>
			
				<linearGradient id="SVGID_10_" gradientUnits="userSpaceOnUse" x1="19.5191" y1="-6.8" x2="28.8143" y2="-6.8" gradientTransform="matrix(0.2667 0 0 -0.2667 0 4.2667)">
				<stop  offset="0" style="stop-color:#050505"/>
				<stop  offset="1" style="stop-color:#1E1E21"/>
			</linearGradient>
			<path class="st9" d="M5.4,7.3C5.4,7.2,5.3,7.1,5.2,7c0,0,0,0,0,0c0,0,0,0,0.1,0c0.1,0,0.1,0,0.1,0c0.1,0,0.1,0,0.1-0.1
				c0,0,0-0.1,0-0.1c0-0.3,0-0.5,0-0.8c0-0.2,0-0.5,0-0.7c0,0,0-0.1,0-0.1c0,0,0,0-0.1,0c-0.1,0-0.1,0-0.2,0c0,0-0.1,0-0.1,0v0
				c0-0.1,0-0.2,0-0.3c0,0,0,0,0,0h0c0,0,0.1,0,0.1,0c0.7,0,1.5,0,2.3,0c0,0,0.1,0,0.1,0c0,0.1,0,0.1,0,0.1c0,0.1,0,0.1,0,0.1
				c0,0.1,0,0.1,0,0.1c0,0-0.1,0-0.1,0c-0.3,0-0.6,0-0.9,0c-0.2,0-0.3,0-0.5,0c0,0-0.1,0-0.1,0c0,0,0,0,0,0c0,0.1,0,0.2,0,0.3v0
				c0,0,0,0,0.1,0c0,0,0.1,0,0.1,0c0.5,0,0.9,0,1.3,0c0,0,0.1,0,0.1,0c0,0,0,0,0,0.1c0,0.1,0,0.1,0,0.2c0,0.4,0,0.7,0,1.1
				c0,0.1,0,0.1,0,0.1c0,0.1,0,0.1-0.1,0.2C7.5,7.3,7.4,7.3,7.3,7.3c0,0-0.1,0-0.1,0c-0.2,0-0.4,0-0.6,0h0C6.6,7.3,6.5,7.1,6.5,7
				c0,0,0,0,0.1,0c0.1,0,0.2,0,0.3,0c0.1,0,0.1,0,0.1,0C7,7,7,7,7,7C7,7,7.1,7,7.1,6.9c0,0,0-0.1,0-0.1c0-0.3,0-0.5,0-0.8
				c0,0,0-0.1,0-0.1c0,0-0.1,0-0.1,0c-0.1,0-0.2,0-0.3,0c-0.2,0-0.3,0-0.5,0c0,0-0.1,0-0.1,0v0c0,0,0,0.1,0,0.1c0,0.3,0,0.6,0,0.9
				c0,0,0,0.1,0,0.1c0,0.1,0,0.1-0.1,0.2C5.9,7.3,5.8,7.3,5.8,7.3C5.6,7.3,5.5,7.3,5.4,7.3z"/>
			
				<linearGradient id="SVGID_11_" gradientUnits="userSpaceOnUse" x1="15.7" y1="-9.1" x2="28.8164" y2="-9.1" gradientTransform="matrix(0.2667 0 0 -0.2667 0 4.2667)">
				<stop  offset="0" style="stop-color:#050505"/>
				<stop  offset="1" style="stop-color:#1E1E21"/>
			</linearGradient>
			<path class="st10" d="M4.9,7.7C4.8,7.7,4.8,7.8,4.7,7.8c0,0-0.1,0-0.1,0c-0.1,0-0.1,0-0.2,0C4.3,7.7,4.2,7.6,4.2,7.5c0,0,0,0,0,0
				c0,0,0.1,0,0.1,0c0.1,0,0.2-0.1,0.2-0.2c0,0,0,0,0-0.1c0-0.4,0-0.9,0-1.3c0,0,0-0.1,0-0.1c0,0,0,0-0.1,0c-0.1,0-0.1,0-0.2,0
				c0,0-0.1,0-0.1,0c0,0,0,0,0,0c0-0.1,0-0.3,0-0.3c0,0,0.1,0,0.1,0c0.2,0,0.3,0,0.5,0c0.1,0,0.1,0,0.2,0c0,0,0.1,0,0.1,0
				c0,0,0,0,0,0c0,0,0,0.1,0,0.1c0,0.5,0,1,0,1.5c0,0.1,0,0.1,0.1,0.1c0.1,0.1,0.2,0.1,0.3,0.1c0.1,0,0.2,0,0.3,0c0.1,0,0.2,0,0.4,0
				c0.5,0,1,0,1.5,0c0,0,0.1,0,0.1,0c0,0.1,0,0.1,0,0.1c0,0.1,0,0.1,0,0.1c0,0.1,0,0.1,0,0.1c0,0,0,0-0.1,0c-0.1,0-0.2,0-0.3,0
				c-0.6,0-1.2,0-1.7,0c-0.1,0-0.3,0-0.4-0.1C5.1,7.8,5,7.7,4.9,7.7C4.9,7.7,4.9,7.7,4.9,7.7z"/>
			
				<linearGradient id="SVGID_12_" gradientUnits="userSpaceOnUse" x1="15.5925" y1="-2.95" x2="18.8806" y2="-2.95" gradientTransform="matrix(0.2667 0 0 -0.2667 0 4.2667)">
				<stop  offset="0" style="stop-color:#050505"/>
				<stop  offset="1" style="stop-color:#1E1E21"/>
			</linearGradient>
			<path class="st11" d="M5,5.3c-0.2,0-0.4,0-0.6,0l0,0C4.3,5.1,4.3,5,4.2,4.8c0,0,0,0,0,0c0,0,0,0,0.1,0c0.1,0,0.2,0,0.4,0
				c0,0,0.1,0,0.1,0c0.1,0,0.1,0,0.1,0.1l0,0C4.9,5,4.9,5.1,5,5.3C5,5.3,5,5.3,5,5.3z"/>
			
				<linearGradient id="SVGID_13_" gradientUnits="userSpaceOnUse" x1="31.6659" y1="-4.95" x2="34.615" y2="-4.95" gradientTransform="matrix(0.2667 0 0 -0.2667 0 4.2667)">
				<stop  offset="0" style="stop-color:#050505"/>
				<stop  offset="1" style="stop-color:#1E1E21"/>
			</linearGradient>
			<path class="st12" d="M9.2,5.8C9.2,5.8,9.2,5.8,9.2,5.8c-0.2,0-0.3,0-0.4,0c0,0,0,0-0.1,0c-0.1,0-0.1-0.1-0.2-0.1
				C8.5,5.6,8.5,5.5,8.4,5.4c0,0,0,0,0,0c0.2,0,0.3,0,0.5,0C9.1,5.5,9.1,5.6,9.2,5.8z"/>
			
				<linearGradient id="SVGID_14_" gradientUnits="userSpaceOnUse" x1="40.8178" y1="-4.85" x2="43.7178" y2="-4.85" gradientTransform="matrix(0.2667 0 0 -0.2667 0 4.2667)">
				<stop  offset="0" style="stop-color:#050505"/>
				<stop  offset="1" style="stop-color:#1E1E21"/>
			</linearGradient>
			<path class="st13" d="M11.7,5.4C11.7,5.4,11.7,5.4,11.7,5.4c-0.1,0.1-0.1,0.2-0.1,0.3c-0.1,0.1-0.1,0.1-0.2,0.1
				c-0.1,0-0.1,0-0.1,0c-0.1,0-0.2,0-0.3,0c0,0,0,0-0.1,0v0C11,5.6,11,5.5,11.1,5.4C11.2,5.4,11.6,5.4,11.7,5.4z"/>
		</g>
	</g>
</g>
</svg>
