<?xml version="1.0" encoding="utf-8"?>
<!-- Generator: Adobe Illustrator 16.0.0, SVG Export Plug-In . SVG Version: 6.00 Build 0)  -->
<!DOCTYPE svg PUBLIC "-//W3C//DTD SVG 1.1//EN" "http://www.w3.org/Graphics/SVG/1.1/DTD/svg11.dtd">
<svg version="1.1" id="图层_1" xmlns="http://www.w3.org/2000/svg" xmlns:xlink="http://www.w3.org/1999/xlink" x="0px" y="0px"
	 width="60px" height="60px" viewBox="0 0 60 60" style="enable-background:new 0 0 60 60;" xml:space="preserve">
<style type="text/css">
<![CDATA[
	.st0{opacity:0;fill:#FFFFFF;}
	.st1{fill:#BABABA;}
	.st2{fill:url(#SVGID_1_);}
	.st3{fill:url(#SVGID_2_);}
	.st4{fill:url(#SVGID_3_);}
	.st5{fill:url(#SVGID_4_);}
	.st6{fill:url(#SVGID_5_);}
	.st7{fill:url(#SVGID_6_);}
	.st8{fill:url(#SVGID_7_);}
	.st9{fill:url(#SVGID_8_);}
	.st10{fill:url(#SVGID_9_);}
	.st11{fill:#686776;}
	.st12{fill:#D5D6D6;}
	.st13{fill:url(#SVGID_10_);}
	.st14{fill:url(#SVGID_11_);}
	.st15{fill:url(#SVGID_12_);}
	.st16{fill:url(#SVGID_13_);}
	.st17{fill:url(#SVGID_14_);}
	.st18{fill:#A1A0A3;}
]]>
</style>
<rect class="st0" width="60" height="60"/>
<g>
	<g id="图层_6">
		
			<linearGradient id="SVGID_1_" gradientUnits="userSpaceOnUse" x1="346.6035" y1="-254.5996" x2="395.3965" y2="-254.5996" gradientTransform="matrix(1 0 0 -1 -341 -204)">
			<stop  offset="0" style="stop-color:#AFB2B2"/>
			<stop  offset="1" style="stop-color:#5E5F60"/>
		</linearGradient>
		<polygon class="st2" points="5.6,52.1 16.6,46.7 42.6,42.7 54.4,43.2 32.1,58.5 		"/>
	</g>
	<g id="图层_3">
		
			<linearGradient id="SVGID_2_" gradientUnits="userSpaceOnUse" x1="346.6035" y1="-235.1426" x2="373.2529" y2="-235.1426" gradientTransform="matrix(1 0 0 -1 -341 -204)">
			<stop  offset="0" style="stop-color:#44434D"/>
			<stop  offset="1" style="stop-color:#393940"/>
		</linearGradient>
		<polygon class="st3" points="5.6,6.1 32.3,9.1 32.3,56.1 5.6,49.8 		"/>
		
			<linearGradient id="SVGID_3_" gradientUnits="userSpaceOnUse" x1="373.2529" y1="-233.7554" x2="395.2275" y2="-233.7554" gradientTransform="matrix(1 0 0 -1 -341 -204)">
			<stop  offset="0" style="stop-color:#000000"/>
			<stop  offset="1" style="stop-color:#393940"/>
		</linearGradient>
		<polygon class="st4" points="54.2,3.4 54.2,40.8 32.3,56.1 32.3,9.1 		"/>
		<g>
			<polyline class="st18" points="35.4,15.7 36.3,15.7 49.5,10 35.4,15.7 			"/>
			<g>
				<polygon class="st11" points="35.4,14.2 35.4,15.7 54.2,8.1 54.2,7.1 				"/>
			</g>
		</g>
		<g>
			<polyline class="st18" points="35.4,21.4 36.3,21.4 49.5,15.7 35.4,21.4 			"/>
			<g>
				<polygon class="st11" points="35.4,19.9 35.4,21.4 54.2,13.8 54.2,12.8 				"/>
			</g>
		</g>
		<g>
			<polyline class="st18" points="35.4,26.5 36.3,26.5 49.5,20.8 35.4,26.5 			"/>
			<g>
				<polygon class="st11" points="35.4,25 35.4,26.5 54.2,18.9 54.2,17.9 				"/>
			</g>
		</g>
		<g>
			<polyline class="st18" points="35.4,32.3 36.3,32.3 49.5,26.6 35.4,32.3 			"/>
			<g>
				<polygon class="st11" points="35.4,30.8 35.4,32.3 54.2,24.7 54.2,23.8 				"/>
			</g>
		</g>
		
			<radialGradient id="SVGID_4_" cx="360.459" cy="-254.7593" r="1.0569" gradientTransform="matrix(1 0 0 -1 -341 -204)" gradientUnits="userSpaceOnUse">
			<stop  offset="0" style="stop-color:#060046"/>
			<stop  offset="0.3506" style="stop-color:#2C4F93"/>
			<stop  offset="0.5339" style="stop-color:#60BCFF"/>
			<stop  offset="0.8526" style="stop-color:#03009B"/>
		</radialGradient>
		<circle class="st5" cx="19.5" cy="50.8" r="1.1"/>
		
			<radialGradient id="SVGID_5_" cx="363.5664" cy="-255.3066" r="1.0571" gradientTransform="matrix(1 0 0 -1 -341 -204)" gradientUnits="userSpaceOnUse">
			<stop  offset="0" style="stop-color:#060046"/>
			<stop  offset="0.3506" style="stop-color:#2C4F93"/>
			<stop  offset="0.5339" style="stop-color:#60BCFF"/>
			<stop  offset="0.8526" style="stop-color:#03009B"/>
		</radialGradient>
		<circle class="st6" cx="22.6" cy="51.3" r="1.1"/>
		
			<radialGradient id="SVGID_6_" cx="366.8477" cy="-255.8169" r="1.0559" gradientTransform="matrix(1 0 0 -1 -341 -204)" gradientUnits="userSpaceOnUse">
			<stop  offset="0" style="stop-color:#060046"/>
			<stop  offset="0.3506" style="stop-color:#2C4F93"/>
			<stop  offset="0.5339" style="stop-color:#60BCFF"/>
			<stop  offset="0.8526" style="stop-color:#03009B"/>
		</radialGradient>
		<circle class="st7" cx="25.8" cy="51.8" r="1.1"/>
	</g>
	<g id="图层_4">
		<g>
			
				<linearGradient id="SVGID_7_" gradientUnits="userSpaceOnUse" x1="346.7129" y1="-222.6953" x2="373.1426" y2="-222.6953" gradientTransform="matrix(1 0 0 -1 -341 -204)">
				<stop  offset="0" style="stop-color:#000000"/>
				<stop  offset="0.3944" style="stop-color:#222226"/>
				<stop  offset="0.5896" style="stop-color:#2C2C31"/>
				<stop  offset="0.5936" style="stop-color:#71C6FF"/>
				<stop  offset="1" style="stop-color:#0055D4"/>
			</linearGradient>
			<polygon class="st8" points="5.7,16 32.1,20.1 32.1,21.4 5.7,17.7 			"/>
			
				<linearGradient id="SVGID_8_" gradientUnits="userSpaceOnUse" x1="346.7129" y1="-228.0981" x2="373.1426" y2="-228.0981" gradientTransform="matrix(1 0 0 -1 -341 -204)">
				<stop  offset="0" style="stop-color:#000000"/>
				<stop  offset="0.3944" style="stop-color:#222226"/>
				<stop  offset="0.5896" style="stop-color:#2C2C31"/>
				<stop  offset="0.5936" style="stop-color:#71C6FF"/>
				<stop  offset="1" style="stop-color:#0055D4"/>
			</linearGradient>
			<polygon class="st9" points="5.7,21.4 32.1,25.5 32.1,26.8 5.7,23.1 			"/>
			
				<linearGradient id="SVGID_9_" gradientUnits="userSpaceOnUse" x1="346.7129" y1="-233.209" x2="373.1426" y2="-233.209" gradientTransform="matrix(1 0 0 -1 -341 -204)">
				<stop  offset="0" style="stop-color:#000000"/>
				<stop  offset="0.3944" style="stop-color:#222226"/>
				<stop  offset="0.5896" style="stop-color:#2C2C31"/>
				<stop  offset="0.5936" style="stop-color:#71C6FF"/>
				<stop  offset="1" style="stop-color:#0055D4"/>
			</linearGradient>
			<polygon class="st10" points="5.7,26.5 32.1,30.6 32.1,31.9 5.7,28.2 			"/>
			
				<linearGradient id="SVGID_10_" gradientUnits="userSpaceOnUse" x1="346.7129" y1="-217.4385" x2="373.1426" y2="-217.4385" gradientTransform="matrix(1 0 0 -1 -341 -204)">
				<stop  offset="0" style="stop-color:#000000"/>
				<stop  offset="0.3944" style="stop-color:#222226"/>
				<stop  offset="0.5896" style="stop-color:#2C2C31"/>
				<stop  offset="0.5936" style="stop-color:#71C6FF"/>
				<stop  offset="1" style="stop-color:#0055D4"/>
			</linearGradient>
			<polygon class="st13" points="5.7,10.7 32.1,14.8 32.1,16.1 5.7,12.4 			"/>
		</g>
		
			<linearGradient id="SVGID_11_" gradientUnits="userSpaceOnUse" x1="346.6035" y1="-257.7212" x2="373.2529" y2="-257.7212" gradientTransform="matrix(1 0 0 -1 -341 -204)">
			<stop  offset="0" style="stop-color:#7CCDFF"/>
			<stop  offset="0.3625" style="stop-color:#2C4F93"/>
			<stop  offset="1" style="stop-color:#3F77BA"/>
			<stop  offset="1" style="stop-color:#60BCFF"/>
		</linearGradient>
		<polyline class="st14" points="5.6,49.8 32.3,56.1 32.3,57.6 5.6,50.8 5.6,49.8 		"/>
	</g>
	<g id="图层_5">
		
			<linearGradient id="SVGID_12_" gradientUnits="userSpaceOnUse" x1="373.2529" y1="-253.2319" x2="395.2275" y2="-253.2319" gradientTransform="matrix(1 0 0 -1 -341 -204)">
			<stop  offset="0" style="stop-color:#79E4FF"/>
			<stop  offset="0.494" style="stop-color:#0500F9"/>
			<stop  offset="1" style="stop-color:#60BCFF"/>
		</linearGradient>
		<polygon class="st15" points="32.3,56.1 54.2,40.8 54.2,42.3 32.3,57.6 		"/>
		
			<linearGradient id="SVGID_13_" gradientUnits="userSpaceOnUse" x1="346.542" y1="-207.8584" x2="395.2725" y2="-207.8584" gradientTransform="matrix(1 0 0 -1 -341 -204)">
			<stop  offset="0" style="stop-color:#888888"/>
			<stop  offset="1" style="stop-color:#BCBCBC"/>
		</linearGradient>
		<polygon class="st16" points="5.5,4.9 28.3,0 54.3,2.1 32.3,7.7 		"/>
		<polygon class="st12" points="5.6,4.9 5.6,6.2 32.3,9.1 32.3,7.7 		"/>
		<polygon class="st1" points="54.2,2 54.2,3.4 32.3,9.1 32.3,7.7 		"/>
		<polygon class="st1" points="32.1,58.5 32.1,60 54.4,44.6 54.4,43.2 		"/>
		<polygon class="st1" points="5.6,52.1 5.6,53.1 32.1,60 32.1,58.5 		"/>
	</g>
	<g id="图层_8">
		
			<linearGradient id="SVGID_14_" gradientUnits="userSpaceOnUse" x1="357.7266" y1="-236.5679" x2="373.2529" y2="-236.5679" gradientTransform="matrix(1 0 0 -1 -341 -204)">
			<stop  offset="0" style="stop-color:#FFFFFF;stop-opacity:0.2"/>
			<stop  offset="1" style="stop-color:#FFFFFF;stop-opacity:0.1"/>
		</linearGradient>
		<polygon class="st17" points="16.7,7.5 32.3,9.1 32.3,57.6 16.7,53.7 		"/>
	</g>
</g>
</svg>
