<?xml version="1.0" encoding="utf-8"?>
<!-- Generator: Adobe Illustrator 16.0.0, SVG Export Plug-In . SVG Version: 6.00 Build 0)  -->
<!DOCTYPE svg PUBLIC "-//W3C//DTD SVG 1.1//EN" "http://www.w3.org/Graphics/SVG/1.1/DTD/svg11.dtd">
<svg version="1.1" id="图层_1" xmlns="http://www.w3.org/2000/svg" xmlns:xlink="http://www.w3.org/1999/xlink" x="0px" y="0px"
	 width="60px" height="60px" viewBox="0 0 60 60" style="enable-background:new 0 0 60 60;" xml:space="preserve">
<style type="text/css">
<![CDATA[
	.st0{opacity:0;fill:#FFFFFF;}
	.st1{fill:url(#SVGID_1_);}
	.st2{fill:url(#SVGID_2_);}
	.st3{fill:url(#SVGID_3_);}
	.st4{fill:url(#SVGID_4_);}
	.st5{fill:#FFFFFF;}
]]>
</style>
<rect class="st0" width="60" height="60"/>
<g>
	
		<linearGradient id="SVGID_1_" gradientUnits="userSpaceOnUse" x1="163.3535" y1="30.6074" x2="219.3389" y2="32.2597" gradientTransform="matrix(0.938 -2.950000e-002 2.770000e-002 0.9996 -150.3538 4.2243)">
		<stop  offset="0" style="stop-color:#434342"/>
		<stop  offset="0.5" style="stop-color:#FFFFFF"/>
		<stop  offset="1" style="stop-color:#434342"/>
	</linearGradient>
	<path class="st1" d="M28.5,2.1c0,0-5.5,8-12.9,8.3c-6.2,0.3-9.3-2.5-9.3-2.5L3.7,8C3.7,8,3.3,27.5,8,37
		c5.6,11.4,20.1,19.6,21.6,20.5c1.5,0.8,2.4,0.6,4.2-0.6S50.7,45.8,54,35.3c3.3-10.7,2.1-28.9,2.1-28.9l-2.2,0.1c0,0-5.9,2.9-9.8,3
		C37.1,9.6,31.2,2,31.2,2L28.5,2.1z"/>
	<linearGradient id="SVGID_2_" gradientUnits="userSpaceOnUse" x1="30.084" y1="53.7559" x2="30.084" y2="6.2495">
		<stop  offset="0" style="stop-color:#50CE50"/>
		<stop  offset="1" style="stop-color:#003B00"/>
	</linearGradient>
	<path class="st2" d="M28.8,6.3c0,0-4.7,6.8-11,7c-5.2,0.2-7.9-2.1-7.9-2.1l-2.1,0.1c0,0-0.4,16.6,3.6,24.7
		c4.8,9.7,17,16.7,18.3,17.4c1.3,0.7,2,0.5,3.6-0.5c1.6-1,14.3-9.4,17.1-18.4c2.8-9.1,1.8-24.6,1.8-24.6L50.4,10c0,0-5,2.4-8.3,2.5
		c-6,0.2-10.9-6.3-10.9-6.3L28.8,6.3z"/>
	<linearGradient id="SVGID_3_" gradientUnits="userSpaceOnUse" x1="9.3242" y1="30.0039" x2="50.9063" y2="30.0039">
		<stop  offset="0" style="stop-color:#006500"/>
		<stop  offset="0.5" style="stop-color:#00CE00"/>
		<stop  offset="1" style="stop-color:#006500"/>
	</linearGradient>
	<path class="st3" d="M28.9,7.9c0,0-4.3,6.3-10.2,6.6c-4.9,0.2-7.4-2-7.4-2l-2,0.1c0,0-0.4,15.5,3.4,23c4.5,9,15.9,15.5,17.1,16.2
		c1.2,0.7,1.9,0.5,3.3-0.5c1.5-0.9,13.4-8.8,15.9-17.1c2.6-8.5,1.7-22.9,1.7-22.9L49,11.3c0,0-4.6,2.3-7.8,2.4
		c-5.6,0.2-10.2-5.8-10.2-5.8L28.9,7.9z"/>
	<g>
		<linearGradient id="SVGID_4_" gradientUnits="userSpaceOnUse" x1="30.1162" y1="42.8223" x2="30.1162" y2="17.186">
			<stop  offset="0" style="stop-color:#50CE50"/>
			<stop  offset="1" style="stop-color:#003B00"/>
		</linearGradient>
		<path class="st4" d="M15.8,27.9l2.5-2.2L28.2,36l13-18.8l3.1,1.4L29.1,42.8L15.8,27.9z"/>
	</g>
	<g>
		<path class="st5" d="M15.9,28l2.5-2.2L28.2,36l12.9-18.7l3.1,1.4L29.1,42.8L15.9,28z"/>
	</g>
</g>
</svg>
