<?xml version="1.0" encoding="utf-8"?>
<!-- Generator: Adobe Illustrator 18.1.0, SVG Export Plug-In . SVG Version: 6.00 Build 0)  -->
<svg version="1.1" id="图层_1" xmlns="http://www.w3.org/2000/svg" xmlns:xlink="http://www.w3.org/1999/xlink" x="0px" y="0px"
	 width="16px" height="16px" viewBox="0 0 16 16" style="enable-background:new 0 0 16 16;" xml:space="preserve">
<style type="text/css">
	.st0{fill:url(#SVGID_1_);}
	.st1{fill:url(#SVGID_2_);}
	.st2{fill:url(#SVGID_3_);}
	.st3{fill:url(#SVGID_4_);}
	.st4{fill:url(#SVGID_5_);}
	.st5{fill:url(#SVGID_6_);}
	.st6{fill:url(#SVGID_7_);}
	.st7{fill:url(#SVGID_8_);}
	.st8{fill:url(#SVGID_9_);}
	.st9{fill:url(#SVGID_10_);}
	.st10{fill:url(#SVGID_11_);}
	.st11{fill:url(#SVGID_12_);}
	.st12{fill:url(#SVGID_13_);}
	.st13{fill:url(#SVGID_14_);}
	.st14{fill:url(#SVGID_15_);}
	.st15{fill:url(#SVGID_16_);}
	.st16{fill:url(#SVGID_17_);}
	.st17{fill:url(#SVGID_18_);}
	.st18{fill:url(#SVGID_19_);}
	.st19{fill:url(#SVGID_20_);}
	.st20{fill:url(#SVGID_21_);}
	.st21{fill:url(#SVGID_22_);}
</style>
<g>
	
		<linearGradient id="SVGID_1_" gradientUnits="userSpaceOnUse" x1="0" y1="-14" x2="60" y2="-14" gradientTransform="matrix(0.2667 0 0 -0.2667 0 4.2667)">
		<stop  offset="0" style="stop-color:#B9BBBD"/>
		<stop  offset="3.208770e-002" style="stop-color:#B6B8BA"/>
		<stop  offset="5.619587e-002" style="stop-color:#ADAEB1"/>
		<stop  offset="8.827712e-002" style="stop-color:#9D9EA1"/>
		<stop  offset="0.1241" style="stop-color:#C1C1C2"/>
		<stop  offset="0.1924" style="stop-color:#F0F0F0"/>
		<stop  offset="0.2083" style="stop-color:#FBFBFB"/>
		<stop  offset="0.2247" style="stop-color:#FFFFFF"/>
		<stop  offset="0.3015" style="stop-color:#EEEEEF"/>
		<stop  offset="0.3853" style="stop-color:#E3E3E4"/>
		<stop  offset="0.4775" style="stop-color:#DFE0E1"/>
		<stop  offset="0.7191" style="stop-color:#FFFFFF"/>
		<stop  offset="0.779" style="stop-color:#FDFDFD"/>
		<stop  offset="0.8065" style="stop-color:#F6F5F5"/>
		<stop  offset="0.8258" style="stop-color:#EBEAEA"/>
		<stop  offset="0.927" style="stop-color:#797A7D"/>
		<stop  offset="1" style="stop-color:#BEC0C1"/>
	</linearGradient>
	<path class="st0" d="M13.5,16h-11C1.1,16,0,14.9,0,13.5v-11C0,1.1,1.1,0,2.5,0h11C14.9,0,16,1.1,16,2.5v11C16,14.9,14.9,16,13.5,16
		z"/>
	<g>
		<g>
			
				<linearGradient id="SVGID_2_" gradientUnits="userSpaceOnUse" x1="23.736" y1="-7.0336" x2="50.7842" y2="-7.0336" gradientTransform="matrix(0.2667 0 0 -0.2667 0 4.2667)">
				<stop  offset="0" style="stop-color:#050505"/>
				<stop  offset="1" style="stop-color:#1E1E21"/>
			</linearGradient>
			<path class="st1" d="M10,3.6C9.6,3.5,9.3,2.2,9.3,2.2C9,2.3,7,2.9,7.8,3.4C9.1,4.3,9,6.1,7.1,7.5c-2.7,2.1,2.7,2.7,2.8,2.5
				c1.3-2.3,0.7-3.9,0.7-3.9s1.6-0.5,2.9-0.7C13.7,5.4,12.7,4,10,3.6L10,3.6L10,3.6z M12.1,4.4c0,0-1,0.3-1.4,0.5
				c0,0,0.2-0.8,0.2-0.9C10.9,4,11.9,4.2,12.1,4.4L12.1,4.4L12.1,4.4z M10.5,4.9c0,0-0.5-0.3-0.6-0.3l1-0.6
				C10.8,4,10.8,4.3,10.5,4.9L10.5,4.9L10.5,4.9z M9.7,6.4l0.8,0.5C10.4,7,9.6,7.4,9.6,7.4C9.7,7.1,9.7,6.4,9.7,6.4L9.7,6.4L9.7,6.4
				z M9.8,6.4l0.7-0.2c0.1,0.2,0.1,0.6,0.1,0.6C10.3,6.7,9.8,6.4,9.8,6.4L9.8,6.4L9.8,6.4z M8.1,7.9c0,0,0.6-1.1,0.6-1.2
				c0,0,0.1,0.3,0.5,0.7C9.3,7.5,8.9,7.7,8.1,7.9L8.1,7.9L8.1,7.9z M9.2,7.7c0,0-0.1,0.6-0.4,1c0,0-0.4-0.2-0.7-0.6
				C8.1,8.1,9.1,7.8,9.2,7.7L9.2,7.7L9.2,7.7z M9.4,4.7c0,0-0.3,0.3-0.6,0.5c0,0,0-0.7-0.1-0.8C8.8,4.5,9.2,4.6,9.4,4.7L9.4,4.7z
				 M8.9,4.2l0.6-0.5c0,0,0.2,0.2,0.1,0.8C9.6,4.5,9,4.3,8.9,4.2L8.9,4.2L8.9,4.2z M9.5,4.8c0,0-0.1,0.5-0.3,0.8
				c0,0-0.2-0.2-0.3-0.2C8.9,5.4,9.4,4.9,9.5,4.8L9.5,4.8L9.5,4.8z M9.1,6c0,0,0.2,0.1,0.2,0.4c0,0-1.1,0.5-1.3,0.6C8,7,9,6.1,9.1,6
				L9.1,6z M8.9,6.7l0.6-0.2c0,0,0.1,0.4-0.1,0.9C9.4,7.4,9.1,7.2,8.9,6.7L8.9,6.7L8.9,6.7z M9.4,6.3c0,0-0.1-0.5-0.2-0.5
				c0,0,0.4-0.2,1-0.5C10.2,5.2,9.5,6.2,9.4,6.3L9.4,6.3z M9.5,5.5c0,0,0.2-0.6,0.2-0.7L10.2,5L9.5,5.5z M10.6,3.9
				c-0.1,0-0.9,0.5-0.9,0.5C9.8,4,9.6,3.7,9.6,3.7L10.6,3.9L10.6,3.9z M9.7,3.5L9,3.4l0.5-0.3L9.7,3.5z M8.3,2.7
				c0.1-0.1,0.9-0.5,0.9-0.5s0.2,0.6,0.2,0.6C9.3,2.9,8.2,2.8,8.3,2.7L8.3,2.7L8.3,2.7z M9.4,3.1L8.9,3.4H8.7c0,0-0.5-0.5-0.5-0.6
				C8.2,2.8,9.3,3.1,9.4,3.1L9.4,3.1L9.4,3.1z M8.1,2.9l0.4,0.5c0,0-0.6-0.1-0.7-0.2C7.8,3.1,8.1,2.9,8.1,2.9L8.1,2.9z M8,3.4
				l0.4,0.1L8.5,4C8.6,4,8.2,3.5,8,3.4L8,3.4L8,3.4z M8.5,3.5l0.9,0.1L8.7,4.2C8.7,4.1,8.5,3.5,8.5,3.5L8.5,3.5L8.5,3.5z M8.7,5.6
				c0,0,0.2,0.1,0.2,0.1c0,0-0.3,0.2-0.5,0.4C8.5,6.1,8.7,5.7,8.7,5.6L8.7,5.6z M8.2,6.5c0,0,0.3-0.3,0.7-0.5L7.8,7L8.2,6.5L8.2,6.5
				z M8.5,6.9c0,0-0.3,0.7-0.5,1c0,0-0.1-0.1-0.1-0.7C7.8,7.2,8.3,6.9,8.5,6.9L8.5,6.9L8.5,6.9z M7.6,7.3c0,0,0,0.3,0.2,0.7
				c0,0-1,0.3-1.2,0.3C6.6,8.4,6.7,7.7,7.6,7.3L7.6,7.3z M6.6,8.5c0.3,0,1.1-0.2,1.1-0.2C7.7,8.4,7,9.2,7,9.2
				C6.5,8.9,6.6,8.5,6.6,8.5L6.6,8.5L6.6,8.5z M7.1,9.3l0.7-1c0,0,0.3,0.3,0.7,0.5L7.1,9.3L7.1,9.3L7.1,9.3z M7.2,9.3l1.4-0.4
				L8.2,9.7C8.1,9.7,7.5,9.6,7.2,9.3L7.2,9.3L7.2,9.3z M8.9,8.9c0,0,0.6,0.3,1.2,0.3c0,0-1.4,0.6-1.9,0.6C8.2,9.8,8.9,9,8.9,8.9
				L8.9,8.9L8.9,8.9z M9.8,10c0,0-1-0.1-1.3-0.3c0,0,0.9-0.2,1.6-0.5C10.1,9.3,9.9,9.9,9.8,10L9.8,10L9.8,10z M10.1,9.1
				c0,0-1-0.2-1.2-0.4c0,0,1.4-0.6,1.5-0.7C10.4,8.1,10.3,8.9,10.1,9.1L10.1,9.1L10.1,9.1z M9,8.6l0.5-1c0,0,0.7,0.3,0.9,0.4
				C10.4,8.1,9.3,8.6,9,8.6L9,8.6L9,8.6z M10.4,7.9C10,7.8,9.6,7.5,9.6,7.5c0.2-0.1,1-0.5,1-0.5C10.6,7.5,10.4,7.9,10.4,7.9
				L10.4,7.9z M9.6,6.2c0,0,0.8-0.9,0.8-1c0,0,0.5,0.2,0.7,0.5C11.1,5.7,9.8,6.1,9.6,6.2L9.6,6.2z M10.7,5c0,0,1.4-0.5,1.5-0.5
				c0,0-0.3,0.6-0.9,1.2C11.3,5.7,11,5.2,10.7,5L10.7,5L10.7,5z M11.5,5.6c0,0,0.7-0.8,0.8-1.1c0,0,0.9,0.6,1,0.9
				C13.4,5.4,11.9,5.5,11.5,5.6L11.5,5.6L11.5,5.6z"/>
		</g>
		<g>
			
				<linearGradient id="SVGID_3_" gradientUnits="userSpaceOnUse" x1="5.65" y1="-22.3" x2="8.5344" y2="-22.3" gradientTransform="matrix(0.2667 0 0 -0.2667 0 4.2667)">
				<stop  offset="0" style="stop-color:#050505"/>
				<stop  offset="1" style="stop-color:#1E1E21"/>
			</linearGradient>
			<path class="st2" d="M1.6,10.6L1.6,10.6H1.5V9.8h0.1h0.1l0.2,0.7l0.2-0.7h0.1h0.1v0.8H2.2H2.2V9.9l0,0l-0.2,0.7H1.9H1.8L1.6,9.9
				l0,0V10.6z"/>
			
				<linearGradient id="SVGID_4_" gradientUnits="userSpaceOnUse" x1="9.1163" y1="-22.35" x2="9.4928" y2="-22.35" gradientTransform="matrix(0.2667 0 0 -0.2667 0 4.2667)">
				<stop  offset="0" style="stop-color:#050505"/>
				<stop  offset="1" style="stop-color:#1E1E21"/>
			</linearGradient>
			<path class="st3" d="M2.4,9.8h0.1v0.1H2.4V9.8z M2.4,10.1L2.4,10.1h0.1v0.6H2.5H2.4V10.1z"/>
			
				<linearGradient id="SVGID_5_" gradientUnits="userSpaceOnUse" x1="9.8918" y1="-22.8" x2="11.7671" y2="-22.8" gradientTransform="matrix(0.2667 0 0 -0.2667 0 4.2667)">
				<stop  offset="0" style="stop-color:#050505"/>
				<stop  offset="1" style="stop-color:#1E1E21"/>
			</linearGradient>
			<path class="st4" d="M3.1,10.4c0,0.1,0,0.1-0.1,0.2c-0.1,0-0.1,0.1-0.2,0.1c-0.1,0-0.1,0-0.2-0.1c-0.1-0.1-0.1-0.1-0.1-0.2
				c0-0.1,0-0.2,0.1-0.2c0.1-0.1,0.1-0.1,0.2-0.1c0.1,0,0.1,0,0.2,0.1c0.1,0,0.1,0.1,0.1,0.2H3c0-0.1,0-0.1-0.1-0.1c0,0-0.1,0-0.1,0
				s-0.1,0-0.1,0.1c0,0-0.1,0.1-0.1,0.2c0,0.1,0,0.1,0,0.2c0,0,0.1,0.1,0.1,0.1c0,0,0.1,0,0.1,0c0,0,0.1-0.1,0.1-0.1H3.1z"/>
			
				<linearGradient id="SVGID_6_" gradientUnits="userSpaceOnUse" x1="12.1871" y1="-22.7" x2="13.2556" y2="-22.7" gradientTransform="matrix(0.2667 0 0 -0.2667 0 4.2667)">
				<stop  offset="0" style="stop-color:#050505"/>
				<stop  offset="1" style="stop-color:#1E1E21"/>
			</linearGradient>
			<path class="st5" d="M3.3,10.1L3.3,10.1h0.1v0.1c0,0,0,0,0-0.1C3.4,10,3.5,10,3.5,10h0v0.1h0c-0.1,0-0.1,0-0.1,0.1
				c0,0-0.1,0.1-0.1,0.1v0.3H3.3H3.2L3.3,10.1L3.3,10.1z"/>
			
				<linearGradient id="SVGID_7_" gradientUnits="userSpaceOnUse" x1="13.4073" y1="-22.8" x2="15.4444" y2="-22.8" gradientTransform="matrix(0.2667 0 0 -0.2667 0 4.2667)">
				<stop  offset="0" style="stop-color:#050505"/>
				<stop  offset="1" style="stop-color:#1E1E21"/>
			</linearGradient>
			<path class="st6" d="M3.7,10.6c-0.1-0.1-0.1-0.1-0.1-0.2s0-0.2,0.1-0.2c0.1-0.1,0.1-0.1,0.2-0.1c0.1,0,0.2,0,0.2,0.1
				c0.1,0.1,0.1,0.1,0.1,0.2s0,0.2-0.1,0.2c-0.1,0.1-0.1,0.1-0.2,0.1C3.8,10.6,3.7,10.6,3.7,10.6z M4,10.5C4,10.5,4,10.4,4,10.3
				c0-0.1,0-0.1-0.1-0.2c0-0.1-0.1-0.1-0.1-0.1s-0.1,0-0.1,0.1c0,0.1-0.1,0.1-0.1,0.2c0,0.1,0,0.1,0.1,0.2c0,0.1,0.1,0.1,0.1,0.1
				C3.9,10.6,3.9,10.5,4,10.5z"/>
			
				<linearGradient id="SVGID_8_" gradientUnits="userSpaceOnUse" x1="15.7267" y1="-22.65" x2="17.5368" y2="-22.65" gradientTransform="matrix(0.2667 0 0 -0.2667 0 4.2667)">
				<stop  offset="0" style="stop-color:#050505"/>
				<stop  offset="1" style="stop-color:#1E1E21"/>
			</linearGradient>
			<path class="st7" d="M4.6,10.2C4.6,10.2,4.5,10.2,4.6,10.2c-0.1-0.1-0.1-0.1-0.1-0.1c-0.1,0-0.1,0-0.1,0c0,0,0,0,0,0.1
				c0,0,0,0,0,0.1c0,0,0.1,0,0.1,0L4.6,10.2c0,0.1,0.1,0.1,0.1,0.1c0,0,0,0.1,0,0.1c0,0.1,0,0.1-0.1,0.1c-0.1,0-0.1,0.1-0.2,0.1
				c-0.1,0-0.1,0-0.2-0.1c-0.1,0-0.1-0.1-0.1-0.2h0.1c0,0.1,0,0.1,0.1,0.1c0,0,0.1,0,0.1,0c0.1,0,0.1,0,0.1,0c0,0,0-0.1,0-0.1
				c0,0,0,0,0-0.1c0,0-0.1,0-0.1,0l-0.1,0c-0.1,0-0.1,0-0.1-0.1c0,0,0-0.1,0-0.1c0-0.1,0-0.1,0.1-0.1c0,0,0.1-0.1,0.2-0.1
				c0.1,0,0.1,0,0.2,0.1c0.1,0,0.1,0.1,0.1,0.1L4.6,10.2L4.6,10.2z"/>
			
				<linearGradient id="SVGID_9_" gradientUnits="userSpaceOnUse" x1="17.8355" y1="-22.8" x2="19.8727" y2="-22.8" gradientTransform="matrix(0.2667 0 0 -0.2667 0 4.2667)">
				<stop  offset="0" style="stop-color:#050505"/>
				<stop  offset="1" style="stop-color:#1E1E21"/>
			</linearGradient>
			<path class="st8" d="M4.8,10.6c-0.1-0.1-0.1-0.1-0.1-0.2s0-0.2,0.1-0.2c0.1-0.1,0.1-0.1,0.2-0.1c0.1,0,0.2,0,0.2,0.1
				c0.1,0.1,0.1,0.1,0.1,0.2s0,0.2-0.1,0.2c-0.1,0.1-0.1,0.1-0.2,0.1C5,10.6,4.9,10.6,4.8,10.6z M5.1,10.5c0-0.1,0.1-0.1,0.1-0.2
				c0-0.1,0-0.1-0.1-0.2c0-0.1-0.1-0.1-0.1-0.1c-0.1,0-0.1,0-0.1,0.1c0,0.1-0.1,0.1-0.1,0.2c0,0.1,0,0.1,0.1,0.2
				c0,0.1,0.1,0.1,0.1,0.1C5.1,10.6,5.1,10.5,5.1,10.5z"/>
			
				<linearGradient id="SVGID_10_" gradientUnits="userSpaceOnUse" x1="20.0796" y1="-22.35" x2="21.1174" y2="-22.35" gradientTransform="matrix(0.2667 0 0 -0.2667 0 4.2667)">
				<stop  offset="0" style="stop-color:#050505"/>
				<stop  offset="1" style="stop-color:#1E1E21"/>
			</linearGradient>
			<path class="st9" d="M5.5,10.1v0.5H5.5H5.4v-0.5H5.4v-0.1h0.1V9.9c0-0.1,0-0.1,0-0.1c0,0,0.1,0,0.1,0h0.1v0.1h0c0,0,0,0-0.1,0
				c0,0,0,0,0,0.1L5.5,10.1L5.5,10.1L5.5,10.1L5.5,10.1z"/>
			
				<linearGradient id="SVGID_11_" gradientUnits="userSpaceOnUse" x1="21.2444" y1="-22.4" x2="22.2617" y2="-22.4" gradientTransform="matrix(0.2667 0 0 -0.2667 0 4.2667)">
				<stop  offset="0" style="stop-color:#050505"/>
				<stop  offset="1" style="stop-color:#1E1E21"/>
			</linearGradient>
			<path class="st10" d="M5.9,10.6C5.9,10.6,5.9,10.6,5.9,10.6c-0.1,0-0.2,0-0.2,0c0,0,0-0.1,0-0.1v-0.3H5.7v-0.1h0.1V9.9h0.1V10
				h0.1v0.1H5.9v0.4C5.9,10.5,5.9,10.5,5.9,10.6C5.9,10.5,5.9,10.5,5.9,10.6L5.9,10.6L5.9,10.6L5.9,10.6z"/>
		</g>
		<g>
			<g>
				
					<linearGradient id="SVGID_12_" gradientUnits="userSpaceOnUse" x1="22.6704" y1="-21.9" x2="23.973" y2="-21.9" gradientTransform="matrix(0.2667 0 0 -0.2667 0 4.2667)">
					<stop  offset="0" style="stop-color:#050505"/>
					<stop  offset="1" style="stop-color:#1E1E21"/>
				</linearGradient>
				<path class="st11" d="M6.3,10c0,0,0.1,0.1,0.1,0.1s0,0.1-0.1,0.1c0,0-0.1,0.1-0.1,0.1c-0.1,0-0.1,0-0.1-0.1c0,0-0.1-0.1-0.1-0.1
					s0-0.1,0.1-0.1c0,0,0.1-0.1,0.1-0.1C6.3,9.9,6.3,9.9,6.3,10z M6.3,10c0,0-0.1-0.1-0.1-0.1c0,0-0.1,0-0.1,0.1
					c0,0-0.1,0.1-0.1,0.1c0,0,0,0.1,0.1,0.1c0,0,0.1,0.1,0.1,0.1c0,0,0.1,0,0.1-0.1c0,0,0.1-0.1,0.1-0.1C6.3,10.1,6.3,10,6.3,10z
					 M6.1,10L6.1,10L6.1,10c0.1,0,0.1,0,0.1,0l0,0c0,0,0,0,0,0.1c0,0,0,0,0,0l0.1,0.1h0h0l-0.1-0.1h0v0.1h0h0V10z M6.2,10.1
					L6.2,10.1C6.3,10.1,6.3,10.1,6.2,10.1L6.2,10.1L6.2,10.1L6.2,10.1L6.2,10.1L6.2,10.1z"/>
			</g>
		</g>
		<g>
			
				<linearGradient id="SVGID_13_" gradientUnits="userSpaceOnUse" x1="30.9072" y1="-30.1" x2="36.05" y2="-30.1" gradientTransform="matrix(0.2667 0 0 -0.2667 0 4.2667)">
				<stop  offset="0" style="stop-color:#050505"/>
				<stop  offset="1" style="stop-color:#1E1E21"/>
			</linearGradient>
			<path class="st12" d="M8.9,13.1c-0.2,0-0.4-0.1-0.5-0.2c-0.1-0.1-0.2-0.3-0.2-0.6s0.1-0.5,0.2-0.6s0.3-0.2,0.5-0.2
				c0.2,0,0.3,0.1,0.5,0.2s0.2,0.3,0.2,0.6v0.1H8.5c0,0.2,0.1,0.3,0.1,0.3c0.1,0.1,0.2,0.1,0.3,0.1c0.1,0,0.2,0,0.2-0.1
				c0.1-0.1,0.1-0.1,0.1-0.2h0.2c0,0.2-0.1,0.3-0.2,0.4C9.3,13,9.1,13.1,8.9,13.1z M9.4,12.2c0-0.1-0.1-0.2-0.1-0.3
				c-0.1-0.1-0.2-0.1-0.3-0.1s-0.2,0.1-0.3,0.2c-0.1,0.1-0.1,0.2-0.1,0.3C8.5,12.2,9.4,12.2,9.4,12.2z"/>
			
				<linearGradient id="SVGID_14_" gradientUnits="userSpaceOnUse" x1="37.3152" y1="-30.1" x2="40.069" y2="-30.1" gradientTransform="matrix(0.2667 0 0 -0.2667 0 4.2667)">
				<stop  offset="0" style="stop-color:#050505"/>
				<stop  offset="1" style="stop-color:#1E1E21"/>
			</linearGradient>
			<path class="st13" d="M9.9,11.5h0.1h0.1v0.3c0-0.1,0.1-0.1,0.1-0.1c0.1-0.1,0.2-0.2,0.3-0.2c0,0,0.1,0,0.1,0v0.3h-0.1
				c-0.1,0-0.2,0.1-0.3,0.1s-0.1,0.2-0.1,0.3v0.8h-0.1H9.9C9.9,13.1,9.9,11.5,9.9,11.5z"/>
			
				<linearGradient id="SVGID_15_" gradientUnits="userSpaceOnUse" x1="40.1642" y1="-30.1" x2="45.3961" y2="-30.1" gradientTransform="matrix(0.2667 0 0 -0.2667 0 4.2667)">
				<stop  offset="0" style="stop-color:#050505"/>
				<stop  offset="1" style="stop-color:#1E1E21"/>
			</linearGradient>
			<path class="st14" d="M10.7,11.5h0.2H11l0.4,1.2l0,0l0.4-1.2H12h0.1L11.6,13h-0.1h-0.1L10.7,11.5z"/>
			
				<linearGradient id="SVGID_16_" gradientUnits="userSpaceOnUse" x1="45.9125" y1="-30.1" x2="51.0553" y2="-30.1" gradientTransform="matrix(0.2667 0 0 -0.2667 0 4.2667)">
				<stop  offset="0" style="stop-color:#050505"/>
				<stop  offset="1" style="stop-color:#1E1E21"/>
			</linearGradient>
			<path class="st15" d="M12.9,13.1c-0.2,0-0.4-0.1-0.5-0.2c-0.1-0.1-0.2-0.3-0.2-0.6s0.1-0.5,0.2-0.6s0.3-0.2,0.5-0.2
				c0.2,0,0.3,0.1,0.5,0.2s0.2,0.3,0.2,0.6v0.1h-1.1c0,0.2,0.1,0.3,0.1,0.3c0.1,0.1,0.2,0.1,0.3,0.1c0.1,0,0.2,0,0.2-0.1
				c0.1-0.1,0.1-0.1,0.1-0.2h0.3c0,0.2-0.1,0.3-0.2,0.4C13.3,13,13.1,13.1,12.9,13.1z M13.4,12.2c0-0.1-0.1-0.2-0.1-0.3
				c-0.1-0.1-0.2-0.1-0.3-0.1s-0.2,0.1-0.3,0.2c-0.1,0.1-0.1,0.2-0.1,0.3C12.5,12.2,13.4,12.2,13.4,12.2z"/>
			
				<linearGradient id="SVGID_17_" gradientUnits="userSpaceOnUse" x1="52.3215" y1="-30.1" x2="55.0743" y2="-30.1" gradientTransform="matrix(0.2667 0 0 -0.2667 0 4.2667)">
				<stop  offset="0" style="stop-color:#050505"/>
				<stop  offset="1" style="stop-color:#1E1E21"/>
			</linearGradient>
			<path class="st16" d="M13.9,11.5h0.1h0.1v0.3c0-0.1,0.1-0.1,0.1-0.1c0.1-0.1,0.2-0.2,0.3-0.2c0,0,0.1,0,0.1,0v0.3h-0.1
				c-0.1,0-0.2,0.1-0.3,0.1s-0.1,0.2-0.1,0.3v0.8h-0.1h-0.1C13.9,13.1,13.9,11.5,13.9,11.5z"/>
		</g>
		<g>
			
				<linearGradient id="SVGID_18_" gradientUnits="userSpaceOnUse" x1="25.886" y1="-28.8673" x2="30.5335" y2="-28.8673" gradientTransform="matrix(0.2667 0 0 -0.2667 0 4.2667)">
				<stop  offset="0" style="stop-color:#050505"/>
				<stop  offset="1" style="stop-color:#1E1E21"/>
			</linearGradient>
			<path class="st17" d="M8,10.9v0.3c0,0-0.1-0.1-0.4-0.1s-0.4,0.2-0.4,0.3c0,0.4,1,0.5,1,1.1c0,0.6-0.7,0.7-1.2,0.5v-0.3
				c0,0.1,0.9,0.5,0.9-0.1c0-0.5-1-0.4-1-1.1C6.9,10.7,8,10.8,8,10.9z"/>
		</g>
		<g>
			
				<linearGradient id="SVGID_19_" gradientUnits="userSpaceOnUse" x1="4.9799" y1="-28.8652" x2="9.6799" y2="-28.8652" gradientTransform="matrix(0.2667 0 0 -0.2667 0 4.2667)">
				<stop  offset="0" style="stop-color:#050505"/>
				<stop  offset="1" style="stop-color:#1E1E21"/>
			</linearGradient>
			<path class="st18" d="M2.4,10.9v0.3c0,0-0.1-0.1-0.4-0.1c-0.3,0-0.4,0.2-0.4,0.3c0,0.4,0.9,0.5,0.9,1.1c0,0.6-0.7,0.7-1.3,0.5
				v-0.3c0,0.1,1,0.5,1-0.1c0-0.5-1-0.4-1-1.1C1.3,10.7,2.4,10.8,2.4,10.9z"/>
		</g>
		<g>
			
				<linearGradient id="SVGID_20_" gradientUnits="userSpaceOnUse" x1="10.4814" y1="-28.8" x2="18.2591" y2="-28.8" gradientTransform="matrix(0.2667 0 0 -0.2667 0 4.2667)">
				<stop  offset="0" style="stop-color:#050505"/>
				<stop  offset="1" style="stop-color:#1E1E21"/>
			</linearGradient>
			<path class="st19" d="M3.8,10.8c-0.5,0-1,0.3-1,1.1c0,0.8,0.5,1.1,1,1.1s1-0.3,1-1.1C4.9,11.1,4.3,10.8,3.8,10.8z M3.8,12.9
				c-0.3,0-0.7-0.3-0.7-0.9c0-0.6,0.4-0.9,0.7-0.9c0.4,0,0.8,0.3,0.8,0.9C4.6,12.6,4.2,12.9,3.8,12.9z"/>
		</g>
		<g>
			
				<linearGradient id="SVGID_21_" gradientUnits="userSpaceOnUse" x1="13.9082" y1="-34.5" x2="17.2162" y2="-34.5" gradientTransform="matrix(0.2667 0 0 -0.2667 0 4.2667)">
				<stop  offset="0" style="stop-color:#050505"/>
				<stop  offset="1" style="stop-color:#1E1E21"/>
			</linearGradient>
			<polygon class="st20" points="4.1,13.1 4.6,13.9 4.2,13.9 3.7,13.1 			"/>
		</g>
		<g>
			
				<linearGradient id="SVGID_22_" gradientUnits="userSpaceOnUse" x1="19" y1="-29" x2="23" y2="-29" gradientTransform="matrix(0.2667 0 0 -0.2667 0 4.2667)">
				<stop  offset="0" style="stop-color:#050505"/>
				<stop  offset="1" style="stop-color:#1E1E21"/>
			</linearGradient>
			<polygon class="st21" points="5.1,10.9 5.3,10.9 5.3,12.8 6.1,12.8 6.1,13.1 5.1,13.1 			"/>
		</g>
	</g>
</g>
</svg>
