<?xml version="1.0" encoding="utf-8"?>
<!-- Generator: Adobe Illustrator 18.1.0, SVG Export Plug-In . SVG Version: 6.00 Build 0)  -->
<svg version="1.1" id="图层_1" xmlns="http://www.w3.org/2000/svg" xmlns:xlink="http://www.w3.org/1999/xlink" x="0px" y="0px"
	 width="16px" height="16px" viewBox="0 0 16 16" style="enable-background:new 0 0 16 16;" xml:space="preserve">
<style type="text/css">
	.st0{fill:url(#SVGID_1_);}
	.st1{fill:url(#SVGID_2_);}
	.st2{fill:url(#SVGID_3_);}
	.st3{fill:url(#SVGID_4_);}
	.st4{fill:url(#SVGID_5_);}
</style>
<g>
	
		<linearGradient id="SVGID_1_" gradientUnits="userSpaceOnUse" x1="0" y1="-14" x2="60" y2="-14" gradientTransform="matrix(0.2667 0 0 -0.2667 0 4.2667)">
		<stop  offset="0" style="stop-color:#B9BBBD"/>
		<stop  offset="3.208770e-002" style="stop-color:#B6B8BA"/>
		<stop  offset="5.619587e-002" style="stop-color:#ADAEB1"/>
		<stop  offset="8.827712e-002" style="stop-color:#9D9EA1"/>
		<stop  offset="0.1241" style="stop-color:#C1C1C2"/>
		<stop  offset="0.1924" style="stop-color:#F0F0F0"/>
		<stop  offset="0.2083" style="stop-color:#FBFBFB"/>
		<stop  offset="0.2247" style="stop-color:#FFFFFF"/>
		<stop  offset="0.3015" style="stop-color:#EEEEEF"/>
		<stop  offset="0.3853" style="stop-color:#E3E3E4"/>
		<stop  offset="0.4775" style="stop-color:#DFE0E1"/>
		<stop  offset="0.7191" style="stop-color:#FFFFFF"/>
		<stop  offset="0.779" style="stop-color:#FDFDFD"/>
		<stop  offset="0.8065" style="stop-color:#F6F5F5"/>
		<stop  offset="0.8258" style="stop-color:#EBEAEA"/>
		<stop  offset="0.927" style="stop-color:#797A7D"/>
		<stop  offset="1" style="stop-color:#BEC0C1"/>
	</linearGradient>
	<path class="st0" d="M13.5,16h-11C1.1,16,0,14.9,0,13.5v-11C0,1.1,1.1,0,2.5,0h11C14.9,0,16,1.1,16,2.5v11C16,14.9,14.9,16,13.5,16
		z"/>
	<g>
		
			<linearGradient id="SVGID_2_" gradientUnits="userSpaceOnUse" x1="30.2534" y1="-9.4" x2="47.0085" y2="-9.4" gradientTransform="matrix(0.2667 0 0 -0.2667 0 4.2667)">
			<stop  offset="0" style="stop-color:#050505"/>
			<stop  offset="1" style="stop-color:#1E1E21"/>
		</linearGradient>
		<path class="st1" d="M10.7,9.3c0.5-0.3,0.9-0.7,1.2-1.3l0.1-0.1c0-0.1,0.1-0.1,0.1-0.2l0.1-0.1c0.3-0.6,0.4-1.3,0.4-2.1l0,0
			c0-0.2-0.1-1.1-0.2-1.3c-0.3,0.1-0.9,0.5-1,0.9c-0.6-0.1-1.4-0.1-2,0c-0.1-0.4-0.6-0.8-1-1C8.1,4.5,8.1,5.1,8.1,5.6l0,0
			c0,0.4,0.1,0.8,0.2,1.2C8.2,6.8,9.1,8.8,10.7,9.3z"/>
		
			<linearGradient id="SVGID_3_" gradientUnits="userSpaceOnUse" x1="10" y1="-18.95" x2="50" y2="-18.95" gradientTransform="matrix(0.2667 0 0 -0.2667 0 4.2667)">
			<stop  offset="0" style="stop-color:#050505"/>
			<stop  offset="1" style="stop-color:#1E1E21"/>
		</linearGradient>
		<path class="st2" d="M13.2,11.3C13,11.1,12.6,11,12.2,11c-0.2-0.2-0.9-0.9-1.3-1.4l-0.2,0.1l-0.2-0.1C8.8,9.1,7.9,7,7.9,6.9v0v0
			c-1.3,0.4-2.6,1.2-3.3,2L4.4,9C4.3,9.1,4.3,9.1,4.2,9.2c-0.9,1-1.5,2.1-1.5,2.2v0.1h1.2l0-0.1c-0.1-0.3,0.1-0.8,0.3-1.1
			c0.2-0.2,0.5-0.5,0.9-0.6c0.4-0.1,1.3,0,1.3,0c1.9,0.2,3.7,0.9,5.8,2h1.1l0-0.1C13.4,11.6,13.3,11.5,13.2,11.3z"/>
		
			<linearGradient id="SVGID_4_" gradientUnits="userSpaceOnUse" x1="20.1471" y1="-23.586" x2="27.7726" y2="-23.586" gradientTransform="matrix(0.2667 0 0 -0.2667 0 4.2667)">
			<stop  offset="0" style="stop-color:#050505"/>
			<stop  offset="1" style="stop-color:#1E1E21"/>
		</linearGradient>
		<path class="st3" d="M7.3,10.6c-0.1-0.1-0.3-0.1-0.6,0c-0.1-0.1-0.2-0.3-0.3-0.5c0,0,0,0-0.1,0c0,0-0.6-0.1-1,0
			c0.3,0.3,0.7,0.6,1.1,0.9h0.9v-0.1C7.4,10.8,7.4,10.7,7.3,10.6z"/>
		
			<linearGradient id="SVGID_5_" gradientUnits="userSpaceOnUse" x1="13.9756" y1="-11.1033" x2="26.8956" y2="-11.1033" gradientTransform="matrix(0.2667 0 0 -0.2667 0 4.2667)">
			<stop  offset="0" style="stop-color:#050505"/>
			<stop  offset="1" style="stop-color:#1E1E21"/>
		</linearGradient>
		<path class="st4" d="M4.2,8.7L4.2,8.7c0.1-0.1,0.1-0.1,0.1-0.1C4.1,8.2,4,7.9,3.9,7.6C3.9,7.2,4,6.8,4.2,6.5C4.6,6,5.2,6,5.7,6.1
			c0,0.1,0,0.2,0,0.2c0.2,0.2,1,0.3,1.4,0.1C6.9,5.9,6.1,5.7,5.9,5.8c-0.1,0-0.1,0.1-0.2,0.2c-0.2,0-0.4-0.1-0.5-0.1
			c-0.5,0-0.9,0.2-1.2,0.5C3.8,6.7,3.7,7.2,3.8,7.7C3.8,8,3.9,8.3,4.2,8.7z"/>
	</g>
</g>
</svg>
