<?xml version="1.0" encoding="utf-8"?>
<!-- Generator: Adobe Illustrator 18.1.0, SVG Export Plug-In . SVG Version: 6.00 Build 0)  -->
<svg version="1.1" id="图层_1" xmlns="http://www.w3.org/2000/svg" xmlns:xlink="http://www.w3.org/1999/xlink" x="0px" y="0px"
	 width="16px" height="16px" viewBox="0 0 16 16" style="enable-background:new 0 0 16 16;" xml:space="preserve">
<style type="text/css">
	.st0{fill:url(#SVGID_1_);}
	.st1{fill:url(#SVGID_2_);}
	.st2{fill:url(#SVGID_3_);}
	.st3{fill:url(#SVGID_4_);}
	.st4{fill:url(#SVGID_5_);}
	.st5{fill:url(#SVGID_6_);}
	.st6{fill:url(#SVGID_7_);}
	.st7{fill:url(#SVGID_8_);}
	.st8{fill:url(#SVGID_9_);}
	.st9{fill:url(#SVGID_10_);}
	.st10{fill:url(#SVGID_11_);}
	.st11{fill:url(#SVGID_12_);}
	.st12{fill:url(#SVGID_13_);}
	.st13{fill:url(#SVGID_14_);}
	.st14{fill:url(#SVGID_15_);}
	.st15{fill:url(#SVGID_16_);}
	.st16{fill:url(#SVGID_17_);}
	.st17{fill:url(#SVGID_18_);}
</style>
<g>
	
		<linearGradient id="SVGID_1_" gradientUnits="userSpaceOnUse" x1="0" y1="-14" x2="60" y2="-14" gradientTransform="matrix(0.2667 0 0 -0.2667 0 4.2667)">
		<stop  offset="0" style="stop-color:#B9BBBD"/>
		<stop  offset="3.208770e-002" style="stop-color:#B6B8BA"/>
		<stop  offset="5.619587e-002" style="stop-color:#ADAEB1"/>
		<stop  offset="8.827712e-002" style="stop-color:#9D9EA1"/>
		<stop  offset="0.1241" style="stop-color:#C1C1C2"/>
		<stop  offset="0.1924" style="stop-color:#F0F0F0"/>
		<stop  offset="0.2083" style="stop-color:#FBFBFB"/>
		<stop  offset="0.2247" style="stop-color:#FFFFFF"/>
		<stop  offset="0.3015" style="stop-color:#EEEEEF"/>
		<stop  offset="0.3853" style="stop-color:#E3E3E4"/>
		<stop  offset="0.4775" style="stop-color:#DFE0E1"/>
		<stop  offset="0.7191" style="stop-color:#FFFFFF"/>
		<stop  offset="0.779" style="stop-color:#FDFDFD"/>
		<stop  offset="0.8065" style="stop-color:#F6F5F5"/>
		<stop  offset="0.8258" style="stop-color:#EBEAEA"/>
		<stop  offset="0.927" style="stop-color:#797A7D"/>
		<stop  offset="1" style="stop-color:#BEC0C1"/>
	</linearGradient>
	<path class="st0" d="M13.5,16h-11C1.1,16,0,14.9,0,13.5v-11C0,1.1,1.1,0,2.5,0h11C14.9,0,16,1.1,16,2.5v11C16,14.9,14.9,16,13.5,16
		z"/>
	<g>
		<g>
			
				<linearGradient id="SVGID_2_" gradientUnits="userSpaceOnUse" x1="20.5" y1="-19.85" x2="30.4782" y2="-19.85" gradientTransform="matrix(0.2667 0 0 -0.2667 0 4.2667)">
				<stop  offset="0" style="stop-color:#050505"/>
				<stop  offset="1" style="stop-color:#1E1E21"/>
			</linearGradient>
			<path class="st1" d="M5.5,7.3h0.3h0.4v1.6l0,0C6.4,8.5,6.7,8.3,7,8.3s0.6,0.2,0.8,0.5C8,9.1,8.1,9.6,8.1,10.1
				c0,0.5-0.1,1-0.3,1.3c-0.2,0.3-0.5,0.5-0.8,0.5c-0.3,0-0.6-0.2-0.8-0.5l0,0v0.4H5.5C5.5,11.8,5.5,7.3,5.5,7.3z M6.8,11.1
				c0.2,0,0.3-0.1,0.5-0.3c0.1-0.2,0.2-0.4,0.2-0.7c0-0.3-0.1-0.6-0.2-0.8C7.1,9.1,7,9.1,6.8,9.1c-0.2,0-0.3,0.1-0.5,0.3
				c-0.1,0.2-0.2,0.4-0.2,0.8c0,0.3,0.1,0.6,0.2,0.8C6.4,11,6.6,11.1,6.8,11.1z"/>
			
				<linearGradient id="SVGID_3_" gradientUnits="userSpaceOnUse" x1="31.5619" y1="-21.85" x2="41.2986" y2="-21.85" gradientTransform="matrix(0.2667 0 0 -0.2667 0 4.2667)">
				<stop  offset="0" style="stop-color:#050505"/>
				<stop  offset="1" style="stop-color:#1E1E21"/>
			</linearGradient>
			<path class="st2" d="M9.8,11.8c-0.5,0-0.8-0.2-1-0.5c-0.2-0.3-0.3-0.7-0.3-1.4c0-0.5,0.1-0.9,0.3-1.2c0.2-0.3,0.6-0.5,1-0.5
				c0.4,0,0.7,0.2,1,0.5S11,9.5,11,10.1v0.3H9.1c0,0.2,0.1,0.4,0.1,0.6c0.1,0.2,0.3,0.2,0.5,0.2c0.1,0,0.2,0,0.3-0.1
				c0.1-0.1,0.1-0.2,0.2-0.3H11c-0.1,0.3-0.2,0.6-0.4,0.8C10.4,11.7,10.1,11.8,9.8,11.8z M10.3,9.8c0-0.2-0.1-0.4-0.1-0.5
				C10,9.1,9.9,9,9.7,9C9.5,9,9.4,9.1,9.3,9.3C9.2,9.4,9.2,9.6,9.1,9.8L10.3,9.8L10.3,9.8z"/>
			
				<linearGradient id="SVGID_4_" gradientUnits="userSpaceOnUse" x1="42.4" y1="-21.8" x2="51.9993" y2="-21.8" gradientTransform="matrix(0.2667 0 0 -0.2667 0 4.2667)">
				<stop  offset="0" style="stop-color:#050505"/>
				<stop  offset="1" style="stop-color:#1E1E21"/>
			</linearGradient>
			<path class="st3" d="M12.1,11.8c-0.3,0-0.5-0.1-0.6-0.3c-0.2-0.2-0.2-0.4-0.2-0.7c0-0.3,0.1-0.5,0.2-0.7c0.1-0.2,0.3-0.3,0.6-0.3
				l0.6-0.1c0.1,0,0.2-0.1,0.3-0.1c0,0,0,0,0.1-0.1c0,0,0-0.1,0-0.1l0,0c0-0.1,0-0.2-0.1-0.3c-0.1,0-0.2-0.1-0.4-0.1
				c-0.1,0-0.2,0-0.3,0.1c-0.1,0.1-0.1,0.2-0.1,0.3h-0.7c0.1-0.4,0.2-0.7,0.3-0.9c0.2-0.2,0.5-0.3,0.9-0.3c0.3,0,0.6,0.1,0.8,0.3
				c0.2,0.2,0.3,0.4,0.3,0.7v1.8c0,0.2,0,0.3,0,0.4s0.1,0.1,0.1,0.2l0,0v0.1h-0.4h-0.4l0,0c0-0.1-0.1-0.2-0.1-0.4l0,0
				C12.8,11.7,12.5,11.8,12.1,11.8z M13,10.5v-0.4c-0.1,0.1-0.1,0.1-0.2,0.1l-0.3,0.1c-0.2,0.1-0.3,0.1-0.4,0.2S12,10.6,12,10.8
				s0,0.2,0.1,0.3s0.1,0.1,0.2,0.1c0.2,0,0.5-0.1,0.6-0.3v0c0,0,0-0.1,0.1-0.1C13,10.6,13,10.6,13,10.5z"/>
		</g>
		<g>
			
				<linearGradient id="SVGID_5_" gradientUnits="userSpaceOnUse" x1="39.7048" y1="-13.4" x2="41.0871" y2="-13.4" gradientTransform="matrix(0.2667 0 0 -0.2667 0 4.2667)">
				<stop  offset="0" style="stop-color:#050505"/>
				<stop  offset="1" style="stop-color:#1E1E21"/>
			</linearGradient>
			<path class="st4" d="M10.6,7.8c-0.1,0.1-0.1,0.2,0,0.3c0.1,0.1,0.2,0,0.3-0.1c0.1-0.1,0.1-0.2,0-0.3C10.9,7.6,10.7,7.7,10.6,7.8z
				"/>
			
				<linearGradient id="SVGID_6_" gradientUnits="userSpaceOnUse" x1="40.9492" y1="-11.2688" x2="42.5914" y2="-11.2688" gradientTransform="matrix(0.2667 0 0 -0.2667 0 4.2667)">
				<stop  offset="0" style="stop-color:#050505"/>
				<stop  offset="1" style="stop-color:#1E1E21"/>
			</linearGradient>
			<path class="st5" d="M11,7.2c-0.1,0.1-0.1,0.3,0,0.3c0.1,0.1,0.2,0,0.3-0.1c0.1-0.1,0.1-0.3,0-0.3C11.2,7,11.1,7,11,7.2z"/>
			
				<linearGradient id="SVGID_7_" gradientUnits="userSpaceOnUse" x1="41.6338" y1="-8.8275" x2="43.7102" y2="-8.8275" gradientTransform="matrix(0.2667 0 0 -0.2667 0 4.2667)">
				<stop  offset="0" style="stop-color:#050505"/>
				<stop  offset="1" style="stop-color:#1E1E21"/>
			</linearGradient>
			<path class="st6" d="M11.2,6.5c-0.1,0.2-0.1,0.3,0,0.4c0.1,0.1,0.3,0,0.4-0.2c0.1-0.2,0.1-0.3,0-0.4C11.5,6.3,11.3,6.3,11.2,6.5z
				"/>
			
				<linearGradient id="SVGID_8_" gradientUnits="userSpaceOnUse" x1="41.3487" y1="-5.9697" x2="43.9382" y2="-5.9697" gradientTransform="matrix(0.2667 0 0 -0.2667 0 4.2667)">
				<stop  offset="0" style="stop-color:#050505"/>
				<stop  offset="1" style="stop-color:#1E1E21"/>
			</linearGradient>
			<path class="st7" d="M11.1,5.7c-0.1,0.2-0.2,0.4,0,0.5c0.1,0.1,0.3,0,0.5-0.2s0.2-0.4,0-0.5C11.5,5.4,11.3,5.5,11.1,5.7z"/>
			
				<linearGradient id="SVGID_9_" gradientUnits="userSpaceOnUse" x1="39.4901" y1="-3.5301" x2="42.8396" y2="-3.5301" gradientTransform="matrix(0.2667 0 0 -0.2667 0 4.2667)">
				<stop  offset="0" style="stop-color:#050505"/>
				<stop  offset="1" style="stop-color:#1E1E21"/>
			</linearGradient>
			<path class="st8" d="M11.3,5.4c0.2-0.2,0.2-0.6,0.1-0.7s-0.5,0-0.6,0.2c-0.2,0.2-0.2,0.6-0.1,0.7C10.8,5.8,11.1,5.7,11.3,5.4z"/>
			
				<linearGradient id="SVGID_10_" gradientUnits="userSpaceOnUse" x1="36.1491" y1="-2.05" x2="40.1252" y2="-2.05" gradientTransform="matrix(0.2667 0 0 -0.2667 0 4.2667)">
				<stop  offset="0" style="stop-color:#050505"/>
				<stop  offset="1" style="stop-color:#1E1E21"/>
			</linearGradient>
			<path class="st9" d="M10.6,4.3c-0.2-0.1-0.5,0-0.7,0.3C9.6,4.9,9.6,5.2,9.8,5.4c0.2,0.1,0.5,0,0.7-0.3
				C10.7,4.8,10.8,4.4,10.6,4.3z"/>
			
				<linearGradient id="SVGID_11_" gradientUnits="userSpaceOnUse" x1="31.1115" y1="-2.05" x2="35.3524" y2="-2.05" gradientTransform="matrix(0.2667 0 0 -0.2667 0 4.2667)">
				<stop  offset="0" style="stop-color:#050505"/>
				<stop  offset="1" style="stop-color:#1E1E21"/>
			</linearGradient>
			<path class="st10" d="M8.5,4.5C8.3,4.9,8.2,5.2,8.5,5.4c0.2,0.2,0.6,0,0.8-0.3c0.2-0.3,0.3-0.7,0.1-0.9S8.7,4.2,8.5,4.5z"/>
			
				<linearGradient id="SVGID_12_" gradientUnits="userSpaceOnUse" x1="25.4561" y1="-3.3779" x2="30.2003" y2="-3.3779" gradientTransform="matrix(0.2667 0 0 -0.2667 0 4.2667)">
				<stop  offset="0" style="stop-color:#050505"/>
				<stop  offset="1" style="stop-color:#1E1E21"/>
			</linearGradient>
			<path class="st11" d="M7.1,4.8C6.8,5.1,6.7,5.5,6.9,5.7c0.2,0.2,0.6,0.1,0.9-0.2S8.2,4.8,8,4.6C7.8,4.4,7.4,4.5,7.1,4.8z"/>
			
				<linearGradient id="SVGID_13_" gradientUnits="userSpaceOnUse" x1="19.4387" y1="-6.165" x2="24.1829" y2="-6.165" gradientTransform="matrix(0.2667 0 0 -0.2667 0 4.2667)">
				<stop  offset="0" style="stop-color:#050505"/>
				<stop  offset="1" style="stop-color:#1E1E21"/>
			</linearGradient>
			<path class="st12" d="M5.5,5.6C5.2,5.9,5.1,6.3,5.3,6.5c0.2,0.2,0.6,0.1,0.9-0.2C6.5,6,6.5,5.6,6.3,5.4C6.2,5.2,5.8,5.3,5.5,5.6z
				"/>
			
				<linearGradient id="SVGID_14_" gradientUnits="userSpaceOnUse" x1="14.3588" y1="-9.95" x2="18.9504" y2="-9.95" gradientTransform="matrix(0.2667 0 0 -0.2667 0 4.2667)">
				<stop  offset="0" style="stop-color:#050505"/>
				<stop  offset="1" style="stop-color:#1E1E21"/>
			</linearGradient>
			<path class="st13" d="M4.1,6.6C3.8,6.9,3.7,7.3,3.9,7.4c0.2,0.2,0.6,0.1,0.9-0.2S5.1,6.6,5,6.4C4.8,6.2,4.4,6.3,4.1,6.6z"/>
			
				<linearGradient id="SVGID_15_" gradientUnits="userSpaceOnUse" x1="9.8515" y1="-14.8" x2="14.0923" y2="-14.8" gradientTransform="matrix(0.2667 0 0 -0.2667 0 4.2667)">
				<stop  offset="0" style="stop-color:#050505"/>
				<stop  offset="1" style="stop-color:#1E1E21"/>
			</linearGradient>
			<path class="st14" d="M3.5,8.5c0.3-0.3,0.3-0.6,0.2-0.8C3.5,7.6,3.2,7.7,2.9,7.9C2.6,8.2,2.6,8.5,2.7,8.7
				C2.9,8.9,3.2,8.8,3.5,8.5z"/>
			
				<linearGradient id="SVGID_16_" gradientUnits="userSpaceOnUse" x1="8" y1="-19.9" x2="12.2407" y2="-19.9" gradientTransform="matrix(0.2667 0 0 -0.2667 0 4.2667)">
				<stop  offset="0" style="stop-color:#050505"/>
				<stop  offset="1" style="stop-color:#1E1E21"/>
			</linearGradient>
			<path class="st15" d="M3,9.9c0.3-0.3,0.3-0.6,0.2-0.8C3,8.9,2.7,9,2.4,9.3c-0.3,0.3-0.3,0.6-0.2,0.8C2.4,10.2,2.7,10.1,3,9.9z"/>
			
				<linearGradient id="SVGID_17_" gradientUnits="userSpaceOnUse" x1="8.6769" y1="-24" x2="13.4231" y2="-24" gradientTransform="matrix(0.2667 0 0 -0.2667 0 4.2667)">
				<stop  offset="0" style="stop-color:#050505"/>
				<stop  offset="1" style="stop-color:#1E1E21"/>
			</linearGradient>
			<path class="st16" d="M3.5,10.1c-0.2-0.2-0.6-0.1-0.9,0.2c-0.3,0.3-0.4,0.7-0.2,0.9C2.6,11.4,3,11.3,3.3,11
				C3.5,10.7,3.7,10.3,3.5,10.1z"/>
			
				<linearGradient id="SVGID_18_" gradientUnits="userSpaceOnUse" x1="12.6762" y1="-25.85" x2="17.7479" y2="-25.85" gradientTransform="matrix(0.2667 0 0 -0.2667 0 4.2667)">
				<stop  offset="0" style="stop-color:#050505"/>
				<stop  offset="1" style="stop-color:#1E1E21"/>
			</linearGradient>
			<path class="st17" d="M3.8,10.9c-0.3,0.3-0.5,0.7-0.3,0.9c0.2,0.2,0.6,0,0.9-0.3c0.3-0.3,0.5-0.7,0.3-0.9
				C4.5,10.4,4.1,10.5,3.8,10.9z"/>
		</g>
	</g>
</g>
</svg>
