<?xml version="1.0" encoding="utf-8"?>
<!-- Generator: Adobe Illustrator 18.1.0, SVG Export Plug-In . SVG Version: 6.00 Build 0)  -->
<svg version="1.1" id="图层_1" xmlns="http://www.w3.org/2000/svg" xmlns:xlink="http://www.w3.org/1999/xlink" x="0px" y="0px"
	 width="60px" height="60px" viewBox="10 -10 60 60" style="enable-background:new 10 -10 60 60;" xml:space="preserve">
<style type="text/css">
	.st0{fill:url(#SVGID_1_);}
	.st1{fill:url(#SVGID_2_);}
	.st2{fill:#010000;}
	.st3{fill:#E0DBD7;}
	.st4{fill:#999999;}
	.st5{fill:#F2F3F7;}
	.st6{fill:url(#SVGID_3_);}
	.st7{fill:url(#SVGID_4_);}
	.st8{fill:url(#SVGID_5_);}
	.st9{fill:url(#SVGID_6_);}
	.st10{fill:url(#SVGID_7_);}
	.st11{fill:#5B5B5B;}
	.st12{fill:url(#SVGID_8_);}
	.st13{fill:url(#SVGID_9_);}
	.st14{fill:url(#SVGID_10_);}
</style>
<g>
	
		<linearGradient id="SVGID_1_" gradientUnits="userSpaceOnUse" x1="56.1918" y1="-12.4845" x2="23.8084" y2="19.899" gradientTransform="matrix(1 0 0 -1 0 40)">
		<stop  offset="0" style="stop-color:#F1F1F3"/>
		<stop  offset="3.530688e-002" style="stop-color:#D9D9DB"/>
		<stop  offset="7.265756e-002" style="stop-color:#C7C8CA"/>
		<stop  offset="0.1125" style="stop-color:#BCBDBF"/>
		<stop  offset="0.1587" style="stop-color:#B9BABC"/>
		<stop  offset="0.4762" style="stop-color:#B9BABC"/>
		<stop  offset="0.8466" style="stop-color:#F2F3F7"/>
		<stop  offset="1" style="stop-color:#969799"/>
	</linearGradient>
	<rect x="10" y="33.9" class="st0" width="60" height="4.8"/>
	
		<linearGradient id="SVGID_2_" gradientUnits="userSpaceOnUse" x1="10.0001" y1="12.5415" x2="70.0001" y2="12.5415" gradientTransform="matrix(1 0 0 -1 0 40)">
		<stop  offset="0" style="stop-color:#5B5B5B"/>
		<stop  offset="7.350993e-002" style="stop-color:#424242"/>
		<stop  offset="0.1627" style="stop-color:#2A2A2C"/>
		<stop  offset="0.2585" style="stop-color:#1A1A1C"/>
		<stop  offset="0.3643" style="stop-color:#101012"/>
		<stop  offset="0.5" style="stop-color:#0D0D0F"/>
		<stop  offset="0.6681" style="stop-color:#0F0F11"/>
		<stop  offset="0.7674" style="stop-color:#18181A"/>
		<stop  offset="0.8487" style="stop-color:#262627"/>
		<stop  offset="0.9203" style="stop-color:#3A3A3B"/>
		<stop  offset="0.9849" style="stop-color:#545454"/>
		<stop  offset="1" style="stop-color:#5B5B5B"/>
	</linearGradient>
	<polygon class="st1" points="70,33.8 10,33.8 17,21.1 63,21.1 	"/>
	<g>
		<rect x="31.2" y="36.3" class="st2" width="2.5" height="1.3"/>
		<rect x="31.4" y="36.4" class="st3" width="2.1" height="1.1"/>
		<g>
			<polygon class="st2" points="32,37.2 32,37.4 33,37.4 33,37.2 33.4,37.2 33.4,36.5 31.6,36.5 31.6,37.2 			"/>
		</g>
	</g>
	<g>
		<rect x="34.7" y="36.3" class="st2" width="2.3" height="1.3"/>
		<rect x="34.9" y="36.3" class="st3" width="2.1" height="1.2"/>
		<g>
			<rect x="35" y="36.4" class="st2" width="1.7" height="0.4"/>
			<rect x="35" y="37" class="st2" width="1.7" height="0.4"/>
		</g>
	</g>
	<g>
		<path class="st4" d="M66.5,33.9h-0.2c0.1,0.1,0.1,0.3,0.1,0.4c0.1,1-1.5,2.3-2.7,3.2c-0.8,0.6-1.7,1-2.7,1.2l0,0h1.1
			c0.1,0,0.4-0.2,0.5-0.2c0.9-0.5,4.1-2.6,4-4.1C66.6,34.2,66.6,34,66.5,33.9z M23.9,36.9c-0.3,0.6-0.5,1.2-0.5,1.8h0.2
			c0.1-0.6,0.2-1.1,0.5-1.7c0.8-1.6,2.6-2.6,3.6-3.1h-0.6C26,34.5,24.7,35.5,23.9,36.9z"/>
	</g>
	<rect x="10" y="33.8" class="st5" width="60" height="0.3"/>
	<g>
		<g>
			<path d="M12.5,36.6h0.4c0,0,0,0.1,0,0.1c0,0.1,0,0.2,0.1,0.2c0.1,0,0.2-0.1,0.2-0.1c0-0.1,0-0.1,0-0.1s-0.1-0.1-0.1-0.1l-0.2-0.2
				c-0.2-0.1-0.2-0.3-0.2-0.5c0.1-0.3,0.3-0.4,0.6-0.4c0.2,0,0.3,0,0.4,0.1c0.1,0.1,0.1,0.2,0,0.4h-0.4c0-0.1,0-0.2,0-0.2
				c0,0-0.1,0-0.1,0c-0.1,0-0.2,0-0.2,0.1c0,0,0,0.1,0,0.1c0,0,0.1,0.1,0.1,0.1l0.2,0.2c0.1,0.1,0.2,0.3,0.2,0.4
				c-0.1,0.3-0.3,0.5-0.6,0.5C12.5,37.2,12.4,37,12.5,36.6C12.5,36.6,12.5,36.6,12.5,36.6z"/>
			<path d="M14.3,36.4l-0.1,0.2c0,0.1,0,0.2,0,0.2c0,0,0.1,0.1,0.1,0.1c0.1,0,0.2-0.1,0.2-0.2l0-0.1h0.4c-0.1,0.4-0.3,0.6-0.6,0.6
				c-0.2,0-0.3-0.1-0.4-0.2c-0.1-0.1-0.1-0.3,0-0.5l0.1-0.4c0.1-0.4,0.3-0.6,0.7-0.6c0.2,0,0.3,0,0.4,0.1c0.1,0.1,0.1,0.3,0,0.6
				L15,36.4L14.3,36.4L14.3,36.4z M14.3,36.1h0.4l0-0.2c0-0.1,0-0.1,0-0.2c0,0-0.1,0-0.1,0c-0.1,0-0.1,0-0.2,0.1
				C14.4,35.8,14.4,35.9,14.3,36.1L14.3,36.1z"/>
			<path d="M15.9,36.5h0.4l0,0.2c-0.1,0.3-0.3,0.5-0.6,0.5c-0.3,0-0.5-0.2-0.4-0.6l0.1-0.5c0.1-0.4,0.3-0.6,0.6-0.6
				c0.2,0,0.3,0,0.4,0.1c0.1,0.1,0.1,0.2,0.1,0.3l0,0.1H16l0-0.2c0-0.1,0-0.1-0.1-0.1c-0.1,0-0.2,0.1-0.2,0.3l0,0.1l-0.1,0.6
				c0,0.2,0,0.3,0.1,0.3s0.1-0.1,0.2-0.3L15.9,36.5z"/>
			<path d="M16.8,35.5h0.4l-0.2,1.2c0,0.2,0,0.2,0.1,0.2c0.1,0,0.2-0.1,0.2-0.3l0.2-1.1h0.4l-0.3,1.6h-0.4l0.1-0.2
				c-0.1,0.2-0.2,0.3-0.4,0.3c-0.1,0-0.2,0-0.3-0.1c0-0.1,0-0.2,0-0.3L16.8,35.5z"/>
			<path d="M17.9,37.1l0.3-1.6h0.3l-0.1,0.3c0.1-0.1,0.1-0.2,0.2-0.2c0.1-0.1,0.2-0.1,0.3-0.1l-0.1,0.4c0,0-0.1,0-0.1,0
				c-0.2,0-0.3,0.1-0.4,0.3l-0.2,1L17.9,37.1L17.9,37.1z"/>
			<path d="M19.3,35.5h0.4l-0.3,1.6h-0.4L19.3,35.5z M19.4,34.9h0.4l-0.1,0.3h-0.4L19.4,34.9z"/>
			<path d="M19.8,35.7l0.1-0.3h0.1l0.1-0.5h0.4l-0.1,0.5h0.2l-0.1,0.3h-0.2l-0.2,1c0,0,0,0,0,0.1s0,0,0.1,0c0,0,0,0,0.1,0l-0.1,0.3
				c-0.1,0-0.1,0-0.2,0c-0.1,0-0.2,0-0.2-0.1c-0.1,0-0.1-0.1,0-0.2l0.2-1.1L19.8,35.7L19.8,35.7z"/>
			<path d="M20.4,37.7l0.1-0.3c0,0,0.1,0,0.1,0c0.1,0,0.1,0,0.1,0c0,0,0,0,0.1-0.1l0,0c0,0,0-0.1,0-0.2l-0.1-1.6h0.4l0,1.2l0,0
				l0.5-1.2h0.4l-0.8,1.8c-0.1,0.1-0.1,0.2-0.2,0.3c-0.1,0.1-0.2,0.1-0.3,0.1C20.6,37.7,20.5,37.7,20.4,37.7z"/>
		</g>
		<g>
			<path d="M12.5,37.4L12.5,37.4L12.5,37.4L12.5,37.4c0.1,0,0.2,0,0.2,0c0.1,0,0.2,0,0.2,0.1v0.2h-0.1v-0.2c0-0.1,0-0.1-0.1-0.1
				C12.6,37.5,12.6,37.5,12.5,37.4l0.1,0.3h-0.1V37.4z"/>
			<path d="M13,37.6c0-0.1,0.1-0.2,0.2-0.2c0.1,0,0.2,0.1,0.2,0.2c0,0,0,0,0,0H13c0.1,0.1,0.1,0.1,0.2,0.1c0.1,0,0.1,0,0.1,0l0,0
				c0,0-0.1,0-0.2,0C13.1,37.8,13,37.7,13,37.6z M13.4,37.6c0-0.1-0.1-0.1-0.2-0.1c-0.1,0-0.2,0.1-0.2,0.1H13.4z"/>
			<path d="M13.6,37.7v-0.2h-0.1v0h0.1l0-0.1h0.1v0.1h0.2v0h-0.2L13.6,37.7c0.1,0,0.1,0.1,0.2,0.1c0,0,0.1,0,0.1,0v0
				c0,0-0.1,0-0.1,0C13.6,37.8,13.6,37.7,13.6,37.7z"/>
			<path d="M13.9,37.4L13.9,37.4l0.2,0.2c0,0,0,0.1,0,0.1l0,0c0,0,0-0.1,0-0.1l0.1-0.2h0.1l0.1,0.2c0,0,0,0.1,0,0.1l0,0
				c0,0,0-0.1,0-0.1l0.1-0.2h0.1l-0.2,0.3h-0.1l-0.1-0.2c0,0,0-0.1,0-0.1l0,0c0,0,0,0.1,0,0.1l-0.1,0.2H14L13.9,37.4z"/>
			<path d="M14.7,37.6c0-0.1,0.1-0.2,0.2-0.2s0.2,0.1,0.2,0.2c0,0.1-0.1,0.2-0.2,0.2S14.7,37.7,14.7,37.6z M15.1,37.6
				c0-0.1-0.1-0.1-0.2-0.1s-0.2,0.1-0.2,0.1c0,0.1,0.1,0.1,0.2,0.1S15.1,37.7,15.1,37.6z"/>
			<path d="M15.3,37.4L15.3,37.4L15.3,37.4L15.3,37.4c0.1,0,0.2,0,0.2,0c0,0,0,0,0.1,0l0,0c0,0,0,0-0.1,0c-0.1,0-0.1,0-0.1,0.1v0.2
				h-0.1C15.3,37.8,15.3,37.4,15.3,37.4z"/>
			<path d="M15.7,37.3L15.7,37.3l0.1,0.4l0,0l0.3-0.2h0.1l-0.2,0.1l0.2,0.2H16l-0.2-0.2l-0.1,0.1v0.1h-0.1L15.7,37.3L15.7,37.3z"/>
			<path d="M16.4,37.7L16.4,37.7c0.1,0,0.1,0,0.2,0s0.1,0,0.1-0.1s-0.1-0.1-0.1-0.1c-0.1,0-0.2,0-0.2-0.1c0-0.1,0.1-0.1,0.2-0.1
				c0.1,0,0.1,0,0.2,0l0,0c0,0-0.1,0-0.1,0c-0.1,0-0.1,0-0.1,0.1s0.1,0.1,0.1,0.1c0.1,0,0.2,0,0.2,0.1c0,0.1-0.1,0.1-0.2,0.1
				C16.5,37.8,16.5,37.8,16.4,37.7z"/>
			<path d="M16.9,37.6c0-0.1,0.1-0.2,0.2-0.2c0.1,0,0.2,0.1,0.2,0.2c0,0,0,0,0,0H16.9c0.1,0.1,0.1,0.1,0.2,0.1c0.1,0,0.1,0,0.1,0
				l0,0c0,0-0.1,0-0.2,0C17,37.8,16.9,37.7,16.9,37.6z M17.3,37.6c0-0.1-0.1-0.1-0.2-0.1s-0.2,0.1-0.2,0.1H17.3z"/>
			<path d="M17.4,37.6c0-0.1,0.1-0.2,0.2-0.2c0.1,0,0.1,0,0.2,0l0,0c0,0-0.1,0-0.1,0C17.6,37.4,17.5,37.5,17.4,37.6
				c0,0.1,0.1,0.1,0.2,0.1c0.1,0,0.1,0,0.1,0l0,0c-0.1,0-0.1,0-0.2,0C17.5,37.8,17.4,37.7,17.4,37.6z"/>
			<path d="M18,37.7v-0.2H18L18,37.7c0.1,0.1,0.1,0.1,0.2,0.1c0.1,0,0.1,0,0.2-0.1v-0.2h0.1v0.3h-0.1v-0.1l0,0
				c-0.1,0-0.1,0.1-0.2,0.1C18,37.8,18,37.7,18,37.7z"/>
			<path d="M18.6,37.4L18.6,37.4L18.6,37.4L18.6,37.4c0.1,0,0.2,0,0.2,0c0,0,0,0,0.1,0l0,0c0,0,0,0-0.1,0c-0.1,0-0.1,0-0.1,0.1v0.2
				h-0.1V37.4z"/>
			<path d="M18.9,37.3C18.9,37.3,19,37.3,18.9,37.3c0.1,0,0.1,0,0.1,0C19,37.3,19,37.4,18.9,37.3C19,37.4,18.9,37.3,18.9,37.3z
				 M19,37.4L19,37.4l0.1,0.3H19V37.4z"/>
			<path d="M19.2,37.7v-0.2h-0.1v0h0.1l0-0.1h0v0.1h0.2v0h-0.2L19.2,37.7c0.1,0,0.1,0.1,0.1,0.1c0,0,0.1,0,0.1,0l0,0
				c0,0-0.1,0-0.1,0C19.2,37.8,19.2,37.7,19.2,37.7z"/>
			<path d="M19.5,37.9L19.5,37.9C19.5,37.9,19.5,37.9,19.5,37.9c0.1,0,0.2-0.1,0.2-0.1l0,0l-0.2-0.3h0.1l0.1,0.2c0,0,0,0.1,0.1,0.1
				l0,0c0,0,0-0.1,0.1-0.1l0.1-0.2h0.1l-0.2,0.4C19.7,37.9,19.7,37.9,19.5,37.9C19.5,37.9,19.5,37.9,19.5,37.9z"/>
		</g>
	</g>
	
		<linearGradient id="SVGID_3_" gradientUnits="userSpaceOnUse" x1="56.1918" y1="-5.8886" x2="23.8084" y2="26.4948" gradientTransform="matrix(1 0 0 -1 0 40)">
		<stop  offset="0" style="stop-color:#F1F1F3"/>
		<stop  offset="3.530688e-002" style="stop-color:#D9D9DB"/>
		<stop  offset="7.265756e-002" style="stop-color:#C7C8CA"/>
		<stop  offset="0.1125" style="stop-color:#BCBDBF"/>
		<stop  offset="0.1587" style="stop-color:#B9BABC"/>
		<stop  offset="0.4762" style="stop-color:#B9BABC"/>
		<stop  offset="0.8466" style="stop-color:#F2F3F7"/>
		<stop  offset="1" style="stop-color:#969799"/>
	</linearGradient>
	<rect x="10" y="27.3" class="st6" width="60" height="4.8"/>
	
		<linearGradient id="SVGID_4_" gradientUnits="userSpaceOnUse" x1="10.0001" y1="19.1373" x2="70.0001" y2="19.1373" gradientTransform="matrix(1 0 0 -1 0 40)">
		<stop  offset="0" style="stop-color:#5B5B5B"/>
		<stop  offset="7.350993e-002" style="stop-color:#424242"/>
		<stop  offset="0.1627" style="stop-color:#2A2A2C"/>
		<stop  offset="0.2585" style="stop-color:#1A1A1C"/>
		<stop  offset="0.3643" style="stop-color:#101012"/>
		<stop  offset="0.5" style="stop-color:#0D0D0F"/>
		<stop  offset="0.6681" style="stop-color:#0F0F11"/>
		<stop  offset="0.7674" style="stop-color:#18181A"/>
		<stop  offset="0.8487" style="stop-color:#262627"/>
		<stop  offset="0.9203" style="stop-color:#3A3A3B"/>
		<stop  offset="0.9849" style="stop-color:#545454"/>
		<stop  offset="1" style="stop-color:#5B5B5B"/>
	</linearGradient>
	<polygon class="st7" points="70,27.2 10,27.2 17,14.5 63,14.5 	"/>
	<g>
		<rect x="31.2" y="29.6" class="st2" width="2.5" height="1.3"/>
		<rect x="31.4" y="29.7" class="st3" width="2.1" height="1.1"/>
		<g>
			<polygon class="st2" points="32,30.6 32,30.8 33,30.8 33,30.6 33.4,30.6 33.4,29.9 31.6,29.9 31.6,30.6 			"/>
		</g>
	</g>
	<g>
		<rect x="34.7" y="29.7" class="st2" width="2.3" height="1.3"/>
		<rect x="34.9" y="29.7" class="st3" width="2.1" height="1.2"/>
		<g>
			<rect x="35" y="29.8" class="st2" width="1.7" height="0.4"/>
			<rect x="35" y="30.4" class="st2" width="1.7" height="0.4"/>
		</g>
	</g>
	<g>
		<path class="st4" d="M66.5,27.3h-0.2c0.1,0.1,0.1,0.3,0.1,0.4c0.1,1-1.5,2.3-2.7,3.2c-0.8,0.6-1.7,1-2.7,1.2l0,0h1.1
			c0.1,0,0.4-0.2,0.5-0.2c0.9-0.5,4.1-2.6,4-4.1C66.6,27.5,66.6,27.4,66.5,27.3z M23.9,30.3c-0.3,0.6-0.5,1.2-0.5,1.8h0.2
			c0.1-0.6,0.2-1.1,0.5-1.7c0.8-1.6,2.6-2.6,3.6-3.1h-0.6C26,27.9,24.7,28.9,23.9,30.3z"/>
	</g>
	<rect x="10" y="27.2" class="st5" width="60" height="0.3"/>
	<g>
		<g>
			<path d="M12.5,30h0.4c0,0,0,0.1,0,0.1c0,0.1,0,0.2,0.1,0.2c0.1,0,0.2-0.1,0.2-0.1c0-0.1,0-0.1,0-0.1c0,0-0.1-0.1-0.1-0.1
				l-0.2-0.2c-0.2-0.1-0.2-0.3-0.2-0.5c0.1-0.3,0.3-0.4,0.6-0.4c0.2,0,0.3,0,0.4,0.1s0.1,0.2,0,0.4h-0.4c0-0.1,0-0.2,0-0.2
				c0,0-0.1,0-0.1,0c-0.1,0-0.2,0-0.2,0.1c0,0,0,0.1,0,0.1c0,0,0.1,0.1,0.1,0.1l0.2,0.2c0.1,0.1,0.2,0.3,0.2,0.4
				c-0.1,0.3-0.3,0.5-0.6,0.5C12.5,30.6,12.4,30.4,12.5,30C12.5,30,12.5,30,12.5,30z"/>
			<path d="M14.3,29.8L14.2,30c0,0.1,0,0.2,0,0.2c0,0,0.1,0.1,0.1,0.1c0.1,0,0.2-0.1,0.2-0.2l0-0.1h0.4c-0.1,0.4-0.3,0.6-0.6,0.6
				c-0.2,0-0.3-0.1-0.4-0.2c-0.1-0.1-0.1-0.3,0-0.5l0.1-0.4c0.1-0.4,0.3-0.6,0.7-0.6c0.2,0,0.3,0,0.4,0.1c0.1,0.1,0.1,0.3,0,0.6
				L15,29.8L14.3,29.8L14.3,29.8z M14.3,29.5h0.4l0-0.2c0-0.1,0-0.1,0-0.2c0,0-0.1,0-0.1,0c-0.1,0-0.1,0-0.2,0.1
				C14.4,29.2,14.4,29.3,14.3,29.5L14.3,29.5z"/>
			<path d="M15.9,29.9h0.4l0,0.2c-0.1,0.3-0.3,0.5-0.6,0.5c-0.3,0-0.5-0.2-0.4-0.6l0.1-0.5c0.1-0.4,0.3-0.6,0.6-0.6
				c0.2,0,0.3,0,0.4,0.1c0.1,0.1,0.1,0.2,0.1,0.3l0,0.1H16l0-0.2c0-0.1,0-0.1-0.1-0.1c-0.1,0-0.2,0.1-0.2,0.3l0,0.1L15.6,30
				c0,0.2,0,0.3,0.1,0.3s0.1-0.1,0.2-0.3L15.9,29.9z"/>
			<path d="M16.8,28.9h0.4L16.9,30c0,0.2,0,0.2,0.1,0.2c0.1,0,0.2-0.1,0.2-0.3l0.2-1.1h0.4l-0.3,1.6h-0.4l0.1-0.2
				c-0.1,0.2-0.2,0.3-0.4,0.3c-0.1,0-0.2,0-0.3-0.1c0-0.1,0-0.2,0-0.3L16.8,28.9z"/>
			<path d="M17.9,30.5l0.3-1.6h0.3l-0.1,0.3c0.1-0.1,0.1-0.2,0.2-0.2c0.1-0.1,0.2-0.1,0.3-0.1l-0.1,0.4c0,0-0.1,0-0.1,0
				c-0.2,0-0.3,0.1-0.4,0.3l-0.2,1L17.9,30.5L17.9,30.5z"/>
			<path d="M19.3,28.9h0.4l-0.3,1.6h-0.4L19.3,28.9z M19.4,28.3h0.4l-0.1,0.3h-0.4L19.4,28.3z"/>
			<path d="M19.8,29.2l0.1-0.3h0.1l0.1-0.5h0.4l-0.1,0.5h0.2l-0.1,0.3h-0.2l-0.2,1c0,0,0,0,0,0.1c0,0,0,0,0.1,0c0,0,0,0,0.1,0
				l-0.1,0.3c-0.1,0-0.1,0-0.2,0c-0.1,0-0.2,0-0.2-0.1c-0.1,0-0.1-0.1,0-0.2l0.2-1.1L19.8,29.2L19.8,29.2z"/>
			<path d="M20.4,31l0.1-0.3c0,0,0.1,0,0.1,0c0.1,0,0.1,0,0.1,0c0,0,0,0,0.1-0.1l0,0c0,0,0-0.1,0-0.2l-0.1-1.6h0.4l0,1.2l0,0
				l0.5-1.2h0.4l-0.8,1.8C21,30.8,21,30.9,20.9,31c-0.1,0.1-0.2,0.1-0.3,0.1C20.6,31.1,20.5,31.1,20.4,31z"/>
		</g>
		<g>
			<path d="M12.5,30.8L12.5,30.8L12.5,30.8L12.5,30.8c0.1,0,0.2,0,0.2,0c0.1,0,0.2,0,0.2,0.1v0.2h-0.1V31c0-0.1,0-0.1-0.1-0.1
				C12.6,30.8,12.6,30.9,12.5,30.8l0.1,0.3h-0.1V30.8z"/>
			<path d="M13,31c0-0.1,0.1-0.2,0.2-0.2c0.1,0,0.2,0.1,0.2,0.2c0,0,0,0,0,0H13c0.1,0.1,0.1,0.1,0.2,0.1c0.1,0,0.1,0,0.1,0l0,0
				c0,0-0.1,0-0.2,0C13.1,31.2,13,31.1,13,31z M13.4,31c0-0.1-0.1-0.1-0.2-0.1c-0.1,0-0.2,0.1-0.2,0.1H13.4z"/>
			<path d="M13.6,31.1v-0.2h-0.1v0h0.1l0-0.1h0.1v0.1h0.2v0h-0.2L13.6,31.1c0.1,0,0.1,0.1,0.2,0.1c0,0,0.1,0,0.1,0l0,0
				c0,0-0.1,0-0.1,0C13.6,31.2,13.6,31.1,13.6,31.1z"/>
			<path d="M13.9,30.8L13.9,30.8L14,31c0,0,0,0.1,0,0.1l0,0c0,0,0-0.1,0-0.1l0.1-0.2h0.1l0.1,0.2c0,0,0,0.1,0,0.1l0,0
				c0,0,0-0.1,0-0.1l0.1-0.2h0.1l-0.2,0.3h-0.1L14.3,31c0,0,0-0.1,0-0.1l0,0c0,0,0,0.1,0,0.1l-0.1,0.2H14L13.9,30.8z"/>
			<path d="M14.7,31c0-0.1,0.1-0.2,0.2-0.2s0.2,0.1,0.2,0.2c0,0.1-0.1,0.2-0.2,0.2S14.7,31.1,14.7,31z M15.1,31
				c0-0.1-0.1-0.1-0.2-0.1s-0.2,0.1-0.2,0.1c0,0.1,0.1,0.1,0.2,0.1S15.1,31.1,15.1,31z"/>
			<path d="M15.3,30.8L15.3,30.8L15.3,30.8L15.3,30.8c0.1,0,0.2,0,0.2,0c0,0,0,0,0.1,0l0,0c0,0,0,0-0.1,0c-0.1,0-0.1,0-0.1,0.1v0.2
				h-0.1C15.3,31.2,15.3,30.8,15.3,30.8z"/>
			<path d="M15.7,30.7L15.7,30.7l0.1,0.4l0,0l0.3-0.2h0.1L15.9,31l0.2,0.2H16L15.9,31l-0.1,0.1v0.1h-0.1L15.7,30.7L15.7,30.7z"/>
			<path d="M16.4,31.1L16.4,31.1c0.1,0,0.1,0,0.2,0s0.1,0,0.1-0.1c0,0-0.1-0.1-0.1-0.1c-0.1,0-0.2,0-0.2-0.1c0-0.1,0.1-0.1,0.2-0.1
				c0.1,0,0.1,0,0.2,0l0,0c0,0-0.1,0-0.1,0c-0.1,0-0.1,0-0.1,0.1c0,0,0.1,0.1,0.1,0.1c0.1,0,0.2,0,0.2,0.1c0,0.1-0.1,0.1-0.2,0.1
				C16.5,31.2,16.5,31.1,16.4,31.1z"/>
			<path d="M16.9,31c0-0.1,0.1-0.2,0.2-0.2c0.1,0,0.2,0.1,0.2,0.2c0,0,0,0,0,0H16.9c0.1,0.1,0.1,0.1,0.2,0.1c0.1,0,0.1,0,0.1,0l0,0
				c0,0-0.1,0-0.2,0C17,31.2,16.9,31.1,16.9,31z M17.3,31c0-0.1-0.1-0.1-0.2-0.1s-0.2,0.1-0.2,0.1H17.3z"/>
			<path d="M17.4,31c0-0.1,0.1-0.2,0.2-0.2c0.1,0,0.1,0,0.2,0l0,0c0,0-0.1,0-0.1,0C17.6,30.8,17.5,30.9,17.4,31
				c0,0.1,0.1,0.1,0.2,0.1c0.1,0,0.1,0,0.1,0l0,0c-0.1,0-0.1,0-0.2,0C17.5,31.2,17.4,31.1,17.4,31z"/>
			<path d="M18,31v-0.2H18L18,31c0.1,0.1,0.1,0.1,0.2,0.1c0.1,0,0.1,0,0.2-0.1v-0.2h0.1v0.3h-0.1v-0.1l0,0c-0.1,0-0.1,0.1-0.2,0.1
				C18,31.2,18,31.1,18,31z"/>
			<path d="M18.6,30.8L18.6,30.8L18.6,30.8L18.6,30.8c0.1,0,0.2,0,0.2,0c0,0,0,0,0.1,0l0,0c0,0,0,0-0.1,0c-0.1,0-0.1,0-0.1,0.1v0.2
				h-0.1V30.8z"/>
			<path d="M18.9,30.7C18.9,30.7,19,30.7,18.9,30.7c0.1,0,0.1,0,0.1,0C19,30.7,19,30.7,18.9,30.7C19,30.7,18.9,30.7,18.9,30.7z
				 M19,30.8L19,30.8l0.1,0.3H19V30.8z"/>
			<path d="M19.2,31.1v-0.2h-0.1v0h0.1l0-0.1h0v0.1h0.2v0h-0.2L19.2,31.1c0.1,0,0.1,0.1,0.1,0.1c0,0,0.1,0,0.1,0l0,0
				c0,0-0.1,0-0.1,0C19.2,31.2,19.2,31.1,19.2,31.1z"/>
			<path d="M19.5,31.3L19.5,31.3C19.5,31.3,19.5,31.3,19.5,31.3c0.1,0,0.2-0.1,0.2-0.1l0,0l-0.2-0.3h0.1l0.1,0.2c0,0,0,0.1,0.1,0.1
				l0,0c0,0,0-0.1,0.1-0.1l0.1-0.2h0.1l-0.2,0.4C19.7,31.3,19.7,31.3,19.5,31.3C19.5,31.3,19.5,31.3,19.5,31.3z"/>
		</g>
	</g>
	
		<linearGradient id="SVGID_5_" gradientUnits="userSpaceOnUse" x1="56.1918" y1="0.7202" x2="23.8084" y2="33.1036" gradientTransform="matrix(1 0 0 -1 0 40)">
		<stop  offset="0" style="stop-color:#F1F1F3"/>
		<stop  offset="3.530688e-002" style="stop-color:#D9D9DB"/>
		<stop  offset="7.265756e-002" style="stop-color:#C7C8CA"/>
		<stop  offset="0.1125" style="stop-color:#BCBDBF"/>
		<stop  offset="0.1587" style="stop-color:#B9BABC"/>
		<stop  offset="0.4762" style="stop-color:#B9BABC"/>
		<stop  offset="0.8466" style="stop-color:#F2F3F7"/>
		<stop  offset="1" style="stop-color:#969799"/>
	</linearGradient>
	<rect x="10" y="20.7" class="st8" width="60" height="4.8"/>
	
		<linearGradient id="SVGID_6_" gradientUnits="userSpaceOnUse" x1="10.0001" y1="25.7461" x2="70.0001" y2="25.7461" gradientTransform="matrix(1 0 0 -1 0 40)">
		<stop  offset="0" style="stop-color:#5B5B5B"/>
		<stop  offset="7.350993e-002" style="stop-color:#424242"/>
		<stop  offset="0.1627" style="stop-color:#2A2A2C"/>
		<stop  offset="0.2585" style="stop-color:#1A1A1C"/>
		<stop  offset="0.3643" style="stop-color:#101012"/>
		<stop  offset="0.5" style="stop-color:#0D0D0F"/>
		<stop  offset="0.6681" style="stop-color:#0F0F11"/>
		<stop  offset="0.7674" style="stop-color:#18181A"/>
		<stop  offset="0.8487" style="stop-color:#262627"/>
		<stop  offset="0.9203" style="stop-color:#3A3A3B"/>
		<stop  offset="0.9849" style="stop-color:#545454"/>
		<stop  offset="1" style="stop-color:#5B5B5B"/>
	</linearGradient>
	<polygon class="st9" points="70,20.6 10,20.6 17,7.9 63,7.9 	"/>
	<g>
		<rect x="31.2" y="23" class="st2" width="2.5" height="1.3"/>
		<rect x="31.4" y="23.2" class="st3" width="2.1" height="1.1"/>
		<g>
			<polygon class="st2" points="32,24 32,24.2 33,24.2 33,24 33.4,24 33.4,23.3 31.6,23.3 31.6,24 			"/>
		</g>
	</g>
	<g>
		<rect x="34.7" y="23.1" class="st2" width="2.3" height="1.3"/>
		<rect x="34.9" y="23.1" class="st3" width="2.1" height="1.2"/>
		<g>
			<rect x="35" y="23.2" class="st2" width="1.7" height="0.4"/>
			<rect x="35" y="23.8" class="st2" width="1.7" height="0.4"/>
		</g>
	</g>
	<g>
		<path class="st4" d="M66.5,20.7h-0.2c0.1,0.1,0.1,0.3,0.1,0.4c0.1,1-1.5,2.3-2.7,3.2c-0.8,0.6-1.7,1-2.7,1.2l0,0h1.1
			c0.1,0,0.4-0.2,0.5-0.2c0.9-0.5,4.1-2.6,4-4.1C66.6,21,66.6,20.8,66.5,20.7z M23.9,23.7c-0.3,0.6-0.5,1.2-0.5,1.8h0.2
			c0.1-0.6,0.2-1.1,0.5-1.7c0.8-1.6,2.6-2.6,3.6-3.1h-0.6C26,21.3,24.7,22.3,23.9,23.7z"/>
	</g>
	<rect x="10" y="20.6" class="st5" width="60" height="0.3"/>
	<g>
		<g>
			<path d="M12.5,23.3h0.4c0,0,0,0.1,0,0.1c0,0.1,0,0.2,0.1,0.2c0.1,0,0.2-0.1,0.2-0.1c0-0.1,0-0.1,0-0.1c0,0-0.1-0.1-0.1-0.1
				l-0.2-0.2c-0.2-0.1-0.2-0.3-0.2-0.5c0.1-0.3,0.3-0.4,0.6-0.4c0.2,0,0.3,0,0.4,0.1s0.1,0.2,0,0.4h-0.4c0-0.1,0-0.2,0-0.2
				c0,0-0.1,0-0.1,0c-0.1,0-0.2,0-0.2,0.1c0,0,0,0.1,0,0.1c0,0,0.1,0.1,0.1,0.1l0.2,0.2c0.1,0.1,0.2,0.3,0.2,0.4
				c-0.1,0.3-0.3,0.5-0.6,0.5C12.5,23.9,12.4,23.8,12.5,23.3C12.5,23.4,12.5,23.4,12.5,23.3z"/>
			<path d="M14.3,23.2l-0.1,0.2c0,0.1,0,0.2,0,0.2c0,0,0.1,0.1,0.1,0.1c0.1,0,0.2-0.1,0.2-0.2l0-0.1h0.4c-0.1,0.4-0.3,0.6-0.6,0.6
				c-0.2,0-0.3-0.1-0.4-0.2c-0.1-0.1-0.1-0.3,0-0.5l0.1-0.4c0.1-0.4,0.3-0.6,0.7-0.6c0.2,0,0.3,0,0.4,0.1c0.1,0.1,0.1,0.3,0,0.6
				l0,0.2H14.3z M14.3,22.9h0.4l0-0.2c0-0.1,0-0.1,0-0.2c0,0-0.1,0-0.1,0c-0.1,0-0.1,0-0.2,0.1C14.4,22.6,14.4,22.7,14.3,22.9
				L14.3,22.9z"/>
			<path d="M15.9,23.3h0.4l0,0.2c-0.1,0.3-0.3,0.5-0.6,0.5c-0.3,0-0.5-0.2-0.4-0.6l0.1-0.5c0.1-0.4,0.3-0.6,0.6-0.6
				c0.2,0,0.3,0,0.4,0.1c0.1,0.1,0.1,0.2,0.1,0.3l0,0.1H16l0-0.2c0-0.1,0-0.1-0.1-0.1c-0.1,0-0.2,0.1-0.2,0.3l0,0.1l-0.1,0.6
				c0,0.2,0,0.3,0.1,0.3s0.1-0.1,0.2-0.3L15.9,23.3z"/>
			<path d="M16.8,22.3h0.4l-0.2,1.2c0,0.2,0,0.2,0.1,0.2c0.1,0,0.2-0.1,0.2-0.3l0.2-1.1h0.4l-0.3,1.6h-0.4l0.1-0.2
				C17.1,23.9,17,24,16.8,24c-0.1,0-0.2,0-0.3-0.1c0-0.1,0-0.2,0-0.3L16.8,22.3z"/>
			<path d="M17.9,23.9l0.3-1.6h0.3l-0.1,0.3c0.1-0.1,0.1-0.2,0.2-0.2c0.1-0.1,0.2-0.1,0.3-0.1L19,22.7c0,0-0.1,0-0.1,0
				c-0.2,0-0.3,0.1-0.4,0.3l-0.2,1L17.9,23.9L17.9,23.9z"/>
			<path d="M19.3,22.3h0.4l-0.3,1.6h-0.4L19.3,22.3z M19.4,21.7h0.4l-0.1,0.3h-0.4L19.4,21.7z"/>
			<path d="M19.8,22.5l0.1-0.3h0.1l0.1-0.5h0.4l-0.1,0.5h0.2l-0.1,0.3h-0.2l-0.2,1c0,0,0,0,0,0.1s0,0,0.1,0c0,0,0,0,0.1,0l-0.1,0.3
				c-0.1,0-0.1,0-0.2,0c-0.1,0-0.2,0-0.2-0.1c-0.1,0-0.1-0.1,0-0.2l0.2-1.1L19.8,22.5L19.8,22.5z"/>
			<path d="M20.4,24.4l0.1-0.3c0,0,0.1,0,0.1,0c0.1,0,0.1,0,0.1,0c0,0,0,0,0.1-0.1l0,0c0,0,0-0.1,0-0.2l-0.1-1.6h0.4l0,1.2l0,0
				l0.5-1.2h0.4l-0.8,1.8c-0.1,0.1-0.1,0.2-0.2,0.3c-0.1,0.1-0.2,0.1-0.3,0.1C20.6,24.5,20.5,24.4,20.4,24.4z"/>
		</g>
		<g>
			<path d="M12.5,24.2L12.5,24.2L12.5,24.2L12.5,24.2c0.1,0,0.2,0,0.2,0c0.1,0,0.2,0,0.2,0.1v0.2h-0.1v-0.2c0-0.1,0-0.1-0.1-0.1
				C12.6,24.3,12.6,24.3,12.5,24.2l0.1,0.3h-0.1V24.2z"/>
			<path d="M13,24.4c0-0.1,0.1-0.2,0.2-0.2c0.1,0,0.2,0.1,0.2,0.2c0,0,0,0,0,0H13c0.1,0.1,0.1,0.1,0.2,0.1c0.1,0,0.1,0,0.1,0l0,0
				c0,0-0.1,0-0.2,0C13.1,24.6,13,24.5,13,24.4z M13.4,24.4c0-0.1-0.1-0.1-0.2-0.1c-0.1,0-0.2,0.1-0.2,0.1H13.4z"/>
			<path d="M13.6,24.5v-0.2h-0.1v0h0.1l0-0.1h0.1v0.1h0.2v0h-0.2L13.6,24.5c0.1,0,0.1,0.1,0.2,0.1c0,0,0.1,0,0.1,0l0,0
				c0,0-0.1,0-0.1,0C13.6,24.6,13.6,24.5,13.6,24.5z"/>
			<path d="M13.9,24.2L13.9,24.2l0.2,0.2c0,0,0,0.1,0,0.1l0,0c0,0,0-0.1,0-0.1l0.1-0.2h0.1l0.1,0.2c0,0,0,0.1,0,0.1l0,0
				c0,0,0-0.1,0-0.1l0.1-0.2h0.1l-0.2,0.3h-0.1l-0.1-0.2c0,0,0-0.1,0-0.1l0,0c0,0,0,0.1,0,0.1l-0.1,0.2H14L13.9,24.2z"/>
			<path d="M14.7,24.4c0-0.1,0.1-0.2,0.2-0.2s0.2,0.1,0.2,0.2c0,0.1-0.1,0.2-0.2,0.2S14.7,24.5,14.7,24.4z M15.1,24.4
				c0-0.1-0.1-0.1-0.2-0.1s-0.2,0.1-0.2,0.1c0,0.1,0.1,0.1,0.2,0.1S15.1,24.5,15.1,24.4z"/>
			<path d="M15.3,24.2L15.3,24.2L15.3,24.2L15.3,24.2c0.1,0,0.2,0,0.2,0c0,0,0,0,0.1,0l0,0c0,0,0,0-0.1,0c-0.1,0-0.1,0-0.1,0.1v0.2
				h-0.1C15.3,24.6,15.3,24.2,15.3,24.2z"/>
			<path d="M15.7,24.1L15.7,24.1l0.1,0.4l0,0l0.3-0.2h0.1l-0.2,0.1l0.2,0.2H16l-0.2-0.2l-0.1,0.1v0.1h-0.1L15.7,24.1L15.7,24.1z"/>
			<path d="M16.4,24.5L16.4,24.5c0.1,0,0.1,0,0.2,0s0.1,0,0.1-0.1c0,0-0.1-0.1-0.1-0.1c-0.1,0-0.2,0-0.2-0.1c0-0.1,0.1-0.1,0.2-0.1
				c0.1,0,0.1,0,0.2,0l0,0c0,0-0.1,0-0.1,0c-0.1,0-0.1,0-0.1,0.1s0.1,0.1,0.1,0.1c0.1,0,0.2,0,0.2,0.1c0,0.1-0.1,0.1-0.2,0.1
				C16.5,24.6,16.5,24.6,16.4,24.5z"/>
			<path d="M16.9,24.4c0-0.1,0.1-0.2,0.2-0.2c0.1,0,0.2,0.1,0.2,0.2c0,0,0,0,0,0H16.9c0.1,0.1,0.1,0.1,0.2,0.1c0.1,0,0.1,0,0.1,0
				l0,0c0,0-0.1,0-0.2,0C17,24.6,16.9,24.5,16.9,24.4z M17.3,24.4c0-0.1-0.1-0.1-0.2-0.1s-0.2,0.1-0.2,0.1H17.3z"/>
			<path d="M17.4,24.4c0-0.1,0.1-0.2,0.2-0.2c0.1,0,0.1,0,0.2,0l0,0c0,0-0.1,0-0.1,0C17.6,24.2,17.5,24.3,17.4,24.4
				c0,0.1,0.1,0.1,0.2,0.1c0.1,0,0.1,0,0.1,0l0,0c-0.1,0-0.1,0-0.2,0C17.5,24.6,17.4,24.5,17.4,24.4z"/>
			<path d="M18,24.4v-0.2H18L18,24.4c0.1,0.1,0.1,0.1,0.2,0.1c0.1,0,0.1,0,0.2-0.1v-0.2h0.1v0.3h-0.1v-0.1l0,0
				c-0.1,0-0.1,0.1-0.2,0.1C18,24.6,18,24.5,18,24.4z"/>
			<path d="M18.6,24.2L18.6,24.2L18.6,24.2L18.6,24.2c0.1,0,0.2,0,0.2,0c0,0,0,0,0.1,0l0,0c0,0,0,0-0.1,0c-0.1,0-0.1,0-0.1,0.1v0.2
				h-0.1V24.2z"/>
			<path d="M18.9,24.1C18.9,24.1,19,24.1,18.9,24.1c0.1,0,0.1,0,0.1,0S19,24.1,18.9,24.1C19,24.2,18.9,24.1,18.9,24.1z M19,24.2
				L19,24.2l0.1,0.3H19V24.2z"/>
			<path d="M19.2,24.5v-0.2h-0.1v0h0.1l0-0.1h0v0.1h0.2v0h-0.2L19.2,24.5c0.1,0,0.1,0.1,0.1,0.1c0,0,0.1,0,0.1,0l0,0
				c0,0-0.1,0-0.1,0C19.2,24.6,19.2,24.5,19.2,24.5z"/>
			<path d="M19.5,24.7L19.5,24.7C19.5,24.7,19.5,24.7,19.5,24.7c0.1,0,0.2-0.1,0.2-0.1l0,0l-0.2-0.3h0.1l0.1,0.2c0,0,0,0.1,0.1,0.1
				l0,0c0,0,0-0.1,0.1-0.1l0.1-0.2h0.1l-0.2,0.4C19.7,24.7,19.7,24.7,19.5,24.7C19.5,24.7,19.5,24.7,19.5,24.7z"/>
		</g>
	</g>
	<g>
		
			<linearGradient id="SVGID_7_" gradientUnits="userSpaceOnUse" x1="56.1918" y1="7.3161" x2="23.8084" y2="39.6995" gradientTransform="matrix(1 0 0 -1 0 40)">
			<stop  offset="0" style="stop-color:#F1F1F3"/>
			<stop  offset="3.530688e-002" style="stop-color:#D9D9DB"/>
			<stop  offset="7.265756e-002" style="stop-color:#C7C8CA"/>
			<stop  offset="0.1125" style="stop-color:#BCBDBF"/>
			<stop  offset="0.1587" style="stop-color:#B9BABC"/>
			<stop  offset="0.4762" style="stop-color:#B9BABC"/>
			<stop  offset="0.8466" style="stop-color:#F2F3F7"/>
			<stop  offset="1" style="stop-color:#969799"/>
		</linearGradient>
		<rect x="10" y="14.1" class="st10" width="60" height="4.8"/>
		<polygon class="st11" points="70,14 10,14 17,1.3 63,1.3 		"/>
		<g>
			<rect x="36.4" y="15.2" class="st2" width="2.5" height="2.5"/>
			<rect x="36.6" y="15.3" class="st3" width="2.3" height="2.3"/>
			<g>
				<polygon class="st2" points="38.3,15.7 38.3,15.4 37.3,15.4 37.3,15.7 36.8,15.7 36.8,16.4 38.7,16.4 38.7,15.7 				"/>
				<polygon class="st2" points="37.3,17.3 37.3,17.6 38.3,17.6 38.3,17.3 38.7,17.3 38.7,16.6 36.8,16.6 36.8,17.3 				"/>
			</g>
		</g>
		<g>
			<g>
				<rect x="39.5" y="15.2" class="st2" width="2.5" height="2.5"/>
				<rect x="39.7" y="15.3" class="st3" width="2.3" height="2.3"/>
				<g>
					<polygon class="st2" points="41.3,15.7 41.3,15.4 40.3,15.4 40.3,15.7 39.9,15.7 39.9,16.4 41.8,16.4 41.8,15.7 					"/>
					<polygon class="st2" points="40.3,17.3 40.3,17.6 41.3,17.6 41.3,17.3 41.8,17.3 41.8,16.6 39.9,16.6 39.9,17.3 					"/>
				</g>
			</g>
			<g>
				<rect x="42" y="15.2" class="st2" width="2.7" height="2.5"/>
				<rect x="42.2" y="15.3" class="st3" width="2.3" height="2.3"/>
				<g>
					<polygon class="st2" points="43.8,15.7 43.8,15.4 42.8,15.4 42.8,15.7 42.4,15.7 42.4,16.4 44.3,16.4 44.3,15.7 					"/>
					<polygon class="st2" points="42.8,17.3 42.8,17.6 43.8,17.6 43.8,17.3 44.3,17.3 44.3,16.6 42.4,16.6 42.4,17.3 					"/>
				</g>
			</g>
		</g>
		<g>
			<rect x="28.7" y="16.4" class="st2" width="2.5" height="1.3"/>
			<rect x="28.9" y="16.5" class="st3" width="2.1" height="1.1"/>
			<g>
				<polygon class="st2" points="29.5,17.4 29.5,17.6 30.5,17.6 30.5,17.4 30.9,17.4 30.9,16.6 29.1,16.6 29.1,17.4 				"/>
			</g>
		</g>
		<g>
			<rect x="31.6" y="16.5" class="st2" width="2.3" height="1.3"/>
			<rect x="31.7" y="16.5" class="st3" width="2.1" height="1.2"/>
			<g>
				<rect x="31.9" y="16.6" class="st2" width="1.7" height="0.4"/>
				<rect x="31.9" y="17.2" class="st2" width="1.7" height="0.4"/>
			</g>
		</g>
		<g>
			<path class="st4" d="M66.5,14.1h-0.2c0.1,0.1,0.1,0.3,0.1,0.4c0.1,1-1.5,2.3-2.7,3.2c-0.8,0.6-1.7,1-2.7,1.2l0,0h1.1
				c0.1,0,0.4-0.2,0.5-0.2c0.9-0.5,4.1-2.6,4-4.1C66.6,14.3,66.6,14.2,66.5,14.1z M23.9,17.1c-0.3,0.6-0.5,1.2-0.5,1.8h0.2
				c0.1-0.6,0.2-1.1,0.5-1.7c0.8-1.6,2.6-2.6,3.6-3.1h-0.6C26,14.7,24.7,15.7,23.9,17.1z"/>
		</g>
		<rect x="10" y="14" class="st5" width="60" height="0.3"/>
		<g>
			<g>
				<path d="M12.5,16.8h0.4c0,0,0,0.1,0,0.1c0,0.1,0,0.2,0.1,0.2c0.1,0,0.2-0.1,0.2-0.1c0-0.1,0-0.1,0-0.1c0,0-0.1-0.1-0.1-0.1
					l-0.2-0.2c-0.2-0.1-0.2-0.3-0.2-0.5c0.1-0.3,0.3-0.4,0.6-0.4c0.2,0,0.3,0,0.4,0.1c0.1,0.1,0.1,0.2,0,0.4h-0.4c0-0.1,0-0.2,0-0.2
					c0,0-0.1,0-0.1,0c-0.1,0-0.2,0-0.2,0.1c0,0,0,0.1,0,0.1c0,0,0.1,0.1,0.1,0.1l0.2,0.2c0.1,0.1,0.2,0.3,0.2,0.4
					c-0.1,0.3-0.3,0.5-0.6,0.5C12.5,17.3,12.4,17.2,12.5,16.8C12.5,16.8,12.5,16.8,12.5,16.8z"/>
				<path d="M14.3,16.6l-0.1,0.2c0,0.1,0,0.2,0,0.2c0,0,0.1,0.1,0.1,0.1c0.1,0,0.2-0.1,0.2-0.2l0-0.1h0.4c-0.1,0.4-0.3,0.6-0.6,0.6
					c-0.2,0-0.3-0.1-0.4-0.2c-0.1-0.1-0.1-0.3,0-0.5l0.1-0.4c0.1-0.4,0.3-0.6,0.7-0.6c0.2,0,0.3,0,0.4,0.1c0.1,0.1,0.1,0.3,0,0.6
					l0,0.2H14.3z M14.3,16.3h0.4l0-0.2c0-0.1,0-0.1,0-0.2c0,0-0.1,0-0.1,0c-0.1,0-0.1,0-0.2,0.1C14.4,16,14.4,16.1,14.3,16.3
					L14.3,16.3z"/>
				<path d="M15.9,16.7h0.4l0,0.2c-0.1,0.3-0.3,0.5-0.6,0.5c-0.3,0-0.5-0.2-0.4-0.6l0.1-0.5c0.1-0.4,0.3-0.6,0.6-0.6
					c0.2,0,0.3,0,0.4,0.1c0.1,0.1,0.1,0.2,0.1,0.3l0,0.1H16l0-0.2c0-0.1,0-0.1-0.1-0.1c-0.1,0-0.2,0.1-0.2,0.3l0,0.1l-0.1,0.6
					c0,0.2,0,0.3,0.1,0.3s0.1-0.1,0.2-0.3L15.9,16.7z"/>
				<path d="M16.8,15.7h0.4l-0.2,1.2c0,0.2,0,0.2,0.1,0.2c0.1,0,0.2-0.1,0.2-0.3l0.2-1.1h0.4l-0.3,1.6h-0.4l0.1-0.2
					c-0.1,0.2-0.2,0.3-0.4,0.3c-0.1,0-0.2,0-0.3-0.1c0-0.1,0-0.2,0-0.3L16.8,15.7z"/>
				<path d="M17.9,17.3l0.3-1.6h0.3l-0.1,0.3c0.1-0.1,0.1-0.2,0.2-0.2c0.1-0.1,0.2-0.1,0.3-0.1l-0.1,0.4c0,0-0.1,0-0.1,0
					c-0.2,0-0.3,0.1-0.4,0.3l-0.2,1L17.9,17.3L17.9,17.3z"/>
				<path d="M19.3,15.7h0.4l-0.3,1.6h-0.4L19.3,15.7z M19.4,15.1h0.4l-0.1,0.3h-0.4L19.4,15.1z"/>
				<path d="M19.8,15.9l0.1-0.3h0.1l0.1-0.5h0.4l-0.1,0.5h0.2l-0.1,0.3h-0.2l-0.2,1c0,0,0,0,0,0.1c0,0,0,0,0.1,0c0,0,0,0,0.1,0
					l-0.1,0.3c-0.1,0-0.1,0-0.2,0c-0.1,0-0.2,0-0.2-0.1c-0.1,0-0.1-0.1,0-0.2L20,16L19.8,15.9L19.8,15.9z"/>
				<path d="M20.4,17.8l0.1-0.3c0,0,0.1,0,0.1,0c0.1,0,0.1,0,0.1,0c0,0,0,0,0.1-0.1l0,0c0,0,0-0.1,0-0.2l-0.1-1.6h0.4l0,1.2l0,0
					l0.5-1.2h0.4l-0.8,1.8c-0.1,0.1-0.1,0.2-0.2,0.3c-0.1,0.1-0.2,0.1-0.3,0.1C20.6,17.9,20.5,17.9,20.4,17.8z"/>
			</g>
			<g>
				<path d="M12.5,17.6L12.5,17.6L12.5,17.6L12.5,17.6c0.1,0,0.2,0,0.2,0c0.1,0,0.2,0,0.2,0.1V18h-0.1v-0.2c0-0.1,0-0.1-0.1-0.1
					C12.6,17.6,12.6,17.7,12.5,17.6l0.1,0.3h-0.1V17.6z"/>
				<path d="M13,17.8c0-0.1,0.1-0.2,0.2-0.2c0.1,0,0.2,0.1,0.2,0.2c0,0,0,0,0,0H13c0.1,0.1,0.1,0.1,0.2,0.1c0.1,0,0.1,0,0.1,0l0,0
					c0,0-0.1,0-0.2,0C13.1,18,13,17.9,13,17.8z M13.4,17.8c0-0.1-0.1-0.1-0.2-0.1c-0.1,0-0.2,0.1-0.2,0.1H13.4z"/>
				<path d="M13.6,17.9v-0.2h-0.1v0h0.1l0-0.1h0.1v0.1h0.2v0h-0.2L13.6,17.9c0.1,0,0.1,0.1,0.2,0.1c0,0,0.1,0,0.1,0l0,0
					c0,0-0.1,0-0.1,0C13.6,18,13.6,17.9,13.6,17.9z"/>
				<path d="M13.9,17.6L13.9,17.6l0.2,0.2c0,0,0,0.1,0,0.1l0,0c0,0,0-0.1,0-0.1l0.1-0.2h0.1l0.1,0.2c0,0,0,0.1,0,0.1l0,0
					c0,0,0-0.1,0-0.1l0.1-0.2h0.1L14.5,18h-0.1l-0.1-0.2c0,0,0-0.1,0-0.1l0,0c0,0,0,0.1,0,0.1L14.1,18H14L13.9,17.6z"/>
				<path d="M14.7,17.8c0-0.1,0.1-0.2,0.2-0.2s0.2,0.1,0.2,0.2S15.1,18,14.9,18S14.7,17.9,14.7,17.8z M15.1,17.8
					c0-0.1-0.1-0.1-0.2-0.1s-0.2,0.1-0.2,0.1c0,0.1,0.1,0.1,0.2,0.1S15.1,17.9,15.1,17.8z"/>
				<path d="M15.3,17.6L15.3,17.6L15.3,17.6L15.3,17.6c0.1,0,0.2,0,0.2,0c0,0,0,0,0.1,0l0,0c0,0,0,0-0.1,0c-0.1,0-0.1,0-0.1,0.1V18
					h-0.1C15.3,18,15.3,17.6,15.3,17.6z"/>
				<path d="M15.7,17.5L15.7,17.5l0.1,0.4l0,0l0.3-0.2h0.1l-0.2,0.1l0.2,0.2H16l-0.2-0.2l-0.1,0.1V18h-0.1L15.7,17.5L15.7,17.5z"/>
				<path d="M16.4,17.9L16.4,17.9c0.1,0,0.1,0,0.2,0s0.1,0,0.1-0.1c0,0-0.1-0.1-0.1-0.1c-0.1,0-0.2,0-0.2-0.1c0-0.1,0.1-0.1,0.2-0.1
					c0.1,0,0.1,0,0.2,0l0,0c0,0-0.1,0-0.1,0c-0.1,0-0.1,0-0.1,0.1s0.1,0.1,0.1,0.1c0.1,0,0.2,0,0.2,0.1c0,0.1-0.1,0.1-0.2,0.1
					C16.5,18,16.5,17.9,16.4,17.9z"/>
				<path d="M16.9,17.8c0-0.1,0.1-0.2,0.2-0.2c0.1,0,0.2,0.1,0.2,0.2c0,0,0,0,0,0H16.9c0.1,0.1,0.1,0.1,0.2,0.1c0.1,0,0.1,0,0.1,0
					l0,0c0,0-0.1,0-0.2,0C17,18,16.9,17.9,16.9,17.8z M17.3,17.8c0-0.1-0.1-0.1-0.2-0.1s-0.2,0.1-0.2,0.1H17.3z"/>
				<path d="M17.4,17.8c0-0.1,0.1-0.2,0.2-0.2c0.1,0,0.1,0,0.2,0l0,0c0,0-0.1,0-0.1,0C17.6,17.6,17.5,17.7,17.4,17.8
					c0,0.1,0.1,0.1,0.2,0.1c0.1,0,0.1,0,0.1,0l0.1,0.1c-0.1,0-0.1,0-0.2,0C17.5,18,17.4,17.9,17.4,17.8z"/>
				<path d="M18,17.8v-0.2H18L18,17.8c0.1,0.1,0.1,0.1,0.2,0.1c0.1,0,0.1,0,0.2-0.1v-0.2h0.1V18h-0.1v-0.1l0,0
					c-0.1,0-0.1,0.1-0.2,0.1C18,18,18,17.9,18,17.8z"/>
				<path d="M18.6,17.6L18.6,17.6L18.6,17.6L18.6,17.6c0.1,0,0.2,0,0.2,0c0,0,0,0,0.1,0l0,0c0,0,0,0-0.1,0c-0.1,0-0.1,0-0.1,0.1V18
					h-0.1V17.6z"/>
				<path d="M18.9,17.5C18.9,17.5,19,17.5,18.9,17.5c0.1,0,0.1,0,0.1,0C19,17.5,19,17.5,18.9,17.5C19,17.5,18.9,17.5,18.9,17.5z
					 M19,17.6L19,17.6L19,18H19V17.6z"/>
				<path d="M19.2,17.9v-0.2h-0.1v0h0.1l0-0.1h0v0.1h0.2v0h-0.2L19.2,17.9c0.1,0,0.1,0.1,0.1,0.1c0,0,0.1,0,0.1,0l0,0
					c0,0-0.1,0-0.1,0C19.2,18,19.2,17.9,19.2,17.9z"/>
				<path d="M19.5,18.1L19.5,18.1C19.5,18.1,19.5,18.1,19.5,18.1c0.1,0,0.2-0.1,0.2-0.1l0,0l-0.2-0.3h0.1l0.1,0.2c0,0,0,0.1,0.1,0.1
					l0,0c0,0,0-0.1,0.1-0.1l0.1-0.2h0.1L19.7,18C19.7,18.1,19.7,18.1,19.5,18.1C19.5,18.1,19.5,18.1,19.5,18.1z"/>
			</g>
		</g>
	</g>
	
		<linearGradient id="SVGID_8_" gradientUnits="userSpaceOnUse" x1="43.4975" y1="16.8148" x2="59.171" y2="16.8148" gradientTransform="matrix(1 0 0 -1 0 40)">
		<stop  offset="0" style="stop-color:#B9BABC"/>
		<stop  offset="0.5185" style="stop-color:#F7F7F7"/>
		<stop  offset="1" style="stop-color:#B9BABC"/>
	</linearGradient>
	<rect x="43.5" y="20.9" class="st12" width="15.7" height="4.6"/>
	
		<linearGradient id="SVGID_9_" gradientUnits="userSpaceOnUse" x1="43.4975" y1="10.206" x2="59.171" y2="10.206" gradientTransform="matrix(1 0 0 -1 0 40)">
		<stop  offset="0" style="stop-color:#B9BABC"/>
		<stop  offset="0.5185" style="stop-color:#F7F7F7"/>
		<stop  offset="1" style="stop-color:#B9BABC"/>
	</linearGradient>
	<rect x="43.5" y="27.5" class="st13" width="15.7" height="4.6"/>
	
		<linearGradient id="SVGID_10_" gradientUnits="userSpaceOnUse" x1="43.4975" y1="3.6101" x2="59.171" y2="3.6101" gradientTransform="matrix(1 0 0 -1 0 40)">
		<stop  offset="0" style="stop-color:#B9BABC"/>
		<stop  offset="0.5185" style="stop-color:#F7F7F7"/>
		<stop  offset="1" style="stop-color:#B9BABC"/>
	</linearGradient>
	<rect x="43.5" y="34.1" class="st14" width="15.7" height="4.6"/>
	<g>
		<g>
			<rect x="47" y="21.8" class="st2" width="2.5" height="2.5"/>
			<rect x="47.2" y="21.9" class="st3" width="2.3" height="2.3"/>
			<g>
				<polygon class="st2" points="48.9,22.3 48.9,22 47.9,22 47.9,22.3 47.4,22.3 47.4,23 49.3,23 49.3,22.3 				"/>
				<polygon class="st2" points="47.9,23.9 47.9,24.2 48.9,24.2 48.9,23.9 49.3,23.9 49.3,23.2 47.4,23.2 47.4,23.9 				"/>
			</g>
		</g>
		<g>
			<rect x="51.4" y="21.8" class="st2" width="2.5" height="2.5"/>
			<rect x="51.6" y="21.9" class="st3" width="2.3" height="2.3"/>
			<g>
				<polygon class="st2" points="53.2,22.3 53.2,22 52.2,22 52.2,22.3 51.8,22.3 51.8,23 53.7,23 53.7,22.3 				"/>
				<polygon class="st2" points="52.2,23.9 52.2,24.2 53.2,24.2 53.2,23.9 53.7,23.9 53.7,23.2 51.8,23.2 51.8,23.9 				"/>
			</g>
		</g>
		<g>
			<rect x="55.7" y="21.8" class="st2" width="2.5" height="2.5"/>
			<rect x="55.9" y="21.9" class="st3" width="2.3" height="2.3"/>
			<g>
				<polygon class="st2" points="57.6,22.3 57.6,22 56.5,22 56.5,22.3 56.1,22.3 56.1,23 58,23 58,22.3 				"/>
				<polygon class="st2" points="56.5,23.9 56.5,24.2 57.6,24.2 57.6,23.9 58,23.9 58,23.2 56.1,23.2 56.1,23.9 				"/>
			</g>
		</g>
	</g>
	<g>
		<g>
			<rect x="47" y="28.4" class="st2" width="2.5" height="2.5"/>
			<rect x="47.2" y="28.5" class="st3" width="2.3" height="2.3"/>
			<g>
				<polygon class="st2" points="48.9,28.9 48.9,28.6 47.9,28.6 47.9,28.9 47.4,28.9 47.4,29.6 49.3,29.6 49.3,28.9 				"/>
				<polygon class="st2" points="47.9,30.5 47.9,30.8 48.9,30.8 48.9,30.5 49.3,30.5 49.3,29.8 47.4,29.8 47.4,30.5 				"/>
			</g>
		</g>
		<g>
			<rect x="51.4" y="28.4" class="st2" width="2.5" height="2.5"/>
			<rect x="51.6" y="28.5" class="st3" width="2.3" height="2.3"/>
			<g>
				<polygon class="st2" points="53.2,28.9 53.2,28.6 52.2,28.6 52.2,28.9 51.8,28.9 51.8,29.6 53.7,29.6 53.7,28.9 				"/>
				<polygon class="st2" points="52.2,30.5 52.2,30.8 53.2,30.8 53.2,30.5 53.7,30.5 53.7,29.8 51.8,29.8 51.8,30.5 				"/>
			</g>
		</g>
		<g>
			<rect x="55.7" y="28.4" class="st2" width="2.5" height="2.5"/>
			<rect x="55.9" y="28.5" class="st3" width="2.3" height="2.3"/>
			<g>
				<polygon class="st2" points="57.6,28.9 57.6,28.6 56.5,28.6 56.5,28.9 56.1,28.9 56.1,29.6 58,29.6 58,28.9 				"/>
				<polygon class="st2" points="56.5,30.5 56.5,30.8 57.6,30.8 57.6,30.5 58,30.5 58,29.8 56.1,29.8 56.1,30.5 				"/>
			</g>
		</g>
	</g>
	<g>
		<g>
			<rect x="47" y="35" class="st2" width="2.5" height="2.5"/>
			<rect x="47.2" y="35.2" class="st3" width="2.3" height="2.3"/>
			<g>
				<polygon class="st2" points="48.9,35.5 48.9,35.2 47.9,35.2 47.9,35.5 47.4,35.5 47.4,36.2 49.3,36.2 49.3,35.5 				"/>
				<polygon class="st2" points="47.9,37.1 47.9,37.4 48.9,37.4 48.9,37.1 49.3,37.1 49.3,36.4 47.4,36.4 47.4,37.1 				"/>
			</g>
		</g>
		<g>
			<rect x="51.4" y="35" class="st2" width="2.5" height="2.5"/>
			<rect x="51.6" y="35.2" class="st3" width="2.3" height="2.3"/>
			<g>
				<polygon class="st2" points="53.2,35.5 53.2,35.2 52.2,35.2 52.2,35.5 51.8,35.5 51.8,36.2 53.7,36.2 53.7,35.5 				"/>
				<polygon class="st2" points="52.2,37.1 52.2,37.4 53.2,37.4 53.2,37.1 53.7,37.1 53.7,36.4 51.8,36.4 51.8,37.1 				"/>
			</g>
		</g>
		<g>
			<rect x="55.7" y="35" class="st2" width="2.5" height="2.5"/>
			<rect x="55.9" y="35.2" class="st3" width="2.3" height="2.3"/>
			<g>
				<polygon class="st2" points="57.6,35.5 57.6,35.2 56.5,35.2 56.5,35.5 56.1,35.5 56.1,36.2 58,36.2 58,35.5 				"/>
				<polygon class="st2" points="56.5,37.1 56.5,37.4 57.6,37.4 57.6,37.1 58,37.1 58,36.4 56.1,36.4 56.1,37.1 				"/>
			</g>
		</g>
	</g>
	<g>
		<circle class="st2" cx="40.2" cy="24" r="0.3"/>
		<circle class="st2" cx="41.6" cy="24" r="0.3"/>
		<circle class="st2" cx="42.9" cy="24" r="0.3"/>
	</g>
	<g>
		<circle class="st2" cx="40.2" cy="30.6" r="0.3"/>
		<circle class="st2" cx="41.6" cy="30.6" r="0.3"/>
		<circle class="st2" cx="42.9" cy="30.6" r="0.3"/>
	</g>
	<g>
		<circle class="st2" cx="40.2" cy="37.2" r="0.3"/>
		<circle class="st2" cx="41.6" cy="37.2" r="0.3"/>
		<circle class="st2" cx="42.9" cy="37.2" r="0.3"/>
	</g>
</g>
</svg>
