<?xml version="1.0" encoding="utf-8"?>
<!-- Generator: Adobe Illustrator 18.1.0, SVG Export Plug-In . SVG Version: 6.00 Build 0)  -->
<svg version="1.1" id="图层_1" xmlns="http://www.w3.org/2000/svg" xmlns:xlink="http://www.w3.org/1999/xlink" x="0px" y="0px"
	 width="60px" height="60px" viewBox="10 -10 60 60" style="enable-background:new 10 -10 60 60;" xml:space="preserve">
<style type="text/css">
	.st0{fill:url(#SVGID_1_);}
	.st1{fill:url(#SVGID_2_);}
	.st2{fill:url(#SVGID_3_);}
	.st3{fill:url(#SVGID_4_);}
	.st4{fill:url(#SVGID_5_);}
	.st5{fill:url(#SVGID_6_);}
	.st6{fill:url(#SVGID_7_);}
	.st7{fill:url(#SVGID_8_);}
	.st8{fill:url(#SVGID_9_);}
	.st9{fill:url(#SVGID_10_);}
	.st10{fill:url(#SVGID_11_);}
	.st11{fill:url(#SVGID_12_);}
	.st12{fill:url(#SVGID_13_);}
	.st13{fill:url(#SVGID_14_);}
	.st14{fill:#CE4C32;}
	.st15{fill:#626262;}
	.st16{fill:#232323;}
	.st17{fill:url(#SVGID_15_);}
	.st18{opacity:0.35;fill:url(#SVGID_16_);enable-background:new    ;}
	.st19{opacity:0.35;fill:url(#SVGID_17_);enable-background:new    ;}
	.st20{opacity:0.35;fill:url(#SVGID_18_);enable-background:new    ;}
	.st21{opacity:0.35;fill:url(#SVGID_19_);enable-background:new    ;}
	.st22{opacity:0.35;fill:url(#SVGID_20_);enable-background:new    ;}
	.st23{opacity:0.35;fill:url(#SVGID_21_);enable-background:new    ;}
	.st24{opacity:0.35;fill:url(#SVGID_22_);enable-background:new    ;}
	.st25{opacity:0.35;fill:url(#SVGID_23_);enable-background:new    ;}
	.st26{opacity:0.35;fill:url(#SVGID_24_);enable-background:new    ;}
	.st27{opacity:0.35;fill:url(#SVGID_25_);enable-background:new    ;}
	.st28{fill:#474747;}
</style>
<g>
	
		<linearGradient id="SVGID_1_" gradientUnits="userSpaceOnUse" x1="30.525" y1="-8.8" x2="34.6705" y2="-8.8" gradientTransform="matrix(1 0 0 -1 0 40)">
		<stop  offset="0" style="stop-color:#858585"/>
		<stop  offset="0.4127" style="stop-color:#DEDEDE"/>
		<stop  offset="0.5608" style="stop-color:#B8B8B8"/>
		<stop  offset="1" style="stop-color:#6E6E6E"/>
	</linearGradient>
	<path class="st0" d="M30.5,47.6v2c0,0.2,0.9,0.4,2.1,0.4c1.1,0,2.1-0.2,2.1-0.4v-2H30.5z"/>
	
		<linearGradient id="SVGID_2_" gradientUnits="userSpaceOnUse" x1="58.8079" y1="-5.4" x2="62.6009" y2="-5.4" gradientTransform="matrix(1 0 0 -1 0 40)">
		<stop  offset="0" style="stop-color:#858585"/>
		<stop  offset="0.5132" style="stop-color:#DEDEDE"/>
		<stop  offset="0.6984" style="stop-color:#B8B8B8"/>
		<stop  offset="1" style="stop-color:#6E6E6E"/>
	</linearGradient>
	<path class="st1" d="M58.8,44.3v1.8c0,0.2,0.8,0.4,1.9,0.4c1,0,1.9-0.2,1.9-0.4v-1.8H58.8z"/>
	
		<linearGradient id="SVGID_3_" gradientUnits="userSpaceOnUse" x1="16.8792" y1="-0.7" x2="20.7206" y2="-0.7" gradientTransform="matrix(1 0 0 -1 0 40)">
		<stop  offset="0" style="stop-color:#858585"/>
		<stop  offset="0.328" style="stop-color:#DEDEDE"/>
		<stop  offset="0.5608" style="stop-color:#B8B8B8"/>
		<stop  offset="1" style="stop-color:#6E6E6E"/>
	</linearGradient>
	<path class="st2" d="M16.9,38.8v3.4c0,0.2,0.9,0.4,1.9,0.4c1.1,0,1.9-0.2,1.9-0.4v-3.4H16.9z"/>
	
		<linearGradient id="SVGID_4_" gradientUnits="userSpaceOnUse" x1="32.6001" y1="20.5" x2="64.3001" y2="20.5" gradientTransform="matrix(1 0 0 -1 0 40)">
		<stop  offset="0" style="stop-color:#979797"/>
		<stop  offset="4.232804e-002" style="stop-color:#787878"/>
		<stop  offset="1" style="stop-color:#272729"/>
	</linearGradient>
	<polygon class="st3" points="64.3,-6 64.3,45 34.4,48.8 32.6,49 32.6,-10 34.4,-9.8 	"/>
	
		<linearGradient id="SVGID_5_" gradientUnits="userSpaceOnUse" x1="34.4311" y1="23.8" x2="56.9951" y2="23.8" gradientTransform="matrix(1 0 0 -1 0 40)">
		<stop  offset="0" style="stop-color:#0E0E0E"/>
		<stop  offset="0.5" style="stop-color:#3A3A3A"/>
		<stop  offset="0.7127" style="stop-color:#383838"/>
		<stop  offset="0.8273" style="stop-color:#303030"/>
		<stop  offset="0.9181" style="stop-color:#222222"/>
		<stop  offset="0.9965" style="stop-color:#0F0F0F"/>
		<stop  offset="1" style="stop-color:#0E0E0E"/>
	</linearGradient>
	<polygon class="st4" points="57,38.1 34.4,41 34.4,-8.6 57,-5.7 	"/>
	
		<linearGradient id="SVGID_6_" gradientUnits="userSpaceOnUse" x1="24.1501" y1="-9" x2="24.1501" y2="50" gradientTransform="matrix(1 0 0 -1 0 40)">
		<stop  offset="0" style="stop-color:#4D4D4D"/>
		<stop  offset="0.5079" style="stop-color:#474747"/>
		<stop  offset="1" style="stop-color:#4D4D4D"/>
	</linearGradient>
	<polygon class="st5" points="32.6,-10 32.6,49 29.6,47.4 28.5,46.8 24.7,44.8 23.6,44.2 21.7,43.1 20.5,42.5 15.7,39.9 15.7,-0.9 
		20.5,-3.5 21.7,-4.1 23.6,-5.1 24.7,-5.7 28.5,-7.8 29.6,-8.4 	"/>
	<g>
		
			<linearGradient id="SVGID_7_" gradientUnits="userSpaceOnUse" x1="35.8384" y1="43.75" x2="57.5591" y2="43.75" gradientTransform="matrix(1 0 0 -1 0 40)">
			<stop  offset="0" style="stop-color:#9C9C9C"/>
			<stop  offset="1" style="stop-color:#575757"/>
		</linearGradient>
		<polygon class="st6" points="57.6,-4.5 57.6,-0.3 42.8,-1.8 35.8,-2.4 35.8,-7.2 42.8,-6.3 		"/>
		
			<linearGradient id="SVGID_8_" gradientUnits="userSpaceOnUse" x1="35.8384" y1="38.1" x2="57.5591" y2="38.1" gradientTransform="matrix(1 0 0 -1 0 40)">
			<stop  offset="0" style="stop-color:#9C9C9C"/>
			<stop  offset="1" style="stop-color:#575757"/>
		</linearGradient>
		<polygon class="st7" points="57.6,0.8 57.6,5 42.8,4 35.8,3.6 35.8,-1.2 42.8,-0.5 		"/>
		
			<linearGradient id="SVGID_9_" gradientUnits="userSpaceOnUse" x1="35.8384" y1="32.45" x2="57.5591" y2="32.45" gradientTransform="matrix(1 0 0 -1 0 40)">
			<stop  offset="0" style="stop-color:#9C9C9C"/>
			<stop  offset="1" style="stop-color:#575757"/>
		</linearGradient>
		<polygon class="st8" points="57.6,6.1 57.6,10.3 42.8,9.8 35.8,9.6 35.8,4.8 42.8,5.2 		"/>
		
			<linearGradient id="SVGID_10_" gradientUnits="userSpaceOnUse" x1="35.8384" y1="26.8" x2="57.5591" y2="26.8" gradientTransform="matrix(1 0 0 -1 0 40)">
			<stop  offset="0" style="stop-color:#9C9C9C"/>
			<stop  offset="1" style="stop-color:#575757"/>
		</linearGradient>
		<polygon class="st9" points="57.6,11.4 57.6,15.6 42.8,15.6 35.8,15.6 35.8,10.8 42.8,11 		"/>
		
			<linearGradient id="SVGID_11_" gradientUnits="userSpaceOnUse" x1="35.8384" y1="20.85" x2="57.5591" y2="20.85" gradientTransform="matrix(1 0 0 -1 0 40)">
			<stop  offset="0" style="stop-color:#9C9C9C"/>
			<stop  offset="1" style="stop-color:#575757"/>
		</linearGradient>
		<polygon class="st10" points="57.6,16.7 57.6,21 42.8,21.4 35.8,21.6 35.8,16.8 42.8,16.8 		"/>
		
			<linearGradient id="SVGID_12_" gradientUnits="userSpaceOnUse" x1="35.8384" y1="15.15" x2="57.5591" y2="15.15" gradientTransform="matrix(1 0 0 -1 0 40)">
			<stop  offset="0" style="stop-color:#9C9C9C"/>
			<stop  offset="1" style="stop-color:#575757"/>
		</linearGradient>
		<polygon class="st11" points="57.6,22.1 57.6,26.3 42.8,27.1 35.8,27.6 35.8,22.8 42.8,22.6 		"/>
		
			<linearGradient id="SVGID_13_" gradientUnits="userSpaceOnUse" x1="35.8384" y1="9.5" x2="57.5591" y2="9.5" gradientTransform="matrix(1 0 0 -1 0 40)">
			<stop  offset="0" style="stop-color:#9C9C9C"/>
			<stop  offset="1" style="stop-color:#575757"/>
		</linearGradient>
		<polygon class="st12" points="57.6,27.4 57.6,31.6 42.8,32.9 35.8,33.6 35.8,28.8 42.8,28.3 		"/>
		
			<linearGradient id="SVGID_14_" gradientUnits="userSpaceOnUse" x1="35.8384" y1="3.85" x2="57.5591" y2="3.85" gradientTransform="matrix(1 0 0 -1 0 40)">
			<stop  offset="0" style="stop-color:#9C9C9C"/>
			<stop  offset="1" style="stop-color:#575757"/>
		</linearGradient>
		<polygon class="st13" points="57.6,32.7 57.6,36.9 42.8,38.7 35.8,39.6 35.8,34.8 42.8,34.1 		"/>
	</g>
	<polygon class="st14" points="62.6,7.3 59.6,9.9 59.6,-3.5 62.6,-1 	"/>
	<polygon class="st14" points="59.6,20.3 62.6,22.9 62.6,9.5 59.6,12 	"/>
	<polygon class="st14" points="62.6,33.3 59.6,35.9 59.6,22.5 62.6,25 	"/>
	<polygon class="st15" points="21.7,-4.1 21.7,43.1 20.5,42.5 20.5,-3.5 	"/>
	<polygon class="st16" points="29.6,-8.4 29.6,47.4 28.5,46.8 28.5,-7.8 	"/>
	
		<linearGradient id="SVGID_15_" gradientUnits="userSpaceOnUse" x1="25.1001" y1="-6.8" x2="25.1001" y2="47.8" gradientTransform="matrix(1 0 0 -1 0 40)">
		<stop  offset="0" style="stop-color:#464646"/>
		<stop  offset="0.1376" style="stop-color:#242424"/>
		<stop  offset="0.5503" style="stop-color:#686868"/>
		<stop  offset="0.9153" style="stop-color:#242424"/>
		<stop  offset="1" style="stop-color:#252525"/>
	</linearGradient>
	<polygon class="st17" points="28.5,-7.8 28.5,46.8 24.7,44.8 23.6,44.2 21.7,43.1 21.7,-4.1 23.6,-5.1 24.7,-5.7 	"/>
	
		<linearGradient id="SVGID_16_" gradientUnits="userSpaceOnUse" x1="32.5976" y1="20.5" x2="34.4337" y2="20.5" gradientTransform="matrix(1 0 0 -1 0 40)">
		<stop  offset="0" style="stop-color:#FFFFFF"/>
		<stop  offset="1" style="stop-color:#FFFFFF;stop-opacity:0"/>
	</linearGradient>
	<polygon class="st18" points="34.4,-9.8 34.4,48.8 32.6,49 32.6,-10 	"/>
	
		<linearGradient id="SVGID_17_" gradientUnits="userSpaceOnUse" x1="33.5001" y1="9.999847e-002" x2="33.5001" y2="47.5535" gradientTransform="matrix(1 0 0 -1 0 40)">
		<stop  offset="0" style="stop-color:#FFFFFF;stop-opacity:0"/>
		<stop  offset="0.4709" style="stop-color:#FFFFFF"/>
		<stop  offset="1" style="stop-color:#FFFFFF;stop-opacity:0"/>
	</linearGradient>
	<polygon class="st19" points="34.4,-7.3 34.4,39.7 32.6,39.9 32.6,-7.5 	"/>
	<g>
		
			<linearGradient id="SVGID_18_" gradientUnits="userSpaceOnUse" x1="35.8384" y1="44.5" x2="42.7937" y2="44.5" gradientTransform="matrix(1 0 0 -1 0 40)">
			<stop  offset="0" style="stop-color:#FFFFFF;stop-opacity:0.5"/>
			<stop  offset="1" style="stop-color:#FFFFFF;stop-opacity:0"/>
		</linearGradient>
		<polygon class="st20" points="42.8,-6.3 42.8,-1.8 35.8,-2.4 35.8,-7.2 		"/>
		
			<linearGradient id="SVGID_19_" gradientUnits="userSpaceOnUse" x1="35.8384" y1="38.6" x2="42.7937" y2="38.6" gradientTransform="matrix(1 0 0 -1 0 40)">
			<stop  offset="0" style="stop-color:#FFFFFF;stop-opacity:0.5"/>
			<stop  offset="1" style="stop-color:#FFFFFF;stop-opacity:0"/>
		</linearGradient>
		<polygon class="st21" points="42.8,-0.5 42.8,4 35.8,3.6 35.8,-1.2 		"/>
		
			<linearGradient id="SVGID_20_" gradientUnits="userSpaceOnUse" x1="35.8384" y1="32.7" x2="42.7937" y2="32.7" gradientTransform="matrix(1 0 0 -1 0 40)">
			<stop  offset="0" style="stop-color:#FFFFFF;stop-opacity:0.5"/>
			<stop  offset="1" style="stop-color:#FFFFFF;stop-opacity:0"/>
		</linearGradient>
		<polygon class="st22" points="42.8,5.2 42.8,9.8 35.8,9.6 35.8,4.8 		"/>
		
			<linearGradient id="SVGID_21_" gradientUnits="userSpaceOnUse" x1="35.8384" y1="26.8" x2="42.7937" y2="26.8" gradientTransform="matrix(1 0 0 -1 0 40)">
			<stop  offset="0" style="stop-color:#FFFFFF;stop-opacity:0.5"/>
			<stop  offset="1" style="stop-color:#FFFFFF;stop-opacity:0"/>
		</linearGradient>
		<polygon class="st23" points="42.8,11 42.8,15.6 35.8,15.6 35.8,10.8 		"/>
		
			<linearGradient id="SVGID_22_" gradientUnits="userSpaceOnUse" x1="35.8384" y1="20.8" x2="42.7937" y2="20.8" gradientTransform="matrix(1 0 0 -1 0 40)">
			<stop  offset="0" style="stop-color:#FFFFFF;stop-opacity:0.5"/>
			<stop  offset="1" style="stop-color:#FFFFFF;stop-opacity:0"/>
		</linearGradient>
		<polygon class="st24" points="42.8,16.8 42.8,21.4 35.8,21.6 35.8,16.8 		"/>
		
			<linearGradient id="SVGID_23_" gradientUnits="userSpaceOnUse" x1="35.8384" y1="14.9" x2="42.7937" y2="14.9" gradientTransform="matrix(1 0 0 -1 0 40)">
			<stop  offset="0" style="stop-color:#FFFFFF;stop-opacity:0.5"/>
			<stop  offset="1" style="stop-color:#FFFFFF;stop-opacity:0"/>
		</linearGradient>
		<polygon class="st25" points="42.8,22.6 42.8,27.1 35.8,27.6 35.8,22.8 		"/>
		
			<linearGradient id="SVGID_24_" gradientUnits="userSpaceOnUse" x1="35.8384" y1="9.05" x2="42.7937" y2="9.05" gradientTransform="matrix(1 0 0 -1 0 40)">
			<stop  offset="0" style="stop-color:#FFFFFF;stop-opacity:0.5"/>
			<stop  offset="1" style="stop-color:#FFFFFF;stop-opacity:0"/>
		</linearGradient>
		<polygon class="st26" points="42.8,28.3 42.8,32.9 35.8,33.6 35.8,28.8 		"/>
		
			<linearGradient id="SVGID_25_" gradientUnits="userSpaceOnUse" x1="35.8384" y1="3.15" x2="42.7937" y2="3.15" gradientTransform="matrix(1 0 0 -1 0 40)">
			<stop  offset="0" style="stop-color:#FFFFFF;stop-opacity:0.5"/>
			<stop  offset="1" style="stop-color:#FFFFFF;stop-opacity:0"/>
		</linearGradient>
		<polygon class="st27" points="35.8,34.8 42.8,34.1 42.8,38.7 35.8,39.6 		"/>
	</g>
	<g>
		<circle class="st28" cx="55.8" cy="-2.7" r="0.5"/>
		<circle class="st28" cx="55.8" cy="2.7" r="0.5"/>
		<circle class="st28" cx="55.8" cy="8.1" r="0.5"/>
		<circle class="st28" cx="55.8" cy="13.4" r="0.5"/>
		<circle class="st28" cx="55.8" cy="18.8" r="0.5"/>
		<circle class="st28" cx="55.8" cy="24.2" r="0.5"/>
		<circle class="st28" cx="55.8" cy="29.6" r="0.5"/>
		<circle class="st28" cx="55.8" cy="34.9" r="0.5"/>
	</g>
</g>
</svg>
