<?xml version="1.0" encoding="utf-8"?>
<!-- Generator: Adobe Illustrator 18.1.0, SVG Export Plug-In . SVG Version: 6.00 Build 0)  -->
<svg version="1.1" id="图层_1" xmlns="http://www.w3.org/2000/svg" xmlns:xlink="http://www.w3.org/1999/xlink" x="0px" y="0px"
	 width="60px" height="60px" viewBox="10 -10 60 60" style="enable-background:new 10 -10 60 60;" xml:space="preserve">
<style type="text/css">
	.st0{fill:#FFFFFF;}
</style>
<g>
	<path class="st0" d="M28.9,45.8c8.4-0.4,8.9-1.9,8.9-8.1V-3h-5.1c-10.9,0-12,1.8-14.6,10.5h-1.4c0.5-5,0.8-10,0.9-14.6h1.4
		c0.7,0.9,1.2,1.5,1.9,1.8C21.6-5,22.5-5,23.7-5h33.5c2.2,0,2.7-0.4,3.9-2l1.3,0.1C62.3-3,62.7,2.3,63.2,7.3l-1.3,0.3
		C59.8-1.9,56.7-3,49.7-3h-7.4v40.8c0,6.3,0.5,7.7,9.2,8.1V47H28.9V45.8z"/>
</g>
</svg>
