<?xml version="1.0" encoding="utf-8"?>
<!-- Generator: Adobe Illustrator 16.0.0, SVG Export Plug-In . SVG Version: 6.00 Build 0)  -->
<!DOCTYPE svg PUBLIC "-//W3C//DTD SVG 1.1//EN" "http://www.w3.org/Graphics/SVG/1.1/DTD/svg11.dtd">
<svg version="1.1" id="图层_1" xmlns="http://www.w3.org/2000/svg" xmlns:xlink="http://www.w3.org/1999/xlink" x="0px" y="0px"
	 width="60px" height="60px" viewBox="0 0 60 60" style="enable-background:new 0 0 60 60;" xml:space="preserve">
<style type="text/css">
<![CDATA[
	.st0{opacity:0.23;fill:#FFFFFF;}
	.st1{opacity:0.15;fill:#221E1F;}
	.st2{opacity:0;fill:#FFFFFF;}
	.st3{opacity:0.51;fill:#00567B;}
	.st4{opacity:0.22;fill:url(#SVGID_20_);}
	.st5{opacity:0.28;fill:#FFFFFF;}
	.st6{fill:#1D5C76;}
	.st7{opacity:0.3;fill:url(#SVGID_19_);}
	.st8{opacity:0.48;fill:#FFFFFF;}
	.st9{opacity:0.17;fill:#221E1F;}
	.st10{opacity:0.76;fill:url(#SVGID_29_);}
	.st11{opacity:0.39;fill:url(#SVGID_16_);}
	.st12{fill:url(#SVGID_1_);}
	.st13{fill:url(#SVGID_2_);}
	.st14{fill:url(#SVGID_3_);}
	.st15{fill:url(#SVGID_4_);}
	.st16{fill:url(#SVGID_5_);}
	.st17{fill:url(#SVGID_6_);}
	.st18{fill:url(#SVGID_7_);}
	.st19{fill:url(#SVGID_8_);}
	.st20{fill:url(#SVGID_9_);}
	.st21{opacity:0.2;fill:url(#SVGID_11_);}
	.st22{opacity:0.57;fill:url(#SVGID_17_);}
	.st23{opacity:0.57;fill:url(#SVGID_27_);}
	.st24{opacity:0.21;fill:#221E1F;}
	.st25{fill:#697179;}
	.st26{opacity:0.37;fill:#FFFFFF;}
	.st27{opacity:0.29;fill:url(#SVGID_18_);}
	.st28{opacity:0.2;fill:#054E65;}
	.st29{fill:#386A84;}
	.st30{opacity:0.21;fill:#FFFFFF;}
	.st31{fill:url(#SVGID_10_);}
	.st32{fill:url(#SVGID_12_);}
	.st33{fill:url(#SVGID_13_);}
	.st34{fill:url(#SVGID_14_);}
	.st35{fill:url(#SVGID_15_);}
	.st36{fill:url(#SVGID_21_);}
	.st37{fill:url(#SVGID_22_);}
	.st38{fill:url(#SVGID_23_);}
	.st39{fill:url(#SVGID_24_);}
	.st40{fill:url(#SVGID_25_);}
	.st41{fill:url(#SVGID_26_);}
	.st42{fill:url(#SVGID_28_);}
	.st43{fill:url(#SVGID_30_);}
	.st44{opacity:0.51;fill:#FFFFFF;}
	.st45{opacity:0.26;fill:#FFFFFF;}
]]>
</style>
<rect class="st2" width="60" height="60"/>
<g>
	<g>
		<g>
			
				<linearGradient id="SVGID_1_" gradientUnits="userSpaceOnUse" x1="1794.3369" y1="15.3711" x2="1793.7231" y2="29.0494" gradientTransform="matrix(-1 0 0 1 1832.9414 0)">
				<stop  offset="0" style="stop-color:#878E96"/>
				<stop  offset="0.9944" style="stop-color:#9FA6B1"/>
			</linearGradient>
			<polygon class="st12" points="38.6,9.7 39.4,10.3 39.4,37.8 38.6,38.4 			"/>
			
				<linearGradient id="SVGID_2_" gradientUnits="userSpaceOnUse" x1="1797.0186" y1="30.0854" x2="1796.6149" y2="13.334" gradientTransform="matrix(-1 0 0 1 1832.9414 0)">
				<stop  offset="0" style="stop-color:#E5E7EB"/>
				<stop  offset="0.6809" style="stop-color:#93ABBF"/>
				<stop  offset="1" style="stop-color:#7192AD"/>
			</linearGradient>
			<polygon class="st13" points="36.1,12.1 36.3,11.7 36.3,11.7 36.1,34.5 36.1,34.5 35.8,34.2 			"/>
			<g>
				<g>
					
						<linearGradient id="SVGID_3_" gradientUnits="userSpaceOnUse" x1="1795.4531" y1="41.9971" x2="1821.1205" y2="41.5128" gradientTransform="matrix(-1 0 0 1 1832.9414 0)">
						<stop  offset="5.618000e-003" style="stop-color:#9DA4AE"/>
						<stop  offset="0.9888" style="stop-color:#DEE0E5"/>
					</linearGradient>
					<polygon class="st14" points="36.9,39.6 20.8,38.2 14.5,41.3 14.4,42.2 30.5,45.4 					"/>
					
						<linearGradient id="SVGID_4_" gradientUnits="userSpaceOnUse" x1="1807.3057" y1="41.502" x2="1807.1342" y2="38.7154" gradientTransform="matrix(-1 0 0 1 1832.9414 0)">
						<stop  offset="0" style="stop-color:#7A8393"/>
						<stop  offset="0.9944" style="stop-color:#A8AEB5"/>
					</linearGradient>
					<polygon class="st15" points="31.7,39.2 27.1,42.8 19.7,41.7 25.1,38.5 					"/>
					
						<linearGradient id="SVGID_5_" gradientUnits="userSpaceOnUse" x1="1802.5527" y1="38.7725" x2="1802.4358" y2="36.8717" gradientTransform="matrix(-1 0 0 1 1832.9414 0)">
						<stop  offset="0" style="stop-color:#7A8393"/>
						<stop  offset="0.9944" style="stop-color:#A8AEB5"/>
					</linearGradient>
					<polygon class="st16" points="31,39.7 31.7,39.2 30.1,36.7 29.2,36.9 					"/>
					
						<linearGradient id="SVGID_6_" gradientUnits="userSpaceOnUse" x1="1807.3115" y1="38.0742" x2="1797.3473" y2="38.1329" gradientTransform="matrix(-1 0 0 1 1832.9414 0)">
						<stop  offset="0" style="stop-color:#C4C9D3"/>
						<stop  offset="0.9831" style="stop-color:#949CA4"/>
					</linearGradient>
					<polygon class="st17" points="21.4,36.4 23.5,38.8 31.1,39.7 29.2,36.9 					"/>
					
						<linearGradient id="SVGID_7_" gradientUnits="userSpaceOnUse" x1="1797.918" y1="41.4883" x2="1801.981" y2="44.5281" gradientTransform="matrix(-1 0 0 1 1832.9414 0)">
						<stop  offset="0" style="stop-color:#7A8393"/>
						<stop  offset="0.9944" style="stop-color:#A8AEB5"/>
					</linearGradient>
					<polygon class="st18" points="36.9,39.6 30.5,44.1 30.5,45.4 36.9,40.8 					"/>
					
						<linearGradient id="SVGID_8_" gradientUnits="userSpaceOnUse" x1="1810.4902" y1="44.4463" x2="1810.4246" y2="41.7199" gradientTransform="matrix(-1 0 0 1 1832.9414 0)">
						<stop  offset="0.2747" style="stop-color:#A5B8CB"/>
						<stop  offset="1" style="stop-color:#7192AD"/>
					</linearGradient>
					<polygon class="st19" points="30.5,44.1 14.5,41.3 14.4,42.2 30.5,45.4 					"/>
					<polygon class="st25" points="19.7,41.7 24.2,39.4 30.5,40.1 31,39.7 23.7,39.1 					"/>
					
						<linearGradient id="SVGID_9_" gradientUnits="userSpaceOnUse" x1="1801.6025" y1="40.0674" x2="1810.8669" y2="39.8926" gradientTransform="matrix(-1 0 0 1 1832.9414 0)">
						<stop  offset="5.618000e-003" style="stop-color:#899097"/>
						<stop  offset="0.9888" style="stop-color:#C4C9D2"/>
					</linearGradient>
					<polygon class="st20" points="23.4,38.8 23,40.2 29.2,41.1 31.1,39.6 					"/>
				</g>
				<polygon class="st28" points="21.9,36.8 22.4,37.5 30.2,38.3 31,38 30.5,37.4 				"/>
			</g>
			<g>
				
					<linearGradient id="SVGID_10_" gradientUnits="userSpaceOnUse" x1="1799.4795" y1="50.9229" x2="1818.2605" y2="41.8834" gradientTransform="matrix(-1 0 0 1 1832.9414 0)">
					<stop  offset="0.1798" style="stop-color:#BDC2CA"/>
					<stop  offset="1" style="stop-color:#E1E3E7"/>
				</linearGradient>
				<path class="st31" d="M33,49.9L0.6,45.4c0,0-1.2,0-0.3-1.2L7.5,40L39,43.2L33,49.9z"/>
				
					<linearGradient id="SVGID_11_" gradientUnits="userSpaceOnUse" x1="1830.5186" y1="44.4307" x2="1801.0208" y2="49.7251" gradientTransform="matrix(-1 0 0 1 1832.9414 0)">
					<stop  offset="0" style="stop-color:#B2B2B2"/>
					<stop  offset="0.1215" style="stop-color:#ADADAD"/>
					<stop  offset="0.2752" style="stop-color:#9D9D9D"/>
					<stop  offset="0.4463" style="stop-color:#838383"/>
					<stop  offset="0.6301" style="stop-color:#5F5F5F"/>
					<stop  offset="0.8217" style="stop-color:#313131"/>
					<stop  offset="1" style="stop-color:#000000"/>
				</linearGradient>
				<path class="st21" d="M33.8,49.1l-0.7,0.8L0.2,45.4c0,0-0.6-0.3,0.1-1.3l33.3,4.5L33.8,49.1z"/>
				
					<linearGradient id="SVGID_12_" gradientUnits="userSpaceOnUse" x1="1795.585" y1="45.5469" x2="1799.7528" y2="48.6652" gradientTransform="matrix(-1 0 0 1 1832.9414 0)">
					<stop  offset="0" style="stop-color:#7A8393"/>
					<stop  offset="0.9944" style="stop-color:#9299A0"/>
				</linearGradient>
				<path class="st32" d="M39,43.2l-0.1,1.3L33,49.9c0,0-0.3-0.9,0.2-1.4L39,43.2z"/>
			</g>
			
				<linearGradient id="SVGID_13_" gradientUnits="userSpaceOnUse" x1="1808.7666" y1="21.9829" x2="1809.2341" y2="34.0834" gradientTransform="matrix(-1 0 0 1 1832.9414 0)">
				<stop  offset="0.1798" style="stop-color:#BCC2CF"/>
				<stop  offset="0.8202" style="stop-color:#E1E3E7"/>
				<stop  offset="1" style="stop-color:#E1E3E7"/>
			</linearGradient>
			<polygon class="st33" points="38.6,9.7 38.6,38.4 9.3,35.7 9.6,9.9 			"/>
			<g>
				
					<linearGradient id="SVGID_14_" gradientUnits="userSpaceOnUse" x1="1796.625" y1="11.7305" x2="1796.6245" y2="11.7089" gradientTransform="matrix(-1 0 0 1 1832.9414 0)">
					<stop  offset="0" style="stop-color:#E5E7EB"/>
					<stop  offset="0.6809" style="stop-color:#93ABBF"/>
					<stop  offset="1" style="stop-color:#7192AD"/>
				</linearGradient>
				<polygon class="st34" points="36.3,11.7 36.3,11.7 36.3,11.7 36.3,11.7 				"/>
				
					<radialGradient id="SVGID_15_" cx="1808.9873" cy="32.9795" r="23.513" gradientTransform="matrix(-1 0 0 1 1832.9414 0)" gradientUnits="userSpaceOnUse">
					<stop  offset="0" style="stop-color:#00B4F0"/>
					<stop  offset="1" style="stop-color:#008ACE"/>
				</radialGradient>
				<polygon class="st35" points="11.7,32.4 11.7,12.1 11.7,12.1 36.1,12.1 36.1,12.1 35.8,34.2 35.8,34.2 11.7,32.4 				"/>
			</g>
		</g>
		
			<linearGradient id="SVGID_16_" gradientUnits="userSpaceOnUse" x1="1809.0625" y1="23.6235" x2="1809.0625" y2="16.2806" gradientTransform="matrix(-1 0 0 1 1832.9414 0)">
			<stop  offset="0.1538" style="stop-color:#71CFF4"/>
			<stop  offset="0.9944" style="stop-color:#FFFFFF"/>
		</linearGradient>
		<path class="st11" d="M35.3,16.7l0.1-3.8H12.3v8.4c0,0,6.8-0.4,10.5-2.3C26.5,17.1,35.3,16.7,35.3,16.7z"/>
		<polygon class="st3" points="35.8,34.2 36.1,12.1 11.7,12.1 11.7,12.4 35.8,12.4 35.5,34.1 		"/>
		<polygon class="st0" points="30.1,38.3 31,39.7 23.4,38.8 30.8,39.5 		"/>
		<polygon class="st44" points="36.1,12.1 35.8,34.2 11.7,32.4 36.2,34.6 		"/>
		<polygon class="st26" points="38.6,9.7 9.6,9.9 9.3,35.7 9.9,10.2 		"/>
		<polygon class="st45" points="32.9,42.4 36.7,39.6 31.7,39.2 36.1,39.8 		"/>
		<polygon class="st30" points="31.7,39.2 28.1,42 28.3,42.1 31.8,39.2 		"/>
		<polygon class="st26" points="7.5,40 0.3,44.2 32.9,48.6 1.6,43.9 		"/>
		<path class="st24" d="M39.4,10.3c0,0-3.1,0-3.1,1.5l0.1,26.4l2.8,0.5L39.4,10.3z"/>
		
			<linearGradient id="SVGID_17_" gradientUnits="userSpaceOnUse" x1="1800.7783" y1="31.585" x2="1820.8848" y2="31.585" gradientTransform="matrix(-1 0 0 1 1832.9414 0)">
			<stop  offset="0.2308" style="stop-color:#D8DFE6"/>
			<stop  offset="1" style="stop-color:#EEF0F2"/>
		</linearGradient>
		<path class="st22" d="M32.2,33.6l-20.1-1.8l0.1-2.2c0,0-0.4,1.9,2.9,2C18.4,31.7,32.2,33.6,32.2,33.6z"/>
		
			<linearGradient id="SVGID_18_" gradientUnits="userSpaceOnUse" x1="1801.3584" y1="45.3047" x2="1819.4421" y2="44.2269" gradientTransform="matrix(-1 0 0 1 1832.9414 0)">
			<stop  offset="0" style="stop-color:#7A8393"/>
			<stop  offset="0.9944" style="stop-color:#949AA1"/>
		</linearGradient>
		<polygon class="st27" points="32.3,47.4 35,44.9 13.8,42.2 10.3,44.6 		"/>
		
			<linearGradient id="SVGID_19_" gradientUnits="userSpaceOnUse" x1="1799.5967" y1="43.335" x2="1815.6893" y2="42.3758" gradientTransform="matrix(-1 0 0 1 1832.9414 0)">
			<stop  offset="0" style="stop-color:#7A8393"/>
			<stop  offset="0.9944" style="stop-color:#949AA1"/>
		</linearGradient>
		<polygon class="st7" points="35.4,44.4 36.3,43.7 15.6,41.3 14.5,41.9 		"/>
		
			<linearGradient id="SVGID_20_" gradientUnits="userSpaceOnUse" x1="1821.9668" y1="43.041" x2="1828.057" y2="42.678" gradientTransform="matrix(-1 0 0 1 1832.9414 0)">
			<stop  offset="0" style="stop-color:#7A8393"/>
			<stop  offset="0.9944" style="stop-color:#949AA1"/>
		</linearGradient>
		<polygon class="st4" points="8.5,44.3 12.2,42 7.6,41.5 3.8,43.7 		"/>
		<g>
			
				<linearGradient id="SVGID_21_" gradientUnits="userSpaceOnUse" x1="1785.8643" y1="38.7666" x2="1784.1339" y2="10.649" gradientTransform="matrix(-1 0 0 1 1832.9414 0)">
				<stop  offset="0" style="stop-color:#BCC2CF"/>
				<stop  offset="0.2584" style="stop-color:#CDD2E0"/>
				<stop  offset="1" style="stop-color:#E1E3E9"/>
			</linearGradient>
			<path class="st36" d="M37.9,48l0-36c0,0-0.3-0.9,1.9-1.3l8.5-2.2l11.4,0.7l-5.3,2.2c-1.8,0.2-2.2,2.5-2.2,2.5v32.3
				c0.1,1.8,0.3,2.5,0.3,2.5l-0.3,1.1c-0.1-0.3-0.2-1.2-0.2-1.2l2.3,0.2l-1.6,1.8c0,0-0.4,1-3.6,0.9l-9.1-1.2
				C40.2,50.4,37.9,49.9,37.9,48z"/>
			<g>
				<path class="st9" d="M39.9,49.7l9.2,1.2c1.3,0.1,2.1-0.1,2.7-0.3v0c0.1,0,0.3-0.1,0.4-0.2c0.5-0.2,0.5-0.5,0.5-0.5l1.6-1.8l0,0
					l4.2-4.8c0.9-1,1.3-1.8,1.4-2.3v0.1c0,0,0.2,1-1.4,3l-4.1,4.8l0,0l-1.6,1.8c0,0-0.1,0.2-0.5,0.5c-0.1,0.1-0.2,0.1-0.3,0.1l0,0
					c-0.5,0.2-1.3,0.3-2.6,0.3l-9-1.2c0,0-1.8-0.4-2.2-1.8C38.8,49.4,39.9,49.7,39.9,49.7z"/>
			</g>
			
				<linearGradient id="SVGID_22_" gradientUnits="userSpaceOnUse" x1="1783.8984" y1="19.4155" x2="1783.8984" y2="10.7745" gradientTransform="matrix(-1 0 0 1 1832.9414 0)">
				<stop  offset="5.618000e-003" style="stop-color:#8FA6BB"/>
				<stop  offset="1" style="stop-color:#91A7B8"/>
			</linearGradient>
			<path class="st37" d="M40.8,10.6l8-2.1l9.4,0.3c0,0,0.6-0.2,0.7,0.4l-2.7,1l-4.3,1.7c0,0-0.5,0.2-0.5,0.4
				c-0.1,0.2-0.3,0.1-0.3,0.8l0,35.6c0,0-0.2,1.6-2.2,1.6l-8-1c0,0-1.4,0-1.5-1.8V12.1C39.3,12.1,39,11,40.8,10.6z"/>
			
				<linearGradient id="SVGID_23_" gradientUnits="userSpaceOnUse" x1="1784.0674" y1="8.9761" x2="1784.0674" y2="11.6565" gradientTransform="matrix(-1 0 0 1 1832.9414 0)">
				<stop  offset="0.6067" style="stop-color:#5FABFF"/>
				<stop  offset="1" style="stop-color:#357C9D"/>
			</linearGradient>
			<path class="st38" d="M42,12.7c2,0.3,7.5-0.5,7.5-0.8c0.1-0.6,0.5-0.9,0.5-0.9l7-2.2c0,0,0.2-0.2-0.9-0.2l-5.7-0.2
				c0,0-0.3-0.1-1,0.2L41,11C41,11,39.8,12.4,42,12.7z"/>
			
				<linearGradient id="SVGID_24_" gradientUnits="userSpaceOnUse" x1="1787.8281" y1="16.271" x2="1787.8281" y2="39.5483" gradientTransform="matrix(-1 0 0 1 1832.9414 0)">
				<stop  offset="0.6067" style="stop-color:#5FABFF"/>
				<stop  offset="1" style="stop-color:#357C9D"/>
			</linearGradient>
			<path class="st39" d="M49.6,11.8l0.1,36.1c0,0,0.1,1.3-0.9,1.4l-7.3-1c0,0-1.1-0.2-1-1.7l0.1-34.3c0,0-0.1-1.2,0.7-1.2l7.7,0.3
				C49,11.4,49.5,11.1,49.6,11.8z"/>
			<polygon class="st6" points="48.3,15.8 48.3,16.5 41.7,16.2 41.7,15.6 			"/>
			<path class="st1" d="M44.6,42.8c1.2,0,2.2,1,2.2,2.1c0,1.2-1,2.1-2.2,2.1c-1.2,0-2.2-1-2.2-2.1C42.4,43.7,43.4,42.8,44.6,42.8z"
				/>
			
				<linearGradient id="SVGID_25_" gradientUnits="userSpaceOnUse" x1="1778.5215" y1="49.0459" x2="1776.6235" y2="22.4748" gradientTransform="matrix(-1 0 0 1 1832.9414 0)">
				<stop  offset="5.618000e-003" style="stop-color:#9198A0"/>
				<stop  offset="0.9888" style="stop-color:#BDC2CC"/>
			</linearGradient>
			<path class="st40" d="M53.2,11.6l6.4-2.5C59.7,9.2,60,9.3,60,9.9L60,41c0,0,0.2,1-1.5,3l-5.7,6.7c0,0-0.1,0.3-0.9,0.6V14.8
				C51.8,12,53.2,11.6,53.2,11.6z"/>
			<path class="st29" d="M59,11.4c0,0.5,0.1,0.9,0.3,0.9c0.2,0,0.3-0.4,0.3-0.9c0-0.5-0.1-0.9-0.3-0.9C59.2,10.5,59,10.9,59,11.4z"
				/>
			<ellipse class="st29" cx="53.5" cy="14" rx="0.3" ry="0.9"/>
			<ellipse class="st29" cx="59.3" cy="39.5" rx="0.3" ry="0.9"/>
			<path class="st29" d="M53.2,45.9c0,0.5,0.1,0.9,0.3,0.9c0.2,0,0.3-0.4,0.3-0.9c0-0.5-0.1-0.9-0.3-0.9
				C53.3,45,53.2,45.4,53.2,45.9z"/>
			
				<linearGradient id="SVGID_26_" gradientUnits="userSpaceOnUse" x1="1776.376" y1="8.8604" x2="1776.376" y2="8.8604" gradientTransform="matrix(-1 0 0 1 1832.9414 0)">
				<stop  offset="0" style="stop-color:#15539B"/>
				<stop  offset="0.9944" style="stop-color:#008ACE"/>
			</linearGradient>
			<path class="st41" d="M56.6,8.9"/>
			
				<linearGradient id="SVGID_27_" gradientUnits="userSpaceOnUse" x1="1781.0977" y1="11.5464" x2="1793.2109" y2="11.5464" gradientTransform="matrix(-1 0 0 1 1832.9414 0)">
				<stop  offset="0.2308" style="stop-color:#D8DFE6"/>
				<stop  offset="1" style="stop-color:#EEF0F2"/>
			</linearGradient>
			<path class="st23" d="M50.8,12.3c0.2-0.3,0.5-0.6,1-0.7c0,0-0.4-0.4-0.9-0.6l-10.2-0.1c0,0-1,0.3-1.1,0.7c0,0,10.3,0.4,10.6,0.4
				C50.6,12,50.8,12.3,50.8,12.3z"/>
			
				<radialGradient id="SVGID_28_" cx="1787.8174" cy="43.5762" r="0" gradientTransform="matrix(-1 0 0 1 1832.9414 0)" gradientUnits="userSpaceOnUse">
				<stop  offset="0" style="stop-color:#E5E7EB"/>
				<stop  offset="0.233" style="stop-color:#CFD7DF"/>
				<stop  offset="0.7168" style="stop-color:#95ADC0"/>
				<stop  offset="1" style="stop-color:#7192AD"/>
			</radialGradient>
			<path class="st42" d="M45.1,43.6"/>
			<g>
				
					<linearGradient id="SVGID_29_" gradientUnits="userSpaceOnUse" x1="1788.29" y1="46.6719" x2="1788.29" y2="42.7255" gradientTransform="matrix(-1 0 0 1 1832.9414 0)">
					<stop  offset="0" style="stop-color:#6F86A1"/>
					<stop  offset="0.9888" style="stop-color:#87A2B7"/>
				</linearGradient>
				<path class="st10" d="M42.5,44.5c0,1.2,1,2.1,2.2,2.1c1.2,0,2.2-1,2.2-2.1c0-1.2-1-2.1-2.2-2.1C43.4,42.4,42.5,43.4,42.5,44.5z"
					/>
				
					<linearGradient id="SVGID_30_" gradientUnits="userSpaceOnUse" x1="1787.3203" y1="43.4316" x2="1789.3746" y2="45.7364" gradientTransform="matrix(-1 0 0 1 1832.9414 0)">
					<stop  offset="0" style="stop-color:#D7DDE3"/>
					<stop  offset="0.2459" style="stop-color:#BAC8D5"/>
					<stop  offset="0.5659" style="stop-color:#99B0C5"/>
				</linearGradient>
				<circle class="st43" cx="44.6" cy="44.5" r="1.7"/>
			</g>
			<polygon class="st8" points="48.3,16.5 48.3,15.8 41.7,15.6 48.4,15.6 			"/>
			<path class="st5" d="M44,43.9c0,0.3,0.4,0.6,0.8,0.6c0.5,0,0.8-0.3,0.8-0.6c0-0.3-0.4-0.6-0.8-0.6C44.3,43.3,44,43.6,44,43.9z"/>
		</g>
		<path class="st6" d="M40.6,18.7l0,2.2l9.1,0.4l0-2.2L40.6,18.7z M40.7,18.9l8.8,0.3v2l-8.8-0.4V18.9z"/>
	</g>
</g>
</svg>
