<?xml version="1.0" encoding="utf-8"?>
<!-- Generator: Adobe Illustrator 18.1.0, SVG Export Plug-In . SVG Version: 6.00 Build 0)  -->
<svg version="1.1" id="图层_1" xmlns="http://www.w3.org/2000/svg" xmlns:xlink="http://www.w3.org/1999/xlink" x="0px" y="0px"
	 width="16px" height="16px" viewBox="0 0 16 16" style="enable-background:new 0 0 16 16;" xml:space="preserve">
<style type="text/css">
	.st0{fill:url(#SVGID_1_);}
	.st1{fill:url(#SVGID_2_);}
	.st2{fill:url(#SVGID_3_);}
	.st3{fill:url(#SVGID_4_);}
	.st4{fill:url(#SVGID_5_);}
	.st5{fill:url(#SVGID_6_);}
	.st6{fill:url(#SVGID_7_);}
	.st7{fill:url(#SVGID_8_);}
	.st8{fill:url(#SVGID_9_);}
	.st9{fill:url(#SVGID_10_);}
	.st10{fill:url(#SVGID_11_);}
</style>
<g>
	
		<linearGradient id="SVGID_1_" gradientUnits="userSpaceOnUse" x1="0" y1="-14" x2="60" y2="-14" gradientTransform="matrix(0.2667 0 0 -0.2667 0 4.2667)">
		<stop  offset="0" style="stop-color:#B9BBBD"/>
		<stop  offset="3.208770e-002" style="stop-color:#B6B8BA"/>
		<stop  offset="5.619587e-002" style="stop-color:#ADAEB1"/>
		<stop  offset="8.827712e-002" style="stop-color:#9D9EA1"/>
		<stop  offset="0.1241" style="stop-color:#C1C1C2"/>
		<stop  offset="0.1924" style="stop-color:#F0F0F0"/>
		<stop  offset="0.2083" style="stop-color:#FBFBFB"/>
		<stop  offset="0.2247" style="stop-color:#FFFFFF"/>
		<stop  offset="0.3015" style="stop-color:#EEEEEF"/>
		<stop  offset="0.3853" style="stop-color:#E3E3E4"/>
		<stop  offset="0.4775" style="stop-color:#DFE0E1"/>
		<stop  offset="0.7191" style="stop-color:#FFFFFF"/>
		<stop  offset="0.779" style="stop-color:#FDFDFD"/>
		<stop  offset="0.8065" style="stop-color:#F6F5F5"/>
		<stop  offset="0.8258" style="stop-color:#EBEAEA"/>
		<stop  offset="0.927" style="stop-color:#797A7D"/>
		<stop  offset="1" style="stop-color:#BEC0C1"/>
	</linearGradient>
	<path class="st0" d="M13.5,16h-11C1.1,16,0,14.9,0,13.5v-11C0,1.1,1.1,0,2.5,0h11C14.9,0,16,1.1,16,2.5v11C16,14.9,14.9,16,13.5,16
		z"/>
	<g>
		<g>
			
				<linearGradient id="SVGID_2_" gradientUnits="userSpaceOnUse" x1="8.6853" y1="-6.9" x2="17.0927" y2="-6.9" gradientTransform="matrix(0.2667 0 0 -0.2667 0 4.2667)">
				<stop  offset="0" style="stop-color:#050505"/>
				<stop  offset="1" style="stop-color:#1E1E21"/>
			</linearGradient>
			<path class="st1" d="M3.9,5.4c0-0.2-0.1-0.3-0.2-0.4C3.7,5,3.5,4.9,3.4,4.9S3.1,5,3,5C2.9,5.1,2.9,5.2,2.9,5.4
				c0,0.1,0.1,0.2,0.1,0.2c0.1,0.1,0.2,0.1,0.5,0.2C3.9,5.9,4.2,6,4.3,6.1c0.2,0.1,0.2,0.4,0.2,0.6c0,0.3-0.1,0.6-0.3,0.8
				C4.1,7.7,3.8,7.8,3.5,7.8c-0.4,0-0.6-0.1-0.8-0.3C2.5,7.4,2.3,7.1,2.3,6.7h0.6C2.9,6.9,3,7,3.1,7.1c0.1,0.1,0.2,0.1,0.4,0.1
				c0.2,0,0.3,0,0.4-0.1C4,7.1,4.1,7,4.1,6.9S4,6.6,3.9,6.6C3.8,6.5,3.6,6.5,3.3,6.4C3,6.3,2.7,6.2,2.6,6C2.5,5.9,2.4,5.7,2.4,5.4
				c0-0.3,0.1-0.6,0.3-0.7c0.2-0.2,0.4-0.3,0.8-0.3c0.3,0,0.6,0.1,0.8,0.3c0.2,0.2,0.3,0.5,0.3,0.8L3.9,5.4L3.9,5.4z"/>
			
				<linearGradient id="SVGID_3_" gradientUnits="userSpaceOnUse" x1="19.4888" y1="-6.85" x2="27.8042" y2="-6.85" gradientTransform="matrix(0.2667 0 0 -0.2667 0 4.2667)">
				<stop  offset="0" style="stop-color:#050505"/>
				<stop  offset="1" style="stop-color:#1E1E21"/>
			</linearGradient>
			<path class="st2" d="M5.7,7.8H5.5H5.2V4.4h0.3h0.3l1.1,2.3V4.4h0.3h0.3v3.3H7.1H6.8L5.7,5.4L5.7,7.8L5.7,7.8z"/>
			
				<linearGradient id="SVGID_4_" gradientUnits="userSpaceOnUse" x1="30.642" y1="-6.85" x2="40.542" y2="-6.85" gradientTransform="matrix(0.2667 0 0 -0.2667 0 4.2667)">
				<stop  offset="0" style="stop-color:#050505"/>
				<stop  offset="1" style="stop-color:#1E1E21"/>
			</linearGradient>
			<path class="st3" d="M8.7,7.8H8.4H8.2V4.4h0.4H9l0.5,2.6l0,0L10,4.4h0.4h0.4v3.3h-0.3h-0.3V5l0,0L9.8,7.8H9.5H9.2L8.7,5l0,0
				L8.7,7.8L8.7,7.8z"/>
			
				<linearGradient id="SVGID_5_" gradientUnits="userSpaceOnUse" x1="43.4659" y1="-6.85" x2="51.3146" y2="-6.85" gradientTransform="matrix(0.2667 0 0 -0.2667 0 4.2667)">
				<stop  offset="0" style="stop-color:#050505"/>
				<stop  offset="1" style="stop-color:#1E1E21"/>
			</linearGradient>
			<path class="st4" d="M11.6,4.4h0.3h0.9c0.3,0,0.5,0.1,0.7,0.3s0.2,0.5,0.2,0.8c0,0.3-0.1,0.6-0.2,0.8c-0.2,0.2-0.4,0.3-0.6,0.3
				h-0.7v1.2h-0.3h-0.3L11.6,4.4L11.6,4.4z M12.2,6h0.6c0.1,0,0.2,0,0.3-0.1c0.1-0.1,0.1-0.2,0.1-0.4c0-0.2,0-0.3-0.1-0.4
				C12.9,5.1,12.8,5,12.7,5h-0.5L12.2,6L12.2,6z"/>
		</g>
		<g>
			
				<linearGradient id="SVGID_6_" gradientUnits="userSpaceOnUse" x1="5" y1="-22.9" x2="11.5882" y2="-22.9" gradientTransform="matrix(0.2667 0 0 -0.2667 0 4.2667)">
				<stop  offset="0" style="stop-color:#050505"/>
				<stop  offset="1" style="stop-color:#1E1E21"/>
			</linearGradient>
			<path class="st5" d="M3.1,10.8c0,0.3-0.1,0.5-0.3,0.6c-0.2,0.2-0.3,0.2-0.6,0.2c-0.3,0-0.5-0.1-0.7-0.3s-0.2-0.5-0.2-0.9
				c0-0.4,0.1-0.7,0.2-0.9C1.8,9.2,2,9.1,2.3,9.1c0.2,0,0.4,0.1,0.6,0.2C3,9.5,3.1,9.7,3.1,9.9H2.7c0-0.1-0.1-0.2-0.1-0.3
				C2.5,9.5,2.3,9.5,2.2,9.5C2.1,9.5,2,9.6,1.9,9.7c-0.1,0.2-0.1,0.3-0.1,0.6c0,0.3,0.1,0.5,0.1,0.6s0.2,0.2,0.4,0.2
				c0.1,0,0.2-0.1,0.3-0.1c0.1-0.1,0.1-0.2,0.1-0.3L3.1,10.8L3.1,10.8z"/>
			
				<linearGradient id="SVGID_7_" gradientUnits="userSpaceOnUse" x1="13.0552" y1="-22.9" x2="20.1572" y2="-22.9" gradientTransform="matrix(0.2667 0 0 -0.2667 0 4.2667)">
				<stop  offset="0" style="stop-color:#050505"/>
				<stop  offset="1" style="stop-color:#1E1E21"/>
			</linearGradient>
			<path class="st6" d="M3.7,11.3c-0.2-0.2-0.3-0.5-0.3-0.9c0-0.4,0.1-0.7,0.3-0.9c0.2-0.2,0.4-0.3,0.7-0.3c0.3,0,0.5,0.1,0.7,0.3
				c0.2,0.2,0.3,0.5,0.3,0.9c0,0.4-0.1,0.7-0.3,0.9c-0.2,0.2-0.4,0.3-0.7,0.3C4.1,11.7,3.9,11.5,3.7,11.3z M4.8,11
				C4.9,10.8,5,10.6,5,10.4c0-0.3-0.1-0.5-0.1-0.6C4.7,9.6,4.6,9.5,4.4,9.5C4.3,9.5,4.1,9.6,4,9.8c-0.1,0.2-0.1,0.3-0.1,0.6
				c0,0.3,0.1,0.5,0.1,0.6c0.1,0.2,0.2,0.2,0.4,0.2C4.6,11.2,4.7,11.1,4.8,11z"/>
			
				<linearGradient id="SVGID_8_" gradientUnits="userSpaceOnUse" x1="21.9561" y1="-22.9" x2="29.1072" y2="-22.9" gradientTransform="matrix(0.2667 0 0 -0.2667 0 4.2667)">
				<stop  offset="0" style="stop-color:#050505"/>
				<stop  offset="1" style="stop-color:#1E1E21"/>
			</linearGradient>
			<path class="st7" d="M6.2,11.6H6.1H5.9V9.2h0.3h0.3l0.4,1.9l0,0l0.3-1.9h0.3h0.3v2.4H7.6H7.4v-2l0,0l-0.4,2H6.8H6.6l-0.4-2l0,0
				L6.2,11.6L6.2,11.6z"/>
			
				<linearGradient id="SVGID_9_" gradientUnits="userSpaceOnUse" x1="31.1568" y1="-22.9" x2="38.3079" y2="-22.9" gradientTransform="matrix(0.2667 0 0 -0.2667 0 4.2667)">
				<stop  offset="0" style="stop-color:#050505"/>
				<stop  offset="1" style="stop-color:#1E1E21"/>
			</linearGradient>
			<path class="st8" d="M8.7,11.6H8.5H8.3V9.2h0.3h0.3l0.4,1.9l0,0l0.3-1.9h0.3h0.3v2.4H10H9.8v-2l0,0l-0.4,2H9.3H9.1l-0.4-2l0,0
				V11.6z"/>
			
				<linearGradient id="SVGID_10_" gradientUnits="userSpaceOnUse" x1="40.1" y1="-22.9" x2="47.203" y2="-22.9" gradientTransform="matrix(0.2667 0 0 -0.2667 0 4.2667)">
				<stop  offset="0" style="stop-color:#050505"/>
				<stop  offset="1" style="stop-color:#1E1E21"/>
			</linearGradient>
			<path class="st9" d="M11,11.3c-0.2-0.2-0.3-0.5-0.3-0.9c0-0.4,0.1-0.7,0.3-0.9c0.2-0.2,0.4-0.3,0.7-0.3c0.3,0,0.5,0.1,0.7,0.3
				c0.2,0.2,0.3,0.5,0.3,0.9c0,0.4-0.1,0.7-0.3,0.9c-0.2,0.2-0.4,0.3-0.7,0.3C11.4,11.7,11.1,11.5,11,11.3z M12,11
				c0.1-0.2,0.1-0.3,0.1-0.6c0-0.3-0.1-0.5-0.1-0.6c-0.1-0.2-0.2-0.2-0.4-0.2c-0.2,0-0.3,0.1-0.4,0.2c-0.1,0.2-0.1,0.3-0.1,0.6
				c0,0.3,0.1,0.5,0.1,0.6c0.1,0.2,0.2,0.2,0.4,0.2C11.8,11.2,11.9,11.1,12,11z"/>
			
				<linearGradient id="SVGID_11_" gradientUnits="userSpaceOnUse" x1="49" y1="-22.9" x2="55" y2="-22.9" gradientTransform="matrix(0.2667 0 0 -0.2667 0 4.2667)">
				<stop  offset="0" style="stop-color:#050505"/>
				<stop  offset="1" style="stop-color:#1E1E21"/>
			</linearGradient>
			<path class="st10" d="M13.5,11.6h-0.2h-0.2V9.2h0.2h0.2l0.8,1.7V9.2h0.2h0.2v2.4h-0.2h-0.2l-0.8-1.7L13.5,11.6L13.5,11.6z"/>
		</g>
	</g>
</g>
</svg>
