<?xml version="1.0" encoding="utf-8"?>
<!-- Generator: Adobe Illustrator 18.1.0, SVG Export Plug-In . SVG Version: 6.00 Build 0)  -->
<svg version="1.1" id="图层_1" xmlns="http://www.w3.org/2000/svg" xmlns:xlink="http://www.w3.org/1999/xlink" x="0px" y="0px"
	 width="16px" height="16px" viewBox="0 0 16 16" style="enable-background:new 0 0 16 16;" xml:space="preserve">
<style type="text/css">
	.st0{fill:url(#SVGID_1_);}
	.st1{fill:url(#SVGID_2_);}
	.st2{fill:url(#SVGID_3_);}
	.st3{fill:url(#SVGID_4_);}
	.st4{fill:url(#SVGID_5_);}
	.st5{fill:url(#SVGID_6_);}
	.st6{fill:url(#SVGID_7_);}
	.st7{fill:url(#SVGID_8_);}
	.st8{fill:url(#SVGID_9_);}
	.st9{fill:url(#SVGID_10_);}
</style>
<g>
	
		<linearGradient id="SVGID_1_" gradientUnits="userSpaceOnUse" x1="0" y1="-14" x2="60" y2="-14" gradientTransform="matrix(0.2667 0 0 -0.2667 0 4.2667)">
		<stop  offset="0" style="stop-color:#B9BBBD"/>
		<stop  offset="3.208770e-002" style="stop-color:#B6B8BA"/>
		<stop  offset="5.619587e-002" style="stop-color:#ADAEB1"/>
		<stop  offset="8.827712e-002" style="stop-color:#9D9EA1"/>
		<stop  offset="0.1241" style="stop-color:#C1C1C2"/>
		<stop  offset="0.1924" style="stop-color:#F0F0F0"/>
		<stop  offset="0.2083" style="stop-color:#FBFBFB"/>
		<stop  offset="0.2247" style="stop-color:#FFFFFF"/>
		<stop  offset="0.3015" style="stop-color:#EEEEEF"/>
		<stop  offset="0.3853" style="stop-color:#E3E3E4"/>
		<stop  offset="0.4775" style="stop-color:#DFE0E1"/>
		<stop  offset="0.7191" style="stop-color:#FFFFFF"/>
		<stop  offset="0.779" style="stop-color:#FDFDFD"/>
		<stop  offset="0.8065" style="stop-color:#F6F5F5"/>
		<stop  offset="0.8258" style="stop-color:#EBEAEA"/>
		<stop  offset="0.927" style="stop-color:#797A7D"/>
		<stop  offset="1" style="stop-color:#BEC0C1"/>
	</linearGradient>
	<path class="st0" d="M13.5,16h-11C1.1,16,0,14.9,0,13.5v-11C0,1.1,1.1,0,2.5,0h11C14.9,0,16,1.1,16,2.5v11C16,14.9,14.9,16,13.5,16
		z"/>
	<g>
		<g>
			
				<linearGradient id="SVGID_2_" gradientUnits="userSpaceOnUse" x1="5" y1="-5.5" x2="10.6104" y2="-5.5" gradientTransform="matrix(0.2667 0 0 -0.2667 0 4.2667)">
				<stop  offset="0" style="stop-color:#050505"/>
				<stop  offset="1" style="stop-color:#1E1E21"/>
			</linearGradient>
			<path class="st1" d="M2.8,6c0,0.2-0.1,0.4-0.2,0.6C2.5,6.7,2.3,6.8,2.1,6.8c-0.2,0-0.4-0.1-0.5-0.3C1.4,6.3,1.3,6.1,1.3,5.8
				c0-0.3,0.1-0.6,0.2-0.8c0.1-0.2,0.3-0.3,0.6-0.3c0.2,0,0.4,0.1,0.5,0.2C2.7,5,2.8,5.2,2.8,5.4H2.4c0-0.1-0.1-0.2-0.1-0.2
				C2.3,5.1,2.2,5.1,2.1,5.1C2,5.1,1.9,5.2,1.9,5.3C1.8,5.4,1.8,5.5,1.8,5.7c0,0.2,0,0.4,0.1,0.5C1.9,6.3,2,6.4,2.2,6.4
				c0.1,0,0.1,0,0.2-0.1C2.4,6.2,2.4,6.1,2.5,6C2.5,6,2.8,6,2.8,6z"/>
			
				<linearGradient id="SVGID_3_" gradientUnits="userSpaceOnUse" x1="12.0561" y1="-5.55" x2="18.279" y2="-5.55" gradientTransform="matrix(0.2667 0 0 -0.2667 0 4.2667)">
				<stop  offset="0" style="stop-color:#050505"/>
				<stop  offset="1" style="stop-color:#1E1E21"/>
			</linearGradient>
			<path class="st2" d="M3.4,6.5C3.3,6.3,3.2,6.1,3.2,5.8c0-0.3,0.1-0.6,0.2-0.8c0.2-0.2,0.3-0.3,0.6-0.3c0.3,0,0.5,0.1,0.6,0.3
				c0.2,0.2,0.2,0.5,0.2,0.8c0,0.3-0.1,0.6-0.2,0.7C4.5,6.7,4.3,6.8,4.1,6.8C3.8,6.8,3.6,6.7,3.4,6.5z M4.3,6.2
				c0.1-0.1,0.1-0.2,0.1-0.5c0-0.2,0-0.3-0.1-0.5C4.3,5.2,4.2,5.1,4.1,5.1c-0.1,0-0.2,0.1-0.3,0.2C3.7,5.4,3.7,5.5,3.7,5.7
				s0,0.3,0.1,0.5c0.1,0.1,0.2,0.2,0.3,0.2C4.2,6.3,4.3,6.3,4.3,6.2z"/>
			
				<linearGradient id="SVGID_4_" gradientUnits="userSpaceOnUse" x1="20.0724" y1="-5.25" x2="28.7935" y2="-5.25" gradientTransform="matrix(0.2667 0 0 -0.2667 0 4.2667)">
				<stop  offset="0" style="stop-color:#050505"/>
				<stop  offset="1" style="stop-color:#1E1E21"/>
			</linearGradient>
			<path class="st3" d="M5.4,4.7h0.2h0.2v0.3C5.8,5,5.8,5,5.9,4.9C6,4.7,6.1,4.7,6.3,4.7c0.2,0,0.3,0.1,0.4,0.2
				C6.7,4.9,6.7,4.9,6.7,5l0.1-0.1C6.9,4.7,7,4.7,7.2,4.7c0.2,0,0.3,0.1,0.4,0.2s0.2,0.3,0.2,0.5v1.4H7.5H7.3V5.4
				c0-0.1,0-0.2-0.1-0.2c0-0.1-0.1-0.1-0.2-0.1c-0.1,0-0.2,0-0.2,0.1C6.8,5.3,6.7,5.3,6.7,5.5v1.2H6.5H6.3V5.4c0-0.1,0-0.2-0.1-0.3
				C6.2,5.1,6.2,5,6.1,5C6,5,5.9,5.1,5.9,5.1C5.8,5.2,5.8,5.3,5.8,5.4v1.2H5.6H5.4L5.4,4.7L5.4,4.7z"/>
			
				<linearGradient id="SVGID_5_" gradientUnits="userSpaceOnUse" x1="30.9344" y1="-5.25" x2="39.6555" y2="-5.25" gradientTransform="matrix(0.2667 0 0 -0.2667 0 4.2667)">
				<stop  offset="0" style="stop-color:#050505"/>
				<stop  offset="1" style="stop-color:#1E1E21"/>
			</linearGradient>
			<path class="st4" d="M8.2,4.7h0.2h0.2v0.3C8.7,5,8.7,5,8.7,4.9C8.9,4.7,9,4.7,9.1,4.7c0.2,0,0.3,0.1,0.4,0.2
				C9.6,4.9,9.6,4.9,9.6,5l0.1-0.1c0.1-0.2,0.2-0.2,0.4-0.2c0.2,0,0.3,0.1,0.4,0.2c0.1,0.1,0.2,0.3,0.2,0.5v1.4h-0.2h-0.2V5.4
				c0-0.1,0-0.2-0.1-0.2c0-0.1-0.1-0.1-0.2-0.1c-0.1,0-0.2,0-0.2,0.1S9.7,5.3,9.7,5.5v1.2H9.5H9.3V5.4c0-0.1,0-0.2-0.1-0.3
				C9.1,5.1,9.1,5,9,5c-0.1,0-0.2,0-0.2,0.1c0,0.1-0.1,0.2-0.1,0.3v1.2H8.5H8.3L8.2,4.7L8.2,4.7z"/>
			
				<linearGradient id="SVGID_6_" gradientUnits="userSpaceOnUse" x1="41.4626" y1="-5.55" x2="47.6851" y2="-5.55" gradientTransform="matrix(0.2667 0 0 -0.2667 0 4.2667)">
				<stop  offset="0" style="stop-color:#050505"/>
				<stop  offset="1" style="stop-color:#1E1E21"/>
			</linearGradient>
			<path class="st5" d="M11.3,6.5c-0.2-0.2-0.2-0.4-0.2-0.7c0-0.3,0.1-0.6,0.2-0.8c0.2-0.2,0.3-0.3,0.6-0.3s0.5,0.1,0.6,0.3
				c0.2,0.2,0.2,0.5,0.2,0.8c0,0.3-0.1,0.6-0.2,0.7c-0.2,0.2-0.3,0.3-0.6,0.3C11.6,6.8,11.4,6.7,11.3,6.5z M12.2,6.2
				c0.1-0.1,0.1-0.2,0.1-0.5c0-0.2,0-0.3-0.1-0.5c-0.1-0.1-0.2-0.2-0.3-0.2s-0.2,0.1-0.3,0.2c-0.1,0.1-0.1,0.3-0.1,0.5
				s0,0.3,0.1,0.5c0.1,0.1,0.2,0.2,0.3,0.2S12.1,6.3,12.2,6.2z"/>
			
				<linearGradient id="SVGID_7_" gradientUnits="userSpaceOnUse" x1="49.4989" y1="-5.45" x2="55" y2="-5.45" gradientTransform="matrix(0.2667 0 0 -0.2667 0 4.2667)">
				<stop  offset="0" style="stop-color:#050505"/>
				<stop  offset="1" style="stop-color:#1E1E21"/>
			</linearGradient>
			<path class="st6" d="M13.2,4.7h0.2h0.2v0.3L13.7,5c0.1-0.2,0.3-0.3,0.5-0.3c0.2,0,0.3,0.1,0.4,0.2c0.1,0.1,0.2,0.3,0.2,0.5v1.4
				h-0.2h-0.2V5.5c0-0.1,0-0.2-0.1-0.3c-0.1-0.1-0.1-0.1-0.2-0.1c-0.1,0-0.2,0.1-0.3,0.1c-0.1,0.1-0.1,0.2-0.1,0.4v1.1h-0.2h-0.2
				L13.2,4.7L13.2,4.7z"/>
		</g>
		<g>
			
				<linearGradient id="SVGID_8_" gradientUnits="userSpaceOnUse" x1="20.9069" y1="-21.6" x2="27.7881" y2="-21.6" gradientTransform="matrix(0.2667 0 0 -0.2667 0 4.2667)">
				<stop  offset="0" style="stop-color:#050505"/>
				<stop  offset="1" style="stop-color:#1E1E21"/>
			</linearGradient>
			<path class="st7" d="M6.1,10.3c0,0.1,0,0.3,0.1,0.3c0.1,0.1,0.1,0.1,0.2,0.1c0.1,0,0.2-0.1,0.3-0.2c0.1-0.1,0.1-0.2,0.1-0.4V8.7
				h0.3h0.3v2.5H7.1H6.9v-0.3c0,0.1-0.1,0.1-0.1,0.1c-0.1,0.2-0.3,0.3-0.6,0.3c-0.2,0-0.4-0.1-0.5-0.2c-0.1-0.2-0.2-0.4-0.2-0.6V8.8
				h0.3h0.3L6.1,10.3L6.1,10.3z"/>
			
				<linearGradient id="SVGID_9_" gradientUnits="userSpaceOnUse" x1="30.522" y1="-21.3" x2="34.972" y2="-21.3" gradientTransform="matrix(0.2667 0 0 -0.2667 0 4.2667)">
				<stop  offset="0" style="stop-color:#050505"/>
				<stop  offset="1" style="stop-color:#1E1E21"/>
			</linearGradient>
			<path class="st8" d="M8.1,8.7h0.3h0.3v0.4L8.7,9C8.9,8.8,9,8.7,9.2,8.7c0.1,0,0.1,0,0.1,0v0.7c-0.1,0-0.1,0-0.2,0
				C9,9.3,8.9,9.4,8.8,9.5C8.7,9.6,8.7,9.7,8.7,9.9v1.3H8.4H8.1V8.7z"/>
			
				<linearGradient id="SVGID_10_" gradientUnits="userSpaceOnUse" x1="37.081" y1="-19.8" x2="39.0936" y2="-19.8" gradientTransform="matrix(0.2667 0 0 -0.2667 0 4.2667)">
				<stop  offset="0" style="stop-color:#050505"/>
				<stop  offset="1" style="stop-color:#1E1E21"/>
			</linearGradient>
			<path class="st9" d="M9.9,7.9h0.3h0.3v3.4h-0.3H9.9V7.9z"/>
		</g>
	</g>
</g>
</svg>
