<?xml version="1.0" encoding="utf-8"?>
<!-- Generator: Adobe Illustrator 18.1.0, SVG Export Plug-In . SVG Version: 6.00 Build 0)  -->
<svg version="1.1" id="图层_1" xmlns="http://www.w3.org/2000/svg" xmlns:xlink="http://www.w3.org/1999/xlink" x="0px" y="0px"
	 width="16px" height="16px" viewBox="0 0 16 16" style="enable-background:new 0 0 16 16;" xml:space="preserve">
<style type="text/css">
	.st0{fill:url(#SVGID_1_);}
	.st1{fill:url(#SVGID_2_);}
	.st2{fill:url(#SVGID_3_);}
	.st3{fill:url(#SVGID_4_);}
</style>
<g>
	
		<linearGradient id="SVGID_1_" gradientUnits="userSpaceOnUse" x1="0" y1="-14" x2="60" y2="-14" gradientTransform="matrix(0.2667 0 0 -0.2667 0 4.2667)">
		<stop  offset="0" style="stop-color:#B9BBBD"/>
		<stop  offset="3.208770e-002" style="stop-color:#B6B8BA"/>
		<stop  offset="5.619587e-002" style="stop-color:#ADAEB1"/>
		<stop  offset="8.827712e-002" style="stop-color:#9D9EA1"/>
		<stop  offset="0.1241" style="stop-color:#C1C1C2"/>
		<stop  offset="0.1924" style="stop-color:#F0F0F0"/>
		<stop  offset="0.2083" style="stop-color:#FBFBFB"/>
		<stop  offset="0.2247" style="stop-color:#FFFFFF"/>
		<stop  offset="0.3015" style="stop-color:#EEEEEF"/>
		<stop  offset="0.3853" style="stop-color:#E3E3E4"/>
		<stop  offset="0.4775" style="stop-color:#DFE0E1"/>
		<stop  offset="0.7191" style="stop-color:#FFFFFF"/>
		<stop  offset="0.779" style="stop-color:#FDFDFD"/>
		<stop  offset="0.8065" style="stop-color:#F6F5F5"/>
		<stop  offset="0.8258" style="stop-color:#EBEAEA"/>
		<stop  offset="0.927" style="stop-color:#797A7D"/>
		<stop  offset="1" style="stop-color:#BEC0C1"/>
	</linearGradient>
	<path class="st0" d="M13.5,16h-11C1.1,16,0,14.9,0,13.5v-11C0,1.1,1.1,0,2.5,0h11C14.9,0,16,1.1,16,2.5v11C16,14.9,14.9,16,13.5,16
		z"/>
	<g>
		
			<linearGradient id="SVGID_2_" gradientUnits="userSpaceOnUse" x1="10" y1="-13.95" x2="22.9825" y2="-13.95" gradientTransform="matrix(0.2667 0 0 -0.2667 0 4.2667)">
			<stop  offset="0" style="stop-color:#050505"/>
			<stop  offset="1" style="stop-color:#1E1E21"/>
		</linearGradient>
		<path class="st1" d="M2.7,5.8h0.4h1.3c0.6,0,1,0.2,1.3,0.5C6,6.7,6.1,7.2,6.1,7.9c0,0.7-0.2,1.3-0.5,1.7C5.4,10,5,10.2,4.4,10.2
			H3.1H2.7V5.8z M3.5,9.4h0.8C4.6,9.4,4.9,9.3,5,9C5.2,8.8,5.3,8.4,5.3,8c0-0.5-0.1-0.8-0.2-1.1C4.9,6.7,4.6,6.6,4.3,6.6H3.5
			L3.5,9.4L3.5,9.4z"/>
		
			<linearGradient id="SVGID_3_" gradientUnits="userSpaceOnUse" x1="25.366" y1="-14.05" x2="38.0067" y2="-14.05" gradientTransform="matrix(0.2667 0 0 -0.2667 0 4.2667)">
			<stop  offset="0" style="stop-color:#050505"/>
			<stop  offset="1" style="stop-color:#1E1E21"/>
		</linearGradient>
		<path class="st2" d="M6.8,5.8h0.4h1.5c0.4,0,0.7,0.1,1,0.3C9.9,6.3,10,6.6,10,6.9S9.9,7.5,9.6,7.7c-0.1,0-0.1,0.1-0.1,0.1
			C9.6,7.9,9.7,7.9,9.7,8c0.3,0.2,0.4,0.5,0.4,0.9c0,0.4-0.1,0.7-0.4,1c-0.3,0.2-0.6,0.4-1.1,0.4H7.1H6.7L6.8,5.8L6.8,5.8z M7.6,7.5
			h1c0.2,0,0.4,0,0.5-0.1C9.1,7.3,9.2,7.2,9.2,7c0-0.2-0.1-0.3-0.2-0.4C8.9,6.6,8.8,6.6,8.5,6.6H7.6C7.6,6.6,7.6,7.5,7.6,7.5z
			 M7.6,9.4h1.1c0.2,0,0.3-0.1,0.5-0.1c0.1-0.1,0.1-0.2,0.1-0.5S9.2,8.5,9.1,8.4C9,8.3,8.8,8.3,8.6,8.3h-1V9.4z"/>
		
			<linearGradient id="SVGID_4_" gradientUnits="userSpaceOnUse" x1="39.6674" y1="-14.05" x2="50" y2="-14.05" gradientTransform="matrix(0.2667 0 0 -0.2667 0 4.2667)">
			<stop  offset="0" style="stop-color:#050505"/>
			<stop  offset="1" style="stop-color:#1E1E21"/>
		</linearGradient>
		<path class="st3" d="M13.3,7.2c0,0.3-0.1,0.6-0.2,0.8c-0.2,0.2-0.4,0.5-0.9,0.8c-0.4,0.3-0.6,0.5-0.8,0.7h1.8v0.7h-2.7l0,0
			c0-0.4,0.1-0.7,0.3-1c0.2-0.3,0.5-0.6,1-1c0.2-0.2,0.4-0.3,0.5-0.5c0.1-0.1,0.1-0.3,0.1-0.5s-0.1-0.4-0.2-0.5
			c-0.1-0.1-0.2-0.2-0.4-0.2c-0.2,0-0.4,0.1-0.5,0.2c-0.1,0.1-0.1,0.3-0.1,0.6h-0.8c0-0.5,0.1-0.9,0.3-1.1c0.2-0.3,0.6-0.4,1-0.4
			c0.4,0,0.7,0.1,1,0.4C13.2,6.5,13.3,6.8,13.3,7.2z"/>
	</g>
</g>
</svg>
