<?xml version="1.0" encoding="utf-8"?>
<!-- Generator: Adobe Illustrator 18.1.0, SVG Export Plug-In . SVG Version: 6.00 Build 0)  -->
<svg version="1.1" id="图层_1" xmlns="http://www.w3.org/2000/svg" xmlns:xlink="http://www.w3.org/1999/xlink" x="0px" y="0px"
	 width="16px" height="16px" viewBox="0 0 16 16" style="enable-background:new 0 0 16 16;" xml:space="preserve">
<style type="text/css">
	.st0{fill:url(#SVGID_1_);}
	.st1{fill:url(#SVGID_2_);}
</style>
<g>
	
		<linearGradient id="SVGID_1_" gradientUnits="userSpaceOnUse" x1="0" y1="-14" x2="60" y2="-14" gradientTransform="matrix(0.2667 0 0 -0.2667 0 4.2667)">
		<stop  offset="0" style="stop-color:#B9BBBD"/>
		<stop  offset="3.208770e-002" style="stop-color:#B6B8BA"/>
		<stop  offset="5.619587e-002" style="stop-color:#ADAEB1"/>
		<stop  offset="8.827712e-002" style="stop-color:#9D9EA1"/>
		<stop  offset="0.1241" style="stop-color:#C1C1C2"/>
		<stop  offset="0.1924" style="stop-color:#F0F0F0"/>
		<stop  offset="0.2083" style="stop-color:#FBFBFB"/>
		<stop  offset="0.2247" style="stop-color:#FFFFFF"/>
		<stop  offset="0.3015" style="stop-color:#EEEEEF"/>
		<stop  offset="0.3853" style="stop-color:#E3E3E4"/>
		<stop  offset="0.4775" style="stop-color:#DFE0E1"/>
		<stop  offset="0.7191" style="stop-color:#FFFFFF"/>
		<stop  offset="0.779" style="stop-color:#FDFDFD"/>
		<stop  offset="0.8065" style="stop-color:#F6F5F5"/>
		<stop  offset="0.8258" style="stop-color:#EBEAEA"/>
		<stop  offset="0.927" style="stop-color:#797A7D"/>
		<stop  offset="1" style="stop-color:#BEC0C1"/>
	</linearGradient>
	<path class="st0" d="M13.5,16h-11C1.1,16,0,14.9,0,13.5v-11C0,1.1,1.1,0,2.5,0h11C14.9,0,16,1.1,16,2.5v11C16,14.9,14.9,16,13.5,16
		z"/>
	
		<linearGradient id="SVGID_2_" gradientUnits="userSpaceOnUse" x1="15" y1="-14" x2="45" y2="-14" gradientTransform="matrix(0.2667 0 0 -0.2667 0 4.2667)">
		<stop  offset="0" style="stop-color:#050505"/>
		<stop  offset="1" style="stop-color:#1E1E21"/>
	</linearGradient>
	<path class="st1" d="M9.9,10.7v-0.5L9.4,9.7C9.3,9.6,9.3,9.6,9.3,9.5V8H6.1v5.3h3.7v-2l-0.3-0.3v-0.4H9.9z M12,5.6V3.8l-1.3-1.1H4
		v10.7h1.6V7.8c0-0.1,0.2-0.3,0.4-0.3h3.7c0.1,0,0.2,0.2,0.2,0.3v1.6l0.5,0.5c0.1,0.1,0.1,0.1,0.1,0.2v3.3H12V6.4h-0.3V5.6H12z
		 M5.6,4.5H4.5V2.9h1.1V4.5z M6.4,4.5H5.6V2.9h0.8V4.5z M7.2,4.5H6.7V2.9h0.5V4.5z M8,4.5H7.5V2.9H8V4.5z M8.8,4.5H8.3V2.9h0.5V4.5z
		 M9.6,4.5H9.1V2.9h0.5V4.5z M10.4,4.5h-0.3V2.9h0.3V4.5z M11.5,5.3h-0.5V3.7h0.5V5.3z M9.3,9.5V8H6.1v5.3h3.7v-2l-0.3-0.3v-0.4h0.3
		v-0.5L9.4,9.7C9.3,9.6,9.3,9.6,9.3,9.5z M9.9,10.7v-0.5L9.4,9.7C9.3,9.6,9.3,9.6,9.3,9.5V8H6.1v5.3h3.7v-2l-0.3-0.3v-0.4H9.9z"/>
</g>
</svg>
