<?xml version="1.0" encoding="utf-8"?>
<!-- Generator: Adobe Illustrator 18.1.0, SVG Export Plug-In . SVG Version: 6.00 Build 0)  -->
<svg version="1.1" id="图层_1" xmlns="http://www.w3.org/2000/svg" xmlns:xlink="http://www.w3.org/1999/xlink" x="0px" y="0px"
	 width="16px" height="16px" viewBox="0 0 16 16" style="enable-background:new 0 0 16 16;" xml:space="preserve">
<style type="text/css">
	.st0{fill:url(#SVGID_1_);}
	.st1{fill:url(#SVGID_2_);}
	.st2{fill:url(#SVGID_3_);}
	.st3{fill:url(#SVGID_4_);}
	.st4{fill:url(#SVGID_5_);}
	.st5{fill:url(#SVGID_6_);}
	.st6{fill:url(#SVGID_7_);}
</style>
<g>
	
		<linearGradient id="SVGID_1_" gradientUnits="userSpaceOnUse" x1="0" y1="-14" x2="60" y2="-14" gradientTransform="matrix(0.2667 0 0 -0.2667 0 4.2667)">
		<stop  offset="0" style="stop-color:#B9BBBD"/>
		<stop  offset="3.208770e-002" style="stop-color:#B6B8BA"/>
		<stop  offset="5.619587e-002" style="stop-color:#ADAEB1"/>
		<stop  offset="8.827712e-002" style="stop-color:#9D9EA1"/>
		<stop  offset="0.1241" style="stop-color:#C1C1C2"/>
		<stop  offset="0.1924" style="stop-color:#F0F0F0"/>
		<stop  offset="0.2083" style="stop-color:#FBFBFB"/>
		<stop  offset="0.2247" style="stop-color:#FFFFFF"/>
		<stop  offset="0.3015" style="stop-color:#EEEEEF"/>
		<stop  offset="0.3853" style="stop-color:#E3E3E4"/>
		<stop  offset="0.4775" style="stop-color:#DFE0E1"/>
		<stop  offset="0.7191" style="stop-color:#FFFFFF"/>
		<stop  offset="0.779" style="stop-color:#FDFDFD"/>
		<stop  offset="0.8065" style="stop-color:#F6F5F5"/>
		<stop  offset="0.8258" style="stop-color:#EBEAEA"/>
		<stop  offset="0.927" style="stop-color:#797A7D"/>
		<stop  offset="1" style="stop-color:#BEC0C1"/>
	</linearGradient>
	<path class="st0" d="M13.5,16h-11C1.1,16,0,14.9,0,13.5v-11C0,1.1,1.1,0,2.5,0h11C14.9,0,16,1.1,16,2.5v11C16,14.9,14.9,16,13.5,16
		z"/>
	<g>
		
			<linearGradient id="SVGID_2_" gradientUnits="userSpaceOnUse" x1="16" y1="-14" x2="44" y2="-14" gradientTransform="matrix(0.2667 0 0 -0.2667 0 4.2667)">
			<stop  offset="0" style="stop-color:#050505"/>
			<stop  offset="1" style="stop-color:#1E1E21"/>
		</linearGradient>
		<path class="st1" d="M4.3,2.7v10.7h7.5V2.7H4.3z M11.1,2.7c0.2,0,0.3,0.1,0.3,0.3s-0.1,0.3-0.3,0.3c-0.2,0-0.3-0.1-0.3-0.3
			S10.9,2.7,11.1,2.7z M4.8,2.7c0.2,0,0.3,0.1,0.3,0.3S4.9,3.3,4.8,3.3C4.6,3.3,4.5,3.2,4.5,3S4.6,2.7,4.8,2.7z M4.8,12.9
			c-0.2,0-0.3-0.1-0.3-0.3s0.1-0.3,0.3-0.3c0.2,0,0.3,0.1,0.3,0.3S4.9,12.9,4.8,12.9z M11.1,12.9c-0.2,0-0.3-0.1-0.3-0.3
			s0.1-0.3,0.3-0.3c0.2,0,0.3,0.1,0.3,0.3C11.4,12.8,11.3,12.9,11.1,12.9z M10.1,8.7c-0.4,0.3,1.1,1,1.1,1v1.8l-0.9,1.1H5.7l-1.2-1
			V8.8c0.3,0,0.9-0.6,0.6-0.9h0C4.8,7.4,4.6,6.8,4.6,6.1c0-0.4,0.2-0.8,0.2-1.2l0,0C5,4.6,4.6,4,4.7,3.8C4.8,3.5,5.4,3,5.7,3
			c0.2,0,0.3,0.1,0.4,0.2C6.7,2.9,7.3,2.7,8,2.7c1.9,0,3.4,1.5,3.4,3.4C11.4,7.1,10.9,8.1,10.1,8.7z"/>
		
			<linearGradient id="SVGID_3_" gradientUnits="userSpaceOnUse" x1="33" y1="-25" x2="41" y2="-25" gradientTransform="matrix(0.2667 0 0 -0.2667 0 4.2667)">
			<stop  offset="0" style="stop-color:#050505"/>
			<stop  offset="1" style="stop-color:#1E1E21"/>
		</linearGradient>
		<polygon class="st2" points="10.9,9.9 10.9,11.3 10.4,12 8.8,12 8.8,10.4 9.3,9.9 		"/>
		
			<linearGradient id="SVGID_4_" gradientUnits="userSpaceOnUse" x1="19.0161" y1="-24.3" x2="30.5396" y2="-24.3" gradientTransform="matrix(0.2667 0 0 -0.2667 0 4.2667)">
			<stop  offset="0" style="stop-color:#050505"/>
			<stop  offset="1" style="stop-color:#1E1E21"/>
		</linearGradient>
		<path class="st3" d="M5.6,9.2c-0.3,0-0.6,0.2-0.6,0.5s0,1.4,0,1.4l1.1,1.1h1.3c0,0,0.6-0.4,0.6-0.9S7.8,11,7.8,11s-0.9,0.7-1.5,0
			c-0.6-0.7-0.2-1.2-0.2-1.4S5.8,9.2,5.6,9.2z"/>
		
			<linearGradient id="SVGID_5_" gradientUnits="userSpaceOnUse" x1="19.0273" y1="-6.55" x2="41.1723" y2="-6.55" gradientTransform="matrix(0.2667 0 0 -0.2667 0 4.2667)">
			<stop  offset="0" style="stop-color:#050505"/>
			<stop  offset="1" style="stop-color:#1E1E21"/>
		</linearGradient>
		<path class="st4" d="M8,3.1c-1.6,0-3,1.3-3,3c0,1.3,0.8,2.4,2,2.8l1.4-1.4c0,0,0.4-0.3,0.6,0C9.4,7.7,9.3,8,9.3,8L8.7,8.9
			C10,8.6,11,7.4,11,6.1C11,4.4,9.7,3.1,8,3.1z M8,7.1C7.4,7.1,7,6.6,7,6.1S7.4,5,8,5c0.6,0,1.1,0.5,1.1,1.1S8.6,7.1,8,7.1z"/>
		
			<linearGradient id="SVGID_6_" gradientUnits="userSpaceOnUse" x1="24.5122" y1="-18.9389" x2="32.9877" y2="-18.9389" gradientTransform="matrix(0.2667 0 0 -0.2667 0 4.2667)">
			<stop  offset="0" style="stop-color:#050505"/>
			<stop  offset="1" style="stop-color:#1E1E21"/>
		</linearGradient>
		<path class="st5" d="M8.7,7.8c0.1,0.1,0,0.3,0,0.3l-1.3,2.6c0,0-0.4,0.3-0.8,0C6.3,10.3,6.6,10,6.6,10l1.9-2L8.7,7.8z"/>
		
			<linearGradient id="SVGID_7_" gradientUnits="userSpaceOnUse" x1="28.4774" y1="-6.7" x2="31.7226" y2="-6.7" gradientTransform="matrix(0.2667 0 0 -0.2667 0 4.2667)">
			<stop  offset="0" style="stop-color:#050505"/>
			<stop  offset="1" style="stop-color:#1E1E21"/>
		</linearGradient>
		<circle class="st6" cx="8" cy="6.1" r="0.4"/>
	</g>
</g>
</svg>
