<?xml version="1.0" encoding="utf-8"?>
<!-- Generator: Adobe Illustrator 18.1.0, SVG Export Plug-In . SVG Version: 6.00 Build 0)  -->
<svg version="1.1" id="图层_1" xmlns="http://www.w3.org/2000/svg" xmlns:xlink="http://www.w3.org/1999/xlink" x="0px" y="0px"
	 width="16px" height="16px" viewBox="0 0 16 16" style="enable-background:new 0 0 16 16;" xml:space="preserve">
<style type="text/css">
	.st0{fill:url(#SVGID_1_);}
	.st1{fill:url(#SVGID_2_);}
	.st2{fill:url(#SVGID_3_);}
	.st3{fill:url(#SVGID_4_);}
	.st4{fill:url(#SVGID_5_);}
	.st5{fill:url(#SVGID_6_);}
	.st6{fill:url(#SVGID_7_);}
	.st7{fill:url(#SVGID_8_);}
	.st8{fill:url(#SVGID_9_);}
	.st9{fill:url(#SVGID_10_);}
	.st10{fill:url(#SVGID_11_);}
	.st11{fill:url(#SVGID_12_);}
	.st12{fill:url(#SVGID_13_);}
	.st13{fill:url(#SVGID_14_);}
	.st14{fill:url(#SVGID_15_);}
	.st15{fill:url(#SVGID_16_);}
	.st16{fill:url(#SVGID_17_);}
	.st17{fill:url(#SVGID_18_);}
	.st18{fill:url(#SVGID_19_);}
	.st19{fill:url(#SVGID_20_);}
	.st20{fill:url(#SVGID_21_);}
	.st21{fill:url(#SVGID_22_);}
	.st22{fill:url(#SVGID_23_);}
	.st23{fill:url(#SVGID_24_);}
	.st24{fill:url(#SVGID_25_);}
	.st25{fill:url(#SVGID_26_);}
	.st26{fill:url(#SVGID_27_);}
	.st27{fill:url(#SVGID_28_);}
	.st28{fill:url(#SVGID_29_);}
	.st29{fill:url(#SVGID_30_);}
	.st30{fill:url(#SVGID_31_);}
	.st31{fill:url(#SVGID_32_);}
	.st32{fill:url(#SVGID_33_);}
	.st33{fill:url(#SVGID_34_);}
	.st34{fill:url(#SVGID_35_);}
	.st35{fill:url(#SVGID_36_);}
	.st36{fill:url(#SVGID_37_);}
	.st37{fill:url(#SVGID_38_);}
</style>
<g>
	
		<linearGradient id="SVGID_1_" gradientUnits="userSpaceOnUse" x1="0" y1="-14" x2="60" y2="-14" gradientTransform="matrix(0.2667 0 0 -0.2667 0 4.2667)">
		<stop  offset="0" style="stop-color:#B9BBBD"/>
		<stop  offset="3.208770e-002" style="stop-color:#B6B8BA"/>
		<stop  offset="5.619587e-002" style="stop-color:#ADAEB1"/>
		<stop  offset="8.827712e-002" style="stop-color:#9D9EA1"/>
		<stop  offset="0.1241" style="stop-color:#C1C1C2"/>
		<stop  offset="0.1924" style="stop-color:#F0F0F0"/>
		<stop  offset="0.2083" style="stop-color:#FBFBFB"/>
		<stop  offset="0.2247" style="stop-color:#FFFFFF"/>
		<stop  offset="0.3015" style="stop-color:#EEEEEF"/>
		<stop  offset="0.3853" style="stop-color:#E3E3E4"/>
		<stop  offset="0.4775" style="stop-color:#DFE0E1"/>
		<stop  offset="0.7191" style="stop-color:#FFFFFF"/>
		<stop  offset="0.779" style="stop-color:#FDFDFD"/>
		<stop  offset="0.8065" style="stop-color:#F6F5F5"/>
		<stop  offset="0.8258" style="stop-color:#EBEAEA"/>
		<stop  offset="0.927" style="stop-color:#797A7D"/>
		<stop  offset="1" style="stop-color:#BEC0C1"/>
	</linearGradient>
	<path class="st0" d="M13.5,16h-11C1.1,16,0,14.9,0,13.5v-11C0,1.1,1.1,0,2.5,0h11C14.9,0,16,1.1,16,2.5v11C16,14.9,14.9,16,13.5,16
		z"/>
	<g>
		<g>
			
				<linearGradient id="SVGID_2_" gradientUnits="userSpaceOnUse" x1="35.5932" y1="-12.8" x2="52.2074" y2="-12.8" gradientTransform="matrix(0.2667 0 0 -0.2667 0 4.2667)">
				<stop  offset="0" style="stop-color:#050505"/>
				<stop  offset="1" style="stop-color:#1E1E21"/>
			</linearGradient>
			<path class="st1" d="M11.7,7.8c0-0.1,0.1-0.2,0.1-0.2c0,0,0.1-0.1,0.1-0.1c0.6,0,1.3,0,1.9,0c0.1,0,0.1,0,0.1,0.1
				c0,0.2,0,0.2-0.2,0.2s-0.5,0-0.7,0c-0.1,0-0.1,0-0.1-0.1c0-0.1,0-0.1,0-0.1h0c0,0.1-0.1,0.1-0.1,0.2c0,0.1-0.1,0.1-0.2,0.1
				c-0.6,0-1.2,0-1.8,0c-0.1,0-0.1,0-0.1-0.1c0-0.1,0-0.1-0.1-0.1c0,0.1,0,0.1,0,0.2c0,0.1,0,0.1-0.1,0.1c-0.3,0-0.6,0-0.9,0
				c-0.1,0-0.1,0-0.1-0.1c0-0.3-0.1-0.3,0.2-0.3c0.6,0,1.1,0,1.7,0c0.1,0,0.2,0,0.2,0.1C11.7,7.7,11.7,7.8,11.7,7.8
				C11.7,7.8,11.7,7.8,11.7,7.8z"/>
			
				<linearGradient id="SVGID_3_" gradientUnits="userSpaceOnUse" x1="16.1452" y1="-7.3418" x2="31.4937" y2="-7.3418" gradientTransform="matrix(0.2667 0 0 -0.2667 0 4.2667)">
				<stop  offset="0" style="stop-color:#050505"/>
				<stop  offset="1" style="stop-color:#1E1E21"/>
			</linearGradient>
			<path class="st2" d="M8.4,6.4c-0.1,0-0.2,0-0.3,0c-1.2,0-2.4,0-3.7,0c-0.1,0-0.1,0-0.1-0.1c0-0.3,0-0.2,0.2-0.2
				c1.2,0,2.4,0,3.6,0c0.1,0,0.2,0,0.2,0.2C8.3,6.3,8.4,6.3,8.4,6.4z"/>
			
				<linearGradient id="SVGID_4_" gradientUnits="userSpaceOnUse" x1="16.1519" y1="-20.5418" x2="31.4374" y2="-20.5418" gradientTransform="matrix(0.2667 0 0 -0.2667 0 4.2667)">
				<stop  offset="0" style="stop-color:#050505"/>
				<stop  offset="1" style="stop-color:#1E1E21"/>
			</linearGradient>
			<path class="st3" d="M6.3,9.6c0.6,0,1.3,0,1.9,0c0.1,0,0.1,0,0.1,0.1C8.3,9.9,8.3,9.9,8.1,9.9c-1.2,0-2.4,0-3.7,0
				c-0.1,0-0.1,0-0.1-0.1c0-0.3,0-0.2,0.2-0.2C5.1,9.6,5.7,9.6,6.3,9.6z"/>
			
				<linearGradient id="SVGID_5_" gradientUnits="userSpaceOnUse" x1="16.1503" y1="-23.3429" x2="29.8819" y2="-23.3429" gradientTransform="matrix(0.2667 0 0 -0.2667 0 4.2667)">
				<stop  offset="0" style="stop-color:#050505"/>
				<stop  offset="1" style="stop-color:#1E1E21"/>
			</linearGradient>
			<path class="st4" d="M8,10.3c-0.2,0.2-0.5,0.3-0.7,0.3c-0.2,0-0.4,0-0.6,0c-0.7,0-1.5,0-2.2,0c-0.1,0-0.1,0-0.1-0.1
				c0-0.3,0-0.2,0.2-0.2c1.1,0,2.2,0,3.3,0C7.9,10.3,7.9,10.3,8,10.3z"/>
			
				<linearGradient id="SVGID_6_" gradientUnits="userSpaceOnUse" x1="16.1552" y1="-4.65" x2="29.7968" y2="-4.65" gradientTransform="matrix(0.2667 0 0 -0.2667 0 4.2667)">
				<stop  offset="0" style="stop-color:#050505"/>
				<stop  offset="1" style="stop-color:#1E1E21"/>
			</linearGradient>
			<path class="st5" d="M7.9,5.7c-0.1,0-0.2,0-0.3,0c-1.1,0-2.1,0-3.2,0c-0.1,0-0.1,0-0.1-0.1c0-0.2,0-0.2,0.2-0.2
				c0.8,0,1.6,0,2.5,0c0.3,0,0.5,0.1,0.8,0.2C7.8,5.6,7.9,5.6,7.9,5.7L7.9,5.7z"/>
			
				<linearGradient id="SVGID_7_" gradientUnits="userSpaceOnUse" x1="18.9201" y1="-15.3" x2="30.8002" y2="-15.3" gradientTransform="matrix(0.2667 0 0 -0.2667 0 4.2667)">
				<stop  offset="0" style="stop-color:#050505"/>
				<stop  offset="1" style="stop-color:#1E1E21"/>
			</linearGradient>
			<path class="st6" d="M8.2,8.5c-1,0-2.1,0-3.1,0C5.1,8.5,5,8.5,5,8.4c0-0.3,0-0.3,0.3-0.3c0.8,0,1.6,0,2.4,0c0.1,0,0.2,0,0.3,0.1
				C8.1,8.4,8.1,8.5,8.2,8.5z"/>
			
				<linearGradient id="SVGID_8_" gradientUnits="userSpaceOnUse" x1="18.9212" y1="-12.7278" x2="30.7787" y2="-12.7278" gradientTransform="matrix(0.2667 0 0 -0.2667 0 4.2667)">
				<stop  offset="0" style="stop-color:#050505"/>
				<stop  offset="1" style="stop-color:#1E1E21"/>
			</linearGradient>
			<path class="st7" d="M8.2,7.5C8.1,7.6,8,7.7,7.9,7.8c0,0-0.1,0-0.1,0c-0.9,0-1.8,0-2.7,0C5.1,7.8,5,7.8,5,7.7
				c0-0.2,0-0.2,0.2-0.2C6.2,7.5,7.2,7.5,8.2,7.5C8.2,7.5,8.2,7.5,8.2,7.5z"/>
			
				<linearGradient id="SVGID_9_" gradientUnits="userSpaceOnUse" x1="5" y1="-4.65" x2="14.7" y2="-4.65" gradientTransform="matrix(0.2667 0 0 -0.2667 0 4.2667)">
				<stop  offset="0" style="stop-color:#050505"/>
				<stop  offset="1" style="stop-color:#1E1E21"/>
			</linearGradient>
			<path class="st8" d="M2.6,5.3c0.4,0,0.8,0,1.2,0c0.1,0,0.1,0,0.1,0.1c0,0.2,0,0.2-0.2,0.2c-0.7,0-1.5,0-2.2,0
				c-0.1,0-0.1,0-0.1-0.1c0-0.2,0-0.2,0.2-0.2C1.9,5.3,2.3,5.3,2.6,5.3z"/>
			
				<linearGradient id="SVGID_10_" gradientUnits="userSpaceOnUse" x1="5.0018" y1="-20.65" x2="14.7059" y2="-20.65" gradientTransform="matrix(0.2667 0 0 -0.2667 0 4.2667)">
				<stop  offset="0" style="stop-color:#050505"/>
				<stop  offset="1" style="stop-color:#1E1E21"/>
			</linearGradient>
			<path class="st9" d="M2.6,9.6c0.4,0,0.8,0,1.2,0c0.1,0,0.1,0,0.1,0.1c0,0.2,0,0.2-0.2,0.2c-0.7,0-1.5,0-2.2,0
				c-0.1,0-0.1,0-0.1-0.1c0.1-0.2,0.1-0.2,0.3-0.2C1.9,9.6,2.3,9.6,2.6,9.6z"/>
			
				<linearGradient id="SVGID_11_" gradientUnits="userSpaceOnUse" x1="5" y1="-7.35" x2="14.7" y2="-7.35" gradientTransform="matrix(0.2667 0 0 -0.2667 0 4.2667)">
				<stop  offset="0" style="stop-color:#050505"/>
				<stop  offset="1" style="stop-color:#1E1E21"/>
			</linearGradient>
			<path class="st10" d="M2.6,6.4c-0.4,0-0.8,0-1.2,0c-0.1,0-0.1,0-0.1-0.1c0-0.2,0-0.2,0.2-0.2c0.7,0,1.5,0,2.2,0
				c0.1,0,0.1,0,0.1,0.1c0,0.2,0,0.2-0.2,0.2C3.3,6.4,3,6.4,2.6,6.4z"/>
			
				<linearGradient id="SVGID_12_" gradientUnits="userSpaceOnUse" x1="5" y1="-23.35" x2="14.7" y2="-23.35" gradientTransform="matrix(0.2667 0 0 -0.2667 0 4.2667)">
				<stop  offset="0" style="stop-color:#050505"/>
				<stop  offset="1" style="stop-color:#1E1E21"/>
			</linearGradient>
			<path class="st11" d="M2.6,10.3c0.4,0,0.8,0,1.1,0c0.1,0,0.1,0,0.1,0.1c0,0.2,0,0.2-0.2,0.2c-0.7,0-1.5,0-2.2,0
				c-0.1,0-0.1-0.1-0.1-0.1c0-0.2,0-0.2,0.2-0.2C1.9,10.3,2.3,10.3,2.6,10.3L2.6,10.3z"/>
			
				<linearGradient id="SVGID_13_" gradientUnits="userSpaceOnUse" x1="32.8313" y1="-7.35" x2="41.9995" y2="-7.35" gradientTransform="matrix(0.2667 0 0 -0.2667 0 4.2667)">
				<stop  offset="0" style="stop-color:#050505"/>
				<stop  offset="1" style="stop-color:#1E1E21"/>
			</linearGradient>
			<path class="st12" d="M11.2,6.4c-0.1,0-0.1,0-0.1,0c-0.7,0-1.5,0-2.2,0c-0.1,0-0.1,0-0.1-0.1c0-0.2,0-0.2,0.2-0.2
				c0.7,0,1.3,0,2,0c0.1,0,0.1,0,0.2,0.1C11.1,6.2,11.2,6.3,11.2,6.4z"/>
			
				<linearGradient id="SVGID_14_" gradientUnits="userSpaceOnUse" x1="45.8143" y1="-7.45" x2="55" y2="-7.45" gradientTransform="matrix(0.2667 0 0 -0.2667 0 4.2667)">
				<stop  offset="0" style="stop-color:#050505"/>
				<stop  offset="1" style="stop-color:#1E1E21"/>
			</linearGradient>
			<path class="st13" d="M12.2,6.4c0-0.1,0.1-0.2,0.1-0.3c0,0,0.1,0,0.1,0c0.7,0,1.4,0,2.2,0c0.1,0,0.1,0,0.1,0.1
				c0,0.3,0,0.3-0.2,0.3c-0.7,0-1.4,0-2,0C12.3,6.4,12.3,6.4,12.2,6.4z"/>
			
				<linearGradient id="SVGID_15_" gradientUnits="userSpaceOnUse" x1="32.8314" y1="-4.65" x2="41.0417" y2="-4.65" gradientTransform="matrix(0.2667 0 0 -0.2667 0 4.2667)">
				<stop  offset="0" style="stop-color:#050505"/>
				<stop  offset="1" style="stop-color:#1E1E21"/>
			</linearGradient>
			<path class="st14" d="M10.9,5.7C10.9,5.7,10.9,5.7,10.9,5.7c-0.7,0-1.4,0-2.1,0c-0.1,0-0.1,0-0.1-0.1c0-0.2,0-0.2,0.2-0.2
				c0.6,0,1.2,0,1.8,0c0.1,0,0.1,0,0.1,0.1C10.9,5.5,10.9,5.6,10.9,5.7z"/>
			
				<linearGradient id="SVGID_16_" gradientUnits="userSpaceOnUse" x1="46.8" y1="-4.65" x2="54.9816" y2="-4.65" gradientTransform="matrix(0.2667 0 0 -0.2667 0 4.2667)">
				<stop  offset="0" style="stop-color:#050505"/>
				<stop  offset="1" style="stop-color:#1E1E21"/>
			</linearGradient>
			<path class="st15" d="M12.5,5.7C12.5,5.7,12.5,5.7,12.5,5.7c0.1-0.3,0.1-0.3,0.4-0.3c0.6,0,1.1,0,1.7,0c0.1,0,0.1,0,0.1,0.1
				c0,0.2,0,0.2-0.2,0.2c-0.6,0-1.2,0-1.8,0C12.6,5.7,12.5,5.7,12.5,5.7z"/>
			
				<linearGradient id="SVGID_17_" gradientUnits="userSpaceOnUse" x1="35.5847" y1="-10.1" x2="42.9446" y2="-10.1" gradientTransform="matrix(0.2667 0 0 -0.2667 0 4.2667)">
				<stop  offset="0" style="stop-color:#050505"/>
				<stop  offset="1" style="stop-color:#1E1E21"/>
			</linearGradient>
			<path class="st16" d="M11.4,7.1c-0.1,0-0.1,0-0.1,0c-0.6,0-1.1,0-1.7,0c-0.1,0-0.1,0-0.1-0.1c0-0.1,0-0.1,0-0.2
				c0.1,0,0.1,0,0.1,0c0.5,0,1.1,0,1.6,0c0.1,0,0.1,0,0.1,0.1C11.4,6.9,11.4,7,11.4,7.1z"/>
			
				<linearGradient id="SVGID_18_" gradientUnits="userSpaceOnUse" x1="44.8691" y1="-10.05" x2="52.217" y2="-10.05" gradientTransform="matrix(0.2667 0 0 -0.2667 0 4.2667)">
				<stop  offset="0" style="stop-color:#050505"/>
				<stop  offset="1" style="stop-color:#1E1E21"/>
			</linearGradient>
			<path class="st17" d="M12,7.1C12,7,12,6.9,12.1,6.8c0,0,0.1-0.1,0.1-0.1c0.6,0,1.1,0,1.7,0c0.1,0,0.1,0,0.1,0.1
				c0,0.3,0,0.3-0.2,0.3c-0.5,0-1.1,0-1.6,0C12.1,7.1,12,7.1,12,7.1z"/>
			
				<linearGradient id="SVGID_19_" gradientUnits="userSpaceOnUse" x1="32.8339" y1="-20.65" x2="39.7101" y2="-20.65" gradientTransform="matrix(0.2667 0 0 -0.2667 0 4.2667)">
				<stop  offset="0" style="stop-color:#050505"/>
				<stop  offset="1" style="stop-color:#1E1E21"/>
			</linearGradient>
			<path class="st18" d="M9.7,9.9c-0.3,0-0.5,0-0.8,0c-0.1,0-0.1,0-0.1-0.1c0-0.2,0-0.2,0.2-0.2c0.5,0,1,0,1.5,0
				c0.1,0,0.1,0,0.1,0.1c0,0.2,0,0.2-0.2,0.2C10.1,9.9,9.9,9.9,9.7,9.9z"/>
			
				<linearGradient id="SVGID_20_" gradientUnits="userSpaceOnUse" x1="32.834" y1="-23.35" x2="39.6988" y2="-23.35" gradientTransform="matrix(0.2667 0 0 -0.2667 0 4.2667)">
				<stop  offset="0" style="stop-color:#050505"/>
				<stop  offset="1" style="stop-color:#1E1E21"/>
			</linearGradient>
			<path class="st19" d="M9.7,10.7c-0.3,0-0.5,0-0.8,0c-0.1,0-0.1,0-0.1-0.1c0-0.2,0-0.2,0.2-0.2c0.5,0,1,0,1.5,0
				c0.1,0,0.1,0,0.1,0.1c0,0.2,0,0.2-0.2,0.2C10.2,10.7,9.9,10.7,9.7,10.7z"/>
			
				<linearGradient id="SVGID_21_" gradientUnits="userSpaceOnUse" x1="48.0898" y1="-23.35" x2="54.9825" y2="-23.35" gradientTransform="matrix(0.2667 0 0 -0.2667 0 4.2667)">
				<stop  offset="0" style="stop-color:#050505"/>
				<stop  offset="1" style="stop-color:#1E1E21"/>
			</linearGradient>
			<path class="st20" d="M13.7,10.7c-0.3,0-0.5,0-0.8,0c-0.1,0-0.1,0-0.1-0.1c0-0.2,0-0.2,0.2-0.2c0.5,0,1,0,1.5,0
				c0.1,0,0.1,0,0.1,0.1c0,0.2,0,0.2-0.2,0.2C14.2,10.7,14,10.7,13.7,10.7L13.7,10.7z"/>
			
				<linearGradient id="SVGID_22_" gradientUnits="userSpaceOnUse" x1="48.0925" y1="-20.65" x2="54.978" y2="-20.65" gradientTransform="matrix(0.2667 0 0 -0.2667 0 4.2667)">
				<stop  offset="0" style="stop-color:#050505"/>
				<stop  offset="1" style="stop-color:#1E1E21"/>
			</linearGradient>
			<path class="st21" d="M13.7,9.9c-0.3,0-0.5,0-0.8,0c-0.1,0-0.1,0-0.1-0.1c0-0.2,0-0.2,0.2-0.2c0.5,0,1,0,1.5,0
				c0.1,0,0.1,0,0.1,0.1c0,0.2,0,0.2-0.2,0.2C14.2,9.9,14,9.9,13.7,9.9z"/>
			
				<linearGradient id="SVGID_23_" gradientUnits="userSpaceOnUse" x1="40.6385" y1="-15.3" x2="47.1448" y2="-15.3" gradientTransform="matrix(0.2667 0 0 -0.2667 0 4.2667)">
				<stop  offset="0" style="stop-color:#050505"/>
				<stop  offset="1" style="stop-color:#1E1E21"/>
			</linearGradient>
			<path class="st22" d="M12.6,8.2L12.6,8.2c-0.1,0.3-0.1,0.3-0.4,0.3s-0.7,0-1.1,0c-0.1,0-0.1,0-0.1-0.1c0-0.1-0.1-0.2-0.1-0.3
				C11.4,8.2,12,8.2,12.6,8.2z"/>
			
				<linearGradient id="SVGID_24_" gradientUnits="userSpaceOnUse" x1="35.5806" y1="-15.4" x2="39.7085" y2="-15.4" gradientTransform="matrix(0.2667 0 0 -0.2667 0 4.2667)">
				<stop  offset="0" style="stop-color:#050505"/>
				<stop  offset="1" style="stop-color:#1E1E21"/>
			</linearGradient>
			<path class="st23" d="M10,8.5c-0.2,0-0.3,0-0.5,0c-0.1,0-0.1,0-0.1-0.1c0-0.3,0-0.3,0.3-0.3c0.2,0,0.5,0,0.7,0
				c0.1,0,0.1,0,0.1,0.1c0,0.3,0,0.3-0.3,0.3C10.2,8.5,10.1,8.5,10,8.5L10,8.5z"/>
			
				<linearGradient id="SVGID_25_" gradientUnits="userSpaceOnUse" x1="48.0909" y1="-15.4" x2="52.2114" y2="-15.4" gradientTransform="matrix(0.2667 0 0 -0.2667 0 4.2667)">
				<stop  offset="0" style="stop-color:#050505"/>
				<stop  offset="1" style="stop-color:#1E1E21"/>
			</linearGradient>
			<path class="st24" d="M13.4,8.2c0.1,0,0.3,0,0.4,0c0.1,0,0.1,0,0.1,0.1c0,0.3,0,0.3-0.3,0.3c-0.2,0-0.5,0-0.7,0
				c-0.1,0-0.1,0-0.1-0.1c0-0.3,0-0.3,0.2-0.3C13.2,8.2,13.3,8.2,13.4,8.2z"/>
			
				<linearGradient id="SVGID_26_" gradientUnits="userSpaceOnUse" x1="27.2537" y1="-18" x2="31.6371" y2="-18" gradientTransform="matrix(0.2667 0 0 -0.2667 0 4.2667)">
				<stop  offset="0" style="stop-color:#050505"/>
				<stop  offset="1" style="stop-color:#1E1E21"/>
			</linearGradient>
			<path class="st25" d="M7.3,8.9c0.1,0,0.2,0,0.3,0c0.3,0,0.5,0,0.8,0c0.1,0,0.1,0,0.1,0.1c0,0,0,0,0,0c0.1,0.2,0.1,0.3-0.2,0.3
				c-0.3,0-0.6,0-0.8,0c-0.1,0-0.1,0-0.1-0.1C7.3,9,7.3,9,7.3,8.9z"/>
			
				<linearGradient id="SVGID_27_" gradientUnits="userSpaceOnUse" x1="27.2339" y1="-10.05" x2="31.6523" y2="-10.05" gradientTransform="matrix(0.2667 0 0 -0.2667 0 4.2667)">
				<stop  offset="0" style="stop-color:#050505"/>
				<stop  offset="1" style="stop-color:#1E1E21"/>
			</linearGradient>
			<path class="st26" d="M8.5,6.8c0,0.1,0,0.2-0.1,0.3c0,0-0.1,0.1-0.1,0.1c-0.3,0-0.6,0-1,0c-0.1,0-0.1,0-0.1-0.1
				c0-0.3,0-0.3,0.2-0.3c0.3,0,0.5,0,0.8,0C8.3,6.8,8.4,6.8,8.5,6.8z"/>
			
				<linearGradient id="SVGID_28_" gradientUnits="userSpaceOnUse" x1="7.782" y1="-15.3" x2="11.8736" y2="-15.3" gradientTransform="matrix(0.2667 0 0 -0.2667 0 4.2667)">
				<stop  offset="0" style="stop-color:#050505"/>
				<stop  offset="1" style="stop-color:#1E1E21"/>
			</linearGradient>
			<path class="st27" d="M3.2,8.2c0,0.1,0,0.2,0,0.3c0,0-0.1,0.1-0.1,0.1c-0.3,0-0.6,0-0.9,0c-0.1,0-0.1,0-0.1-0.1
				c0-0.3,0-0.3,0.3-0.3C2.6,8.2,2.9,8.2,3.2,8.2z"/>
			
				<linearGradient id="SVGID_29_" gradientUnits="userSpaceOnUse" x1="41.5649" y1="-18.05" x2="46.248" y2="-18.05" gradientTransform="matrix(0.2667 0 0 -0.2667 0 4.2667)">
				<stop  offset="0" style="stop-color:#050505"/>
				<stop  offset="1" style="stop-color:#1E1E21"/>
			</linearGradient>
			<path class="st28" d="M12.3,8.9c0,0.1-0.1,0.2-0.1,0.3c0,0-0.1,0.1-0.1,0.1c-0.3,0-0.6,0-0.9,0c0,0-0.1,0-0.1-0.1
				c0-0.1-0.1-0.2-0.1-0.3C11.5,8.9,11.9,8.9,12.3,8.9z"/>
			
				<linearGradient id="SVGID_30_" gradientUnits="userSpaceOnUse" x1="18.9203" y1="-10.0562" x2="23.0345" y2="-10.0562" gradientTransform="matrix(0.2667 0 0 -0.2667 0 4.2667)">
				<stop  offset="0" style="stop-color:#050505"/>
				<stop  offset="1" style="stop-color:#1E1E21"/>
			</linearGradient>
			<path class="st29" d="M5,6.8c0.1,0,0.2,0,0.3,0c0.2,0,0.5,0,0.7,0c0.1,0,0.1,0,0.1,0.1c0,0.3,0.1,0.3-0.2,0.3c-0.2,0-0.5,0-0.7,0
				C5.1,7.1,5,7.1,5,7C5,6.9,5,6.9,5,6.8z"/>
			
				<linearGradient id="SVGID_31_" gradientUnits="userSpaceOnUse" x1="18.9218" y1="-17.8571" x2="23.036" y2="-17.8571" gradientTransform="matrix(0.2667 0 0 -0.2667 0 4.2667)">
				<stop  offset="0" style="stop-color:#050505"/>
				<stop  offset="1" style="stop-color:#1E1E21"/>
			</linearGradient>
			<path class="st30" d="M5.6,8.9c0.2,0,0.3,0,0.5,0c0.1,0,0.1,0,0.1,0.1c0,0.3,0.1,0.2-0.2,0.2c-0.2,0-0.5,0-0.7,0
				c-0.1,0-0.1,0-0.1-0.1c0-0.2,0-0.2,0.2-0.2C5.4,8.9,5.5,8.9,5.6,8.9z"/>
			
				<linearGradient id="SVGID_32_" gradientUnits="userSpaceOnUse" x1="35.589" y1="-17.9562" x2="39.7032" y2="-17.9562" gradientTransform="matrix(0.2667 0 0 -0.2667 0 4.2667)">
				<stop  offset="0" style="stop-color:#050505"/>
				<stop  offset="1" style="stop-color:#1E1E21"/>
			</linearGradient>
			<path class="st31" d="M10,8.9c0.2,0,0.3,0,0.5,0c0.1,0,0.1,0,0.1,0.1c0,0.3,0.1,0.3-0.2,0.3c-0.2,0-0.5,0-0.7,0
				c-0.1,0-0.1,0-0.1-0.1c0-0.2,0-0.2,0.2-0.2C9.8,8.9,9.9,8.9,10,8.9L10,8.9z"/>
			
				<linearGradient id="SVGID_33_" gradientUnits="userSpaceOnUse" x1="48.0917" y1="-17.9571" x2="52.2059" y2="-17.9571" gradientTransform="matrix(0.2667 0 0 -0.2667 0 4.2667)">
				<stop  offset="0" style="stop-color:#050505"/>
				<stop  offset="1" style="stop-color:#1E1E21"/>
			</linearGradient>
			<path class="st32" d="M13.4,8.9c0.2,0,0.3,0,0.5,0c0.1,0,0.1,0,0.1,0.1c0,0.3,0.1,0.2-0.2,0.2c-0.2,0-0.5,0-0.7,0
				c-0.1,0-0.1,0-0.1-0.1c0-0.2,0-0.2,0.2-0.2C13.2,8.9,13.3,8.9,13.4,8.9z"/>
			
				<linearGradient id="SVGID_34_" gradientUnits="userSpaceOnUse" x1="7.8193" y1="-10.1333" x2="11.8789" y2="-10.1333" gradientTransform="matrix(0.2667 0 0 -0.2667 0 4.2667)">
				<stop  offset="0" style="stop-color:#050505"/>
				<stop  offset="1" style="stop-color:#1E1E21"/>
			</linearGradient>
			<path class="st33" d="M2.6,7.1c-0.2,0-0.3,0-0.5,0c-0.1,0-0.1,0-0.1-0.1c0-0.3,0-0.2,0.2-0.2c0.2,0,0.5,0,0.7,0
				c0.1,0,0.1,0,0.1,0.1c0,0.2,0,0.2-0.2,0.2C2.8,7.1,2.7,7.1,2.6,7.1z"/>
			
				<linearGradient id="SVGID_35_" gradientUnits="userSpaceOnUse" x1="7.811" y1="-17.9571" x2="11.874" y2="-17.9571" gradientTransform="matrix(0.2667 0 0 -0.2667 0 4.2667)">
				<stop  offset="0" style="stop-color:#050505"/>
				<stop  offset="1" style="stop-color:#1E1E21"/>
			</linearGradient>
			<path class="st34" d="M2.6,8.9c0.1,0,0.3,0,0.4,0c0.1,0,0.1,0,0.1,0.1c0,0.3,0.1,0.2-0.2,0.2c-0.2,0-0.5,0-0.7,0
				c-0.1,0-0.1,0-0.1-0.1c0-0.2,0-0.2,0.2-0.2C2.4,8.9,2.5,8.9,2.6,8.9L2.6,8.9z"/>
			
				<linearGradient id="SVGID_36_" gradientUnits="userSpaceOnUse" x1="7.7697" y1="-12.65" x2="11.88" y2="-12.65" gradientTransform="matrix(0.2667 0 0 -0.2667 0 4.2667)">
				<stop  offset="0" style="stop-color:#050505"/>
				<stop  offset="1" style="stop-color:#1E1E21"/>
			</linearGradient>
			<path class="st35" d="M3.2,7.8c-0.4,0-0.7,0-1.1,0C2,7.5,2.1,7.5,2.4,7.5c0.2,0,0.5,0,0.7,0c0.1,0,0.1,0,0.1,0.1
				C3.2,7.7,3.2,7.7,3.2,7.8z"/>
			
				<linearGradient id="SVGID_37_" gradientUnits="userSpaceOnUse" x1="42.5" y1="-20.65" x2="45.3132" y2="-20.65" gradientTransform="matrix(0.2667 0 0 -0.2667 0 4.2667)">
				<stop  offset="0" style="stop-color:#050505"/>
				<stop  offset="1" style="stop-color:#1E1E21"/>
			</linearGradient>
			<path class="st36" d="M11.3,9.6c0.2,0,0.5,0,0.7,0c0,0.1-0.1,0.2-0.1,0.3c0,0-0.1,0.1-0.1,0.1c-0.1,0-0.2,0-0.4,0
				c0,0-0.1,0-0.1-0.1C11.4,9.8,11.4,9.7,11.3,9.6z"/>
			
				<linearGradient id="SVGID_38_" gradientUnits="userSpaceOnUse" x1="43.4383" y1="-23.3" x2="44.3826" y2="-23.3" gradientTransform="matrix(0.2667 0 0 -0.2667 0 4.2667)">
				<stop  offset="0" style="stop-color:#050505"/>
				<stop  offset="1" style="stop-color:#1E1E21"/>
			</linearGradient>
			<path class="st37" d="M11.7,10.6c0-0.1-0.1-0.2-0.1-0.3c0.1,0,0.2,0,0.2,0C11.8,10.4,11.8,10.5,11.7,10.6L11.7,10.6z"/>
		</g>
	</g>
</g>
</svg>
