<?xml version="1.0" encoding="utf-8"?>
<!-- Generator: Adobe Illustrator 16.0.0, SVG Export Plug-In . SVG Version: 6.00 Build 0)  -->
<!DOCTYPE svg PUBLIC "-//W3C//DTD SVG 1.1//EN" "http://www.w3.org/Graphics/SVG/1.1/DTD/svg11.dtd">
<svg version="1.1" id="图层_1" xmlns="http://www.w3.org/2000/svg" xmlns:xlink="http://www.w3.org/1999/xlink" x="0px" y="0px"
	 width="60px" height="60px" viewBox="0 0 60 60" style="enable-background:new 0 0 60 60;" xml:space="preserve">
<style type="text/css">
<![CDATA[
	.st0{fill:url(#SVGID_1_);}
	.st1{fill:url(#SVGID_2_);}
	.st2{fill:url(#SVGID_3_);}
	.st3{fill:url(#SVGID_4_);}
	.st4{fill:url(#SVGID_5_);}
	.st5{fill:url(#SVGID_6_);}
	.st6{fill:url(#SVGID_7_);}
	.st7{fill:url(#SVGID_8_);}
	.st8{fill:url(#SVGID_9_);}
	.st9{fill:url(#SVGID_10_);}
	.st10{fill:url(#SVGID_11_);}
	.st11{fill:url(#SVGID_12_);}
	.st12{fill:url(#SVGID_13_);}
	.st13{fill:url(#SVGID_14_);}
	.st14{fill:url(#SVGID_15_);}
	.st15{fill:url(#SVGID_16_);}
	.st16{fill:url(#SVGID_17_);}
	.st17{fill:url(#SVGID_18_);}
	.st18{fill:url(#SVGID_19_);}
	.st19{fill:url(#SVGID_20_);}
	.st20{fill:url(#SVGID_21_);}
	.st21{fill:url(#SVGID_22_);}
	.st22{fill:url(#SVGID_23_);}
	.st23{fill:url(#SVGID_24_);}
	.st24{fill:url(#SVGID_25_);}
	.st25{fill:url(#SVGID_26_);}
	.st26{fill:url(#SVGID_27_);}
	.st27{fill:url(#SVGID_28_);}
	.st28{fill:url(#SVGID_29_);}
	.st29{fill:url(#SVGID_30_);}
	.st30{fill:url(#SVGID_31_);}
	.st31{fill:url(#SVGID_32_);}
	.st32{fill:url(#SVGID_33_);}
	.st33{fill:url(#SVGID_34_);}
	.st34{fill:url(#SVGID_35_);}
	.st35{fill:url(#SVGID_36_);}
	.st36{fill:url(#SVGID_37_);}
	.st37{fill:url(#SVGID_38_);}
	.st38{fill:url(#SVGID_39_);}
	.st39{fill:url(#SVGID_40_);}
	.st40{fill:url(#SVGID_41_);}
	.st41{fill:url(#SVGID_42_);}
	.st42{fill:url(#SVGID_43_);}
	.st43{fill:url(#SVGID_44_);}
	.st44{fill:url(#SVGID_45_);}
	.st45{fill:url(#SVGID_46_);}
	.st46{fill:url(#SVGID_47_);}
	.st47{fill:url(#SVGID_48_);}
	.st48{fill:url(#SVGID_49_);}
	.st49{fill:url(#SVGID_50_);}
	.st50{fill:url(#SVGID_51_);}
	.st51{fill:url(#SVGID_52_);}
	.st52{fill:url(#SVGID_53_);}
	.st53{fill:url(#SVGID_54_);}
	.st54{fill:url(#SVGID_55_);}
	.st55{fill:url(#SVGID_56_);}
	.st56{fill:url(#SVGID_57_);}
	.st57{fill:url(#SVGID_58_);}
	.st58{fill:url(#SVGID_59_);}
	.st59{fill:url(#SVGID_60_);}
	.st60{fill:url(#SVGID_61_);}
	.st61{fill:url(#SVGID_62_);}
	.st62{fill:url(#SVGID_63_);}
	.st63{fill:url(#SVGID_64_);}
	.st64{fill:url(#SVGID_65_);}
	.st65{fill:url(#SVGID_66_);}
	.st66{fill:url(#SVGID_67_);}
	.st67{fill:url(#SVGID_68_);}
	.st68{fill:url(#SVGID_69_);}
	.st69{fill:#FFFFFF;fill-opacity:0;}
]]>
</style>
<rect class="st69" width="60" height="60"/>
<g>
	<g>
		<linearGradient id="SVGID_1_" gradientUnits="userSpaceOnUse" x1="30.106" y1="4.980469e-002" x2="30.106" y2="27.9234">
			<stop  offset="0" style="stop-color:#D7D2D0"/>
			<stop  offset="2.481570e-002" style="stop-color:#FFFFFF"/>
			<stop  offset="0.2645" style="stop-color:#E5E2E0"/>
			<stop  offset="0.4606" style="stop-color:#CDC7C4"/>
			<stop  offset="0.9668" style="stop-color:#FFFFFF"/>
			<stop  offset="1" style="stop-color:#D7D2D0"/>
		</linearGradient>
		<path class="st0" d="M48,27.7l0-26.2C48,0.7,47.3,0,46.4,0H13.7c-0.9,0-1.5,0.7-1.5,1.5l0,26.2H48z"/>
		<linearGradient id="SVGID_2_" gradientUnits="userSpaceOnUse" x1="30.106" y1="1.5869" x2="30.106" y2="23.9359">
			<stop  offset="0" style="stop-color:#6C6E71"/>
			<stop  offset="1.212120e-002" style="stop-color:#6C6E71"/>
			<stop  offset="5.444521e-002" style="stop-color:#B4B6B8"/>
			<stop  offset="7.984300e-002" style="stop-color:#E2E3E4"/>
			<stop  offset="0.1726" style="stop-color:#B9BCBF"/>
			<stop  offset="0.3324" style="stop-color:#F5F5F5"/>
			<stop  offset="0.3453" style="stop-color:#FAFAFA"/>
			<stop  offset="0.4316" style="stop-color:#FAFAFA"/>
			<stop  offset="0.8133" style="stop-color:#6C6E71"/>
			<stop  offset="0.9084" style="stop-color:#999B9E"/>
			<stop  offset="1" style="stop-color:#C8CBCD"/>
		</linearGradient>
		<rect x="13.8" y="1.5" class="st1" width="32.7" height="22.2"/>
		<linearGradient id="SVGID_3_" gradientUnits="userSpaceOnUse" x1="30.106" y1="2.0122" x2="30.106" y2="25.1742">
			<stop  offset="0" style="stop-color:#AACFEE"/>
			<stop  offset="4.632051e-002" style="stop-color:#98C7EB"/>
			<stop  offset="9.696970e-002" style="stop-color:#80BBE6"/>
			<stop  offset="0.4306" style="stop-color:#1275BD"/>
			<stop  offset="0.4848" style="stop-color:#0069B6"/>
			<stop  offset="0.9007" style="stop-color:#0095DB"/>
			<stop  offset="1" style="stop-color:#AACFEE"/>
		</linearGradient>
		<rect x="14" y="1.8" class="st2" width="32.1" height="21.7"/>
		<linearGradient id="SVGID_4_" gradientUnits="userSpaceOnUse" x1="28.9297" y1="25.4238" x2="31.2497" y2="25.4238">
			<stop  offset="0" style="stop-color:#6C6E71"/>
			<stop  offset="1.212120e-002" style="stop-color:#6C6E71"/>
			<stop  offset="5.444521e-002" style="stop-color:#B4B6B8"/>
			<stop  offset="7.984300e-002" style="stop-color:#E2E3E4"/>
			<stop  offset="0.1726" style="stop-color:#B9BCBF"/>
			<stop  offset="0.3324" style="stop-color:#F5F5F5"/>
			<stop  offset="0.3453" style="stop-color:#FAFAFA"/>
			<stop  offset="0.4316" style="stop-color:#FAFAFA"/>
			<stop  offset="0.8133" style="stop-color:#6C6E71"/>
			<stop  offset="0.9084" style="stop-color:#999B9E"/>
			<stop  offset="1" style="stop-color:#C8CBCD"/>
		</linearGradient>
		<circle class="st3" cx="30.1" cy="25.4" r="1.1"/>
		<linearGradient id="SVGID_5_" gradientUnits="userSpaceOnUse" x1="29.0635" y1="25.4238" x2="31.1197" y2="25.4238">
			<stop  offset="0" style="stop-color:#C2C3C3"/>
			<stop  offset="0.1818" style="stop-color:#E7E7E8"/>
			<stop  offset="0.4424" style="stop-color:#F4F4F4"/>
			<stop  offset="0.6424" style="stop-color:#FDFDFD"/>
			<stop  offset="0.8291" style="stop-color:#FFFFFF"/>
			<stop  offset="0.9546" style="stop-color:#E2DDD9"/>
			<stop  offset="1" style="stop-color:#D7CFCA"/>
		</linearGradient>
		<circle class="st4" cx="30.1" cy="25.4" r="1"/>
		<linearGradient id="SVGID_6_" gradientUnits="userSpaceOnUse" x1="29.4663" y1="25.4238" x2="30.7284" y2="25.4238">
			<stop  offset="0" style="stop-color:#AACFEE"/>
			<stop  offset="4.632051e-002" style="stop-color:#98C7EB"/>
			<stop  offset="9.696970e-002" style="stop-color:#80BBE6"/>
			<stop  offset="0.4306" style="stop-color:#1275BD"/>
			<stop  offset="0.4848" style="stop-color:#0069B6"/>
			<stop  offset="0.9007" style="stop-color:#0095DB"/>
			<stop  offset="1" style="stop-color:#AACFEE"/>
		</linearGradient>
		<circle class="st5" cx="30.1" cy="25.4" r="0.6"/>
		<g>
			<linearGradient id="SVGID_7_" gradientUnits="userSpaceOnUse" x1="30.1055" y1="28.5864" x2="30.1055" y2="33.9493">
				<stop  offset="0" style="stop-color:#C9C5C1"/>
				<stop  offset="6.506420e-002" style="stop-color:#DEDBDA"/>
				<stop  offset="0.3455" style="stop-color:#C6C2BF"/>
				<stop  offset="0.5152" style="stop-color:#B7B1AE"/>
				<stop  offset="0.6677" style="stop-color:#C5C0BD"/>
				<stop  offset="0.9333" style="stop-color:#DEDBDA"/>
				<stop  offset="1" style="stop-color:#C9C5C1"/>
			</linearGradient>
			<path class="st6" d="M50.6,33.4c0,0.3-0.3,0.6-0.6,0.6H10.2c-0.3,0-0.6-0.3-0.6-0.6v-4.3c0-0.3,0.3-0.6,0.6-0.6H50
				c0.3,0,0.6,0.3,0.6,0.6V33.4z"/>
			<linearGradient id="SVGID_8_" gradientUnits="userSpaceOnUse" x1="41.3848" y1="29.5938" x2="41.3848" y2="32.9899">
				<stop  offset="0" style="stop-color:#C2C3C3"/>
				<stop  offset="0.1818" style="stop-color:#E7E7E8"/>
				<stop  offset="0.4424" style="stop-color:#F4F4F4"/>
				<stop  offset="0.6424" style="stop-color:#FDFDFD"/>
				<stop  offset="0.8291" style="stop-color:#FFFFFF"/>
				<stop  offset="0.9546" style="stop-color:#E2DDD9"/>
				<stop  offset="1" style="stop-color:#D7CFCA"/>
			</linearGradient>
			<path class="st7" d="M35.6,33c-0.4,0-0.7-0.3-0.7-0.7v-2c0-0.4,0.3-0.7,0.7-0.7h11.5c0.4,0,0.7,0.3,0.7,0.7v2
				c0,0.4-0.3,0.7-0.7,0.7H35.6z"/>
			<linearGradient id="SVGID_9_" gradientUnits="userSpaceOnUse" x1="41.3848" y1="29.7847" x2="41.3848" y2="32.794">
				<stop  offset="5.618000e-003" style="stop-color:#615550"/>
				<stop  offset="0.889" style="stop-color:#302623"/>
				<stop  offset="1" style="stop-color:#000000"/>
			</linearGradient>
			<path class="st8" d="M47.7,32.3c0,0.3-0.2,0.5-0.5,0.5H35.6c-0.3,0-0.5-0.2-0.5-0.5v-2c0-0.3,0.2-0.5,0.5-0.5h11.5
				c0.3,0,0.5,0.2,0.5,0.5V32.3z"/>
			<linearGradient id="SVGID_10_" gradientUnits="userSpaceOnUse" x1="14.8101" y1="31.7041" x2="11.2662" y2="33.8684">
				<stop  offset="0" style="stop-color:#C2C3C3"/>
				<stop  offset="0.1818" style="stop-color:#E7E7E8"/>
				<stop  offset="0.4424" style="stop-color:#F4F4F4"/>
				<stop  offset="0.6424" style="stop-color:#FDFDFD"/>
				<stop  offset="0.8291" style="stop-color:#FFFFFF"/>
				<stop  offset="0.9546" style="stop-color:#E2DDD9"/>
				<stop  offset="1" style="stop-color:#D7CFCA"/>
			</linearGradient>
			<path class="st9" d="M11.9,33c-0.1,0-0.2-0.1-0.2-0.2v-0.5c0-0.1,0.1-0.2,0.2-0.2H15c0.1,0,0.2,0.1,0.2,0.2v0.5
				c0,0.1-0.1,0.2-0.2,0.2H11.9z"/>
			<linearGradient id="SVGID_11_" gradientUnits="userSpaceOnUse" x1="13.4634" y1="32.1279" x2="13.4634" y2="32.9352">
				<stop  offset="5.618000e-003" style="stop-color:#615550"/>
				<stop  offset="0.889" style="stop-color:#302623"/>
				<stop  offset="1" style="stop-color:#000000"/>
			</linearGradient>
			<path class="st10" d="M15.1,32.8c0,0.1-0.1,0.1-0.1,0.1h-3.1c-0.1,0-0.1-0.1-0.1-0.1v-0.5c0-0.1,0.1-0.1,0.1-0.1H15
				c0.1,0,0.1,0.1,0.1,0.1V32.8z"/>
			<linearGradient id="SVGID_12_" gradientUnits="userSpaceOnUse" x1="18.8823" y1="31.7041" x2="15.3389" y2="33.8681">
				<stop  offset="0" style="stop-color:#C2C3C3"/>
				<stop  offset="0.1818" style="stop-color:#E7E7E8"/>
				<stop  offset="0.4424" style="stop-color:#F4F4F4"/>
				<stop  offset="0.6424" style="stop-color:#FDFDFD"/>
				<stop  offset="0.8291" style="stop-color:#FFFFFF"/>
				<stop  offset="0.9546" style="stop-color:#E2DDD9"/>
				<stop  offset="1" style="stop-color:#D7CFCA"/>
			</linearGradient>
			<path class="st11" d="M16,33c-0.1,0-0.2-0.1-0.2-0.2v-0.5c0-0.1,0.1-0.2,0.2-0.2h3.1c0.1,0,0.2,0.1,0.2,0.2v0.5
				c0,0.1-0.1,0.2-0.2,0.2H16z"/>
			<linearGradient id="SVGID_13_" gradientUnits="userSpaceOnUse" x1="17.5361" y1="32.1279" x2="17.5361" y2="32.9352">
				<stop  offset="5.618000e-003" style="stop-color:#615550"/>
				<stop  offset="0.889" style="stop-color:#302623"/>
				<stop  offset="1" style="stop-color:#000000"/>
			</linearGradient>
			<path class="st12" d="M19.2,32.8c0,0.1-0.1,0.1-0.1,0.1H16c-0.1,0-0.1-0.1-0.1-0.1v-0.5c0-0.1,0.1-0.1,0.1-0.1h3.1
				c0.1,0,0.1,0.1,0.1,0.1V32.8z"/>
		</g>
		<linearGradient id="SVGID_14_" gradientUnits="userSpaceOnUse" x1="23.8179" y1="28.123" x2="37.4765" y2="28.123">
			<stop  offset="0" style="stop-color:#C2C3C3"/>
			<stop  offset="0.1818" style="stop-color:#E7E7E8"/>
			<stop  offset="0.4424" style="stop-color:#F4F4F4"/>
			<stop  offset="0.6424" style="stop-color:#FDFDFD"/>
			<stop  offset="0.8291" style="stop-color:#FFFFFF"/>
			<stop  offset="0.9546" style="stop-color:#E2DDD9"/>
			<stop  offset="1" style="stop-color:#D7CFCA"/>
		</linearGradient>
		<rect x="23.8" y="27.7" class="st13" width="13.8" height="0.8"/>
	</g>
	<g>
		
			<linearGradient id="SVGID_15_" gradientUnits="userSpaceOnUse" x1="77.1914" y1="-268.6255" x2="77.1914" y2="-265.6542" gradientTransform="matrix(0 1 1 0 317.5444 -33.1797)">
			<stop  offset="0" style="stop-color:#D7D2D0"/>
			<stop  offset="2.481570e-002" style="stop-color:#FFFFFF"/>
			<stop  offset="0.2645" style="stop-color:#E5E2E0"/>
			<stop  offset="0.4606" style="stop-color:#CDC7C4"/>
			<stop  offset="0.9668" style="stop-color:#FFFFFF"/>
			<stop  offset="1" style="stop-color:#D7D2D0"/>
		</linearGradient>
		<rect x="48.9" y="39.4" class="st14" width="3" height="9.1"/>
		
			<linearGradient id="SVGID_16_" gradientUnits="userSpaceOnUse" x1="74.5332" y1="-358.9048" x2="74.5332" y2="-355.9335" gradientTransform="matrix(0 1 -1 0 -328.3066 -33.1797)">
			<stop  offset="0" style="stop-color:#D7D2D0"/>
			<stop  offset="2.481570e-002" style="stop-color:#FFFFFF"/>
			<stop  offset="0.2645" style="stop-color:#E5E2E0"/>
			<stop  offset="0.4606" style="stop-color:#CDC7C4"/>
			<stop  offset="0.9668" style="stop-color:#FFFFFF"/>
			<stop  offset="1" style="stop-color:#D7D2D0"/>
		</linearGradient>
		<rect x="27.6" y="34.1" class="st15" width="3" height="14.4"/>
		
			<linearGradient id="SVGID_17_" gradientUnits="userSpaceOnUse" x1="77.1914" y1="-339.6006" x2="77.1914" y2="-336.6298" gradientTransform="matrix(0 1 -1 0 -328.3066 -33.1797)">
			<stop  offset="0" style="stop-color:#D7D2D0"/>
			<stop  offset="2.481570e-002" style="stop-color:#FFFFFF"/>
			<stop  offset="0.2645" style="stop-color:#E5E2E0"/>
			<stop  offset="0.4606" style="stop-color:#CDC7C4"/>
			<stop  offset="0.9668" style="stop-color:#FFFFFF"/>
			<stop  offset="1" style="stop-color:#D7D2D0"/>
		</linearGradient>
		<rect x="8.3" y="39.4" class="st16" width="3" height="9.1"/>
		<linearGradient id="SVGID_18_" gradientUnits="userSpaceOnUse" x1="30.106" y1="39.4727" x2="30.106" y2="42.4427">
			<stop  offset="0" style="stop-color:#D7D2D0"/>
			<stop  offset="2.481570e-002" style="stop-color:#FFFFFF"/>
			<stop  offset="0.2645" style="stop-color:#E5E2E0"/>
			<stop  offset="0.4606" style="stop-color:#CDC7C4"/>
			<stop  offset="0.9668" style="stop-color:#FFFFFF"/>
			<stop  offset="1" style="stop-color:#D7D2D0"/>
		</linearGradient>
		<polygon class="st17" points="31.1,39.4 29.1,39.4 8.3,39.4 8.3,42.5 29.1,42.5 31.1,42.5 51.9,42.5 51.9,39.4 		"/>
		<g>
			<linearGradient id="SVGID_19_" gradientUnits="userSpaceOnUse" x1="29.1987" y1="36.9707" x2="29.1987" y2="44.1617">
				<stop  offset="0" style="stop-color:#D7D2D0"/>
				<stop  offset="2.481570e-002" style="stop-color:#FFFFFF"/>
				<stop  offset="0.2645" style="stop-color:#E5E2E0"/>
				<stop  offset="0.4606" style="stop-color:#CDC7C4"/>
				<stop  offset="0.9668" style="stop-color:#FFFFFF"/>
				<stop  offset="1" style="stop-color:#D7D2D0"/>
			</linearGradient>
			<path class="st18" d="M34.4,42.4c0,1-0.8,1.9-1.9,1.9h-6.7c-1,0-1.9-0.8-1.9-1.9v-3.6c0-1,0.8-1.9,1.9-1.9h6.7
				c1,0,1.9,0.8,1.9,1.9V42.4z"/>
			<linearGradient id="SVGID_20_" gradientUnits="userSpaceOnUse" x1="29.1992" y1="38.6357" x2="29.1992" y2="42.5016">
				<stop  offset="0" style="stop-color:#6C6E71"/>
				<stop  offset="1.212120e-002" style="stop-color:#6C6E71"/>
				<stop  offset="5.444521e-002" style="stop-color:#B4B6B8"/>
				<stop  offset="7.984300e-002" style="stop-color:#E2E3E4"/>
				<stop  offset="0.1726" style="stop-color:#B9BCBF"/>
				<stop  offset="0.3324" style="stop-color:#F5F5F5"/>
				<stop  offset="0.3453" style="stop-color:#FAFAFA"/>
				<stop  offset="0.4316" style="stop-color:#FAFAFA"/>
				<stop  offset="0.8133" style="stop-color:#6C6E71"/>
				<stop  offset="0.9084" style="stop-color:#999B9E"/>
				<stop  offset="1" style="stop-color:#C8CBCD"/>
			</linearGradient>
			<path class="st19" d="M25.8,42.5c-0.1,0-0.2-0.1-0.2-0.2v-3.6c0-0.1,0.1-0.2,0.2-0.2h6.7c0.1,0,0.2,0.1,0.2,0.2v3.6
				c0,0.1-0.1,0.2-0.2,0.2H25.8z"/>
			<linearGradient id="SVGID_21_" gradientUnits="userSpaceOnUse" x1="29.1987" y1="39.6211" x2="29.1987" y2="41.5186">
				<stop  offset="5.618000e-003" style="stop-color:#615550"/>
				<stop  offset="0.889" style="stop-color:#302623"/>
				<stop  offset="1" style="stop-color:#000000"/>
			</linearGradient>
			<rect x="26.7" y="39.6" class="st20" width="5.1" height="1.9"/>
		</g>
		<g>
			<linearGradient id="SVGID_22_" gradientUnits="userSpaceOnUse" x1="9.8062" y1="38.249" x2="9.8062" y2="42.8866">
				<stop  offset="0" style="stop-color:#D7D2D0"/>
				<stop  offset="2.481570e-002" style="stop-color:#FFFFFF"/>
				<stop  offset="0.2645" style="stop-color:#E5E2E0"/>
				<stop  offset="0.4606" style="stop-color:#CDC7C4"/>
				<stop  offset="0.9668" style="stop-color:#FFFFFF"/>
				<stop  offset="1" style="stop-color:#D7D2D0"/>
			</linearGradient>
			<path class="st21" d="M13.2,41.7c0,0.7-0.5,1.2-1.2,1.2H7.6c-0.7,0-1.2-0.5-1.2-1.2v-2.3c0-0.7,0.5-1.2,1.2-1.2H12
				c0.7,0,1.2,0.5,1.2,1.2V41.7z"/>
			<linearGradient id="SVGID_23_" gradientUnits="userSpaceOnUse" x1="9.8062" y1="39.3232" x2="9.8062" y2="41.8156">
				<stop  offset="0" style="stop-color:#6C6E71"/>
				<stop  offset="1.212120e-002" style="stop-color:#6C6E71"/>
				<stop  offset="5.444521e-002" style="stop-color:#B4B6B8"/>
				<stop  offset="7.984300e-002" style="stop-color:#E2E3E4"/>
				<stop  offset="0.1726" style="stop-color:#B9BCBF"/>
				<stop  offset="0.3324" style="stop-color:#F5F5F5"/>
				<stop  offset="0.3453" style="stop-color:#FAFAFA"/>
				<stop  offset="0.4316" style="stop-color:#FAFAFA"/>
				<stop  offset="0.8133" style="stop-color:#6C6E71"/>
				<stop  offset="0.9084" style="stop-color:#999B9E"/>
				<stop  offset="1" style="stop-color:#C8CBCD"/>
			</linearGradient>
			<path class="st22" d="M7.6,41.8c-0.1,0-0.1,0-0.1-0.1v-2.3c0-0.1,0-0.1,0.1-0.1H12c0.1,0,0.1,0,0.1,0.1v2.3c0,0.1,0,0.1-0.1,0.1
				H7.6z"/>
			<linearGradient id="SVGID_24_" gradientUnits="userSpaceOnUse" x1="9.8062" y1="39.958" x2="9.8062" y2="41.1821">
				<stop  offset="5.618000e-003" style="stop-color:#615550"/>
				<stop  offset="0.889" style="stop-color:#302623"/>
				<stop  offset="1" style="stop-color:#000000"/>
			</linearGradient>
			<rect x="8.2" y="39.9" class="st23" width="3.3" height="1.2"/>
		</g>
		<g>
			<linearGradient id="SVGID_25_" gradientUnits="userSpaceOnUse" x1="50.4063" y1="38.249" x2="50.4063" y2="42.8866">
				<stop  offset="0" style="stop-color:#D7D2D0"/>
				<stop  offset="2.481570e-002" style="stop-color:#FFFFFF"/>
				<stop  offset="0.2645" style="stop-color:#E5E2E0"/>
				<stop  offset="0.4606" style="stop-color:#CDC7C4"/>
				<stop  offset="0.9668" style="stop-color:#FFFFFF"/>
				<stop  offset="1" style="stop-color:#D7D2D0"/>
			</linearGradient>
			<path class="st24" d="M53.8,41.7c0,0.7-0.5,1.2-1.2,1.2h-4.3c-0.7,0-1.2-0.5-1.2-1.2v-2.3c0-0.7,0.5-1.2,1.2-1.2h4.3
				c0.7,0,1.2,0.5,1.2,1.2V41.7z"/>
			<linearGradient id="SVGID_26_" gradientUnits="userSpaceOnUse" x1="50.4063" y1="39.3232" x2="50.4063" y2="41.8156">
				<stop  offset="0" style="stop-color:#6C6E71"/>
				<stop  offset="1.212120e-002" style="stop-color:#6C6E71"/>
				<stop  offset="5.444521e-002" style="stop-color:#B4B6B8"/>
				<stop  offset="7.984300e-002" style="stop-color:#E2E3E4"/>
				<stop  offset="0.1726" style="stop-color:#B9BCBF"/>
				<stop  offset="0.3324" style="stop-color:#F5F5F5"/>
				<stop  offset="0.3453" style="stop-color:#FAFAFA"/>
				<stop  offset="0.4316" style="stop-color:#FAFAFA"/>
				<stop  offset="0.8133" style="stop-color:#6C6E71"/>
				<stop  offset="0.9084" style="stop-color:#999B9E"/>
				<stop  offset="1" style="stop-color:#C8CBCD"/>
			</linearGradient>
			<path class="st25" d="M48.2,41.8c-0.1,0-0.1,0-0.1-0.1v-2.3c0-0.1,0-0.1,0.1-0.1h4.3c0.1,0,0.1,0,0.1,0.1v2.3
				c0,0.1,0,0.1-0.1,0.1H48.2z"/>
			<linearGradient id="SVGID_27_" gradientUnits="userSpaceOnUse" x1="50.4063" y1="39.958" x2="50.4063" y2="41.1821">
				<stop  offset="5.618000e-003" style="stop-color:#615550"/>
				<stop  offset="0.889" style="stop-color:#302623"/>
				<stop  offset="1" style="stop-color:#000000"/>
			</linearGradient>
			<rect x="48.8" y="39.9" class="st26" width="3.3" height="1.2"/>
		</g>
	</g>
	<g>
		<linearGradient id="SVGID_28_" gradientUnits="userSpaceOnUse" x1="9.5933" y1="48.5928" x2="9.5933" y2="57.9568">
			<stop  offset="0" style="stop-color:#D7D2D0"/>
			<stop  offset="2.481570e-002" style="stop-color:#FFFFFF"/>
			<stop  offset="0.2645" style="stop-color:#E5E2E0"/>
			<stop  offset="0.4606" style="stop-color:#CDC7C4"/>
			<stop  offset="0.9668" style="stop-color:#FFFFFF"/>
			<stop  offset="1" style="stop-color:#D7D2D0"/>
		</linearGradient>
		<path class="st27" d="M15.6,57.9l0-8.8c0-0.3-0.2-0.5-0.5-0.5h-11c-0.3,0-0.5,0.2-0.5,0.5l0,8.8H15.6z"/>
		<linearGradient id="SVGID_29_" gradientUnits="userSpaceOnUse" x1="9.5933" y1="49.1074" x2="9.5933" y2="56.6177">
			<stop  offset="0" style="stop-color:#6C6E71"/>
			<stop  offset="1.212120e-002" style="stop-color:#6C6E71"/>
			<stop  offset="5.444521e-002" style="stop-color:#B4B6B8"/>
			<stop  offset="7.984300e-002" style="stop-color:#E2E3E4"/>
			<stop  offset="0.1726" style="stop-color:#B9BCBF"/>
			<stop  offset="0.3324" style="stop-color:#F5F5F5"/>
			<stop  offset="0.3453" style="stop-color:#FAFAFA"/>
			<stop  offset="0.4316" style="stop-color:#FAFAFA"/>
			<stop  offset="0.8133" style="stop-color:#6C6E71"/>
			<stop  offset="0.9084" style="stop-color:#999B9E"/>
			<stop  offset="1" style="stop-color:#C8CBCD"/>
		</linearGradient>
		<rect x="4.1" y="49.1" class="st28" width="11" height="7.5"/>
		<linearGradient id="SVGID_30_" gradientUnits="userSpaceOnUse" x1="9.5938" y1="49.25" x2="9.5938" y2="57.0328">
			<stop  offset="0" style="stop-color:#AACFEE"/>
			<stop  offset="4.632051e-002" style="stop-color:#98C7EB"/>
			<stop  offset="9.696970e-002" style="stop-color:#80BBE6"/>
			<stop  offset="0.4306" style="stop-color:#1275BD"/>
			<stop  offset="0.4848" style="stop-color:#0069B6"/>
			<stop  offset="0.9007" style="stop-color:#0095DB"/>
			<stop  offset="1" style="stop-color:#AACFEE"/>
		</linearGradient>
		<rect x="4.2" y="49.2" class="st29" width="10.8" height="7.3"/>
		<linearGradient id="SVGID_31_" gradientUnits="userSpaceOnUse" x1="9.1982" y1="57.1172" x2="9.9776" y2="57.1172">
			<stop  offset="0" style="stop-color:#6C6E71"/>
			<stop  offset="1.212120e-002" style="stop-color:#6C6E71"/>
			<stop  offset="5.444521e-002" style="stop-color:#B4B6B8"/>
			<stop  offset="7.984300e-002" style="stop-color:#E2E3E4"/>
			<stop  offset="0.1726" style="stop-color:#B9BCBF"/>
			<stop  offset="0.3324" style="stop-color:#F5F5F5"/>
			<stop  offset="0.3453" style="stop-color:#FAFAFA"/>
			<stop  offset="0.4316" style="stop-color:#FAFAFA"/>
			<stop  offset="0.8133" style="stop-color:#6C6E71"/>
			<stop  offset="0.9084" style="stop-color:#999B9E"/>
			<stop  offset="1" style="stop-color:#C8CBCD"/>
		</linearGradient>
		<circle class="st30" cx="9.6" cy="57.1" r="0.4"/>
		<linearGradient id="SVGID_32_" gradientUnits="userSpaceOnUse" x1="9.2427" y1="57.1172" x2="9.9344" y2="57.1172">
			<stop  offset="0" style="stop-color:#C2C3C3"/>
			<stop  offset="0.1818" style="stop-color:#E7E7E8"/>
			<stop  offset="0.4424" style="stop-color:#F4F4F4"/>
			<stop  offset="0.6424" style="stop-color:#FDFDFD"/>
			<stop  offset="0.8291" style="stop-color:#FFFFFF"/>
			<stop  offset="0.9546" style="stop-color:#E2DDD9"/>
			<stop  offset="1" style="stop-color:#D7CFCA"/>
		</linearGradient>
		<circle class="st31" cx="9.6" cy="57.1" r="0.3"/>
		<linearGradient id="SVGID_33_" gradientUnits="userSpaceOnUse" x1="9.3784" y1="57.1182" x2="9.8026" y2="57.1182">
			<stop  offset="0" style="stop-color:#AACFEE"/>
			<stop  offset="4.632051e-002" style="stop-color:#98C7EB"/>
			<stop  offset="9.696970e-002" style="stop-color:#80BBE6"/>
			<stop  offset="0.4306" style="stop-color:#1275BD"/>
			<stop  offset="0.4848" style="stop-color:#0069B6"/>
			<stop  offset="0.9007" style="stop-color:#0095DB"/>
			<stop  offset="1" style="stop-color:#AACFEE"/>
		</linearGradient>
		<circle class="st32" cx="9.6" cy="57.1" r="0.2"/>
		<g>
			<linearGradient id="SVGID_34_" gradientUnits="userSpaceOnUse" x1="9.5933" y1="58.1797" x2="9.5933" y2="59.9811">
				<stop  offset="0" style="stop-color:#C9C5C1"/>
				<stop  offset="6.506420e-002" style="stop-color:#DEDBDA"/>
				<stop  offset="0.3455" style="stop-color:#C6C2BF"/>
				<stop  offset="0.5152" style="stop-color:#B7B1AE"/>
				<stop  offset="0.6677" style="stop-color:#C5C0BD"/>
				<stop  offset="0.9333" style="stop-color:#DEDBDA"/>
				<stop  offset="1" style="stop-color:#C9C5C1"/>
			</linearGradient>
			<path class="st33" d="M16.5,59.8c0,0.1-0.1,0.2-0.2,0.2H2.9c-0.1,0-0.2-0.1-0.2-0.2v-1.4c0-0.1,0.1-0.2,0.2-0.2h13.4
				c0.1,0,0.2,0.1,0.2,0.2V59.8z"/>
			<linearGradient id="SVGID_35_" gradientUnits="userSpaceOnUse" x1="13.3823" y1="58.5186" x2="13.3823" y2="59.6588">
				<stop  offset="0" style="stop-color:#C2C3C3"/>
				<stop  offset="0.1818" style="stop-color:#E7E7E8"/>
				<stop  offset="0.4424" style="stop-color:#F4F4F4"/>
				<stop  offset="0.6424" style="stop-color:#FDFDFD"/>
				<stop  offset="0.8291" style="stop-color:#FFFFFF"/>
				<stop  offset="0.9546" style="stop-color:#E2DDD9"/>
				<stop  offset="1" style="stop-color:#D7CFCA"/>
			</linearGradient>
			<path class="st34" d="M11.5,59.7c-0.1,0-0.2-0.1-0.2-0.2v-0.7c0-0.1,0.1-0.2,0.2-0.2h3.9c0.1,0,0.2,0.1,0.2,0.2v0.7
				c0,0.1-0.1,0.2-0.2,0.2H11.5z"/>
			<linearGradient id="SVGID_36_" gradientUnits="userSpaceOnUse" x1="13.3833" y1="58.583" x2="13.3833" y2="59.593">
				<stop  offset="5.618000e-003" style="stop-color:#615550"/>
				<stop  offset="0.889" style="stop-color:#302623"/>
				<stop  offset="1" style="stop-color:#000000"/>
			</linearGradient>
			<path class="st35" d="M15.5,59.4c0,0.1-0.1,0.2-0.2,0.2h-3.9c-0.1,0-0.2-0.1-0.2-0.2v-0.7c0-0.1,0.1-0.2,0.2-0.2h3.9
				c0.1,0,0.2,0.1,0.2,0.2V59.4z"/>
			<linearGradient id="SVGID_37_" gradientUnits="userSpaceOnUse" x1="4.4536" y1="59.2275" x2="3.263" y2="59.9547">
				<stop  offset="0" style="stop-color:#C2C3C3"/>
				<stop  offset="0.1818" style="stop-color:#E7E7E8"/>
				<stop  offset="0.4424" style="stop-color:#F4F4F4"/>
				<stop  offset="0.6424" style="stop-color:#FDFDFD"/>
				<stop  offset="0.8291" style="stop-color:#FFFFFF"/>
				<stop  offset="0.9546" style="stop-color:#E2DDD9"/>
				<stop  offset="1" style="stop-color:#D7CFCA"/>
			</linearGradient>
			<path class="st36" d="M3.5,59.7C3.4,59.7,3.4,59.6,3.5,59.7l-0.1-0.2c0,0,0-0.1,0.1-0.1h1c0,0,0.1,0,0.1,0.1v0.2
				c0,0,0,0.1-0.1,0.1H3.5z"/>
			<linearGradient id="SVGID_38_" gradientUnits="userSpaceOnUse" x1="4.002" y1="59.3701" x2="4.002" y2="59.6408">
				<stop  offset="5.618000e-003" style="stop-color:#615550"/>
				<stop  offset="0.889" style="stop-color:#302623"/>
				<stop  offset="1" style="stop-color:#000000"/>
			</linearGradient>
			<path class="st37" d="M4.6,59.6C4.6,59.6,4.5,59.6,4.6,59.6l-1.1,0c0,0,0,0,0,0v-0.2c0,0,0,0,0,0h1c0,0,0,0,0,0V59.6z"/>
			<linearGradient id="SVGID_39_" gradientUnits="userSpaceOnUse" x1="5.8218" y1="59.2275" x2="4.631" y2="59.9548">
				<stop  offset="0" style="stop-color:#C2C3C3"/>
				<stop  offset="0.1818" style="stop-color:#E7E7E8"/>
				<stop  offset="0.4424" style="stop-color:#F4F4F4"/>
				<stop  offset="0.6424" style="stop-color:#FDFDFD"/>
				<stop  offset="0.8291" style="stop-color:#FFFFFF"/>
				<stop  offset="0.9546" style="stop-color:#E2DDD9"/>
				<stop  offset="1" style="stop-color:#D7CFCA"/>
			</linearGradient>
			<path class="st38" d="M4.9,59.7C4.8,59.7,4.8,59.6,4.9,59.7l-0.1-0.2c0,0,0-0.1,0.1-0.1h1c0,0,0.1,0,0.1,0.1v0.2
				c0,0,0,0.1-0.1,0.1H4.9z"/>
			<linearGradient id="SVGID_40_" gradientUnits="userSpaceOnUse" x1="5.3701" y1="59.3701" x2="5.3701" y2="59.6408">
				<stop  offset="5.618000e-003" style="stop-color:#615550"/>
				<stop  offset="0.889" style="stop-color:#302623"/>
				<stop  offset="1" style="stop-color:#000000"/>
			</linearGradient>
			<path class="st39" d="M5.9,59.6C5.9,59.6,5.9,59.6,5.9,59.6l-1.1,0c0,0,0,0,0,0v-0.2c0,0,0,0,0,0h1c0,0,0,0,0,0V59.6z"/>
		</g>
		<linearGradient id="SVGID_41_" gradientUnits="userSpaceOnUse" x1="7.4814" y1="58.0244" x2="12.0698" y2="58.0244">
			<stop  offset="0" style="stop-color:#C2C3C3"/>
			<stop  offset="0.1818" style="stop-color:#E7E7E8"/>
			<stop  offset="0.4424" style="stop-color:#F4F4F4"/>
			<stop  offset="0.6424" style="stop-color:#FDFDFD"/>
			<stop  offset="0.8291" style="stop-color:#FFFFFF"/>
			<stop  offset="0.9546" style="stop-color:#E2DDD9"/>
			<stop  offset="1" style="stop-color:#D7CFCA"/>
		</linearGradient>
		<rect x="7.5" y="57.9" class="st40" width="4.6" height="0.3"/>
	</g>
	<g>
		<linearGradient id="SVGID_42_" gradientUnits="userSpaceOnUse" x1="29.1538" y1="48.5928" x2="29.1538" y2="57.9568">
			<stop  offset="0" style="stop-color:#D7D2D0"/>
			<stop  offset="2.481570e-002" style="stop-color:#FFFFFF"/>
			<stop  offset="0.2645" style="stop-color:#E5E2E0"/>
			<stop  offset="0.4606" style="stop-color:#CDC7C4"/>
			<stop  offset="0.9668" style="stop-color:#FFFFFF"/>
			<stop  offset="1" style="stop-color:#D7D2D0"/>
		</linearGradient>
		<path class="st41" d="M35.2,57.9l0-8.8c0-0.3-0.2-0.5-0.5-0.5h-11c-0.3,0-0.5,0.2-0.5,0.5l0,8.8H35.2z"/>
		<linearGradient id="SVGID_43_" gradientUnits="userSpaceOnUse" x1="29.1543" y1="49.1074" x2="29.1543" y2="56.6177">
			<stop  offset="0" style="stop-color:#6C6E71"/>
			<stop  offset="1.212120e-002" style="stop-color:#6C6E71"/>
			<stop  offset="5.444521e-002" style="stop-color:#B4B6B8"/>
			<stop  offset="7.984300e-002" style="stop-color:#E2E3E4"/>
			<stop  offset="0.1726" style="stop-color:#B9BCBF"/>
			<stop  offset="0.3324" style="stop-color:#F5F5F5"/>
			<stop  offset="0.3453" style="stop-color:#FAFAFA"/>
			<stop  offset="0.4316" style="stop-color:#FAFAFA"/>
			<stop  offset="0.8133" style="stop-color:#6C6E71"/>
			<stop  offset="0.9084" style="stop-color:#999B9E"/>
			<stop  offset="1" style="stop-color:#C8CBCD"/>
		</linearGradient>
		<rect x="23.7" y="49.1" class="st42" width="11" height="7.5"/>
		<linearGradient id="SVGID_44_" gradientUnits="userSpaceOnUse" x1="29.1543" y1="49.25" x2="29.1543" y2="57.0328">
			<stop  offset="0" style="stop-color:#AACFEE"/>
			<stop  offset="4.632051e-002" style="stop-color:#98C7EB"/>
			<stop  offset="9.696970e-002" style="stop-color:#80BBE6"/>
			<stop  offset="0.4306" style="stop-color:#1275BD"/>
			<stop  offset="0.4848" style="stop-color:#0069B6"/>
			<stop  offset="0.9007" style="stop-color:#0095DB"/>
			<stop  offset="1" style="stop-color:#AACFEE"/>
		</linearGradient>
		<rect x="23.8" y="49.2" class="st43" width="10.8" height="7.3"/>
		<linearGradient id="SVGID_45_" gradientUnits="userSpaceOnUse" x1="28.7593" y1="57.1172" x2="29.5386" y2="57.1172">
			<stop  offset="0" style="stop-color:#6C6E71"/>
			<stop  offset="1.212120e-002" style="stop-color:#6C6E71"/>
			<stop  offset="5.444521e-002" style="stop-color:#B4B6B8"/>
			<stop  offset="7.984300e-002" style="stop-color:#E2E3E4"/>
			<stop  offset="0.1726" style="stop-color:#B9BCBF"/>
			<stop  offset="0.3324" style="stop-color:#F5F5F5"/>
			<stop  offset="0.3453" style="stop-color:#FAFAFA"/>
			<stop  offset="0.4316" style="stop-color:#FAFAFA"/>
			<stop  offset="0.8133" style="stop-color:#6C6E71"/>
			<stop  offset="0.9084" style="stop-color:#999B9E"/>
			<stop  offset="1" style="stop-color:#C8CBCD"/>
		</linearGradient>
		<circle class="st44" cx="29.2" cy="57.1" r="0.4"/>
		<linearGradient id="SVGID_46_" gradientUnits="userSpaceOnUse" x1="28.8037" y1="57.1172" x2="29.4949" y2="57.1172">
			<stop  offset="0" style="stop-color:#C2C3C3"/>
			<stop  offset="0.1818" style="stop-color:#E7E7E8"/>
			<stop  offset="0.4424" style="stop-color:#F4F4F4"/>
			<stop  offset="0.6424" style="stop-color:#FDFDFD"/>
			<stop  offset="0.8291" style="stop-color:#FFFFFF"/>
			<stop  offset="0.9546" style="stop-color:#E2DDD9"/>
			<stop  offset="1" style="stop-color:#D7CFCA"/>
		</linearGradient>
		<circle class="st45" cx="29.2" cy="57.1" r="0.3"/>
		<linearGradient id="SVGID_47_" gradientUnits="userSpaceOnUse" x1="28.9395" y1="57.1182" x2="29.3631" y2="57.1182">
			<stop  offset="0" style="stop-color:#AACFEE"/>
			<stop  offset="4.632051e-002" style="stop-color:#98C7EB"/>
			<stop  offset="9.696970e-002" style="stop-color:#80BBE6"/>
			<stop  offset="0.4306" style="stop-color:#1275BD"/>
			<stop  offset="0.4848" style="stop-color:#0069B6"/>
			<stop  offset="0.9007" style="stop-color:#0095DB"/>
			<stop  offset="1" style="stop-color:#AACFEE"/>
		</linearGradient>
		<circle class="st46" cx="29.2" cy="57.1" r="0.2"/>
		<g>
			<linearGradient id="SVGID_48_" gradientUnits="userSpaceOnUse" x1="29.1548" y1="58.1797" x2="29.1548" y2="59.9811">
				<stop  offset="0" style="stop-color:#C9C5C1"/>
				<stop  offset="6.506420e-002" style="stop-color:#DEDBDA"/>
				<stop  offset="0.3455" style="stop-color:#C6C2BF"/>
				<stop  offset="0.5152" style="stop-color:#B7B1AE"/>
				<stop  offset="0.6677" style="stop-color:#C5C0BD"/>
				<stop  offset="0.9333" style="stop-color:#DEDBDA"/>
				<stop  offset="1" style="stop-color:#C9C5C1"/>
			</linearGradient>
			<path class="st47" d="M36,59.8c0,0.1-0.1,0.2-0.2,0.2H22.5c-0.1,0-0.2-0.1-0.2-0.2v-1.4c0-0.1,0.1-0.2,0.2-0.2h13.4
				c0.1,0,0.2,0.1,0.2,0.2V59.8z"/>
			<linearGradient id="SVGID_49_" gradientUnits="userSpaceOnUse" x1="32.9434" y1="58.5186" x2="32.9434" y2="59.6588">
				<stop  offset="0" style="stop-color:#C2C3C3"/>
				<stop  offset="0.1818" style="stop-color:#E7E7E8"/>
				<stop  offset="0.4424" style="stop-color:#F4F4F4"/>
				<stop  offset="0.6424" style="stop-color:#FDFDFD"/>
				<stop  offset="0.8291" style="stop-color:#FFFFFF"/>
				<stop  offset="0.9546" style="stop-color:#E2DDD9"/>
				<stop  offset="1" style="stop-color:#D7CFCA"/>
			</linearGradient>
			<path class="st48" d="M31,59.7c-0.1,0-0.2-0.1-0.2-0.2v-0.7c0-0.1,0.1-0.2,0.2-0.2h3.9c0.1,0,0.2,0.1,0.2,0.2v0.7
				c0,0.1-0.1,0.2-0.2,0.2H31z"/>
			<linearGradient id="SVGID_50_" gradientUnits="userSpaceOnUse" x1="32.9434" y1="58.583" x2="32.9434" y2="59.593">
				<stop  offset="5.618000e-003" style="stop-color:#615550"/>
				<stop  offset="0.889" style="stop-color:#302623"/>
				<stop  offset="1" style="stop-color:#000000"/>
			</linearGradient>
			<path class="st49" d="M35.1,59.4c0,0.1-0.1,0.2-0.2,0.2H31c-0.1,0-0.2-0.1-0.2-0.2v-0.7c0-0.1,0.1-0.2,0.2-0.2h3.9
				c0.1,0,0.2,0.1,0.2,0.2V59.4z"/>
			<linearGradient id="SVGID_51_" gradientUnits="userSpaceOnUse" x1="24.0146" y1="59.2275" x2="22.8243" y2="59.9545">
				<stop  offset="0" style="stop-color:#C2C3C3"/>
				<stop  offset="0.1818" style="stop-color:#E7E7E8"/>
				<stop  offset="0.4424" style="stop-color:#F4F4F4"/>
				<stop  offset="0.6424" style="stop-color:#FDFDFD"/>
				<stop  offset="0.8291" style="stop-color:#FFFFFF"/>
				<stop  offset="0.9546" style="stop-color:#E2DDD9"/>
				<stop  offset="1" style="stop-color:#D7CFCA"/>
			</linearGradient>
			<path class="st50" d="M23,59.7C23,59.7,23,59.6,23,59.7L23,59.4c0,0,0-0.1,0.1-0.1h1c0,0,0.1,0,0.1,0.1v0.2c0,0,0,0.1-0.1,0.1H23
				z"/>
			<linearGradient id="SVGID_52_" gradientUnits="userSpaceOnUse" x1="23.5625" y1="59.3701" x2="23.5625" y2="59.6408">
				<stop  offset="5.618000e-003" style="stop-color:#615550"/>
				<stop  offset="0.889" style="stop-color:#302623"/>
				<stop  offset="1" style="stop-color:#000000"/>
			</linearGradient>
			<path class="st51" d="M24.1,59.6C24.1,59.6,24.1,59.6,24.1,59.6l-1.1,0c0,0,0,0,0,0v-0.2c0,0,0,0,0,0h1c0,0,0,0,0,0V59.6z"/>
			<linearGradient id="SVGID_53_" gradientUnits="userSpaceOnUse" x1="25.3828" y1="59.2275" x2="24.1927" y2="59.9543">
				<stop  offset="0" style="stop-color:#C2C3C3"/>
				<stop  offset="0.1818" style="stop-color:#E7E7E8"/>
				<stop  offset="0.4424" style="stop-color:#F4F4F4"/>
				<stop  offset="0.6424" style="stop-color:#FDFDFD"/>
				<stop  offset="0.8291" style="stop-color:#FFFFFF"/>
				<stop  offset="0.9546" style="stop-color:#E2DDD9"/>
				<stop  offset="1" style="stop-color:#D7CFCA"/>
			</linearGradient>
			<path class="st52" d="M24.4,59.7C24.4,59.7,24.3,59.6,24.4,59.7l-0.1-0.2c0,0,0-0.1,0.1-0.1h1c0,0,0.1,0,0.1,0.1v0.2
				c0,0,0,0.1-0.1,0.1H24.4z"/>
			<linearGradient id="SVGID_54_" gradientUnits="userSpaceOnUse" x1="24.9312" y1="59.3701" x2="24.9312" y2="59.6408">
				<stop  offset="5.618000e-003" style="stop-color:#615550"/>
				<stop  offset="0.889" style="stop-color:#302623"/>
				<stop  offset="1" style="stop-color:#000000"/>
			</linearGradient>
			<path class="st53" d="M25.5,59.6C25.5,59.6,25.5,59.6,25.5,59.6l-1.1,0c0,0,0,0,0,0v-0.2c0,0,0,0,0,0h1c0,0,0,0,0,0V59.6z"/>
		</g>
		<linearGradient id="SVGID_55_" gradientUnits="userSpaceOnUse" x1="27.0415" y1="58.0244" x2="31.6304" y2="58.0244">
			<stop  offset="0" style="stop-color:#C2C3C3"/>
			<stop  offset="0.1818" style="stop-color:#E7E7E8"/>
			<stop  offset="0.4424" style="stop-color:#F4F4F4"/>
			<stop  offset="0.6424" style="stop-color:#FDFDFD"/>
			<stop  offset="0.8291" style="stop-color:#FFFFFF"/>
			<stop  offset="0.9546" style="stop-color:#E2DDD9"/>
			<stop  offset="1" style="stop-color:#D7CFCA"/>
		</linearGradient>
		<rect x="27" y="57.9" class="st54" width="4.6" height="0.3"/>
	</g>
	<g>
		<linearGradient id="SVGID_56_" gradientUnits="userSpaceOnUse" x1="50.4063" y1="48.5928" x2="50.4063" y2="57.9568">
			<stop  offset="0" style="stop-color:#D7D2D0"/>
			<stop  offset="2.481570e-002" style="stop-color:#FFFFFF"/>
			<stop  offset="0.2645" style="stop-color:#E5E2E0"/>
			<stop  offset="0.4606" style="stop-color:#CDC7C4"/>
			<stop  offset="0.9668" style="stop-color:#FFFFFF"/>
			<stop  offset="1" style="stop-color:#D7D2D0"/>
		</linearGradient>
		<path class="st55" d="M56.4,57.9l0-8.8c0-0.3-0.2-0.5-0.5-0.5h-11c-0.3,0-0.5,0.2-0.5,0.5l0,8.8H56.4z"/>
		<linearGradient id="SVGID_57_" gradientUnits="userSpaceOnUse" x1="50.4063" y1="49.1074" x2="50.4063" y2="56.6177">
			<stop  offset="0" style="stop-color:#6C6E71"/>
			<stop  offset="1.212120e-002" style="stop-color:#6C6E71"/>
			<stop  offset="5.444521e-002" style="stop-color:#B4B6B8"/>
			<stop  offset="7.984300e-002" style="stop-color:#E2E3E4"/>
			<stop  offset="0.1726" style="stop-color:#B9BCBF"/>
			<stop  offset="0.3324" style="stop-color:#F5F5F5"/>
			<stop  offset="0.3453" style="stop-color:#FAFAFA"/>
			<stop  offset="0.4316" style="stop-color:#FAFAFA"/>
			<stop  offset="0.8133" style="stop-color:#6C6E71"/>
			<stop  offset="0.9084" style="stop-color:#999B9E"/>
			<stop  offset="1" style="stop-color:#C8CBCD"/>
		</linearGradient>
		<rect x="44.9" y="49.1" class="st56" width="11" height="7.5"/>
		<linearGradient id="SVGID_58_" gradientUnits="userSpaceOnUse" x1="50.4063" y1="49.25" x2="50.4063" y2="57.0328">
			<stop  offset="0" style="stop-color:#AACFEE"/>
			<stop  offset="4.632051e-002" style="stop-color:#98C7EB"/>
			<stop  offset="9.696970e-002" style="stop-color:#80BBE6"/>
			<stop  offset="0.4306" style="stop-color:#1275BD"/>
			<stop  offset="0.4848" style="stop-color:#0069B6"/>
			<stop  offset="0.9007" style="stop-color:#0095DB"/>
			<stop  offset="1" style="stop-color:#AACFEE"/>
		</linearGradient>
		<rect x="45" y="49.2" class="st57" width="10.8" height="7.3"/>
		<linearGradient id="SVGID_59_" gradientUnits="userSpaceOnUse" x1="50.0107" y1="57.1172" x2="50.7906" y2="57.1172">
			<stop  offset="0" style="stop-color:#6C6E71"/>
			<stop  offset="1.212120e-002" style="stop-color:#6C6E71"/>
			<stop  offset="5.444521e-002" style="stop-color:#B4B6B8"/>
			<stop  offset="7.984300e-002" style="stop-color:#E2E3E4"/>
			<stop  offset="0.1726" style="stop-color:#B9BCBF"/>
			<stop  offset="0.3324" style="stop-color:#F5F5F5"/>
			<stop  offset="0.3453" style="stop-color:#FAFAFA"/>
			<stop  offset="0.4316" style="stop-color:#FAFAFA"/>
			<stop  offset="0.8133" style="stop-color:#6C6E71"/>
			<stop  offset="0.9084" style="stop-color:#999B9E"/>
			<stop  offset="1" style="stop-color:#C8CBCD"/>
		</linearGradient>
		<circle class="st58" cx="50.4" cy="57.1" r="0.4"/>
		<linearGradient id="SVGID_60_" gradientUnits="userSpaceOnUse" x1="50.0557" y1="57.1172" x2="50.7469" y2="57.1172">
			<stop  offset="0" style="stop-color:#C2C3C3"/>
			<stop  offset="0.1818" style="stop-color:#E7E7E8"/>
			<stop  offset="0.4424" style="stop-color:#F4F4F4"/>
			<stop  offset="0.6424" style="stop-color:#FDFDFD"/>
			<stop  offset="0.8291" style="stop-color:#FFFFFF"/>
			<stop  offset="0.9546" style="stop-color:#E2DDD9"/>
			<stop  offset="1" style="stop-color:#D7CFCA"/>
		</linearGradient>
		<circle class="st59" cx="50.4" cy="57.1" r="0.3"/>
		<linearGradient id="SVGID_61_" gradientUnits="userSpaceOnUse" x1="50.1924" y1="57.1182" x2="50.6156" y2="57.1182">
			<stop  offset="0" style="stop-color:#AACFEE"/>
			<stop  offset="4.632051e-002" style="stop-color:#98C7EB"/>
			<stop  offset="9.696970e-002" style="stop-color:#80BBE6"/>
			<stop  offset="0.4306" style="stop-color:#1275BD"/>
			<stop  offset="0.4848" style="stop-color:#0069B6"/>
			<stop  offset="0.9007" style="stop-color:#0095DB"/>
			<stop  offset="1" style="stop-color:#AACFEE"/>
		</linearGradient>
		<circle class="st60" cx="50.4" cy="57.1" r="0.2"/>
		<g>
			<linearGradient id="SVGID_62_" gradientUnits="userSpaceOnUse" x1="50.4063" y1="58.1797" x2="50.4063" y2="59.9811">
				<stop  offset="0" style="stop-color:#C9C5C1"/>
				<stop  offset="6.506420e-002" style="stop-color:#DEDBDA"/>
				<stop  offset="0.3455" style="stop-color:#C6C2BF"/>
				<stop  offset="0.5152" style="stop-color:#B7B1AE"/>
				<stop  offset="0.6677" style="stop-color:#C5C0BD"/>
				<stop  offset="0.9333" style="stop-color:#DEDBDA"/>
				<stop  offset="1" style="stop-color:#C9C5C1"/>
			</linearGradient>
			<path class="st61" d="M57.3,59.8c0,0.1-0.1,0.2-0.2,0.2H43.7c-0.1,0-0.2-0.1-0.2-0.2v-1.4c0-0.1,0.1-0.2,0.2-0.2h13.4
				c0.1,0,0.2,0.1,0.2,0.2V59.8z"/>
			<linearGradient id="SVGID_63_" gradientUnits="userSpaceOnUse" x1="54.1953" y1="58.5186" x2="54.1953" y2="59.6588">
				<stop  offset="0" style="stop-color:#C2C3C3"/>
				<stop  offset="0.1818" style="stop-color:#E7E7E8"/>
				<stop  offset="0.4424" style="stop-color:#F4F4F4"/>
				<stop  offset="0.6424" style="stop-color:#FDFDFD"/>
				<stop  offset="0.8291" style="stop-color:#FFFFFF"/>
				<stop  offset="0.9546" style="stop-color:#E2DDD9"/>
				<stop  offset="1" style="stop-color:#D7CFCA"/>
			</linearGradient>
			<path class="st62" d="M52.3,59.7c-0.1,0-0.2-0.1-0.2-0.2v-0.7c0-0.1,0.1-0.2,0.2-0.2h3.9c0.1,0,0.2,0.1,0.2,0.2v0.7
				c0,0.1-0.1,0.2-0.2,0.2H52.3z"/>
			<linearGradient id="SVGID_64_" gradientUnits="userSpaceOnUse" x1="54.1953" y1="58.583" x2="54.1953" y2="59.593">
				<stop  offset="5.618000e-003" style="stop-color:#615550"/>
				<stop  offset="0.889" style="stop-color:#302623"/>
				<stop  offset="1" style="stop-color:#000000"/>
			</linearGradient>
			<path class="st63" d="M56.3,59.4c0,0.1-0.1,0.2-0.2,0.2h-3.9c-0.1,0-0.2-0.1-0.2-0.2v-0.7c0-0.1,0.1-0.2,0.2-0.2h3.9
				c0.1,0,0.2,0.1,0.2,0.2V59.4z"/>
			<linearGradient id="SVGID_65_" gradientUnits="userSpaceOnUse" x1="45.2666" y1="59.2275" x2="44.0763" y2="59.9545">
				<stop  offset="0" style="stop-color:#C2C3C3"/>
				<stop  offset="0.1818" style="stop-color:#E7E7E8"/>
				<stop  offset="0.4424" style="stop-color:#F4F4F4"/>
				<stop  offset="0.6424" style="stop-color:#FDFDFD"/>
				<stop  offset="0.8291" style="stop-color:#FFFFFF"/>
				<stop  offset="0.9546" style="stop-color:#E2DDD9"/>
				<stop  offset="1" style="stop-color:#D7CFCA"/>
			</linearGradient>
			<path class="st64" d="M44.3,59.7C44.3,59.7,44.2,59.6,44.3,59.7l-0.1-0.2c0,0,0-0.1,0.1-0.1h1c0,0,0.1,0,0.1,0.1v0.2
				c0,0,0,0.1-0.1,0.1H44.3z"/>
			<linearGradient id="SVGID_66_" gradientUnits="userSpaceOnUse" x1="44.8145" y1="59.3701" x2="44.8145" y2="59.6408">
				<stop  offset="5.618000e-003" style="stop-color:#615550"/>
				<stop  offset="0.889" style="stop-color:#302623"/>
				<stop  offset="1" style="stop-color:#000000"/>
			</linearGradient>
			<path class="st65" d="M45.4,59.6C45.4,59.6,45.4,59.6,45.4,59.6l-1.1,0c0,0,0,0,0,0v-0.2c0,0,0,0,0,0h1c0,0,0,0,0,0V59.6z"/>
			<linearGradient id="SVGID_67_" gradientUnits="userSpaceOnUse" x1="46.6338" y1="59.2275" x2="45.444" y2="59.9542">
				<stop  offset="0" style="stop-color:#C2C3C3"/>
				<stop  offset="0.1818" style="stop-color:#E7E7E8"/>
				<stop  offset="0.4424" style="stop-color:#F4F4F4"/>
				<stop  offset="0.6424" style="stop-color:#FDFDFD"/>
				<stop  offset="0.8291" style="stop-color:#FFFFFF"/>
				<stop  offset="0.9546" style="stop-color:#E2DDD9"/>
				<stop  offset="1" style="stop-color:#D7CFCA"/>
			</linearGradient>
			<path class="st66" d="M45.7,59.7C45.6,59.7,45.6,59.6,45.7,59.7l-0.1-0.2c0,0,0-0.1,0.1-0.1h1c0,0,0.1,0,0.1,0.1v0.2
				c0,0,0,0.1-0.1,0.1H45.7z"/>
			<linearGradient id="SVGID_68_" gradientUnits="userSpaceOnUse" x1="46.1836" y1="59.3701" x2="46.1836" y2="59.6408">
				<stop  offset="5.618000e-003" style="stop-color:#615550"/>
				<stop  offset="0.889" style="stop-color:#302623"/>
				<stop  offset="1" style="stop-color:#000000"/>
			</linearGradient>
			<path class="st67" d="M46.7,59.6C46.7,59.6,46.7,59.6,46.7,59.6l-1.1,0c0,0,0,0,0,0v-0.2c0,0,0,0,0,0h1c0,0,0,0,0,0V59.6z"/>
		</g>
		<linearGradient id="SVGID_69_" gradientUnits="userSpaceOnUse" x1="48.293" y1="58.0244" x2="52.8818" y2="58.0244">
			<stop  offset="0" style="stop-color:#C2C3C3"/>
			<stop  offset="0.1818" style="stop-color:#E7E7E8"/>
			<stop  offset="0.4424" style="stop-color:#F4F4F4"/>
			<stop  offset="0.6424" style="stop-color:#FDFDFD"/>
			<stop  offset="0.8291" style="stop-color:#FFFFFF"/>
			<stop  offset="0.9546" style="stop-color:#E2DDD9"/>
			<stop  offset="1" style="stop-color:#D7CFCA"/>
		</linearGradient>
		<rect x="48.3" y="57.9" class="st68" width="4.6" height="0.3"/>
	</g>
</g>
</svg>
