<?xml version="1.0" encoding="utf-8"?>
<!-- Generator: Adobe Illustrator 18.1.0, SVG Export Plug-In . SVG Version: 6.00 Build 0)  -->
<svg version="1.1" id="图层_1" xmlns="http://www.w3.org/2000/svg" xmlns:xlink="http://www.w3.org/1999/xlink" x="0px" y="0px"
	 width="16px" height="16px" viewBox="0 0 16 16" style="enable-background:new 0 0 16 16;" xml:space="preserve">
<style type="text/css">
	.st0{fill:url(#SVGID_1_);}
	.st1{fill:url(#SVGID_2_);}
	.st2{fill:url(#SVGID_3_);}
	.st3{fill:url(#SVGID_4_);}
	.st4{fill:url(#SVGID_5_);}
	.st5{fill:url(#SVGID_6_);}
	.st6{fill:url(#SVGID_7_);}
	.st7{fill:#FFFFFF;}
	.st8{fill:#1F5FA3;}
</style>
<linearGradient id="SVGID_1_" gradientUnits="userSpaceOnUse" x1="0" y1="-353.9981" x2="59.9997" y2="-353.9981" gradientTransform="matrix(0.2667 0 0 0.2667 0 102.4)">
	<stop  offset="0" style="stop-color:#B9BBBD"/>
	<stop  offset="3.208770e-002" style="stop-color:#B6B8BA"/>
	<stop  offset="5.619587e-002" style="stop-color:#ADAEB1"/>
	<stop  offset="8.827712e-002" style="stop-color:#9D9EA1"/>
	<stop  offset="0.1241" style="stop-color:#C1C1C2"/>
	<stop  offset="0.1924" style="stop-color:#F0F0F0"/>
	<stop  offset="0.2083" style="stop-color:#FBFBFB"/>
	<stop  offset="0.2247" style="stop-color:#FFFFFF"/>
	<stop  offset="0.3015" style="stop-color:#EEEEEF"/>
	<stop  offset="0.3853" style="stop-color:#E3E3E4"/>
	<stop  offset="0.4775" style="stop-color:#DFE0E1"/>
	<stop  offset="0.7191" style="stop-color:#FFFFFF"/>
	<stop  offset="0.779" style="stop-color:#FDFDFD"/>
	<stop  offset="0.8065" style="stop-color:#F6F5F5"/>
	<stop  offset="0.8258" style="stop-color:#EBEAEA"/>
	<stop  offset="0.927" style="stop-color:#797A7D"/>
	<stop  offset="1" style="stop-color:#BEC0C1"/>
</linearGradient>
<path class="st0" d="M13.5,16h-11C1.1,16,0,14.9,0,13.5v-11C0,1.1,1.1,0,2.5,0h11C14.9,0,16,1.1,16,2.5v11C16,14.9,14.9,16,13.5,16z
	"/>
<g>
	
		<linearGradient id="SVGID_2_" gradientUnits="userSpaceOnUse" x1="200.0674" y1="-238.8429" x2="200.0674" y2="-50.4874" gradientTransform="matrix(4.000000e-002 0 0 -4.000000e-002 0 0.64)">
		<stop  offset="0" style="stop-color:#050505"/>
		<stop  offset="1" style="stop-color:#1E1E21"/>
	</linearGradient>
	<path class="st1" d="M7.6,4.4C7.5,4.4,7.5,4.4,7.6,4.4C7.5,4.5,7.5,4.5,7.5,4.5c0,0,0,0,0,0C7.4,4.4,7.5,4.4,7.6,4.4L7.6,4.4z
		 M7.9,4.4C7.9,4.5,7.9,4.4,7.9,4.4c-0.1,0-0.1-0.1-0.1,0C7.9,4.4,7.9,4.4,7.9,4.4C7.9,4.4,7.9,4.4,7.9,4.4z M6.4,6.2
		C6.4,6.2,6.4,6.2,6.4,6.2C6.4,6.3,6.4,6.3,6.4,6.2C6.4,6.3,6.4,6.3,6.4,6.4c0,0,0,0,0,0.1c0,0,0,0,0,0.1c0,0,0,0,0.1,0
		c0,0,0,0,0.1-0.1C6.4,6.4,6.4,6.3,6.4,6.2C6.5,6.3,6.5,6.3,6.4,6.2C6.5,6.3,6.5,6.3,6.4,6.2C6.5,6.3,6.5,6.3,6.4,6.2L6.4,6.2
		C6.5,6.3,6.5,6.3,6.4,6.2C6.5,6.2,6.5,6.2,6.4,6.2L6.4,6.2z M10,7.8c0-0.1-0.1-0.1-0.2-0.2c0,0,0-0.1,0-0.1s0-0.1,0-0.1
		c0,0,0-0.1,0-0.1c0,0,0-0.1,0-0.1s0-0.1,0-0.1c0,0,0,0,0-0.1c0,0,0-0.1,0-0.1s0,0,0-0.1c0-0.1,0-0.1,0-0.1c0-0.1-0.1-0.3-0.2-0.4
		C9.5,6.1,9.4,6,9.3,5.9C9.4,6,9.4,6.1,9.5,6.3c0.2,0.5,0.3,0.8,0.2,1.2c0,0.1-0.1,0.2-0.2,0.2c-0.1,0-0.1,0-0.2-0.1
		c0-0.1,0-0.2,0-0.4s0-0.3,0-0.5c0-0.1-0.1-0.2-0.1-0.3c0-0.1-0.1-0.1-0.1-0.2c0,0,0-0.1-0.1-0.1c0,0,0,0-0.1-0.1c0,0,0,0,0,0
		c0-0.2-0.1-0.3-0.1-0.4c0-0.1-0.1-0.2-0.1-0.2c0,0-0.1-0.1-0.1-0.1c0-0.1-0.1-0.1-0.1-0.2s0-0.1,0-0.2c0-0.1,0-0.2,0-0.2
		S8.5,4.6,8.4,4.6c0,0-0.1,0-0.2-0.1c-0.1,0-0.1-0.1-0.1-0.1c0,0,0,0,0-0.1c0-0.1,0-0.1,0-0.2C8.1,4,8.2,4,8.2,4
		c0.1,0,0.2,0,0.2,0.1c0,0.1,0,0.2,0,0.2c0,0.1,0,0.1,0,0.1s0.1,0,0.1,0c0,0,0.1-0.1,0.1-0.2V4.2c0-0.1,0-0.2-0.1-0.2
		S8.5,3.8,8.5,3.8c0,0-0.1-0.1-0.1-0.1c0,0-0.1,0-0.1,0C8,3.7,7.9,3.9,7.9,4.3c0,0,0,0.1,0,0.1c0,0-0.1,0-0.1,0c-0.1,0-0.1,0-0.1,0
		c0,0-0.1,0-0.1,0c0-0.2,0-0.3-0.1-0.4S7.4,3.8,7.3,3.8s-0.1,0-0.2,0.1C7.1,4,7.1,4,7.1,4.1c0,0,0,0.1,0,0.2c0,0.1,0,0.1,0.1,0.2
		c0,0,0,0.1,0.1,0.1c0,0,0.1,0,0.1-0.1c0,0,0,0,0,0c0,0,0,0-0.1-0.1c0,0,0-0.1,0-0.1c0-0.1,0-0.1,0-0.2C7.2,4,7.3,4,7.3,4
		c0,0,0.1,0,0.1,0.1c0,0.1,0,0.1,0,0.2c0,0.1,0,0.1,0,0.1c-0.1,0-0.1,0.1-0.1,0.1c0,0-0.1,0.1-0.1,0.1s-0.1,0-0.1,0.1
		c0,0-0.1,0.1-0.1,0.1c0,0,0,0.1,0,0.1c0,0,0.1,0,0.1,0.1c0,0,0.1,0.1,0.1,0.1s0,0,0.1,0.1c0,0,0.1,0,0.1,0c0.1,0,0.3,0,0.4-0.1
		c0,0,0,0,0.1,0c0.1,0,0.1,0,0.1,0c0,0,0.1,0,0.1-0.1c0,0,0.1,0,0.1-0.1c0,0,0.1-0.1,0.1,0c0,0,0,0,0,0c0,0,0,0,0,0.1s0,0-0.1,0
		c-0.1,0-0.1,0-0.2,0.1C8.1,5,8,5,8,5.1C7.9,5.1,7.8,5.1,7.7,5.2c-0.1,0-0.2,0-0.3,0c0,0,0,0,0,0s0,0,0.1,0.1
		c0.1,0.1,0.2,0.1,0.3,0.1c0,0,0.1,0,0.2,0c0.1,0,0.1,0,0.2-0.1c0,0,0.1,0,0.1-0.1c0,0,0.1-0.1,0.1-0.1s0.1,0,0.1-0.1
		c0,0,0.1,0,0.1,0c0,0,0,0,0,0c0,0,0,0,0,0c0,0,0,0,0,0c0,0,0,0,0,0c0,0,0,0,0,0s0,0,0,0c0,0,0,0,0,0c0,0,0,0,0,0
		C8.2,5.3,8.1,5.3,8,5.4C7.9,5.5,7.8,5.5,7.7,5.6s-0.1,0-0.2,0c-0.1,0-0.1-0.1-0.3-0.3C7.2,5.2,7.1,5.2,7.1,5.2c0,0,0,0,0,0
		c0,0.1,0,0.1-0.1,0.2C7,5.5,7,5.6,6.9,5.7S6.9,5.8,6.8,5.9c0,0.1,0,0.2,0,0.3c-0.1,0-0.2,0.1-0.3,0.4C6.5,6.8,6.4,7,6.4,7.2
		c0,0.1,0,0.1,0,0.3s0,0.2,0,0.2c0,0.1-0.1,0.1-0.1,0C6.2,7.6,6.1,7.5,6.1,7.3c0-0.1,0-0.2,0-0.2c0-0.1,0-0.1,0-0.1l0,0
		C6,7.2,6,7.5,6.2,7.7c0,0,0,0.1,0.1,0.1c0.1,0,0.1,0.1,0.1,0.1C6.4,8,6.6,8.1,6.8,8.3C7,8.5,7.2,8.6,7.2,8.6c0,0,0.1,0.1,0.1,0.2
		c0,0.1,0,0.1-0.1,0.2C7.2,9,7.1,9.1,7,9.1c0,0,0.1,0.1,0.1,0.2c0.1,0.1,0.1,0.2,0.1,0.2s0,0.2,0,0.3c0.1-0.1,0.1-0.2,0-0.4
		c0,0,0,0,0-0.1c0,0,0,0,0-0.1s0,0,0,0c0,0,0,0,0.1,0s0.1,0,0.1,0C7.5,9.4,7.7,9.4,8,9.4c0.4,0,0.6-0.2,0.7-0.4
		c0.1-0.1,0.1-0.1,0.1-0.1c0,0,0,0.1,0,0.2c0,0.1,0,0.2-0.1,0.4c0,0.1,0,0.1,0,0.2c0,0,0,0.1,0.1,0.1C9,9.7,9,9.6,9,9.4
		C9,9.2,9.1,9.1,9.1,9c0-0.1,0-0.2,0-0.3c0-0.1,0-0.3,0-0.4C9,8.2,9,8.1,9.1,8c0-0.1,0.1-0.1,0.2-0.1c0-0.1,0.1-0.2,0.1-0.2
		c0.1,0,0.2-0.1,0.3,0C9.9,7.7,10,7.7,10,7.8L10,7.8z M7.4,4.3c0,0,0-0.1,0-0.1c0,0,0-0.1,0-0.1c0,0,0,0,0,0c0,0,0,0,0,0
		C7.4,4.1,7.4,4.2,7.4,4.3C7.3,4.3,7.4,4.3,7.4,4.3C7.4,4.3,7.4,4.3,7.4,4.3L7.4,4.3z M9.2,5.1C9.2,5.1,9.1,5.1,9.2,5.1
		C9.1,5,9.1,5,9.2,5.1C9.1,5,9,5,9,5c0,0,0,0,0,0s0,0,0,0c0,0,0,0,0,0c0,0,0,0,0,0c0,0,0,0,0,0c0,0,0,0.1,0,0.2C9,5.2,9,5.2,9.1,5.2
		C9.1,5.2,9.1,5.2,9.2,5.1C9.2,5.2,9.2,5.1,9.2,5.1L9.2,5.1z M8.4,4.2C8.4,4.2,8.4,4.1,8.4,4.2c0-0.1,0-0.1-0.1-0.1c0,0,0,0,0,0
		c0,0,0,0,0,0l0,0C8.3,4.1,8.4,4.2,8.4,4.2C8.4,4.2,8.4,4.2,8.4,4.2L8.4,4.2z M8.6,3.2C8.6,3.2,8.6,3.2,8.6,3.2
		C8.6,3.2,8.6,3.2,8.6,3.2C8.6,3.2,8.6,3.2,8.6,3.2C8.5,3.1,8.5,3.1,8.5,3.1c0,0,0,0,0,0c0,0,0,0,0,0.1s0,0,0,0.1c0,0,0,0,0,0
		c0,0,0,0,0,0c0,0,0,0,0,0c0,0,0,0,0,0c0,0,0,0,0,0c0,0,0,0,0.1,0c0,0,0,0,0,0C8.6,3.3,8.6,3.3,8.6,3.2C8.6,3.3,8.6,3.2,8.6,3.2
		L8.6,3.2z M11,8.9c0.1,0,0.1,0.1,0.1,0.1c0,0,0,0.1,0.1,0.1c0,0,0,0.1,0,0.1c0,0,0,0.1-0.1,0.1c0,0-0.1,0.1-0.1,0.1s-0.1,0-0.1,0.1
		c-0.1,0-0.1,0.1-0.1,0.1c0,0-0.1,0-0.1,0.1c-0.1,0-0.1,0-0.1,0.1c-0.1,0.1-0.2,0.1-0.4,0.2C10,9.9,9.9,10,9.8,10.1
		c0,0-0.1,0.1-0.3,0.1c-0.1,0-0.3,0-0.4-0.1c-0.1,0-0.1-0.1-0.1-0.1C9,10,9,10,9,9.9c0,0,0-0.1-0.1-0.1c0,0-0.1,0-0.2,0
		c-0.1,0-0.3,0-0.5,0c-0.1,0-0.1,0-0.2,0c-0.1,0-0.2,0-0.2,0c-0.1,0-0.2,0-0.3,0.1C7.2,9.9,7.2,10,7.1,10c-0.1,0-0.1,0.1-0.2,0.1
		c-0.1,0-0.1,0.1-0.2,0c-0.1,0-0.2,0-0.5-0.1C6,10,5.8,9.9,5.6,9.9c-0.1,0-0.1,0-0.2,0c-0.1,0-0.2,0-0.2,0c-0.1,0-0.1,0-0.2,0
		c-0.1,0-0.1,0-0.1-0.1c0,0-0.1-0.1-0.1-0.1c0-0.1,0-0.2,0-0.3s0.1-0.2,0.1-0.2c0,0,0-0.1,0-0.2c0-0.1,0-0.1,0-0.2
		c0-0.1,0-0.1,0-0.2c0-0.1,0-0.1,0-0.1c0,0,0.1-0.1,0.2-0.1c0.1,0,0.2,0,0.3-0.1c0.1-0.1,0.1-0.1,0.2-0.1c0,0,0.1-0.1,0.1-0.2
		c0.1,0.2,0,0.4-0.1,0.4C5.4,8.5,5.3,8.5,5.1,8.5c-0.1,0-0.2,0-0.2,0c0,0,0,0.1,0,0.2c0,0,0,0,0,0.1c0,0,0,0.1,0,0.1c0,0,0,0,0,0.1
		c0,0,0,0.1,0,0.1c0,0,0,0.1-0.1,0.2S4.9,9.5,4.9,9.5c0,0,0.1,0.1,0.2,0.1c0.1,0,0.2,0,0.4,0.1c0.2,0,0.3,0.1,0.4,0.1
		c0.1,0,0.2,0,0.3,0.1c0.1,0,0.3,0.1,0.3,0.1c0.1,0,0.2,0,0.2,0C6.9,10,7,9.9,7,9.9s0.1-0.1,0.1-0.2c0-0.1,0-0.2,0-0.2
		C7.1,9.3,7,9.3,7,9.2S6.9,9.1,6.9,9.1C6.6,8.5,6.3,8.2,6.2,8C6,7.8,5.9,7.8,5.7,7.9c0,0-0.1,0-0.1-0.1c0,0,0-0.1,0-0.2
		c0-0.1,0-0.2,0-0.2s0.1-0.1,0.1-0.2c0-0.1,0.1-0.1,0.1-0.2C5.9,7,6,6.9,6,6.8c0.1-0.1,0.1-0.3,0.1-0.3s0.1-0.2,0.1-0.3
		C6.3,6.1,6.4,6,6.4,5.9c0.3-0.4,0.5-0.7,0.5-0.8c0-0.3-0.1-0.7-0.1-1.3c0-0.3,0-0.5,0.1-0.6C7,3,7.2,2.9,7.4,2.7
		c0.1-0.1,0.3-0.1,0.4-0.1c0.1,0,0.3,0,0.4,0.1c0.1,0,0.3,0.1,0.4,0.2C8.8,3,9,3.2,9.1,3.4C9.2,3.6,9.2,3.8,9.2,4
		c0,0.3,0,0.6,0.1,0.9c0.1,0.3,0.3,0.6,0.6,0.9C10,6,10.2,6.2,10.3,6.5c0.1,0.3,0.2,0.6,0.3,0.8c0,0.1,0,0.3,0,0.4s0,0.2-0.1,0.2
		C10.5,8,10.5,8,10.4,8c0,0-0.1,0-0.1,0.1c0,0-0.1,0.1-0.1,0.1c0,0.1-0.1,0.1-0.2,0.1S9.9,8.4,9.8,8.4c-0.1,0-0.1,0-0.1,0
		c0,0-0.1,0-0.1-0.1c0,0,0,0-0.1-0.1s0,0,0-0.1c0,0,0-0.1,0-0.1C9.4,8,9.3,8,9.2,8C9.2,8,9.2,8.1,9.1,8.2c0,0.1,0,0.3,0,0.4
		c0.1,0.2,0.1,0.5,0,0.8c0,0.2,0,0.3,0.1,0.4C9.3,10,9.4,10,9.5,10c0.1,0,0.2-0.1,0.4-0.1c0.2-0.1,0.3-0.2,0.4-0.3
		c0.1,0,0.2-0.1,0.4-0.2C10.9,9.3,11,9.3,11,9.2c0.1-0.1,0.1-0.1,0.1-0.1S11.1,9,11,9c-0.1,0-0.1-0.1-0.2-0.1
		c-0.1,0-0.2-0.1-0.2-0.2c0-0.1-0.1-0.2-0.1-0.3c0-0.1,0-0.2,0.1-0.2c0,0.1,0,0.2,0,0.2c0,0.1,0,0.1,0.1,0.2c0,0,0,0.1,0.1,0.1
		s0.1,0.1,0.1,0.1C10.9,8.8,10.9,8.8,11,8.9C11,8.8,11,8.9,11,8.9L11,8.9z"/>
	<g>
		
			<linearGradient id="SVGID_3_" gradientUnits="userSpaceOnUse" x1="84.95" y1="-315.8" x2="84.95" y2="-240.7" gradientTransform="matrix(4.000000e-002 0 0 -4.000000e-002 0 0.64)">
			<stop  offset="0" style="stop-color:#050505"/>
			<stop  offset="1" style="stop-color:#1E1E21"/>
		</linearGradient>
		<path class="st2" d="M4.8,12.2l-0.2,1H2v-0.1c0.1,0,0.2,0,0.3-0.1c0.1,0,0.1-0.1,0.1-0.2v-2.1c0-0.1,0-0.2-0.1-0.2
			c0,0-0.1,0-0.3-0.1v-0.1h1.6v0.1c-0.2,0-0.3,0-0.4,0.1c-0.1,0-0.1,0.2-0.1,0.3v2.1c0,0.1,0,0.2,0.1,0.2c0,0,0.1,0,0.3,0
			c0.3,0,0.5-0.1,0.7-0.2c0.2-0.1,0.3-0.3,0.4-0.6L4.8,12.2L4.8,12.2z"/>
		
			<linearGradient id="SVGID_4_" gradientUnits="userSpaceOnUse" x1="142.25" y1="-315.8" x2="142.25" y2="-239.1" gradientTransform="matrix(4.000000e-002 0 0 -4.000000e-002 0 0.64)">
			<stop  offset="0" style="stop-color:#050505"/>
			<stop  offset="1" style="stop-color:#1E1E21"/>
		</linearGradient>
		<path class="st3" d="M6.3,13.3H5.1v-0.1c0.2,0,0.3-0.1,0.3-0.2v-1.3c0-0.1-0.1-0.1-0.2-0.2v-0.1L6,11.2v1.8c0,0.1,0.1,0.2,0.2,0.2
			V13.3z M6.1,10.6c0,0.1,0,0.2-0.1,0.3C5.9,10.9,5.8,11,5.7,11c-0.1,0-0.2,0-0.3-0.1c-0.1-0.1-0.1-0.2-0.1-0.3
			c0-0.3,0.1-0.4,0.4-0.4c0.1,0,0.2,0,0.3,0.1C6.1,10.4,6.1,10.5,6.1,10.6z"/>
		
			<linearGradient id="SVGID_5_" gradientUnits="userSpaceOnUse" x1="194.75" y1="-315.8" x2="194.75" y2="-262.8" gradientTransform="matrix(4.000000e-002 0 0 -4.000000e-002 0 0.64)">
			<stop  offset="0" style="stop-color:#050505"/>
			<stop  offset="1" style="stop-color:#1E1E21"/>
		</linearGradient>
		<path class="st4" d="M9,13.3H7.9v-0.1c0.2,0,0.2-0.1,0.2-0.2v-1.1c0-0.2-0.1-0.4-0.2-0.4c-0.1,0-0.3,0.1-0.4,0.2c0,0,0,0,0,0.1
			v1.2c0,0.1,0.1,0.2,0.2,0.2v0.1H6.6v-0.1c0.1,0,0.2,0,0.2-0.1c0,0,0.1-0.1,0.1-0.2v-1.3c0-0.1-0.1-0.1-0.2-0.1v-0.1l0.8-0.2v0.3
			c0.1-0.2,0.4-0.3,0.6-0.3c0.2,0,0.3,0.1,0.5,0.2c0.1,0.1,0.2,0.3,0.2,0.5v1.1c0,0.1,0.1,0.2,0.2,0.2L9,13.3L9,13.3z"/>
		
			<linearGradient id="SVGID_6_" gradientUnits="userSpaceOnUse" x1="259.75" y1="-317.5" x2="259.75" y2="-262.8" gradientTransform="matrix(4.000000e-002 0 0 -4.000000e-002 0 0.64)">
			<stop  offset="0" style="stop-color:#050505"/>
			<stop  offset="1" style="stop-color:#1E1E21"/>
		</linearGradient>
		<path class="st5" d="M11.5,13.2c-0.2,0-0.4,0-0.5,0.1c-0.2,0-0.3,0.1-0.4,0.1v-0.3c-0.2,0.2-0.4,0.3-0.6,0.3
			c-0.2,0-0.3-0.1-0.5-0.2c-0.1-0.1-0.2-0.3-0.2-0.5v-1.1c0-0.1-0.1-0.1-0.2-0.1v-0.1l0.8-0.2v1.6c0,0.2,0.1,0.3,0.2,0.3
			c0.1,0,0.2-0.1,0.4-0.2v-1.3c0-0.1-0.1-0.1-0.2-0.1v-0.1l0.8-0.2v1.7c0,0.1,0.1,0.2,0.3,0.2V13.2z"/>
		
			<linearGradient id="SVGID_7_" gradientUnits="userSpaceOnUse" x1="322.15" y1="-315.8" x2="322.15" y2="-264.4999" gradientTransform="matrix(4.000000e-002 0 0 -4.000000e-002 0 0.64)">
			<stop  offset="0" style="stop-color:#050505"/>
			<stop  offset="1" style="stop-color:#1E1E21"/>
		</linearGradient>
		<path class="st6" d="M14,13.3h-1.2v-0.1c0.1,0,0.2,0,0.2-0.1c0,0-0.1-0.2-0.3-0.5l-0.3,0.4c0,0-0.1,0.1-0.1,0.1
			c0,0,0.1,0.1,0.2,0.1v0.1h-0.8v-0.1c0.1,0,0.2-0.1,0.3-0.2l0.4-0.6L12,11.5c-0.1-0.1-0.2-0.2-0.3-0.2v-0.1H13v0.1
			c-0.2,0-0.2,0-0.2,0.1c0,0,0.1,0.2,0.3,0.5l0.3-0.3c0,0,0-0.1,0-0.1c0,0,0-0.1-0.1-0.1c0,0,0,0-0.1,0v-0.1h0.8v0.1
			c-0.1,0-0.2,0.1-0.3,0.2l-0.5,0.5l0.7,1c0,0.1,0.1,0.1,0.2,0.1C14,13.1,14,13.3,14,13.3z"/>
	</g>
</g>
<path class="st7" d="M11,8.6l0.1,0.1l0,0.1l-0.1,0.1L10.9,9l-0.3,0.1c0,0,0-0.2,0-0.2C10.6,8.9,10.9,8.6,11,8.6L11,8.6z"/>
<polygon class="st8" points="7.9,5 8.4,4.8 8.4,4.8 7.9,5 "/>
</svg>
