<?xml version="1.0" encoding="utf-8"?>
<!-- Generator: Adobe Illustrator 18.1.0, SVG Export Plug-In . SVG Version: 6.00 Build 0)  -->
<svg version="1.1" id="图层_1" xmlns="http://www.w3.org/2000/svg" xmlns:xlink="http://www.w3.org/1999/xlink" x="0px" y="0px"
	 width="16px" height="16px" viewBox="-11 13 16 16" style="enable-background:new -11 13 16 16;" xml:space="preserve">
<style type="text/css">
	.st0{fill:url(#SVGID_1_);}
	.st1{fill:url(#SVGID_2_);}
	.st2{fill:url(#SVGID_3_);}
	.st3{fill:#FFFFFF;}
</style>
<g>
	
		<linearGradient id="SVGID_1_" gradientUnits="userSpaceOnUse" x1="19.2448" y1="97.243" x2="79.2373" y2="97.243" gradientTransform="matrix(0.2667 0 0 0.2667 -16.1326 -4.9347)">
		<stop  offset="0" style="stop-color:#B9BBBD"/>
		<stop  offset="3.208770e-002" style="stop-color:#B6B8BA"/>
		<stop  offset="5.619587e-002" style="stop-color:#ADAEB1"/>
		<stop  offset="8.827712e-002" style="stop-color:#9D9EA1"/>
		<stop  offset="0.1241" style="stop-color:#C1C1C2"/>
		<stop  offset="0.1924" style="stop-color:#F0F0F0"/>
		<stop  offset="0.2083" style="stop-color:#FBFBFB"/>
		<stop  offset="0.2247" style="stop-color:#FFFFFF"/>
		<stop  offset="0.3015" style="stop-color:#EEEEEF"/>
		<stop  offset="0.3853" style="stop-color:#E3E3E4"/>
		<stop  offset="0.4775" style="stop-color:#DFE0E1"/>
		<stop  offset="0.7191" style="stop-color:#FFFFFF"/>
		<stop  offset="0.779" style="stop-color:#FDFDFD"/>
		<stop  offset="0.8065" style="stop-color:#F6F5F5"/>
		<stop  offset="0.8258" style="stop-color:#EBEAEA"/>
		<stop  offset="0.927" style="stop-color:#797A7D"/>
		<stop  offset="1" style="stop-color:#BEC0C1"/>
	</linearGradient>
	<path class="st0" d="M2.5,29h-11c-1.4,0-2.5-1.1-2.5-2.5v-11c0-1.4,1.1-2.5,2.5-2.5h11C3.9,13,5,14.1,5,15.5v11
		C5,27.9,3.9,29,2.5,29z"/>
	<g>
		
			<linearGradient id="SVGID_2_" gradientUnits="userSpaceOnUse" x1="49.2411" y1="111.1013" x2="49.2411" y2="103.3013" gradientTransform="matrix(0.2667 0 0 0.2667 -16.1326 -4.9347)">
			<stop  offset="0" style="stop-color:#050505"/>
			<stop  offset="1" style="stop-color:#1E1E21"/>
		</linearGradient>
		<path class="st1" d="M2,24.7H-8c-0.2,0-0.4-0.2-0.4-0.4V23c0-0.2,0.2-0.4,0.4-0.4H2c0.2,0,0.4,0.2,0.4,0.4v1.3
			C2.3,24.5,2.2,24.7,2,24.7z"/>
		
			<linearGradient id="SVGID_3_" gradientUnits="userSpaceOnUse" x1="49.3798" y1="101.7739" x2="49.3798" y2="83.3739" gradientTransform="matrix(0.2667 0 0 0.2667 -16.1326 -4.9347)">
			<stop  offset="0" style="stop-color:#050505"/>
			<stop  offset="1" style="stop-color:#1E1E21"/>
		</linearGradient>
		<path class="st2" d="M1.8,22.2h-9.6c-0.3,0-0.5-0.3-0.4-0.7l1-3.7c0.1-0.2,0.3-0.5,0.6-0.5h7.3c0.2,0,0.5,0.2,0.6,0.5l1,3.7
			C2.3,21.9,2.1,22.2,1.8,22.2z"/>
		<rect x="1" y="23.3" class="st3" width="0.8" height="0.8"/>
		<rect x="-0.1" y="23.3" class="st3" width="0.8" height="0.8"/>
		<rect x="-1.1" y="23.3" class="st3" width="0.8" height="0.8"/>
	</g>
</g>
</svg>
