<?xml version="1.0" encoding="utf-8"?>
<!-- Generator: Adobe Illustrator 18.1.0, SVG Export Plug-In . SVG Version: 6.00 Build 0)  -->
<svg version="1.1" id="图层_1" xmlns="http://www.w3.org/2000/svg" xmlns:xlink="http://www.w3.org/1999/xlink" x="0px" y="0px"
	 width="16px" height="16px" viewBox="0 0 16 16" style="enable-background:new 0 0 16 16;" xml:space="preserve">
<style type="text/css">
	.st0{fill:url(#SVGID_1_);}
	.st1{fill:url(#SVGID_2_);}
</style>
<g>
	
		<linearGradient id="SVGID_1_" gradientUnits="userSpaceOnUse" x1="0" y1="-14" x2="60" y2="-14" gradientTransform="matrix(0.2667 0 0 -0.2667 0 4.2667)">
		<stop  offset="0" style="stop-color:#B9BBBD"/>
		<stop  offset="3.208770e-002" style="stop-color:#B6B8BA"/>
		<stop  offset="5.619587e-002" style="stop-color:#ADAEB1"/>
		<stop  offset="8.827712e-002" style="stop-color:#9D9EA1"/>
		<stop  offset="0.1241" style="stop-color:#C1C1C2"/>
		<stop  offset="0.1924" style="stop-color:#F0F0F0"/>
		<stop  offset="0.2083" style="stop-color:#FBFBFB"/>
		<stop  offset="0.2247" style="stop-color:#FFFFFF"/>
		<stop  offset="0.3015" style="stop-color:#EEEEEF"/>
		<stop  offset="0.3853" style="stop-color:#E3E3E4"/>
		<stop  offset="0.4775" style="stop-color:#DFE0E1"/>
		<stop  offset="0.7191" style="stop-color:#FFFFFF"/>
		<stop  offset="0.779" style="stop-color:#FDFDFD"/>
		<stop  offset="0.8065" style="stop-color:#F6F5F5"/>
		<stop  offset="0.8258" style="stop-color:#EBEAEA"/>
		<stop  offset="0.927" style="stop-color:#797A7D"/>
		<stop  offset="1" style="stop-color:#BEC0C1"/>
	</linearGradient>
	<path class="st0" d="M13.5,16h-11C1.1,16,0,14.9,0,13.5v-11C0,1.1,1.1,0,2.5,0h11C14.9,0,16,1.1,16,2.5v11C16,14.9,14.9,16,13.5,16
		z"/>
	
		<linearGradient id="SVGID_2_" gradientUnits="userSpaceOnUse" x1="5" y1="-14.0274" x2="55" y2="-14.0274" gradientTransform="matrix(0.2667 0 0 -0.2667 0 4.2667)">
		<stop  offset="0" style="stop-color:#050505"/>
		<stop  offset="1" style="stop-color:#1E1E21"/>
	</linearGradient>
	<path class="st1" d="M10.9,5.7l-0.1-0.2c0-0.1-0.1-0.1-0.1-0.1l0,0l0,0c0.1,0,0.1,0,0.1,0c0,0,0.1,0.1,0.1,0.1c0,0,0,0.1,0,0.1
		C11,5.6,10.9,5.7,10.9,5.7L10.9,5.7L10.9,5.7z M14.3,9.2C14.2,9.1,14.1,9,13.9,9c-0.1-0.1-0.1-0.1-0.2-0.2
		c-0.1-0.1-0.1-0.1-0.2-0.2c0,0,0-0.1-0.1-0.1c0-0.1,0.1-0.1,0.1-0.1c0.2-0.1,0.4-0.1,0.7-0.1c0-0.1-0.2-0.2-0.2-0.2
		c-0.1-0.1-0.2-0.2-0.3-0.2c-0.1,0-0.2-0.1-0.2-0.1c-0.1,0-0.3-0.1-0.3-0.1C13,7.5,13,7.4,12.9,7.2c-0.1-0.2-0.2-0.3-0.2-0.5
		c0-0.1-0.1-0.2-0.1-0.2c-0.2-0.5-0.6-0.9-1.1-1.1c-0.1-0.1-0.3-0.2-0.5-0.2c-0.1,0-0.2,0-0.3,0h-0.1c-0.1,0-0.1-0.1-0.2-0.1
		c-0.1-0.1-0.2-0.1-0.3-0.2c-0.1,0-0.2-0.1-0.2,0c-0.1-0.1-0.1,0-0.1,0c0,0,0,0.1,0,0.1C9.9,5,10,5.1,10.1,5.2
		c0.1,0.1,0.1,0.2,0.2,0.3c0.1,0.2,0.1,0.4,0.2,0.6c0,0.1,0.1,0.2,0.1,0.2c0,0.1,0.1,0.1,0.1,0.2c0.1,0.1-0.1,0.3-0.1,0.4
		c-0.1,0.3-0.1,0.7,0,0.9c0,0.1,0.1,0.2,0.2,0.2c0,0,0,0,0,0c0-0.2,0-0.4,0.1-0.5c0-0.1,0.1-0.2,0.2-0.2c0,0,0,0.1,0.1,0.1
		c0.1,0.1,0.1,0.2,0.2,0.3c0.1,0.2,0.2,0.4,0.4,0.6c0.1,0.1,0.1,0.1,0.2,0.2c0,0,0.1,0,0.1,0.1l0,0l0,0c-0.1,0-0.2-0.1-0.2-0.2
		c-0.2-0.1-0.3-0.3-0.5-0.5l-0.1-0.3l0,0c0,0,0,0.1,0,0.1c-0.1,0.2,0,0.3-0.2,0.4c-0.2,0.1-0.3-0.1-0.3-0.2
		c-0.2-0.3-0.2-0.7-0.1-1.1c0-0.1,0-0.2,0.1-0.2c0-0.1-0.1-0.1-0.1-0.1c-0.1-0.1-0.1-0.1-0.1-0.2c-0.1-0.1-0.1-0.3-0.2-0.5
		c-0.1-0.2-0.1-0.2-0.1-0.3C10.1,5.4,10,5.3,9.9,5.3C9.9,5.2,9.6,5,9.7,4.7c0.1-0.3,0.6-0.1,0.8,0c0.1,0,0.1,0.1,0.2,0.1l0.3,0
		c0.2,0,0.3,0.1,0.4,0.1c0.6,0.3,1,0.7,1.3,1.3c0.1,0.1,0.1,0.2,0.2,0.4c0.1,0.2,0.2,0.4,0.3,0.6c0.1,0.1,0.1,0.2,0.1,0.3
		c0,0,0.1,0.1,0.1,0.1c0.1,0.1,0.2,0.1,0.3,0.2c0.2,0.1,0.4,0.3,0.6,0.4c0.1,0.1,0.1,0.1,0.2,0.2v0c-0.1,0-0.1,0-0.2,0.1
		c-0.1,0-0.2,0-0.3,0.1c-0.1,0-0.2,0.1-0.2,0.1l0,0c0.1,0.1,0.3,0.2,0.4,0.3c0.1,0.1,0.3,0.2,0.3,0.3l0.1,0.1c0,0,0,0.1,0.1,0.1l0,0
		c-0.1,0-0.1-0.1-0.1-0.1C14.5,9.3,14.4,9.2,14.3,9.2L14.3,9.2z M10.1,8.8H11c0.1,0,0.1,0,0.1,0c0.4,0.1,0.6,0.2,0.6,0.5v1
		c0,0.2-0.1,0.3-0.3,0.4l0.4,0.4h-0.5L11,10.8l-0.3,0h-0.5c-0.1,0-0.2,0-0.3,0c-0.3-0.1-0.4-0.2-0.4-0.5v-1C9.4,9,9.6,8.9,10,8.8
		C10.1,8.8,10.1,8.8,10.1,8.8L10.1,8.8z M9.9,10.3C9.9,10.3,9.9,10.3,9.9,10.3c0,0.2,0.1,0.2,0.3,0.2h0.4l-0.4-0.3h0.5l0.3,0.3
		c0.1,0,0.1-0.1,0.1-0.1c0,0,0,0,0-0.1v-1v0c0-0.1-0.1-0.2-0.3-0.2h-0.7c-0.2,0-0.3,0.1-0.3,0.2V10.3L9.9,10.3z M7.9,9.1
		c-0.2,0-0.2,0-0.2,0.1c0,0,0,0,0,0v0.2c0,0,0,0,0,0c0,0.1,0.1,0.2,0.3,0.2h0.5c0.1,0,0.3,0,0.4,0.1C9.1,9.8,9.2,9.9,9.2,10v0.3
		c0,0.2-0.1,0.3-0.3,0.3c-0.1,0.1-0.3,0.1-0.4,0.1H7.2v-0.3h1.2c0,0,0,0,0.1,0c0.1,0,0.2,0,0.2-0.1c0.1,0,0.1-0.1,0.1-0.1V10
		c0,0,0-0.1,0-0.1C8.6,9.9,8.6,9.9,8.5,9.9c0,0,0,0-0.1,0H7.9c-0.1,0-0.1,0-0.1,0c-0.4,0-0.6-0.2-0.6-0.4V9.2c0-0.2,0.1-0.3,0.4-0.4
		c0.1,0,0.2,0,0.3,0h1.3V9L7.9,9.1C7.9,9.1,7.9,9.1,7.9,9.1L7.9,9.1z M6.2,11.4H4.8v-0.3h1.4c0.3,0,0.2-0.2,0.2-0.2v-0.1H5.5
		c-0.4,0-0.7-0.2-0.7-0.4c0,0,0-1,0-1h0.5v1c0,0.1,0,0.2,0.3,0.2c0.1,0,1,0,1,0V9.4h0.5V11C6.9,11.4,6.4,11.4,6.2,11.4L6.2,11.4z
		 M3.9,9.1l-0.7,1.5c-0.1,0.2-0.2,0.2-0.4,0.2s-0.3-0.1-0.4-0.2L1.8,9.1v1.7H1.3V9.1c0-0.2,0.1-0.2,0.2-0.3c0.3-0.1,0.6,0,0.7,0.2
		l0.6,1.5L3.5,9c0.1-0.2,0.3-0.3,0.7-0.2c0.1,0.1,0.2,0.1,0.2,0.3v1.7H3.9V9.1z M12.4,10.3c0,0.2,0.1,0.2,0.3,0.2h1.1v0.3h-1.1
		c-0.1,0-0.1,0-0.1,0c-0.5,0-0.7-0.2-0.7-0.5V8.8h0.5V10.3L12.4,10.3z"/>
</g>
</svg>
