<?xml version="1.0" encoding="utf-8"?>
<!-- Generator: Adobe Illustrator 18.1.0, SVG Export Plug-In . SVG Version: 6.00 Build 0)  -->
<svg version="1.1" id="图层_1" xmlns="http://www.w3.org/2000/svg" xmlns:xlink="http://www.w3.org/1999/xlink" x="0px" y="0px"
	 width="16px" height="16px" viewBox="0 0 16 16" style="enable-background:new 0 0 16 16;" xml:space="preserve">
<style type="text/css">
	.st0{fill:url(#SVGID_1_);}
	.st1{fill:url(#SVGID_2_);}
	.st2{fill:url(#SVGID_3_);}
	.st3{fill:url(#SVGID_4_);}
	.st4{fill:url(#SVGID_5_);}
	.st5{fill:url(#SVGID_6_);}
	.st6{fill:url(#SVGID_7_);}
	.st7{fill:url(#SVGID_8_);}
	.st8{fill:url(#SVGID_9_);}
	.st9{fill:url(#SVGID_10_);}
	.st10{fill:url(#SVGID_11_);}
	.st11{fill:url(#SVGID_12_);}
	.st12{fill:url(#SVGID_13_);}
	.st13{fill:url(#SVGID_14_);}
	.st14{fill:url(#SVGID_15_);}
</style>
<g>
	
		<linearGradient id="SVGID_1_" gradientUnits="userSpaceOnUse" x1="0" y1="-14" x2="60" y2="-14" gradientTransform="matrix(0.2667 0 0 -0.2667 0 4.2667)">
		<stop  offset="0" style="stop-color:#B9BBBD"/>
		<stop  offset="3.208770e-002" style="stop-color:#B6B8BA"/>
		<stop  offset="5.619587e-002" style="stop-color:#ADAEB1"/>
		<stop  offset="8.827712e-002" style="stop-color:#9D9EA1"/>
		<stop  offset="0.1241" style="stop-color:#C1C1C2"/>
		<stop  offset="0.1924" style="stop-color:#F0F0F0"/>
		<stop  offset="0.2083" style="stop-color:#FBFBFB"/>
		<stop  offset="0.2247" style="stop-color:#FFFFFF"/>
		<stop  offset="0.3015" style="stop-color:#EEEEEF"/>
		<stop  offset="0.3853" style="stop-color:#E3E3E4"/>
		<stop  offset="0.4775" style="stop-color:#DFE0E1"/>
		<stop  offset="0.7191" style="stop-color:#FFFFFF"/>
		<stop  offset="0.779" style="stop-color:#FDFDFD"/>
		<stop  offset="0.8065" style="stop-color:#F6F5F5"/>
		<stop  offset="0.8258" style="stop-color:#EBEAEA"/>
		<stop  offset="0.927" style="stop-color:#797A7D"/>
		<stop  offset="1" style="stop-color:#BEC0C1"/>
	</linearGradient>
	<path class="st0" d="M13.5,16h-11C1.1,16,0,14.9,0,13.5v-11C0,1.1,1.1,0,2.5,0h11C14.9,0,16,1.1,16,2.5v11C16,14.9,14.9,16,13.5,16
		z"/>
	<g>
		
			<linearGradient id="SVGID_2_" gradientUnits="userSpaceOnUse" x1="41.3263" y1="-22.6865" x2="50.4992" y2="-22.6865" gradientTransform="matrix(0.2667 0 0 -0.2667 0 4.2667)">
			<stop  offset="0" style="stop-color:#050505"/>
			<stop  offset="1" style="stop-color:#1E1E21"/>
		</linearGradient>
		<path class="st1" d="M12.1,11.5c-0.1,0-0.2-0.1-0.3-0.1c-0.5-0.2-0.8-0.6-0.8-1.2c0-0.6,0.4-1,1-1.1c0.6-0.1,1.2,0.1,1.4,0.7
			c0.2,0.6,0,1.3-0.7,1.6c-0.1,0-0.2,0.1-0.3,0.1c0,0,0,0-0.1,0C12.3,11.5,12.2,11.5,12.1,11.5z M12.9,10.3c0-0.3-0.3-0.6-0.6-0.6
			c-0.3,0-0.6,0.3-0.6,0.6s0.3,0.6,0.6,0.6C12.6,10.9,12.9,10.7,12.9,10.3z"/>
		
			<linearGradient id="SVGID_3_" gradientUnits="userSpaceOnUse" x1="24.2812" y1="-22.7" x2="30.2631" y2="-22.7" gradientTransform="matrix(0.2667 0 0 -0.2667 0 4.2667)">
			<stop  offset="0" style="stop-color:#050505"/>
			<stop  offset="1" style="stop-color:#1E1E21"/>
		</linearGradient>
		<path class="st2" d="M6.9,11.5c-0.1,0-0.2,0-0.3,0c-0.1,0-0.1,0-0.1,0c0,0,0,0,0,0c0-0.2,0-0.3,0-0.5c0,0,0.1,0,0.1,0
			C6.8,11,7,11,7.2,11c0.1,0,0.1,0,0.2-0.1c0.1-0.1,0.2-0.2,0-0.3c-0.1,0-0.1-0.1-0.2-0.1c-0.1-0.1-0.2-0.1-0.3-0.1
			c-0.3-0.1-0.4-0.3-0.4-0.6c0-0.3,0.2-0.5,0.4-0.6C7,9.1,7.2,9.1,7.3,9.1c0.2,0,0.3,0.1,0.5,0.1c0,0,0.1,0,0.1,0c0,0.2,0,0.3,0,0.5
			c-0.1,0-0.2,0-0.3-0.1c-0.1,0-0.3,0-0.4,0c0,0-0.1,0-0.1,0.1c-0.1,0.1-0.1,0.2,0,0.2C7.2,9.9,7.3,10,7.3,10
			c0.1,0.1,0.2,0.1,0.3,0.1c0.2,0.1,0.3,0.2,0.4,0.5c0.1,0.3-0.1,0.7-0.4,0.8c-0.1,0.1-0.2,0.1-0.3,0.1c0,0,0,0-0.1,0
			C7.1,11.5,7,11.5,6.9,11.5z"/>
		
			<linearGradient id="SVGID_4_" gradientUnits="userSpaceOnUse" x1="9.5062" y1="-22.848" x2="16.1268" y2="-22.848" gradientTransform="matrix(0.2667 0 0 -0.2667 0 4.2667)">
			<stop  offset="0" style="stop-color:#050505"/>
			<stop  offset="1" style="stop-color:#1E1E21"/>
		</linearGradient>
		<path class="st3" d="M3.7,11.5c-0.1,0-0.2,0-0.3-0.1c-0.5-0.2-0.9-0.7-0.8-1.2s0.4-1,1-1.1c0.3-0.1,0.5,0,0.8,0.1c0,0,0,0,0,0.1
			c0,0.2,0,0.4,0,0.6c0,0-0.1,0-0.1,0C4.1,9.8,3.8,9.7,3.6,9.8c-0.3,0.1-0.4,0.3-0.4,0.6c0,0.3,0.2,0.5,0.5,0.6c0.2,0,0.3,0,0.5-0.1
			c0,0,0.1,0,0.1,0c0,0,0,0.1,0,0.1c0,0.2,0,0.3,0,0.5c0,0.1,0,0.1-0.1,0.1c-0.1,0-0.2,0-0.3,0.1c0,0,0,0-0.1,0
			C3.8,11.5,3.7,11.5,3.7,11.5z"/>
		
			<linearGradient id="SVGID_5_" gradientUnits="userSpaceOnUse" x1="32.3867" y1="-22.7304" x2="39.01" y2="-22.7304" gradientTransform="matrix(0.2667 0 0 -0.2667 0 4.2667)">
			<stop  offset="0" style="stop-color:#050505"/>
			<stop  offset="1" style="stop-color:#1E1E21"/>
		</linearGradient>
		<path class="st4" d="M9.7,11.5c-0.1,0-0.1,0-0.2,0c-0.5-0.1-0.9-0.5-0.9-1C8.5,9.8,9,9.3,9.6,9.1c0.2,0,0.5,0,0.7,0.1
			c0.1,0,0.1,0,0.1,0.1c0,0.2,0,0.4,0,0.6c0,0-0.1,0-0.1,0c-0.2-0.1-0.5-0.1-0.7-0.1c-0.2,0.1-0.4,0.3-0.4,0.6
			c0,0.3,0.2,0.5,0.5,0.6c0.2,0.1,0.4,0,0.6-0.1c0,0,0,0,0.1,0c0,0,0,0,0,0.1c0,0.2,0,0.3,0,0.5c0,0,0,0.1-0.1,0.1
			c-0.1,0-0.2,0-0.3,0.1c0,0,0,0-0.1,0C9.9,11.5,9.8,11.5,9.7,11.5z"/>
		
			<linearGradient id="SVGID_6_" gradientUnits="userSpaceOnUse" x1="16.9683" y1="-7.65" x2="19.1135" y2="-7.65" gradientTransform="matrix(0.2667 0 0 -0.2667 0 4.2667)">
			<stop  offset="0" style="stop-color:#050505"/>
			<stop  offset="1" style="stop-color:#1E1E21"/>
		</linearGradient>
		<path class="st5" d="M4.9,4.5C4.9,4.5,5,4.5,5,4.6c0.1,0.1,0.1,0.1,0.1,0.2c0,1,0,2.1,0,3.1C5.1,8,5,8.1,4.8,8.1
			C4.6,8.1,4.5,8,4.5,7.8c0-0.3,0-0.6,0-1c0-0.7,0-1.4,0-2.1c0-0.2,0.1-0.3,0.2-0.3l0,0C4.8,4.5,4.8,4.5,4.9,4.5z"/>
		
			<linearGradient id="SVGID_7_" gradientUnits="userSpaceOnUse" x1="40.8891" y1="-7.65" x2="43.0305" y2="-7.65" gradientTransform="matrix(0.2667 0 0 -0.2667 0 4.2667)">
			<stop  offset="0" style="stop-color:#050505"/>
			<stop  offset="1" style="stop-color:#1E1E21"/>
		</linearGradient>
		<path class="st6" d="M11.2,4.5C11.3,4.5,11.3,4.5,11.2,4.5c0.2,0.1,0.2,0.2,0.2,0.3c0,1,0,2.1,0,3.1c0,0.2-0.1,0.3-0.3,0.3
			S10.9,8,10.9,7.8c0-1,0-2.1,0-3.1c0-0.1,0.1-0.2,0.2-0.3c0,0,0,0,0,0C11.2,4.5,11.2,4.5,11.2,4.5z"/>
		
			<linearGradient id="SVGID_8_" gradientUnits="userSpaceOnUse" x1="52.8437" y1="-10.1943" x2="55" y2="-10.1943" gradientTransform="matrix(0.2667 0 0 -0.2667 0 4.2667)">
			<stop  offset="0" style="stop-color:#050505"/>
			<stop  offset="1" style="stop-color:#1E1E21"/>
		</linearGradient>
		<path class="st7" d="M14.7,7.3c0,0.1-0.1,0.1-0.1,0.2c-0.1,0.1-0.2,0.1-0.3,0.1c-0.1-0.1-0.2-0.1-0.2-0.3c0-0.2,0-0.4,0-0.6
			c0-0.2,0.1-0.3,0.2-0.3c0.1,0,0.3,0.1,0.3,0.2v0C14.7,6.9,14.7,7.1,14.7,7.3z"/>
		
			<linearGradient id="SVGID_9_" gradientUnits="userSpaceOnUse" x1="5" y1="-10.0812" x2="7.1612" y2="-10.0812" gradientTransform="matrix(0.2667 0 0 -0.2667 0 4.2667)">
			<stop  offset="0" style="stop-color:#050505"/>
			<stop  offset="1" style="stop-color:#1E1E21"/>
		</linearGradient>
		<path class="st8" d="M1.3,6.6c0-0.1,0.1-0.1,0.1-0.2c0.1-0.1,0.2-0.1,0.3-0.1c0.1,0.1,0.2,0.1,0.2,0.3c0,0.2,0,0.4,0,0.6
			c0,0.2-0.1,0.3-0.3,0.3c-0.1,0-0.3-0.1-0.3-0.2c0,0,0,0,0,0C1.3,7.1,1.3,6.9,1.3,6.6z"/>
		
			<linearGradient id="SVGID_10_" gradientUnits="userSpaceOnUse" x1="19.1397" y1="-22.65" x2="21.3217" y2="-22.65" gradientTransform="matrix(0.2667 0 0 -0.2667 0 4.2667)">
			<stop  offset="0" style="stop-color:#050505"/>
			<stop  offset="1" style="stop-color:#1E1E21"/>
		</linearGradient>
		<path class="st9" d="M5.7,9.2c0,0.8,0,1.5,0,2.3c0,0,0,0-0.1,0c-0.2,0-0.3,0-0.5,0c-0.1,0-0.1,0-0.1-0.1c0-0.7,0-1.5,0-2.2
			c0,0,0-0.1,0-0.1C5.3,9.1,5.5,9.1,5.7,9.2C5.7,9.1,5.7,9.2,5.7,9.2z"/>
		
			<linearGradient id="SVGID_11_" gradientUnits="userSpaceOnUse" x1="46.8701" y1="-8.6" x2="49.006" y2="-8.6" gradientTransform="matrix(0.2667 0 0 -0.2667 0 4.2667)">
			<stop  offset="0" style="stop-color:#050505"/>
			<stop  offset="1" style="stop-color:#1E1E21"/>
		</linearGradient>
		<path class="st10" d="M13.1,6.6c0,0.2,0,0.5,0,0.7c0,0.2-0.1,0.3-0.3,0.3c-0.1,0-0.3-0.1-0.3-0.2c0,0,0-0.1,0-0.1
			c0-0.5,0-0.9,0-1.4c0-0.2,0.1-0.3,0.3-0.3c0.1,0,0.3,0.1,0.3,0.2c0,0,0,0.1,0,0.1C13.1,6.1,13.1,6.3,13.1,6.6z"/>
		
			<linearGradient id="SVGID_12_" gradientUnits="userSpaceOnUse" x1="22.9469" y1="-8.5975" x2="25.0908" y2="-8.5975" gradientTransform="matrix(0.2667 0 0 -0.2667 0 4.2667)">
			<stop  offset="0" style="stop-color:#050505"/>
			<stop  offset="1" style="stop-color:#1E1E21"/>
		</linearGradient>
		<path class="st11" d="M6.7,6.6c0,0.2,0,0.5,0,0.7c0,0.1-0.1,0.2-0.2,0.3c-0.1,0.1-0.2,0-0.3-0.1C6.1,7.4,6.1,7.3,6.1,7.2
			c0-0.5,0-0.9,0-1.3c0-0.1,0-0.2,0.1-0.3c0.1-0.1,0.2-0.1,0.3,0s0.2,0.1,0.2,0.2C6.7,6.1,6.7,6.3,6.7,6.6L6.7,6.6z"/>
		
			<linearGradient id="SVGID_13_" gradientUnits="userSpaceOnUse" x1="10.9919" y1="-8.588" x2="13.1326" y2="-8.588" gradientTransform="matrix(0.2667 0 0 -0.2667 0 4.2667)">
			<stop  offset="0" style="stop-color:#050505"/>
			<stop  offset="1" style="stop-color:#1E1E21"/>
		</linearGradient>
		<path class="st12" d="M3.5,6.6c0,0.2,0,0.5,0,0.7c0,0.2-0.1,0.3-0.3,0.3C3.1,7.6,3,7.5,2.9,7.3c0,0,0-0.1,0-0.1c0-0.5,0-0.9,0-1.3
			c0-0.1,0-0.2,0.1-0.3c0.1-0.1,0.2-0.1,0.3,0c0.1,0.1,0.2,0.1,0.2,0.2C3.5,6.1,3.5,6.3,3.5,6.6L3.5,6.6z"/>
		
			<linearGradient id="SVGID_14_" gradientUnits="userSpaceOnUse" x1="34.9101" y1="-8.5988" x2="37.05" y2="-8.5988" gradientTransform="matrix(0.2667 0 0 -0.2667 0 4.2667)">
			<stop  offset="0" style="stop-color:#050505"/>
			<stop  offset="1" style="stop-color:#1E1E21"/>
		</linearGradient>
		<path class="st13" d="M9.9,6.6c0,0.2,0,0.5,0,0.7c0,0.2-0.1,0.3-0.2,0.3c-0.2,0-0.3-0.1-0.3-0.2c0-0.1,0-0.2,0-0.2
			c0-0.4,0-0.8,0-1.2c0-0.2,0.1-0.3,0.2-0.3c0.2,0,0.3,0.1,0.3,0.2c0,0.1,0,0.3,0,0.4C9.9,6.3,9.9,6.5,9.9,6.6z"/>
		
			<linearGradient id="SVGID_15_" gradientUnits="userSpaceOnUse" x1="28.9267" y1="-10.2" x2="31.0734" y2="-10.2" gradientTransform="matrix(0.2667 0 0 -0.2667 0 4.2667)">
			<stop  offset="0" style="stop-color:#050505"/>
			<stop  offset="1" style="stop-color:#1E1E21"/>
		</linearGradient>
		<path class="st14" d="M8.3,7c0,0.1,0,0.2,0,0.3c0,0.2-0.1,0.3-0.3,0.3c-0.2,0-0.3-0.1-0.3-0.3c0-0.2,0-0.4,0-0.6
			c0-0.2,0.1-0.3,0.3-0.3c0.2,0,0.3,0.1,0.3,0.3C8.3,6.8,8.3,6.9,8.3,7z"/>
	</g>
</g>
</svg>
