<?xml version="1.0" encoding="utf-8"?>
<!-- Generator: Adobe Illustrator 18.1.0, SVG Export Plug-In . SVG Version: 6.00 Build 0)  -->
<svg version="1.1" id="图层_1" xmlns="http://www.w3.org/2000/svg" xmlns:xlink="http://www.w3.org/1999/xlink" x="0px" y="0px"
	 width="16px" height="16px" viewBox="0 0 16 16" style="enable-background:new 0 0 16 16;" xml:space="preserve">
<style type="text/css">
	.st0{fill:url(#SVGID_1_);}
	.st1{fill:url(#SVGID_2_);}
	.st2{fill:url(#SVGID_3_);}
</style>
<g>
	
		<linearGradient id="SVGID_1_" gradientUnits="userSpaceOnUse" x1="0" y1="-14" x2="60" y2="-14" gradientTransform="matrix(0.2667 0 0 -0.2667 0 4.2667)">
		<stop  offset="0" style="stop-color:#B9BBBD"/>
		<stop  offset="3.208770e-002" style="stop-color:#B6B8BA"/>
		<stop  offset="5.619587e-002" style="stop-color:#ADAEB1"/>
		<stop  offset="8.827712e-002" style="stop-color:#9D9EA1"/>
		<stop  offset="0.1241" style="stop-color:#C1C1C2"/>
		<stop  offset="0.1924" style="stop-color:#F0F0F0"/>
		<stop  offset="0.2083" style="stop-color:#FBFBFB"/>
		<stop  offset="0.2247" style="stop-color:#FFFFFF"/>
		<stop  offset="0.3015" style="stop-color:#EEEEEF"/>
		<stop  offset="0.3853" style="stop-color:#E3E3E4"/>
		<stop  offset="0.4775" style="stop-color:#DFE0E1"/>
		<stop  offset="0.7191" style="stop-color:#FFFFFF"/>
		<stop  offset="0.779" style="stop-color:#FDFDFD"/>
		<stop  offset="0.8065" style="stop-color:#F6F5F5"/>
		<stop  offset="0.8258" style="stop-color:#EBEAEA"/>
		<stop  offset="0.927" style="stop-color:#797A7D"/>
		<stop  offset="1" style="stop-color:#BEC0C1"/>
	</linearGradient>
	<path class="st0" d="M13.5,16h-11C1.1,16,0,14.9,0,13.5v-11C0,1.1,1.1,0,2.5,0h11C14.9,0,16,1.1,16,2.5v11C16,14.9,14.9,16,13.5,16
		z"/>
	<g>
		
			<linearGradient id="SVGID_2_" gradientUnits="userSpaceOnUse" x1="10" y1="-9.1279" x2="50" y2="-9.1279" gradientTransform="matrix(0.2667 0 0 -0.2667 0 4.2667)">
			<stop  offset="0" style="stop-color:#050505"/>
			<stop  offset="1" style="stop-color:#1E1E21"/>
		</linearGradient>
		<path class="st1" d="M7.2,2.8c0,0-0.9,0-1.4,0.7S5.7,5.3,6,5.8c0.3,0.6,1.6,2.7,1.7,2.8c0.1,0.1,0.1,0,0.1,0s0.2-3.1,0-3.9
			C7.7,3.9,7.3,2.9,7.2,2.8z M4.3,4.2C4.2,4.2,3.5,5,3.4,5.6c-0.1,0.7,0.2,1.1,1,1.7C5.3,7.9,7.3,9,7.3,8.9c0-0.1-0.7-1.5-1.4-2.5
			C5.2,5.3,4.4,4.2,4.3,4.2z M4.5,10.5c0.6,0.3,1.5-0.3,1.8-0.5C6.5,9.8,7,9.5,7,9.5L3.6,9.6C3.6,9.6,3.9,10.3,4.5,10.5L4.5,10.5z
			 M4.6,7.8c-0.6-0.3-1.8-1-1.9-1c-0.1,0-0.2,0.9,0.2,1.5C3.3,9,4.1,9.3,4.4,9.3c0.4,0.1,2.7,0,2.6,0C7,9.2,5.2,8.1,4.6,7.8z
			 M10.2,3.5C9.6,2.8,8.8,2.8,8.8,2.8C8.7,2.9,8.3,3.9,8.2,4.6c-0.1,0.8,0,3.9,0,3.9c0,0.1,0.1,0.1,0.1,0C8.4,8.5,9.8,6.3,10,5.8
			C10.3,5.2,10.7,4.2,10.2,3.5L10.2,3.5z M13.3,6.9c-0.1,0-1.3,0.7-1.9,1S9,9.2,9,9.2c0,0.1,2.3,0.1,2.6,0C12,9.2,12.7,9,13.1,8.3
			C13.5,7.7,13.3,6.9,13.3,6.9L13.3,6.9z M9.7,10c0.3,0.2,1.2,0.8,1.8,0.5c0.6-0.3,0.9-0.9,0.9-0.9L9,9.5C9,9.5,9.5,9.8,9.7,10
			L9.7,10z M12.6,5.6c-0.1-0.7-0.8-1.4-0.9-1.4c-0.1,0-0.9,1.1-1.6,2.1S8.7,8.8,8.7,8.9c0,0.1,2-1,2.8-1.5
			C12.3,6.8,12.6,6.3,12.6,5.6z"/>
		
			<linearGradient id="SVGID_3_" gradientUnits="userSpaceOnUse" x1="10.5349" y1="-30.3" x2="49.4656" y2="-30.3" gradientTransform="matrix(0.2667 0 0 -0.2667 0 4.2667)">
			<stop  offset="0" style="stop-color:#050505"/>
			<stop  offset="1" style="stop-color:#1E1E21"/>
		</linearGradient>
		<path class="st2" d="M5.1,11.5v1c0,0.1,0,0.1,0,0.2c0,0.1,0,0.1,0.1,0.1c0.1,0.1,0.2,0.1,0.3,0.1c0.1,0,0.2,0,0.2,0
			c0.1,0,0.1-0.1,0.1-0.1s0-0.1,0-0.3v-1h0.3v1c0,0.1,0,0.2,0,0.3C6.1,12.9,6.1,13,6,13c-0.1,0.1-0.3,0.2-0.6,0.2
			c-0.3,0-0.5-0.1-0.6-0.2c-0.1-0.1-0.1-0.1-0.1-0.2s0-0.2,0-0.3v-1L5.1,11.5L5.1,11.5z M6.4,13.2l0.7-1.7h0.4l0.7,1.7H7.8l-0.2-0.4
			H7l-0.2,0.4H6.4z M7.3,11.9l-0.2,0.6h0.5L7.3,11.9z M8.6,11.5L9,12.8l0.3-1.3h0.4l0.3,1.3l0.4-1.3h0.4l-0.5,1.7H9.9l-0.3-1.2
			l-0.3,1.2H8.8l-0.6-1.7H8.6z M12.4,11.5v0.3h-0.5c-0.1,0-0.2,0-0.3,0c-0.1,0-0.1,0.1-0.1,0.1c0,0-0.1,0.1-0.1,0.1c0,0,0,0.1,0,0.2
			h1v0.3h-1c0,0.1,0.1,0.2,0.1,0.3c0.1,0.1,0.2,0.1,0.4,0.1h0.5v0.3h-0.5c-0.1,0-0.2,0-0.3,0c-0.2,0-0.3-0.1-0.4-0.2
			c-0.1-0.2-0.2-0.4-0.2-0.6c0-0.3,0.1-0.5,0.3-0.7c0.1-0.1,0.1-0.1,0.2-0.1c0.1,0,0.2,0,0.3,0C11.8,11.5,12.4,11.5,12.4,11.5z
			 M12.8,13.2v-1.7h0.3v1.7H12.8z M4.4,11.5v1.7H4v-0.7H3.2v0.7H2.8v-1.7h0.4v0.7H4v-0.7H4.4L4.4,11.5z"/>
	</g>
</g>
</svg>
