<?xml version="1.0" encoding="utf-8"?>
<!-- Generator: Adobe Illustrator 16.0.0, SVG Export Plug-In . SVG Version: 6.00 Build 0)  -->
<!DOCTYPE svg PUBLIC "-//W3C//DTD SVG 1.1//EN" "http://www.w3.org/Graphics/SVG/1.1/DTD/svg11.dtd">
<svg version="1.1" id="图层_1" xmlns="http://www.w3.org/2000/svg" xmlns:xlink="http://www.w3.org/1999/xlink" x="0px" y="0px"
	 width="60px" height="60px" viewBox="0 0 60 60" style="enable-background:new 0 0 60 60;" xml:space="preserve">
<style type="text/css">
<![CDATA[
	.st0{opacity:0;fill:#FFFFFF;}
	.st1{opacity:0.66;fill:#FFFFFF;}
	.st2{opacity:0.38;fill:#FFFFFF;}
	.st3{fill:url(#SVGID_1_);}
	.st4{fill:url(#SVGID_2_);}
	.st5{fill:url(#SVGID_3_);}
	.st6{fill:url(#SVGID_4_);}
	.st7{fill:url(#SVGID_7_);}
	.st8{fill:url(#SVGID_8_);}
	.st9{opacity:0.25;fill:#7192AD;}
	.st10{opacity:0.49;fill:#87A3BC;}
	.st11{fill:#36DB14;}
	.st12{opacity:0.58;fill:#788EA5;}
	.st13{opacity:0.62;fill:#0092CC;}
	.st14{opacity:0.79;fill:url(#SVGID_5_);}
	.st15{opacity:0.79;fill:url(#SVGID_6_);}
	.st16{opacity:0.79;fill:url(#SVGID_9_);}
	.st17{opacity:0.39;fill:#FFFFFF;}
	.st18{fill:#DCE2E8;}
	.st19{opacity:0.49;fill:#FFFFFF;}
]]>
</style>
<rect class="st0" width="60" height="60"/>
<g>
	<g>
		
			<linearGradient id="SVGID_1_" gradientUnits="userSpaceOnUse" x1="592.2568" y1="30.5742" x2="557.3839" y2="38.2386" gradientTransform="matrix(-1 0 0 1 597.7969 0)">
			<stop  offset="5.494000e-003" style="stop-color:#648398"/>
			<stop  offset="0.5056" style="stop-color:#A0B3C4"/>
			<stop  offset="1" style="stop-color:#648398"/>
		</linearGradient>
		<path class="st3" d="M1.4,42.3l1,1.8c0,0,12.2,5.6,30.7,8.5c0,0,2.3,0.4,4-1.7l22-23l0.3-1.6L1.4,42.3z"/>
		
			<linearGradient id="SVGID_2_" gradientUnits="userSpaceOnUse" x1="568.3643" y1="54.3516" x2="567.9257" y2="29.5745" gradientTransform="matrix(-1 0 0 1 597.7969 0)">
			<stop  offset="0" style="stop-color:#E5E7EB"/>
			<stop  offset="0.4945" style="stop-color:#C0CDD9"/>
			<stop  offset="1" style="stop-color:#9FB5C9"/>
		</linearGradient>
		<path class="st4" d="M59.6,22.8v3.7l-22.9,24l-4,0.5c0,0-14.8-2.3-31.6-8.6c0,0-3-2.9,0.7-6l8.1-6.5L59.6,22.8z"/>
		
			<linearGradient id="SVGID_3_" gradientUnits="userSpaceOnUse" x1="541.8486" y1="33.8223" x2="588.4678" y2="33.8223" gradientTransform="matrix(-1 0 0 1 597.7969 0)">
			<stop  offset="5.494000e-003" style="stop-color:#648398"/>
			<stop  offset="0.5056" style="stop-color:#A0B3C4"/>
			<stop  offset="1" style="stop-color:#648398"/>
		</linearGradient>
		<path class="st5" d="M2.1,36.4c0.2-0.2,0.3-0.3,0.5-0.5l8.1-6.5l48.9-6.9v1.2L38,44.7c0,0-3.1,0.6-5.2,0.4L3.5,37.4
			C3.5,37.4,2.5,37,2.1,36.4z"/>
		<path class="st10" d="M31.5,45c0,0-1.2,2.4-1.6,3.3c0,0-0.4,0.6-1.4,0.6c0,0-17.2-3.7-25.1-6.8c0,0-0.9-0.6-0.3-1.7l1.6-2.3
			C4.7,38.1,25.4,43.3,31.5,45z"/>
		
			<linearGradient id="SVGID_4_" gradientUnits="userSpaceOnUse" x1="574.8711" y1="42.0039" x2="586.1514" y2="42.0039" gradientTransform="matrix(-1 0 0 1 597.7969 0)">
			<stop  offset="0" style="stop-color:#B3C2D3"/>
			<stop  offset="0.5281" style="stop-color:#CBD5E0"/>
			<stop  offset="1" style="stop-color:#B3C2D3"/>
		</linearGradient>
		<path class="st6" d="M22.9,42.8c0,0-1.2,2.3-7.3,0.9c0,0-4.4-1.4-4-3.8L22.9,42.8z"/>
		<ellipse class="st9" cx="25.6" cy="45.6" rx="1.2" ry="1"/>
		
			<linearGradient id="SVGID_5_" gradientUnits="userSpaceOnUse" x1="572.752" y1="46.5469" x2="571.9998" y2="45.2504" gradientTransform="matrix(-1 0 0 1 597.7969 0)">
			<stop  offset="0" style="stop-color:#93ACC3"/>
			<stop  offset="1" style="stop-color:#D9DFE5"/>
		</linearGradient>
		<ellipse class="st14" cx="25.6" cy="45.6" rx="1" ry="0.9"/>
		<path class="st9" d="M21.8,44.9c0,0.6,0.5,1,1.2,1c0.6,0,1.2-0.5,1.2-1c0-0.6-0.5-1-1.2-1C22.3,43.9,21.8,44.4,21.8,44.9z"/>
		
			<linearGradient id="SVGID_6_" gradientUnits="userSpaceOnUse" x1="575.4043" y1="45.8818" x2="574.651" y2="44.5833" gradientTransform="matrix(-1 0 0 1 597.7969 0)">
			<stop  offset="0" style="stop-color:#93ACC3"/>
			<stop  offset="1" style="stop-color:#D9DFE5"/>
		</linearGradient>
		<ellipse class="st15" cx="23" cy="44.9" rx="1" ry="0.9"/>
		
			<linearGradient id="SVGID_7_" gradientUnits="userSpaceOnUse" x1="572.1719" y1="42.3984" x2="572.1719" y2="33.4318" gradientTransform="matrix(-1 0 0 1 597.7969 0)">
			<stop  offset="0" style="stop-color:#00BAF1"/>
			<stop  offset="0.9831" style="stop-color:#008DD1"/>
		</linearGradient>
		<polygon class="st7" points="34.3,43.8 45.7,32.6 9.8,33.4 5.5,36.4 		"/>
		<polygon class="st13" points="34.3,43.5 45.3,32.6 45.7,32.5 34.3,43.8 5.5,36.4 5.8,36.2 		"/>
		
			<linearGradient id="SVGID_8_" gradientUnits="userSpaceOnUse" x1="558.4004" y1="16.5859" x2="575.0081" y2="36.5536" gradientTransform="matrix(-1 0 0 1 597.7969 0)">
			<stop  offset="6.043900e-002" style="stop-color:#C3CFDA"/>
			<stop  offset="0.7802" style="stop-color:#EAECF0"/>
		</linearGradient>
		<path class="st8" d="M60,22.5L37.4,41l-3.6-0.1c0,0-20.7-3.6-31.3-7.8l-1.1-1.4L28,15.8c0,0,10.2,0.6,29.2,4.9
			C57.2,20.7,58.9,21.2,60,22.5z"/>
		<path class="st10" d="M28,15.9c0,0,0.5,0,1.3,0.1C23.7,19.3,6.1,31.3,3.2,33.3c0,0-1-0.7-1.1-0.8l-0.8-0.7L28,15.9z"/>
		<path class="st17" d="M3.5,32.9c5.2,1.6,22.7,6.8,32.3,7.6l-0.4,0.5l-1.3,0c0,0-20.8-3.7-31.5-7.8C2.4,33,1.5,32,1.3,31.9l0.6-0.4
			C2.1,31.6,3,32.7,3.5,32.9z"/>
		<path class="st19" d="M38,44.7c0,0-0.5,2.1-1.3,5.8l-4,0.5c0,0,0.7-4.4,1.2-5.8C33.9,45.2,36.8,45,38,44.7"/>
		<path class="st10" d="M57.8,20.9c0.6,0.3,1.5,0.8,2.2,1.6L37.5,41l-3.5-0.1C36.6,38.4,49.7,26.5,57.8,20.9z"/>
		<path class="st18" d="M37.2,40.5l22.5-18.3c0.1,0.1,0.2,0.2,0.3,0.3L37.4,41L34,40.9c0.1,0,0.3-0.5,0.4-0.5
			C35.3,40.3,37.2,40.5,37.2,40.5z"/>
		<path class="st12" d="M22.4,42.7c0,0-2.2,0.8-5.9-0.2c0,0-3.2-0.7-4.5-2.5L22.4,42.7z"/>
		<path class="st1" d="M32.7,50.8c0,0,0.1,0.2,0,0.2c-6.1-1.1-20.1-4.1-31.6-8.5L0.7,42C0.7,42,13.5,47.2,32.7,50.8z"/>
		<path class="st2" d="M25,45.2c0,0.2,0.2,0.5,0.6,0.5c0.3,0,0.6-0.1,0.7-0.4c0-0.2-0.2-0.5-0.6-0.5C25.4,44.8,25.1,45,25,45.2z"/>
		<path class="st9" d="M27.3,46.3c0,0.6,0.5,1,1.2,1c0.6,0,1.2-0.5,1.2-1c0-0.6-0.5-1-1.2-1C27.8,45.2,27.3,45.7,27.3,46.3z"/>
		
			<linearGradient id="SVGID_9_" gradientUnits="userSpaceOnUse" x1="569.8799" y1="47.2188" x2="569.127" y2="45.9209" gradientTransform="matrix(-1 0 0 1 597.7969 0)">
			<stop  offset="0" style="stop-color:#93ACC3"/>
			<stop  offset="1" style="stop-color:#D9DFE5"/>
		</linearGradient>
		<path class="st16" d="M27.5,46.3c0,0.5,0.4,0.9,1,0.9c0.6,0,1-0.4,1-0.9c0-0.5-0.4-0.9-1-0.9C27.9,45.3,27.5,45.8,27.5,46.3z"/>
		<path class="st2" d="M27.9,45.9c0,0.2,0.2,0.5,0.6,0.5c0.3,0,0.6-0.1,0.7-0.4c0-0.2-0.2-0.5-0.6-0.5
			C28.2,45.5,27.9,45.7,27.9,45.9z"/>
		<path class="st2" d="M22.4,44.5c0,0.2,0.2,0.5,0.6,0.5c0.3,0,0.6-0.1,0.7-0.4c0-0.2-0.2-0.5-0.6-0.5
			C22.7,44.1,22.4,44.3,22.4,44.5z"/>
	</g>
	<g>
		<g>
			<path class="st11" d="M33.4,20.4c-0.3,0-0.6-0.2-0.7-0.5c-1.2-3.3-4.4-5.5-7.9-5.5c-3.2,0-6.2,1.9-7.6,4.8
				c-0.2,0.4-0.6,0.5-1,0.3c-0.4-0.2-0.5-0.6-0.3-1c1.6-3.4,5.2-5.6,9-5.6c4.1,0,7.9,2.6,9.3,6.5c0.1,0.4-0.1,0.8-0.4,1
				C33.6,20.4,33.5,20.4,33.4,20.4z"/>
		</g>
		<g>
			<path class="st11" d="M29.3,23.5c-0.3,0-0.6-0.2-0.7-0.6c-0.4-1.8-2-3-3.8-3c-1.8,0-3.4,1.3-3.8,3c-0.1,0.4-0.5,0.7-0.9,0.6
				c-0.4-0.1-0.7-0.5-0.6-0.9c0.5-2.4,2.8-4.2,5.3-4.2c2.5,0,4.7,1.8,5.3,4.2c0.1,0.4-0.2,0.8-0.6,0.9
				C29.5,23.5,29.4,23.5,29.3,23.5z"/>
		</g>
		<g>
			<path class="st11" d="M37.6,16.3c-0.3,0-0.5-0.1-0.6-0.4c-2.5-4.3-7.1-7-12.1-7c-4.8,0-9.1,2.4-11.7,6.4c-0.2,0.3-0.7,0.4-1,0.2
				c-0.3-0.2-0.4-0.7-0.2-1c2.9-4.4,7.7-7.1,13-7.1c5.5,0,10.7,3,13.4,7.8c0.2,0.4,0.1,0.8-0.3,1C37.9,16.2,37.7,16.3,37.6,16.3z"/>
		</g>
	</g>
</g>
</svg>
