<?xml version="1.0" encoding="utf-8"?>
<!-- Generator: Adobe Illustrator 18.1.0, SVG Export Plug-In . SVG Version: 6.00 Build 0)  -->
<svg version="1.1" id="图层_1" xmlns="http://www.w3.org/2000/svg" xmlns:xlink="http://www.w3.org/1999/xlink" x="0px" y="0px"
	 width="16px" height="16px" viewBox="0 0 16 16" style="enable-background:new 0 0 16 16;" xml:space="preserve">
<style type="text/css">
	.st0{fill:url(#SVGID_1_);}
	.st1{fill:url(#SVGID_2_);}
	.st2{fill:url(#SVGID_3_);}
	.st3{fill:url(#SVGID_4_);}
	.st4{fill:url(#SVGID_5_);}
	.st5{fill:url(#SVGID_6_);}
	.st6{fill:url(#SVGID_7_);}
	.st7{fill:url(#SVGID_8_);}
	.st8{fill:url(#SVGID_9_);}
	.st9{fill:url(#SVGID_10_);}
	.st10{fill:url(#SVGID_11_);}
	.st11{fill:url(#SVGID_12_);}
</style>
<g>
	
		<linearGradient id="SVGID_1_" gradientUnits="userSpaceOnUse" x1="0" y1="-14" x2="60" y2="-14" gradientTransform="matrix(0.2667 0 0 -0.2667 0 4.2667)">
		<stop  offset="0" style="stop-color:#B9BBBD"/>
		<stop  offset="3.208770e-002" style="stop-color:#B6B8BA"/>
		<stop  offset="5.619587e-002" style="stop-color:#ADAEB1"/>
		<stop  offset="8.827712e-002" style="stop-color:#9D9EA1"/>
		<stop  offset="0.1241" style="stop-color:#C1C1C2"/>
		<stop  offset="0.1924" style="stop-color:#F0F0F0"/>
		<stop  offset="0.2083" style="stop-color:#FBFBFB"/>
		<stop  offset="0.2247" style="stop-color:#FFFFFF"/>
		<stop  offset="0.3015" style="stop-color:#EEEEEF"/>
		<stop  offset="0.3853" style="stop-color:#E3E3E4"/>
		<stop  offset="0.4775" style="stop-color:#DFE0E1"/>
		<stop  offset="0.7191" style="stop-color:#FFFFFF"/>
		<stop  offset="0.779" style="stop-color:#FDFDFD"/>
		<stop  offset="0.8065" style="stop-color:#F6F5F5"/>
		<stop  offset="0.8258" style="stop-color:#EBEAEA"/>
		<stop  offset="0.927" style="stop-color:#797A7D"/>
		<stop  offset="1" style="stop-color:#BEC0C1"/>
	</linearGradient>
	<path class="st0" d="M13.5,16h-11C1.1,16,0,14.9,0,13.5v-11C0,1.1,1.1,0,2.5,0h11C14.9,0,16,1.1,16,2.5v11C16,14.9,14.9,16,13.5,16
		z"/>
	<g>
		<g>
			
				<linearGradient id="SVGID_2_" gradientUnits="userSpaceOnUse" x1="10.0089" y1="-7.05" x2="17.6764" y2="-7.05" gradientTransform="matrix(0.2667 0 0 -0.2667 0 4.2667)">
				<stop  offset="0" style="stop-color:#050505"/>
				<stop  offset="1" style="stop-color:#1E1E21"/>
			</linearGradient>
			<path class="st1" d="M2.7,4.5h0.3h0.9c0.3,0,0.5,0.1,0.6,0.3C4.6,5,4.7,5.2,4.7,5.6c0,0.3-0.1,0.6-0.2,0.7
				C4.3,6.5,4.1,6.6,3.8,6.6H3.2v1.2H2.9H2.7V4.5z M3.2,6h0.6C3.9,6,4,6,4.1,5.9c0.1-0.1,0.1-0.2,0.1-0.3c0-0.2,0-0.3-0.1-0.3
				C4,5.1,3.9,5.1,3.8,5.1H3.2C3.2,5.1,3.2,6,3.2,6z"/>
			
				<linearGradient id="SVGID_3_" gradientUnits="userSpaceOnUse" x1="19.7" y1="-7.0054" x2="29.3" y2="-7.0054" gradientTransform="matrix(0.2667 0 0 -0.2667 0 4.2667)">
				<stop  offset="0" style="stop-color:#050505"/>
				<stop  offset="1" style="stop-color:#1E1E21"/>
			</linearGradient>
			<path class="st2" d="M5.6,7.4C5.4,7.1,5.3,6.7,5.3,6.1s0.1-0.9,0.3-1.3s0.5-0.5,0.9-0.5s0.7,0.2,0.9,0.5c0.2,0.3,0.3,0.7,0.3,1.3
				S7.7,7.1,7.5,7.4C7.2,7.7,6.9,7.8,6.5,7.8C6.1,7.9,5.8,7.7,5.6,7.4z M7.1,7c0.1-0.2,0.2-0.5,0.2-0.8c0-0.3-0.1-0.6-0.2-0.8
				C6.9,5.1,6.8,5,6.5,5C6.3,5,6.1,5.1,6,5.3C5.9,5.5,5.8,5.8,5.8,6.1C5.8,6.5,5.9,6.7,6,7c0.1,0.2,0.3,0.3,0.5,0.3
				C6.7,7.3,6.9,7.2,7.1,7z"/>
			
				<linearGradient id="SVGID_4_" gradientUnits="userSpaceOnUse" x1="31.8261" y1="-7.15" x2="40.1904" y2="-7.15" gradientTransform="matrix(0.2667 0 0 -0.2667 0 4.2667)">
				<stop  offset="0" style="stop-color:#050505"/>
				<stop  offset="1" style="stop-color:#1E1E21"/>
			</linearGradient>
			<path class="st3" d="M8.5,4.5h0.3h1c0.3,0,0.5,0.1,0.7,0.2c0.2,0.2,0.2,0.4,0.2,0.7s-0.1,0.5-0.2,0.7c-0.1,0.1-0.1,0.1-0.2,0.1
				c0,0,0.1,0,0.1,0.1c0.2,0.1,0.3,0.3,0.3,0.7v0.4c0,0.1,0,0.2,0,0.3c0,0.1,0.1,0.1,0.1,0.1v0.1h-0.6c0-0.1,0-0.1-0.1-0.3
				c0-0.1,0-0.2,0-0.3V7c0-0.2,0-0.3-0.1-0.4C9.9,6.6,9.8,6.5,9.7,6.5H9v1.3H8.8H8.5C8.5,7.8,8.5,4.5,8.5,4.5z M9,6h0.6
				c0.1,0,0.2,0,0.3-0.1c0.1-0.1,0.1-0.2,0.1-0.3c0-0.2,0-0.3-0.1-0.3C9.9,5.1,9.8,5.1,9.7,5.1H9C9,5.1,9,6,9,6z"/>
			
				<linearGradient id="SVGID_5_" gradientUnits="userSpaceOnUse" x1="41.8591" y1="-7.05" x2="49.9911" y2="-7.05" gradientTransform="matrix(0.2667 0 0 -0.2667 0 4.2667)">
				<stop  offset="0" style="stop-color:#050505"/>
				<stop  offset="1" style="stop-color:#1E1E21"/>
			</linearGradient>
			<path class="st4" d="M12,5.1h-0.8V4.8V4.5h2.2v0.3v0.3h-0.8v2.7h-0.3H12V5.1z"/>
		</g>
		<g>
			
				<linearGradient id="SVGID_6_" gradientUnits="userSpaceOnUse" x1="5" y1="-22.7" x2="11.9872" y2="-22.7" gradientTransform="matrix(0.2667 0 0 -0.2667 0 4.2667)">
				<stop  offset="0" style="stop-color:#050505"/>
				<stop  offset="1" style="stop-color:#1E1E21"/>
			</linearGradient>
			<path class="st5" d="M1.7,11.5H1.5H1.3V9.1h0.3h0.3L2.3,11l0,0l0.3-1.9h0.3h0.3v2.3H3H2.8V9.5l0,0l-0.4,1.9H2.3H2.1l-0.4-2l0,0
				V11.5z"/>
			
				<linearGradient id="SVGID_7_" gradientUnits="userSpaceOnUse" x1="13.7317" y1="-22.6563" x2="20.6705" y2="-22.6563" gradientTransform="matrix(0.2667 0 0 -0.2667 0 4.2667)">
				<stop  offset="0" style="stop-color:#050505"/>
				<stop  offset="1" style="stop-color:#1E1E21"/>
			</linearGradient>
			<path class="st6" d="M3.9,11.2c-0.2-0.2-0.2-0.5-0.2-0.9s0.1-0.7,0.2-0.9c0.2-0.2,0.4-0.3,0.7-0.3c0.3,0,0.5,0.1,0.7,0.3
				c0.2,0.2,0.2,0.5,0.2,0.9S5.4,11,5.3,11.2c-0.2,0.2-0.4,0.3-0.7,0.3C4.3,11.6,4.1,11.4,3.9,11.2z M5,10.9
				c0.1-0.2,0.1-0.3,0.1-0.6C5.1,10.1,5,9.9,5,9.8C4.9,9.6,4.7,9.5,4.6,9.5c-0.2,0-0.3,0.1-0.4,0.2c-0.1,0.2-0.1,0.3-0.1,0.6
				c0,0.2,0.1,0.5,0.1,0.6c0.1,0.2,0.2,0.2,0.4,0.2S4.9,11.1,5,10.9z"/>
			
				<linearGradient id="SVGID_8_" gradientUnits="userSpaceOnUse" x1="22.4274" y1="-22.7" x2="28.2944" y2="-22.7" gradientTransform="matrix(0.2667 0 0 -0.2667 0 4.2667)">
				<stop  offset="0" style="stop-color:#050505"/>
				<stop  offset="1" style="stop-color:#1E1E21"/>
			</linearGradient>
			<path class="st7" d="M6.4,11.5H6.2H6V9.1h0.2h0.2l0.7,1.6V9.1h0.2h0.2v2.3H7.3H7.1L6.3,9.8L6.4,11.5L6.4,11.5z"/>
			
				<linearGradient id="SVGID_9_" gradientUnits="userSpaceOnUse" x1="30.2304" y1="-22.7" x2="31.7455" y2="-22.7" gradientTransform="matrix(0.2667 0 0 -0.2667 0 4.2667)">
				<stop  offset="0" style="stop-color:#050505"/>
				<stop  offset="1" style="stop-color:#1E1E21"/>
			</linearGradient>
			<path class="st8" d="M8.1,9.1h0.2h0.2v2.3H8.3H8.1V9.1z"/>
			
				<linearGradient id="SVGID_10_" gradientUnits="userSpaceOnUse" x1="33.143" y1="-22.7" x2="39.0167" y2="-22.7" gradientTransform="matrix(0.2667 0 0 -0.2667 0 4.2667)">
				<stop  offset="0" style="stop-color:#050505"/>
				<stop  offset="1" style="stop-color:#1E1E21"/>
			</linearGradient>
			<path class="st9" d="M9.4,9.6H8.8V9.4V9.1h1.6v0.2v0.2H9.8v1.9H9.6H9.4L9.4,9.6L9.4,9.6z"/>
			
				<linearGradient id="SVGID_11_" gradientUnits="userSpaceOnUse" x1="40.2" y1="-22.6563" x2="47.1393" y2="-22.6563" gradientTransform="matrix(0.2667 0 0 -0.2667 0 4.2667)">
				<stop  offset="0" style="stop-color:#050505"/>
				<stop  offset="1" style="stop-color:#1E1E21"/>
			</linearGradient>
			<path class="st10" d="M11,11.2c-0.2-0.2-0.2-0.5-0.2-0.9s0.1-0.7,0.2-0.9c0.2-0.2,0.4-0.3,0.7-0.3c0.3,0,0.5,0.1,0.7,0.3
				c0.2,0.2,0.2,0.5,0.2,0.9s-0.1,0.7-0.2,0.9c-0.2,0.2-0.4,0.3-0.7,0.3C11.4,11.6,11.1,11.4,11,11.2z M12,10.9
				c0.1-0.2,0.1-0.3,0.1-0.6c0-0.2-0.1-0.5-0.1-0.6c-0.1-0.2-0.2-0.2-0.4-0.2c-0.2,0-0.3,0.1-0.4,0.2c-0.1,0.2-0.1,0.3-0.1,0.6
				c0,0.2,0.1,0.5,0.1,0.6c0.1,0.2,0.2,0.2,0.4,0.2C11.8,11.1,11.9,11.1,12,10.9z"/>
			
				<linearGradient id="SVGID_12_" gradientUnits="userSpaceOnUse" x1="48.9596" y1="-22.65" x2="55" y2="-22.65" gradientTransform="matrix(0.2667 0 0 -0.2667 0 4.2667)">
				<stop  offset="0" style="stop-color:#050505"/>
				<stop  offset="1" style="stop-color:#1E1E21"/>
			</linearGradient>
			<path class="st11" d="M13.1,9.1h0.2H14c0.2,0,0.4,0.1,0.5,0.2c0.1,0.1,0.2,0.3,0.2,0.5s-0.1,0.4-0.2,0.5c0,0-0.1,0.1-0.1,0.1
				c0,0,0,0,0.1,0c0.1,0.1,0.2,0.3,0.2,0.5v0.3c0,0.1,0,0.2,0,0.2c0,0,0,0.1,0.1,0.1v0.1h-0.4c0-0.1,0-0.1,0-0.2c0-0.1,0-0.2,0-0.2
				v-0.1c0-0.1,0-0.2-0.1-0.3c-0.1-0.1-0.1-0.1-0.2-0.1h-0.5v0.9h-0.2h-0.3V9.1z M13.5,10.2h0.5c0.1,0,0.2,0,0.2-0.1
				c0.1-0.1,0.1-0.1,0.1-0.2c0-0.1,0-0.2-0.1-0.2c-0.1-0.1-0.1-0.1-0.2-0.1h-0.5C13.5,9.5,13.5,10.2,13.5,10.2z"/>
		</g>
	</g>
</g>
</svg>
