<?xml version="1.0" encoding="utf-8"?>
<!-- Generator: Adobe Illustrator 16.0.0, SVG Export Plug-In . SVG Version: 6.00 Build 0)  -->
<!DOCTYPE svg PUBLIC "-//W3C//DTD SVG 1.1//EN" "http://www.w3.org/Graphics/SVG/1.1/DTD/svg11.dtd">
<svg version="1.1" id="图层_1" xmlns="http://www.w3.org/2000/svg" xmlns:xlink="http://www.w3.org/1999/xlink" x="0px" y="0px"
	 width="60px" height="60px" viewBox="0 0 60 60" style="enable-background:new 0 0 60 60;" xml:space="preserve">
<style type="text/css">
<![CDATA[
	.st0{opacity:0;fill:#FFFFFF;}
	.st1{fill-rule:evenodd;clip-rule:evenodd;}
	.st2{fill:#FFFFFF;}
	.st3{fill-rule:evenodd;clip-rule:evenodd;fill:url(#SVGID_1_);}
	.st4{fill-rule:evenodd;clip-rule:evenodd;fill:url(#SVGID_2_);}
	.st5{fill-rule:evenodd;clip-rule:evenodd;fill:url(#SVGID_3_);}
	.st6{fill-rule:evenodd;clip-rule:evenodd;fill:url(#SVGID_4_);}
	.st7{fill-rule:evenodd;clip-rule:evenodd;fill:url(#SVGID_5_);}
	.st8{fill-rule:evenodd;clip-rule:evenodd;fill:url(#SVGID_6_);}
	.st9{fill-rule:evenodd;clip-rule:evenodd;fill:url(#SVGID_7_);}
	.st10{fill-rule:evenodd;clip-rule:evenodd;fill:url(#SVGID_8_);}
]]>
</style>
<rect class="st0" width="60" height="60"/>
<g>
	<linearGradient id="SVGID_1_" gradientUnits="userSpaceOnUse" x1="30.0435" y1="58.2256" x2="30.0435" y2="48.5026">
		<stop  offset="5.617980e-003" style="stop-color:#7B8191"/>
		<stop  offset="0.4544" style="stop-color:#DEE1EB"/>
		<stop  offset="0.6216" style="stop-color:#C5C8D1"/>
		<stop  offset="1" style="stop-color:#616975"/>
	</linearGradient>
	<path class="st3" d="M22.1,47.7H38v6.8c0,1.3,1.9,2.7,3.4,3c-0.8,0.8-2.1,0.8-3.1,0.8c-5.6,0-11.2,0-16.7,0c-1,0-2.2-0.1-3-0.8
		c1.5-0.2,3.4-1.7,3.4-3V47.7L22.1,47.7z"/>
	<linearGradient id="SVGID_2_" gradientUnits="userSpaceOnUse" x1="30.0005" y1="49.0078" x2="30.0005" y2="1.4027">
		<stop  offset="0" style="stop-color:#666A75"/>
		<stop  offset="1" style="stop-color:#E4E6F0"/>
	</linearGradient>
	<path class="st4" d="M2.5,1.8h55c1.4,0,2.5,1.1,2.5,2.5v21.9v20.5c0,1.4-1.1,2.5-2.5,2.5h-55C1.1,49.1,0,48,0,46.6V26.8V4.3
		C0,2.9,1.1,1.8,2.5,1.8L2.5,1.8z"/>
	<linearGradient id="SVGID_3_" gradientUnits="userSpaceOnUse" x1="29.9375" y1="48.2842" x2="30.0638" y2="0.4269">
		<stop  offset="0" style="stop-color:#B7BCC9"/>
		<stop  offset="1" style="stop-color:#D6D9E8"/>
	</linearGradient>
	<path class="st5" d="M2.5,0.5h55C58.9,0.5,60,1.6,60,3v34v8.9c0,1.4-1.1,2.5-2.5,2.5h-55c-1.4,0-2.5-1.1-2.5-2.5v-8.7V3
		C0,1.6,1.1,0.5,2.5,0.5L2.5,0.5z"/>
	<path class="st1" d="M2.7,2.6h54.7c0.5,0,0.9,0.4,0.9,0.9v35.8c0,0.5-0.4,0.9-0.9,0.9H2.7c-0.5,0-0.9-0.4-0.9-0.9V3.5
		C1.7,3,2.1,2.6,2.7,2.6L2.7,2.6z"/>
	<linearGradient id="SVGID_4_" gradientUnits="userSpaceOnUse" x1="22.7231" y1="32.7334" x2="46.5889" y2="-4.3916">
		<stop  offset="0" style="stop-color:#050608"/>
		<stop  offset="1" style="stop-color:#7E8EA1"/>
	</linearGradient>
	<path class="st6" d="M2.9,3h28.9h25.4c0.4,0,0.7,0.3,0.7,0.7v35.3c0,0.4-0.3,0.7-0.7,0.7H31.8H2.9c-0.4,0-0.7-0.3-0.7-0.7V3.8
		C2.1,3.4,2.5,3,2.9,3L2.9,3z"/>
	<linearGradient id="SVGID_5_" gradientUnits="userSpaceOnUse" x1="32.1182" y1="30.0806" x2="3.9591" y2="1.7952">
		<stop  offset="0" style="stop-color:#000000"/>
		<stop  offset="1" style="stop-color:#899BB0"/>
	</linearGradient>
	<path class="st7" d="M2.9,3h41.6L27.2,39.8H2.9c-0.4,0-0.7-0.3-0.7-0.7V3.8C2.1,3.4,2.5,3,2.9,3L2.9,3z"/>
	<linearGradient id="SVGID_6_" gradientUnits="userSpaceOnUse" x1="29.9321" y1="37.6748" x2="30.0584" y2="4.2104">
		<stop  offset="0" style="stop-color:#194B8C"/>
		<stop  offset="1" style="stop-color:#8EBFF2"/>
	</linearGradient>
	<polygon class="st8" points="4.4,4.9 55.6,4.9 55.6,38 4.4,38 4.4,4.9 	"/>
	<linearGradient id="SVGID_7_" gradientUnits="userSpaceOnUse" x1="23.9761" y1="37.9668" x2="23.9761" y2="4.8872">
		<stop  offset="0" style="stop-color:#194B8C"/>
		<stop  offset="1" style="stop-color:#669ED9"/>
	</linearGradient>
	<polygon class="st9" points="4.4,4.9 43.6,4.9 28,38 4.4,38 4.4,4.9 	"/>
	
		<linearGradient id="SVGID_8_" gradientUnits="userSpaceOnUse" x1="-72.1279" y1="681.0176" x2="-42.728" y2="681.0176" gradientTransform="matrix(0.7749 0 0 0.7749 74.5421 -469.2074)">
		<stop  offset="0" style="stop-color:#868B99"/>
		<stop  offset="4.000000e-002" style="stop-color:#DFE3ED"/>
		<stop  offset="0.11" style="stop-color:#BAC1D1"/>
		<stop  offset="0.88" style="stop-color:#BAC1D1"/>
		<stop  offset="0.95" style="stop-color:#DFE4ED"/>
		<stop  offset="1" style="stop-color:#868B99"/>
	</linearGradient>
	<polygon class="st10" points="18.7,57.5 41.4,57.5 41.4,59.5 18.7,59.5 18.7,57.5 	"/>
	<path class="st1" d="M29.9,42.9c0.8,0,1.4,0.6,1.4,1.4c0,0.8-0.6,1.4-1.4,1.4s-1.4-0.6-1.4-1.4C28.5,43.5,29.1,42.9,29.9,42.9
		L29.9,42.9z"/>
	<g>
		<polygon class="st2" points="28.6,30 16.2,17.6 9.1,24.7 8.7,24.3 16.2,16.8 28.6,29.2 44.8,13 51.1,13 51.1,13.5 45,13.5 		"/>
	</g>
</g>
</svg>
