<?xml version="1.0" encoding="utf-8"?>
<!-- Generator: Adobe Illustrator 18.1.0, SVG Export Plug-In . SVG Version: 6.00 Build 0)  -->
<svg version="1.1" id="图层_1" xmlns="http://www.w3.org/2000/svg" xmlns:xlink="http://www.w3.org/1999/xlink" x="0px" y="0px"
	 width="60px" height="60px" viewBox="10 -10 60 60" enable-background="new 10 -10 60 60" xml:space="preserve">
<g>
	<linearGradient id="SVGID_1_" gradientUnits="userSpaceOnUse" x1="30.5249" y1="48.7948" x2="34.6704" y2="48.7948">
		<stop  offset="0" style="stop-color:#858585"/>
		<stop  offset="0.4127" style="stop-color:#DEDEDE"/>
		<stop  offset="0.5608" style="stop-color:#B8B8B8"/>
		<stop  offset="1" style="stop-color:#6E6E6E"/>
	</linearGradient>
	<path fill="url(#SVGID_1_)" d="M30.5,47.6v2c0,0.2,0.9,0.4,2.1,0.4c1.1,0,2.1-0.2,2.1-0.4v-2H30.5z"/>
	<linearGradient id="SVGID_2_" gradientUnits="userSpaceOnUse" x1="58.8078" y1="45.373" x2="62.6008" y2="45.373">
		<stop  offset="0" style="stop-color:#858585"/>
		<stop  offset="0.5132" style="stop-color:#DEDEDE"/>
		<stop  offset="0.6984" style="stop-color:#B8B8B8"/>
		<stop  offset="1" style="stop-color:#6E6E6E"/>
	</linearGradient>
	<path fill="url(#SVGID_2_)" d="M58.8,44.3v1.8c0,0.2,0.8,0.4,1.9,0.4c1,0,1.9-0.2,1.9-0.4v-1.8H58.8z"/>
	<linearGradient id="SVGID_3_" gradientUnits="userSpaceOnUse" x1="16.8791" y1="40.7105" x2="20.7205" y2="40.7105">
		<stop  offset="0" style="stop-color:#858585"/>
		<stop  offset="0.328" style="stop-color:#DEDEDE"/>
		<stop  offset="0.5608" style="stop-color:#B8B8B8"/>
		<stop  offset="1" style="stop-color:#6E6E6E"/>
	</linearGradient>
	<path fill="url(#SVGID_3_)" d="M16.9,38.8v3.4c0,0.2,0.9,0.4,1.9,0.4c1.1,0,1.9-0.2,1.9-0.4v-3.4H16.9z"/>
	<linearGradient id="SVGID_4_" gradientUnits="userSpaceOnUse" x1="32.5975" y1="19.5095" x2="64.3282" y2="19.5095">
		<stop  offset="0" style="stop-color:#979797"/>
		<stop  offset="4.232804e-002" style="stop-color:#787878"/>
		<stop  offset="1" style="stop-color:#272729"/>
	</linearGradient>
	<polygon fill="url(#SVGID_4_)" points="64.3,-6 64.3,45 34.4,48.8 32.6,49 32.6,-10 34.4,-9.8 	"/>
	<linearGradient id="SVGID_5_" gradientUnits="userSpaceOnUse" x1="34.431" y1="16.1896" x2="56.995" y2="16.1896">
		<stop  offset="0" style="stop-color:#0E0E0E"/>
		<stop  offset="0.5" style="stop-color:#3A3A3A"/>
		<stop  offset="0.7127" style="stop-color:#383838"/>
		<stop  offset="0.8273" style="stop-color:#303030"/>
		<stop  offset="0.9181" style="stop-color:#222222"/>
		<stop  offset="0.9965" style="stop-color:#0F0F0F"/>
		<stop  offset="1" style="stop-color:#0E0E0E"/>
	</linearGradient>
	<polygon fill="url(#SVGID_5_)" points="57,38.1 34.4,41 34.4,-8.6 57,-5.7 	"/>
	<linearGradient id="SVGID_6_" gradientUnits="userSpaceOnUse" x1="24.1333" y1="49.0216" x2="24.1333" y2="-9.9974">
		<stop  offset="0" style="stop-color:#4D4D4D"/>
		<stop  offset="0.5079" style="stop-color:#474747"/>
		<stop  offset="1" style="stop-color:#4D4D4D"/>
	</linearGradient>
	<polygon fill="url(#SVGID_6_)" points="32.6,-10 32.6,49 29.6,47.4 28.5,46.8 24.7,44.8 23.6,44.2 21.7,43.1 20.5,42.5 15.7,39.9 
		15.7,-0.9 20.5,-3.5 21.7,-4.1 23.6,-5.1 24.7,-5.7 28.5,-7.8 29.6,-8.4 	"/>
	<g>
		<linearGradient id="SVGID_7_" gradientUnits="userSpaceOnUse" x1="35.8383" y1="-3.747" x2="57.559" y2="-3.747">
			<stop  offset="0" style="stop-color:#9C9C9C"/>
			<stop  offset="1" style="stop-color:#575757"/>
		</linearGradient>
		<polygon fill="url(#SVGID_7_)" points="57.6,-4.5 57.6,-0.3 42.8,-1.8 35.8,-2.4 35.8,-7.2 42.8,-6.3 		"/>
		<linearGradient id="SVGID_8_" gradientUnits="userSpaceOnUse" x1="35.8383" y1="1.9096" x2="57.559" y2="1.9096">
			<stop  offset="0" style="stop-color:#9C9C9C"/>
			<stop  offset="1" style="stop-color:#575757"/>
		</linearGradient>
		<polygon fill="url(#SVGID_8_)" points="57.6,0.8 57.6,5 42.8,4 35.8,3.6 35.8,-1.2 42.8,-0.5 		"/>
		<linearGradient id="SVGID_9_" gradientUnits="userSpaceOnUse" x1="35.8383" y1="7.5703" x2="57.559" y2="7.5703">
			<stop  offset="0" style="stop-color:#9C9C9C"/>
			<stop  offset="1" style="stop-color:#575757"/>
		</linearGradient>
		<polygon fill="url(#SVGID_9_)" points="57.6,6.1 57.6,10.3 42.8,9.8 35.8,9.6 35.8,4.8 42.8,5.2 		"/>
		<linearGradient id="SVGID_10_" gradientUnits="userSpaceOnUse" x1="35.8383" y1="13.2268" x2="57.559" y2="13.2268">
			<stop  offset="0" style="stop-color:#9C9C9C"/>
			<stop  offset="1" style="stop-color:#575757"/>
		</linearGradient>
		<polygon fill="url(#SVGID_10_)" points="57.6,11.4 57.6,15.6 42.8,15.6 35.8,15.6 35.8,10.8 42.8,11 		"/>
		<linearGradient id="SVGID_11_" gradientUnits="userSpaceOnUse" x1="35.8383" y1="19.1541" x2="57.559" y2="19.1541">
			<stop  offset="0" style="stop-color:#9C9C9C"/>
			<stop  offset="1" style="stop-color:#575757"/>
		</linearGradient>
		<polygon fill="url(#SVGID_11_)" points="57.6,16.7 57.6,21 42.8,21.4 35.8,21.6 35.8,16.8 42.8,16.8 		"/>
		<linearGradient id="SVGID_12_" gradientUnits="userSpaceOnUse" x1="35.8383" y1="24.8107" x2="57.559" y2="24.8107">
			<stop  offset="0" style="stop-color:#9C9C9C"/>
			<stop  offset="1" style="stop-color:#575757"/>
		</linearGradient>
		<polygon fill="url(#SVGID_12_)" points="57.6,22.1 57.6,26.3 42.8,27.1 35.8,27.6 35.8,22.8 42.8,22.6 		"/>
		<linearGradient id="SVGID_13_" gradientUnits="userSpaceOnUse" x1="35.8383" y1="30.4672" x2="57.559" y2="30.4672">
			<stop  offset="0" style="stop-color:#9C9C9C"/>
			<stop  offset="1" style="stop-color:#575757"/>
		</linearGradient>
		<polygon fill="url(#SVGID_13_)" points="57.6,27.4 57.6,31.6 42.8,32.9 35.8,33.6 35.8,28.8 42.8,28.3 		"/>
		<linearGradient id="SVGID_14_" gradientUnits="userSpaceOnUse" x1="35.8383" y1="36.1279" x2="57.559" y2="36.1279">
			<stop  offset="0" style="stop-color:#9C9C9C"/>
			<stop  offset="1" style="stop-color:#575757"/>
		</linearGradient>
		<polygon fill="url(#SVGID_14_)" points="57.6,32.7 57.6,36.9 42.8,38.7 35.8,39.6 35.8,34.8 42.8,34.1 		"/>
	</g>
	<polygon fill="#CE4C32" points="62.6,7.3 59.6,9.9 59.6,-3.5 62.6,-1 	"/>
	<polygon fill="#CE4C32" points="59.6,20.3 62.6,22.9 62.6,9.5 59.6,12 	"/>
	<polygon fill="#CE4C32" points="62.6,33.3 59.6,35.9 59.6,22.5 62.6,25 	"/>
	<polygon fill="#626262" points="21.7,-4.1 21.7,43.1 20.5,42.5 20.5,-3.5 	"/>
	<polygon fill="#232323" points="29.6,-8.4 29.6,47.4 28.5,46.8 28.5,-7.8 	"/>
	<linearGradient id="SVGID_15_" gradientUnits="userSpaceOnUse" x1="25.0895" y1="46.8216" x2="25.0895" y2="-7.7974">
		<stop  offset="0" style="stop-color:#464646"/>
		<stop  offset="0.1376" style="stop-color:#242424"/>
		<stop  offset="0.5503" style="stop-color:#686868"/>
		<stop  offset="0.9153" style="stop-color:#242424"/>
		<stop  offset="1" style="stop-color:#252525"/>
	</linearGradient>
	<polygon fill="url(#SVGID_15_)" points="28.5,-7.8 28.5,46.8 24.7,44.8 23.6,44.2 21.7,43.1 21.7,-4.1 23.6,-5.1 24.7,-5.7 	"/>
	<linearGradient id="SVGID_16_" gradientUnits="userSpaceOnUse" x1="32.5975" y1="19.5095" x2="34.4336" y2="19.5095">
		<stop  offset="0" style="stop-color:#FFFFFF"/>
		<stop  offset="1" style="stop-color:#FFFFFF;stop-opacity:0"/>
	</linearGradient>
	<polygon opacity="0.35" fill="url(#SVGID_16_)" points="34.4,-9.8 34.4,48.8 32.6,49 32.6,-10 	"/>
	<linearGradient id="SVGID_17_" gradientUnits="userSpaceOnUse" x1="33.5156" y1="39.9151" x2="33.5156" y2="-7.5384">
		<stop  offset="0" style="stop-color:#FFFFFF;stop-opacity:0"/>
		<stop  offset="0.4709" style="stop-color:#FFFFFF"/>
		<stop  offset="1" style="stop-color:#FFFFFF;stop-opacity:0"/>
	</linearGradient>
	<polygon opacity="0.35" fill="url(#SVGID_17_)" points="34.4,-7.3 34.4,39.7 32.6,39.9 32.6,-7.5 	"/>
	<g>
		<linearGradient id="SVGID_18_" gradientUnits="userSpaceOnUse" x1="35.8383" y1="-4.462" x2="42.7936" y2="-4.462">
			<stop  offset="0" style="stop-color:#FFFFFF;stop-opacity:0.5"/>
			<stop  offset="1" style="stop-color:#FFFFFF;stop-opacity:0"/>
		</linearGradient>
		<polygon opacity="0.35" fill="url(#SVGID_18_)" points="42.8,-6.3 42.8,-1.8 35.8,-2.4 35.8,-7.2 		"/>
		<linearGradient id="SVGID_19_" gradientUnits="userSpaceOnUse" x1="35.8383" y1="1.4273" x2="42.7936" y2="1.4273">
			<stop  offset="0" style="stop-color:#FFFFFF;stop-opacity:0.5"/>
			<stop  offset="1" style="stop-color:#FFFFFF;stop-opacity:0"/>
		</linearGradient>
		<polygon opacity="0.35" fill="url(#SVGID_19_)" points="42.8,-0.5 42.8,4 35.8,3.6 35.8,-1.2 		"/>
		<linearGradient id="SVGID_20_" gradientUnits="userSpaceOnUse" x1="35.8383" y1="7.3165" x2="42.7936" y2="7.3165">
			<stop  offset="0" style="stop-color:#FFFFFF;stop-opacity:0.5"/>
			<stop  offset="1" style="stop-color:#FFFFFF;stop-opacity:0"/>
		</linearGradient>
		<polygon opacity="0.35" fill="url(#SVGID_20_)" points="42.8,5.2 42.8,9.8 35.8,9.6 35.8,4.8 		"/>
		<linearGradient id="SVGID_21_" gradientUnits="userSpaceOnUse" x1="35.8383" y1="13.2014" x2="42.7936" y2="13.2014">
			<stop  offset="0" style="stop-color:#FFFFFF;stop-opacity:0.5"/>
			<stop  offset="1" style="stop-color:#FFFFFF;stop-opacity:0"/>
		</linearGradient>
		<polygon opacity="0.35" fill="url(#SVGID_21_)" points="42.8,11 42.8,15.6 35.8,15.6 35.8,10.8 		"/>
		<linearGradient id="SVGID_22_" gradientUnits="userSpaceOnUse" x1="35.8383" y1="19.1753" x2="42.7936" y2="19.1753">
			<stop  offset="0" style="stop-color:#FFFFFF;stop-opacity:0.5"/>
			<stop  offset="1" style="stop-color:#FFFFFF;stop-opacity:0"/>
		</linearGradient>
		<polygon opacity="0.35" fill="url(#SVGID_22_)" points="42.8,16.8 42.8,21.4 35.8,21.6 35.8,16.8 		"/>
		<linearGradient id="SVGID_23_" gradientUnits="userSpaceOnUse" x1="35.8383" y1="25.0687" x2="42.7936" y2="25.0687">
			<stop  offset="0" style="stop-color:#FFFFFF;stop-opacity:0.5"/>
			<stop  offset="1" style="stop-color:#FFFFFF;stop-opacity:0"/>
		</linearGradient>
		<polygon opacity="0.35" fill="url(#SVGID_23_)" points="42.8,22.6 42.8,27.1 35.8,27.6 35.8,22.8 		"/>
		<linearGradient id="SVGID_24_" gradientUnits="userSpaceOnUse" x1="35.8383" y1="30.9495" x2="42.7936" y2="30.9495">
			<stop  offset="0" style="stop-color:#FFFFFF;stop-opacity:0.5"/>
			<stop  offset="1" style="stop-color:#FFFFFF;stop-opacity:0"/>
		</linearGradient>
		<polygon opacity="0.35" fill="url(#SVGID_24_)" points="42.8,28.3 42.8,32.9 35.8,33.6 35.8,28.8 		"/>
		<linearGradient id="SVGID_25_" gradientUnits="userSpaceOnUse" x1="35.8383" y1="36.8429" x2="42.7936" y2="36.8429">
			<stop  offset="0" style="stop-color:#FFFFFF;stop-opacity:0.5"/>
			<stop  offset="1" style="stop-color:#FFFFFF;stop-opacity:0"/>
		</linearGradient>
		<polygon opacity="0.35" fill="url(#SVGID_25_)" points="35.8,34.8 42.8,34.1 42.8,38.7 35.8,39.6 		"/>
	</g>
	<g>
		<circle fill="#474747" cx="55.8" cy="-2.7" r="0.5"/>
		<circle fill="#474747" cx="55.8" cy="2.7" r="0.5"/>
		<circle fill="#474747" cx="55.8" cy="8.1" r="0.5"/>
		<circle fill="#474747" cx="55.8" cy="13.4" r="0.5"/>
		<circle fill="#474747" cx="55.8" cy="18.8" r="0.5"/>
		<circle fill="#474747" cx="55.8" cy="24.2" r="0.5"/>
		<circle fill="#474747" cx="55.8" cy="29.6" r="0.5"/>
		<circle fill="#474747" cx="55.8" cy="34.9" r="0.5"/>
	</g>
</g>
</svg>
