<?xml version="1.0" encoding="utf-8"?>
<!-- Generator: Adobe Illustrator 18.1.0, SVG Export Plug-In . SVG Version: 6.00 Build 0)  -->
<svg version="1.1" id="图层_1" xmlns="http://www.w3.org/2000/svg" xmlns:xlink="http://www.w3.org/1999/xlink" x="0px" y="0px"
	 width="16px" height="16px" viewBox="0 0 16 16" style="enable-background:new 0 0 16 16;" xml:space="preserve">
<style type="text/css">
	.st0{fill:url(#SVGID_1_);}
	.st1{fill:url(#SVGID_2_);}
	.st2{fill:url(#SVGID_3_);}
	.st3{fill:url(#SVGID_4_);}
	.st4{fill:url(#SVGID_5_);}
	.st5{fill:url(#SVGID_6_);}
	.st6{fill:url(#SVGID_7_);}
</style>
<g>
	
		<linearGradient id="SVGID_1_" gradientUnits="userSpaceOnUse" x1="0" y1="-14" x2="60" y2="-14" gradientTransform="matrix(0.2667 0 0 -0.2667 0 4.2667)">
		<stop  offset="0" style="stop-color:#B9BBBD"/>
		<stop  offset="3.208770e-002" style="stop-color:#B6B8BA"/>
		<stop  offset="5.619587e-002" style="stop-color:#ADAEB1"/>
		<stop  offset="8.827712e-002" style="stop-color:#9D9EA1"/>
		<stop  offset="0.1241" style="stop-color:#C1C1C2"/>
		<stop  offset="0.1924" style="stop-color:#F0F0F0"/>
		<stop  offset="0.2083" style="stop-color:#FBFBFB"/>
		<stop  offset="0.2247" style="stop-color:#FFFFFF"/>
		<stop  offset="0.3015" style="stop-color:#EEEEEF"/>
		<stop  offset="0.3853" style="stop-color:#E3E3E4"/>
		<stop  offset="0.4775" style="stop-color:#DFE0E1"/>
		<stop  offset="0.7191" style="stop-color:#FFFFFF"/>
		<stop  offset="0.779" style="stop-color:#FDFDFD"/>
		<stop  offset="0.8065" style="stop-color:#F6F5F5"/>
		<stop  offset="0.8258" style="stop-color:#EBEAEA"/>
		<stop  offset="0.927" style="stop-color:#797A7D"/>
		<stop  offset="1" style="stop-color:#BEC0C1"/>
	</linearGradient>
	<path class="st0" d="M13.5,16h-11C1.1,16,0,14.9,0,13.5v-11C0,1.1,1.1,0,2.5,0h11C14.9,0,16,1.1,16,2.5v11C16,14.9,14.9,16,13.5,16
		z"/>
	<g>
		
			<linearGradient id="SVGID_2_" gradientUnits="userSpaceOnUse" x1="5" y1="-13.9" x2="12.3286" y2="-13.9" gradientTransform="matrix(0.2667 0 0 -0.2667 0 4.2667)">
			<stop  offset="0" style="stop-color:#050505"/>
			<stop  offset="1" style="stop-color:#1E1E21"/>
		</linearGradient>
		<path class="st1" d="M2.7,7.4c0-0.1-0.1-0.2-0.1-0.3C2.5,7,2.4,7,2.3,7C2.2,7,2.1,7,2,7.1C1.9,7.1,1.9,7.2,1.9,7.3
			c0,0.1,0,0.2,0.1,0.2c0.1,0.1,0.2,0.1,0.4,0.2C2.7,7.8,3,7.9,3.1,8c0.1,0.1,0.2,0.3,0.2,0.6c0,0.3-0.1,0.5-0.3,0.7
			C2.9,9.4,2.7,9.5,2.4,9.5c-0.3,0-0.6-0.1-0.7-0.3C1.5,9.1,1.4,8.9,1.4,8.5h0.5c0,0.2,0.1,0.3,0.1,0.3C2.1,9,2.2,9,2.4,9
			c0.2,0,0.3,0,0.3-0.1c0.1-0.1,0.1-0.2,0.1-0.3c0-0.1-0.1-0.2-0.1-0.2C2.6,8.3,2.5,8.3,2.2,8.2C1.9,8.1,1.7,8,1.6,7.9
			C1.5,7.8,1.4,7.6,1.4,7.3c0-0.3,0.1-0.5,0.2-0.7C1.8,6.5,2,6.4,2.3,6.4S2.8,6.5,3,6.7c0.2,0.2,0.2,0.4,0.3,0.7L2.7,7.4L2.7,7.4z"
			/>
		
			<linearGradient id="SVGID_3_" gradientUnits="userSpaceOnUse" x1="12.9795" y1="-14.05" x2="20.8938" y2="-14.05" gradientTransform="matrix(0.2667 0 0 -0.2667 0 4.2667)">
			<stop  offset="0" style="stop-color:#050505"/>
			<stop  offset="1" style="stop-color:#1E1E21"/>
		</linearGradient>
		<path class="st2" d="M4.3,8.4L3.5,6.6h0.3h0.3l0.5,1.3l0,0L5,6.6h0.3h0.3L4.8,8.4v1.1H4.5H4.3V8.4z"/>
		
			<linearGradient id="SVGID_4_" gradientUnits="userSpaceOnUse" x1="22.0181" y1="-14.05" x2="29.393" y2="-14.05" gradientTransform="matrix(0.2667 0 0 -0.2667 0 4.2667)">
			<stop  offset="0" style="stop-color:#050505"/>
			<stop  offset="1" style="stop-color:#1E1E21"/>
		</linearGradient>
		<path class="st3" d="M5.9,6.6h0.2H7c0.2,0,0.4,0.1,0.6,0.2c0.1,0.1,0.2,0.3,0.2,0.5S7.7,7.7,7.5,7.8c0,0-0.1,0.1-0.1,0.1
			c0.1,0,0.1,0.1,0.1,0.1c0.2,0.1,0.2,0.3,0.2,0.6c0,0.3-0.1,0.5-0.2,0.6S7.3,9.5,7,9.5H6.1H5.9V6.6z M6.3,7.7h0.6
			c0.1,0,0.2,0,0.3-0.1c0.1-0.1,0.1-0.1,0.1-0.2s0-0.2-0.1-0.2C7.1,7.1,7,7,6.9,7H6.3V7.7z M6.3,9H7c0.1,0,0.2,0,0.3-0.1
			c0.1-0.1,0.1-0.2,0.1-0.3c0-0.1,0-0.2-0.1-0.3C7.2,8.2,7.1,8.2,6.9,8.2H6.3C6.3,8.2,6.3,9,6.3,9z"/>
		
			<linearGradient id="SVGID_5_" gradientUnits="userSpaceOnUse" x1="30.2875" y1="-14.05" x2="38.7719" y2="-14.05" gradientTransform="matrix(0.2667 0 0 -0.2667 0 4.2667)">
			<stop  offset="0" style="stop-color:#050505"/>
			<stop  offset="1" style="stop-color:#1E1E21"/>
		</linearGradient>
		<path class="st4" d="M8.9,6.6h0.3h0.3l0.9,2.9h-0.3H9.8L9.7,8.9H8.8L8.6,9.5H8.3H8.1L8.9,6.6z M8.9,8.3h0.6L9.2,7.2l0,0L8.9,8.3z"
			/>
		
			<linearGradient id="SVGID_6_" gradientUnits="userSpaceOnUse" x1="39.4977" y1="-13.9" x2="46.8263" y2="-13.9" gradientTransform="matrix(0.2667 0 0 -0.2667 0 4.2667)">
			<stop  offset="0" style="stop-color:#050505"/>
			<stop  offset="1" style="stop-color:#1E1E21"/>
		</linearGradient>
		<path class="st5" d="M11.9,7.4c0-0.1-0.1-0.2-0.1-0.3C11.7,7,11.6,7,11.5,7s-0.2,0-0.3,0.1c-0.1,0.1-0.1,0.2-0.1,0.3
			c0,0.1,0,0.2,0.1,0.2c0.1,0.1,0.2,0.1,0.4,0.2c0.4,0.1,0.6,0.2,0.7,0.3c0.1,0.1,0.2,0.3,0.2,0.6c0,0.3-0.1,0.5-0.3,0.7
			c-0.2,0.2-0.4,0.2-0.7,0.2c-0.3,0-0.6-0.1-0.7-0.3c-0.2-0.2-0.3-0.4-0.3-0.7h0.5c0,0.2,0.1,0.3,0.1,0.3S11.4,9,11.6,9
			c0.2,0,0.3,0,0.3-0.1c0.1-0.1,0.1-0.2,0.1-0.3c0-0.1-0.1-0.2-0.1-0.2s-0.2-0.1-0.5-0.2c-0.3-0.1-0.5-0.2-0.7-0.3
			c-0.1-0.1-0.2-0.3-0.2-0.6c0-0.3,0.1-0.5,0.2-0.7c0.2-0.2,0.4-0.2,0.7-0.2s0.5,0.1,0.7,0.2c0.2,0.2,0.2,0.4,0.3,0.7L11.9,7.4
			L11.9,7.4z"/>
		
			<linearGradient id="SVGID_7_" gradientUnits="userSpaceOnUse" x1="48.2316" y1="-14.15" x2="55" y2="-14.15" gradientTransform="matrix(0.2667 0 0 -0.2667 0 4.2667)">
			<stop  offset="0" style="stop-color:#050505"/>
			<stop  offset="1" style="stop-color:#1E1E21"/>
		</linearGradient>
		<path class="st6" d="M12.9,9.4V6.6h1.8v0.3v0.3h-1.3v0.6h1.1V8v0.3h-1.1V9h1.3v0.3v0.3L12.9,9.4L12.9,9.4z"/>
	</g>
</g>
</svg>
