<?xml version="1.0" encoding="utf-8"?>
<!-- Generator: Adobe Illustrator 18.1.0, SVG Export Plug-In . SVG Version: 6.00 Build 0)  -->
<svg version="1.1" id="图层_1" xmlns="http://www.w3.org/2000/svg" xmlns:xlink="http://www.w3.org/1999/xlink" x="0px" y="0px"
	 width="16px" height="16px" viewBox="0 0 16 16" style="enable-background:new 0 0 16 16;" xml:space="preserve">
<style type="text/css">
	.st0{fill:url(#SVGID_1_);}
	.st1{fill:url(#SVGID_2_);}
</style>
<g>
	
		<linearGradient id="SVGID_1_" gradientUnits="userSpaceOnUse" x1="0" y1="-14" x2="60" y2="-14" gradientTransform="matrix(0.2667 0 0 -0.2667 0 4.2667)">
		<stop  offset="0" style="stop-color:#B9BBBD"/>
		<stop  offset="3.208770e-002" style="stop-color:#B6B8BA"/>
		<stop  offset="5.619587e-002" style="stop-color:#ADAEB1"/>
		<stop  offset="8.827712e-002" style="stop-color:#9D9EA1"/>
		<stop  offset="0.1241" style="stop-color:#C1C1C2"/>
		<stop  offset="0.1924" style="stop-color:#F0F0F0"/>
		<stop  offset="0.2083" style="stop-color:#FBFBFB"/>
		<stop  offset="0.2247" style="stop-color:#FFFFFF"/>
		<stop  offset="0.3015" style="stop-color:#EEEEEF"/>
		<stop  offset="0.3853" style="stop-color:#E3E3E4"/>
		<stop  offset="0.4775" style="stop-color:#DFE0E1"/>
		<stop  offset="0.7191" style="stop-color:#FFFFFF"/>
		<stop  offset="0.779" style="stop-color:#FDFDFD"/>
		<stop  offset="0.8065" style="stop-color:#F6F5F5"/>
		<stop  offset="0.8258" style="stop-color:#EBEAEA"/>
		<stop  offset="0.927" style="stop-color:#797A7D"/>
		<stop  offset="1" style="stop-color:#BEC0C1"/>
	</linearGradient>
	<path class="st0" d="M13.5,16h-11C1.1,16,0,14.9,0,13.5v-11C0,1.1,1.1,0,2.5,0h11C14.9,0,16,1.1,16,2.5v11C16,14.9,14.9,16,13.5,16
		z"/>
	
		<linearGradient id="SVGID_2_" gradientUnits="userSpaceOnUse" x1="10" y1="-13.95" x2="50" y2="-13.95" gradientTransform="matrix(0.2667 0 0 -0.2667 0 4.2667)">
		<stop  offset="0" style="stop-color:#050505"/>
		<stop  offset="1" style="stop-color:#1E1E21"/>
	</linearGradient>
	<path class="st1" d="M11.9,6.9c-0.1-0.3-0.2-0.7-0.4-1l0.8-1.2l0,0l-1.1-1.1l0,0l-1.2,0.8c-0.3-0.2-0.6-0.3-1-0.4L8.8,2.7l0,0H7.2
		l0,0L7,4.1C6.6,4.2,6.3,4.3,6,4.5L4.8,3.7l0,0L3.7,4.8l0,0l0.8,1.2c-0.2,0.3-0.3,0.6-0.4,1L2.7,7.2l0,0v1.6l0,0L4.1,9
		c0.1,0.3,0.2,0.7,0.4,1l-0.8,1.2l0,0l1.1,1.1l0,0L6,11.5c0.3,0.2,0.6,0.3,1,0.4l0.3,1.4l0,0h1.6l0,0l0.3-1.4c0.3-0.1,0.7-0.2,1-0.4
		l1.2,0.8l0,0l1.1-1.1l0,0L11.5,10c0.2-0.3,0.3-0.6,0.4-1l1.4-0.3l0,0V7.2l0,0L11.9,6.9z M9.8,8C9.8,9,9,9.8,8,9.8S6.2,9,6.2,8
		S7,6.2,8,6.2C9,6.2,9.8,7,9.8,8z"/>
</g>
</svg>
