<?xml version="1.0" encoding="utf-8"?>
<!-- Generator: Adobe Illustrator 18.1.0, SVG Export Plug-In . SVG Version: 6.00 Build 0)  -->
<svg version="1.1" id="图层_1" xmlns="http://www.w3.org/2000/svg" xmlns:xlink="http://www.w3.org/1999/xlink" x="0px" y="0px"
	 width="16px" height="16px" viewBox="0 0 16 16" style="enable-background:new 0 0 16 16;" xml:space="preserve">
<style type="text/css">
	.st0{fill:url(#SVGID_1_);}
	.st1{fill:url(#SVGID_2_);}
	.st2{fill:url(#SVGID_3_);}
	.st3{fill:url(#SVGID_4_);}
</style>
<g>
	
		<linearGradient id="SVGID_1_" gradientUnits="userSpaceOnUse" x1="0" y1="-14" x2="60" y2="-14" gradientTransform="matrix(0.2667 0 0 -0.2667 0 4.2667)">
		<stop  offset="0" style="stop-color:#B9BBBD"/>
		<stop  offset="3.208770e-002" style="stop-color:#B6B8BA"/>
		<stop  offset="5.619587e-002" style="stop-color:#ADAEB1"/>
		<stop  offset="8.827712e-002" style="stop-color:#9D9EA1"/>
		<stop  offset="0.1241" style="stop-color:#C1C1C2"/>
		<stop  offset="0.1924" style="stop-color:#F0F0F0"/>
		<stop  offset="0.2083" style="stop-color:#FBFBFB"/>
		<stop  offset="0.2247" style="stop-color:#FFFFFF"/>
		<stop  offset="0.3015" style="stop-color:#EEEEEF"/>
		<stop  offset="0.3853" style="stop-color:#E3E3E4"/>
		<stop  offset="0.4775" style="stop-color:#DFE0E1"/>
		<stop  offset="0.7191" style="stop-color:#FFFFFF"/>
		<stop  offset="0.779" style="stop-color:#FDFDFD"/>
		<stop  offset="0.8065" style="stop-color:#F6F5F5"/>
		<stop  offset="0.8258" style="stop-color:#EBEAEA"/>
		<stop  offset="0.927" style="stop-color:#797A7D"/>
		<stop  offset="1" style="stop-color:#BEC0C1"/>
	</linearGradient>
	<path class="st0" d="M13.5,16h-11C1.1,16,0,14.9,0,13.5v-11C0,1.1,1.1,0,2.5,0h11C14.9,0,16,1.1,16,2.5v11C16,14.9,14.9,16,13.5,16
		z"/>
	<g>
		
			<linearGradient id="SVGID_2_" gradientUnits="userSpaceOnUse" x1="10" y1="-14.05" x2="21.8464" y2="-14.05" gradientTransform="matrix(0.2667 0 0 -0.2667 0 4.2667)">
			<stop  offset="0" style="stop-color:#050505"/>
			<stop  offset="1" style="stop-color:#1E1E21"/>
		</linearGradient>
		<path class="st1" d="M5.8,8.6c0,0.5-0.1,0.8-0.4,1C5.1,9.9,4.7,10,4.2,10S3.3,9.9,3.1,9.6C2.8,9.4,2.7,9,2.7,8.6V6h0.4h0.4v2.5
			c0,0.2,0.1,0.5,0.2,0.6C3.8,9.2,4,9.3,4.2,9.3c0.2,0,0.4-0.1,0.6-0.2S5,8.8,5,8.5V6h0.4h0.4L5.8,8.6L5.8,8.6z"/>
		
			<linearGradient id="SVGID_3_" gradientUnits="userSpaceOnUse" x1="24.8446" y1="-13.9" x2="37.142" y2="-13.9" gradientTransform="matrix(0.2667 0 0 -0.2667 0 4.2667)">
			<stop  offset="0" style="stop-color:#050505"/>
			<stop  offset="1" style="stop-color:#1E1E21"/>
		</linearGradient>
		<path class="st2" d="M6.6,6H7h1.4c0.5,0,0.8,0.1,1,0.3c0.2,0.2,0.3,0.5,0.3,0.8S9.7,7.7,9.5,7.9C9.4,7.9,9.3,8,9.2,8
			c0,0,0.1,0,0.1,0.1c0.3,0.2,0.4,0.4,0.4,0.8v0.4c0,0.2,0,0.3,0,0.3c0,0.1,0.1,0.1,0.1,0.1v0.1H9c0-0.1-0.1-0.2-0.1-0.3
			c0-0.1,0-0.3,0-0.4V9c0-0.2,0-0.4-0.1-0.5C8.6,8.5,8.5,8.4,8.3,8.4H7.4v1.5H7H6.6L6.6,6L6.6,6z M7.4,7.7h0.9
			c0.2,0,0.4-0.1,0.5-0.1C9,7.5,9,7.4,9,7.2S9,6.9,8.9,6.8C8.8,6.7,8.6,6.7,8.5,6.7h-1L7.4,7.7L7.4,7.7z"/>
		
			<linearGradient id="SVGID_4_" gradientUnits="userSpaceOnUse" x1="39.6161" y1="-13.85" x2="50" y2="-13.85" gradientTransform="matrix(0.2667 0 0 -0.2667 0 4.2667)">
			<stop  offset="0" style="stop-color:#050505"/>
			<stop  offset="1" style="stop-color:#1E1E21"/>
		</linearGradient>
		<path class="st3" d="M10.6,9.9V6H11h0.4v3.2h2v0.3v0.3H10.6z"/>
	</g>
</g>
</svg>
