<?xml version="1.0" encoding="utf-8"?>
<!-- Generator: Adobe Illustrator 18.1.0, SVG Export Plug-In . SVG Version: 6.00 Build 0)  -->
<svg version="1.1" id="图层_1" xmlns="http://www.w3.org/2000/svg" xmlns:xlink="http://www.w3.org/1999/xlink" x="0px" y="0px"
	 width="16px" height="16px" viewBox="0 0 16 16" style="enable-background:new 0 0 16 16;" xml:space="preserve">
<style type="text/css">
	.st0{fill:url(#SVGID_1_);}
	.st1{opacity:0.55;fill:url(#SVGID_2_);enable-background:new    ;}
	.st2{fill:url(#SVGID_3_);}
	.st3{fill:url(#SVGID_4_);}
	.st4{fill:url(#SVGID_5_);}
	.st5{fill:#FFFFFF;}
	.st6{fill:url(#SVGID_6_);}
	.st7{fill:url(#SVGID_7_);}
</style>
<g>
	
		<linearGradient id="SVGID_1_" gradientUnits="userSpaceOnUse" x1="0" y1="-14" x2="60" y2="-14" gradientTransform="matrix(0.2667 0 0 -0.2667 0 4.2667)">
		<stop  offset="0" style="stop-color:#B9BBBD"/>
		<stop  offset="3.208770e-002" style="stop-color:#B6B8BA"/>
		<stop  offset="5.619587e-002" style="stop-color:#ADAEB1"/>
		<stop  offset="8.827712e-002" style="stop-color:#9D9EA1"/>
		<stop  offset="0.1241" style="stop-color:#C1C1C2"/>
		<stop  offset="0.1924" style="stop-color:#F0F0F0"/>
		<stop  offset="0.2083" style="stop-color:#FBFBFB"/>
		<stop  offset="0.2247" style="stop-color:#FFFFFF"/>
		<stop  offset="0.3015" style="stop-color:#EEEEEF"/>
		<stop  offset="0.3853" style="stop-color:#E3E3E4"/>
		<stop  offset="0.4775" style="stop-color:#DFE0E1"/>
		<stop  offset="0.7191" style="stop-color:#FFFFFF"/>
		<stop  offset="0.779" style="stop-color:#FDFDFD"/>
		<stop  offset="0.8065" style="stop-color:#F6F5F5"/>
		<stop  offset="0.8258" style="stop-color:#EBEAEA"/>
		<stop  offset="0.927" style="stop-color:#797A7D"/>
		<stop  offset="1" style="stop-color:#BEC0C1"/>
	</linearGradient>
	<path class="st0" d="M13.5,16h-11C1.1,16,0,14.9,0,13.5v-11C0,1.1,1.1,0,2.5,0h11C14.9,0,16,1.1,16,2.5v11C16,14.9,14.9,16,13.5,16
		z"/>
	<g>
		<g>
			<g>
				
					<linearGradient id="SVGID_2_" gradientUnits="userSpaceOnUse" x1="32.5" y1="-18.0252" x2="55.0033" y2="-18.0252" gradientTransform="matrix(0.2667 0 0 -0.2667 0 4.2667)">
					<stop  offset="0" style="stop-color:#050505"/>
					<stop  offset="1" style="stop-color:#1E1E21"/>
				</linearGradient>
				<path class="st1" d="M14.2,6.5c-0.4-0.2-0.8-0.2-1.2-0.1c-0.7,0.1-1.4,0.3-2.1,0.6C10.9,7.1,11,7.3,11,7.4
					c0.1,0.4,0.1,0.7,0.1,1.1c0,0.1,0,0.2,0,0.2c0,0.1-0.1,0.2-0.1,0.3c-0.1,0.5-0.3,0.9-0.6,1.3l0,0c-0.1,0.1-0.1,0.2-0.2,0.2
					c-0.1,0.1-0.1,0.1-0.1,0.2l0,0c-0.1,0.1-0.1,0.1-0.2,0.1l0,0l0,0c-0.3,0.3-0.7,0.5-1.1,0.7c-0.1,0-0.1,0-0.1,0.1
					c0,0-0.1,0-0.1,0c0,0-0.1,0-0.1,0c0,0,0.1,0,0.1,0l0,0c0,0,0.1,0,0.1,0l0,0c0.1,0,0.1,0,0.1,0l0,0c0.1,0,0.2-0.1,0.3-0.1
					c1-0.3,1.8-0.7,2.7-1.3c0.8-0.5,1.6-1.2,2.2-1.9c0.2-0.3,0.4-0.6,0.5-1C14.7,7,14.6,6.7,14.2,6.5z"/>
				
					<linearGradient id="SVGID_3_" gradientUnits="userSpaceOnUse" x1="15.1148" y1="-15.4826" x2="41.891" y2="-15.4826" gradientTransform="matrix(0.2667 0 0 -0.2667 0 4.2667)">
					<stop  offset="0" style="stop-color:#050505"/>
					<stop  offset="1" style="stop-color:#1E1E21"/>
				</linearGradient>
				<path class="st2" d="M11.2,8.6c0,0.1,0,0.2,0,0.2c0,0.1-0.1,0.2-0.1,0.4c-0.1,0.5-0.3,0.9-0.6,1.3c-0.1,0.1-0.1,0.2-0.2,0.2
					c-0.1,0.1-0.1,0.1-0.1,0.2l0,0C10.1,10.9,10.1,11,10,11c-0.3,0.3-0.7,0.5-1.1,0.7c0,0-0.1,0-0.1,0.1c0,0,0,0-0.1,0
					c0,0-0.1,0-0.1,0c-0.2,0.1-0.4,0.1-0.6,0.1c-0.8,0.1-1.6-0.1-2.3-0.5C4.8,10.9,4.2,10,4.1,9c-0.1-0.9,0-1.7,0.5-2.5
					c0-0.1,0.1-0.1,0.2-0.1c0.6,0,1.2,0,1.8,0c0.1,0,0.2,0,0.3-0.1C6.9,6.2,6.9,6.2,7,6.2v0H4.9c0-0.1,0-0.1,0.1-0.1
					c0.8-0.8,1.7-1.3,2.9-1.2c1,0.1,1.8,0.4,2.5,1.1c0.3,0.3,0.5,0.6,0.6,0.9c0,0,0,0.1,0.1,0.1C10.9,7.1,11,7.3,11,7.4
					C11.1,7.8,11.2,8.2,11.2,8.6z"/>
				
					<linearGradient id="SVGID_4_" gradientUnits="userSpaceOnUse" x1="5" y1="-13.1" x2="12.9735" y2="-13.1" gradientTransform="matrix(0.2667 0 0 -0.2667 0 4.2667)">
					<stop  offset="0" style="stop-color:#050505"/>
					<stop  offset="1" style="stop-color:#1E1E21"/>
				</linearGradient>
				<path class="st3" d="M2.4,9.4C2.5,9.2,2.5,9,2.6,8.8C2.7,8.4,2.9,7.9,3,7.5C3,7.4,3,7.4,3,7.3C2.4,7,1.9,6.6,1.4,6.2
					c0,0,0,0-0.1-0.1c0,0,0.1,0,0.1,0c0.6,0,1.3,0,1.9,0c0.1,0,0.1,0,0.1,0.1S3.4,6.3,3.3,6.3c-0.3,0-0.7,0-1,0c0,0-0.1,0-0.1,0
					c0.2,0.1,0.3,0.2,0.5,0.3c0.2,0.2,0.5,0.3,0.7,0.5c0.1,0.1,0.1,0.1,0.1,0.2C3.2,7.9,3,8.5,2.8,9.1c0,0.1-0.1,0.2-0.2,0.2
					C2.6,9.3,2.5,9.4,2.4,9.4C2.4,9.4,2.4,9.4,2.4,9.4z"/>
				
					<linearGradient id="SVGID_5_" gradientUnits="userSpaceOnUse" x1="15.0961" y1="-3.55" x2="18.0414" y2="-3.55" gradientTransform="matrix(0.2667 0 0 -0.2667 0 4.2667)">
					<stop  offset="0" style="stop-color:#050505"/>
					<stop  offset="1" style="stop-color:#1E1E21"/>
				</linearGradient>
				<path class="st4" d="M4.2,4.1C4.3,4.4,4.4,4.7,4.5,5c0.1,0.3,0.2,0.6,0.3,1c0,0.1,0.1,0.2,0,0.2c-0.1,0-0.1,0.1-0.1,0.1
					c-0.1,0-0.1-0.1-0.1-0.2C4.4,5.6,4.2,5.1,4,4.5c0-0.1,0-0.1,0-0.2C4.1,4.3,4.1,4.2,4.2,4.1L4.2,4.1z"/>
				<g>
					<g>
						<g>
							<path class="st5" d="M5.4,8.7C5.3,8.4,5.2,8,5,7.7c0-0.1,0-0.1,0.1-0.2c0.2-0.1,0.2-0.1,0.2,0.1c0.2,0.6,0.4,1.2,0.6,1.8
								c0,0,0,0.1,0,0.1c0,0-0.1,0-0.1,0C5.3,9,4.7,8.7,4.2,8.3c-0.1-0.1-0.1-0.1,0-0.1C4.4,8,4.4,8,4.6,8.1
								C4.8,8.3,5.1,8.5,5.4,8.7C5.3,8.7,5.4,8.7,5.4,8.7L5.4,8.7z"/>
						</g>
						<g>
							<path class="st5" d="M6.6,6.9c0-0.1,0.1-0.2,0.1-0.2C6.8,6.5,7,6.5,7,6.7C7.1,6.8,7.2,7,7.2,7.1c0,0.1,0,0.2,0.2,0.1
								c0,0,0,0,0,0.1C7.3,7.4,7.2,7.5,7,7.6h0c0,0,0,0,0-0.1c0.1-0.1,0.1-0.2,0-0.2C7,7.1,6.9,7,6.9,6.8c0-0.1-0.1-0.1-0.1-0.1
								C6.7,6.7,6.6,6.8,6.6,6.9c0,0-0.1,0.1,0,0.2c0.1,0.1,0.1,0.3,0.2,0.4c0,0.1,0.1,0.1,0.1,0.1h0c0,0,0,0,0,0.1
								C6.8,7.8,6.7,7.8,6.6,7.9c0,0,0,0-0.1,0c0,0,0,0,0-0.1c0.1-0.1,0.1-0.1,0-0.2C6.5,7.5,6.4,7.3,6.3,7.1c0-0.1-0.1-0.1-0.1-0.1
								c0,0,0,0-0.1,0c0,0,0,0,0-0.1c0.1-0.1,0.1-0.2,0.2-0.3c0.1-0.1,0.1,0,0.1,0.1C6.6,6.9,6.6,6.9,6.6,6.9z"/>
						</g>
						<g>
							<path class="st5" d="M8,6.8C8,6.9,7.9,7,7.9,7C7.8,7.2,7.6,7.2,7.5,7C7.5,6.9,7.4,6.7,7.3,6.5c0-0.1,0-0.2-0.2-0.1
								c0,0,0,0,0,0v0c0.1-0.1,0.2-0.1,0.2-0.2c0.1,0,0.1,0,0.1,0.1c0.1,0.2,0.1,0.4,0.2,0.5c0,0.1,0,0.2,0.1,0.2S7.9,6.9,8,6.8
								C7.9,6.7,7.9,6.6,7.9,6.5C7.9,6.4,7.8,6.2,7.8,6.1C7.7,6.1,7.7,6,7.6,6c0,0,0,0-0.1,0c0,0,0,0,0-0.1c0.1-0.1,0.1-0.1,0.2-0.2
								c0.1,0,0.1,0,0.1,0.1C8,6.1,8,6.2,8.1,6.4c0,0,0,0.1,0.1,0.1c0,0.1,0.1,0.1,0.1,0c0,0,0,0,0.1,0c0,0,0,0,0,0.1
								C8.3,6.7,8.2,6.8,8.1,6.9S8.1,6.8,8,6.8C8,6.8,8,6.7,8,6.8z"/>
						</g>
						<g>
							<g>
								<path class="st5" d="M6.4,7.8C6.4,7.7,6.4,7.7,6.4,7.8C6.3,7.7,6.3,7.7,6.4,7.8C6.3,7.8,6.3,7.8,6.4,7.8
									C6.3,8,6.2,8.1,6.1,8.1C6,8.1,5.9,8.1,5.8,7.9c0-0.1,0-0.1,0-0.2C6,7.7,6.1,7.6,6.3,7.5c0,0,0.1-0.1,0.1-0.1
									C6.3,7.2,6.1,7.1,6,7.2c-0.1,0-0.1,0.1-0.2,0.2C5.6,7.6,5.7,8,5.8,8.2c0.1,0.1,0.3,0.1,0.4,0C6.4,8.1,6.4,8,6.4,7.8
									C6.4,7.8,6.4,7.8,6.4,7.8z M5.8,7.7c0,0,0-0.1,0-0.1c0-0.1,0-0.2,0.1-0.2C5.9,7.3,6,7.3,6,7.4c0.1,0.1,0.1,0.1,0,0.2
									C5.9,7.6,5.9,7.6,5.8,7.7C5.8,7.7,5.8,7.7,5.8,7.7z"/>
							</g>
						</g>
						<g>
							<path class="st5" d="M8.6,6c-0.1,0-0.2,0-0.2,0C8.2,6,8.2,6,8.2,5.9c-0.1-0.2,0-0.5,0.2-0.5c0,0,0.1,0,0.1-0.1
								c0-0.1,0.1-0.1,0.1,0c0,0.1,0.1,0.1,0.1,0.2c0,0,0,0.1,0,0.1c0,0-0.1,0-0.1,0c-0.1-0.1-0.2-0.1-0.3,0c-0.1,0.1,0,0.2,0.1,0.2
								c0.1,0,0.1,0,0.2,0c0.2,0,0.3,0.1,0.3,0.3c0,0.2-0.1,0.3-0.3,0.4c-0.1,0-0.1,0-0.2,0.1c0,0-0.1,0-0.1,0
								c0-0.1-0.1-0.2-0.1-0.2c0,0,0-0.1,0-0.1c0,0,0.1,0,0.1,0c0,0,0,0.1,0.1,0.1c0.1,0.1,0.2,0.1,0.2,0s0.1-0.1,0.1-0.2
								C8.7,6,8.7,6,8.6,6z"/>
						</g>
					</g>
				</g>
				
					<linearGradient id="SVGID_6_" gradientUnits="userSpaceOnUse" x1="29.9607" y1="-9.3793" x2="30.1187" y2="-9.3793" gradientTransform="matrix(0.2667 0 0 -0.2667 0 4.2667)">
					<stop  offset="0" style="stop-color:#050505"/>
					<stop  offset="1" style="stop-color:#1E1E21"/>
				</linearGradient>
				<path class="st6" d="M8,6.8C8,6.7,8,6.7,8,6.8C8.1,6.7,8.1,6.8,8,6.8C8,6.8,8,6.8,8,6.8z"/>
				
					<linearGradient id="SVGID_7_" gradientUnits="userSpaceOnUse" x1="24.5674" y1="-9.8" x2="24.7169" y2="-9.8" gradientTransform="matrix(0.2667 0 0 -0.2667 0 4.2667)">
					<stop  offset="0" style="stop-color:#050505"/>
					<stop  offset="1" style="stop-color:#1E1E21"/>
				</linearGradient>
				<path class="st7" d="M6.6,6.9C6.6,6.9,6.6,6.9,6.6,6.9C6.5,6.9,6.5,6.9,6.6,6.9C6.6,6.9,6.6,6.9,6.6,6.9z"/>
			</g>
		</g>
	</g>
</g>
</svg>
