<?xml version="1.0" encoding="utf-8"?>
<!-- Generator: Adobe Illustrator 18.1.0, SVG Export Plug-In . SVG Version: 6.00 Build 0)  -->
<svg version="1.1" id="图层_1" xmlns="http://www.w3.org/2000/svg" xmlns:xlink="http://www.w3.org/1999/xlink" x="0px" y="0px"
	 width="16px" height="16px" viewBox="0 0 16 16" style="enable-background:new 0 0 16 16;" xml:space="preserve">
<style type="text/css">
	.st0{fill:url(#SVGID_1_);}
	.st1{fill:url(#SVGID_2_);}
	.st2{fill:url(#SVGID_3_);}
	.st3{fill:url(#SVGID_4_);}
	.st4{fill:url(#SVGID_5_);}
	.st5{fill:url(#SVGID_6_);}
	.st6{fill:url(#SVGID_7_);}
	.st7{fill:url(#SVGID_8_);}
	.st8{fill:url(#SVGID_9_);}
	.st9{fill:url(#SVGID_10_);}
	.st10{fill:url(#SVGID_11_);}
</style>
<g>
	
		<linearGradient id="SVGID_1_" gradientUnits="userSpaceOnUse" x1="0" y1="-14" x2="60" y2="-14" gradientTransform="matrix(0.2667 0 0 -0.2667 0 4.2667)">
		<stop  offset="0" style="stop-color:#B9BBBD"/>
		<stop  offset="3.208770e-002" style="stop-color:#B6B8BA"/>
		<stop  offset="5.619587e-002" style="stop-color:#ADAEB1"/>
		<stop  offset="8.827712e-002" style="stop-color:#9D9EA1"/>
		<stop  offset="0.1241" style="stop-color:#C1C1C2"/>
		<stop  offset="0.1924" style="stop-color:#F0F0F0"/>
		<stop  offset="0.2083" style="stop-color:#FBFBFB"/>
		<stop  offset="0.2247" style="stop-color:#FFFFFF"/>
		<stop  offset="0.3015" style="stop-color:#EEEEEF"/>
		<stop  offset="0.3853" style="stop-color:#E3E3E4"/>
		<stop  offset="0.4775" style="stop-color:#DFE0E1"/>
		<stop  offset="0.7191" style="stop-color:#FFFFFF"/>
		<stop  offset="0.779" style="stop-color:#FDFDFD"/>
		<stop  offset="0.8065" style="stop-color:#F6F5F5"/>
		<stop  offset="0.8258" style="stop-color:#EBEAEA"/>
		<stop  offset="0.927" style="stop-color:#797A7D"/>
		<stop  offset="1" style="stop-color:#BEC0C1"/>
	</linearGradient>
	<path class="st0" d="M13.5,16h-11C1.1,16,0,14.9,0,13.5v-11C0,1.1,1.1,0,2.5,0h11C14.9,0,16,1.1,16,2.5v11C16,14.9,14.9,16,13.5,16
		z"/>
	<g>
		<g>
			
				<linearGradient id="SVGID_2_" gradientUnits="userSpaceOnUse" x1="12.3" y1="-6.4" x2="25.835" y2="-6.4" gradientTransform="matrix(0.2667 0 0 -0.2667 0 4.2667)">
				<stop  offset="0" style="stop-color:#050505"/>
				<stop  offset="1" style="stop-color:#1E1E21"/>
			</linearGradient>
			<path class="st1" d="M4.1,7.7L3.3,4.2h0.3h0.3l0.5,2.5l0,0l0.4-2.5h0.3h0.3l0.4,2.5l0,0l0.5-2.5h0.3h0.3L6.1,7.7H5.8H5.5L5.1,5
				l0,0L4.6,7.7H4.4C4.4,7.7,4.1,7.7,4.1,7.7z"/>
			
				<linearGradient id="SVGID_3_" gradientUnits="userSpaceOnUse" x1="28.1" y1="-6.4" x2="36.1786" y2="-6.4" gradientTransform="matrix(0.2667 0 0 -0.2667 0 4.2667)">
				<stop  offset="0" style="stop-color:#050505"/>
				<stop  offset="1" style="stop-color:#1E1E21"/>
			</linearGradient>
			<path class="st2" d="M7.5,7.7V4.2h2.1v0.3v0.3H8.1v0.7h1.4v0.3v0.3H8.1v0.9h1.5v0.3v0.3C9.7,7.7,7.5,7.7,7.5,7.7z"/>
			
				<linearGradient id="SVGID_4_" gradientUnits="userSpaceOnUse" x1="38.8855" y1="-6.4" x2="47.6855" y2="-6.4" gradientTransform="matrix(0.2667 0 0 -0.2667 0 4.2667)">
				<stop  offset="0" style="stop-color:#050505"/>
				<stop  offset="1" style="stop-color:#1E1E21"/>
			</linearGradient>
			<path class="st3" d="M10.4,4.2h0.3h1c0.3,0,0.5,0.1,0.7,0.2c0.2,0.2,0.2,0.4,0.2,0.6c0,0.3-0.1,0.5-0.2,0.6c0,0-0.1,0.1-0.1,0.1
				c0.1,0,0.1,0.1,0.2,0.1c0.2,0.2,0.3,0.4,0.3,0.7c0,0.3-0.1,0.6-0.3,0.8c-0.2,0.2-0.4,0.3-0.7,0.3h-1h-0.3V4.2z M10.9,5.6h0.7
				c0.2,0,0.3,0,0.3-0.1C12,5.5,12,5.4,12,5.2c0-0.1,0-0.2-0.1-0.3c-0.1-0.1-0.2-0.1-0.4-0.1h-0.6V5.6z M10.9,7.1h0.8
				c0.1,0,0.2,0,0.3-0.1c0.1-0.1,0.1-0.2,0.1-0.3s0-0.3-0.1-0.3s-0.2-0.1-0.3-0.1h-0.7V7.1z"/>
		</g>
		<g>
			
				<linearGradient id="SVGID_5_" gradientUnits="userSpaceOnUse" x1="5" y1="-23.1" x2="11.3182" y2="-23.1" gradientTransform="matrix(0.2667 0 0 -0.2667 0 4.2667)">
				<stop  offset="0" style="stop-color:#050505"/>
				<stop  offset="1" style="stop-color:#1E1E21"/>
			</linearGradient>
			<path class="st4" d="M2.5,9.9c0-0.1-0.1-0.2-0.1-0.3C2.3,9.6,2.3,9.5,2.1,9.5c-0.1,0-0.2,0-0.3,0.1C1.8,9.7,1.8,9.8,1.8,9.9
				c0,0.1,0,0.1,0.1,0.2c0.1,0.1,0.2,0.1,0.3,0.1c0.3,0.1,0.5,0.2,0.6,0.3C2.9,10.6,3,10.7,3,11c0,0.2-0.1,0.5-0.2,0.6
				c-0.1,0.1-0.3,0.2-0.6,0.2s-0.5-0.1-0.6-0.2c-0.1-0.2-0.2-0.4-0.2-0.6h0.4c0,0.1,0.1,0.2,0.1,0.3c0.1,0.1,0.2,0.1,0.3,0.1
				c0.1,0,0.2,0,0.3-0.1c0.1-0.1,0.1-0.1,0.1-0.2c0-0.1,0-0.2-0.1-0.2S2.2,10.7,2,10.6c-0.3-0.1-0.5-0.2-0.6-0.3
				c-0.1-0.1-0.2-0.3-0.2-0.5c0-0.2,0.1-0.4,0.2-0.6s0.3-0.2,0.6-0.2s0.5,0.1,0.6,0.2c0.1,0.1,0.2,0.3,0.2,0.6L2.5,9.9L2.5,9.9z"/>
			
				<linearGradient id="SVGID_6_" gradientUnits="userSpaceOnUse" x1="13.1826" y1="-23.1" x2="19.0171" y2="-23.1" gradientTransform="matrix(0.2667 0 0 -0.2667 0 4.2667)">
				<stop  offset="0" style="stop-color:#050505"/>
				<stop  offset="1" style="stop-color:#1E1E21"/>
			</linearGradient>
			<path class="st5" d="M3.5,11.7V9.2H5v0.2v0.2H3.9v0.5h1v0.2v0.2h-1v0.6h1.1v0.3v0.2H3.5z"/>
			
				<linearGradient id="SVGID_7_" gradientUnits="userSpaceOnUse" x1="20.9772" y1="-23.15" x2="27.4111" y2="-23.15" gradientTransform="matrix(0.2667 0 0 -0.2667 0 4.2667)">
				<stop  offset="0" style="stop-color:#050505"/>
				<stop  offset="1" style="stop-color:#1E1E21"/>
			</linearGradient>
			<path class="st6" d="M5.6,9.2h0.2h0.7c0.2,0,0.4,0.1,0.5,0.2c0.1,0.1,0.2,0.3,0.2,0.5c0,0.2-0.1,0.4-0.2,0.5c0,0-0.1,0.1-0.1,0.1
				c0,0,0,0,0.1,0c0.1,0.1,0.2,0.3,0.2,0.5v0.3c0,0.1,0,0.2,0,0.2c0,0.1,0,0.1,0.1,0.1v0.1H6.9c0-0.1,0-0.1,0-0.2s0-0.2,0-0.2v-0.1
				c0-0.1,0-0.2-0.1-0.3c-0.1-0.1-0.1-0.1-0.2-0.1H6.1v1H5.8H5.6V9.2z M6,10.3h0.5c0.1,0,0.2,0,0.2-0.1c0.1-0.1,0.1-0.1,0.1-0.3
				c0-0.1,0-0.2-0.1-0.3C6.7,9.6,6.6,9.6,6.5,9.6H6L6,10.3L6,10.3z"/>
			
				<linearGradient id="SVGID_8_" gradientUnits="userSpaceOnUse" x1="28.759" y1="-23.1" x2="35.4799" y2="-23.1" gradientTransform="matrix(0.2667 0 0 -0.2667 0 4.2667)">
				<stop  offset="0" style="stop-color:#050505"/>
				<stop  offset="1" style="stop-color:#1E1E21"/>
			</linearGradient>
			<path class="st7" d="M7.7,9.2h0.2h0.2l0.5,1.9l0,0l0.5-1.9h0.2h0.2l-0.7,2.5H8.6H8.4L7.7,9.2z"/>
			
				<linearGradient id="SVGID_9_" gradientUnits="userSpaceOnUse" x1="37.0196" y1="-23.1" x2="38.6329" y2="-23.1" gradientTransform="matrix(0.2667 0 0 -0.2667 0 4.2667)">
				<stop  offset="0" style="stop-color:#050505"/>
				<stop  offset="1" style="stop-color:#1E1E21"/>
			</linearGradient>
			<path class="st8" d="M9.9,9.2h0.2h0.2v2.5h-0.2H9.9V9.2z"/>
			
				<linearGradient id="SVGID_10_" gradientUnits="userSpaceOnUse" x1="40.4463" y1="-23.1" x2="47.3011" y2="-23.1" gradientTransform="matrix(0.2667 0 0 -0.2667 0 4.2667)">
				<stop  offset="0" style="stop-color:#050505"/>
				<stop  offset="1" style="stop-color:#1E1E21"/>
			</linearGradient>
			<path class="st9" d="M12.6,10.8c0,0.3-0.1,0.5-0.3,0.7c-0.2,0.2-0.3,0.2-0.6,0.2c-0.3,0-0.5-0.1-0.7-0.3s-0.3-0.6-0.3-1
				c0-0.4,0.1-0.7,0.3-1c0.2-0.2,0.4-0.3,0.7-0.3c0.2,0,0.4,0.1,0.6,0.2c0.2,0.2,0.2,0.4,0.3,0.6h-0.4c0-0.1-0.1-0.2-0.1-0.3
				s-0.2-0.1-0.3-0.1c-0.2,0-0.3,0.1-0.4,0.2c-0.1,0.2-0.1,0.4-0.1,0.6c0,0.3,0.1,0.5,0.1,0.6c0.1,0.2,0.2,0.2,0.4,0.2
				c0.1,0,0.2-0.1,0.3-0.1s0.1-0.2,0.1-0.3L12.6,10.8L12.6,10.8z"/>
			
				<linearGradient id="SVGID_11_" gradientUnits="userSpaceOnUse" x1="49.1655" y1="-23.1" x2="55" y2="-23.1" gradientTransform="matrix(0.2667 0 0 -0.2667 0 4.2667)">
				<stop  offset="0" style="stop-color:#050505"/>
				<stop  offset="1" style="stop-color:#1E1E21"/>
			</linearGradient>
			<path class="st10" d="M13.1,11.7V9.2h1.5v0.2v0.2h-1.1v0.5h1v0.2v0.2h-1v0.6h1.1v0.3v0.2H13.1z"/>
		</g>
	</g>
</g>
</svg>
