<?xml version="1.0" encoding="utf-8"?>
<!-- Generator: Adobe Illustrator 18.1.0, SVG Export Plug-In . SVG Version: 6.00 Build 0)  -->
<svg version="1.1" id="图层_1" xmlns="http://www.w3.org/2000/svg" xmlns:xlink="http://www.w3.org/1999/xlink" x="0px" y="0px"
	 width="16px" height="16px" viewBox="0 0 16 16" style="enable-background:new 0 0 16 16;" xml:space="preserve">
<style type="text/css">
	.st0{fill:url(#SVGID_1_);}
	.st1{fill:url(#SVGID_2_);}
</style>
<g>
	
		<linearGradient id="SVGID_1_" gradientUnits="userSpaceOnUse" x1="0" y1="-14" x2="60" y2="-14" gradientTransform="matrix(0.2667 0 0 -0.2667 0 4.2667)">
		<stop  offset="0" style="stop-color:#B9BBBD"/>
		<stop  offset="3.208770e-002" style="stop-color:#B6B8BA"/>
		<stop  offset="5.619587e-002" style="stop-color:#ADAEB1"/>
		<stop  offset="8.827712e-002" style="stop-color:#9D9EA1"/>
		<stop  offset="0.1241" style="stop-color:#C1C1C2"/>
		<stop  offset="0.1924" style="stop-color:#F0F0F0"/>
		<stop  offset="0.2083" style="stop-color:#FBFBFB"/>
		<stop  offset="0.2247" style="stop-color:#FFFFFF"/>
		<stop  offset="0.3015" style="stop-color:#EEEEEF"/>
		<stop  offset="0.3853" style="stop-color:#E3E3E4"/>
		<stop  offset="0.4775" style="stop-color:#DFE0E1"/>
		<stop  offset="0.7191" style="stop-color:#FFFFFF"/>
		<stop  offset="0.779" style="stop-color:#FDFDFD"/>
		<stop  offset="0.8065" style="stop-color:#F6F5F5"/>
		<stop  offset="0.8258" style="stop-color:#EBEAEA"/>
		<stop  offset="0.927" style="stop-color:#797A7D"/>
		<stop  offset="1" style="stop-color:#BEC0C1"/>
	</linearGradient>
	<path class="st0" d="M13.5,16h-11C1.1,16,0,14.9,0,13.5v-11C0,1.1,1.1,0,2.5,0h11C14.9,0,16,1.1,16,2.5v11C16,14.9,14.9,16,13.5,16
		z"/>
	
		<linearGradient id="SVGID_2_" gradientUnits="userSpaceOnUse" x1="10" y1="-14.05" x2="50" y2="-14.05" gradientTransform="matrix(0.2667 0 0 -0.2667 0 4.2667)">
		<stop  offset="0" style="stop-color:#050505"/>
		<stop  offset="1" style="stop-color:#1E1E21"/>
	</linearGradient>
	<path class="st1" d="M7,8C6.5,7.7,6,7.6,5.5,7.6c-0.1,0-0.1,0-0.2,0C4.7,7.7,4.2,7.8,3.9,7.9C3.8,8,3.7,8,3.6,8.1l-0.9,3.2
		c0.6-0.2,1.2-0.3,1.7-0.3c0.9,0,1.4,0.3,1.9,0.6c0.2-0.8,0.8-2.8,1-3.4C7.2,8.1,7.1,8.1,7,8L7,8z M8.2,8.8l-0.9,3.3
		c0.3,0.2,1.2,0.7,1.9,0.7c0.6,0,1.2-0.2,2-0.5l0.9-3.1c-0.6,0.2-1.2,0.3-1.7,0.3C9.3,9.5,8.6,9.1,8.2,8.8L8.2,8.8z M5.7,6.5
		c0.8,0,1.4,0.3,1.9,0.6l1-3.3C8.3,3.7,7.8,3.4,7.4,3.3C7.2,3.3,6.9,3.3,6.6,3.3c-0.5,0-1.1,0.1-1.8,0.4L3.9,6.9
		C4.6,6.6,5.2,6.5,5.7,6.5L5.7,6.5L5.7,6.5z M13.3,4.7c-0.6,0.2-1.2,0.3-1.8,0.3c-1,0-1.7-0.3-2.1-0.6l-1,3.3
		c0.6,0.4,1.3,0.6,2.1,0.6c0.6,0,1.2-0.1,1.8-0.4v0h0L13.3,4.7L13.3,4.7z"/>
</g>
</svg>
